<svg width="1146" height="1453" viewBox="0 0 1146 1453" fill="none" xmlns="http://www.w3.org/2000/svg">
<path opacity="0.9" d="M1108.15 1224.55C1083.85 1288.02 1033.81 1336.57 958.01 1370.18C882.211 1403.79 779.173 1427.91 648.896 1442.53C518.607 1457.15 412.775 1456.46 331.4 1440.46C250.026 1424.46 190.354 1387.18 152.385 1328.61C114.406 1270.06 89.6496 1217.34 78.1159 1170.48C66.5762 1123.68 55.4725 1052.68 44.8049 957.475C34.1374 862.388 29.2347 790.697 30.0967 742.401C30.9791 694.205 42.6438 639.499 65.0907 578.281C110.425 460.142 265.461 386.215 530.201 356.502C790.783 327.273 954.213 365.477 1020.49 471.114C1060.5 529.447 1086.3 582.048 1097.88 628.916C1109.4 675.804 1120.5 746.799 1131.19 841.902C1141.87 937.098 1146.78 1008.79 1145.9 1056.98C1145.04 1105.27 1132.45 1161.13 1108.15 1224.55Z" fill="#FF4F45"/>
<path d="M381.69 709.147C344.99 717.687 307.156 709.76 268.188 685.366C229.221 660.972 186.158 621.117 139 565.802C91.8501 510.477 59.321 461.641 41.4126 419.294C23.5043 376.946 22.1165 337.957 37.2493 302.328C52.3682 266.704 68.9032 238.97 86.8545 219.127C104.778 199.298 133.953 172.16 174.38 137.713C214.765 103.299 246.182 78.7959 268.632 64.2046C291.049 49.6524 319.804 38.0333 354.897 29.3472C423.251 13.5027 505.33 61.789 601.135 174.206C695.439 284.855 728.609 371.8 700.645 435.042C686.268 471.528 670.107 499.705 652.163 519.575C634.198 539.422 605.025 566.558 564.644 600.983C524.217 635.437 492.8 659.939 470.392 674.491C447.938 689.082 418.37 700.634 381.69 709.147Z" fill="#222A33"/>
</svg>
