<svg width="834" height="1045" viewBox="0 0 834 1045" fill="none" xmlns="http://www.w3.org/2000/svg">
<g opacity="0.5" filter="url(#filter0_d)">
<path d="M387.747 723.702C358.148 718.945 332.671 701.72 311.316 672.025C289.961 642.331 270.243 600.019 252.162 545.087C234.091 490.151 224.834 444.394 224.392 407.817C223.949 371.24 234.663 342.109 256.532 320.424C278.389 298.739 298.914 283.292 318.107 274.081C337.274 264.873 366.929 253.669 407.071 240.468C447.17 227.279 477.683 218.69 498.608 214.702C519.497 210.732 544.171 210.83 572.631 214.996C627.739 223.901 673.653 284.167 710.372 395.794C746.518 505.667 744.776 579.682 705.147 617.84C683.576 640.383 663.193 656.27 643.997 665.502C624.793 674.711 595.141 685.914 555.041 699.112C514.898 712.318 484.385 720.907 463.503 724.878C442.575 728.865 417.323 728.473 387.747 723.702Z" fill="#EFEFE8"/>
</g>
<path d="M599.916 387.961L593.316 383.687L589.222 390.414L597.337 394.256L599.916 387.961Z" fill="#FFC1B5"/>
<path d="M596.832 388.124C598.347 387.438 613.912 381.992 615.192 383.795C616.797 386.194 607.202 388.142 605.579 388.809C607.611 389.17 609.565 389.884 611.351 390.919C612.974 391.749 619.052 394.4 618.565 395.969C618.078 397.538 613.713 395.969 610.359 394.815C609.295 394.472 607.04 393.678 606.03 393.39C609.403 394.941 617.627 399.341 616.004 401.289C614.38 403.237 605.669 397.682 603.379 395.879C606.283 398.368 615.39 404.049 613.262 406.159C612.126 407.295 604.245 400.748 602.441 399.486C603.343 400.965 609.168 406.7 607.202 408.341C604.317 410.541 598.528 399.937 597.464 398.079C596.399 396.221 593.406 389.494 597.842 387.655" fill="#FFC1B5"/>
<path d="M327.388 413.427L332.871 407.782L338.371 413.409L331.338 418.982L327.388 413.427Z" fill="#FFC1B5"/>
<path d="M330.436 412.886C328.813 412.579 312.401 410.758 311.571 412.886C310.543 415.591 320.336 415.321 322.086 415.609C320.182 416.414 318.436 417.55 316.928 418.964C315.521 420.136 310.201 424.086 311.102 425.492C312.004 426.899 315.827 424.392 318.839 422.535C319.795 421.939 321.815 420.731 322.735 420.154C319.795 422.426 312.78 428.576 314.781 430.109C316.783 431.642 324.033 424.212 325.945 421.994C323.673 425.059 316.08 432.652 318.731 434.239C320.102 435.069 326.216 427.025 327.749 425.222C327.208 426.863 322.843 433.788 325.134 434.907C328.434 436.422 331.68 424.789 332.348 422.715C333.015 420.641 334.35 413.445 329.606 412.651" fill="#FFC1B5"/>
<path d="M477.242 327.219C477.242 327.219 545.45 350.647 598.275 384.192L591.151 395.013L501.914 359.304C503.717 360.079 524.71 422.246 525.864 433.139C527.018 444.032 509.506 449.064 484.221 436.566L478.288 355.949L477.242 327.219Z" fill="#222A33"/>
<path d="M465.717 325.776C465.717 325.776 397.563 341.828 328.182 408.413L338.75 419.018C338.75 419.018 393.613 377.754 439.043 359.087C439.043 359.087 416.247 428.432 417.239 445.439C418.231 462.446 450.55 442.193 450.55 442.193L462.345 350.755L465.717 325.776Z" fill="#222A33"/>
<path d="M463.625 328.283C463.625 328.283 432.19 384.354 434.589 477.127C434.589 477.127 474.013 473.736 508.352 477.758C508.352 477.758 506.819 382.298 477.242 327.237C477.242 327.219 468.819 331.89 463.625 328.283Z" fill="white"/>
<path d="M440.195 447.166C440.206 446.941 440.355 446.82 440.641 446.805C440.755 446.794 440.871 446.8 440.984 446.822C441.017 446.829 441.049 446.843 441.077 446.863C441.105 446.884 441.129 446.91 441.147 446.94C441.175 446.988 441.196 447.041 441.208 447.096C441.219 447.164 441.225 447.234 441.228 447.303L441.342 449.399C441.347 449.469 441.347 449.538 441.344 449.608C441.339 449.663 441.325 449.718 441.304 449.769C441.254 449.876 441.123 449.935 440.909 449.947C440.696 449.958 440.551 449.939 440.476 449.889C440.438 449.863 440.406 449.829 440.382 449.79C440.358 449.75 440.343 449.705 440.337 449.659C440.203 449.879 439.967 449.998 439.628 450.016C439.289 450.034 438.966 449.893 438.659 449.593C438.364 449.314 438.187 448.929 438.166 448.519C438.144 448.11 438.279 447.708 438.542 447.399C438.818 447.07 439.13 446.895 439.478 446.877C439.603 446.868 439.728 446.885 439.846 446.926C439.931 446.954 440.011 446.995 440.083 447.049C440.124 447.084 440.161 447.123 440.195 447.166ZM439.193 448.469C439.197 448.535 439.215 448.601 439.244 448.661C439.274 448.72 439.315 448.774 439.365 448.817C439.415 448.865 439.475 448.903 439.54 448.927C439.606 448.951 439.675 448.96 439.744 448.956C439.813 448.954 439.88 448.937 439.941 448.906C440.003 448.875 440.057 448.83 440.099 448.776C440.184 448.675 440.227 448.545 440.221 448.413C440.213 448.279 440.156 448.153 440.064 448.058C440.016 448.005 439.956 447.965 439.891 447.939C439.825 447.913 439.754 447.903 439.684 447.91C439.613 447.912 439.543 447.929 439.48 447.962C439.416 447.994 439.361 448.041 439.317 448.098C439.232 448.202 439.188 448.334 439.193 448.469Z" fill="#333333"/>
<path d="M442.733 447.112C442.902 446.818 443.116 446.664 443.374 446.65C443.773 446.629 444.079 446.786 444.295 447.123C444.34 447.055 444.389 446.99 444.441 446.928C444.523 446.838 444.617 446.76 444.72 446.696C444.841 446.614 444.981 446.566 445.126 446.557C445.275 446.547 445.425 446.571 445.564 446.627C445.704 446.684 445.829 446.771 445.931 446.883C446.158 447.115 446.286 447.514 446.317 448.082L446.374 449.133C446.379 449.202 446.38 449.272 446.377 449.341C446.37 449.397 446.354 449.452 446.329 449.503C446.284 449.613 446.136 449.675 445.886 449.689C445.635 449.702 445.481 449.655 445.424 449.546C445.397 449.497 445.377 449.444 445.366 449.39C445.356 449.321 445.349 449.252 445.346 449.183L445.289 448.133C445.271 447.786 445.14 447.618 444.897 447.632C444.759 447.639 444.669 447.69 444.625 447.784C444.576 447.909 444.558 448.043 444.571 448.177L444.628 449.228C444.633 449.298 444.634 449.369 444.631 449.439C444.624 449.494 444.608 449.548 444.583 449.597C444.534 449.708 444.384 449.77 444.134 449.784C443.883 449.798 443.729 449.75 443.672 449.641C443.645 449.592 443.626 449.539 443.614 449.485C443.604 449.416 443.597 449.348 443.594 449.278L443.537 448.228C443.518 447.881 443.388 447.713 443.145 447.727C442.91 447.739 442.802 447.92 442.821 448.267L442.878 449.328C442.883 449.397 442.884 449.466 442.881 449.535C442.874 449.592 442.858 449.646 442.833 449.697C442.78 449.804 442.63 449.864 442.383 449.878C442.137 449.891 441.983 449.845 441.922 449.74C441.895 449.692 441.876 449.641 441.864 449.587C441.853 449.519 441.845 449.449 441.842 449.38L441.728 447.269C441.723 447.2 441.722 447.13 441.725 447.061C441.731 447.008 441.748 446.956 441.773 446.908C441.826 446.797 441.961 446.736 442.182 446.724C442.403 446.712 442.546 446.74 442.616 446.808C442.692 446.89 442.734 446.999 442.733 447.112Z" fill="#333333"/>
<path d="M448.644 446.707C448.655 446.482 448.804 446.362 449.09 446.346C449.204 446.335 449.32 446.341 449.433 446.364C449.466 446.371 449.498 446.385 449.526 446.405C449.554 446.425 449.578 446.451 449.595 446.481C449.624 446.529 449.645 446.582 449.656 446.637C449.667 446.705 449.674 446.774 449.676 446.843L449.79 448.94C449.795 449.009 449.796 449.079 449.793 449.148C449.787 449.203 449.774 449.258 449.752 449.309C449.703 449.416 449.572 449.475 449.358 449.487C449.144 449.498 449 449.479 448.924 449.429C448.886 449.403 448.854 449.369 448.83 449.33C448.806 449.29 448.791 449.246 448.785 449.199C448.652 449.419 448.416 449.538 448.077 449.556C447.738 449.574 447.415 449.434 447.108 449.134C446.81 448.855 446.632 448.468 446.613 448.056C446.601 447.854 446.629 447.651 446.694 447.459C446.76 447.268 446.862 447.091 446.994 446.94C447.269 446.611 447.58 446.437 447.929 446.418C448.053 446.409 448.177 446.426 448.295 446.468C448.38 446.495 448.46 446.537 448.531 446.59C448.573 446.625 448.61 446.664 448.644 446.707ZM447.643 448.01C447.647 448.077 447.665 448.142 447.694 448.202C447.724 448.262 447.765 448.315 447.815 448.358C447.866 448.407 447.925 448.444 447.99 448.468C448.056 448.492 448.125 448.501 448.194 448.497C448.262 448.495 448.329 448.477 448.39 448.446C448.451 448.415 448.504 448.371 448.546 448.317C448.632 448.217 448.676 448.087 448.67 447.954C448.662 447.82 448.606 447.694 448.512 447.599C448.464 447.546 448.405 447.506 448.339 447.48C448.273 447.455 448.203 447.445 448.133 447.451C448.062 447.453 447.992 447.47 447.929 447.503C447.865 447.535 447.81 447.582 447.766 447.639C447.681 447.743 447.638 447.875 447.643 448.01Z" fill="#333333"/>
<path d="M451.765 448.31L452.771 448.256C452.927 448.247 453.041 448.261 453.112 448.298C453.18 448.332 453.233 448.391 453.259 448.464C453.291 448.56 453.308 448.661 453.311 448.762C453.319 448.864 453.313 448.966 453.292 449.065C453.285 449.099 453.271 449.131 453.251 449.159C453.231 449.187 453.206 449.211 453.177 449.228C453.129 449.258 453.078 449.279 453.023 449.291C452.957 449.302 452.889 449.308 452.822 449.311L450.7 449.426C450.633 449.43 450.566 449.42 450.503 449.397C450.44 449.373 450.382 449.337 450.333 449.29C450.282 449.245 450.24 449.189 450.21 449.127C450.181 449.065 450.164 448.997 450.161 448.928C450.156 448.859 450.165 448.79 450.188 448.725C450.211 448.66 450.247 448.601 450.293 448.551C450.389 448.445 450.538 448.29 450.739 448.085C450.941 447.881 451.123 447.697 451.287 447.535C451.451 447.372 451.541 447.282 451.555 447.266L450.727 447.31C450.504 447.323 450.36 447.292 450.297 447.22C450.221 447.121 450.18 447 450.18 446.875C450.171 446.767 450.175 446.659 450.192 446.552C450.202 446.496 450.223 446.441 450.254 446.393C450.284 446.354 450.323 446.324 450.367 446.306C450.466 446.277 450.568 446.261 450.671 446.259L452.581 446.156C452.648 446.151 452.714 446.161 452.777 446.183C452.84 446.206 452.898 446.241 452.948 446.286C453 446.332 453.043 446.388 453.072 446.451C453.102 446.514 453.119 446.583 453.121 446.653C453.125 446.728 453.113 446.804 453.086 446.874C453.06 446.945 453.019 447.009 452.966 447.063C452.854 447.184 452.454 447.6 451.765 448.31Z" fill="#333333"/>
<path d="M458.123 445.269C458.108 445.301 458.088 445.328 458.062 445.351C458.036 445.373 458.006 445.39 457.974 445.401C457.88 445.433 457.781 445.45 457.681 445.453C457.581 445.461 457.481 445.454 457.382 445.433C457.349 445.426 457.317 445.412 457.289 445.392C457.261 445.371 457.237 445.345 457.22 445.315C457.191 445.267 457.171 445.215 457.159 445.16C457.148 445.091 457.141 445.022 457.139 444.953C457.134 444.884 457.133 444.815 457.136 444.746C457.141 444.692 457.155 444.64 457.177 444.59C457.226 444.48 457.375 444.417 457.625 444.404C457.876 444.39 458.027 444.436 458.081 444.541C458.111 444.589 458.133 444.642 458.145 444.697C458.156 444.765 458.163 444.834 458.165 444.903C458.17 444.973 458.171 445.042 458.168 445.111C458.162 445.166 458.147 445.22 458.123 445.269ZM457.217 446.435C457.212 446.366 457.211 446.297 457.215 446.228C457.22 446.172 457.234 446.118 457.255 446.066C457.305 445.959 457.455 445.899 457.705 445.886C457.894 445.876 458.029 445.902 458.11 445.964C458.147 445.995 458.177 446.033 458.198 446.077C458.218 446.12 458.23 446.168 458.23 446.216C458.236 446.256 458.241 446.314 458.246 446.39L458.359 448.487C458.364 448.556 458.365 448.625 458.362 448.695C458.356 448.751 458.339 448.806 458.314 448.856C458.269 448.963 458.121 449.023 457.871 449.037C457.62 449.05 457.466 449.004 457.409 448.9C457.383 448.852 457.363 448.8 457.351 448.746C457.341 448.677 457.334 448.607 457.331 448.537L457.217 446.435Z" fill="#333333"/>
<path d="M460.435 445.73C460.621 445.717 460.808 445.746 460.982 445.816C461.156 445.886 461.312 445.995 461.439 446.135C461.717 446.427 461.868 446.792 461.892 447.232L461.95 448.288C461.955 448.357 461.955 448.426 461.952 448.495C461.947 448.549 461.933 448.601 461.911 448.651C461.862 448.761 461.712 448.823 461.461 448.837C461.183 448.852 461.019 448.787 460.967 448.642C460.934 448.544 460.917 448.441 460.916 448.338L460.858 447.282C460.86 447.212 460.847 447.142 460.821 447.078C460.794 447.013 460.753 446.955 460.702 446.908C460.651 446.861 460.59 446.826 460.525 446.805C460.459 446.785 460.39 446.779 460.322 446.788C460.252 446.788 460.183 446.803 460.119 446.831C460.055 446.86 459.997 446.901 459.949 446.952C459.903 447.005 459.869 447.066 459.848 447.132C459.826 447.198 459.819 447.268 459.825 447.338L459.883 448.4C459.888 448.469 459.889 448.538 459.885 448.607C459.88 448.662 459.863 448.715 459.838 448.763C459.795 448.874 459.645 448.936 459.394 448.95C459.144 448.963 458.994 448.917 458.933 448.812C458.906 448.764 458.887 448.711 458.875 448.656C458.865 448.588 458.858 448.519 458.855 448.45L458.74 446.327C458.735 446.26 458.735 446.193 458.738 446.126C458.744 446.072 458.761 446.02 458.786 445.973C458.835 445.87 458.983 445.812 459.23 445.798C459.469 445.785 459.619 445.823 459.68 445.912C459.725 445.985 459.75 446.068 459.752 446.155C459.779 446.107 459.811 446.064 459.849 446.026C459.895 445.976 459.946 445.931 460.001 445.892C460.126 445.794 460.277 445.738 460.435 445.73Z" fill="#333333"/>
<path d="M464.289 448.291C464.151 448.5 463.919 448.613 463.594 448.63C463.269 448.648 462.956 448.512 462.655 448.221C462.366 447.949 462.192 447.573 462.171 447.173C462.15 446.772 462.283 446.38 462.542 446.079C462.811 445.756 463.116 445.585 463.457 445.567C463.582 445.558 463.708 445.577 463.825 445.621C463.91 445.65 463.989 445.692 464.059 445.747C464.098 445.781 464.133 445.818 464.164 445.859C464.163 445.81 464.173 445.762 464.191 445.717C464.209 445.672 464.236 445.631 464.27 445.597C464.335 445.536 464.445 445.501 464.598 445.493C464.71 445.482 464.824 445.488 464.934 445.51C464.967 445.518 464.997 445.532 465.024 445.551C465.051 445.571 465.074 445.596 465.091 445.625C465.119 445.671 465.14 445.722 465.152 445.775C465.163 445.842 465.17 445.91 465.172 445.978L465.307 448.457C465.332 448.916 465.195 449.295 464.897 449.594C464.624 449.882 464.254 450.054 463.862 450.076C463.564 450.092 463.267 450.032 462.997 449.901C462.719 449.767 462.577 449.641 462.57 449.522C462.566 449.444 462.578 449.367 462.605 449.294C462.631 449.222 462.672 449.155 462.725 449.1C462.775 449.034 462.83 448.973 462.889 448.916C462.929 448.882 462.978 448.863 463.03 448.861C463.093 448.861 463.154 448.883 463.203 448.923C463.384 449.056 463.604 449.122 463.826 449.112C463.897 449.109 463.965 449.09 464.027 449.055C464.089 449.021 464.141 448.972 464.181 448.912C464.269 448.784 464.311 448.629 464.299 448.473L464.289 448.291ZM463.176 447.123C463.18 447.188 463.197 447.253 463.226 447.312C463.255 447.37 463.296 447.423 463.345 447.465C463.395 447.513 463.453 447.55 463.518 447.573C463.582 447.596 463.65 447.606 463.718 447.601C463.785 447.599 463.851 447.582 463.911 447.551C463.971 447.521 464.023 447.477 464.065 447.423C464.149 447.325 464.192 447.198 464.187 447.068C464.178 446.937 464.123 446.814 464.033 446.722C463.986 446.67 463.927 446.63 463.863 446.605C463.798 446.58 463.728 446.57 463.659 446.577C463.59 446.578 463.521 446.595 463.459 446.626C463.396 446.657 463.341 446.702 463.298 446.758C463.213 446.859 463.17 446.99 463.176 447.123Z" fill="#333333"/>
<path d="M455.811 449.157C455.795 449.191 455.772 449.221 455.744 449.246C455.715 449.271 455.682 449.29 455.647 449.301C455.434 449.366 455.21 449.378 454.992 449.337C454.955 449.329 454.92 449.313 454.889 449.291C454.858 449.269 454.833 449.24 454.813 449.207C454.781 449.154 454.758 449.096 454.745 449.035C454.733 448.96 454.726 448.884 454.723 448.808C454.718 448.732 454.717 448.656 454.72 448.579C454.726 448.52 454.742 448.462 454.766 448.408C454.82 448.286 454.986 448.217 455.262 448.202C455.538 448.187 455.705 448.237 455.763 448.354C455.796 448.406 455.82 448.464 455.834 448.526C455.846 448.601 455.853 448.677 455.856 448.753C455.861 448.829 455.862 448.905 455.858 448.982C455.853 449.042 455.837 449.102 455.811 449.157Z" fill="#FF4F45"/>
<path d="M453.728 445.653L453.619 445.778C453.435 445.986 453.453 446.307 453.658 446.495L454.873 447.607C455.078 447.794 455.393 447.777 455.577 447.569L455.686 447.444C455.869 447.236 455.852 446.914 455.647 446.727L454.432 445.615C454.227 445.428 453.912 445.445 453.728 445.653Z" fill="url(#paint0_linear)"/>
<path d="M456.627 445.617L456.505 445.505C456.3 445.317 455.985 445.335 455.801 445.543L454.713 446.78C454.53 446.989 454.547 447.31 454.752 447.497L454.874 447.609C455.08 447.797 455.395 447.78 455.578 447.571L456.666 446.334C456.849 446.125 456.832 445.804 456.627 445.617Z" fill="url(#paint1_linear)"/>
<path d="M455.685 447.444L455.576 447.569C455.491 447.665 455.374 447.725 455.247 447.735C455.12 447.746 454.994 447.707 454.894 447.626L454.875 447.609L454.753 447.497C454.704 447.452 454.664 447.398 454.636 447.338C454.608 447.278 454.591 447.213 454.588 447.146C454.584 447.08 454.593 447.013 454.615 446.95C454.637 446.887 454.67 446.829 454.714 446.78L455.156 446.278L455.646 446.727C455.695 446.772 455.735 446.825 455.763 446.886C455.792 446.946 455.808 447.011 455.812 447.078C455.815 447.144 455.806 447.211 455.784 447.274C455.763 447.337 455.729 447.395 455.685 447.444Z" fill="url(#paint2_linear)"/>
<path d="M468.26 477.109C468.26 477.109 465.32 360.187 469.703 337.499C469.703 337.499 467.701 450.345 471.506 477.109H468.26Z" fill="#E6E6E6"/>
<path d="M456.086 344.894C456.086 344.894 464.761 339.086 467.485 334.487L473.021 334.83C473.021 334.83 478.666 345.651 486.007 346.643L484.87 343.162L473.689 328.283H467.791L457.223 341.377L456.086 344.894Z" fill="#E6E6E6"/>
<path d="M448.403 217.007C448.403 217.007 423.371 267.18 444.959 274.34L454.211 230.515L448.403 217.007Z" fill="#FF4F45"/>
<path d="M509.615 252.193C509.615 252.193 499.154 292.015 484.131 286.947C474.663 283.773 484.131 277.262 484.131 277.262L504.186 252.211L509.615 252.193Z" fill="#FF4F45"/>
<path d="M445.536 256.558C445.536 256.558 434.336 245.484 431.721 250.732C429.106 255.98 444.346 262.112 444.346 262.112L445.536 256.558Z" fill="#FFC1B5"/>
<path d="M455.69 221.083C455.69 221.083 421.982 259.75 450.478 296.451C455.78 303.251 465.789 311.42 465.753 327.4C465.753 327.4 472.048 329.943 477.242 327.219C477.242 327.219 477.963 300.996 484.023 292.953C490.083 284.909 506.242 265.016 507.883 252.247C508.828 244.324 508.327 236.294 506.404 228.549L455.69 221.083Z" fill="#FFC1B5"/>
<path d="M494.068 276.991C494.068 276.991 509.506 280.147 508.839 274.34C508.172 268.533 492.03 271.707 492.03 271.707L494.068 276.991Z" fill="#FFC1B5"/>
<path d="M446.257 229.397C444.339 227.806 442.576 226.036 440.991 224.112C438.122 220.89 436.058 217.033 434.967 212.859C431.577 197.258 451.848 177.654 469.378 185.986C476.076 188.989 481.958 193.553 486.53 199.296C491.176 205.085 496.842 209.975 503.248 213.724C510.462 217.872 519.227 221.588 521.283 229.577C521.964 233.528 521.597 237.589 520.219 241.354C517.821 249.596 512.248 257.441 508.262 265.052C507.306 266.856 504.817 271.491 502.852 270.968C501.911 270.868 500.965 270.832 500.02 270.859C489.866 274.809 502.599 257.928 503.627 255.205C504.475 253.005 505.575 248.207 504.637 246.476C502.978 243.41 492.337 243.518 488.874 242.58C475.961 239.064 456.231 237.747 446.257 229.397Z" fill="#FF4F45"/>
<path d="M467.196 249.452C464.396 252.741 461.84 256.231 459.549 259.894C458.359 261.932 456.068 265.81 457.06 268.407C458.052 271.004 461.894 268.551 463.12 266.946C463.337 266.675 463.12 266.188 462.687 266.369C461.746 267.069 460.737 267.673 459.675 268.172C456.646 268.912 458.665 264.096 459.441 262.473C461.765 258.022 464.558 253.832 467.773 249.975C467.815 249.897 467.828 249.808 467.81 249.721C467.793 249.635 467.746 249.558 467.678 249.502C467.61 249.447 467.524 249.417 467.436 249.417C467.348 249.418 467.264 249.449 467.196 249.506V249.452Z" fill="#BC6C6C"/>
<path d="M475.294 255.097C475.47 255.566 475.452 256.085 475.246 256.541C475.04 256.997 474.662 257.354 474.194 257.531C473.202 257.928 472.607 257.261 472.228 256.305C472.13 256.076 472.081 255.83 472.083 255.581C472.085 255.333 472.139 255.087 472.241 254.86C472.342 254.633 472.49 254.43 472.674 254.263C472.858 254.095 473.074 253.968 473.31 253.888C474.248 253.492 474.915 254.141 475.294 255.097Z" fill="#333333"/>
<path d="M456.97 252.824C456.82 253.027 456.628 253.196 456.408 253.32C456.187 253.445 455.944 253.521 455.692 253.545C455.44 253.569 455.186 253.539 454.947 253.459C454.707 253.378 454.487 253.248 454.301 253.077C453.471 252.391 453.76 251.562 454.409 250.768C454.557 250.563 454.747 250.391 454.966 250.263C455.184 250.136 455.428 250.056 455.679 250.028C455.931 250.001 456.186 250.027 456.427 250.105C456.668 250.183 456.89 250.31 457.078 250.48C457.836 251.147 457.619 252.031 456.97 252.824Z" fill="#333333"/>
<path d="M481.931 266.116C481.48 267.144 479.388 267.234 477.26 266.297C475.131 265.359 473.779 263.754 474.23 262.69C474.681 261.626 477.747 262.004 479.875 262.942C482.003 263.88 482.327 265.16 481.931 266.116Z" fill="#E89F91"/>
<path d="M443.624 261.193C443.732 260.074 445.68 259.389 447.989 259.515C450.297 259.642 452.101 260.778 452.01 261.896C451.92 263.014 448.908 263.699 446.6 263.483C444.291 263.267 443.534 262.311 443.624 261.193Z" fill="#E89F91"/>
<path d="M478.161 248.352C479.167 249.041 480.229 249.644 481.336 250.155C482.4 250.66 483.554 251.526 484.726 250.895C485.06 250.747 485.326 250.48 485.473 250.147C485.62 249.813 485.636 249.436 485.52 249.091C485.195 247.792 483.716 247.522 482.688 247.071C481.52 246.606 480.313 246.244 479.081 245.989C478.806 245.959 478.528 246.017 478.289 246.156C478.049 246.295 477.86 246.506 477.749 246.76C477.638 247.014 477.612 247.297 477.673 247.567C477.734 247.837 477.88 248.08 478.089 248.261L478.161 248.352Z" fill="#FF4F45"/>
<path d="M458.251 243.121C456.9 242.951 455.53 243.036 454.211 243.374C453.852 243.462 453.535 243.672 453.314 243.968C453.094 244.264 452.984 244.628 453.002 244.997C453.02 245.369 453.176 245.722 453.439 245.985C453.703 246.249 454.055 246.404 454.427 246.422C455.905 246.338 457.351 245.965 458.684 245.322C458.905 245.209 459.083 245.027 459.191 244.804C459.3 244.58 459.332 244.328 459.283 244.084C459.233 243.841 459.106 243.62 458.92 243.456C458.733 243.292 458.498 243.193 458.251 243.176V243.121Z" fill="#FF4F45"/>
<path d="M460.956 275.639C462.467 275.352 463.999 275.189 465.537 275.152C466.631 275.289 467.654 275.77 468.457 276.525C469.261 277.28 469.804 278.27 470.01 279.354C470.497 282.222 467.358 283.628 463.787 283.989C462.147 284.18 460.486 284.076 458.882 283.682C453.652 282.258 450.081 276.991 453.471 274.521C455.437 272.915 458.287 275.801 460.956 275.639Z" fill="#8C4542"/>
<path d="M465.086 330.375L467.972 340.637L471.849 340.006L476.701 330.375L469.973 328.86L465.086 330.375Z" fill="#582C46"/>
<path d="M465.717 325.776C465.717 325.776 454.283 338.834 455.978 341.305C457.674 343.775 469.973 328.86 469.973 328.86C469.973 328.86 482.76 344.695 486.548 344.893C490.335 345.092 477.314 325.596 477.314 325.596C477.314 325.596 473.057 327.76 465.717 325.776Z" fill="white"/>
<path d="M468.801 339.104C468.801 339.104 470.839 431.642 510.516 450.471L521.229 444.375L516.125 434.69C516.125 434.69 478.72 421.146 471.128 339.104H468.801Z" fill="#582C46"/>
<path d="M472.534 351.242L469.703 353.334C469.811 354.47 469.919 355.642 470.046 356.941L473.039 354.741C472.859 353.532 472.697 352.396 472.534 351.242Z" fill="#AEA1B2"/>
<path d="M475.113 366.427L471.831 371.567C472.011 372.722 472.192 373.894 472.39 375.174L475.889 369.764C475.636 368.61 475.384 367.546 475.113 366.427Z" fill="#AEA1B2"/>
<path d="M479.027 381.577L475.42 390.378C475.709 391.677 476.015 392.975 476.34 394.274L479.947 384.607C479.64 383.615 479.334 382.605 479.027 381.577Z" fill="#AEA1B2"/>
<path d="M484.221 396.041L479.857 406.862C480.199 407.944 480.56 409.008 480.939 410.09L485.592 399.107C485.123 398.133 484.672 397.105 484.221 396.041Z" fill="#AEA1B2"/>
<path d="M489.866 407.638L486.259 423.166C486.818 424.338 487.395 425.474 488.063 426.593C488.982 422.769 490.588 416.006 491.67 410.613C491.038 409.567 490.443 408.576 489.866 407.638Z" fill="#AEA1B2"/>
<path d="M497.711 419.27L494.447 436.782C495.205 437.774 495.998 438.748 496.81 439.686L499.749 421.651C499.082 420.966 498.397 420.136 497.711 419.27Z" fill="#AEA1B2"/>
<path d="M505.557 427.639L503.97 446.485C504.962 447.225 505.972 447.928 507.018 448.577L507.577 429.28C506.891 428.793 506.242 428.252 505.557 427.639Z" fill="#AEA1B2"/>
<path d="M472.336 391.117C472.838 391.117 473.32 390.918 473.675 390.563C474.03 390.208 474.23 389.726 474.23 389.224C474.23 388.722 474.03 388.24 473.675 387.885C473.32 387.53 472.838 387.33 472.336 387.33C471.834 387.33 471.352 387.53 470.997 387.885C470.642 388.24 470.442 388.722 470.442 389.224C470.442 389.726 470.642 390.208 470.997 390.563C471.352 390.918 471.834 391.117 472.336 391.117Z" fill="#1F1141"/>
<path d="M472.913 415.663C473.43 415.663 473.925 415.458 474.291 415.093C474.656 414.728 474.861 414.232 474.861 413.715C474.861 413.199 474.656 412.703 474.291 412.338C473.925 411.973 473.43 411.768 472.913 411.768C472.397 411.768 471.901 411.973 471.536 412.338C471.171 412.703 470.965 413.199 470.965 413.715C470.965 414.232 471.171 414.728 471.536 415.093C471.901 415.458 472.397 415.663 472.913 415.663Z" fill="#1F1141"/>
<path d="M473.689 441.904C474.129 441.904 474.551 441.729 474.862 441.418C475.173 441.107 475.348 440.685 475.348 440.245C475.348 439.805 475.173 439.383 474.862 439.072C474.551 438.761 474.129 438.586 473.689 438.586C473.249 438.586 472.827 438.761 472.516 439.072C472.204 439.383 472.03 439.805 472.03 440.245C472.03 440.685 472.204 441.107 472.516 441.418C472.827 441.729 473.249 441.904 473.689 441.904Z" fill="#1F1141"/>
<path d="M469.306 645.719L462.579 628.423L469.937 622.508L482.075 640.164L475.745 647.504L469.306 645.719Z" fill="#FFC1B5"/>
<path d="M487.215 644.655C487.215 644.655 453.327 679.156 448.061 674.214C448.061 674.214 442.831 673.511 453.201 659.588C461.804 648.082 468.855 644.114 468.855 644.114C468.855 644.114 474.951 648.713 480.181 637.711C480.235 637.711 486.259 639.731 487.215 644.655Z" fill="#FF8074"/>
<path d="M577.012 601.316L579.501 584.039L568.084 588.584V610.785L578.346 610.1L580.709 606.727L577.012 601.316Z" fill="#FFC1B5"/>
<path d="M573.152 619.225C573.152 619.225 614.759 594.553 611.206 588.331C611.206 588.331 611.784 583.065 595.786 589.828C582.549 595.419 577.012 601.316 577.012 601.316C577.012 601.316 580.024 608.332 568.084 610.785C568.084 610.785 568.607 617.115 573.152 619.225Z" fill="#FF8074"/>
<path d="M434.462 455.701C434.462 455.701 478.252 450.128 507.09 453.898C507.09 453.898 590.412 496.262 579.753 591.722L565.794 592.75C565.794 592.75 566.678 553.56 548.21 524.09C528.678 492.926 492.139 470.815 476.701 488.02C453.039 514.441 457.583 583.949 477.476 630.93L461.046 634.898C461.046 634.898 428.998 552.82 434.462 455.701Z" fill="#222A33"/>
<path d="M611.206 588.331C611.206 588.331 601.359 600.271 572.052 618.648L573.621 620.452C573.621 620.452 606.319 601.623 611.495 590.766C612.036 589.594 611.621 589.053 611.206 588.331Z" fill="white"/>
<path d="M448.061 674.214C448.061 674.214 461.966 668.335 487.179 644.673L488.441 646.639C488.441 646.639 461.822 673.385 449.973 675.657C448.963 675.874 448.728 674.81 448.061 674.214Z" fill="white"/>
<path d="M420.578 95H422.055L417.898 83.7266H416.508L412.352 95H413.828L414.961 91.7734H419.445L420.578 95ZM417.18 85.4375H417.227L419.031 90.5781H415.375L417.18 85.4375ZM423.133 95H424.492V89.9062C424.492 88.7812 425.273 87.9375 426.352 87.9375C427.359 87.9375 428.016 88.5781 428.016 89.5547V95H429.375V89.8359C429.375 88.7344 430.133 87.9375 431.211 87.9375C432.281 87.9375 432.898 88.5938 432.898 89.7031V95H434.258V89.3906C434.258 87.7812 433.219 86.7344 431.609 86.7344C430.469 86.7344 429.516 87.3125 429.062 88.2812H429.031C428.68 87.2969 427.859 86.7344 426.75 86.7344C425.656 86.7344 424.828 87.3125 424.445 88.1719H424.414V86.875H423.133V95ZM438.672 93.9844C437.695 93.9844 437.047 93.4766 437.047 92.7031C437.047 91.9375 437.672 91.4531 438.766 91.3828L440.938 91.25V91.9141C440.938 93.0859 439.953 93.9844 438.672 93.9844ZM438.367 95.1406C439.461 95.1406 440.492 94.5312 440.977 93.6016H441.008V95H442.297V89.3828C442.297 87.7656 441.094 86.7344 439.188 86.7344C437.266 86.7344 436.062 87.8125 435.969 89.2188H437.281C437.453 88.4219 438.109 87.9297 439.156 87.9297C440.281 87.9297 440.938 88.5234 440.938 89.5156V90.1953L438.609 90.3281C436.734 90.4375 435.664 91.3125 435.664 92.7031C435.664 94.1641 436.75 95.1406 438.367 95.1406ZM443.773 95H449.836V93.8828H445.344V93.8594L449.812 87.8672V86.875H443.781V87.9922H448.273V88.0156L443.773 94.0312V95ZM452.102 98.0391C453.57 98.0391 454.242 97.4688 454.938 95.5703L458.133 86.875H456.703L454.453 93.6406H454.43L452.18 86.875H450.727L453.727 95.0078L453.539 95.5781C453.227 96.5234 452.805 96.8906 452.047 96.8906C451.875 96.8906 451.664 96.8828 451.516 96.8516V97.9922C451.664 98.0234 451.938 98.0391 452.102 98.0391ZM459.281 95H460.641V86.875H459.281V95ZM459.961 85.5078C460.43 85.5078 460.812 85.125 460.812 84.6641C460.812 84.1953 460.43 83.8203 459.961 83.8203C459.5 83.8203 459.117 84.1953 459.117 84.6641C459.117 85.125 459.5 85.5078 459.961 85.5078ZM462.477 95H463.836V90.2188C463.836 88.8438 464.672 87.9375 465.953 87.9375C467.203 87.9375 467.82 88.6562 467.82 89.9688V95H469.18V89.7266C469.18 87.8828 468.148 86.7344 466.367 86.7344C465.109 86.7344 464.242 87.2969 463.789 88.1719H463.758V86.875H462.477V95ZM474.219 93.8672C472.82 93.8672 471.906 92.7266 471.906 90.9062C471.906 89.0859 472.82 87.9297 474.219 87.9297C475.633 87.9297 476.578 89.1172 476.578 90.9062C476.578 92.6953 475.633 93.8672 474.219 93.8672ZM474.266 98.0625C476.508 98.0625 477.938 96.7734 477.938 94.8359V86.875H476.641V88.2422H476.617C476.078 87.2969 475.125 86.7344 473.977 86.7344C471.875 86.7344 470.516 88.3594 470.516 90.9062C470.516 93.4297 471.875 95.0625 473.945 95.0625C475.086 95.0625 476.047 94.4844 476.547 93.6016H476.578V94.8828C476.578 96.0938 475.727 96.9062 474.32 96.9062C473.305 96.9062 472.5 96.4141 472.234 95.6719H470.836C471.062 97.0547 472.477 98.0625 474.266 98.0625ZM488.336 95H489.688V86.875H483.062V95H484.406V87.9922H488.336V95ZM494.969 95.1406C497.211 95.1406 498.727 93.5234 498.727 90.9375C498.727 88.3438 497.211 86.7344 494.969 86.7344C492.719 86.7344 491.203 88.3438 491.203 90.9375C491.203 93.5234 492.719 95.1406 494.969 95.1406ZM494.969 93.9453C493.531 93.9453 492.586 92.8516 492.586 90.9375C492.586 89.0234 493.531 87.9297 494.969 87.9297C496.406 87.9297 497.344 89.0234 497.344 90.9375C497.344 92.8516 496.406 93.9453 494.969 93.9453ZM501.578 95V89.2344H501.633L504.258 94.7656H505.297L507.922 89.2344H507.977V95H509.328V86.875H507.742L504.836 93.2031H504.773L501.883 86.875H500.234V95H501.578ZM514.609 95.1406C516.852 95.1406 518.367 93.5234 518.367 90.9375C518.367 88.3438 516.852 86.7344 514.609 86.7344C512.359 86.7344 510.844 88.3438 510.844 90.9375C510.844 93.5234 512.359 95.1406 514.609 95.1406ZM514.609 93.9453C513.172 93.9453 512.227 92.8516 512.227 90.9375C512.227 89.0234 513.172 87.9297 514.609 87.9297C516.047 87.9297 516.984 89.0234 516.984 90.9375C516.984 92.8516 516.047 93.9453 514.609 93.9453ZM525.102 87.9922V86.875H519.875V95H521.219V87.9922H525.102ZM528.875 93.9844C527.898 93.9844 527.25 93.4766 527.25 92.7031C527.25 91.9375 527.875 91.4531 528.969 91.3828L531.141 91.25V91.9141C531.141 93.0859 530.156 93.9844 528.875 93.9844ZM528.57 95.1406C529.664 95.1406 530.695 94.5312 531.18 93.6016H531.211V95H532.5V89.3828C532.5 87.7656 531.297 86.7344 529.391 86.7344C527.469 86.7344 526.266 87.8125 526.172 89.2188H527.484C527.656 88.4219 528.312 87.9297 529.359 87.9297C530.484 87.9297 531.141 88.5234 531.141 89.5156V90.1953L528.812 90.3281C526.938 90.4375 525.867 91.3125 525.867 92.7031C525.867 94.1641 526.953 95.1406 528.57 95.1406ZM537.641 87.9141C538.922 87.9141 539.773 88.8828 539.805 90.2422H535.391C535.477 88.8906 536.367 87.9141 537.641 87.9141ZM539.773 92.6719C539.547 93.4375 538.789 93.9609 537.758 93.9609C536.297 93.9609 535.383 92.9375 535.383 91.3828V91.3047H541.211V90.7891C541.211 88.3281 539.859 86.7344 537.664 86.7344C535.422 86.7344 533.984 88.4453 533.984 90.9688C533.984 93.5234 535.398 95.1406 537.727 95.1406C539.5 95.1406 540.875 94.0938 541.109 92.6719H539.773ZM548.352 86.875H541.758V87.9922H544.383V95H545.727V87.9922H548.352V86.875ZM558.164 95H559.516V86.875H552.891V95H554.234V87.9922H558.164V95ZM565.375 86.7344C564.195 86.7344 563.25 87.3359 562.75 88.25H562.719V86.875H561.43V97.7109H562.789V93.6797H562.82C563.305 94.5703 564.242 95.1406 565.406 95.1406C567.453 95.1406 568.852 93.4844 568.852 90.9375C568.852 88.3906 567.445 86.7344 565.375 86.7344ZM565.109 93.9453C563.719 93.9453 562.781 92.75 562.781 90.9375C562.781 89.1328 563.719 87.9297 565.109 87.9297C566.555 87.9297 567.461 89.1016 567.461 90.9375C567.461 92.7812 566.555 93.9453 565.109 93.9453ZM573.734 95.1406C575.977 95.1406 577.492 93.5234 577.492 90.9375C577.492 88.3438 575.977 86.7344 573.734 86.7344C571.484 86.7344 569.969 88.3438 569.969 90.9375C569.969 93.5234 571.484 95.1406 573.734 95.1406ZM573.734 93.9453C572.297 93.9453 571.352 92.8516 571.352 90.9375C571.352 89.0234 572.297 87.9297 573.734 87.9297C575.172 87.9297 576.109 89.0234 576.109 90.9375C576.109 92.8516 575.172 93.9453 573.734 93.9453ZM584.234 93.8828H580.273V93.8203C580.656 93.3047 580.867 92.4219 580.938 91.4141L581.188 87.9922H584.234V93.8828ZM579.305 97.1484V95H585.609V97.1484H586.875V93.8828H585.586V86.875H579.992L579.68 91.3828C579.602 92.4766 579.312 93.4922 578.719 93.8828H578.039V97.1484H579.305ZM590.781 93.9844C589.805 93.9844 589.156 93.4766 589.156 92.7031C589.156 91.9375 589.781 91.4531 590.875 91.3828L593.047 91.25V91.9141C593.047 93.0859 592.062 93.9844 590.781 93.9844ZM590.477 95.1406C591.57 95.1406 592.602 94.5312 593.086 93.6016H593.117V95H594.406V89.3828C594.406 87.7656 593.203 86.7344 591.297 86.7344C589.375 86.7344 588.172 87.8125 588.078 89.2188H589.391C589.562 88.4219 590.219 87.9297 591.266 87.9297C592.391 87.9297 593.047 88.5234 593.047 89.5156V90.1953L590.719 90.3281C588.844 90.4375 587.773 91.3125 587.773 92.7031C587.773 94.1641 588.859 95.1406 590.477 95.1406ZM599.57 87.9766C600.422 87.9766 600.883 88.375 600.883 89.0938C600.883 89.875 600.391 90.25 599.367 90.25H597.625V87.9766H599.57ZM599.477 91.3438C600.664 91.3438 601.234 91.7656 601.234 92.6328C601.234 93.4531 600.703 93.8984 599.719 93.8984H597.625V91.3438H599.477ZM596.281 95H599.781C601.508 95 602.57 94.1016 602.57 92.6641C602.57 91.6484 601.898 90.9062 600.875 90.7656V90.7031C601.625 90.5469 602.211 89.7812 602.211 88.9531C602.211 87.6641 601.281 86.875 599.758 86.875H596.281V95ZM611.969 97.1484V93.8828H610.672V86.875H609.328V93.8828H605.469V86.875H604.125V95H610.703V97.1484H611.969ZM613.711 98.0391C615.18 98.0391 615.852 97.4688 616.547 95.5703L619.742 86.875H618.312L616.062 93.6406H616.039L613.789 86.875H612.336L615.336 95.0078L615.148 95.5781C614.836 96.5234 614.414 96.8906 613.656 96.8906C613.484 96.8906 613.273 96.8828 613.125 96.8516V97.9922C613.273 98.0234 613.547 98.0391 613.711 98.0391ZM358.922 114.141C361.164 114.141 362.68 112.523 362.68 109.938C362.68 107.344 361.164 105.734 358.922 105.734C356.672 105.734 355.156 107.344 355.156 109.938C355.156 112.523 356.672 114.141 358.922 114.141ZM358.922 112.945C357.484 112.945 356.539 111.852 356.539 109.938C356.539 108.023 357.484 106.93 358.922 106.93C360.359 106.93 361.297 108.023 361.297 109.938C361.297 111.852 360.359 112.945 358.922 112.945ZM369.82 105.875H363.227V106.992H365.852V114H367.195V106.992H369.82V105.875ZM372.625 110.414L372.875 106.992H375.641V114H376.984V105.875H371.664L371.352 110.383C371.25 111.875 370.945 112.82 370.141 112.82C369.945 112.82 369.797 112.781 369.727 112.758V113.984C369.82 114.023 369.977 114.07 370.211 114.07C371.922 114.07 372.461 112.656 372.625 110.414ZM381.594 112.984C380.617 112.984 379.969 112.477 379.969 111.703C379.969 110.938 380.594 110.453 381.688 110.383L383.859 110.25V110.914C383.859 112.086 382.875 112.984 381.594 112.984ZM381.289 114.141C382.383 114.141 383.414 113.531 383.898 112.602H383.93V114H385.219V108.383C385.219 106.766 384.016 105.734 382.109 105.734C380.188 105.734 378.984 106.812 378.891 108.219H380.203C380.375 107.422 381.031 106.93 382.078 106.93C383.203 106.93 383.859 107.523 383.859 108.516V109.195L381.531 109.328C379.656 109.438 378.586 110.312 378.586 111.703C378.586 113.164 379.672 114.141 381.289 114.141ZM392.484 112.883H388.523V112.82C388.906 112.305 389.117 111.422 389.188 110.414L389.438 106.992H392.484V112.883ZM387.555 116.148V114H393.859V116.148H395.125V112.883H393.836V105.875H388.242L387.93 110.383C387.852 111.477 387.562 112.492 386.969 112.883H386.289V116.148H387.555ZM397.688 114L401.75 107.953H401.812V114H403.156V105.875H401.812L397.75 111.922H397.688V105.875H396.344V114H397.688ZM411.008 105.875H404.414V106.992H407.039V114H408.383V106.992H411.008V105.875ZM415.125 109.586C416.172 109.586 416.859 110.234 416.859 111.234C416.859 112.227 416.18 112.883 415.125 112.883H413.609V109.586H415.125ZM412.266 114H415.148C417.008 114 418.203 112.93 418.203 111.234C418.203 109.539 417.008 108.469 415.148 108.469H413.609V105.875H412.266V114ZM426.453 114.141C428.805 114.141 430.25 112.57 430.25 110.016C430.25 107.594 428.852 106.047 426.656 106.047C425.406 106.047 424.391 106.547 423.859 107.508H423.797C424.125 105.078 424.797 104.086 427.055 104L427.656 103.977C428.594 103.938 429.453 103.734 429.711 103.5V102.312C429.25 102.555 428.375 102.711 427.594 102.75L426.992 102.773C423.836 102.891 422.648 104.758 422.648 109.242C422.648 112.469 423.961 114.141 426.453 114.141ZM426.453 112.938C424.922 112.938 424.039 111.883 424.039 110.016C424.039 108.242 424.922 107.234 426.453 107.234C427.977 107.234 428.859 108.242 428.859 110.016C428.859 111.883 427.977 112.938 426.453 112.938ZM433.109 114L437.172 107.953H437.234V114H438.578V105.875H437.234L433.172 111.922H433.109V105.875H431.766V114H433.109ZM443.195 114.141C445.102 114.141 446.367 113.117 446.367 111.602C446.367 110.664 445.812 109.977 444.742 109.742V109.68C445.555 109.492 446.086 108.758 446.086 107.93C446.086 106.625 445.078 105.734 443.227 105.734C441.508 105.734 440.336 106.586 440.164 107.93H441.484C441.594 107.281 442.266 106.867 443.227 106.867C444.273 106.867 444.758 107.359 444.758 108.039C444.758 108.836 444.227 109.227 443.195 109.227H441.977V110.336H443.195C444.422 110.336 445.031 110.75 445.031 111.664C445.031 112.453 444.375 113.016 443.195 113.016C442.188 113.016 441.516 112.602 441.359 111.891H439.984C440.125 113.266 441.414 114.141 443.195 114.141ZM453.273 114H454.617V105.875H453.273V109.227H449.266V105.875H447.922V114H449.266V110.344H453.273V114ZM459.797 106.914C461.078 106.914 461.93 107.883 461.961 109.242H457.547C457.633 107.891 458.523 106.914 459.797 106.914ZM461.93 111.672C461.703 112.438 460.945 112.961 459.914 112.961C458.453 112.961 457.539 111.938 457.539 110.383V110.305H463.367V109.789C463.367 107.328 462.016 105.734 459.82 105.734C457.578 105.734 456.141 107.445 456.141 109.969C456.141 112.523 457.555 114.141 459.883 114.141C461.656 114.141 463.031 113.094 463.266 111.672H461.93ZM471.602 108.375C471.359 106.992 470.164 105.734 468.203 105.734C465.953 105.734 464.484 107.406 464.484 109.938C464.484 112.523 465.961 114.141 468.219 114.141C470.047 114.141 471.352 113.055 471.617 111.516H470.273C470.016 112.414 469.305 112.945 468.227 112.945C466.812 112.945 465.867 111.797 465.867 109.938C465.867 108.125 466.797 106.93 468.211 106.93C469.359 106.93 470.023 107.594 470.258 108.375H471.602ZM478.07 110.062V108.797H472.945V110.062H478.07ZM485.164 114H486.516V105.875H479.891V114H481.234V106.992H485.164V114ZM492.375 105.734C491.195 105.734 490.25 106.336 489.75 107.25H489.719V105.875H488.43V116.711H489.789V112.68H489.82C490.305 113.57 491.242 114.141 492.406 114.141C494.453 114.141 495.852 112.484 495.852 109.938C495.852 107.391 494.445 105.734 492.375 105.734ZM492.109 112.945C490.719 112.945 489.781 111.75 489.781 109.938C489.781 108.133 490.719 106.93 492.109 106.93C493.555 106.93 494.461 108.102 494.461 109.938C494.461 111.781 493.555 112.945 492.109 112.945ZM500.734 114.141C502.977 114.141 504.492 112.523 504.492 109.938C504.492 107.344 502.977 105.734 500.734 105.734C498.484 105.734 496.969 107.344 496.969 109.938C496.969 112.523 498.484 114.141 500.734 114.141ZM500.734 112.945C499.297 112.945 498.352 111.852 498.352 109.938C498.352 108.023 499.297 106.93 500.734 106.93C502.172 106.93 503.109 108.023 503.109 109.938C503.109 111.852 502.172 112.945 500.734 112.945ZM513.844 116.148V112.883H512.547V105.875H511.203V112.883H507.344V105.875H506V114H512.578V116.148H513.844ZM518.328 106.914C519.609 106.914 520.461 107.883 520.492 109.242H516.078C516.164 107.891 517.055 106.914 518.328 106.914ZM520.461 111.672C520.234 112.438 519.477 112.961 518.445 112.961C516.984 112.961 516.07 111.938 516.07 110.383V110.305H521.898V109.789C521.898 107.328 520.547 105.734 518.352 105.734C516.109 105.734 514.672 107.445 514.672 109.969C514.672 112.523 516.086 114.141 518.414 114.141C520.188 114.141 521.562 113.094 521.797 111.672H520.461ZM530.133 108.375C529.891 106.992 528.695 105.734 526.734 105.734C524.484 105.734 523.016 107.406 523.016 109.938C523.016 112.523 524.492 114.141 526.75 114.141C528.578 114.141 529.883 113.055 530.148 111.516H528.805C528.547 112.414 527.836 112.945 526.758 112.945C525.344 112.945 524.398 111.797 524.398 109.938C524.398 108.125 525.328 106.93 526.742 106.93C527.891 106.93 528.555 107.594 528.789 108.375H530.133ZM538.289 108.375C538.047 106.992 536.852 105.734 534.891 105.734C532.641 105.734 531.172 107.406 531.172 109.938C531.172 112.523 532.648 114.141 534.906 114.141C536.734 114.141 538.039 113.055 538.305 111.516H536.961C536.703 112.414 535.992 112.945 534.914 112.945C533.5 112.945 532.555 111.797 532.555 109.938C532.555 108.125 533.484 106.93 534.898 106.93C536.047 106.93 536.711 107.594 536.945 108.375H538.289ZM546.672 114H548.016V105.875H546.672V114ZM542.578 109.586C543.625 109.586 544.312 110.234 544.312 111.234C544.312 112.227 543.633 112.883 542.578 112.883H541.062V109.586H542.578ZM539.719 114H542.602C544.461 114 545.656 112.93 545.656 111.234C545.656 109.539 544.461 108.469 542.602 108.469H541.062V105.875H539.719V114ZM554.547 114L558.609 107.953H558.672V114H560.016V105.875H558.672L554.609 111.922H554.547V105.875H553.203V114H554.547ZM569.156 105.734C567.977 105.734 567.031 106.336 566.531 107.25H566.5V105.875H565.211V116.711H566.57V112.68H566.602C567.086 113.57 568.023 114.141 569.188 114.141C571.234 114.141 572.633 112.484 572.633 109.938C572.633 107.391 571.227 105.734 569.156 105.734ZM568.891 112.945C567.5 112.945 566.562 111.75 566.562 109.938C566.562 108.133 567.5 106.93 568.891 106.93C570.336 106.93 571.242 108.102 571.242 109.938C571.242 111.781 570.336 112.945 568.891 112.945ZM576.828 112.984C575.852 112.984 575.203 112.477 575.203 111.703C575.203 110.938 575.828 110.453 576.922 110.383L579.094 110.25V110.914C579.094 112.086 578.109 112.984 576.828 112.984ZM576.523 114.141C577.617 114.141 578.648 113.531 579.133 112.602H579.164V114H580.453V108.383C580.453 106.766 579.25 105.734 577.344 105.734C575.422 105.734 574.219 106.812 574.125 108.219H575.438C575.609 107.422 576.266 106.93 577.312 106.93C578.438 106.93 579.094 107.523 579.094 108.516V109.195L576.766 109.328C574.891 109.438 573.82 110.312 573.82 111.703C573.82 113.164 574.906 114.141 576.523 114.141ZM585.039 114.141C586.945 114.141 588.211 113.117 588.211 111.602C588.211 110.664 587.656 109.977 586.586 109.742V109.68C587.398 109.492 587.93 108.758 587.93 107.93C587.93 106.625 586.922 105.734 585.07 105.734C583.352 105.734 582.18 106.586 582.008 107.93H583.328C583.438 107.281 584.109 106.867 585.07 106.867C586.117 106.867 586.602 107.359 586.602 108.039C586.602 108.836 586.07 109.227 585.039 109.227H583.82V110.336H585.039C586.266 110.336 586.875 110.75 586.875 111.664C586.875 112.453 586.219 113.016 585.039 113.016C584.031 113.016 583.359 112.602 583.203 111.891H581.828C581.969 113.266 583.258 114.141 585.039 114.141ZM593.055 106.977C593.906 106.977 594.367 107.375 594.367 108.094C594.367 108.875 593.875 109.25 592.852 109.25H591.109V106.977H593.055ZM592.961 110.344C594.148 110.344 594.719 110.766 594.719 111.633C594.719 112.453 594.188 112.898 593.203 112.898H591.109V110.344H592.961ZM589.766 114H593.266C594.992 114 596.055 113.102 596.055 111.664C596.055 110.648 595.383 109.906 594.359 109.766V109.703C595.109 109.547 595.695 108.781 595.695 107.953C595.695 106.664 594.766 105.875 593.242 105.875H589.766V114ZM598.953 114L603.016 107.953H603.078V114H604.422V105.875H603.078L599.016 111.922H598.953V105.875H597.609V114H598.953ZM612.273 105.875H605.68V106.992H608.305V114H609.648V106.992H612.273V105.875ZM616.391 109.586C617.438 109.586 618.125 110.234 618.125 111.234C618.125 112.227 617.445 112.883 616.391 112.883H614.875V109.586H616.391ZM613.531 114H616.414C618.273 114 619.469 112.93 619.469 111.234C619.469 109.539 618.273 108.469 616.414 108.469H614.875V105.875H613.531V114ZM405.031 133.141C407.383 133.141 408.828 131.57 408.828 129.016C408.828 126.594 407.43 125.047 405.234 125.047C403.984 125.047 402.969 125.547 402.438 126.508H402.375C402.703 124.078 403.375 123.086 405.633 123L406.234 122.977C407.172 122.938 408.031 122.734 408.289 122.5V121.312C407.828 121.555 406.953 121.711 406.172 121.75L405.57 121.773C402.414 121.891 401.227 123.758 401.227 128.242C401.227 131.469 402.539 133.141 405.031 133.141ZM405.031 131.938C403.5 131.938 402.617 130.883 402.617 129.016C402.617 127.242 403.5 126.234 405.031 126.234C406.555 126.234 407.438 127.242 407.438 129.016C407.438 130.883 406.555 131.938 405.031 131.938ZM411.688 133L415.75 126.953H415.812V133H417.156V124.875H415.812L411.75 130.922H411.688V124.875H410.344V133H411.688ZM421.773 133.141C423.68 133.141 424.945 132.117 424.945 130.602C424.945 129.664 424.391 128.977 423.32 128.742V128.68C424.133 128.492 424.664 127.758 424.664 126.93C424.664 125.625 423.656 124.734 421.805 124.734C420.086 124.734 418.914 125.586 418.742 126.93H420.062C420.172 126.281 420.844 125.867 421.805 125.867C422.852 125.867 423.336 126.359 423.336 127.039C423.336 127.836 422.805 128.227 421.773 128.227H420.555V129.336H421.773C423 129.336 423.609 129.75 423.609 130.664C423.609 131.453 422.953 132.016 421.773 132.016C420.766 132.016 420.094 131.602 419.938 130.891H418.562C418.703 132.266 419.992 133.141 421.773 133.141ZM431.852 133H433.195V124.875H431.852V128.227H427.844V124.875H426.5V133H427.844V129.344H431.852V133ZM438.375 125.914C439.656 125.914 440.508 126.883 440.539 128.242H436.125C436.211 126.891 437.102 125.914 438.375 125.914ZM440.508 130.672C440.281 131.438 439.523 131.961 438.492 131.961C437.031 131.961 436.117 130.938 436.117 129.383V129.305H441.945V128.789C441.945 126.328 440.594 124.734 438.398 124.734C436.156 124.734 434.719 126.445 434.719 128.969C434.719 131.523 436.133 133.141 438.461 133.141C440.234 133.141 441.609 132.094 441.844 130.672H440.508ZM450.18 127.375C449.938 125.992 448.742 124.734 446.781 124.734C444.531 124.734 443.062 126.406 443.062 128.938C443.062 131.523 444.539 133.141 446.797 133.141C448.625 133.141 449.93 132.055 450.195 130.516H448.852C448.594 131.414 447.883 131.945 446.805 131.945C445.391 131.945 444.445 130.797 444.445 128.938C444.445 127.125 445.375 125.93 446.789 125.93C447.938 125.93 448.602 126.594 448.836 127.375H450.18ZM460.242 133H461.586V124.875H460.242V128.227H456.234V124.875H454.891V133H456.234V129.344H460.242V133ZM466.188 131.984C465.211 131.984 464.562 131.477 464.562 130.703C464.562 129.938 465.188 129.453 466.281 129.383L468.453 129.25V129.914C468.453 131.086 467.469 131.984 466.188 131.984ZM465.883 133.141C466.977 133.141 468.008 132.531 468.492 131.602H468.523V133H469.812V127.383C469.812 125.766 468.609 124.734 466.703 124.734C464.781 124.734 463.578 125.812 463.484 127.219H464.797C464.969 126.422 465.625 125.93 466.672 125.93C467.797 125.93 468.453 126.523 468.453 127.516V128.195L466.125 128.328C464.25 128.438 463.18 129.312 463.18 130.703C463.18 132.164 464.266 133.141 465.883 133.141ZM482.516 133H483.992L479.836 121.727H478.445L474.289 133H475.766L476.898 129.773H481.383L482.516 133ZM479.117 123.438H479.164L480.969 128.578H477.312L479.117 123.438ZM486.562 133V127.234H486.617L489.242 132.766H490.281L492.906 127.234H492.961V133H494.312V124.875H492.727L489.82 131.203H489.758L486.867 124.875H485.219V133H486.562ZM498.906 131.984C497.93 131.984 497.281 131.477 497.281 130.703C497.281 129.938 497.906 129.453 499 129.383L501.172 129.25V129.914C501.172 131.086 500.188 131.984 498.906 131.984ZM498.602 133.141C499.695 133.141 500.727 132.531 501.211 131.602H501.242V133H502.531V127.383C502.531 125.766 501.328 124.734 499.422 124.734C497.5 124.734 496.297 125.812 496.203 127.219H497.516C497.688 126.422 498.344 125.93 499.391 125.93C500.516 125.93 501.172 126.523 501.172 127.516V128.195L498.844 128.328C496.969 128.438 495.898 129.312 495.898 130.703C495.898 132.164 496.984 133.141 498.602 133.141ZM507.117 133.141C509.023 133.141 510.289 132.117 510.289 130.602C510.289 129.664 509.734 128.977 508.664 128.742V128.68C509.477 128.492 510.008 127.758 510.008 126.93C510.008 125.625 509 124.734 507.148 124.734C505.43 124.734 504.258 125.586 504.086 126.93H505.406C505.516 126.281 506.188 125.867 507.148 125.867C508.195 125.867 508.68 126.359 508.68 127.039C508.68 127.836 508.148 128.227 507.117 128.227H505.898V129.336H507.117C508.344 129.336 508.953 129.75 508.953 130.664C508.953 131.453 508.297 132.016 507.117 132.016C506.109 132.016 505.438 131.602 505.281 130.891H503.906C504.047 132.266 505.336 133.141 507.117 133.141ZM515.219 133.141C517.461 133.141 518.977 131.523 518.977 128.938C518.977 126.344 517.461 124.734 515.219 124.734C512.969 124.734 511.453 126.344 511.453 128.938C511.453 131.523 512.969 133.141 515.219 133.141ZM515.219 131.945C513.781 131.945 512.836 130.852 512.836 128.938C512.836 127.023 513.781 125.93 515.219 125.93C516.656 125.93 517.594 127.023 517.594 128.938C517.594 130.852 516.656 131.945 515.219 131.945ZM525.836 133H527.18V124.875H525.836V128.227H521.828V124.875H520.484V133H521.828V129.344H525.836V133ZM529.953 135.242L531.023 131.266H529.578L528.82 135.242H529.953ZM538.344 131.984C537.367 131.984 536.719 131.477 536.719 130.703C536.719 129.938 537.344 129.453 538.438 129.383L540.609 129.25V129.914C540.609 131.086 539.625 131.984 538.344 131.984ZM538.039 133.141C539.133 133.141 540.164 132.531 540.648 131.602H540.68V133H541.969V127.383C541.969 125.766 540.766 124.734 538.859 124.734C536.938 124.734 535.734 125.812 535.641 127.219H536.953C537.125 126.422 537.781 125.93 538.828 125.93C539.953 125.93 540.609 126.523 540.609 127.516V128.195L538.281 128.328C536.406 128.438 535.336 129.312 535.336 130.703C535.336 132.164 536.422 133.141 538.039 133.141ZM548.469 133L552.531 126.953H552.594V133H553.938V124.875H552.594L548.531 130.922H548.469V124.875H547.125V133H548.469ZM561.195 133H562.539V124.875H561.195V128.227H557.188V124.875H555.844V133H557.188V129.344H561.195V133ZM567.742 125.977C568.594 125.977 569.055 126.375 569.055 127.094C569.055 127.875 568.562 128.25 567.539 128.25H565.797V125.977H567.742ZM567.648 129.344C568.836 129.344 569.406 129.766 569.406 130.633C569.406 131.453 568.875 131.898 567.891 131.898H565.797V129.344H567.648ZM564.453 133H567.953C569.68 133 570.742 132.102 570.742 130.664C570.742 129.648 570.07 128.906 569.047 128.766V128.703C569.797 128.547 570.383 127.781 570.383 126.953C570.383 125.664 569.453 124.875 567.93 124.875H564.453V133ZM575.562 125.914C576.844 125.914 577.695 126.883 577.727 128.242H573.312C573.398 126.891 574.289 125.914 575.562 125.914ZM577.695 130.672C577.469 131.438 576.711 131.961 575.68 131.961C574.219 131.961 573.305 130.938 573.305 129.383V129.305H579.133V128.789C579.133 126.328 577.781 124.734 575.586 124.734C573.344 124.734 571.906 126.445 571.906 128.969C571.906 131.523 573.32 133.141 575.648 133.141C577.422 133.141 578.797 132.094 579.031 130.672H577.695ZM587.367 127.375C587.125 125.992 585.93 124.734 583.969 124.734C581.719 124.734 580.25 126.406 580.25 128.938C580.25 131.523 581.727 133.141 583.984 133.141C585.812 133.141 587.117 132.055 587.383 130.516H586.039C585.781 131.414 585.07 131.945 583.992 131.945C582.578 131.945 581.633 130.797 581.633 128.938C581.633 127.125 582.562 125.93 583.977 125.93C585.125 125.93 585.789 126.594 586.023 127.375H587.367ZM594.586 124.875H587.992V125.992H590.617V133H591.961V125.992H594.586V124.875ZM599.062 133.141C601.305 133.141 602.82 131.523 602.82 128.938C602.82 126.344 601.305 124.734 599.062 124.734C596.812 124.734 595.297 126.344 595.297 128.938C595.297 131.523 596.812 133.141 599.062 133.141ZM599.062 131.945C597.625 131.945 596.68 130.852 596.68 128.938C596.68 127.023 597.625 125.93 599.062 125.93C600.5 125.93 601.438 127.023 601.438 128.938C601.438 130.852 600.5 131.945 599.062 131.945ZM608.281 124.734C607.102 124.734 606.156 125.336 605.656 126.25H605.625V124.875H604.336V135.711H605.695V131.68H605.727C606.211 132.57 607.148 133.141 608.312 133.141C610.359 133.141 611.758 131.484 611.758 128.938C611.758 126.391 610.352 124.734 608.281 124.734ZM608.016 131.945C606.625 131.945 605.688 130.75 605.688 128.938C605.688 127.133 606.625 125.93 608.016 125.93C609.461 125.93 610.367 127.102 610.367 128.938C610.367 130.781 609.461 131.945 608.016 131.945ZM613.711 136.039C615.18 136.039 615.852 135.469 616.547 133.57L619.742 124.875H618.312L616.062 131.641H616.039L613.789 124.875H612.336L615.336 133.008L615.148 133.578C614.836 134.523 614.414 134.891 613.656 134.891C613.484 134.891 613.273 134.883 613.125 134.852V135.992C613.273 136.023 613.547 136.039 613.711 136.039ZM401.062 153.141C403.305 153.141 404.82 151.523 404.82 148.938C404.82 146.344 403.305 144.734 401.062 144.734C398.812 144.734 397.297 146.344 397.297 148.938C397.297 151.523 398.812 153.141 401.062 153.141ZM401.062 151.945C399.625 151.945 398.68 150.852 398.68 148.938C398.68 147.023 399.625 145.93 401.062 145.93C402.5 145.93 403.438 147.023 403.438 148.938C403.438 150.852 402.5 151.945 401.062 151.945ZM409.086 148.719L412.883 144.875H411.203L407.734 148.469H407.672V144.875H406.328V153H407.672V149.094H407.734L411.242 153H412.992L409.086 148.719ZM414.648 156.039C416.117 156.039 416.789 155.469 417.484 153.57L420.68 144.875H419.25L417 151.641H416.977L414.727 144.875H413.273L416.273 153.008L416.086 153.578C415.773 154.523 415.352 154.891 414.594 154.891C414.422 154.891 414.211 154.883 414.062 154.852V155.992C414.211 156.023 414.484 156.039 414.648 156.039ZM427.164 153H428.516V144.875H421.891V153H423.234V145.992H427.164V153ZM431.766 153L435.828 146.953H435.891V153H437.234V144.875H435.891L431.828 150.922H431.766V144.875H430.422V153H431.766ZM445.086 144.875H438.492V145.992H441.117V153H442.461V145.992H445.086V144.875ZM449.203 148.586C450.25 148.586 450.938 149.234 450.938 150.234C450.938 151.227 450.258 151.883 449.203 151.883H447.688V148.586H449.203ZM446.344 153H449.227C451.086 153 452.281 151.93 452.281 150.234C452.281 148.539 451.086 147.469 449.227 147.469H447.688V144.875H446.344V153ZM458.391 153L462.453 146.953H462.516V153H463.859V144.875H462.516L458.453 150.922H458.391V144.875H457.047V153H458.391ZM471.117 153H472.461V144.875H471.117V148.227H467.109V144.875H465.766V153H467.109V149.344H471.117V153ZM477.664 145.977C478.516 145.977 478.977 146.375 478.977 147.094C478.977 147.875 478.484 148.25 477.461 148.25H475.719V145.977H477.664ZM477.57 149.344C478.758 149.344 479.328 149.766 479.328 150.633C479.328 151.453 478.797 151.898 477.812 151.898H475.719V149.344H477.57ZM474.375 153H477.875C479.602 153 480.664 152.102 480.664 150.664C480.664 149.648 479.992 148.906 478.969 148.766V148.703C479.719 148.547 480.305 147.781 480.305 146.953C480.305 145.664 479.375 144.875 477.852 144.875H474.375V153ZM485.484 145.914C486.766 145.914 487.617 146.883 487.648 148.242H483.234C483.32 146.891 484.211 145.914 485.484 145.914ZM487.617 150.672C487.391 151.438 486.633 151.961 485.602 151.961C484.141 151.961 483.227 150.938 483.227 149.383V149.305H489.055V148.789C489.055 146.328 487.703 144.734 485.508 144.734C483.266 144.734 481.828 146.445 481.828 148.969C481.828 151.523 483.242 153.141 485.57 153.141C487.344 153.141 488.719 152.094 488.953 150.672H487.617ZM497.289 147.375C497.047 145.992 495.852 144.734 493.891 144.734C491.641 144.734 490.172 146.406 490.172 148.938C490.172 151.523 491.648 153.141 493.906 153.141C495.734 153.141 497.039 152.055 497.305 150.516H495.961C495.703 151.414 494.992 151.945 493.914 151.945C492.5 151.945 491.555 150.797 491.555 148.938C491.555 147.125 492.484 145.93 493.898 145.93C495.047 145.93 495.711 146.594 495.945 147.375H497.289ZM504.508 144.875H497.914V145.992H500.539V153H501.883V145.992H504.508V144.875ZM507.109 153L511.172 146.953H511.234V153H512.578V144.875H511.234L507.172 150.922H507.109V144.875H505.766V153H507.109ZM522.328 155.148V151.883H521.031V144.875H519.688V151.883H515.828V144.875H514.484V153H521.062V155.148H522.328ZM524.891 153L528.953 146.953H529.016V153H530.359V144.875H529.016L524.953 150.922H524.891V144.875H523.547V153H524.891ZM533.609 153L537.672 146.953H537.734V153H539.078V144.875H537.734L533.672 150.922H533.609V144.875H532.266V153H533.609ZM545.609 153L549.672 146.953H549.734V153H551.078V144.875H549.734L545.672 150.922H545.609V144.875H544.266V153H545.609ZM561.539 153H562.891V144.875H556.266V153H557.609V145.992H561.539V153ZM568.172 153.141C570.414 153.141 571.93 151.523 571.93 148.938C571.93 146.344 570.414 144.734 568.172 144.734C565.922 144.734 564.406 146.344 564.406 148.938C564.406 151.523 565.922 153.141 568.172 153.141ZM568.172 151.945C566.734 151.945 565.789 150.852 565.789 148.938C565.789 147.023 566.734 145.93 568.172 145.93C569.609 145.93 570.547 147.023 570.547 148.938C570.547 150.852 569.609 151.945 568.172 151.945ZM575.297 149.414L575.547 145.992H578.312V153H579.656V144.875H574.336L574.023 149.383C573.922 150.875 573.617 151.82 572.812 151.82C572.617 151.82 572.469 151.781 572.398 151.758V152.984C572.492 153.023 572.648 153.07 572.883 153.07C574.594 153.07 575.133 151.656 575.297 149.414ZM582.258 156.039C583.727 156.039 584.398 155.469 585.094 153.57L588.289 144.875H586.859L584.609 151.641H584.586L582.336 144.875H580.883L583.883 153.008L583.695 153.578C583.383 154.523 582.961 154.891 582.203 154.891C582.031 154.891 581.82 154.883 581.672 154.852V155.992C581.82 156.023 582.094 156.039 582.258 156.039ZM595.695 153V144.875H594.352V148.141C593.977 148.562 593.312 148.938 592.305 148.938C591.211 148.938 590.641 148.258 590.641 147.195V144.875H589.297V147.211C589.297 148.945 590.32 150.125 592.266 150.125C593.148 150.125 593.797 149.867 594.234 149.492H594.352V153H595.695ZM598.953 153L603.016 146.953H603.078V153H604.422V144.875H603.078L599.016 150.922H598.953V144.875H597.609V153H598.953ZM612.273 144.875H605.68V145.992H608.305V153H609.648V145.992H612.273V144.875ZM616.391 148.586C617.438 148.586 618.125 149.234 618.125 150.234C618.125 151.227 617.445 151.883 616.391 151.883H614.875V148.586H616.391ZM613.531 153H616.414C618.273 153 619.469 151.93 619.469 150.234C619.469 148.539 618.273 147.469 616.414 147.469H614.875V144.875H613.531V153ZM565.164 172H566.516V163.875H559.891V172H561.234V164.992H565.164V172ZM572.375 163.734C571.195 163.734 570.25 164.336 569.75 165.25H569.719V163.875H568.43V174.711H569.789V170.68H569.82C570.305 171.57 571.242 172.141 572.406 172.141C574.453 172.141 575.852 170.484 575.852 167.938C575.852 165.391 574.445 163.734 572.375 163.734ZM572.109 170.945C570.719 170.945 569.781 169.75 569.781 167.938C569.781 166.133 570.719 164.93 572.109 164.93C573.555 164.93 574.461 166.102 574.461 167.938C574.461 169.781 573.555 170.945 572.109 170.945ZM578.703 172L582.766 165.953H582.828V172H584.172V163.875H582.828L578.766 169.922H578.703V163.875H577.359V172H578.703ZM589.562 172.141C591.914 172.141 593.359 170.57 593.359 168.016C593.359 165.594 591.961 164.047 589.766 164.047C588.516 164.047 587.5 164.547 586.969 165.508H586.906C587.234 163.078 587.906 162.086 590.164 162L590.766 161.977C591.703 161.938 592.562 161.734 592.82 161.5V160.312C592.359 160.555 591.484 160.711 590.703 160.75L590.102 160.773C586.945 160.891 585.758 162.758 585.758 167.242C585.758 170.469 587.07 172.141 589.562 172.141ZM589.562 170.938C588.031 170.938 587.148 169.883 587.148 168.016C587.148 166.242 588.031 165.234 589.562 165.234C591.086 165.234 591.969 166.242 591.969 168.016C591.969 169.883 591.086 170.938 589.562 170.938ZM601.828 172H603.172V163.875H601.828V172ZM597.734 167.586C598.781 167.586 599.469 168.234 599.469 169.234C599.469 170.227 598.789 170.883 597.734 170.883H596.219V167.586H597.734ZM594.875 172H597.758C599.617 172 600.812 170.93 600.812 169.234C600.812 167.539 599.617 166.469 597.758 166.469H596.219V163.875H594.875V172ZM607.25 168.414L607.5 164.992H610.266V172H611.609V163.875H606.289L605.977 168.383C605.875 169.875 605.57 170.82 604.766 170.82C604.57 170.82 604.422 170.781 604.352 170.758V171.984C604.445 172.023 604.602 172.07 604.836 172.07C606.547 172.07 607.086 170.656 607.25 168.414ZM616.391 167.586C617.438 167.586 618.125 168.234 618.125 169.234C618.125 170.227 617.445 170.883 616.391 170.883H614.875V167.586H616.391ZM613.531 172H616.414C618.273 172 619.469 170.93 619.469 169.234C619.469 167.539 618.273 166.469 616.414 166.469H614.875V163.875H613.531V172Z" fill="#222A33"/>
<path d="M618.67 44.2807C617.936 47.5082 615.839 50.2129 612.379 52.3948C608.918 54.5768 604.059 56.5054 597.804 58.1805C591.544 59.8578 586.37 60.6174 582.281 60.4595C578.192 60.3016 575.008 58.9594 572.73 56.4328C570.456 53.9082 568.87 51.5642 567.97 49.401C567.071 47.2378 566.021 43.9134 564.82 39.4278C563.618 34.9445 562.866 31.5409 562.562 29.217C562.258 26.8931 562.436 24.1797 563.097 21.0766C564.467 15.0655 571.51 10.3561 584.228 6.94839C596.748 3.59358 605.005 4.2033 608.998 8.77755C611.37 11.2813 613.006 13.6124 613.908 15.7707C614.809 17.9291 615.859 21.2535 617.058 25.744C618.261 30.2323 619.013 33.6359 619.316 35.9548C619.618 38.2736 619.403 41.0489 618.67 44.2807Z" fill="#FACAC4"/>
<path d="M583.701 39.3124C587.246 39.3124 589.395 36.4706 589.395 31.9198C589.395 27.369 587.227 24.5858 583.701 24.5858C580.176 24.5858 577.998 27.3788 577.998 31.9296C577.998 36.4901 580.156 39.3124 583.701 39.3124ZM583.701 36.9491C582.021 36.9491 580.996 35.1327 580.996 31.9296C580.996 28.7557 582.041 26.9491 583.701 26.9491C585.371 26.9491 586.396 28.746 586.396 31.9296C586.396 35.1425 585.381 36.9491 583.701 36.9491ZM594.639 32.8475H596.377C597.969 32.8475 598.936 33.6288 598.936 34.9178C598.936 36.1093 597.9 36.9393 596.426 36.9393C594.873 36.9393 593.896 36.1581 593.809 34.9667H590.986C591.123 37.5643 593.203 39.3124 596.387 39.3124C599.639 39.3124 601.934 37.6327 601.934 35.1034C601.934 33.1503 600.576 31.8807 598.477 31.705V31.6464C600.205 31.3339 601.387 30.0839 601.387 28.3553C601.387 26.0995 599.385 24.5956 596.455 24.5956C593.398 24.5956 591.367 26.2948 591.26 28.9022H593.975C594.053 27.6718 594.961 26.8612 596.328 26.8612C597.793 26.8612 598.604 27.6132 598.604 28.7557C598.604 29.9178 597.695 30.7186 596.348 30.7186H594.639V32.8475Z" fill="#FF4F45"/>
<path d="M612.88 194.128C612.365 194.383 612.237 194.764 612.495 195.275C614.558 199.488 615.443 203.525 615.151 207.387C614.862 211.248 613.783 214.728 611.914 217.824C610.045 220.917 607.47 223.678 604.184 226.105C599.676 229.362 594.489 231.61 588.628 232.856C582.766 234.101 577.067 234.055 571.527 232.713C572.559 232.392 575.745 230.99 581.094 228.499C581.609 228.31 581.753 227.94 581.528 227.398C581.302 226.854 580.9 226.713 580.321 226.968C579.806 227.16 578.889 227.573 577.567 228.213C576.247 228.849 575.247 229.313 574.572 229.6C573.896 229.887 573.025 230.237 571.963 230.655C570.899 231.068 569.918 231.403 569.015 231.658C568.694 231.722 568.468 231.914 568.338 232.232C568.211 232.295 568.113 232.424 568.049 232.616C567.919 233.061 568.049 233.413 568.434 233.668L568.628 233.858C570.818 235.775 572.493 237.464 573.653 238.932C574.813 240.4 575.649 242.188 576.164 244.295C576.294 244.869 576.647 245.092 577.226 244.966C577.805 244.837 578.033 244.487 577.903 243.911C577.067 240.528 575.198 237.464 572.299 234.721C577.839 235.87 583.573 235.79 589.499 234.48C595.424 233.175 600.672 230.83 605.246 227.447C608.724 224.959 611.463 222.052 613.46 218.735C615.456 215.415 616.616 211.68 616.94 207.532C617.261 203.384 616.297 199.043 614.041 194.511C613.783 194.001 613.396 193.872 612.881 194.127L612.88 194.128Z" fill="black"/>
<path d="M259 420.143L279.001 408L296.636 440.386L278.486 451.739L259 420.143Z" fill="#222A33"/>
<path d="M262.269 420.899L277.971 411.221L288.133 430.417L291.418 436.633L277.423 445.426L262.269 420.899Z" fill="#494949"/>
<path opacity="0.25" d="M288.133 430.417L262.269 420.899L277.971 411.221L288.133 430.417Z" fill="white"/>
<path d="M287.408 442.866C287.444 443.286 287.325 443.706 287.072 444.044C286.82 444.382 286.452 444.616 286.039 444.702C285.845 444.754 285.642 444.764 285.444 444.733C285.245 444.702 285.056 444.629 284.887 444.52C284.718 444.411 284.575 444.267 284.465 444.099C284.356 443.93 284.283 443.74 284.251 443.542C284.207 443.122 284.321 442.701 284.572 442.362C284.822 442.022 285.19 441.788 285.604 441.706C285.799 441.654 286.003 441.643 286.202 441.674C286.402 441.706 286.593 441.778 286.762 441.887C286.932 441.996 287.077 442.14 287.188 442.308C287.3 442.477 287.374 442.667 287.408 442.866Z" fill="#494949"/>
<defs>
<filter id="filter0_d" x="0" y="83" width="960.663" height="961.399" filterUnits="userSpaceOnUse" color-interpolation-filters="sRGB">
<feFlood flood-opacity="0" result="BackgroundImageFix"/>
<feColorMatrix in="SourceAlpha" type="matrix" values="0 0 0 0 0 0 0 0 0 0 0 0 0 0 0 0 0 0 127 0"/>
<feOffset dy="94"/>
<feGaussianBlur stdDeviation="57"/>
<feColorMatrix type="matrix" values="0 0 0 0 0 0 0 0 0 0 0 0 0 0 0 0 0 0 0.1 0"/>
<feBlend mode="normal" in2="BackgroundImageFix" result="effect1_dropShadow"/>
<feBlend mode="normal" in="SourceGraphic" in2="effect1_dropShadow" result="shape"/>
</filter>
<linearGradient id="paint0_linear" x1="454.715" y1="447.765" x2="454.59" y2="445.458" gradientUnits="userSpaceOnUse">
<stop stop-color="#278DCC"/>
<stop offset="1" stop-color="#93BFE4"/>
</linearGradient>
<linearGradient id="paint1_linear" x1="454.559" y1="446.618" x2="456.821" y2="446.495" gradientUnits="userSpaceOnUse">
<stop stop-color="#F46A4F"/>
<stop offset="0.41" stop-color="#F78154"/>
<stop offset="1" stop-color="#FDA95D"/>
</linearGradient>
<linearGradient id="paint2_linear" x1="454.582" y1="447.04" x2="455.806" y2="446.974" gradientUnits="userSpaceOnUse">
<stop stop-color="#2B5A3F"/>
<stop offset="0.63" stop-color="#2B4337"/>
<stop offset="1" stop-color="#2B3431"/>
</linearGradient>
</defs>
</svg>
