<svg width="746" height="962" viewBox="0 0 746 962" fill="none" xmlns="http://www.w3.org/2000/svg">
<g opacity="0.5" filter="url(#filter0_d)">
<path d="M172.747 640.702C143.148 635.945 117.671 618.72 96.3157 589.025C74.9605 559.331 55.2427 517.019 37.1624 462.087C19.091 407.151 9.83417 361.394 9.39178 324.817C8.94938 288.24 19.6627 259.109 41.5317 237.424C63.3885 215.739 83.9135 200.292 103.107 191.081C122.274 181.873 151.929 170.669 192.071 157.468C232.17 144.279 262.683 135.69 283.608 131.702C304.497 127.732 329.171 127.83 357.631 131.996C412.739 140.901 458.653 201.167 495.371 312.794C531.518 422.667 529.776 496.682 490.147 534.84C468.576 557.383 448.193 573.27 428.997 582.502C409.793 591.711 380.141 602.914 340.041 616.112C299.898 629.318 269.385 637.907 248.503 641.878C227.575 645.865 202.323 645.473 172.747 640.702Z" fill="#EFEFE8"/>
</g>
<path fill-rule="evenodd" clip-rule="evenodd" d="M431.738 581.123C428.018 537.147 369.671 487.135 369.671 487.135L364.73 487.712L344.134 468.487L295.673 467.278L287.179 480.029C280.895 535.11 295.484 593.991 305.882 627.064C312.828 625.063 320.454 622.734 328.442 620.185C322.863 570.597 329.705 508.435 329.705 508.435C398.09 540.601 415.388 576.907 419.026 587.017C423.881 584.904 428.174 582.92 431.738 581.123Z" fill="#494848"/>
<path d="M467.782 340.564C468.125 338.652 473.193 319.896 475.718 319.841C479.108 319.841 474.654 330.5 474.239 332.466C475.941 330.715 477.945 329.285 480.154 328.246C481.958 327.2 488.631 323.052 489.785 324.639C490.939 326.226 486.575 329.364 483.238 331.853C482.192 332.646 479.92 334.324 478.982 335.117C482.733 332.863 492.436 327.777 493.266 330.644C494.095 333.512 482.878 338.273 479.631 339.428C483.96 338.237 495.52 333.151 496.169 336.632C496.494 338.436 485.006 341.754 482.481 342.8C484.501 342.8 493.951 340.997 494.204 344.045C494.456 348.301 480.335 346.912 477.81 346.714C475.285 346.515 466.79 344.91 467.927 339.5" fill="#FFC1B5"/>
<path d="M476.547 345.325L463.057 355.335L458.711 343.449L472.075 337.227L476.547 345.325Z" fill="#FFC1B5"/>
<path d="M459.793 341.898L464.139 339.121L471.876 349.978L465.257 354.649L459.793 341.898Z" fill="white"/>
<path d="M221.423 281.571C222.18 279.768 228.15 261.3 225.986 259.929C223.118 258.125 221.098 269.469 220.359 271.399C219.882 269.017 218.984 266.739 217.707 264.672C216.698 262.778 213.397 255.655 211.576 256.43C209.754 257.206 211.72 262.129 213.163 266.043C213.614 267.269 214.605 269.92 214.966 271.093C213.036 267.161 207.626 257.638 205.371 259.586C203.117 261.534 209.988 271.652 212.081 274.357C209.087 270.93 202.143 260.398 199.708 262.959C198.428 264.348 206.309 273.311 207.878 275.583C206.075 274.573 199.167 267.9 197.328 270.263C194.821 273.708 207.446 280.182 209.628 281.355C211.81 282.527 219.836 285.863 221.874 280.579" fill="#FFC1B5"/>
<path d="M211.485 280.813L217.383 296.54L227.5 288.893L219.637 276.431L211.485 280.813Z" fill="#FFC1B5"/>
<path d="M228.258 288.551L225.697 284.078L213.812 290.102L217.509 297.316L228.258 288.551Z" fill="white"/>
<path d="M302.13 467.441L344.061 468.487L361.682 362.134L335.296 347.579L321.193 345.776L302.166 363.631L302.13 467.441Z" fill="#F7F5F5"/>
<path d="M307.45 466.268L339.715 464.465L339.751 472.31L307.324 471.499L307.45 466.268Z" fill="#EBAE41"/>
<path d="M345.558 222.254C345.558 222.254 387.255 268.369 353.62 313.349C347.362 321.717 335.423 331.853 335.873 351.168C335.873 351.168 328.317 354.397 321.968 351.168C321.968 351.168 320.49 319.427 312.951 309.688C305.412 299.949 285.375 276.539 283.121 261.119C281.786 251.553 282.202 241.825 284.347 232.407L345.558 222.254Z" fill="#FFC1B5"/>
<path d="M300.398 290.823C300.398 290.823 281.768 294.989 282.453 287.937C283.139 280.886 302.743 284.33 302.743 284.33L300.398 290.823Z" fill="#FFC1B5"/>
<path d="M321.608 265.393C321.405 265.965 321.438 266.594 321.698 267.141C321.958 267.689 322.425 268.111 322.996 268.315C324.205 268.766 324.8 267.954 325.341 266.782C325.45 266.505 325.503 266.21 325.495 265.912C325.488 265.615 325.421 265.322 325.298 265.051C325.175 264.78 324.999 264.537 324.78 264.335C324.562 264.134 324.305 263.979 324.024 263.878C322.834 263.428 322.041 264.221 321.608 265.393Z" fill="#333333"/>
<path d="M344.747 260.722C345.15 261.18 345.717 261.459 346.325 261.5C346.933 261.54 347.533 261.339 347.993 260.939C348.967 260.109 348.606 259.135 347.795 258.143C347.604 257.918 347.371 257.734 347.109 257.6C346.846 257.466 346.56 257.386 346.266 257.364C345.972 257.342 345.677 257.379 345.397 257.473C345.118 257.566 344.86 257.715 344.638 257.909C343.647 258.702 343.953 259.712 344.747 260.722Z" fill="#333333"/>
<path d="M318.902 279.407C319.479 280.633 322.022 280.687 324.565 279.407C327.108 278.126 328.713 276.269 328.172 275.024C327.631 273.78 323.898 274.285 321.355 275.475C318.812 276.665 318.343 278.162 318.902 279.407Z" fill="#E89F91"/>
<path d="M357.93 267.973C357.804 266.62 355.423 265.754 352.52 266.043C349.616 266.331 347.578 267.684 347.722 269.037C347.867 270.389 351.51 271.129 354.305 270.84C357.101 270.552 358.075 269.325 357.93 267.973Z" fill="#E89F91"/>
<path d="M323.249 255.005C322.06 255.894 320.792 256.673 319.461 257.332C318.181 257.981 316.792 259.045 315.349 258.306C314.938 258.13 314.607 257.807 314.42 257.4C314.234 256.994 314.205 256.532 314.34 256.105C314.718 254.518 316.414 254.158 317.73 253.599C319.104 253.009 320.529 252.544 321.986 252.21C322.337 252.135 322.703 252.182 323.023 252.343C323.343 252.505 323.598 252.771 323.746 253.098C323.893 253.425 323.924 253.792 323.834 254.139C323.744 254.486 323.537 254.792 323.249 255.005Z" fill="#278DCC"/>
<path d="M341.284 247.088C342.917 246.837 344.582 246.905 346.19 247.286C346.628 247.383 347.019 247.632 347.292 247.988C347.566 248.344 347.706 248.785 347.686 249.234C347.687 249.694 347.512 250.137 347.197 250.472C346.882 250.808 346.45 251.01 345.991 251.038C344.197 250.953 342.437 250.511 340.815 249.739C340.517 249.625 340.268 249.412 340.111 249.134C339.954 248.857 339.898 248.533 339.954 248.22C340.009 247.906 340.173 247.621 340.415 247.414C340.658 247.208 340.965 247.092 341.284 247.088Z" fill="#278DCC"/>
<path d="M282.959 240.343C287.684 241.208 338.236 255.889 348.895 226.438C348.895 226.438 340.256 203.1 307.414 213.813C274.572 224.526 282.959 240.343 282.959 240.343Z" fill="#278DCC"/>
<path d="M293.293 283.501C293.293 283.501 300.795 257.909 291.615 235.726L282.021 233.598C282.021 233.598 270.947 257.909 293.293 283.501Z" fill="#278DCC"/>
<path d="M282.057 235.491C282.057 235.491 276.79 236.609 276.935 234.553C277.079 232.497 282.021 233.598 282.021 233.598C282.021 233.598 277.277 229.053 279.369 228.818C281.462 228.584 285.519 233.525 285.519 233.525L282.976 235.726" fill="#278DCC"/>
<path d="M292.878 274.682C292.878 274.682 300.561 289.687 314.231 289.29C327.902 288.893 334.539 280.272 339.733 279.894L342.582 280.345L344.043 279.767L345.162 278.703C345.162 278.703 348.534 277.747 353.638 280.615C354.831 281.209 356.136 281.545 357.468 281.601C358.799 281.657 360.128 281.432 361.366 280.94C362.605 280.448 363.726 279.701 364.657 278.747C365.588 277.793 366.307 276.654 366.768 275.403C366.768 275.403 366.064 303.574 371.583 315.08C377.102 326.587 343.737 341.177 319.768 322.294C300.074 306.874 293.238 283.338 293.238 283.338L292.878 274.682Z" fill="#278DCC"/>
<path d="M332.266 256.863C335.733 260.781 338.909 264.946 341.771 269.325C343.25 271.76 346.117 276.413 344.981 279.569C343.737 283.032 339.138 279.858 337.605 277.946C337.352 277.621 337.605 277.026 338.11 277.224C339.241 278.028 340.449 278.717 341.717 279.28C345.324 280.11 342.853 274.339 341.897 272.391C338.961 267.061 335.48 262.051 331.509 257.44C331.448 257.348 331.422 257.236 331.438 257.126C331.454 257.017 331.509 256.917 331.594 256.846C331.679 256.774 331.787 256.736 331.897 256.74C332.008 256.743 332.114 256.787 332.194 256.863H332.266Z" fill="#BC6C6C"/>
<path d="M338.326 296.215C336.976 295.849 335.746 295.135 334.759 294.145C333.771 293.154 333.061 291.922 332.699 290.57C332.6 290.192 332.6 289.795 332.699 289.416C333.024 288.244 334.611 287.613 336.018 287.613C337.415 287.694 338.806 287.856 340.184 288.1C341.838 288.232 343.5 287.972 345.035 287.342C345.937 286.981 346.839 286.495 347.686 286.206C348.137 286.04 348.617 285.965 349.097 285.987C349.577 286.009 350.048 286.126 350.482 286.332C350.83 286.561 351.117 286.871 351.318 287.235C351.519 287.6 351.628 288.008 351.636 288.424C352.105 294.286 344.747 298.289 338.326 296.215Z" fill="#4C2B49"/>
<path d="M322.744 350.122C322.744 350.122 327.415 357.661 329.218 357.733C331.022 357.805 335.224 350.519 335.224 350.519L331.779 347.579L325.449 347.147L322.744 350.122Z" fill="#EBAE41"/>
<path d="M321.86 342.674C321.86 342.674 330.679 349.076 335.152 343.016L339.3 344.82L342.619 358.04C342.619 358.04 333.601 354.09 329.561 347.399C329.561 347.399 324.151 357.571 315.8 357.372L318.181 345.163L321.86 342.674Z" fill="white"/>
<path d="M339.3 344.856C339.3 344.856 318.938 462.373 339.174 486.071C359.409 509.769 374.523 487.568 374.523 487.568L372.268 378.87C372.268 378.87 409.294 388.014 470.307 354.072L461.289 339.013C461.289 339.013 408.338 369.835 339.3 344.856Z" fill="#222A33"/>
<path d="M339.3 344.856C339.3 344.856 351.059 354.361 350.951 358.292C350.843 362.224 342.474 363.703 342.474 363.703C342.474 363.703 349.941 369.005 347.109 374.65C344.278 380.295 331.653 404.426 331.653 404.426C331.653 404.426 336.757 356.615 339.3 344.856Z" fill="#494848"/>
<path d="M328.858 354.992C328.858 354.992 315.133 449.784 366.1 456.475L381.286 451.281L369.04 436.456C369.04 436.456 331.166 437.773 329.958 355.298C329.922 353.495 329.958 355.389 328.858 354.992Z" fill="#EBAE41"/>
<path d="M318.181 345.199C318.181 345.199 323.826 474.168 314.574 486.937C305.322 499.706 281.299 492.618 281.299 492.618C281.299 492.618 281.407 403.885 284.311 373.027C284.311 373.027 231.883 360.853 215.092 294.286L228.258 286.657C228.258 286.657 263.21 352.052 318.181 345.199Z" fill="#222A33"/>
<path d="M318.181 345.199C318.181 345.199 304.402 354.216 305.827 357.156C307.252 360.096 311.67 362.242 311.67 362.242C311.67 362.242 305.376 365.56 308.821 374.632C312.266 383.704 319.822 402.749 319.822 402.749L318.181 345.199Z" fill="#494848"/>
<path d="M266.67 61.2807C265.936 64.5082 263.839 67.2129 260.379 69.3948C256.918 71.5768 252.059 73.5054 245.804 75.1805C239.544 76.8578 234.37 77.6174 230.281 77.4595C226.192 77.3016 223.008 75.9594 220.73 73.4328C218.456 70.9082 216.87 68.5642 215.97 66.401C215.071 64.2378 214.021 60.9134 212.82 56.4278C211.618 51.9445 210.866 48.5409 210.562 46.217C210.258 43.8931 210.436 41.1797 211.097 38.0766C212.467 32.0655 219.51 27.3561 232.228 23.9484C244.748 20.5936 253.005 21.2033 256.998 25.7776C259.37 28.2813 261.006 30.6124 261.908 32.7707C262.809 34.9291 263.859 38.2535 265.058 42.744C266.261 47.2323 267.013 50.6359 267.316 52.9548C267.618 55.2736 267.403 58.0489 266.67 61.2807Z" fill="#CEE2E9"/>
<path d="M233.744 56.3125C237.289 56.3125 239.438 53.4707 239.438 48.9199C239.438 44.3691 237.27 41.5859 233.744 41.5859C230.219 41.5859 228.041 44.3789 228.041 48.9297C228.041 53.4902 230.199 56.3125 233.744 56.3125ZM233.744 53.9492C232.064 53.9492 231.039 52.1328 231.039 48.9297C231.039 45.7559 232.084 43.9492 233.744 43.9492C235.414 43.9492 236.439 45.7461 236.439 48.9297C236.439 52.1426 235.424 53.9492 233.744 53.9492ZM244.682 56H247.602V41.9082H244.672L241.029 44.4375V47.0938L244.623 44.6133H244.682V56Z" fill="#278DCC"/>
<path d="M225.008 111V99.7266H216.172V111H217.586V101.008H223.617V111H225.008ZM231.094 102.734C229.914 102.734 228.969 103.336 228.469 104.25H228.438V102.875H227.148V113.711H228.508V109.68H228.539C229.023 110.57 229.961 111.141 231.125 111.141C233.172 111.141 234.57 109.484 234.57 106.938C234.57 104.391 233.164 102.734 231.094 102.734ZM230.828 109.945C229.438 109.945 228.5 108.75 228.5 106.938C228.5 105.133 229.438 103.93 230.828 103.93C232.273 103.93 233.18 105.102 233.18 106.938C233.18 108.781 232.273 109.945 230.828 109.945ZM239.453 111.141C241.695 111.141 243.211 109.523 243.211 106.938C243.211 104.344 241.695 102.734 239.453 102.734C237.203 102.734 235.688 104.344 235.688 106.938C235.688 109.523 237.203 111.141 239.453 111.141ZM239.453 109.945C238.016 109.945 237.07 108.852 237.07 106.938C237.07 105.023 238.016 103.93 239.453 103.93C240.891 103.93 241.828 105.023 241.828 106.938C241.828 108.852 240.891 109.945 239.453 109.945ZM249.953 109.883H245.992V109.82C246.375 109.305 246.586 108.422 246.656 107.414L246.906 103.992H249.953V109.883ZM245.023 113.148V111H251.328V113.148H252.594V109.883H251.305V102.875H245.711L245.398 107.383C245.32 108.477 245.031 109.492 244.438 109.883H243.758V113.148H245.023ZM256.5 109.984C255.523 109.984 254.875 109.477 254.875 108.703C254.875 107.938 255.5 107.453 256.594 107.383L258.766 107.25V107.914C258.766 109.086 257.781 109.984 256.5 109.984ZM256.195 111.141C257.289 111.141 258.32 110.531 258.805 109.602H258.836V111H260.125V105.383C260.125 103.766 258.922 102.734 257.016 102.734C255.094 102.734 253.891 103.812 253.797 105.219H255.109C255.281 104.422 255.938 103.93 256.984 103.93C258.109 103.93 258.766 104.523 258.766 105.516V106.195L256.438 106.328C254.562 106.438 253.492 107.312 253.492 108.703C253.492 110.164 254.578 111.141 256.195 111.141ZM265.289 103.977C266.141 103.977 266.602 104.375 266.602 105.094C266.602 105.875 266.109 106.25 265.086 106.25H263.344V103.977H265.289ZM265.195 107.344C266.383 107.344 266.953 107.766 266.953 108.633C266.953 109.453 266.422 109.898 265.438 109.898H263.344V107.344H265.195ZM262 111H265.5C267.227 111 268.289 110.102 268.289 108.664C268.289 107.648 267.617 106.906 266.594 106.766V106.703C267.344 106.547 267.93 105.781 267.93 104.953C267.93 103.664 267 102.875 265.477 102.875H262V111ZM273.109 103.914C274.391 103.914 275.242 104.883 275.273 106.242H270.859C270.945 104.891 271.836 103.914 273.109 103.914ZM275.242 108.672C275.016 109.438 274.258 109.961 273.227 109.961C271.766 109.961 270.852 108.938 270.852 107.383V107.305H276.68V106.789C276.68 104.328 275.328 102.734 273.133 102.734C270.891 102.734 269.453 104.445 269.453 106.969C269.453 109.523 270.867 111.141 273.195 111.141C274.969 111.141 276.344 110.094 276.578 108.672H275.242ZM286.031 113.148V109.883H284.734V102.875H283.391V109.883H279.531V102.875H278.188V111H284.766V113.148H286.031ZM294.484 102.734C293.305 102.734 292.359 103.336 291.859 104.25H291.828V102.875H290.539V113.711H291.898V109.68H291.93C292.414 110.57 293.352 111.141 294.516 111.141C296.562 111.141 297.961 109.484 297.961 106.938C297.961 104.391 296.555 102.734 294.484 102.734ZM294.219 109.945C292.828 109.945 291.891 108.75 291.891 106.938C291.891 105.133 292.828 103.93 294.219 103.93C295.664 103.93 296.57 105.102 296.57 106.938C296.57 108.781 295.664 109.945 294.219 109.945ZM302.156 109.984C301.18 109.984 300.531 109.477 300.531 108.703C300.531 107.938 301.156 107.453 302.25 107.383L304.422 107.25V107.914C304.422 109.086 303.438 109.984 302.156 109.984ZM301.852 111.141C302.945 111.141 303.977 110.531 304.461 109.602H304.492V111H305.781V105.383C305.781 103.766 304.578 102.734 302.672 102.734C300.75 102.734 299.547 103.812 299.453 105.219H300.766C300.938 104.422 301.594 103.93 302.641 103.93C303.766 103.93 304.422 104.523 304.422 105.516V106.195L302.094 106.328C300.219 106.438 299.148 107.312 299.148 108.703C299.148 110.164 300.234 111.141 301.852 111.141ZM310.367 111.141C312.273 111.141 313.539 110.117 313.539 108.602C313.539 107.664 312.984 106.977 311.914 106.742V106.68C312.727 106.492 313.258 105.758 313.258 104.93C313.258 103.625 312.25 102.734 310.398 102.734C308.68 102.734 307.508 103.586 307.336 104.93H308.656C308.766 104.281 309.438 103.867 310.398 103.867C311.445 103.867 311.93 104.359 311.93 105.039C311.93 105.836 311.398 106.227 310.367 106.227H309.148V107.336H310.367C311.594 107.336 312.203 107.75 312.203 108.664C312.203 109.453 311.547 110.016 310.367 110.016C309.359 110.016 308.688 109.602 308.531 108.891H307.156C307.297 110.266 308.586 111.141 310.367 111.141ZM316.438 111V105.234H316.492L319.117 110.766H320.156L322.781 105.234H322.836V111H324.188V102.875H322.602L319.695 109.203H319.633L316.742 102.875H315.094V111H316.438ZM329.359 103.914C330.641 103.914 331.492 104.883 331.523 106.242H327.109C327.195 104.891 328.086 103.914 329.359 103.914ZM331.492 108.672C331.266 109.438 330.508 109.961 329.477 109.961C328.016 109.961 327.102 108.938 327.102 107.383V107.305H332.93V106.789C332.93 104.328 331.578 102.734 329.383 102.734C327.141 102.734 325.703 104.445 325.703 106.969C325.703 109.523 327.117 111.141 329.445 111.141C331.219 111.141 332.594 110.094 332.828 108.672H331.492ZM345.758 113.148V109.883H344.469V102.875H343.125V109.883H340.125V102.875H338.781V109.883H335.781V102.875H334.438V111H344.492V113.148H345.758ZM349.656 109.984C348.68 109.984 348.031 109.477 348.031 108.703C348.031 107.938 348.656 107.453 349.75 107.383L351.922 107.25V107.914C351.922 109.086 350.938 109.984 349.656 109.984ZM349.352 111.141C350.445 111.141 351.477 110.531 351.961 109.602H351.992V111H353.281V105.383C353.281 103.766 352.078 102.734 350.172 102.734C348.25 102.734 347.047 103.812 346.953 105.219H348.266C348.438 104.422 349.094 103.93 350.141 103.93C351.266 103.93 351.922 104.523 351.922 105.516V106.195L349.594 106.328C347.719 106.438 346.648 107.312 346.648 108.703C346.648 110.164 347.734 111.141 349.352 111.141ZM358.422 103.914C359.703 103.914 360.555 104.883 360.586 106.242H356.172C356.258 104.891 357.148 103.914 358.422 103.914ZM360.555 108.672C360.328 109.438 359.57 109.961 358.539 109.961C357.078 109.961 356.164 108.938 356.164 107.383V107.305H361.992V106.789C361.992 104.328 360.641 102.734 358.445 102.734C356.203 102.734 354.766 104.445 354.766 106.969C354.766 109.523 356.18 111.141 358.508 111.141C360.281 111.141 361.656 110.094 361.891 108.672H360.555ZM369.133 102.875H362.539V103.992H365.164V111H366.508V103.992H369.133V102.875ZM221.305 130H222.648V121.875H221.305V125.227H217.297V121.875H215.953V130H217.297V126.344H221.305V130ZM227.25 128.984C226.273 128.984 225.625 128.477 225.625 127.703C225.625 126.938 226.25 126.453 227.344 126.383L229.516 126.25V126.914C229.516 128.086 228.531 128.984 227.25 128.984ZM226.945 130.141C228.039 130.141 229.07 129.531 229.555 128.602H229.586V130H230.875V124.383C230.875 122.766 229.672 121.734 227.766 121.734C225.844 121.734 224.641 122.812 224.547 124.219H225.859C226.031 123.422 226.688 122.93 227.734 122.93C228.859 122.93 229.516 123.523 229.516 124.516V125.195L227.188 125.328C225.312 125.438 224.242 126.312 224.242 127.703C224.242 129.164 225.328 130.141 226.945 130.141ZM241.305 130H242.656V121.875H236.031V130H237.375V122.992H241.305V130ZM246.734 126.414L246.984 122.992H249.75V130H251.094V121.875H245.773L245.461 126.383C245.359 127.875 245.055 128.82 244.25 128.82C244.055 128.82 243.906 128.781 243.836 128.758V129.984C243.93 130.023 244.086 130.07 244.32 130.07C246.031 130.07 246.57 128.656 246.734 126.414ZM256.391 130.141C258.633 130.141 260.148 128.523 260.148 125.938C260.148 123.344 258.633 121.734 256.391 121.734C254.141 121.734 252.625 123.344 252.625 125.938C252.625 128.523 254.141 130.141 256.391 130.141ZM256.391 128.945C254.953 128.945 254.008 127.852 254.008 125.938C254.008 124.023 254.953 122.93 256.391 122.93C257.828 122.93 258.766 124.023 258.766 125.938C258.766 127.852 257.828 128.945 256.391 128.945ZM272.977 132.148V128.883H271.688V121.875H270.344V128.883H267.344V121.875H266V128.883H263V121.875H261.656V130H271.711V132.148H272.977ZM276.875 128.984C275.898 128.984 275.25 128.477 275.25 127.703C275.25 126.938 275.875 126.453 276.969 126.383L279.141 126.25V126.914C279.141 128.086 278.156 128.984 276.875 128.984ZM276.57 130.141C277.664 130.141 278.695 129.531 279.18 128.602H279.211V130H280.5V124.383C280.5 122.766 279.297 121.734 277.391 121.734C275.469 121.734 274.266 122.812 274.172 124.219H275.484C275.656 123.422 276.312 122.93 277.359 122.93C278.484 122.93 279.141 123.523 279.141 124.516V125.195L276.812 125.328C274.938 125.438 273.867 126.312 273.867 127.703C273.867 129.164 274.953 130.141 276.57 130.141ZM287.766 128.883H283.805V128.82C284.188 128.305 284.398 127.422 284.469 126.414L284.719 122.992H287.766V128.883ZM282.836 132.148V130H289.141V132.148H290.406V128.883H289.117V121.875H283.523L283.211 126.383C283.133 127.477 282.844 128.492 282.25 128.883H281.57V132.148H282.836ZM294.383 125.719L298.18 121.875H296.5L293.031 125.469H292.969V121.875H291.625V130H292.969V126.094H293.031L296.539 130H298.289L294.383 125.719ZM302.531 122.914C303.812 122.914 304.664 123.883 304.695 125.242H300.281C300.367 123.891 301.258 122.914 302.531 122.914ZM304.664 127.672C304.438 128.438 303.68 128.961 302.648 128.961C301.188 128.961 300.273 127.938 300.273 126.383V126.305H306.102V125.789C306.102 123.328 304.75 121.734 302.555 121.734C300.312 121.734 298.875 123.445 298.875 125.969C298.875 128.523 300.289 130.141 302.617 130.141C304.391 130.141 305.766 129.094 306 127.672H304.664ZM316.836 121.875H310.242V122.992H312.867V130H314.211V122.992H316.836V121.875ZM321.312 130.141C323.555 130.141 325.07 128.523 325.07 125.938C325.07 123.344 323.555 121.734 321.312 121.734C319.062 121.734 317.547 123.344 317.547 125.938C317.547 128.523 319.062 130.141 321.312 130.141ZM321.312 128.945C319.875 128.945 318.93 127.852 318.93 125.938C318.93 124.023 319.875 122.93 321.312 122.93C322.75 122.93 323.688 124.023 323.688 125.938C323.688 127.852 322.75 128.945 321.312 128.945ZM329.867 122.977C330.719 122.977 331.18 123.375 331.18 124.094C331.18 124.875 330.688 125.25 329.664 125.25H327.922V122.977H329.867ZM329.773 126.344C330.961 126.344 331.531 126.766 331.531 127.633C331.531 128.453 331 128.898 330.016 128.898H327.922V126.344H329.773ZM326.578 130H330.078C331.805 130 332.867 129.102 332.867 127.664C332.867 126.648 332.195 125.906 331.172 125.766V125.703C331.922 125.547 332.508 124.781 332.508 123.953C332.508 122.664 331.578 121.875 330.055 121.875H326.578V130ZM337.109 128.984C336.133 128.984 335.484 128.477 335.484 127.703C335.484 126.938 336.109 126.453 337.203 126.383L339.375 126.25V126.914C339.375 128.086 338.391 128.984 337.109 128.984ZM336.805 130.141C337.898 130.141 338.93 129.531 339.414 128.602H339.445V130H340.734V124.383C340.734 122.766 339.531 121.734 337.625 121.734C335.703 121.734 334.5 122.812 334.406 124.219H335.719C335.891 123.422 336.547 122.93 337.594 122.93C338.719 122.93 339.375 123.523 339.375 124.516V125.195L337.047 125.328C335.172 125.438 334.102 126.312 334.102 127.703C334.102 129.164 335.188 130.141 336.805 130.141ZM346.562 121.734C345.383 121.734 344.438 122.336 343.938 123.25H343.906V121.875H342.617V132.711H343.977V128.68H344.008C344.492 129.57 345.43 130.141 346.594 130.141C348.641 130.141 350.039 128.484 350.039 125.938C350.039 123.391 348.633 121.734 346.562 121.734ZM346.297 128.945C344.906 128.945 343.969 127.75 343.969 125.938C343.969 124.133 344.906 122.93 346.297 122.93C347.742 122.93 348.648 124.102 348.648 125.938C348.648 127.781 347.742 128.945 346.297 128.945ZM360.219 128.883H356.258V128.82C356.641 128.305 356.852 127.422 356.922 126.414L357.172 122.992H360.219V128.883ZM355.289 132.148V130H361.594V132.148H362.859V128.883H361.57V121.875H355.977L355.664 126.383C355.586 127.477 355.297 128.492 354.703 128.883H354.023V132.148H355.289ZM366.25 126.414L366.5 122.992H369.266V130H370.609V121.875H365.289L364.977 126.383C364.875 127.875 364.57 128.82 363.766 128.82C363.57 128.82 363.422 128.781 363.352 128.758V129.984C363.445 130.023 363.602 130.07 363.836 130.07C365.547 130.07 366.086 128.656 366.25 126.414ZM375.453 125.992C374.406 125.992 373.727 125.391 373.727 124.547C373.727 123.57 374.398 122.992 375.453 122.992H377.008V125.992H375.453ZM377.008 130H378.352V121.875H375.445C373.578 121.875 372.375 122.898 372.375 124.57C372.375 125.688 373.07 126.531 374.219 126.859L371.953 130H373.508L375.57 127.109H377.008V130ZM221.227 149H222.578V140.875H215.953V149H217.297V141.992H221.227V149ZM228.438 140.734C227.258 140.734 226.312 141.336 225.812 142.25H225.781V140.875H224.492V151.711H225.852V147.68H225.883C226.367 148.57 227.305 149.141 228.469 149.141C230.516 149.141 231.914 147.484 231.914 144.938C231.914 142.391 230.508 140.734 228.438 140.734ZM228.172 147.945C226.781 147.945 225.844 146.75 225.844 144.938C225.844 143.133 226.781 141.93 228.172 141.93C229.617 141.93 230.523 143.102 230.523 144.938C230.523 146.781 229.617 147.945 228.172 147.945ZM234.766 149L238.828 142.953H238.891V149H240.234V140.875H238.891L234.828 146.922H234.766V140.875H233.422V149H234.766ZM245.43 141.977C246.281 141.977 246.742 142.375 246.742 143.094C246.742 143.875 246.25 144.25 245.227 144.25H243.484V141.977H245.43ZM245.336 145.344C246.523 145.344 247.094 145.766 247.094 146.633C247.094 147.453 246.562 147.898 245.578 147.898H243.484V145.344H245.336ZM242.141 149H245.641C247.367 149 248.43 148.102 248.43 146.664C248.43 145.648 247.758 144.906 246.734 144.766V144.703C247.484 144.547 248.07 143.781 248.07 142.953C248.07 141.664 247.141 140.875 245.617 140.875H242.141V149ZM252 145.414L252.25 141.992H255.016V149H256.359V140.875H251.039L250.727 145.383C250.625 146.875 250.32 147.82 249.516 147.82C249.32 147.82 249.172 147.781 249.102 147.758V148.984C249.195 149.023 249.352 149.07 249.586 149.07C251.297 149.07 251.836 147.656 252 145.414ZM261.547 141.914C262.828 141.914 263.68 142.883 263.711 144.242H259.297C259.383 142.891 260.273 141.914 261.547 141.914ZM263.68 146.672C263.453 147.438 262.695 147.961 261.664 147.961C260.203 147.961 259.289 146.938 259.289 145.383V145.305H265.117V144.789C265.117 142.328 263.766 140.734 261.57 140.734C259.328 140.734 257.891 142.445 257.891 144.969C257.891 147.523 259.305 149.141 261.633 149.141C263.406 149.141 264.781 148.094 265.016 146.672H263.68ZM272.742 149V140.875H271.398V144.141C271.023 144.562 270.359 144.938 269.352 144.938C268.258 144.938 267.688 144.258 267.688 143.195V140.875H266.344V143.211C266.344 144.945 267.367 146.125 269.312 146.125C270.195 146.125 270.844 145.867 271.281 145.492H271.398V149H272.742ZM277.922 141.914C279.203 141.914 280.055 142.883 280.086 144.242H275.672C275.758 142.891 276.648 141.914 277.922 141.914ZM280.055 146.672C279.828 147.438 279.07 147.961 278.039 147.961C276.578 147.961 275.664 146.938 275.664 145.383V145.305H281.492V144.789C281.492 142.328 280.141 140.734 277.945 140.734C275.703 140.734 274.266 142.445 274.266 144.969C274.266 147.523 275.68 149.141 278.008 149.141C279.781 149.141 281.156 148.094 281.391 146.672H280.055ZM288.352 149H289.695V140.875H288.352V144.227H284.344V140.875H283V149H284.344V145.344H288.352V149ZM292.953 149L297.016 142.953H297.078V149H298.422V140.875H297.078L293.016 146.922H292.953V140.875H291.609V149H292.953ZM303.25 144.992C302.203 144.992 301.523 144.391 301.523 143.547C301.523 142.57 302.195 141.992 303.25 141.992H304.805V144.992H303.25ZM304.805 149H306.148V140.875H303.242C301.375 140.875 300.172 141.898 300.172 143.57C300.172 144.688 300.867 145.531 302.016 145.859L299.75 149H301.305L303.367 146.109H304.805V149ZM316.734 147.883H312.773V147.82C313.156 147.305 313.367 146.422 313.438 145.414L313.688 141.992H316.734V147.883ZM311.805 151.148V149H318.109V151.148H319.375V147.883H318.086V140.875H312.492L312.18 145.383C312.102 146.477 311.812 147.492 311.219 147.883H310.539V151.148H311.805ZM323.859 141.914C325.141 141.914 325.992 142.883 326.023 144.242H321.609C321.695 142.891 322.586 141.914 323.859 141.914ZM325.992 146.672C325.766 147.438 325.008 147.961 323.977 147.961C322.516 147.961 321.602 146.938 321.602 145.383V145.305H327.43V144.789C327.43 142.328 326.078 140.734 323.883 140.734C321.641 140.734 320.203 142.445 320.203 144.969C320.203 147.523 321.617 149.141 323.945 149.141C325.719 149.141 327.094 148.094 327.328 146.672H325.992ZM334.289 149H335.633V140.875H334.289V144.227H330.281V140.875H328.938V149H330.281V145.344H334.289V149ZM340.812 141.914C342.094 141.914 342.945 142.883 342.977 144.242H338.562C338.648 142.891 339.539 141.914 340.812 141.914ZM342.945 146.672C342.719 147.438 341.961 147.961 340.93 147.961C339.469 147.961 338.555 146.938 338.555 145.383V145.305H344.383V144.789C344.383 142.328 343.031 140.734 340.836 140.734C338.594 140.734 337.156 142.445 337.156 144.969C337.156 147.523 338.57 149.141 340.898 149.141C342.672 149.141 344.047 148.094 344.281 146.672H342.945ZM351.117 141.992V140.875H345.891V149H347.234V141.992H351.117Z" fill="#222A33"/>
<path d="M219.12 176.128C219.635 176.383 219.763 176.764 219.505 177.275C217.442 181.488 216.557 185.525 216.849 189.387C217.138 193.248 218.217 196.728 220.086 199.824C221.955 202.917 224.53 205.678 227.816 208.105C232.324 211.362 237.511 213.61 243.372 214.856C249.234 216.101 254.933 216.055 260.473 214.713C259.441 214.392 256.255 212.99 250.906 210.499C250.391 210.31 250.247 209.94 250.472 209.398C250.698 208.854 251.1 208.713 251.679 208.968C252.194 209.16 253.111 209.573 254.433 210.213C255.753 210.849 256.753 211.313 257.428 211.6C258.104 211.887 258.975 212.237 260.037 212.655C261.101 213.068 262.082 213.403 262.985 213.658C263.306 213.722 263.532 213.914 263.662 214.232C263.789 214.295 263.887 214.424 263.951 214.616C264.081 215.061 263.951 215.413 263.566 215.668L263.372 215.858C261.182 217.775 259.507 219.464 258.347 220.932C257.187 222.4 256.351 224.188 255.836 226.295C255.706 226.869 255.353 227.092 254.774 226.966C254.195 226.837 253.967 226.487 254.097 225.911C254.933 222.528 256.802 219.464 259.701 216.721C254.161 217.87 248.427 217.79 242.501 216.48C236.576 215.175 231.328 212.83 226.754 209.447C223.276 206.959 220.537 204.052 218.54 200.735C216.544 197.415 215.384 193.68 215.06 189.532C214.739 185.384 215.703 181.043 217.959 176.511C218.217 176.001 218.604 175.872 219.119 176.127L219.12 176.128Z" fill="black"/>
<path d="M506.08 156.717L502.16 154.033L478.179 189.061L482.099 191.745L506.08 156.717Z" fill="#582C46"/>
<path d="M476.239 195.322C476.304 195.206 476.411 195.118 476.538 195.077C476.665 195.036 476.803 195.045 476.924 195.1C477.026 195.189 477.088 195.314 477.099 195.448C477.11 195.583 477.067 195.716 476.981 195.819L475.861 197.444C475.795 197.56 475.688 197.647 475.561 197.689C475.434 197.73 475.296 197.721 475.175 197.666C475.074 197.577 475.011 197.452 475 197.318C474.99 197.183 475.032 197.05 475.118 196.947L476.239 195.322Z" fill="#582C46"/>
<path d="M475.837 195.903L476.565 196.408L482.093 191.723L478.197 189.062L475.837 195.903Z" fill="white"/>
<path d="M547 368.525L518.916 362C518.916 362 512.333 390.206 502 399.667L533.539 412C533.539 412 540.728 396.796 547 368.525Z" fill="white"/>
<path d="M413 215.721L437.343 210C437.343 210 443.052 234.763 452 243.158L424.738 254C424.738 254 418.436 240.5 413 215.721Z" fill="white"/>
<defs>
<filter id="filter0_d" x="-215" y="0" width="960.663" height="961.399" filterUnits="userSpaceOnUse" color-interpolation-filters="sRGB">
<feFlood flood-opacity="0" result="BackgroundImageFix"/>
<feColorMatrix in="SourceAlpha" type="matrix" values="0 0 0 0 0 0 0 0 0 0 0 0 0 0 0 0 0 0 127 0"/>
<feOffset dy="94"/>
<feGaussianBlur stdDeviation="57"/>
<feColorMatrix type="matrix" values="0 0 0 0 0 0 0 0 0 0 0 0 0 0 0 0 0 0 0.1 0"/>
<feBlend mode="normal" in2="BackgroundImageFix" result="effect1_dropShadow"/>
<feBlend mode="normal" in="SourceGraphic" in2="effect1_dropShadow" result="shape"/>
</filter>
</defs>
</svg>
