<svg width="157" height="41" viewBox="0 0 157 41" fill="none" xmlns="http://www.w3.org/2000/svg">
<path d="M3.98108 38.4051H1.86154L1.41712 39.8925H0.109497L2.20055 33.7541H3.6962L5.7901 39.8925H4.4369L3.98108 38.4051ZM2.13503 37.4435H3.6962L2.92416 34.9277H2.89282L2.13503 37.4435Z" fill="#BFC2CA"/>
<path d="M12.0262 39.8925V35.7499H11.9949L10.3568 39.8344H9.56482L7.92958 35.7499H7.8954V39.8925H6.77295V33.7541H8.23441L9.94372 38.1117H9.9779L11.6872 33.7541H13.1458V39.8925H12.0262Z" fill="#BFC2CA"/>
<path d="M18.0174 38.4051H15.9007L15.442 39.8925H14.1486L16.2311 33.7541H17.7125L19.8064 39.8925H18.4675L18.0174 38.4051ZM16.1713 37.4435H17.7467L16.9747 34.9277H16.9433L16.1713 37.4435Z" fill="#BFC2CA"/>
<path d="M20.7494 39.0558L23.8062 34.8609V34.8261H20.8178V33.7686H25.3133V34.6024L22.2679 38.8147V38.8438H25.4016V39.907H20.7494V39.0558Z" fill="#BFC2CA"/>
<path d="M32.0252 36.8248C32.0252 38.7799 30.9027 40 29.1222 40C27.3417 40 26.2164 38.7799 26.2164 36.8248C26.2164 34.8696 27.336 33.6466 29.1222 33.6466C30.9084 33.6466 32.0252 34.8609 32.0252 36.8248ZM27.5012 36.8248C27.5012 38.1117 28.1336 38.9222 29.1222 38.9222C30.1107 38.9222 30.7375 38.1117 30.7375 36.8248C30.7375 35.5378 30.1079 34.7186 29.1222 34.7186C28.1365 34.7186 27.5012 35.5349 27.5012 36.8248Z" fill="#BFC2CA"/>
<path d="M33.2729 39.8925V33.7541H34.327L37.1388 37.766H37.173V33.7541H38.3781V39.8925H37.3354L34.5179 35.8719H34.4809V39.8925H33.2729Z" fill="#BFC2CA"/>
<path d="M41.9249 39.8925V33.7541H43.1841V39.8925H41.9249Z" fill="#BFC2CA"/>
<path d="M44.6683 39.8925V33.7541H45.7196L48.5314 37.766H48.5656V33.7541H49.7706V39.8925H48.7279L45.9104 35.8719H45.8734V39.8925H44.6683Z" fill="#BFC2CA"/>
<path d="M52.7932 39.8925L50.7706 33.7541H52.1807L53.551 38.5707H53.5795L54.9755 33.7541H56.3486L54.3231 39.8925H52.7932Z" fill="#BFC2CA"/>
<path d="M61.3255 39.8925H57.3372V33.7541H61.3255V34.8115H58.5964V36.2931H61.1603V37.2809H58.5964V38.8293H61.3255V39.8925Z" fill="#BFC2CA"/>
<path d="M63.5705 38.1437C63.6303 38.6521 64.1402 38.9832 64.8154 38.9832C65.4906 38.9832 65.9549 38.655 65.9549 38.2047C65.9549 37.8038 65.6701 37.583 64.9407 37.4174L64.1545 37.2431C63.0463 36.9991 62.4993 36.4268 62.4993 35.5262C62.4993 34.3961 63.4593 33.6466 64.8012 33.6466C66.2056 33.6466 67.0802 34.3816 67.1059 35.4942H65.9151C65.8752 34.9742 65.4279 34.6605 64.7983 34.6605C64.1687 34.6605 63.7585 34.951 63.7585 35.4158C63.7585 35.7964 64.0434 35.9968 64.7442 36.1711L65.4735 36.328C66.6785 36.5924 67.2056 37.1182 67.2056 38.071C67.2056 39.2621 66.2598 40.0145 64.7641 40.0145C63.3169 40.0145 62.3939 39.3115 62.3568 38.1582L63.5705 38.1437Z" fill="#BFC2CA"/>
<path d="M69.7667 39.8925V34.8115H68.0289V33.7541H72.7722V34.8115H71.0287V39.8925H69.7667Z" fill="#BFC2CA"/>
<path d="M73.8092 39.8925V33.7541H75.0684V39.8925H73.8092Z" fill="#BFC2CA"/>
<path d="M76.5526 39.8925V33.7541H77.6039L80.4157 37.766H80.4499V33.7541H81.6549V39.8925H80.6151L77.7976 35.8719H77.7663V39.8925H76.5526Z" fill="#BFC2CA"/>
<path d="M85.8057 40C84.0081 40 82.9056 38.8002 82.9056 36.8044C82.9056 34.8086 84.0081 33.6466 85.7772 33.6466C87.1817 33.6466 88.2415 34.4949 88.4209 35.7354H87.1674C87.0866 35.4298 86.9059 35.1615 86.6551 34.975C86.4043 34.7885 86.0986 34.695 85.7886 34.7099C84.7944 34.7099 84.1989 35.4797 84.1989 36.787C84.1989 38.0943 84.8342 38.9309 85.8342 38.9309C86.6575 38.9309 87.2273 38.4167 87.2586 37.6556V37.5568H85.9481V36.6214H88.4836V37.3157C88.4751 38.9861 87.4837 40 85.8057 40Z" fill="#BFC2CA"/>
<path d="M12.163 10.4989C12.2997 9.20134 13.1971 8.55254 14.8551 8.55254C15.5206 8.52627 16.1863 8.5967 16.8322 8.7617C17.0248 8.81206 17.2049 8.90295 17.3609 9.02853C17.5169 9.15411 17.6454 9.3116 17.7382 9.49087C17.8876 9.77918 17.9905 10.0901 18.043 10.4118C18.0838 10.8132 18.101 11.2168 18.0943 11.6203V23.778C18.1008 24.1806 18.0837 24.5832 18.043 24.9836C17.993 25.3032 17.897 25.6135 17.7581 25.9046C17.4391 26.5088 16.6613 26.808 15.4221 26.808C14.1828 26.808 13.3538 26.6512 12.9322 26.3403C12.721 26.1779 12.5463 25.9712 12.42 25.7342C12.2938 25.4972 12.2187 25.2353 12.2 24.9662C11.3587 26.196 9.95513 26.81 7.98942 26.808C6.02372 26.8061 4.19951 25.8891 2.51679 24.0569C0.899792 22.348 -0.00265195 20.0651 5.85402e-06 17.6904C0.00266366 15.3157 0.910215 13.035 2.53103 11.3298C4.22704 9.51121 6.08544 8.60192 8.10623 8.60192C8.83039 8.58915 9.54955 8.72653 10.2201 9.00573C10.7026 9.19137 11.152 9.45633 11.5505 9.7901C11.7769 10.0054 11.982 10.2428 12.163 10.4989ZM5.95819 17.721C5.96211 18.1087 6.04258 18.4917 6.1948 18.8471C6.34702 19.2025 6.56787 19.5229 6.84419 19.7894C7.12053 20.0857 7.45404 20.3205 7.82372 20.479C8.19339 20.6375 8.59124 20.7162 8.99222 20.7103C9.38936 20.7223 9.78424 20.6452 10.149 20.4846C10.5137 20.324 10.8395 20.0837 11.1032 19.7807C11.6237 19.2255 11.9171 18.489 11.9237 17.721C11.9147 16.9443 11.6303 16.1972 11.1232 15.6177C10.862 15.2987 10.5325 15.0451 10.1601 14.8764C9.78771 14.7077 9.38231 14.6283 8.97512 14.6445C8.56329 14.6309 8.15368 14.7112 7.77616 14.8796C7.39864 15.048 7.06273 15.3001 6.79291 15.6177C6.26921 16.1894 5.97183 16.9387 5.95819 17.721Z" fill="white"/>
<path d="M26.8602 10.9841C27.9295 9.33981 29.2133 8.51767 30.7118 8.51767C33.0232 8.51767 34.7486 9.52573 35.8882 11.5419C36.1695 11.1624 36.473 10.8005 36.797 10.4583C37.2991 9.96265 37.8667 9.5412 38.4835 9.20617C39.2067 8.76947 40.0304 8.53592 40.8708 8.52929C41.7388 8.51709 42.5984 8.70272 43.3871 9.07264C44.1757 9.44256 44.8733 9.98742 45.429 10.6674C46.6654 12.0774 47.2836 14.4285 47.2836 17.721V23.8216C47.2899 24.2222 47.2728 24.6229 47.2323 25.0214C47.1783 25.3455 47.0683 25.6573 46.9075 25.9423C46.6112 26.5679 45.7367 26.8807 44.2837 26.8807C42.8308 26.8807 41.9553 26.5563 41.6571 25.9075C41.5172 25.6169 41.4212 25.3064 41.3722 24.9865C41.333 24.5879 41.3168 24.1873 41.3238 23.7868V17.6948C41.3238 15.6787 40.6192 14.6706 39.2099 14.6706C38.4123 14.6706 37.8738 14.9379 37.589 15.4695C37.2682 16.1733 37.1196 16.9458 37.1559 17.721V23.8216C37.1631 24.228 37.146 24.6345 37.1046 25.0388C37.0484 25.3569 36.9385 25.6625 36.7799 25.9423C36.4608 26.5679 35.5748 26.8807 34.1219 26.8807C32.669 26.8807 31.7934 26.5563 31.4953 25.9075C31.3554 25.6169 31.2593 25.3064 31.2104 24.9865C31.1699 24.588 31.1528 24.1874 31.1591 23.7868V17.6948C31.1591 15.6787 30.4554 14.6706 29.0481 14.6706C27.6845 14.6706 27.0026 15.6787 27.0026 17.6948V23.8478C27.009 24.2484 26.9918 24.649 26.9514 25.0476C26.8973 25.3717 26.7874 25.6835 26.6266 25.9685C26.2847 26.5727 25.3987 26.8739 23.9686 26.8719C22.5385 26.87 21.6629 26.5572 21.342 25.9336C21.2041 25.6483 21.1081 25.3439 21.0571 25.0301C21.0123 24.6289 20.9914 24.2254 20.9944 23.8216V11.5767C20.9881 11.1761 21.0052 10.7755 21.0457 10.3769C21.0986 10.068 21.2089 9.77221 21.3705 9.5054C21.7123 8.8779 22.51 8.56706 23.792 8.56706C25.074 8.56706 25.8944 8.77622 26.279 9.19165C26.6923 9.6903 26.9005 10.3325 26.8602 10.9841Z" fill="white"/>
<path d="M61.1717 10.4989C61.3085 9.20132 62.2068 8.55252 63.8667 8.55252C64.5321 8.52665 65.1978 8.59707 65.8438 8.76169C66.0358 8.81241 66.2154 8.90347 66.3709 9.02903C66.5264 9.1546 66.6545 9.3119 66.7469 9.49086C66.8988 9.77806 67.0019 10.0894 67.0517 10.4118C67.0922 10.8103 67.1093 11.2109 67.103 11.6116V23.778C67.1093 24.1786 67.0922 24.5793 67.0517 24.9778C67.0031 25.2977 66.907 25.6083 66.7668 25.8987C66.4478 26.503 65.67 26.8022 64.4308 26.8022C63.1915 26.8022 62.3625 26.6453 61.9409 26.3345C61.7297 26.1721 61.5551 25.9654 61.4288 25.7284C61.3025 25.4913 61.2275 25.2295 61.2087 24.9604C60.3674 26.1902 58.9639 26.8041 56.9981 26.8022C55.0324 26.8003 53.2092 25.8852 51.5284 24.0569C49.8922 22.3501 48.9847 20.0525 49.0043 17.6657C49.0007 16.4904 49.2242 15.3259 49.6622 14.2387C50.1002 13.1516 50.744 12.1631 51.5568 11.3298C53.2491 9.5112 55.1065 8.60191 57.1292 8.60191C57.8486 8.5911 58.5627 8.72845 59.2288 9.00571C59.7113 9.19136 60.1607 9.45632 60.5592 9.79008C60.7865 10.0045 60.9917 10.242 61.1717 10.4989ZM54.9755 17.7209C54.9794 18.1087 55.0598 18.4917 55.2121 18.8471C55.3643 19.2025 55.5851 19.5229 55.8615 19.7894C56.1378 20.0857 56.4713 20.3205 56.841 20.479C57.2107 20.6375 57.6085 20.7162 58.0095 20.7103C58.4038 20.7197 58.7953 20.6414 59.157 20.4809C59.5186 20.3203 59.8415 20.0814 60.1034 19.7806C60.629 19.228 60.9268 18.4908 60.9353 17.7209C60.9273 16.9435 60.6417 16.1958 60.1319 15.6177C59.8707 15.2987 59.5412 15.0451 59.1688 14.8764C58.7964 14.7077 58.391 14.6283 57.9838 14.6445C57.5724 14.6305 57.1631 14.7107 56.7859 14.8791C56.4088 15.0475 56.0735 15.2998 55.8045 15.6177C55.2819 16.1897 54.9865 16.9393 54.9755 17.7209Z" fill="white"/>
<path d="M78.7235 20.7539H84.555C85.4648 20.7539 86.1181 20.8701 86.515 21.1025C86.8991 21.321 87.1858 21.682 87.3156 22.1106C87.4688 22.6779 87.5379 23.2654 87.5207 23.8536C87.5379 24.4418 87.4688 25.0293 87.3156 25.5966C87.2641 25.7906 87.1737 25.9716 87.0501 26.1281C86.9266 26.2846 86.7725 26.4133 86.5977 26.5059C86.3146 26.6604 86.0085 26.7664 85.6917 26.8197C85.3019 26.861 84.9099 26.8785 84.518 26.872H72.211C71.8222 26.874 71.4372 26.795 71.0795 26.6396C70.7219 26.4842 70.3992 26.2558 70.1313 25.9685C69.8483 25.691 69.6239 25.3574 69.472 24.9882C69.3201 24.619 69.244 24.222 69.2482 23.8216C69.2424 23.4221 69.3182 23.0257 69.4708 22.6576C69.6233 22.2895 69.8492 21.9578 70.1342 21.6835C70.723 21.1025 71.6317 20.2513 72.8605 19.1299C74.0893 18.0086 75.2032 17.0054 76.2022 16.1203C77.2012 15.2294 77.7463 14.7375 77.8375 14.6445H73.0315C71.7362 14.6445 70.9176 14.4247 70.5758 13.9851C70.1671 13.3918 69.9663 12.6754 70.006 11.9515C69.9846 11.3268 70.0421 10.702 70.1769 10.0923C70.2533 9.76676 70.3917 9.45976 70.5843 9.18877C70.7685 8.97496 71.0042 8.81376 71.268 8.72106C71.8486 8.58342 72.4444 8.52481 73.04 8.54675H84.1192C84.5052 8.54419 84.8878 8.61992 85.2448 8.76954C85.6019 8.91916 85.9261 9.13968 86.1988 9.41828C86.487 9.69742 86.7147 10.035 86.8673 10.4092C87.0198 10.7834 87.094 11.1861 87.0848 11.5913C87.083 12.03 86.9911 12.4635 86.8149 12.8638C86.6388 13.2641 86.3823 13.6223 86.0621 13.9153C85.3765 14.5816 82.9303 16.8611 78.7235 20.7539Z" fill="white"/>
<path d="M116.451 5.16232C116.356 5.3375 116.227 5.49102 116.071 5.61342C115.916 5.73583 115.738 5.82453 115.548 5.87406C114.991 6.02905 114.415 6.09953 113.838 6.08323C113.257 6.10084 112.676 6.03035 112.115 5.87406C111.923 5.82334 111.743 5.73228 111.588 5.60672C111.432 5.48115 111.304 5.32385 111.212 5.14489C111.062 4.85659 110.959 4.54564 110.907 4.22398C110.866 3.82544 110.849 3.4248 110.856 3.02418C110.849 2.62357 110.867 2.22293 110.907 1.82439C110.953 1.51507 111.05 1.2157 111.192 0.93834C111.509 0.31278 112.393 0 113.844 0C115.295 0 116.158 0.31278 116.434 0.93834C116.594 1.22352 116.704 1.53524 116.758 1.85925C116.799 2.25779 116.816 2.65843 116.81 3.05905C116.816 3.45966 116.799 3.86031 116.758 4.25884C116.707 4.57576 116.603 4.88138 116.451 5.16232ZM110.844 11.6203C110.838 11.2197 110.855 10.819 110.896 10.4205C110.944 10.1006 111.04 9.79008 111.18 9.4996C111.499 8.89534 112.386 8.59418 113.841 8.59612C114.933 8.59612 115.705 8.78979 116.157 9.17714C116.361 9.36536 116.522 9.59692 116.628 9.85544C116.734 10.114 116.784 10.3931 116.773 10.6733C116.795 10.9057 116.807 11.2397 116.807 11.6813V23.8478C116.813 24.2484 116.796 24.649 116.756 25.0476C116.702 25.3717 116.592 25.6835 116.431 25.9685C116.135 26.5727 115.26 26.8739 113.807 26.872C112.354 26.87 111.479 26.5572 111.18 25.9336C111.042 25.6484 110.946 25.344 110.896 25.0301C110.854 24.6258 110.837 24.2193 110.844 23.8129V11.6203Z" fill="white"/>
<path d="M129.678 8.55255C130.759 8.53349 131.831 8.76247 132.814 9.22257C133.796 9.68266 134.665 10.3621 135.356 11.2107C136.875 12.9828 137.635 15.1442 137.635 17.6948V23.8216C137.641 24.2222 137.624 24.6229 137.584 25.0214C137.536 25.3305 137.44 25.6297 137.299 25.9075C136.98 26.5311 136.093 26.8439 134.638 26.8458C133.025 26.8458 132.094 26.4168 131.843 25.5589C131.683 24.983 131.614 24.3848 131.638 23.7868V17.66C131.672 17.2555 131.62 16.8482 131.484 16.4665C131.348 16.0849 131.133 15.738 130.852 15.4501C130.571 15.1622 130.232 14.9401 129.859 14.7995C129.485 14.6589 129.086 14.603 128.689 14.6358C128.285 14.6154 127.881 14.6788 127.502 14.8221C127.122 14.9654 126.775 15.1856 126.482 15.4695C126.202 15.7564 125.984 16.099 125.84 16.4759C125.696 16.8528 125.631 17.2559 125.647 17.66V23.8216C125.653 24.2222 125.636 24.6229 125.596 25.0214C125.544 25.3354 125.434 25.6363 125.271 25.9075C124.986 26.5321 124.1 26.8458 122.647 26.8458C121.194 26.8458 120.339 26.5321 120.023 25.9075C119.883 25.6169 119.787 25.3064 119.738 24.9866C119.698 24.588 119.681 24.1874 119.687 23.7868V11.4722C119.681 11.0841 119.698 10.6961 119.738 10.3101C119.791 10.0012 119.902 9.70541 120.063 9.4386C120.378 8.85759 121.253 8.56708 122.687 8.56708C124.071 8.56708 124.926 8.83435 125.251 9.36597C125.489 9.80123 125.607 10.2941 125.593 10.7924C125.762 10.5288 125.965 10.2895 126.197 10.0806C126.479 9.80761 126.788 9.56339 127.117 9.35145C127.87 8.82447 128.764 8.54565 129.678 8.55255Z" fill="white"/>
<path d="M151.164 24.577C150.298 25.739 148.923 26.32 147.039 26.32C145.155 26.32 143.388 25.433 141.737 23.659C140.149 21.9951 139.261 19.7637 139.264 17.4415C139.268 15.1193 140.161 12.8904 141.754 11.2311C143.412 9.44734 145.23 8.55548 147.207 8.55548C147.934 8.54608 148.654 8.6936 149.321 8.98834C149.799 9.1788 150.243 9.44983 150.634 9.79014C150.846 9.9957 151.037 10.2225 151.204 10.467C151.218 10.1855 151.286 9.90968 151.406 9.65572C151.526 9.40177 151.695 9.17485 151.902 8.98834C152.298 8.65425 152.942 8.48576 153.828 8.48576C154.482 8.4578 155.136 8.52828 155.771 8.69492C155.955 8.74791 156.127 8.83825 156.276 8.96054C156.425 9.08283 156.549 9.23457 156.639 9.40667C156.79 9.68235 156.894 9.98187 156.947 10.2927C156.988 10.6854 157.005 11.0803 156.998 11.4751V25.8552C156.998 28.5182 156.089 30.668 154.269 32.3045C152.6 33.882 150.409 34.7596 148.133 34.7622C146.405 34.7628 144.704 34.3213 143.187 33.4781C141.62 32.6182 140.837 31.8435 140.837 31.1541C140.839 30.7046 140.932 30.2604 141.108 29.8487C141.285 29.4371 141.543 29.0667 141.865 28.7603C142.173 28.3965 142.509 28.0593 142.871 27.7522C143.11 27.5664 143.405 27.4691 143.706 27.4762C144.069 27.4958 144.415 27.6414 144.686 27.8888C145.69 28.7145 146.94 29.1683 148.23 29.1757C148.638 29.1847 149.042 29.0949 149.41 28.9136C149.777 28.7323 150.097 28.4647 150.343 28.1328C150.896 27.4216 151.186 26.5355 151.164 25.6286V24.577ZM145.093 17.4683C145.096 17.8497 145.175 18.2264 145.325 18.5759C145.475 18.9254 145.692 19.2404 145.965 19.5018C146.237 19.7935 146.565 20.0244 146.929 20.1799C147.293 20.3354 147.684 20.4122 148.079 20.4053C148.468 20.4149 148.854 20.3374 149.21 20.1783C149.567 20.0192 149.884 19.7823 150.141 19.4844C150.657 18.9437 150.949 18.2222 150.959 17.4683C150.948 16.7108 150.67 15.9827 150.175 15.4173C149.918 15.1036 149.594 14.8542 149.228 14.6885C148.861 14.5228 148.462 14.4451 148.062 14.4615C147.658 14.446 147.256 14.5219 146.885 14.6836C146.513 14.8454 146.182 15.089 145.914 15.3969C145.393 15.9564 145.099 16.6967 145.093 17.4683Z" fill="white"/>
<path d="M101.859 26.9184C101.753 27.1111 101.611 27.28 101.439 27.4148C101.268 27.5496 101.071 27.6476 100.862 27.7028C99.6138 28.0088 98.3124 28.0088 97.0644 27.7028C96.853 27.6463 96.6554 27.5456 96.4842 27.4071C96.3131 27.2686 96.172 27.0952 96.0701 26.8981C95.9028 26.5806 95.7882 26.237 95.7311 25.8813C95.6866 25.4423 95.6675 25.0009 95.6741 24.5595C95.6676 24.1182 95.6866 23.6768 95.7311 23.2377C95.7833 22.8955 95.8912 22.5647 96.0502 22.2587C96.4015 21.5692 97.3787 21.2245 98.9816 21.2245C100.585 21.2245 101.534 21.5692 101.83 22.2587C102.007 22.5737 102.127 22.9179 102.187 23.2755C102.233 23.7144 102.252 24.1559 102.244 24.5973C102.252 25.0396 102.233 25.4821 102.187 25.922C102.134 26.2708 102.023 26.6079 101.859 26.9184Z" fill="#FF4F45"/>
<path d="M90.9098 6.00216L90.239 6.68622C89.112 7.83547 89.112 9.69877 90.239 10.848L96.9189 17.6598C98.0459 18.809 99.8731 18.809 101 17.6598L101.671 16.9757C102.798 15.8264 102.798 13.9631 101.671 12.8139L94.9911 6.00216C93.8641 4.85291 92.0368 4.85291 90.9098 6.00216Z" fill="url(#paint0_linear)"/>
<path d="M107.688 6.70078L107.017 6.01673C105.89 4.86747 104.063 4.86747 102.936 6.01673L96.2563 12.8284C95.1293 13.9777 95.1293 15.841 96.2563 16.9903L96.9272 17.6743C98.0542 18.8236 99.8814 18.8236 101.008 17.6743L107.688 10.8626C108.815 9.71333 108.815 7.85003 107.688 6.70078Z" fill="url(#paint1_linear)"/>
<path d="M101.668 16.9744L100.999 17.6599C100.477 18.1911 99.7765 18.499 99.0398 18.5206C98.3032 18.5422 97.5863 18.2759 97.0358 17.7762L96.9304 17.6716L96.2581 16.986C95.99 16.7129 95.7774 16.3887 95.6323 16.0318C95.4872 15.6749 95.4125 15.2923 95.4125 14.9059C95.4125 14.5196 95.4872 14.137 95.6323 13.7801C95.7774 13.4232 95.99 13.0989 96.2581 12.8259L98.9702 10.0632L101.668 12.8143C101.936 13.0873 102.149 13.4116 102.294 13.7685C102.439 14.1254 102.514 14.508 102.514 14.8943C102.514 15.2807 102.439 15.6632 102.294 16.0202C102.149 16.3771 101.936 16.7013 101.668 16.9744Z" fill="url(#paint2_linear)"/>
<defs>
<linearGradient id="paint0_linear" x1="95.9547" y1="18.5226" x2="95.9547" y2="5.14178" gradientUnits="userSpaceOnUse">
<stop stop-color="#278DCC"/>
<stop offset="1" stop-color="#93BFE4"/>
</linearGradient>
<linearGradient id="paint1_linear" x1="95.4116" y1="11.844" x2="108.533" y2="11.844" gradientUnits="userSpaceOnUse">
<stop stop-color="#F46A4F"/>
<stop offset="0.41" stop-color="#F78154"/>
<stop offset="1" stop-color="#FDA95D"/>
</linearGradient>
<linearGradient id="paint2_linear" x1="95.412" y1="14.293" x2="102.514" y2="14.293" gradientUnits="userSpaceOnUse">
<stop stop-color="#2B5A3F"/>
<stop offset="0.63" stop-color="#2B4337"/>
<stop offset="1" stop-color="#2B3431"/>
</linearGradient>
</defs>
</svg>
