<svg width="383" height="390" viewBox="0 0 383 390" fill="none" xmlns="http://www.w3.org/2000/svg">
<path d="M273.682 300.789C270.853 314.126 262.376 325.391 248.251 334.583C234.126 343.775 214.231 352.007 188.564 359.278C162.882 366.557 141.615 369.993 124.765 369.586C107.914 369.178 94.7216 363.839 85.1874 353.567C75.6736 343.304 69.0001 333.744 65.167 324.888C61.3339 316.031 56.8113 302.401 51.5993 283.998C46.3853 265.603 43.0835 251.629 41.6938 242.076C40.304 232.523 40.8779 221.336 43.4153 208.516C48.6989 183.677 77.4304 163.862 129.61 149.071C180.979 134.511 215.022 136.532 231.739 155.135C241.655 165.307 248.534 174.811 252.375 183.647C256.216 192.483 260.739 206.113 265.943 224.537C271.163 242.952 274.465 256.926 275.849 266.459C277.232 275.991 276.51 287.435 273.682 300.789Z" fill="#FF4F45"/>
<path d="M352.144 253.811C348.196 272.423 336.366 288.143 316.655 300.971C296.943 313.799 269.178 325.286 233.36 335.433C197.52 345.592 167.842 350.387 144.327 349.818C120.811 349.249 102.401 341.798 89.0956 327.464C75.8189 313.141 66.5059 299.8 61.1567 287.441C55.8076 275.082 49.4962 256.061 42.2227 230.378C34.9465 204.708 30.3387 185.207 28.3993 171.876C26.4599 158.544 27.2607 142.932 30.8018 125.042C38.1751 90.3781 78.2706 62.726 151.088 42.0857C222.774 21.766 270.282 24.5867 293.611 50.5478C307.45 64.7426 317.05 78.0055 322.41 90.3366C327.77 102.668 334.082 121.689 341.344 147.4C348.628 173.098 353.236 192.599 355.167 205.902C357.099 219.205 356.091 235.175 352.144 253.811Z" fill="white"/>
<path d="M219.67 139.194C218.936 142.422 216.839 145.126 213.379 147.308C209.918 149.49 205.059 151.419 198.804 153.094C192.544 154.771 187.37 155.531 183.281 155.373C179.192 155.215 176.008 153.873 173.73 151.346C171.456 148.822 169.87 146.478 168.97 144.314C168.071 142.151 167.021 138.827 165.82 134.341C164.618 129.858 163.866 126.454 163.562 124.13C163.258 121.807 163.436 119.093 164.097 115.99C165.467 109.979 172.51 105.27 185.228 101.862C197.748 98.507 206.005 99.1168 209.998 103.691C212.37 106.195 214.006 108.526 214.908 110.684C215.809 112.843 216.859 116.167 218.058 120.657C219.261 125.146 220.013 128.549 220.316 130.868C220.618 133.187 220.403 135.962 219.67 139.194Z" fill="#BDF3E9"/>
<path d="M203.5 118.914L187.692 136.414L181 129.82" stroke="#1AD8B4" stroke-width="5" stroke-linecap="round" stroke-linejoin="round"/>
<path d="M141.785 208.226C145.867 208.226 148.396 205.414 148.396 200.863C148.396 196.322 145.848 193.509 141.785 193.509C138.484 193.509 135.926 195.58 135.555 198.578H138.455C138.826 197.025 140.145 196.019 141.785 196.019C143.68 196.019 145.096 197.386 145.311 199.623H139.783V201.908H145.34C145.174 204.271 143.738 205.716 141.775 205.716C140.105 205.716 138.855 204.808 138.445 203.304H135.545C136.004 206.312 138.416 208.226 141.785 208.226ZM155.74 202.289L159.92 197.445H156.658L153.182 201.654H153.104V197.445H150.262V207.914H153.104V203.421H153.182L156.717 207.914H160.164L155.74 202.289ZM170.369 201.019C170.096 198.822 168.357 197.22 165.662 197.22C162.537 197.22 160.555 199.33 160.555 202.669C160.555 206.068 162.537 208.138 165.682 208.138C168.338 208.138 170.125 206.654 170.379 204.339H167.723C167.479 205.326 166.775 205.902 165.711 205.902C164.295 205.902 163.426 204.71 163.426 202.669C163.426 200.667 164.295 199.457 165.701 199.457C166.785 199.457 167.469 200.111 167.703 201.019H170.369ZM178.729 207.914H181.57V197.445H171.961V207.914H174.803V199.593H178.729V207.914ZM188.318 199.33C189.588 199.33 190.457 200.248 190.516 201.585H186.072C186.17 200.277 187.068 199.33 188.318 199.33ZM190.555 204.71C190.291 205.511 189.49 206.029 188.445 206.029C186.99 206.029 186.043 205.003 186.043 203.509V203.333H193.26V202.464C193.26 199.281 191.336 197.22 188.289 197.22C185.193 197.22 183.24 199.388 183.24 202.728C183.24 206.078 185.174 208.138 188.396 208.138C190.984 208.138 192.859 206.761 193.172 204.71H190.555ZM201.023 197.279C199.51 197.279 198.348 198.041 197.781 199.271H197.723V197.445H194.91V211.332H197.762V206.156H197.82C198.377 207.337 199.549 208.08 201.072 208.08C203.689 208.08 205.311 206.048 205.311 202.679C205.311 199.3 203.68 197.279 201.023 197.279ZM200.066 205.785C198.67 205.785 197.752 204.574 197.752 202.679C197.752 200.804 198.67 199.564 200.066 199.564C201.492 199.564 202.391 200.785 202.391 202.679C202.391 204.583 201.492 205.785 200.066 205.785ZM215.193 197.445H206.111V199.593H209.236V207.914H212.078V199.593H215.193V197.445ZM219.441 207.914L223.602 201.292H223.68V207.914H226.473V197.445H223.68L219.52 203.988H219.441V197.445H216.648V207.914H219.441ZM232.762 208.138C235.604 208.138 237.361 206.839 237.361 204.779C237.361 203.617 236.688 202.777 235.418 202.445V202.367C236.395 202.093 236.99 201.244 236.99 200.199C236.99 198.333 235.486 197.22 232.693 197.22C230.135 197.22 228.475 198.5 228.27 200.599H230.955C231.082 199.808 231.717 199.369 232.713 199.369C233.719 199.369 234.217 199.828 234.217 200.511C234.217 201.253 233.699 201.615 232.693 201.615H231.326V203.47H232.771C233.934 203.47 234.52 203.851 234.52 204.671C234.52 205.433 233.895 205.931 232.762 205.931C231.707 205.931 231.033 205.482 230.789 204.593H228.074C228.27 206.81 230.047 208.138 232.762 208.138ZM243.133 206.019C242.166 206.019 241.521 205.531 241.521 204.75C241.521 204.007 242.127 203.529 243.191 203.451L245.398 203.314V204.076C245.398 205.208 244.373 206.019 243.133 206.019ZM242.195 208.08C243.504 208.08 244.803 207.425 245.389 206.312H245.447V207.914H248.201V200.716C248.201 198.607 246.453 197.22 243.768 197.22C240.994 197.22 239.266 198.617 239.158 200.648H241.766C241.902 199.876 242.576 199.349 243.641 199.349C244.715 199.349 245.398 199.916 245.398 200.892V201.585L242.762 201.742C240.154 201.898 238.689 203.001 238.689 204.906C238.689 206.791 240.203 208.08 242.195 208.08ZM164.402 223.251C165.34 223.251 165.867 223.691 165.867 224.453C165.867 225.244 165.301 225.683 164.256 225.683H162.713V223.251H164.402ZM164.402 227.333C165.613 227.333 166.258 227.802 166.258 228.71C166.258 229.619 165.643 230.107 164.529 230.107H162.713V227.333H164.402ZM159.92 231.914H165.262C167.635 231.914 169.119 230.722 169.119 228.886C169.119 227.568 168.152 226.591 166.756 226.425V226.347C167.83 226.181 168.65 225.205 168.65 224.082C168.65 222.431 167.342 221.445 165.164 221.445H159.92V231.914ZM181.668 231.914H184.51V221.445H181.668V225.468H177.645V221.445H174.803V231.914H177.645V227.626H181.668V231.914ZM189.354 231.914L193.514 225.292H193.592V231.914H196.385V221.445H193.592L189.432 227.988H189.354V221.445H186.561V231.914H189.354ZM198.436 231.914H212.801V221.445H209.959V229.755H207.039V221.445H204.197V229.755H201.277V221.445H198.436V231.914ZM219.539 223.33C220.809 223.33 221.678 224.248 221.736 225.585H217.293C217.391 224.277 218.289 223.33 219.539 223.33ZM221.775 228.71C221.512 229.511 220.711 230.029 219.666 230.029C218.211 230.029 217.264 229.003 217.264 227.509V227.333H224.48V226.464C224.48 223.281 222.557 221.22 219.51 221.22C216.414 221.22 214.461 223.388 214.461 226.728C214.461 230.078 216.395 232.138 219.617 232.138C222.205 232.138 224.08 230.761 224.393 228.71H221.775Z" fill="black"/>
</svg>
