<svg width="251" height="257" viewBox="0 0 251 257" fill="none" xmlns="http://www.w3.org/2000/svg">
<path d="M178.954 198.335C177.098 207.084 171.536 214.475 162.269 220.506C153.002 226.536 139.949 231.937 123.11 236.707C106.261 241.483 92.3086 243.737 81.2534 243.47C70.1982 243.202 61.543 239.699 55.2879 232.961C49.0462 226.227 44.6679 219.955 42.1531 214.145C39.6383 208.334 36.6712 199.392 33.2517 187.318C29.831 175.25 27.6648 166.082 26.753 159.814C25.8412 153.547 26.2177 146.208 27.8825 137.797C31.3489 121.5 50.1988 108.5 84.4322 98.7969C118.134 89.2441 140.468 90.5702 151.436 102.775C157.942 109.449 162.455 115.684 164.975 121.481C167.495 127.278 170.462 136.22 173.876 148.308C177.301 160.389 179.467 169.557 180.375 175.811C181.283 182.065 180.809 189.573 178.954 198.335Z" fill="#FF4F45"/>
<path d="M230.43 167.514C227.84 179.724 220.079 190.037 207.147 198.454C194.214 206.87 175.999 214.406 152.499 221.063C128.986 227.728 109.515 230.874 94.0872 230.501C78.6595 230.127 66.581 225.239 57.8519 215.835C49.1414 206.438 43.0314 197.685 39.522 189.577C36.0126 181.468 31.8719 168.989 27.0999 152.14C22.3263 135.298 19.3032 122.504 18.0308 113.758C16.7584 105.011 17.2838 94.769 19.607 83.0317C24.4444 60.2897 50.7499 42.148 98.5233 28.6065C145.555 15.2753 176.723 17.1259 192.029 34.1582C201.108 43.471 207.406 52.1724 210.923 60.2625C214.439 68.3525 218.58 80.8316 223.345 97.6999C228.124 114.56 231.147 127.354 232.414 136.082C233.681 144.809 233.019 155.287 230.43 167.514Z" fill="white"/>
<path d="M152.872 85.1893C152.139 88.4168 150.042 91.1215 146.581 93.3034C143.12 95.4854 138.262 97.4139 132.006 99.0891C125.746 100.766 120.572 101.526 116.483 101.368C112.394 101.21 109.21 99.868 106.932 97.3414C104.659 94.8167 103.072 92.4728 102.173 90.3096C101.273 88.1464 100.223 84.822 99.0221 80.3364C97.8208 75.853 97.0682 72.4494 96.7643 70.1256C96.4603 67.8017 96.6388 65.0882 97.2996 61.9852C98.669 55.9741 105.713 51.2647 118.431 47.857C130.951 44.5022 139.207 45.1119 143.2 49.6861C145.572 52.1899 147.208 54.521 148.11 56.6793C149.011 58.8377 150.062 62.1621 151.26 66.6525C152.463 71.1409 153.216 74.5445 153.518 76.8633C153.821 79.1821 153.605 81.9575 152.872 85.1893Z" fill="#BDF3E9"/>
<path d="M136.702 64.9082L120.895 82.4082L114.202 75.8148" stroke="#1AD8B4" stroke-width="5" stroke-linecap="round" stroke-linejoin="round"/>
<path d="M79.0774 150.158C82.343 150.158 84.3665 147.908 84.3665 144.268C84.3665 140.635 82.3274 138.385 79.0774 138.385C76.4368 138.385 74.3899 140.041 74.093 142.439H76.4133C76.7102 141.197 77.7649 140.393 79.0774 140.393C80.593 140.393 81.7258 141.486 81.8977 143.275H77.4758V145.104H81.9211C81.7883 146.994 80.6399 148.15 79.0696 148.15C77.7336 148.15 76.7336 147.424 76.4055 146.221H74.0852C74.4524 148.627 76.3821 150.158 79.0774 150.158ZM90.2415 145.408L93.5852 141.533H90.9758L88.1946 144.9H88.1321V141.533H85.8586V149.908H88.1321V146.314H88.1946L91.0227 149.908H93.7805L90.2415 145.408ZM101.945 144.393C101.726 142.635 100.335 141.354 98.179 141.354C95.679 141.354 94.093 143.041 94.093 145.713C94.093 148.432 95.679 150.088 98.1946 150.088C100.32 150.088 101.749 148.9 101.952 147.049H99.8274C99.6321 147.838 99.0696 148.299 98.218 148.299C97.0852 148.299 96.3899 147.346 96.3899 145.713C96.3899 144.111 97.0852 143.143 98.2102 143.143C99.0774 143.143 99.6243 143.666 99.8118 144.393H101.945ZM108.632 149.908H110.906V141.533H103.218V149.908H105.491V143.252H108.632V149.908ZM116.304 143.041C117.32 143.041 118.015 143.775 118.062 144.846H114.507C114.585 143.799 115.304 143.041 116.304 143.041ZM118.093 147.346C117.882 147.986 117.241 148.4 116.406 148.4C115.241 148.4 114.484 147.58 114.484 146.385V146.244H120.257V145.549C120.257 143.002 118.718 141.354 116.281 141.354C113.804 141.354 112.241 143.088 112.241 145.76C112.241 148.439 113.788 150.088 116.366 150.088C118.437 150.088 119.937 148.986 120.187 147.346H118.093ZM126.468 141.4C125.257 141.4 124.327 142.01 123.874 142.994H123.827V141.533H121.577V152.643H123.859V148.502H123.906C124.351 149.447 125.288 150.041 126.507 150.041C128.601 150.041 129.898 148.416 129.898 145.721C129.898 143.018 128.593 141.4 126.468 141.4ZM125.702 148.205C124.585 148.205 123.851 147.236 123.851 145.721C123.851 144.221 124.585 143.229 125.702 143.229C126.843 143.229 127.562 144.205 127.562 145.721C127.562 147.244 126.843 148.205 125.702 148.205ZM137.804 141.533H130.538V143.252H133.038V149.908H135.312V143.252H137.804V141.533ZM141.202 149.908L144.531 144.611H144.593V149.908H146.827V141.533H144.593L141.265 146.768H141.202V141.533H138.968V149.908H141.202ZM151.859 150.088C154.132 150.088 155.538 149.049 155.538 147.4C155.538 146.471 154.999 145.799 153.984 145.533V145.471C154.765 145.252 155.241 144.572 155.241 143.736C155.241 142.244 154.038 141.354 151.804 141.354C149.757 141.354 148.429 142.377 148.265 144.057H150.413C150.515 143.424 151.023 143.072 151.82 143.072C152.624 143.072 153.023 143.439 153.023 143.986C153.023 144.58 152.609 144.869 151.804 144.869H150.71V146.354H151.866C152.796 146.354 153.265 146.658 153.265 147.314C153.265 147.924 152.765 148.322 151.859 148.322C151.015 148.322 150.476 147.963 150.281 147.252H148.109C148.265 149.025 149.687 150.088 151.859 150.088ZM160.156 148.393C159.382 148.393 158.866 148.002 158.866 147.377C158.866 146.783 159.351 146.4 160.202 146.338L161.968 146.229V146.838C161.968 147.744 161.148 148.393 160.156 148.393ZM159.406 150.041C160.452 150.041 161.491 149.518 161.96 148.627H162.007V149.908H164.21V144.15C164.21 142.463 162.812 141.354 160.663 141.354C158.445 141.354 157.062 142.471 156.976 144.096H159.062C159.171 143.479 159.71 143.057 160.562 143.057C161.421 143.057 161.968 143.51 161.968 144.291V144.846L159.859 144.971C157.773 145.096 156.601 145.979 156.601 147.502C156.601 149.01 157.812 150.041 159.406 150.041ZM172.585 142.979C173.335 142.979 173.757 143.33 173.757 143.939C173.757 144.572 173.304 144.924 172.468 144.924H171.234V142.979H172.585ZM172.585 146.244C173.554 146.244 174.07 146.619 174.07 147.346C174.07 148.072 173.577 148.463 172.687 148.463H171.234V146.244H172.585ZM168.999 149.908H173.273C175.171 149.908 176.359 148.955 176.359 147.486C176.359 146.432 175.585 145.65 174.468 145.518V145.455C175.327 145.322 175.984 144.541 175.984 143.643C175.984 142.322 174.937 141.533 173.195 141.533H168.999V149.908ZM110.984 168.908H113.257V160.533H110.984V163.752H107.765V160.533H105.491V168.908H107.765V165.479H110.984V168.908ZM117.132 168.908L120.46 163.611H120.523V168.908H122.757V160.533H120.523L117.195 165.768H117.132V160.533H114.898V168.908H117.132ZM124.398 168.908H135.89V160.533H133.616V167.182H131.281V160.533H129.007V167.182H126.671V160.533H124.398V168.908ZM141.281 162.041C142.296 162.041 142.991 162.775 143.038 163.846H139.484C139.562 162.799 140.281 162.041 141.281 162.041ZM143.07 166.346C142.859 166.986 142.218 167.4 141.382 167.4C140.218 167.4 139.46 166.58 139.46 165.385V165.244H145.234V164.549C145.234 162.002 143.695 160.354 141.257 160.354C138.781 160.354 137.218 162.088 137.218 164.76C137.218 167.439 138.765 169.088 141.343 169.088C143.413 169.088 144.913 167.986 145.163 166.346H143.07Z" fill="black"/>
</svg>
