<svg width="430" height="576" viewBox="0 0 430 576" fill="none" xmlns="http://www.w3.org/2000/svg">
<path d="M73.69 431.147C36.9895 439.687 -0.844423 431.76 -39.8117 407.366C-78.779 382.972 -121.842 343.117 -169 287.802C-216.15 232.477 -248.679 183.641 -266.587 141.294C-284.496 98.9461 -285.884 59.9575 -270.751 24.3276C-255.632 -11.296 -239.097 -39.0297 -221.146 -58.8734C-203.222 -78.7016 -174.047 -105.84 -133.62 -140.287C-93.235 -174.701 -61.8178 -199.204 -39.368 -213.795C-16.951 -228.348 11.8041 -239.967 46.8975 -248.653C115.251 -264.497 197.33 -216.211 293.135 -103.794C387.439 6.85503 420.609 93.8005 392.645 157.042C378.268 193.528 362.107 221.705 344.163 241.575C326.198 261.422 297.025 288.558 256.644 322.983C216.217 357.437 184.8 381.939 162.392 396.491C139.938 411.082 110.37 422.634 73.69 431.147Z" fill="#222A33"/>
<path d="M52.7691 574.087C42.7435 577.267 32.0396 575.9 20.6574 569.986C9.27526 564.072 -3.59483 553.942 -17.9529 539.594C-32.3046 525.243 -42.4424 512.373 -48.3667 500.984C-54.2909 489.596 -55.5425 478.776 -52.1215 468.526C-48.7069 458.276 -44.721 450.19 -40.1639 444.27C-35.6068 438.35 -28.0897 430.15 -17.6126 419.669C-7.13973 409.196 1.05976 401.679 6.98611 397.117C12.9125 392.556 20.6574 388.683 30.221 385.5C48.8924 379.578 72.8087 391.194 101.97 420.349C130.673 449.052 141.835 472.514 135.455 490.734C132.263 501.211 128.392 509.413 123.841 515.339C119.29 521.265 111.773 529.456 101.29 539.912C90.804 550.398 82.6044 557.914 76.6908 562.461C70.7771 567.007 62.8032 570.883 52.7691 574.087Z" fill="#FF4F45"/>
</svg>
