<svg width="40" height="40" viewBox="0 0 40 40" fill="none" xmlns="http://www.w3.org/2000/svg">
<rect width="40" height="40" rx="20" fill="#4E555C"/>
<path fill-rule="evenodd" clip-rule="evenodd" d="M19.7852 25.374H20.9807C20.9807 25.374 21.3418 25.3343 21.5262 25.1353C21.6959 24.9527 21.6904 24.6097 21.6904 24.6097C21.6904 24.6097 21.6671 23.0039 22.4116 22.7674C23.1455 22.5345 24.0879 24.3194 25.0868 25.0057C25.8421 25.5251 26.4161 25.4112 26.4161 25.4112L29.087 25.374C29.087 25.374 30.4842 25.2878 29.8217 24.1881C29.7674 24.0981 29.4359 23.3746 27.8359 21.8878C26.1612 20.3318 26.3854 20.5835 28.4028 17.8918C29.6314 16.2526 30.1226 15.2518 29.9692 14.8232C29.8228 14.4149 28.9192 14.5228 28.9192 14.5228L25.9119 14.5416C25.9119 14.5416 25.689 14.5111 25.5237 14.6101C25.3621 14.7071 25.2581 14.9332 25.2581 14.9332C25.2581 14.9332 24.7822 16.2017 24.1474 17.2805C22.8082 19.5569 22.2728 19.677 22.054 19.5357C21.5449 19.2062 21.672 18.2123 21.672 17.5061C21.672 15.3002 22.0062 14.3804 21.0211 14.1423C20.6942 14.0632 20.4537 14.011 19.6177 14.0026C18.5447 13.9915 17.6365 14.0059 17.1222 14.2581C16.7801 14.4258 16.5162 14.7995 16.6769 14.821C16.8757 14.8476 17.3258 14.9425 17.5645 15.2678C17.8727 15.6875 17.8618 16.6301 17.8618 16.6301C17.8618 16.6301 18.0388 19.2269 17.4483 19.5495C17.0429 19.7708 16.4869 19.319 15.293 17.2539C14.6813 16.196 14.2195 15.0267 14.2195 15.0267C14.2195 15.0267 14.1304 14.8082 13.9716 14.6913C13.7788 14.5497 13.5094 14.5046 13.5094 14.5046L10.6518 14.5234C10.6518 14.5234 10.2228 14.5353 10.0653 14.7221C9.92519 14.8881 10.0542 15.2317 10.0542 15.2317C10.0542 15.2317 12.2914 20.4715 14.8247 23.112C17.1475 25.533 19.7852 25.374 19.7852 25.374Z" fill="white"/>
</svg>
