<svg width="66" height="50" viewBox="0 0 66 50" fill="none" xmlns="http://www.w3.org/2000/svg">
<path opacity="0.2" d="M12.7822 35H17.1621V13.8623H12.7676L7.30371 17.6562V21.6406L12.6943 17.9199H12.7822V35ZM30.1992 35.4688C35.2822 35.4688 38.7686 32.9492 38.7686 29.2871C38.7686 26.5039 36.7617 24.3506 33.8027 23.8525V23.7646C36.2637 23.1787 37.9043 21.2891 37.9043 18.9893C37.9043 15.7373 34.7402 13.3936 30.1992 13.3936C25.6729 13.3936 22.4795 15.752 22.4795 18.9746C22.4795 21.3037 24.1348 23.1934 26.5957 23.7646V23.8525C23.6514 24.3359 21.6299 26.4893 21.6299 29.2725C21.6299 32.9346 25.0723 35.4688 30.1992 35.4688ZM30.1992 32.2461C27.8701 32.2461 26.2441 30.8545 26.2441 28.9502C26.2441 27.0459 27.8701 25.6543 30.1992 25.6543C32.5283 25.6543 34.1396 27.0459 34.1396 28.9502C34.1396 30.8545 32.5283 32.2461 30.1992 32.2461ZM30.1992 22.4316C28.2363 22.4316 26.8594 21.2012 26.8594 19.5166C26.8594 17.832 28.2363 16.5869 30.1992 16.5869C32.1475 16.5869 33.5391 17.8174 33.5391 19.5166C33.5391 21.2012 32.1475 22.4316 30.1992 22.4316ZM51.6152 28.3936H57.5918V24.6582H51.6152V18.3301H47.7773V24.6582H41.8008V28.3936H47.7773V34.7949H51.6152V28.3936Z" fill="white"/>
<rect x="0.5" y="0.5" width="65" height="49" rx="7.5" stroke="#4E555C"/>
</svg>
