<svg width="626" height="622" viewBox="0 0 626 622" fill="none" xmlns="http://www.w3.org/2000/svg">
<path d="M438.682 208.608C435.853 221.945 427.376 233.209 413.251 242.402C399.126 251.594 379.231 259.825 353.564 267.096C327.882 274.376 306.615 277.812 289.765 277.404C272.914 276.997 259.722 271.657 250.187 261.386C240.674 251.123 234 241.563 230.167 232.706C226.334 223.85 221.811 210.22 216.599 191.816C211.385 173.422 208.084 159.448 206.694 149.895C205.304 140.341 205.878 129.155 208.415 116.335C213.699 91.4953 242.43 71.6804 294.61 56.89C345.979 42.3293 380.022 44.3506 396.739 62.9538C406.655 73.1255 413.534 82.6294 417.375 91.4655C421.216 100.302 425.739 113.932 430.943 132.356C436.163 150.771 439.465 164.745 440.849 174.277C442.232 183.81 441.51 195.254 438.682 208.608Z" fill="#222A33"/>
<g filter="url(#filter0_d)">
<path d="M404.915 363.575C390.783 376.374 371.947 382.197 348.407 381.045C324.866 379.893 295.572 372.924 260.523 360.138C225.45 347.35 198.531 333.823 179.765 319.557C161 305.29 150.421 288.431 148.028 268.978C145.653 249.551 145.92 233.248 148.831 220.07C151.742 206.892 157.781 187.738 166.951 162.608C176.11 137.487 183.815 118.944 190.066 106.977C196.317 95.0099 206.132 82.8005 219.51 70.3484C245.848 46.5225 294.646 47.6005 365.906 73.5825C436.059 99.1608 472.989 129.34 476.697 164.121C479.604 183.774 479.615 200.182 476.73 213.344C473.845 226.506 467.805 245.66 458.611 270.806C449.441 295.955 441.736 314.499 435.495 326.437C429.255 338.376 419.061 350.755 404.915 363.575Z" fill="white"/>
</g>
<path d="M277.811 206C280.818 206 282.684 204.447 282.684 201.967C282.684 200.102 281.277 198.705 279.363 198.559V198.48C280.857 198.256 282.01 196.967 282.01 195.424C282.01 193.266 280.35 191.908 277.703 191.908H271.57V206H277.811ZM274.52 194.105H276.941C278.318 194.105 279.109 194.75 279.109 195.883C279.109 197.074 278.211 197.768 276.639 197.768H274.52V194.105ZM274.52 203.803V199.711H276.99C278.729 199.711 279.676 200.414 279.676 201.732C279.676 203.08 278.758 203.803 277.059 203.803H274.52ZM294.275 206H297.117V195.531H294.275V206ZM288.729 200.658C289.754 200.658 290.428 201.303 290.428 202.26C290.428 203.217 289.764 203.871 288.729 203.871H287.156V200.658H288.729ZM284.314 206H289.197C291.668 206 293.25 204.555 293.25 202.279C293.25 200.004 291.668 198.559 289.197 198.559H287.156V195.531H284.314V206ZM308.582 199.105C308.309 196.908 306.57 195.307 303.875 195.307C300.75 195.307 298.768 197.416 298.768 200.756C298.768 204.154 300.75 206.225 303.895 206.225C306.551 206.225 308.338 204.74 308.592 202.426H305.936C305.691 203.412 304.988 203.988 303.924 203.988C302.508 203.988 301.639 202.797 301.639 200.756C301.639 198.754 302.508 197.543 303.914 197.543C304.998 197.543 305.682 198.197 305.916 199.105H308.582ZM314.979 206.225C318.143 206.225 320.164 204.203 320.164 200.756C320.164 197.357 318.113 195.307 314.979 195.307C311.844 195.307 309.793 197.367 309.793 200.756C309.793 204.193 311.814 206.225 314.979 206.225ZM314.979 204.047C313.572 204.047 312.684 202.865 312.684 200.766C312.684 198.686 313.592 197.484 314.979 197.484C316.365 197.484 317.264 198.686 317.264 200.766C317.264 202.865 316.375 204.047 314.979 204.047ZM327.293 200.375L331.473 195.531H328.211L324.734 199.74H324.656V195.531H321.814V206H324.656V201.508H324.734L328.27 206H331.717L327.293 200.375ZM336.736 204.105C335.77 204.105 335.125 203.617 335.125 202.836C335.125 202.094 335.73 201.615 336.795 201.537L339.002 201.4V202.162C339.002 203.295 337.977 204.105 336.736 204.105ZM335.799 206.166C337.107 206.166 338.406 205.512 338.992 204.398H339.051V206H341.805V198.803C341.805 196.693 340.057 195.307 337.371 195.307C334.598 195.307 332.869 196.703 332.762 198.734H335.369C335.506 197.963 336.18 197.436 337.244 197.436C338.318 197.436 339.002 198.002 339.002 198.979V199.672L336.365 199.828C333.758 199.984 332.293 201.088 332.293 202.992C332.293 204.877 333.807 206.166 335.799 206.166ZM348.172 200.619C347.176 200.619 346.531 200.014 346.531 199.174C346.531 198.246 347.166 197.65 348.172 197.65H349.881V200.619H348.172ZM349.881 206H352.664V195.531H347.889C345.35 195.531 343.699 196.938 343.699 199.164C343.699 200.668 344.578 201.742 346.004 202.191L343.25 206H346.414L348.738 202.621H349.881V206ZM283.27 230V222.998H283.338L286.043 229.414H288.016L290.73 222.998H290.799V230H293.475V219.531H289.822L287.088 226.367H287.02L284.285 219.531H280.594V230H283.27ZM299.578 228.105C298.611 228.105 297.967 227.617 297.967 226.836C297.967 226.094 298.572 225.615 299.637 225.537L301.844 225.4V226.162C301.844 227.295 300.818 228.105 299.578 228.105ZM298.641 230.166C299.949 230.166 301.248 229.512 301.834 228.398H301.893V230H304.646V222.803C304.646 220.693 302.898 219.307 300.213 219.307C297.439 219.307 295.711 220.703 295.604 222.734H298.211C298.348 221.963 299.021 221.436 300.086 221.436C301.16 221.436 301.844 222.002 301.844 222.979V223.672L299.207 223.828C296.6 223.984 295.135 225.088 295.135 226.992C295.135 228.877 296.648 230.166 298.641 230.166ZM312.781 219.365C311.268 219.365 310.105 220.127 309.539 221.357H309.48V219.531H306.668V233.418H309.52V228.242H309.578C310.135 229.424 311.307 230.166 312.83 230.166C315.447 230.166 317.068 228.135 317.068 224.766C317.068 221.387 315.438 219.365 312.781 219.365ZM311.824 227.871C310.428 227.871 309.51 226.66 309.51 224.766C309.51 222.891 310.428 221.65 311.824 221.65C313.25 221.65 314.148 222.871 314.148 224.766C314.148 226.67 313.25 227.871 311.824 227.871ZM329.432 224.404L333.24 219.531H329.998L326.863 223.74H326.785V219.531H323.973V223.74H323.904L320.76 219.531H317.488L321.336 224.453L317.352 230H320.701L323.904 225.508H323.973V230H326.785V225.508H326.863L330.057 230H333.445L329.432 224.404ZM338.367 228.105C337.4 228.105 336.756 227.617 336.756 226.836C336.756 226.094 337.361 225.615 338.426 225.537L340.633 225.4V226.162C340.633 227.295 339.607 228.105 338.367 228.105ZM337.43 230.166C338.738 230.166 340.037 229.512 340.623 228.398H340.682V230H343.436V222.803C343.436 220.693 341.688 219.307 339.002 219.307C336.229 219.307 334.5 220.703 334.393 222.734H337C337.137 221.963 337.811 221.436 338.875 221.436C339.949 221.436 340.633 222.002 340.633 222.979V223.672L337.996 223.828C335.389 223.984 333.924 225.088 333.924 226.992C333.924 228.877 335.438 230.166 337.43 230.166Z" fill="#222A33"/>
<path opacity="0.7" d="M223.25 275V263.727H221.844V268.602H215.656V263.727H214.25V275H215.656V269.867H221.844V275H223.25ZM228.062 273.984C227.086 273.984 226.438 273.477 226.438 272.703C226.438 271.938 227.062 271.453 228.156 271.383L230.328 271.25V271.914C230.328 273.086 229.344 273.984 228.062 273.984ZM227.758 275.141C228.852 275.141 229.883 274.531 230.367 273.602H230.398V275H231.688V269.383C231.688 267.766 230.484 266.734 228.578 266.734C226.656 266.734 225.453 267.812 225.359 269.219H226.672C226.844 268.422 227.5 267.93 228.547 267.93C229.672 267.93 230.328 268.523 230.328 269.516V270.195L228 270.328C226.125 270.438 225.055 271.312 225.055 272.703C225.055 274.164 226.141 275.141 227.758 275.141ZM241.406 277.148V273.883H240.109V266.875H238.766V273.883H234.906V266.875H233.562V275H240.141V277.148H241.406ZM245.891 267.914C247.172 267.914 248.023 268.883 248.055 270.242H243.641C243.727 268.891 244.617 267.914 245.891 267.914ZM248.023 272.672C247.797 273.438 247.039 273.961 246.008 273.961C244.547 273.961 243.633 272.938 243.633 271.383V271.305H249.461V270.789C249.461 268.328 248.109 266.734 245.914 266.734C243.672 266.734 242.234 268.445 242.234 270.969C242.234 273.523 243.648 275.141 245.977 275.141C247.75 275.141 249.125 274.094 249.359 272.672H248.023ZM256.32 275H257.664V266.875H256.32V270.227H252.312V266.875H250.969V275H252.312V271.344H256.32V275ZM262.336 270.719L266.133 266.875H264.453L260.984 270.469H260.922V266.875H259.578V275H260.922V271.094H260.984L264.492 275H266.242L262.336 270.719ZM269.828 273.984C268.852 273.984 268.203 273.477 268.203 272.703C268.203 271.938 268.828 271.453 269.922 271.383L272.094 271.25V271.914C272.094 273.086 271.109 273.984 269.828 273.984ZM269.523 275.141C270.617 275.141 271.648 274.531 272.133 273.602H272.164V275H273.453V269.383C273.453 267.766 272.25 266.734 270.344 266.734C268.422 266.734 267.219 267.812 267.125 269.219H268.438C268.609 268.422 269.266 267.93 270.312 267.93C271.438 267.93 272.094 268.523 272.094 269.516V270.195L269.766 270.328C267.891 270.438 266.82 271.312 266.82 272.703C266.82 274.164 267.906 275.141 269.523 275.141ZM281.984 275.141C284.227 275.141 285.742 273.523 285.742 270.938C285.742 268.344 284.227 266.734 281.984 266.734C279.734 266.734 278.219 268.344 278.219 270.938C278.219 273.523 279.734 275.141 281.984 275.141ZM281.984 273.945C280.547 273.945 279.602 272.852 279.602 270.938C279.602 269.023 280.547 267.93 281.984 267.93C283.422 267.93 284.359 269.023 284.359 270.938C284.359 272.852 283.422 273.945 281.984 273.945ZM292.883 266.875H286.289V267.992H288.914V275H290.258V267.992H292.883V266.875ZM299.68 269.797H301.094C302.703 269.797 303.703 270.617 303.703 271.945C303.703 273.125 302.633 273.969 301.141 273.969C299.625 273.969 298.664 273.172 298.539 272.016H297.188C297.289 273.883 298.797 275.188 301.156 275.188C303.367 275.188 305.133 273.836 305.133 271.898C305.133 270.312 304.039 269.258 302.336 269.156V269.125C303.742 268.875 304.648 267.859 304.648 266.445C304.648 264.75 303.125 263.539 301.109 263.539C298.992 263.539 297.57 264.766 297.414 266.68H298.766C298.891 265.5 299.75 264.758 301.047 264.758C302.477 264.758 303.234 265.516 303.234 266.633C303.234 267.773 302.328 268.609 301.031 268.609H299.68V269.797ZM310.727 275.188C313.078 275.188 314.742 273.602 314.742 271.336C314.742 269.148 313.18 267.562 311.016 267.562C309.938 267.562 309 267.969 308.492 268.648H308.461L308.805 264.977H314.102V263.727H307.648L307.031 270.039H308.352C308.812 269.25 309.711 268.773 310.766 268.773C312.266 268.773 313.336 269.859 313.336 271.375C313.336 272.891 312.273 273.953 310.742 273.953C309.391 273.953 308.367 273.125 308.242 271.922H306.859C306.977 273.844 308.57 275.188 310.727 275.188ZM320.156 275.188C322.781 275.188 324.297 272.914 324.297 269.352C324.297 265.812 322.773 263.539 320.156 263.539C317.539 263.539 316 265.828 316 269.359C316 272.922 317.523 275.188 320.156 275.188ZM320.156 273.961C318.391 273.961 317.414 272.164 317.414 269.352C317.414 266.602 318.414 264.773 320.156 264.773C321.898 264.773 322.883 266.586 322.883 269.359C322.883 272.172 321.914 273.961 320.156 273.961ZM330.125 266.391C330.125 264.688 329.188 263.586 327.758 263.586C326.328 263.586 325.391 264.688 325.391 266.391C325.391 268.094 326.328 269.195 327.758 269.195C329.188 269.195 330.125 268.094 330.125 266.391ZM327.758 268.242C327.07 268.242 326.641 267.539 326.641 266.391C326.641 265.242 327.07 264.539 327.758 264.539C328.445 264.539 328.875 265.242 328.875 266.391C328.875 267.539 328.445 268.242 327.758 268.242ZM327.414 275L331.414 269.523L335.648 263.727H334.305L330.406 269.055L326.055 275H327.414ZM336.32 272.312C336.32 270.609 335.383 269.508 333.953 269.508C332.523 269.508 331.586 270.609 331.586 272.312C331.586 274.016 332.523 275.117 333.953 275.117C335.383 275.117 336.32 274.016 336.32 272.312ZM333.953 274.164C333.266 274.164 332.836 273.461 332.836 272.312C332.836 271.164 333.266 270.461 333.953 270.461C334.641 270.461 335.07 271.164 335.07 272.312C335.07 273.461 334.641 274.164 333.953 274.164ZM346.289 275H347.633V266.875H346.289V270.227H342.281V266.875H340.938V275H342.281V271.344H346.289V275ZM352.234 273.984C351.258 273.984 350.609 273.477 350.609 272.703C350.609 271.938 351.234 271.453 352.328 271.383L354.5 271.25V271.914C354.5 273.086 353.516 273.984 352.234 273.984ZM351.93 275.141C353.023 275.141 354.055 274.531 354.539 273.602H354.57V275H355.859V269.383C355.859 267.766 354.656 266.734 352.75 266.734C350.828 266.734 349.625 267.812 349.531 269.219H350.844C351.016 268.422 351.672 267.93 352.719 267.93C353.844 267.93 354.5 268.523 354.5 269.516V270.195L352.172 270.328C350.297 270.438 349.227 271.312 349.227 272.703C349.227 274.164 350.312 275.141 351.93 275.141ZM366.961 266.875H360.367V267.992H362.992V275H364.336V267.992H366.961V266.875ZM371.438 275.141C373.68 275.141 375.195 273.523 375.195 270.938C375.195 268.344 373.68 266.734 371.438 266.734C369.188 266.734 367.672 268.344 367.672 270.938C367.672 273.523 369.188 275.141 371.438 275.141ZM371.438 273.945C370 273.945 369.055 272.852 369.055 270.938C369.055 269.023 370 267.93 371.438 267.93C372.875 267.93 373.812 269.023 373.812 270.938C373.812 272.852 372.875 273.945 371.438 273.945ZM379.992 267.977C380.844 267.977 381.305 268.375 381.305 269.094C381.305 269.875 380.812 270.25 379.789 270.25H378.047V267.977H379.992ZM379.898 271.344C381.086 271.344 381.656 271.766 381.656 272.633C381.656 273.453 381.125 273.898 380.141 273.898H378.047V271.344H379.898ZM376.703 275H380.203C381.93 275 382.992 274.102 382.992 272.664C382.992 271.648 382.32 270.906 381.297 270.766V270.703C382.047 270.547 382.633 269.781 382.633 268.953C382.633 267.664 381.703 266.875 380.18 266.875H376.703V275ZM387.234 273.984C386.258 273.984 385.609 273.477 385.609 272.703C385.609 271.938 386.234 271.453 387.328 271.383L389.5 271.25V271.914C389.5 273.086 388.516 273.984 387.234 273.984ZM386.93 275.141C388.023 275.141 389.055 274.531 389.539 273.602H389.57V275H390.859V269.383C390.859 267.766 389.656 266.734 387.75 266.734C385.828 266.734 384.625 267.812 384.531 269.219H385.844C386.016 268.422 386.672 267.93 387.719 267.93C388.844 267.93 389.5 268.523 389.5 269.516V270.195L387.172 270.328C385.297 270.438 384.227 271.312 384.227 272.703C384.227 274.164 385.312 275.141 386.93 275.141ZM396.688 266.734C395.508 266.734 394.562 267.336 394.062 268.25H394.031V266.875H392.742V277.711H394.102V273.68H394.133C394.617 274.57 395.555 275.141 396.719 275.141C398.766 275.141 400.164 273.484 400.164 270.938C400.164 268.391 398.758 266.734 396.688 266.734ZM396.422 273.945C395.031 273.945 394.094 272.75 394.094 270.938C394.094 269.133 395.031 267.93 396.422 267.93C397.867 267.93 398.773 269.102 398.773 270.938C398.773 272.781 397.867 273.945 396.422 273.945ZM408.625 275H409.969V266.875H408.625V275ZM404.531 270.586C405.578 270.586 406.266 271.234 406.266 272.234C406.266 273.227 405.586 273.883 404.531 273.883H403.016V270.586H404.531ZM401.672 275H404.555C406.414 275 407.609 273.93 407.609 272.234C407.609 270.539 406.414 269.469 404.555 269.469H403.016V266.875H401.672V275ZM232.945 294H234.289V285.875H232.945V289.227H228.938V285.875H227.594V294H228.938V290.344H232.945V294ZM238.891 292.984C237.914 292.984 237.266 292.477 237.266 291.703C237.266 290.938 237.891 290.453 238.984 290.383L241.156 290.25V290.914C241.156 292.086 240.172 292.984 238.891 292.984ZM238.586 294.141C239.68 294.141 240.711 293.531 241.195 292.602H241.227V294H242.516V288.383C242.516 286.766 241.312 285.734 239.406 285.734C237.484 285.734 236.281 286.812 236.188 288.219H237.5C237.672 287.422 238.328 286.93 239.375 286.93C240.5 286.93 241.156 287.523 241.156 288.516V289.195L238.828 289.328C236.953 289.438 235.883 290.312 235.883 291.703C235.883 293.164 236.969 294.141 238.586 294.141ZM248.344 285.734C247.164 285.734 246.219 286.336 245.719 287.25H245.688V285.875H244.398V296.711H245.758V292.68H245.789C246.273 293.57 247.211 294.141 248.375 294.141C250.422 294.141 251.82 292.484 251.82 289.938C251.82 287.391 250.414 285.734 248.344 285.734ZM248.078 292.945C246.688 292.945 245.75 291.75 245.75 289.938C245.75 288.133 246.688 286.93 248.078 286.93C249.523 286.93 250.43 288.102 250.43 289.938C250.43 291.781 249.523 292.945 248.078 292.945ZM256.703 294.141C258.945 294.141 260.461 292.523 260.461 289.938C260.461 287.344 258.945 285.734 256.703 285.734C254.453 285.734 252.938 287.344 252.938 289.938C252.938 292.523 254.453 294.141 256.703 294.141ZM256.703 292.945C255.266 292.945 254.32 291.852 254.32 289.938C254.32 288.023 255.266 286.93 256.703 286.93C258.141 286.93 259.078 288.023 259.078 289.938C259.078 291.852 258.141 292.945 256.703 292.945ZM267.203 292.883H263.242V292.82C263.625 292.305 263.836 291.422 263.906 290.414L264.156 286.992H267.203V292.883ZM262.273 296.148V294H268.578V296.148H269.844V292.883H268.555V285.875H262.961L262.648 290.383C262.57 291.477 262.281 292.492 261.688 292.883H261.008V296.148H262.273ZM276.414 294H277.758V285.875H276.414V289.227H272.406V285.875H271.062V294H272.406V290.344H276.414V294ZM283.047 294.141C285.289 294.141 286.805 292.523 286.805 289.938C286.805 287.344 285.289 285.734 283.047 285.734C280.797 285.734 279.281 287.344 279.281 289.938C279.281 292.523 280.797 294.141 283.047 294.141ZM283.047 292.945C281.609 292.945 280.664 291.852 280.664 289.938C280.664 288.023 281.609 286.93 283.047 286.93C284.484 286.93 285.422 288.023 285.422 289.938C285.422 291.852 284.484 292.945 283.047 292.945ZM293.539 286.992V285.875H288.312V294H289.656V286.992H293.539ZM298.078 294.141C300.32 294.141 301.836 292.523 301.836 289.938C301.836 287.344 300.32 285.734 298.078 285.734C295.828 285.734 294.312 287.344 294.312 289.938C294.312 292.523 295.828 294.141 298.078 294.141ZM298.078 292.945C296.641 292.945 295.695 291.852 295.695 289.938C295.695 288.023 296.641 286.93 298.078 286.93C299.516 286.93 300.453 288.023 300.453 289.938C300.453 291.852 299.516 292.945 298.078 292.945ZM311.898 294H313.25V285.875H306.625V294H307.969V286.992H311.898V294ZM318.531 294.141C320.773 294.141 322.289 292.523 322.289 289.938C322.289 287.344 320.773 285.734 318.531 285.734C316.281 285.734 314.766 287.344 314.766 289.938C314.766 292.523 316.281 294.141 318.531 294.141ZM318.531 292.945C317.094 292.945 316.148 291.852 316.148 289.938C316.148 288.023 317.094 286.93 318.531 286.93C319.969 286.93 320.906 288.023 320.906 289.938C320.906 291.852 319.969 292.945 318.531 292.945ZM329.43 285.875H322.836V286.992H325.461V294H326.805V286.992H329.43V285.875ZM334.641 285.734C333.461 285.734 332.516 286.336 332.016 287.25H331.984V285.875H330.695V296.711H332.055V292.68H332.086C332.57 293.57 333.508 294.141 334.672 294.141C336.719 294.141 338.117 292.484 338.117 289.938C338.117 287.391 336.711 285.734 334.641 285.734ZM334.375 292.945C332.984 292.945 332.047 291.75 332.047 289.938C332.047 288.133 332.984 286.93 334.375 286.93C335.82 286.93 336.727 288.102 336.727 289.938C336.727 291.781 335.82 292.945 334.375 292.945ZM342.891 286.914C344.172 286.914 345.023 287.883 345.055 289.242H340.641C340.727 287.891 341.617 286.914 342.891 286.914ZM345.023 291.672C344.797 292.438 344.039 292.961 343.008 292.961C341.547 292.961 340.633 291.938 340.633 290.383V290.305H346.461V289.789C346.461 287.328 345.109 285.734 342.914 285.734C340.672 285.734 339.234 287.445 339.234 289.969C339.234 292.523 340.648 294.141 342.977 294.141C344.75 294.141 346.125 293.094 346.359 291.672H345.023ZM351.453 294.141C353.805 294.141 355.25 292.57 355.25 290.016C355.25 287.594 353.852 286.047 351.656 286.047C350.406 286.047 349.391 286.547 348.859 287.508H348.797C349.125 285.078 349.797 284.086 352.055 284L352.656 283.977C353.594 283.938 354.453 283.734 354.711 283.5V282.312C354.25 282.555 353.375 282.711 352.594 282.75L351.992 282.773C348.836 282.891 347.648 284.758 347.648 289.242C347.648 292.469 348.961 294.141 351.453 294.141ZM351.453 292.938C349.922 292.938 349.039 291.883 349.039 290.016C349.039 288.242 349.922 287.234 351.453 287.234C352.977 287.234 353.859 288.242 353.859 290.016C353.859 291.883 352.977 292.938 351.453 292.938ZM358.625 290.414L358.875 286.992H361.641V294H362.984V285.875H357.664L357.352 290.383C357.25 291.875 356.945 292.82 356.141 292.82C355.945 292.82 355.797 292.781 355.727 292.758V293.984C355.82 294.023 355.977 294.07 356.211 294.07C357.922 294.07 358.461 292.656 358.625 290.414ZM368.172 286.914C369.453 286.914 370.305 287.883 370.336 289.242H365.922C366.008 287.891 366.898 286.914 368.172 286.914ZM370.305 291.672C370.078 292.438 369.32 292.961 368.289 292.961C366.828 292.961 365.914 291.938 365.914 290.383V290.305H371.742V289.789C371.742 287.328 370.391 285.734 368.195 285.734C365.953 285.734 364.516 287.445 364.516 289.969C364.516 292.523 365.93 294.141 368.258 294.141C370.031 294.141 371.406 293.094 371.641 291.672H370.305ZM378.602 294H379.945V285.875H378.602V289.227H374.594V285.875H373.25V294H374.594V290.344H378.602V294ZM383.203 294L387.266 287.953H387.328V294H388.672V285.875H387.328L383.266 291.922H383.203V285.875H381.859V294H383.203ZM393.5 289.992C392.453 289.992 391.773 289.391 391.773 288.547C391.773 287.57 392.445 286.992 393.5 286.992H395.055V289.992H393.5ZM395.055 294H396.398V285.875H393.492C391.625 285.875 390.422 286.898 390.422 288.57C390.422 289.688 391.117 290.531 392.266 290.859L390 294H391.555L393.617 291.109H395.055V294Z" fill="#222A33"/>
<path d="M339.67 144.281C338.936 147.508 336.839 150.213 333.379 152.395C329.918 154.577 325.059 156.505 318.804 158.181C312.544 159.858 307.37 160.618 303.281 160.46C299.192 160.302 296.008 158.96 293.73 156.433C291.456 153.908 289.87 151.564 288.97 149.401C288.071 147.238 287.021 143.914 285.82 139.428C284.618 134.945 283.866 131.541 283.562 129.217C283.258 126.893 283.436 124.18 284.097 121.077C285.467 115.066 292.51 110.356 305.228 106.949C317.748 103.594 326.005 104.203 329.998 108.778C332.37 111.281 334.006 113.613 334.908 115.771C335.809 117.929 336.859 121.254 338.058 125.744C339.261 130.232 340.013 133.636 340.316 135.955C340.618 138.274 340.403 141.049 339.67 144.281Z" fill="#BDF3E9"/>
<path d="M323.5 124L307.692 141.5L301 134.907" stroke="#1AD8B4" stroke-width="5" stroke-linecap="round" stroke-linejoin="round"/>
<defs>
<filter id="filter0_d" x="0.359863" y="-0.000244141" width="624.845" height="621.406" filterUnits="userSpaceOnUse" color-interpolation-filters="sRGB">
<feFlood flood-opacity="0" result="BackgroundImageFix"/>
<feColorMatrix in="SourceAlpha" type="matrix" values="0 0 0 0 0 0 0 0 0 0 0 0 0 0 0 0 0 0 127 0"/>
<feOffset dy="94"/>
<feGaussianBlur stdDeviation="57"/>
<feColorMatrix type="matrix" values="0 0 0 0 0.475983 0 0 0 0 0.475983 0 0 0 0 0.475983 0 0 0 0.1 0"/>
<feBlend mode="normal" in2="BackgroundImageFix" result="effect1_dropShadow"/>
<feBlend mode="normal" in="SourceGraphic" in2="effect1_dropShadow" result="shape"/>
</filter>
</defs>
</svg>
