<svg width="274" height="272" viewBox="0 0 274 272" fill="none" xmlns="http://www.w3.org/2000/svg">
<path d="M251.682 182.608C248.853 195.945 240.376 207.209 226.251 216.402C212.126 225.594 192.231 233.825 166.564 241.096C140.882 248.376 119.615 251.812 102.765 251.404C85.914 250.997 72.7216 245.657 63.1874 235.386C53.6736 225.123 47.0001 215.563 43.167 206.706C39.3339 197.85 34.8113 184.22 29.5993 165.816C24.3853 147.422 21.0835 133.448 19.6938 123.895C18.304 114.341 18.8779 103.155 21.4153 90.3347C26.6989 65.4953 55.4304 45.6804 107.61 30.89C158.979 16.3293 193.022 18.3506 209.739 36.9538C219.655 47.1255 226.534 56.6294 230.375 65.4655C234.216 74.3017 238.739 87.9318 243.943 106.356C249.163 124.771 252.465 138.745 253.849 148.277C255.232 157.81 254.51 169.254 251.682 182.608Z" fill="#222A33"/>
</svg>
