<svg width="320" height="623" viewBox="0 0 320 623" fill="none" xmlns="http://www.w3.org/2000/svg">
<path d="M286.322 209.603C283.493 222.94 275.016 234.204 260.891 243.396C246.766 252.589 226.871 260.82 201.204 268.091C175.522 275.371 154.255 278.807 137.405 278.399C120.554 277.991 107.362 272.652 97.8275 262.381C88.3137 252.117 81.6403 242.558 77.8072 233.701C73.9741 224.845 69.4515 211.215 64.2394 192.811C59.0255 174.417 55.7236 160.443 54.3339 150.889C52.9441 141.336 53.518 130.149 56.0555 117.33C61.339 92.4902 90.0705 72.6753 142.25 57.8849C193.619 43.3242 227.662 45.3455 244.379 63.9487C254.296 74.1203 261.174 83.6242 265.015 92.4604C268.857 101.297 273.379 114.927 278.583 133.351C283.803 151.766 287.105 165.74 288.489 175.272C289.873 184.805 289.15 196.248 286.322 209.603Z" fill="#222A33"/>
<g filter="url(#filter0_d)">
<path d="M252.555 364.569C238.423 377.369 219.587 383.192 196.047 382.04C172.506 380.887 143.212 373.919 108.163 361.133C73.0899 348.345 46.1705 334.818 27.4051 320.551C8.63968 306.285 -1.93923 289.426 -4.33162 269.973C-6.70714 250.546 -6.4396 234.243 -3.529 221.065C-0.61839 207.887 5.42145 188.732 14.5905 163.603C23.7497 138.482 31.4548 119.939 37.7059 107.972C43.957 96.0048 53.7717 83.7953 67.1501 71.3433C93.4876 47.5174 142.286 48.5954 213.546 74.5774C283.699 100.156 320.629 130.335 324.337 165.116C327.244 184.769 327.255 201.177 324.37 214.339C321.485 227.501 315.445 246.655 306.251 271.801C297.081 296.95 289.376 315.493 283.135 327.432C276.895 339.371 266.701 351.75 252.555 364.569Z" fill="white"/>
</g>
<path d="M132.289 202.995C134.695 202.995 136.187 201.752 136.187 199.768C136.187 198.276 135.062 197.159 133.531 197.042V196.979C134.726 196.799 135.648 195.768 135.648 194.534C135.648 192.807 134.32 191.721 132.203 191.721H127.296V202.995H132.289ZM129.656 193.479H131.593C132.695 193.479 133.328 193.995 133.328 194.901C133.328 195.854 132.609 196.409 131.351 196.409H129.656V193.479ZM129.656 201.237V197.963H131.632C133.023 197.963 133.781 198.526 133.781 199.581C133.781 200.659 133.046 201.237 131.687 201.237H129.656ZM145.46 202.995H147.734V194.62H145.46V202.995ZM141.023 198.721C141.843 198.721 142.382 199.237 142.382 200.002C142.382 200.768 141.851 201.292 141.023 201.292H139.765V198.721H141.023ZM137.492 202.995H141.398C143.375 202.995 144.64 201.838 144.64 200.018C144.64 198.198 143.375 197.042 141.398 197.042H139.765V194.62H137.492V202.995ZM156.906 197.479C156.687 195.721 155.296 194.44 153.14 194.44C150.64 194.44 149.054 196.127 149.054 198.799C149.054 201.518 150.64 203.174 153.156 203.174C155.281 203.174 156.71 201.987 156.914 200.135H154.789C154.593 200.924 154.031 201.385 153.179 201.385C152.046 201.385 151.351 200.432 151.351 198.799C151.351 197.198 152.046 196.229 153.171 196.229C154.039 196.229 154.585 196.752 154.773 197.479H156.906ZM162.023 203.174C164.554 203.174 166.171 201.557 166.171 198.799C166.171 196.081 164.531 194.44 162.023 194.44C159.515 194.44 157.875 196.088 157.875 198.799C157.875 201.549 159.492 203.174 162.023 203.174ZM162.023 201.432C160.898 201.432 160.187 200.487 160.187 198.807C160.187 197.143 160.914 196.182 162.023 196.182C163.132 196.182 163.851 197.143 163.851 198.807C163.851 200.487 163.14 201.432 162.023 201.432ZM171.875 198.495L175.218 194.62H172.609L169.828 197.987H169.765V194.62H167.492V202.995H169.765V199.401H169.828L172.656 202.995H175.414L171.875 198.495ZM179.429 201.479C178.656 201.479 178.14 201.088 178.14 200.463C178.14 199.87 178.625 199.487 179.476 199.424L181.242 199.315V199.924C181.242 200.831 180.421 201.479 179.429 201.479ZM178.679 203.127C179.726 203.127 180.765 202.604 181.234 201.713H181.281V202.995H183.484V197.237C183.484 195.549 182.085 194.44 179.937 194.44C177.718 194.44 176.335 195.557 176.25 197.182H178.335C178.445 196.565 178.984 196.143 179.835 196.143C180.695 196.143 181.242 196.596 181.242 197.377V197.932L179.132 198.057C177.046 198.182 175.875 199.065 175.875 200.588C175.875 202.096 177.085 203.127 178.679 203.127ZM188.578 198.69C187.781 198.69 187.265 198.206 187.265 197.534C187.265 196.792 187.773 196.315 188.578 196.315H189.945V198.69H188.578ZM189.945 202.995H192.171V194.62H188.351C186.32 194.62 185 195.745 185 197.526C185 198.729 185.703 199.588 186.843 199.948L184.64 202.995H187.171L189.031 200.292H189.945V202.995ZM136.656 221.995V216.393H136.71L138.875 221.526H140.453L142.625 216.393H142.679V221.995H144.82V213.62H141.898L139.71 219.088H139.656L137.468 213.62H134.515V221.995H136.656ZM149.703 220.479C148.929 220.479 148.414 220.088 148.414 219.463C148.414 218.87 148.898 218.487 149.75 218.424L151.515 218.315V218.924C151.515 219.831 150.695 220.479 149.703 220.479ZM148.953 222.127C150 222.127 151.039 221.604 151.507 220.713H151.554V221.995H153.757V216.237C153.757 214.549 152.359 213.44 150.21 213.44C147.992 213.44 146.609 214.557 146.523 216.182H148.609C148.718 215.565 149.257 215.143 150.109 215.143C150.968 215.143 151.515 215.596 151.515 216.377V216.932L149.406 217.057C147.32 217.182 146.148 218.065 146.148 219.588C146.148 221.096 147.359 222.127 148.953 222.127ZM160.265 213.487C159.054 213.487 158.125 214.096 157.671 215.081H157.625V213.62H155.375V224.729H157.656V220.588H157.703C158.148 221.534 159.085 222.127 160.304 222.127C162.398 222.127 163.695 220.502 163.695 217.807C163.695 215.104 162.39 213.487 160.265 213.487ZM159.5 220.292C158.382 220.292 157.648 219.323 157.648 217.807C157.648 216.307 158.382 215.315 159.5 215.315C160.64 215.315 161.359 216.292 161.359 217.807C161.359 219.331 160.64 220.292 159.5 220.292ZM173.585 217.518L176.632 213.62H174.039L171.531 216.987H171.468V213.62H169.218V216.987H169.164L166.648 213.62H164.031L167.109 217.557L163.921 221.995H166.601L169.164 218.401H169.218V221.995H171.468V218.401H171.531L174.085 221.995H176.796L173.585 217.518ZM180.734 220.479C179.96 220.479 179.445 220.088 179.445 219.463C179.445 218.87 179.929 218.487 180.781 218.424L182.546 218.315V218.924C182.546 219.831 181.726 220.479 180.734 220.479ZM179.984 222.127C181.031 222.127 182.07 221.604 182.539 220.713H182.585V221.995H184.789V216.237C184.789 214.549 183.39 213.44 181.242 213.44C179.023 213.44 177.64 214.557 177.554 216.182H179.64C179.75 215.565 180.289 215.143 181.14 215.143C182 215.143 182.546 215.596 182.546 216.377V216.932L180.437 217.057C178.351 217.182 177.179 218.065 177.179 219.588C177.179 221.096 178.39 222.127 179.984 222.127Z" fill="#222A33"/>
<path opacity="0.7" d="M81.8438 260V250.136H80.6133V254.401H75.1992V250.136H73.9688V260H75.1992V255.509H80.6133V260H81.8438ZM86.0547 259.111C85.2002 259.111 84.6328 258.667 84.6328 257.99C84.6328 257.32 85.1797 256.896 86.1367 256.835L88.0371 256.719V257.3C88.0371 258.325 87.1758 259.111 86.0547 259.111ZM85.7881 260.123C86.7451 260.123 87.6475 259.59 88.0713 258.776H88.0986V260H89.2266V255.085C89.2266 253.67 88.1738 252.768 86.5059 252.768C84.8242 252.768 83.7715 253.711 83.6895 254.941H84.8379C84.9883 254.244 85.5625 253.813 86.4785 253.813C87.4629 253.813 88.0371 254.333 88.0371 255.201V255.796L86 255.912C84.3594 256.008 83.4229 256.773 83.4229 257.99C83.4229 259.269 84.373 260.123 85.7881 260.123ZM97.7305 261.88V259.022H96.5957V252.891H95.4199V259.022H92.043V252.891H90.8672V260H96.623V261.88H97.7305ZM101.654 253.8C102.775 253.8 103.521 254.647 103.548 255.837H99.6855C99.7607 254.654 100.54 253.8 101.654 253.8ZM103.521 257.963C103.322 258.633 102.659 259.091 101.757 259.091C100.479 259.091 99.6787 258.195 99.6787 256.835V256.767H104.778V256.315C104.778 254.162 103.596 252.768 101.675 252.768C99.7129 252.768 98.4551 254.265 98.4551 256.473C98.4551 258.708 99.6924 260.123 101.729 260.123C103.281 260.123 104.484 259.207 104.689 257.963H103.521ZM110.78 260H111.956V252.891H110.78V255.823H107.273V252.891H106.098V260H107.273V256.801H110.78V260ZM116.044 256.254L119.366 252.891H117.896L114.861 256.035H114.807V252.891H113.631V260H114.807V256.582H114.861L117.931 260H119.462L116.044 256.254ZM122.6 259.111C121.745 259.111 121.178 258.667 121.178 257.99C121.178 257.32 121.725 256.896 122.682 256.835L124.582 256.719V257.3C124.582 258.325 123.721 259.111 122.6 259.111ZM122.333 260.123C123.29 260.123 124.192 259.59 124.616 258.776H124.644V260H125.771V255.085C125.771 253.67 124.719 252.768 123.051 252.768C121.369 252.768 120.316 253.711 120.234 254.941H121.383C121.533 254.244 122.107 253.813 123.023 253.813C124.008 253.813 124.582 254.333 124.582 255.201V255.796L122.545 255.912C120.904 256.008 119.968 256.773 119.968 257.99C119.968 259.269 120.918 260.123 122.333 260.123ZM133.236 260.123C135.198 260.123 136.524 258.708 136.524 256.445C136.524 254.176 135.198 252.768 133.236 252.768C131.268 252.768 129.941 254.176 129.941 256.445C129.941 258.708 131.268 260.123 133.236 260.123ZM133.236 259.077C131.979 259.077 131.151 258.12 131.151 256.445C131.151 254.771 131.979 253.813 133.236 253.813C134.494 253.813 135.314 254.771 135.314 256.445C135.314 258.12 134.494 259.077 133.236 259.077ZM142.772 252.891H137.003V253.868H139.3V260H140.476V253.868H142.772V252.891ZM148.72 255.447H149.957C151.365 255.447 152.24 256.165 152.24 257.327C152.24 258.359 151.304 259.098 149.998 259.098C148.672 259.098 147.831 258.4 147.722 257.389H146.539C146.628 259.022 147.947 260.164 150.012 260.164C151.946 260.164 153.491 258.981 153.491 257.286C153.491 255.898 152.534 254.976 151.044 254.887V254.859C152.274 254.641 153.067 253.752 153.067 252.515C153.067 251.031 151.734 249.972 149.971 249.972C148.118 249.972 146.874 251.045 146.737 252.72H147.92C148.029 251.688 148.781 251.038 149.916 251.038C151.167 251.038 151.83 251.701 151.83 252.679C151.83 253.677 151.037 254.408 149.902 254.408H148.72V255.447ZM158.386 260.164C160.443 260.164 161.899 258.776 161.899 256.794C161.899 254.88 160.532 253.492 158.639 253.492C157.695 253.492 156.875 253.848 156.431 254.442H156.403L156.704 251.229H161.339V250.136H155.692L155.152 255.659H156.308C156.711 254.969 157.497 254.552 158.42 254.552C159.732 254.552 160.669 255.502 160.669 256.828C160.669 258.154 159.739 259.084 158.399 259.084C157.217 259.084 156.321 258.359 156.212 257.307H155.002C155.104 258.988 156.499 260.164 158.386 260.164ZM166.637 260.164C168.934 260.164 170.26 258.175 170.26 255.058C170.26 251.961 168.927 249.972 166.637 249.972C164.347 249.972 163 251.975 163 255.064C163 258.182 164.333 260.164 166.637 260.164ZM166.637 259.091C165.092 259.091 164.237 257.519 164.237 255.058C164.237 252.651 165.112 251.052 166.637 251.052C168.161 251.052 169.022 252.638 169.022 255.064C169.022 257.525 168.175 259.091 166.637 259.091ZM175.359 252.467C175.359 250.977 174.539 250.013 173.288 250.013C172.037 250.013 171.217 250.977 171.217 252.467C171.217 253.957 172.037 254.921 173.288 254.921C174.539 254.921 175.359 253.957 175.359 252.467ZM173.288 254.087C172.687 254.087 172.311 253.472 172.311 252.467C172.311 251.462 172.687 250.847 173.288 250.847C173.89 250.847 174.266 251.462 174.266 252.467C174.266 253.472 173.89 254.087 173.288 254.087ZM172.987 260L176.487 255.208L180.192 250.136H179.017L175.605 254.798L171.798 260H172.987ZM180.78 257.648C180.78 256.158 179.96 255.194 178.709 255.194C177.458 255.194 176.638 256.158 176.638 257.648C176.638 259.139 177.458 260.103 178.709 260.103C179.96 260.103 180.78 259.139 180.78 257.648ZM178.709 259.269C178.107 259.269 177.731 258.653 177.731 257.648C177.731 256.644 178.107 256.028 178.709 256.028C179.311 256.028 179.687 256.644 179.687 257.648C179.687 258.653 179.311 259.269 178.709 259.269ZM189.503 260H190.679V252.891H189.503V255.823H185.996V252.891H184.82V260H185.996V256.801H189.503V260ZM194.705 259.111C193.851 259.111 193.283 258.667 193.283 257.99C193.283 257.32 193.83 256.896 194.787 256.835L196.688 256.719V257.3C196.688 258.325 195.826 259.111 194.705 259.111ZM194.438 260.123C195.396 260.123 196.298 259.59 196.722 258.776H196.749V260H197.877V255.085C197.877 253.67 196.824 252.768 195.156 252.768C193.475 252.768 192.422 253.711 192.34 254.941H193.488C193.639 254.244 194.213 253.813 195.129 253.813C196.113 253.813 196.688 254.333 196.688 255.201V255.796L194.65 255.912C193.01 256.008 192.073 256.773 192.073 257.99C192.073 259.269 193.023 260.123 194.438 260.123ZM207.591 252.891H201.821V253.868H204.118V260H205.294V253.868H207.591V252.891ZM211.508 260.123C213.47 260.123 214.796 258.708 214.796 256.445C214.796 254.176 213.47 252.768 211.508 252.768C209.539 252.768 208.213 254.176 208.213 256.445C208.213 258.708 209.539 260.123 211.508 260.123ZM211.508 259.077C210.25 259.077 209.423 258.12 209.423 256.445C209.423 254.771 210.25 253.813 211.508 253.813C212.766 253.813 213.586 254.771 213.586 256.445C213.586 258.12 212.766 259.077 211.508 259.077ZM218.993 253.854C219.738 253.854 220.142 254.203 220.142 254.832C220.142 255.516 219.711 255.844 218.815 255.844H217.291V253.854H218.993ZM218.911 256.801C219.95 256.801 220.449 257.17 220.449 257.929C220.449 258.646 219.984 259.036 219.123 259.036H217.291V256.801H218.911ZM216.115 260H219.178C220.688 260 221.618 259.214 221.618 257.956C221.618 257.067 221.03 256.418 220.135 256.295V256.24C220.791 256.104 221.304 255.434 221.304 254.709C221.304 253.581 220.49 252.891 219.157 252.891H216.115V260ZM225.33 259.111C224.476 259.111 223.908 258.667 223.908 257.99C223.908 257.32 224.455 256.896 225.412 256.835L227.312 256.719V257.3C227.312 258.325 226.451 259.111 225.33 259.111ZM225.063 260.123C226.021 260.123 226.923 259.59 227.347 258.776H227.374V260H228.502V255.085C228.502 253.67 227.449 252.768 225.781 252.768C224.1 252.768 223.047 253.711 222.965 254.941H224.113C224.264 254.244 224.838 253.813 225.754 253.813C226.738 253.813 227.312 254.333 227.312 255.201V255.796L225.275 255.912C223.635 256.008 222.698 256.773 222.698 257.99C222.698 259.269 223.648 260.123 225.063 260.123ZM233.602 252.768C232.569 252.768 231.742 253.294 231.305 254.094H231.277V252.891H230.149V262.372H231.339V258.845H231.366C231.79 259.624 232.61 260.123 233.629 260.123C235.42 260.123 236.644 258.674 236.644 256.445C236.644 254.217 235.413 252.768 233.602 252.768ZM233.369 259.077C232.152 259.077 231.332 258.031 231.332 256.445C231.332 254.866 232.152 253.813 233.369 253.813C234.634 253.813 235.427 254.839 235.427 256.445C235.427 258.059 234.634 259.077 233.369 259.077ZM244.047 260H245.223V252.891H244.047V260ZM240.465 256.138C241.381 256.138 241.982 256.705 241.982 257.58C241.982 258.448 241.388 259.022 240.465 259.022H239.139V256.138H240.465ZM237.963 260H240.485C242.112 260 243.158 259.063 243.158 257.58C243.158 256.097 242.112 255.16 240.485 255.16H239.139V252.891H237.963V260ZM90.3271 277H91.5029V269.891H90.3271V272.823H86.8203V269.891H85.6445V277H86.8203V273.801H90.3271V277ZM95.5293 276.111C94.6748 276.111 94.1074 275.667 94.1074 274.99C94.1074 274.32 94.6543 273.896 95.6113 273.835L97.5117 273.719V274.3C97.5117 275.325 96.6504 276.111 95.5293 276.111ZM95.2627 277.123C96.2197 277.123 97.1221 276.59 97.5459 275.776H97.5732V277H98.7012V272.085C98.7012 270.67 97.6484 269.768 95.9805 269.768C94.2988 269.768 93.2461 270.711 93.1641 271.941H94.3125C94.4629 271.244 95.0371 270.813 95.9531 270.813C96.9375 270.813 97.5117 271.333 97.5117 272.201V272.796L95.4746 272.912C93.834 273.008 92.8975 273.773 92.8975 274.99C92.8975 276.269 93.8477 277.123 95.2627 277.123ZM103.801 269.768C102.769 269.768 101.941 270.294 101.504 271.094H101.477V269.891H100.349V279.372H101.538V275.845H101.565C101.989 276.624 102.81 277.123 103.828 277.123C105.619 277.123 106.843 275.674 106.843 273.445C106.843 271.217 105.612 269.768 103.801 269.768ZM103.568 276.077C102.352 276.077 101.531 275.031 101.531 273.445C101.531 271.866 102.352 270.813 103.568 270.813C104.833 270.813 105.626 271.839 105.626 273.445C105.626 275.059 104.833 276.077 103.568 276.077ZM111.115 277.123C113.077 277.123 114.403 275.708 114.403 273.445C114.403 271.176 113.077 269.768 111.115 269.768C109.146 269.768 107.82 271.176 107.82 273.445C107.82 275.708 109.146 277.123 111.115 277.123ZM111.115 276.077C109.857 276.077 109.03 275.12 109.03 273.445C109.03 271.771 109.857 270.813 111.115 270.813C112.373 270.813 113.193 271.771 113.193 273.445C113.193 275.12 112.373 276.077 111.115 276.077ZM120.303 276.022H116.837V275.968C117.172 275.517 117.356 274.744 117.418 273.862L117.637 270.868H120.303V276.022ZM115.989 278.88V277H121.506V278.88H122.613V276.022H121.485V269.891H116.591L116.317 273.835C116.249 274.792 115.996 275.681 115.477 276.022H114.882V278.88H115.989ZM128.362 277H129.538V269.891H128.362V272.823H124.855V269.891H123.68V277H124.855V273.801H128.362V277ZM134.166 277.123C136.128 277.123 137.454 275.708 137.454 273.445C137.454 271.176 136.128 269.768 134.166 269.768C132.197 269.768 130.871 271.176 130.871 273.445C130.871 275.708 132.197 277.123 134.166 277.123ZM134.166 276.077C132.908 276.077 132.081 275.12 132.081 273.445C132.081 271.771 132.908 270.813 134.166 270.813C135.424 270.813 136.244 271.771 136.244 273.445C136.244 275.12 135.424 276.077 134.166 276.077ZM143.347 270.868V269.891H138.773V277H139.949V270.868H143.347ZM147.318 277.123C149.28 277.123 150.606 275.708 150.606 273.445C150.606 271.176 149.28 269.768 147.318 269.768C145.35 269.768 144.023 271.176 144.023 273.445C144.023 275.708 145.35 277.123 147.318 277.123ZM147.318 276.077C146.061 276.077 145.233 275.12 145.233 273.445C145.233 271.771 146.061 270.813 147.318 270.813C148.576 270.813 149.396 271.771 149.396 273.445C149.396 275.12 148.576 276.077 147.318 276.077ZM159.411 277H160.594V269.891H154.797V277H155.973V270.868H159.411V277ZM165.215 277.123C167.177 277.123 168.503 275.708 168.503 273.445C168.503 271.176 167.177 269.768 165.215 269.768C163.246 269.768 161.92 271.176 161.92 273.445C161.92 275.708 163.246 277.123 165.215 277.123ZM165.215 276.077C163.957 276.077 163.13 275.12 163.13 273.445C163.13 271.771 163.957 270.813 165.215 270.813C166.473 270.813 167.293 271.771 167.293 273.445C167.293 275.12 166.473 276.077 165.215 276.077ZM174.751 269.891H168.981V270.868H171.278V277H172.454V270.868H174.751V269.891ZM179.311 269.768C178.278 269.768 177.451 270.294 177.014 271.094H176.986V269.891H175.858V279.372H177.048V275.845H177.075C177.499 276.624 178.319 277.123 179.338 277.123C181.129 277.123 182.353 275.674 182.353 273.445C182.353 271.217 181.122 269.768 179.311 269.768ZM179.078 276.077C177.861 276.077 177.041 275.031 177.041 273.445C177.041 271.866 177.861 270.813 179.078 270.813C180.343 270.813 181.136 271.839 181.136 273.445C181.136 275.059 180.343 276.077 179.078 276.077ZM186.529 270.8C187.65 270.8 188.396 271.647 188.423 272.837H184.561C184.636 271.654 185.415 270.8 186.529 270.8ZM188.396 274.963C188.197 275.633 187.534 276.091 186.632 276.091C185.354 276.091 184.554 275.195 184.554 273.835V273.767H189.653V273.315C189.653 271.162 188.471 269.768 186.55 269.768C184.588 269.768 183.33 271.265 183.33 273.473C183.33 275.708 184.567 277.123 186.604 277.123C188.156 277.123 189.359 276.207 189.564 274.963H188.396ZM194.021 277.123C196.079 277.123 197.344 275.749 197.344 273.514C197.344 271.395 196.12 270.041 194.199 270.041C193.105 270.041 192.217 270.479 191.752 271.319H191.697C191.984 269.193 192.572 268.325 194.548 268.25L195.074 268.229C195.895 268.195 196.646 268.018 196.872 267.812V266.773C196.469 266.985 195.703 267.122 195.02 267.156L194.493 267.177C191.731 267.279 190.692 268.913 190.692 272.837C190.692 275.66 191.841 277.123 194.021 277.123ZM194.021 276.07C192.682 276.07 191.909 275.147 191.909 273.514C191.909 271.962 192.682 271.08 194.021 271.08C195.354 271.08 196.127 271.962 196.127 273.514C196.127 275.147 195.354 276.07 194.021 276.07ZM200.297 273.862L200.516 270.868H202.936V277H204.111V269.891H199.456L199.183 273.835C199.094 275.141 198.827 275.968 198.123 275.968C197.952 275.968 197.822 275.934 197.761 275.913V276.986C197.843 277.021 197.979 277.062 198.185 277.062C199.682 277.062 200.153 275.824 200.297 273.862ZM208.65 270.8C209.771 270.8 210.517 271.647 210.544 272.837H206.682C206.757 271.654 207.536 270.8 208.65 270.8ZM210.517 274.963C210.318 275.633 209.655 276.091 208.753 276.091C207.475 276.091 206.675 275.195 206.675 273.835V273.767H211.774V273.315C211.774 271.162 210.592 269.768 208.671 269.768C206.709 269.768 205.451 271.265 205.451 273.473C205.451 275.708 206.688 277.123 208.726 277.123C210.277 277.123 211.48 276.207 211.686 274.963H210.517ZM217.776 277H218.952V269.891H217.776V272.823H214.27V269.891H213.094V277H214.27V273.801H217.776V277ZM221.803 277L225.357 271.709H225.412V277H226.588V269.891H225.412L221.857 275.182H221.803V269.891H220.627V277H221.803ZM230.812 273.493C229.896 273.493 229.302 272.967 229.302 272.229C229.302 271.374 229.89 270.868 230.812 270.868H232.173V273.493H230.812ZM232.173 277H233.349V269.891H230.806C229.172 269.891 228.119 270.786 228.119 272.249C228.119 273.227 228.728 273.965 229.732 274.252L227.75 277H229.11L230.915 274.471H232.173V277Z" fill="#222A33"/>
<path d="M187.31 145.275C186.577 148.503 184.48 151.207 181.019 153.389C177.558 155.571 172.699 157.5 166.444 159.175C160.184 160.852 155.01 161.612 150.921 161.454C146.832 161.296 143.648 159.954 141.37 157.427C139.096 154.903 137.51 152.559 136.61 150.396C135.711 148.232 134.661 144.908 133.46 140.422C132.259 135.939 131.506 132.535 131.202 130.212C130.898 127.888 131.077 125.174 131.737 122.071C133.107 116.06 140.15 111.351 152.868 107.943C165.389 104.588 173.645 105.198 177.638 109.772C180.01 112.276 181.646 114.607 182.548 116.765C183.449 118.924 184.499 122.248 185.698 126.738C186.901 131.227 187.653 134.63 187.956 136.949C188.259 139.268 188.043 142.043 187.31 145.275Z" fill="#BDF3E9"/>
<path d="M171.14 124.995L155.332 142.495L148.64 135.901" stroke="#1AD8B4" stroke-width="5" stroke-linecap="round" stroke-linejoin="round"/>
<defs>
<filter id="filter0_d" x="-152" y="0.994629" width="624.845" height="621.406" filterUnits="userSpaceOnUse" color-interpolation-filters="sRGB">
<feFlood flood-opacity="0" result="BackgroundImageFix"/>
<feColorMatrix in="SourceAlpha" type="matrix" values="0 0 0 0 0 0 0 0 0 0 0 0 0 0 0 0 0 0 127 0"/>
<feOffset dy="94"/>
<feGaussianBlur stdDeviation="57"/>
<feColorMatrix type="matrix" values="0 0 0 0 0.475983 0 0 0 0 0.475983 0 0 0 0 0.475983 0 0 0 0.1 0"/>
<feBlend mode="normal" in2="BackgroundImageFix" result="effect1_dropShadow"/>
<feBlend mode="normal" in="SourceGraphic" in2="effect1_dropShadow" result="shape"/>
</filter>
</defs>
</svg>
