<svg width="274" height="272" viewBox="0 0 274 272" fill="none" xmlns="http://www.w3.org/2000/svg">
<path d="M251.682 182.789C248.853 196.126 240.376 207.39 226.251 216.583C212.126 225.775 192.231 234.007 166.564 241.277C140.882 248.557 119.615 251.993 102.765 251.585C85.914 251.178 72.7216 245.838 63.1874 235.567C53.6736 225.304 47.0001 215.744 43.167 206.888C39.3339 198.031 34.8113 184.401 29.5993 165.997C24.3853 147.603 21.0835 133.629 19.6938 124.076C18.304 114.522 18.8779 103.336 21.4153 90.5158C26.6989 65.6765 55.4304 45.8616 107.61 31.0711C158.979 16.5105 193.022 18.5318 209.739 37.1349C219.655 47.3066 226.534 56.8105 230.375 65.6467C234.216 74.4828 238.739 88.1129 243.943 106.537C249.163 124.952 252.465 138.926 253.849 148.459C255.232 157.991 254.51 169.435 251.682 182.789Z" fill="#278DCC"/>
</svg>
