<svg width="320" height="604" viewBox="0 0 320 604" fill="none" xmlns="http://www.w3.org/2000/svg">
<path d="M218.682 267.784C215.853 281.12 207.376 292.385 193.251 301.577C179.126 310.769 159.231 319.001 133.564 326.272C107.882 333.551 86.6153 336.987 69.7647 336.58C52.914 336.172 39.7216 330.833 30.1874 320.562C20.6736 310.298 14.0001 300.738 10.167 291.882C6.33392 283.026 1.81134 269.396 -3.40072 250.992C-8.61466 232.597 -11.9165 218.623 -13.3062 209.07C-14.696 199.517 -14.1221 188.33 -11.5847 175.51C-6.30111 150.671 22.4304 130.856 74.6098 116.066C125.979 101.505 160.022 103.526 176.739 122.129C186.655 132.301 193.534 141.805 197.375 150.641C201.216 159.477 205.739 173.107 210.943 191.531C216.163 209.946 219.465 223.92 220.849 233.453C222.232 242.986 221.51 254.429 218.682 267.784Z" fill="#278DCC"/>
<g filter="url(#filter0_d)">
<path d="M332.138 275.087C327.924 293.634 315.873 309.176 295.986 321.715C276.098 334.253 248.18 345.336 212.231 354.962C176.26 364.6 146.526 368.966 123.029 368.058C99.5324 367.151 81.2375 359.438 68.1445 344.919C55.0799 330.411 45.9632 316.942 40.7943 304.511C35.6255 292.08 29.5909 272.976 22.6904 247.2C15.7872 221.436 11.4623 201.878 9.71572 188.524C7.96917 175.17 8.9945 159.577 12.7917 141.745C20.6611 107.203 61.1373 80.1403 134.22 60.5578C206.168 41.2794 253.614 44.7832 276.559 71.069C290.188 85.4569 299.592 98.8523 304.772 111.255C309.953 123.658 315.987 142.762 322.876 168.566C329.787 194.358 334.112 213.917 335.851 227.242C337.59 240.567 336.352 256.515 332.138 275.087Z" fill="white"/>
</g>
<path d="M112.266 141.994V130.721H109.906V135.299H104.828V130.721H102.469V141.994H104.828V137.244H109.906V141.994H112.266ZM117.859 135.127C118.875 135.127 119.57 135.861 119.617 136.932H116.062C116.141 135.885 116.859 135.127 117.859 135.127ZM119.648 139.432C119.438 140.072 118.797 140.486 117.961 140.486C116.797 140.486 116.039 139.666 116.039 138.471V138.33H121.812V137.635C121.812 135.088 120.273 133.439 117.836 133.439C115.359 133.439 113.797 135.174 113.797 137.846C113.797 140.525 115.344 142.174 117.922 142.174C119.992 142.174 121.492 141.072 121.742 139.432H119.648ZM126.977 142.174C129.508 142.174 131.125 140.557 131.125 137.799C131.125 135.08 129.484 133.439 126.977 133.439C124.469 133.439 122.828 135.088 122.828 137.799C122.828 140.549 124.445 142.174 126.977 142.174ZM126.977 140.432C125.852 140.432 125.141 139.486 125.141 137.807C125.141 136.143 125.867 135.182 126.977 135.182C128.086 135.182 128.805 136.143 128.805 137.807C128.805 139.486 128.094 140.432 126.977 140.432ZM138.281 135.338V133.619H132.445V141.994H134.719V135.338H138.281ZM144.492 133.486C143.281 133.486 142.352 134.096 141.898 135.08H141.852V133.619H139.602V144.729H141.883V140.588H141.93C142.375 141.533 143.312 142.127 144.531 142.127C146.625 142.127 147.922 140.502 147.922 137.807C147.922 135.104 146.617 133.486 144.492 133.486ZM143.727 140.291C142.609 140.291 141.875 139.322 141.875 137.807C141.875 136.307 142.609 135.314 143.727 135.314C144.867 135.314 145.586 136.291 145.586 137.807C145.586 139.33 144.867 140.291 143.727 140.291ZM152.508 140.479C151.734 140.479 151.219 140.088 151.219 139.463C151.219 138.869 151.703 138.486 152.555 138.424L154.32 138.314V138.924C154.32 139.83 153.5 140.479 152.508 140.479ZM151.758 142.127C152.805 142.127 153.844 141.604 154.312 140.713H154.359V141.994H156.562V136.236C156.562 134.549 155.164 133.439 153.016 133.439C150.797 133.439 149.414 134.557 149.328 136.182H151.414C151.523 135.564 152.062 135.143 152.914 135.143C153.773 135.143 154.32 135.596 154.32 136.377V136.932L152.211 137.057C150.125 137.182 148.953 138.064 148.953 139.588C148.953 141.096 150.164 142.127 151.758 142.127ZM163.672 141.994H165.945V133.619H163.672V136.838H160.453V133.619H158.18V141.994H160.453V138.564H163.672V141.994ZM169.82 141.994L173.148 136.697H173.211V141.994H175.445V133.619H173.211L169.883 138.854H169.82V133.619H167.586V141.994H169.82ZM184.508 141.994V133.619H182.234V136.791C181.953 137.158 181.43 137.455 180.664 137.455C179.742 137.455 179.203 136.885 179.203 135.924V133.619H176.93V136.252C176.93 138.15 178.086 139.346 180 139.346C180.961 139.346 181.688 139.01 182.148 138.51H182.234V141.994H184.508ZM189.906 135.127C190.922 135.127 191.617 135.861 191.664 136.932H188.109C188.188 135.885 188.906 135.127 189.906 135.127ZM191.695 139.432C191.484 140.072 190.844 140.486 190.008 140.486C188.844 140.486 188.086 139.666 188.086 138.471V138.33H193.859V137.635C193.859 135.088 192.32 133.439 189.883 133.439C187.406 133.439 185.844 135.174 185.844 137.846C185.844 140.525 187.391 142.174 189.969 142.174C192.039 142.174 193.539 141.072 193.789 139.432H191.695ZM200.672 141.994H202.945V133.619H200.672V136.838H197.453V133.619H195.18V141.994H197.453V138.564H200.672V141.994ZM210.078 141.994H212.352V133.619H210.078V136.838H206.859V133.619H204.586V141.994H206.859V138.564H210.078V141.994ZM221.961 141.994H224.234V133.619H221.961V141.994ZM217.523 137.721C218.344 137.721 218.883 138.236 218.883 139.002C218.883 139.768 218.352 140.291 217.523 140.291H216.266V137.721H217.523ZM213.992 141.994H217.898C219.875 141.994 221.141 140.838 221.141 139.018C221.141 137.197 219.875 136.041 217.898 136.041H216.266V133.619H213.992V141.994ZM228.102 141.994L231.43 136.697H231.492V141.994H233.727V133.619H231.492L228.164 138.854H228.102V133.619H225.867V141.994H228.102ZM227.117 129.83C227.117 131.369 228.219 132.4 229.867 132.4C231.508 132.4 232.617 131.369 232.617 129.83H231.219C231.203 130.666 230.68 131.268 229.867 131.268C229.047 131.268 228.523 130.666 228.508 129.83H227.117ZM116.125 161.174C118.656 161.174 120.273 159.557 120.273 156.799C120.273 154.08 118.633 152.439 116.125 152.439C113.617 152.439 111.977 154.088 111.977 156.799C111.977 159.549 113.594 161.174 116.125 161.174ZM116.125 159.432C115 159.432 114.289 158.486 114.289 156.807C114.289 155.143 115.016 154.182 116.125 154.182C117.234 154.182 117.953 155.143 117.953 156.807C117.953 158.486 117.242 159.432 116.125 159.432ZM125.57 161.174C128.125 161.174 129.711 159.557 129.711 156.924C129.711 154.494 128.242 152.955 125.984 152.955C124.617 152.955 123.672 153.533 123.156 154.533H123.094C123.367 152.4 124.109 151.424 126.18 151.361L127.102 151.33C128.25 151.299 129.039 151.088 129.164 150.971V149.205C128.938 149.322 128.016 149.51 126.961 149.549L125.984 149.572C122.93 149.666 121.336 151.486 121.336 156.197C121.336 159.471 122.867 161.174 125.57 161.174ZM125.531 159.377C124.359 159.377 123.672 158.518 123.672 156.979C123.672 155.51 124.367 154.65 125.531 154.65C126.688 154.65 127.375 155.51 127.375 156.979C127.375 158.518 126.688 159.377 125.531 159.377ZM136.406 160.994C138.391 160.994 139.656 159.838 139.656 158.018C139.656 156.197 138.391 155.041 136.406 155.041H134.773V152.619H130.336V154.338H132.5V160.994H136.406ZM136.031 156.721C136.852 156.721 137.391 157.236 137.391 158.002C137.391 158.768 136.859 159.291 136.031 159.291H134.773V156.721H136.031ZM144.68 154.127C145.695 154.127 146.391 154.861 146.438 155.932H142.883C142.961 154.885 143.68 154.127 144.68 154.127ZM146.469 158.432C146.258 159.072 145.617 159.486 144.781 159.486C143.617 159.486 142.859 158.666 142.859 157.471V157.33H148.633V156.635C148.633 154.088 147.094 152.439 144.656 152.439C142.18 152.439 140.617 154.174 140.617 156.846C140.617 159.525 142.164 161.174 144.742 161.174C146.812 161.174 148.312 160.072 148.562 158.432H146.469ZM152.094 160.994V155.393H152.148L154.312 160.525H155.891L158.062 155.393H158.117V160.994H160.258V152.619H157.336L155.148 158.088H155.094L152.906 152.619H149.953V160.994H152.094ZM170.492 160.994H172.766V152.619H165.078V160.994H167.352V154.338H170.492V160.994ZM179.297 152.486C178.086 152.486 177.156 153.096 176.703 154.08H176.656V152.619H174.406V163.729H176.688V159.588H176.734C177.18 160.533 178.117 161.127 179.336 161.127C181.43 161.127 182.727 159.502 182.727 156.807C182.727 154.104 181.422 152.486 179.297 152.486ZM178.531 159.291C177.414 159.291 176.68 158.322 176.68 156.807C176.68 155.307 177.414 154.314 178.531 154.314C179.672 154.314 180.391 155.291 180.391 156.807C180.391 158.33 179.672 159.291 178.531 159.291ZM187.922 161.174C190.453 161.174 192.07 159.557 192.07 156.799C192.07 154.08 190.43 152.439 187.922 152.439C185.414 152.439 183.773 154.088 183.773 156.799C183.773 159.549 185.391 161.174 187.922 161.174ZM187.922 159.432C186.797 159.432 186.086 158.486 186.086 156.807C186.086 155.143 186.812 154.182 187.922 154.182C189.031 154.182 189.75 155.143 189.75 156.807C189.75 158.486 189.039 159.432 187.922 159.432ZM198.867 159.268H195.562V159.205C195.938 158.643 196.109 157.869 196.172 156.979L196.359 154.33H198.867V159.268ZM194.672 163.166V160.994H200.305V163.166H202.383V159.268H201.141V152.619H194.438L194.164 156.83C194.086 157.963 193.852 158.924 193.242 159.268H192.602V163.166H194.672ZM206.641 159.479C205.867 159.479 205.352 159.088 205.352 158.463C205.352 157.869 205.836 157.486 206.688 157.424L208.453 157.314V157.924C208.453 158.83 207.633 159.479 206.641 159.479ZM205.891 161.127C206.938 161.127 207.977 160.604 208.445 159.713H208.492V160.994H210.695V155.236C210.695 153.549 209.297 152.439 207.148 152.439C204.93 152.439 203.547 153.557 203.461 155.182H205.547C205.656 154.564 206.195 154.143 207.047 154.143C207.906 154.143 208.453 154.596 208.453 155.377V155.932L206.344 156.057C204.258 156.182 203.086 157.064 203.086 158.588C203.086 160.096 204.297 161.127 205.891 161.127ZM221.242 156.518L224.289 152.619H221.695L219.188 155.986H219.125V152.619H216.875V155.986H216.82L214.305 152.619H211.688L214.766 156.557L211.578 160.994H214.258L216.82 157.4H216.875V160.994H219.125V157.4H219.188L221.742 160.994H224.453L221.242 156.518Z" fill="#222A33"/>
<path opacity="0.7" d="M66.6729 189.136V199H67.9033V195.479H70.1797C72.0322 195.479 73.3516 194.174 73.3516 192.301C73.3516 190.435 72.0459 189.136 70.1934 189.136H66.6729ZM67.9033 190.229H69.8721C71.2871 190.229 72.0869 190.995 72.0869 192.301C72.0869 193.613 71.2803 194.386 69.8721 194.386H67.9033V190.229ZM77.3779 199.123C79.3398 199.123 80.666 197.708 80.666 195.445C80.666 193.176 79.3398 191.768 77.3779 191.768C75.4092 191.768 74.083 193.176 74.083 195.445C74.083 197.708 75.4092 199.123 77.3779 199.123ZM77.3779 198.077C76.1201 198.077 75.293 197.12 75.293 195.445C75.293 193.771 76.1201 192.813 77.3779 192.813C78.6357 192.813 79.4561 193.771 79.4561 195.445C79.4561 197.12 78.6357 198.077 77.3779 198.077ZM87.8711 194.078C87.6592 192.868 86.6133 191.768 84.8975 191.768C82.9287 191.768 81.6436 193.23 81.6436 195.445C81.6436 197.708 82.9355 199.123 84.9111 199.123C86.5107 199.123 87.6523 198.173 87.8848 196.826H86.709C86.4834 197.612 85.8613 198.077 84.918 198.077C83.6807 198.077 82.8535 197.072 82.8535 195.445C82.8535 193.859 83.667 192.813 84.9043 192.813C85.9092 192.813 86.4902 193.395 86.6953 194.078H87.8711ZM94.1875 191.891H88.418V192.868H90.7148V199H91.8906V192.868H94.1875V191.891ZM102.773 199H103.956V191.891H98.1592V199H99.335V192.868H102.773V199ZM109.083 191.768C108.051 191.768 107.224 192.294 106.786 193.094H106.759V191.891H105.631V201.372H106.82V197.845H106.848C107.271 198.624 108.092 199.123 109.11 199.123C110.901 199.123 112.125 197.674 112.125 195.445C112.125 193.217 110.895 191.768 109.083 191.768ZM108.851 198.077C107.634 198.077 106.813 197.031 106.813 195.445C106.813 193.866 107.634 192.813 108.851 192.813C110.115 192.813 110.908 193.839 110.908 195.445C110.908 197.059 110.115 198.077 108.851 198.077ZM116.397 199.123C118.359 199.123 119.686 197.708 119.686 195.445C119.686 193.176 118.359 191.768 116.397 191.768C114.429 191.768 113.103 193.176 113.103 195.445C113.103 197.708 114.429 199.123 116.397 199.123ZM116.397 198.077C115.14 198.077 114.312 197.12 114.312 195.445C114.312 193.771 115.14 192.813 116.397 192.813C117.655 192.813 118.476 193.771 118.476 195.445C118.476 197.12 117.655 198.077 116.397 198.077ZM125.585 198.022H122.119V197.968C122.454 197.517 122.639 196.744 122.7 195.862L122.919 192.868H125.585V198.022ZM121.271 200.88V199H126.788V200.88H127.896V198.022H126.768V191.891H121.873L121.6 195.835C121.531 196.792 121.278 197.681 120.759 198.022H120.164V200.88H121.271ZM131.313 198.111C130.459 198.111 129.892 197.667 129.892 196.99C129.892 196.32 130.438 195.896 131.396 195.835L133.296 195.719V196.3C133.296 197.325 132.435 198.111 131.313 198.111ZM131.047 199.123C132.004 199.123 132.906 198.59 133.33 197.776H133.357V199H134.485V194.085C134.485 192.67 133.433 191.768 131.765 191.768C130.083 191.768 129.03 192.711 128.948 193.941H130.097C130.247 193.244 130.821 192.813 131.737 192.813C132.722 192.813 133.296 193.333 133.296 194.201V194.796L131.259 194.912C129.618 195.008 128.682 195.773 128.682 196.99C128.682 198.269 129.632 199.123 131.047 199.123ZM142.285 195.254L145.389 191.891H143.939L141.103 195.035H141.048V191.891H139.872V195.035H139.824L136.987 191.891H135.524L138.642 195.274L135.449 199H136.953L139.824 195.582H139.872V199H141.048V195.582H141.103L143.974 199H145.498L142.285 195.254ZM152.252 192.854C152.997 192.854 153.4 193.203 153.4 193.832C153.4 194.516 152.97 194.844 152.074 194.844H150.55V192.854H152.252ZM152.17 195.801C153.209 195.801 153.708 196.17 153.708 196.929C153.708 197.646 153.243 198.036 152.382 198.036H150.55V195.801H152.17ZM149.374 199H152.437C153.947 199 154.877 198.214 154.877 196.956C154.877 196.067 154.289 195.418 153.394 195.295V195.24C154.05 195.104 154.562 194.434 154.562 193.709C154.562 192.581 153.749 191.891 152.416 191.891H149.374V199ZM159.19 199.123C161.152 199.123 162.479 197.708 162.479 195.445C162.479 193.176 161.152 191.768 159.19 191.768C157.222 191.768 155.896 193.176 155.896 195.445C155.896 197.708 157.222 199.123 159.19 199.123ZM159.19 198.077C157.933 198.077 157.105 197.12 157.105 195.445C157.105 193.771 157.933 192.813 159.19 192.813C160.448 192.813 161.269 193.771 161.269 195.445C161.269 197.12 160.448 198.077 159.19 198.077ZM167.845 199V193.955H167.893L170.189 198.795H171.099L173.396 193.955H173.443V199H174.626V191.891H173.238L170.695 197.428H170.641L168.111 191.891H166.669V199H167.845ZM180.977 199H182.152V191.891H180.977V194.823H177.47V191.891H176.294V199H177.47V195.801H180.977V199ZM186.78 199.123C188.742 199.123 190.068 197.708 190.068 195.445C190.068 193.176 188.742 191.768 186.78 191.768C184.812 191.768 183.485 193.176 183.485 195.445C183.485 197.708 184.812 199.123 186.78 199.123ZM186.78 198.077C185.522 198.077 184.695 197.12 184.695 195.445C184.695 193.771 185.522 192.813 186.78 192.813C188.038 192.813 188.858 193.771 188.858 195.445C188.858 197.12 188.038 198.077 186.78 198.077ZM195.961 192.868V191.891H191.388V199H192.563V192.868H195.961ZM198.429 199L201.983 193.709H202.038V199H203.214V191.891H202.038L198.483 197.182H198.429V191.891H197.253V199H198.429ZM207.404 196.293L209.106 199H210.426L208.061 195.397L210.46 191.891H209.134L207.445 194.557H207.418L205.709 191.891H204.383L206.762 195.445L204.342 199H205.661L207.377 196.293H207.404ZM219.654 191.891H213.885V192.868H216.182V199H217.357V192.868H219.654V191.891ZM223.571 199.123C225.533 199.123 226.859 197.708 226.859 195.445C226.859 193.176 225.533 191.768 223.571 191.768C221.603 191.768 220.276 193.176 220.276 195.445C220.276 197.708 221.603 199.123 223.571 199.123ZM223.571 198.077C222.313 198.077 221.486 197.12 221.486 195.445C221.486 193.771 222.313 192.813 223.571 192.813C224.829 192.813 225.649 193.771 225.649 195.445C225.649 197.12 224.829 198.077 223.571 198.077ZM231.057 192.854C231.802 192.854 232.205 193.203 232.205 193.832C232.205 194.516 231.774 194.844 230.879 194.844H229.354V192.854H231.057ZM230.975 195.801C232.014 195.801 232.513 196.17 232.513 196.929C232.513 197.646 232.048 198.036 231.187 198.036H229.354V195.801H230.975ZM228.179 199H231.241C232.752 199 233.682 198.214 233.682 196.956C233.682 196.067 233.094 195.418 232.198 195.295V195.24C232.854 195.104 233.367 194.434 233.367 193.709C233.367 192.581 232.554 191.891 231.221 191.891H228.179V199ZM237.394 198.111C236.539 198.111 235.972 197.667 235.972 196.99C235.972 196.32 236.519 195.896 237.476 195.835L239.376 195.719V196.3C239.376 197.325 238.515 198.111 237.394 198.111ZM237.127 199.123C238.084 199.123 238.986 198.59 239.41 197.776H239.438V199H240.565V194.085C240.565 192.67 239.513 191.768 237.845 191.768C236.163 191.768 235.11 192.711 235.028 193.941H236.177C236.327 193.244 236.901 192.813 237.817 192.813C238.802 192.813 239.376 193.333 239.376 194.201V194.796L237.339 194.912C235.698 195.008 234.762 195.773 234.762 196.99C234.762 198.269 235.712 199.123 237.127 199.123ZM245.665 191.768C244.633 191.768 243.806 192.294 243.368 193.094H243.341V191.891H242.213V201.372H243.402V197.845H243.43C243.854 198.624 244.674 199.123 245.692 199.123C247.483 199.123 248.707 197.674 248.707 195.445C248.707 193.217 247.477 191.768 245.665 191.768ZM245.433 198.077C244.216 198.077 243.396 197.031 243.396 195.445C243.396 193.866 244.216 192.813 245.433 192.813C246.697 192.813 247.49 193.839 247.49 195.445C247.49 197.059 246.697 198.077 245.433 198.077ZM254.709 199H255.885V191.891H254.709V194.823H251.202V191.891H250.026V199H251.202V195.801H254.709V199ZM263.644 199H264.819V191.891H263.644V199ZM260.062 195.138C260.978 195.138 261.579 195.705 261.579 196.58C261.579 197.448 260.984 198.022 260.062 198.022H258.735V195.138H260.062ZM257.56 199H260.082C261.709 199 262.755 198.063 262.755 196.58C262.755 195.097 261.709 194.16 260.082 194.16H258.735V191.891H257.56V199ZM269.01 196.293L270.712 199H272.031L269.666 195.397L272.065 191.891H270.739L269.051 194.557H269.023L267.314 191.891H265.988L268.367 195.445L265.947 199H267.267L268.982 196.293H269.01ZM69.3115 212.254L72.6338 208.891H71.1641L68.1289 212.035H68.0742V208.891H66.8984V216H68.0742V212.582H68.1289L71.1982 216H72.7295L69.3115 212.254ZM75.8672 215.111C75.0127 215.111 74.4453 214.667 74.4453 213.99C74.4453 213.32 74.9922 212.896 75.9492 212.835L77.8496 212.719V213.3C77.8496 214.325 76.9883 215.111 75.8672 215.111ZM75.6006 216.123C76.5576 216.123 77.46 215.59 77.8838 214.776H77.9111V216H79.0391V211.085C79.0391 209.67 77.9863 208.768 76.3184 208.768C74.6367 208.768 73.584 209.711 73.502 210.941H74.6504C74.8008 210.244 75.375 209.813 76.291 209.813C77.2754 209.813 77.8496 210.333 77.8496 211.201V211.796L75.8125 211.912C74.1719 212.008 73.2354 212.773 73.2354 213.99C73.2354 215.269 74.1855 216.123 75.6006 216.123ZM85.7451 208.891H79.9756V209.868H82.2725V216H83.4482V209.868H85.7451V208.891ZM89.5664 209.8C90.6875 209.8 91.4326 210.647 91.46 211.837H87.5977C87.6729 210.654 88.4521 209.8 89.5664 209.8ZM91.4326 213.963C91.2344 214.633 90.5713 215.091 89.6689 215.091C88.3906 215.091 87.5908 214.195 87.5908 212.835V212.767H92.6904V212.315C92.6904 210.162 91.5078 208.768 89.5869 208.768C87.625 208.768 86.3672 210.265 86.3672 212.473C86.3672 214.708 87.6045 216.123 89.6416 216.123C91.1934 216.123 92.3965 215.207 92.6016 213.963H91.4326ZM98.583 209.868V208.891H94.0098V216H95.1855V209.868H98.583ZM102.555 216.123C104.517 216.123 105.843 214.708 105.843 212.445C105.843 210.176 104.517 208.768 102.555 208.768C100.586 208.768 99.2598 210.176 99.2598 212.445C99.2598 214.708 100.586 216.123 102.555 216.123ZM102.555 215.077C101.297 215.077 100.47 214.12 100.47 212.445C100.47 210.771 101.297 209.813 102.555 209.813C103.812 209.813 104.633 210.771 104.633 212.445C104.633 214.12 103.812 215.077 102.555 215.077ZM110.621 208.768C109.589 208.768 108.762 209.294 108.324 210.094H108.297V208.891H107.169V218.372H108.358V214.845H108.386C108.81 215.624 109.63 216.123 110.648 216.123C112.439 216.123 113.663 214.674 113.663 212.445C113.663 210.217 112.433 208.768 110.621 208.768ZM110.389 215.077C109.172 215.077 108.352 214.031 108.352 212.445C108.352 210.866 109.172 209.813 110.389 209.813C111.653 209.813 112.446 210.839 112.446 212.445C112.446 214.059 111.653 215.077 110.389 215.077ZM116.158 216L119.713 210.709H119.768V216H120.943V208.891H119.768L116.213 214.182H116.158V208.891H114.982V216H116.158ZM125.168 212.493C124.252 212.493 123.657 211.967 123.657 211.229C123.657 210.374 124.245 209.868 125.168 209.868H126.528V212.493H125.168ZM126.528 216H127.704V208.891H125.161C123.527 208.891 122.475 209.786 122.475 211.249C122.475 212.227 123.083 212.965 124.088 213.252L122.105 216H123.466L125.271 213.471H126.528V216ZM131.901 213.293L133.604 216H134.923L132.558 212.397L134.957 208.891H133.631L131.942 211.557H131.915L130.206 208.891H128.88L131.259 212.445L128.839 216H130.158L131.874 213.293H131.901ZM141.827 209.854C142.572 209.854 142.976 210.203 142.976 210.832C142.976 211.516 142.545 211.844 141.649 211.844H140.125V209.854H141.827ZM141.745 212.801C142.784 212.801 143.283 213.17 143.283 213.929C143.283 214.646 142.818 215.036 141.957 215.036H140.125V212.801H141.745ZM138.949 216H142.012C143.522 216 144.452 215.214 144.452 213.956C144.452 213.067 143.864 212.418 142.969 212.295V212.24C143.625 212.104 144.138 211.434 144.138 210.709C144.138 209.581 143.324 208.891 141.991 208.891H138.949V216ZM151.896 216H153.072V208.891H151.896V216ZM148.314 212.138C149.23 212.138 149.832 212.705 149.832 213.58C149.832 214.448 149.237 215.022 148.314 215.022H146.988V212.138H148.314ZM145.812 216H148.335C149.962 216 151.008 215.063 151.008 213.58C151.008 212.097 149.962 211.16 148.335 211.16H146.988V208.891H145.812V216ZM158.199 208.768C157.167 208.768 156.34 209.294 155.902 210.094H155.875V208.891H154.747V218.372H155.937V214.845H155.964C156.388 215.624 157.208 216.123 158.227 216.123C160.018 216.123 161.241 214.674 161.241 212.445C161.241 210.217 160.011 208.768 158.199 208.768ZM157.967 215.077C156.75 215.077 155.93 214.031 155.93 212.445C155.93 210.866 156.75 209.813 157.967 209.813C159.231 209.813 160.024 210.839 160.024 212.445C160.024 214.059 159.231 215.077 157.967 215.077ZM165.514 216.123C167.476 216.123 168.802 214.708 168.802 212.445C168.802 210.176 167.476 208.768 165.514 208.768C163.545 208.768 162.219 210.176 162.219 212.445C162.219 214.708 163.545 216.123 165.514 216.123ZM165.514 215.077C164.256 215.077 163.429 214.12 163.429 212.445C163.429 210.771 164.256 209.813 165.514 209.813C166.771 209.813 167.592 210.771 167.592 212.445C167.592 214.12 166.771 215.077 165.514 215.077ZM176.007 211.078C175.795 209.868 174.749 208.768 173.033 208.768C171.064 208.768 169.779 210.23 169.779 212.445C169.779 214.708 171.071 216.123 173.047 216.123C174.646 216.123 175.788 215.173 176.021 213.826H174.845C174.619 214.612 173.997 215.077 173.054 215.077C171.816 215.077 170.989 214.072 170.989 212.445C170.989 210.859 171.803 209.813 173.04 209.813C174.045 209.813 174.626 210.395 174.831 211.078H176.007ZM183.007 209.854C183.752 209.854 184.155 210.203 184.155 210.832C184.155 211.516 183.725 211.844 182.829 211.844H181.305V209.854H183.007ZM182.925 212.801C183.964 212.801 184.463 213.17 184.463 213.929C184.463 214.646 183.998 215.036 183.137 215.036H181.305V212.801H182.925ZM180.129 216H183.191C184.702 216 185.632 215.214 185.632 213.956C185.632 213.067 185.044 212.418 184.148 212.295V212.24C184.805 212.104 185.317 211.434 185.317 210.709C185.317 209.581 184.504 208.891 183.171 208.891H180.129V216ZM192.345 216H193.534V206.136H192.331L189.706 208.022V209.321L192.317 207.441H192.345V216ZM199.488 216.164C201.785 216.164 203.111 214.175 203.111 211.058C203.111 207.961 201.778 205.972 199.488 205.972C197.198 205.972 195.852 207.975 195.852 211.064C195.852 214.182 197.185 216.164 199.488 216.164ZM199.488 215.091C197.943 215.091 197.089 213.519 197.089 211.058C197.089 208.651 197.964 207.052 199.488 207.052C201.013 207.052 201.874 208.638 201.874 211.064C201.874 213.525 201.026 215.091 199.488 215.091ZM210.891 208.768C209.858 208.768 209.031 209.294 208.594 210.094H208.566V208.891H207.438V218.372H208.628V214.845H208.655C209.079 215.624 209.899 216.123 210.918 216.123C212.709 216.123 213.933 214.674 213.933 212.445C213.933 210.217 212.702 208.768 210.891 208.768ZM210.658 215.077C209.441 215.077 208.621 214.031 208.621 212.445C208.621 210.866 209.441 209.813 210.658 209.813C211.923 209.813 212.716 210.839 212.716 212.445C212.716 214.059 211.923 215.077 210.658 215.077ZM217.604 215.111C216.749 215.111 216.182 214.667 216.182 213.99C216.182 213.32 216.729 212.896 217.686 212.835L219.586 212.719V213.3C219.586 214.325 218.725 215.111 217.604 215.111ZM217.337 216.123C218.294 216.123 219.196 215.59 219.62 214.776H219.647V216H220.775V211.085C220.775 209.67 219.723 208.768 218.055 208.768C216.373 208.768 215.32 209.711 215.238 210.941H216.387C216.537 210.244 217.111 209.813 218.027 209.813C219.012 209.813 219.586 210.333 219.586 211.201V211.796L217.549 211.912C215.908 212.008 214.972 212.773 214.972 213.99C214.972 215.269 215.922 216.123 217.337 216.123ZM224.788 216.123C226.456 216.123 227.563 215.228 227.563 213.901C227.563 213.081 227.078 212.479 226.142 212.274V212.22C226.853 212.056 227.317 211.413 227.317 210.688C227.317 209.547 226.436 208.768 224.815 208.768C223.312 208.768 222.286 209.513 222.136 210.688H223.291C223.387 210.121 223.975 209.759 224.815 209.759C225.731 209.759 226.155 210.189 226.155 210.784C226.155 211.481 225.69 211.823 224.788 211.823H223.722V212.794H224.788C225.861 212.794 226.395 213.156 226.395 213.956C226.395 214.646 225.82 215.139 224.788 215.139C223.906 215.139 223.318 214.776 223.182 214.154H221.979C222.102 215.357 223.229 216.123 224.788 216.123ZM237.681 211.078C237.469 209.868 236.423 208.768 234.707 208.768C232.738 208.768 231.453 210.23 231.453 212.445C231.453 214.708 232.745 216.123 234.721 216.123C236.32 216.123 237.462 215.173 237.694 213.826H236.519C236.293 214.612 235.671 215.077 234.728 215.077C233.49 215.077 232.663 214.072 232.663 212.445C232.663 210.859 233.477 209.813 234.714 209.813C235.719 209.813 236.3 210.395 236.505 211.078H237.681ZM241.707 208.979V208.986H242.896V208.979C242.896 207.879 243.771 207.045 244.927 207.045C246.014 207.045 246.882 207.804 246.882 208.754C246.882 209.574 246.567 210.101 245.241 211.495L241.769 215.152V216H248.276V214.906H243.471V214.879L245.966 212.302C247.613 210.6 248.112 209.779 248.112 208.679C248.112 207.168 246.725 205.972 244.961 205.972C243.102 205.972 241.707 207.257 241.707 208.979ZM253.15 216.164C255.447 216.164 256.773 214.175 256.773 211.058C256.773 207.961 255.44 205.972 253.15 205.972C250.86 205.972 249.514 207.975 249.514 211.064C249.514 214.182 250.847 216.164 253.15 216.164ZM253.15 215.091C251.605 215.091 250.751 213.519 250.751 211.058C250.751 208.651 251.626 207.052 253.15 207.052C254.675 207.052 255.536 208.638 255.536 211.064C255.536 213.525 254.688 215.091 253.15 215.091ZM260.567 216H261.757V206.136H260.554L257.929 208.022V209.321L260.54 207.441H260.567V216ZM268.948 216H270.138V213.949H271.532V212.869H270.138V206.136H268.319C265.988 209.479 264.833 211.276 263.992 212.835V213.949H268.948V216ZM265.209 212.842C265.988 211.475 267.062 209.827 268.928 207.161H268.948V212.869H265.209V212.842ZM68.792 233H69.9746V225.891H64.1777V233H65.3535V226.868H68.792V233ZM74.5957 233.123C76.5576 233.123 77.8838 231.708 77.8838 229.445C77.8838 227.176 76.5576 225.768 74.5957 225.768C72.627 225.768 71.3008 227.176 71.3008 229.445C71.3008 231.708 72.627 233.123 74.5957 233.123ZM74.5957 232.077C73.3379 232.077 72.5107 231.12 72.5107 229.445C72.5107 227.771 73.3379 226.813 74.5957 226.813C75.8535 226.813 76.6738 227.771 76.6738 229.445C76.6738 231.12 75.8535 232.077 74.5957 232.077ZM81.9785 225.979V225.986H83.168V225.979C83.168 224.879 84.043 224.045 85.1982 224.045C86.2852 224.045 87.1533 224.804 87.1533 225.754C87.1533 226.574 86.8389 227.101 85.5127 228.495L82.04 232.152V233H88.5479V231.906H83.7422V231.879L86.2373 229.302C87.8848 227.6 88.3838 226.779 88.3838 225.679C88.3838 224.168 86.9961 222.972 85.2324 222.972C83.373 222.972 81.9785 224.257 81.9785 225.979ZM93.4219 233.164C95.7188 233.164 97.0449 231.175 97.0449 228.058C97.0449 224.961 95.7119 222.972 93.4219 222.972C91.1318 222.972 89.7852 224.975 89.7852 228.064C89.7852 231.182 91.1182 233.164 93.4219 233.164ZM93.4219 232.091C91.877 232.091 91.0225 230.519 91.0225 228.058C91.0225 225.651 91.8975 224.052 93.4219 224.052C94.9463 224.052 95.8076 225.638 95.8076 228.064C95.8076 230.525 94.96 232.091 93.4219 232.091ZM100.839 233H102.028V223.136H100.825L98.2002 225.022V226.321L100.812 224.441H100.839V233ZM107.921 233.164C110.013 233.164 111.503 231.988 111.503 230.334C111.503 229.11 110.655 228.099 109.377 227.798V227.771C110.45 227.429 111.1 226.595 111.1 225.569C111.1 224.065 109.767 222.972 107.921 222.972C106.089 222.972 104.735 224.072 104.735 225.562C104.735 226.602 105.398 227.442 106.465 227.771V227.798C105.193 228.092 104.346 229.104 104.346 230.334C104.346 231.981 105.836 233.164 107.921 233.164ZM107.921 232.091C106.567 232.091 105.597 231.318 105.597 230.245C105.597 229.165 106.567 228.393 107.921 228.393C109.281 228.393 110.245 229.158 110.245 230.245C110.245 231.318 109.281 232.091 107.921 232.091ZM107.921 227.312C106.766 227.312 105.959 226.636 105.959 225.679C105.959 224.715 106.766 224.031 107.921 224.031C109.076 224.031 109.883 224.708 109.883 225.679C109.883 226.636 109.069 227.312 107.921 227.312ZM113.697 233.068C114.135 233.068 114.477 232.727 114.477 232.289C114.477 231.852 114.135 231.51 113.697 231.51C113.26 231.51 112.918 231.852 112.918 232.289C112.918 232.727 113.26 233.068 113.697 233.068ZM126.419 233V223.136H118.688V233H119.925V224.257H125.202V233H126.419ZM131.744 225.768C130.712 225.768 129.885 226.294 129.447 227.094H129.42V225.891H128.292V235.372H129.481V231.845H129.509C129.933 232.624 130.753 233.123 131.771 233.123C133.562 233.123 134.786 231.674 134.786 229.445C134.786 227.217 133.556 225.768 131.744 225.768ZM131.512 232.077C130.295 232.077 129.475 231.031 129.475 229.445C129.475 227.866 130.295 226.813 131.512 226.813C132.776 226.813 133.569 227.839 133.569 229.445C133.569 231.059 132.776 232.077 131.512 232.077ZM139.059 233.123C141.021 233.123 142.347 231.708 142.347 229.445C142.347 227.176 141.021 225.768 139.059 225.768C137.09 225.768 135.764 227.176 135.764 229.445C135.764 231.708 137.09 233.123 139.059 233.123ZM139.059 232.077C137.801 232.077 136.974 231.12 136.974 229.445C136.974 227.771 137.801 226.813 139.059 226.813C140.316 226.813 141.137 227.771 141.137 229.445C141.137 231.12 140.316 232.077 139.059 232.077ZM148.246 232.022H144.78V231.968C145.115 231.517 145.3 230.744 145.361 229.862L145.58 226.868H148.246V232.022ZM143.933 234.88V233H149.449V234.88H150.557V232.022H149.429V225.891H144.534L144.261 229.835C144.192 230.792 143.939 231.681 143.42 232.022H142.825V234.88H143.933ZM153.975 232.111C153.12 232.111 152.553 231.667 152.553 230.99C152.553 230.32 153.1 229.896 154.057 229.835L155.957 229.719V230.3C155.957 231.325 155.096 232.111 153.975 232.111ZM153.708 233.123C154.665 233.123 155.567 232.59 155.991 231.776H156.019V233H157.146V228.085C157.146 226.67 156.094 225.768 154.426 225.768C152.744 225.768 151.691 226.711 151.609 227.941H152.758C152.908 227.244 153.482 226.813 154.398 226.813C155.383 226.813 155.957 227.333 155.957 228.201V228.796L153.92 228.912C152.279 229.008 151.343 229.773 151.343 230.99C151.343 232.269 152.293 233.123 153.708 233.123ZM164.946 229.254L168.05 225.891H166.601L163.764 229.035H163.709V225.891H162.533V229.035H162.485L159.648 225.891H158.186L161.303 229.274L158.11 233H159.614L162.485 229.582H162.533V233H163.709V229.582H163.764L166.635 233H168.159L164.946 229.254ZM170.34 233L173.895 227.709H173.949V233H175.125V225.891H173.949L170.395 231.182H170.34V225.891H169.164V233H170.34ZM184.347 233H185.522V225.891H184.347V228.823H180.84V225.891H179.664V233H180.84V229.801H184.347V233ZM189.549 232.111C188.694 232.111 188.127 231.667 188.127 230.99C188.127 230.32 188.674 229.896 189.631 229.835L191.531 229.719V230.3C191.531 231.325 190.67 232.111 189.549 232.111ZM189.282 233.123C190.239 233.123 191.142 232.59 191.565 231.776H191.593V233H192.721V228.085C192.721 226.67 191.668 225.768 190 225.768C188.318 225.768 187.266 226.711 187.184 227.941H188.332C188.482 227.244 189.057 226.813 189.973 226.813C190.957 226.813 191.531 227.333 191.531 228.201V228.796L189.494 228.912C187.854 229.008 186.917 229.773 186.917 230.99C186.917 232.269 187.867 233.123 189.282 233.123ZM203.836 233H205.128L201.491 223.136H200.274L196.638 233H197.93L198.921 230.177H202.845L203.836 233ZM200.862 224.633H200.903L202.482 229.131H199.283L200.862 224.633ZM207.377 233V227.955H207.425L209.722 232.795H210.631L212.928 227.955H212.976V233H214.158V225.891H212.771L210.228 231.428H210.173L207.644 225.891H206.201V233H207.377ZM218.178 232.111C217.323 232.111 216.756 231.667 216.756 230.99C216.756 230.32 217.303 229.896 218.26 229.835L220.16 229.719V230.3C220.16 231.325 219.299 232.111 218.178 232.111ZM217.911 233.123C218.868 233.123 219.771 232.59 220.194 231.776H220.222V233H221.35V228.085C221.35 226.67 220.297 225.768 218.629 225.768C216.947 225.768 215.895 226.711 215.812 227.941H216.961C217.111 227.244 217.686 226.813 218.602 226.813C219.586 226.813 220.16 227.333 220.16 228.201V228.796L218.123 228.912C216.482 229.008 215.546 229.773 215.546 230.99C215.546 232.269 216.496 233.123 217.911 233.123ZM225.362 233.123C227.03 233.123 228.138 232.228 228.138 230.901C228.138 230.081 227.652 229.479 226.716 229.274V229.22C227.427 229.056 227.892 228.413 227.892 227.688C227.892 226.547 227.01 225.768 225.39 225.768C223.886 225.768 222.86 226.513 222.71 227.688H223.865C223.961 227.121 224.549 226.759 225.39 226.759C226.306 226.759 226.729 227.189 226.729 227.784C226.729 228.481 226.265 228.823 225.362 228.823H224.296V229.794H225.362C226.436 229.794 226.969 230.156 226.969 230.956C226.969 231.646 226.395 232.139 225.362 232.139C224.48 232.139 223.893 231.776 223.756 231.154H222.553C222.676 232.357 223.804 233.123 225.362 233.123ZM232.451 233.123C234.413 233.123 235.739 231.708 235.739 229.445C235.739 227.176 234.413 225.768 232.451 225.768C230.482 225.768 229.156 227.176 229.156 229.445C229.156 231.708 230.482 233.123 232.451 233.123ZM232.451 232.077C231.193 232.077 230.366 231.12 230.366 229.445C230.366 227.771 231.193 226.813 232.451 226.813C233.709 226.813 234.529 227.771 234.529 229.445C234.529 231.12 233.709 232.077 232.451 232.077ZM241.741 233H242.917V225.891H241.741V228.823H238.234V225.891H237.059V233H238.234V229.801H241.741V233ZM247.367 225.979V225.986H248.557V225.979C248.557 224.879 249.432 224.045 250.587 224.045C251.674 224.045 252.542 224.804 252.542 225.754C252.542 226.574 252.228 227.101 250.901 228.495L247.429 232.152V233H253.937V231.906H249.131V231.879L251.626 229.302C253.273 227.6 253.772 226.779 253.772 225.679C253.772 224.168 252.385 222.972 250.621 222.972C248.762 222.972 247.367 224.257 247.367 225.979ZM258.811 233.164C261.107 233.164 262.434 231.175 262.434 228.058C262.434 224.961 261.101 222.972 258.811 222.972C256.521 222.972 255.174 224.975 255.174 228.064C255.174 231.182 256.507 233.164 258.811 233.164ZM258.811 232.091C257.266 232.091 256.411 230.519 256.411 228.058C256.411 225.651 257.286 224.052 258.811 224.052C260.335 224.052 261.196 225.638 261.196 228.064C261.196 230.525 260.349 232.091 258.811 232.091ZM264.361 234.962L265.298 231.482H264.033L263.37 234.962H264.361ZM270.657 233.164C272.715 233.164 274.171 231.776 274.171 229.794C274.171 227.88 272.804 226.492 270.91 226.492C269.967 226.492 269.146 226.848 268.702 227.442H268.675L268.976 224.229H273.61V223.136H267.964L267.424 228.659H268.579C268.982 227.969 269.769 227.552 270.691 227.552C272.004 227.552 272.94 228.502 272.94 229.828C272.94 231.154 272.011 232.084 270.671 232.084C269.488 232.084 268.593 231.359 268.483 230.307H267.273C267.376 231.988 268.771 233.164 270.657 233.164ZM70.8018 249V243.955H70.8496L73.1465 248.795H74.0557L76.3525 243.955H76.4004V249H77.583V241.891H76.1953L73.6523 247.428H73.5977L71.0684 241.891H69.626V249H70.8018ZM81.1514 245.862L81.3701 242.868H83.79V249H84.9658V241.891H80.3105L80.0371 245.835C79.9482 247.141 79.6816 247.968 78.9775 247.968C78.8066 247.968 78.6768 247.934 78.6152 247.913V248.986C78.6973 249.021 78.834 249.062 79.0391 249.062C80.5361 249.062 81.0078 247.824 81.1514 245.862ZM90.1064 241.768C89.0742 241.768 88.2471 242.294 87.8096 243.094H87.7822V241.891H86.6543V251.372H87.8438V247.845H87.8711C88.2949 248.624 89.1152 249.123 90.1338 249.123C91.9248 249.123 93.1484 247.674 93.1484 245.445C93.1484 243.217 91.918 241.768 90.1064 241.768ZM89.874 248.077C88.6572 248.077 87.8369 247.031 87.8369 245.445C87.8369 243.866 88.6572 242.813 89.874 242.813C91.1387 242.813 91.9316 243.839 91.9316 245.445C91.9316 247.059 91.1387 248.077 89.874 248.077ZM99.0479 248.022H95.582V247.968C95.917 247.517 96.1016 246.744 96.1631 245.862L96.3818 242.868H99.0479V248.022ZM94.7344 250.88V249H100.251V250.88H101.358V248.022H100.23V241.891H95.3359L95.0625 245.835C94.9941 246.792 94.7412 247.681 94.2217 248.022H93.627V250.88H94.7344ZM103.655 250.962L104.592 247.482H103.327L102.664 250.962H103.655ZM111.599 249.123C113.561 249.123 114.887 247.708 114.887 245.445C114.887 243.176 113.561 241.768 111.599 241.768C109.63 241.768 108.304 243.176 108.304 245.445C108.304 247.708 109.63 249.123 111.599 249.123ZM111.599 248.077C110.341 248.077 109.514 247.12 109.514 245.445C109.514 243.771 110.341 242.813 111.599 242.813C112.856 242.813 113.677 243.771 113.677 245.445C113.677 247.12 112.856 248.077 111.599 248.077ZM119.255 249.123C121.312 249.123 122.577 247.749 122.577 245.514C122.577 243.395 121.354 242.041 119.433 242.041C118.339 242.041 117.45 242.479 116.985 243.319H116.931C117.218 241.193 117.806 240.325 119.781 240.25L120.308 240.229C121.128 240.195 121.88 240.018 122.105 239.812V238.773C121.702 238.985 120.937 239.122 120.253 239.156L119.727 239.177C116.965 239.279 115.926 240.913 115.926 244.837C115.926 247.66 117.074 249.123 119.255 249.123ZM119.255 248.07C117.915 248.07 117.143 247.147 117.143 245.514C117.143 243.962 117.915 243.08 119.255 243.08C120.588 243.08 121.36 243.962 121.36 245.514C121.36 247.147 120.588 248.07 119.255 248.07ZM127.485 249C129.119 249 130.165 248.063 130.165 246.58C130.165 245.097 129.119 244.16 127.485 244.16H126.146V241.891H123.062V242.868H124.97V249H127.485ZM127.472 245.138C128.388 245.138 128.989 245.705 128.989 246.58C128.989 247.448 128.395 248.022 127.472 248.022H126.146V245.138H127.472ZM134.321 242.8C135.442 242.8 136.188 243.647 136.215 244.837H132.353C132.428 243.654 133.207 242.8 134.321 242.8ZM136.188 246.963C135.989 247.633 135.326 248.091 134.424 248.091C133.146 248.091 132.346 247.195 132.346 245.835V245.767H137.445V245.315C137.445 243.162 136.263 241.768 134.342 241.768C132.38 241.768 131.122 243.265 131.122 245.473C131.122 247.708 132.359 249.123 134.396 249.123C135.948 249.123 137.151 248.207 137.356 246.963H136.188ZM139.94 249V243.955H139.988L142.285 248.795H143.194L145.491 243.955H145.539V249H146.722V241.891H145.334L142.791 247.428H142.736L140.207 241.891H138.765V249H139.94ZM155.875 249H157.058V241.891H151.261V249H152.437V242.868H155.875V249ZM162.185 241.768C161.152 241.768 160.325 242.294 159.888 243.094H159.86V241.891H158.732V251.372H159.922V247.845H159.949C160.373 248.624 161.193 249.123 162.212 249.123C164.003 249.123 165.227 247.674 165.227 245.445C165.227 243.217 163.996 241.768 162.185 241.768ZM161.952 248.077C160.735 248.077 159.915 247.031 159.915 245.445C159.915 243.866 160.735 242.813 161.952 242.813C163.217 242.813 164.01 243.839 164.01 245.445C164.01 247.059 163.217 248.077 161.952 248.077ZM169.499 249.123C171.461 249.123 172.787 247.708 172.787 245.445C172.787 243.176 171.461 241.768 169.499 241.768C167.53 241.768 166.204 243.176 166.204 245.445C166.204 247.708 167.53 249.123 169.499 249.123ZM169.499 248.077C168.241 248.077 167.414 247.12 167.414 245.445C167.414 243.771 168.241 242.813 169.499 242.813C170.757 242.813 171.577 243.771 171.577 245.445C171.577 247.12 170.757 248.077 169.499 248.077ZM178.687 248.022H175.221V247.968C175.556 247.517 175.74 246.744 175.802 245.862L176.021 242.868H178.687V248.022ZM174.373 250.88V249H179.89V250.88H180.997V248.022H179.869V241.891H174.975L174.701 245.835C174.633 246.792 174.38 247.681 173.86 248.022H173.266V250.88H174.373ZM184.415 248.111C183.561 248.111 182.993 247.667 182.993 246.99C182.993 246.32 183.54 245.896 184.497 245.835L186.397 245.719V246.3C186.397 247.325 185.536 248.111 184.415 248.111ZM184.148 249.123C185.105 249.123 186.008 248.59 186.432 247.776H186.459V249H187.587V244.085C187.587 242.67 186.534 241.768 184.866 241.768C183.185 241.768 182.132 242.711 182.05 243.941H183.198C183.349 243.244 183.923 242.813 184.839 242.813C185.823 242.813 186.397 243.333 186.397 244.201V244.796L184.36 244.912C182.72 245.008 181.783 245.773 181.783 246.99C181.783 248.269 182.733 249.123 184.148 249.123ZM195.387 245.254L198.49 241.891H197.041L194.204 245.035H194.149V241.891H192.974V245.035H192.926L190.089 241.891H188.626L191.743 245.274L188.551 249H190.055L192.926 245.582H192.974V249H194.149V245.582H194.204L197.075 249H198.6L195.387 245.254ZM207.678 241.891H201.908V242.868H204.205V249H205.381V242.868H207.678V241.891ZM211.595 249.123C213.557 249.123 214.883 247.708 214.883 245.445C214.883 243.176 213.557 241.768 211.595 241.768C209.626 241.768 208.3 243.176 208.3 245.445C208.3 247.708 209.626 249.123 211.595 249.123ZM211.595 248.077C210.337 248.077 209.51 247.12 209.51 245.445C209.51 243.771 210.337 242.813 211.595 242.813C212.853 242.813 213.673 243.771 213.673 245.445C213.673 247.12 212.853 248.077 211.595 248.077ZM219.08 242.854C219.825 242.854 220.229 243.203 220.229 243.832C220.229 244.516 219.798 244.844 218.902 244.844H217.378V242.854H219.08ZM218.998 245.801C220.037 245.801 220.536 246.17 220.536 246.929C220.536 247.646 220.071 248.036 219.21 248.036H217.378V245.801H218.998ZM216.202 249H219.265C220.775 249 221.705 248.214 221.705 246.956C221.705 246.067 221.117 245.418 220.222 245.295V245.24C220.878 245.104 221.391 244.434 221.391 243.709C221.391 242.581 220.577 241.891 219.244 241.891H216.202V249ZM225.417 248.111C224.562 248.111 223.995 247.667 223.995 246.99C223.995 246.32 224.542 245.896 225.499 245.835L227.399 245.719V246.3C227.399 247.325 226.538 248.111 225.417 248.111ZM225.15 249.123C226.107 249.123 227.01 248.59 227.434 247.776H227.461V249H228.589V244.085C228.589 242.67 227.536 241.768 225.868 241.768C224.187 241.768 223.134 242.711 223.052 243.941H224.2C224.351 243.244 224.925 242.813 225.841 242.813C226.825 242.813 227.399 243.333 227.399 244.201V244.796L225.362 244.912C223.722 245.008 222.785 245.773 222.785 246.99C222.785 248.269 223.735 249.123 225.15 249.123ZM233.688 241.768C232.656 241.768 231.829 242.294 231.392 243.094H231.364V241.891H230.236V251.372H231.426V247.845H231.453C231.877 248.624 232.697 249.123 233.716 249.123C235.507 249.123 236.73 247.674 236.73 245.445C236.73 243.217 235.5 241.768 233.688 241.768ZM233.456 248.077C232.239 248.077 231.419 247.031 231.419 245.445C231.419 243.866 232.239 242.813 233.456 242.813C234.721 242.813 235.514 243.839 235.514 245.445C235.514 247.059 234.721 248.077 233.456 248.077ZM241.003 249.123C242.965 249.123 244.291 247.708 244.291 245.445C244.291 243.176 242.965 241.768 241.003 241.768C239.034 241.768 237.708 243.176 237.708 245.445C237.708 247.708 239.034 249.123 241.003 249.123ZM241.003 248.077C239.745 248.077 238.918 247.12 238.918 245.445C238.918 243.771 239.745 242.813 241.003 242.813C242.261 242.813 243.081 243.771 243.081 245.445C243.081 247.12 242.261 248.077 241.003 248.077ZM248.488 242.854C249.233 242.854 249.637 243.203 249.637 243.832C249.637 244.516 249.206 244.844 248.311 244.844H246.786V242.854H248.488ZM248.406 245.801C249.445 245.801 249.944 246.17 249.944 246.929C249.944 247.646 249.479 248.036 248.618 248.036H246.786V245.801H248.406ZM245.61 249H248.673C250.184 249 251.113 248.214 251.113 246.956C251.113 246.067 250.525 245.418 249.63 245.295V245.24C250.286 245.104 250.799 244.434 250.799 243.709C250.799 242.581 249.985 241.891 248.652 241.891H245.61V249ZM260.027 249H261.203V241.891H260.027V244.823H256.521V241.891H255.345V249H256.521V245.801H260.027V249ZM265.229 248.111C264.375 248.111 263.808 247.667 263.808 246.99C263.808 246.32 264.354 245.896 265.312 245.835L267.212 245.719V246.3C267.212 247.325 266.351 248.111 265.229 248.111ZM264.963 249.123C265.92 249.123 266.822 248.59 267.246 247.776H267.273V249H268.401V244.085C268.401 242.67 267.349 241.768 265.681 241.768C263.999 241.768 262.946 242.711 262.864 243.941H264.013C264.163 243.244 264.737 242.813 265.653 242.813C266.638 242.813 267.212 243.333 267.212 244.201V244.796L265.175 244.912C263.534 245.008 262.598 245.773 262.598 246.99C262.598 248.269 263.548 249.123 264.963 249.123ZM152.758 266H154.05L150.413 256.136H149.196L145.56 266H146.852L147.843 263.177H151.767L152.758 266ZM149.784 257.633H149.825L151.404 262.131H148.205L149.784 257.633ZM156.299 266V260.955H156.347L158.644 265.795H159.553L161.85 260.955H161.897V266H163.08V258.891H161.692L159.149 264.428H159.095L156.565 258.891H155.123V266H156.299ZM167.1 265.111C166.245 265.111 165.678 264.667 165.678 263.99C165.678 263.32 166.225 262.896 167.182 262.835L169.082 262.719V263.3C169.082 264.325 168.221 265.111 167.1 265.111ZM166.833 266.123C167.79 266.123 168.692 265.59 169.116 264.776H169.144V266H170.271V261.085C170.271 259.67 169.219 258.768 167.551 258.768C165.869 258.768 164.816 259.711 164.734 260.941H165.883C166.033 260.244 166.607 259.813 167.523 259.813C168.508 259.813 169.082 260.333 169.082 261.201V261.796L167.045 261.912C165.404 262.008 164.468 262.773 164.468 263.99C164.468 265.269 165.418 266.123 166.833 266.123ZM174.284 266.123C175.952 266.123 177.06 265.228 177.06 263.901C177.06 263.081 176.574 262.479 175.638 262.274V262.22C176.349 262.056 176.813 261.413 176.813 260.688C176.813 259.547 175.932 258.768 174.312 258.768C172.808 258.768 171.782 259.513 171.632 260.688H172.787C172.883 260.121 173.471 259.759 174.312 259.759C175.228 259.759 175.651 260.189 175.651 260.784C175.651 261.481 175.187 261.823 174.284 261.823H173.218V262.794H174.284C175.357 262.794 175.891 263.156 175.891 263.956C175.891 264.646 175.316 265.139 174.284 265.139C173.402 265.139 172.814 264.776 172.678 264.154H171.475C171.598 265.357 172.726 266.123 174.284 266.123ZM181.373 266.123C183.335 266.123 184.661 264.708 184.661 262.445C184.661 260.176 183.335 258.768 181.373 258.768C179.404 258.768 178.078 260.176 178.078 262.445C178.078 264.708 179.404 266.123 181.373 266.123ZM181.373 265.077C180.115 265.077 179.288 264.12 179.288 262.445C179.288 260.771 180.115 259.813 181.373 259.813C182.631 259.813 183.451 260.771 183.451 262.445C183.451 264.12 182.631 265.077 181.373 265.077ZM190.663 266H191.839V258.891H190.663V261.823H187.156V258.891H185.98V266H187.156V262.801H190.663V266Z" fill="#222A33"/>
<path d="M187.67 86.2747C186.936 89.5022 184.839 92.2069 181.379 94.3889C177.918 96.5708 173.059 98.4994 166.804 100.175C160.544 101.852 155.37 102.611 151.281 102.454C147.192 102.296 144.008 100.953 141.73 98.4268C139.456 95.9022 137.87 93.5583 136.97 91.395C136.071 89.2318 135.021 85.9074 133.82 81.4218C132.618 76.9385 131.866 73.5349 131.562 71.211C131.258 68.8872 131.436 66.1737 132.097 63.0706C133.467 57.0596 140.51 52.3502 153.228 48.9424C165.748 45.5876 174.005 46.1973 177.998 50.7716C180.37 53.2753 182.006 55.6064 182.908 57.7648C183.809 59.9231 184.859 63.2475 186.058 67.738C187.261 72.2264 188.013 75.63 188.316 77.9488C188.618 80.2676 188.403 83.0429 187.67 86.2747Z" fill="#BDF3E9"/>
<path d="M171.5 65.9941L155.692 83.4941L149 76.9007" stroke="#1AD8B4" stroke-width="5" stroke-linecap="round" stroke-linejoin="round"/>
<defs>
<filter id="filter0_d" x="-130.499" y="0.628906" width="606.563" height="602.499" filterUnits="userSpaceOnUse" color-interpolation-filters="sRGB">
<feFlood flood-opacity="0" result="BackgroundImageFix"/>
<feColorMatrix in="SourceAlpha" type="matrix" values="0 0 0 0 0 0 0 0 0 0 0 0 0 0 0 0 0 0 127 0"/>
<feOffset dy="94"/>
<feGaussianBlur stdDeviation="57"/>
<feColorMatrix type="matrix" values="0 0 0 0 0.475983 0 0 0 0 0.475983 0 0 0 0 0.475983 0 0 0 0.1 0"/>
<feBlend mode="normal" in2="BackgroundImageFix" result="effect1_dropShadow"/>
<feBlend mode="normal" in="SourceGraphic" in2="effect1_dropShadow" result="shape"/>
</filter>
</defs>
</svg>
