<svg width="557" height="557" viewBox="0 0 557 557" fill="none" xmlns="http://www.w3.org/2000/svg">
<path d="M324.682 247.789C321.853 261.126 313.376 272.39 299.251 281.583C285.126 290.775 265.231 299.007 239.564 306.277C213.882 313.557 192.615 316.993 175.765 316.585C158.914 316.178 145.722 310.838 136.187 300.567C126.674 290.304 120 280.744 116.167 271.888C112.334 263.031 107.811 249.401 102.599 230.997C97.3853 212.603 94.0835 198.629 92.6938 189.076C91.304 179.522 91.8779 168.336 94.4153 155.516C99.6989 130.676 128.43 110.862 180.61 96.0711C231.979 81.5105 266.022 83.5318 282.739 102.135C292.655 112.307 299.534 121.811 303.375 130.647C307.216 139.483 311.739 153.113 316.943 171.537C322.163 189.952 325.465 203.926 326.849 213.459C328.232 222.991 327.51 234.435 324.682 247.789Z" fill="#278DCC"/>
<g filter="url(#filter0_d)">
<path d="M438.138 255.092C433.924 273.639 421.873 289.182 401.986 301.72C382.098 314.259 354.18 325.341 318.231 334.967C282.26 344.606 252.526 348.971 229.029 348.064C205.532 347.156 187.237 339.443 174.145 324.924C161.08 310.417 151.963 296.947 146.794 284.516C141.626 272.086 135.591 252.982 128.69 227.205C121.787 201.442 117.462 181.883 115.716 168.529C113.969 155.175 114.994 139.583 118.792 121.751C126.661 87.2084 167.137 60.1459 240.22 40.5634C312.168 21.2851 359.614 24.7888 382.559 51.0746C396.188 65.4625 405.592 78.8579 410.772 91.2608C415.953 103.664 421.987 122.767 428.876 148.572C435.787 174.364 440.112 193.923 441.851 207.248C443.59 220.573 442.352 236.521 438.138 255.092Z" fill="white"/>
</g>
<path d="M204.832 126V111.908H201.883V117.631H195.535V111.908H192.586V126H195.535V120.062H201.883V126H204.832ZM211.824 117.416C213.094 117.416 213.963 118.334 214.021 119.672H209.578C209.676 118.363 210.574 117.416 211.824 117.416ZM214.061 122.797C213.797 123.598 212.996 124.115 211.951 124.115C210.496 124.115 209.549 123.09 209.549 121.596V121.42H216.766V120.551C216.766 117.367 214.842 115.307 211.795 115.307C208.699 115.307 206.746 117.475 206.746 120.814C206.746 124.164 208.68 126.225 211.902 126.225C214.49 126.225 216.365 124.848 216.678 122.797H214.061ZM223.221 126.225C226.385 126.225 228.406 124.203 228.406 120.756C228.406 117.357 226.355 115.307 223.221 115.307C220.086 115.307 218.035 117.367 218.035 120.756C218.035 124.193 220.057 126.225 223.221 126.225ZM223.221 124.047C221.814 124.047 220.926 122.865 220.926 120.766C220.926 118.686 221.834 117.484 223.221 117.484C224.607 117.484 225.506 118.686 225.506 120.766C225.506 122.865 224.617 124.047 223.221 124.047ZM237.352 117.68V115.531H230.057V126H232.898V117.68H237.352ZM245.115 115.365C243.602 115.365 242.439 116.127 241.873 117.357H241.814V115.531H239.002V129.418H241.854V124.242H241.912C242.469 125.424 243.641 126.166 245.164 126.166C247.781 126.166 249.402 124.135 249.402 120.766C249.402 117.387 247.771 115.365 245.115 115.365ZM244.158 123.871C242.762 123.871 241.844 122.66 241.844 120.766C241.844 118.891 242.762 117.65 244.158 117.65C245.584 117.65 246.482 118.871 246.482 120.766C246.482 122.67 245.584 123.871 244.158 123.871ZM255.135 124.105C254.168 124.105 253.523 123.617 253.523 122.836C253.523 122.094 254.129 121.615 255.193 121.537L257.4 121.4V122.162C257.4 123.295 256.375 124.105 255.135 124.105ZM254.197 126.166C255.506 126.166 256.805 125.512 257.391 124.398H257.449V126H260.203V118.803C260.203 116.693 258.455 115.307 255.77 115.307C252.996 115.307 251.268 116.703 251.16 118.734H253.768C253.904 117.963 254.578 117.436 255.643 117.436C256.717 117.436 257.4 118.002 257.4 118.979V119.672L254.764 119.828C252.156 119.984 250.691 121.088 250.691 122.992C250.691 124.877 252.205 126.166 254.197 126.166ZM269.09 126H271.932V115.531H269.09V119.555H265.066V115.531H262.225V126H265.066V121.713H269.09V126ZM276.775 126L280.936 119.379H281.014V126H283.807V115.531H281.014L276.854 122.074H276.775V115.531H273.982V126H276.775ZM295.135 126V115.531H292.293V119.496C291.941 119.955 291.287 120.326 290.33 120.326C289.178 120.326 288.504 119.613 288.504 118.412V115.531H285.662V118.822C285.662 121.195 287.107 122.689 289.5 122.689C290.701 122.689 291.609 122.27 292.186 121.645H292.293V126H295.135ZM301.883 117.416C303.152 117.416 304.021 118.334 304.08 119.672H299.637C299.734 118.363 300.633 117.416 301.883 117.416ZM304.119 122.797C303.855 123.598 303.055 124.115 302.01 124.115C300.555 124.115 299.607 123.09 299.607 121.596V121.42H306.824V120.551C306.824 117.367 304.9 115.307 301.854 115.307C298.758 115.307 296.805 117.475 296.805 120.814C296.805 124.164 298.738 126.225 301.961 126.225C304.549 126.225 306.424 124.848 306.736 122.797H304.119ZM315.34 126H318.182V115.531H315.34V119.555H311.316V115.531H308.475V126H311.316V121.713H315.34V126ZM327.098 126H329.939V115.531H327.098V119.555H323.074V115.531H320.232V126H323.074V121.713H327.098V126ZM341.951 126H344.793V115.531H341.951V126ZM336.404 120.658C337.43 120.658 338.104 121.303 338.104 122.26C338.104 123.217 337.439 123.871 336.404 123.871H334.832V120.658H336.404ZM331.99 126H336.873C339.344 126 340.926 124.555 340.926 122.279C340.926 120.004 339.344 118.559 336.873 118.559H334.832V115.531H331.99V126ZM349.627 126L353.787 119.379H353.865V126H356.658V115.531H353.865L349.705 122.074H349.627V115.531H346.834V126H349.627ZM348.396 110.795C348.396 112.719 349.773 114.008 351.834 114.008C353.885 114.008 355.271 112.719 355.271 110.795H353.523C353.504 111.84 352.85 112.592 351.834 112.592C350.809 112.592 350.154 111.84 350.135 110.795H348.396ZM209.656 150.225C212.82 150.225 214.842 148.203 214.842 144.756C214.842 141.357 212.791 139.307 209.656 139.307C206.521 139.307 204.471 141.367 204.471 144.756C204.471 148.193 206.492 150.225 209.656 150.225ZM209.656 148.047C208.25 148.047 207.361 146.865 207.361 144.766C207.361 142.686 208.27 141.484 209.656 141.484C211.043 141.484 211.941 142.686 211.941 144.766C211.941 146.865 211.053 148.047 209.656 148.047ZM221.463 150.225C224.656 150.225 226.639 148.203 226.639 144.912C226.639 141.875 224.803 139.951 221.98 139.951C220.271 139.951 219.09 140.674 218.445 141.924H218.367C218.709 139.258 219.637 138.037 222.225 137.959L223.377 137.92C224.812 137.881 225.799 137.617 225.955 137.471V135.264C225.672 135.41 224.52 135.645 223.201 135.693L221.98 135.723C218.162 135.84 216.17 138.115 216.17 144.004C216.17 148.096 218.084 150.225 221.463 150.225ZM221.414 147.979C219.949 147.979 219.09 146.904 219.09 144.98C219.09 143.145 219.959 142.07 221.414 142.07C222.859 142.07 223.719 143.145 223.719 144.98C223.719 146.904 222.859 147.979 221.414 147.979ZM235.008 150C237.488 150 239.07 148.555 239.07 146.279C239.07 144.004 237.488 142.559 235.008 142.559H232.967V139.531H227.42V141.68H230.125V150H235.008ZM234.539 144.658C235.564 144.658 236.238 145.303 236.238 146.26C236.238 147.217 235.574 147.871 234.539 147.871H232.967V144.658H234.539ZM245.35 141.416C246.619 141.416 247.488 142.334 247.547 143.672H243.104C243.201 142.363 244.1 141.416 245.35 141.416ZM247.586 146.797C247.322 147.598 246.521 148.115 245.477 148.115C244.021 148.115 243.074 147.09 243.074 145.596V145.42H250.291V144.551C250.291 141.367 248.367 139.307 245.32 139.307C242.225 139.307 240.271 141.475 240.271 144.814C240.271 148.164 242.205 150.225 245.428 150.225C248.016 150.225 249.891 148.848 250.203 146.797H247.586ZM254.617 150V142.998H254.686L257.391 149.414H259.363L262.078 142.998H262.146V150H264.822V139.531H261.17L258.436 146.367H258.367L255.633 139.531H251.941V150H254.617ZM277.615 150H280.457V139.531H270.848V150H273.689V141.68H277.615V150ZM288.621 139.365C287.107 139.365 285.945 140.127 285.379 141.357H285.32V139.531H282.508V153.418H285.359V148.242H285.418C285.975 149.424 287.146 150.166 288.67 150.166C291.287 150.166 292.908 148.135 292.908 144.766C292.908 141.387 291.277 139.365 288.621 139.365ZM287.664 147.871C286.268 147.871 285.35 146.66 285.35 144.766C285.35 142.891 286.268 141.65 287.664 141.65C289.09 141.65 289.988 142.871 289.988 144.766C289.988 146.67 289.09 147.871 287.664 147.871ZM299.402 150.225C302.566 150.225 304.588 148.203 304.588 144.756C304.588 141.357 302.537 139.307 299.402 139.307C296.268 139.307 294.217 141.367 294.217 144.756C294.217 148.193 296.238 150.225 299.402 150.225ZM299.402 148.047C297.996 148.047 297.107 146.865 297.107 144.766C297.107 142.686 298.016 141.484 299.402 141.484C300.789 141.484 301.688 142.686 301.688 144.766C301.688 146.865 300.799 148.047 299.402 148.047ZM313.084 147.842H308.953V147.764C309.422 147.061 309.637 146.094 309.715 144.98L309.949 141.67H313.084V147.842ZM307.84 152.715V150H314.881V152.715H317.479V147.842H315.926V139.531H307.547L307.205 144.795C307.107 146.211 306.814 147.412 306.053 147.842H305.252V152.715H307.84ZM322.801 148.105C321.834 148.105 321.189 147.617 321.189 146.836C321.189 146.094 321.795 145.615 322.859 145.537L325.066 145.4V146.162C325.066 147.295 324.041 148.105 322.801 148.105ZM321.863 150.166C323.172 150.166 324.471 149.512 325.057 148.398H325.115V150H327.869V142.803C327.869 140.693 326.121 139.307 323.436 139.307C320.662 139.307 318.934 140.703 318.826 142.734H321.434C321.57 141.963 322.244 141.436 323.309 141.436C324.383 141.436 325.066 142.002 325.066 142.979V143.672L322.43 143.828C319.822 143.984 318.357 145.088 318.357 146.992C318.357 148.877 319.871 150.166 321.863 150.166ZM341.053 144.404L344.861 139.531H341.619L338.484 143.74H338.406V139.531H335.594V143.74H335.525L332.381 139.531H329.109L332.957 144.453L328.973 150H332.322L335.525 145.508H335.594V150H338.406V145.508H338.484L341.678 150H345.066L341.053 144.404Z" fill="#222A33"/>
<path opacity="0.7" d="M193.258 183.727V195H194.664V190.977H197.266C199.383 190.977 200.891 189.484 200.891 187.344C200.891 185.211 199.398 183.727 197.281 183.727H193.258ZM194.664 184.977H196.914C198.531 184.977 199.445 185.852 199.445 187.344C199.445 188.844 198.523 189.727 196.914 189.727H194.664V184.977ZM205.492 195.141C207.734 195.141 209.25 193.523 209.25 190.938C209.25 188.344 207.734 186.734 205.492 186.734C203.242 186.734 201.727 188.344 201.727 190.938C201.727 193.523 203.242 195.141 205.492 195.141ZM205.492 193.945C204.055 193.945 203.109 192.852 203.109 190.938C203.109 189.023 204.055 187.93 205.492 187.93C206.93 187.93 207.867 189.023 207.867 190.938C207.867 192.852 206.93 193.945 205.492 193.945ZM217.484 189.375C217.242 187.992 216.047 186.734 214.086 186.734C211.836 186.734 210.367 188.406 210.367 190.938C210.367 193.523 211.844 195.141 214.102 195.141C215.93 195.141 217.234 194.055 217.5 192.516H216.156C215.898 193.414 215.188 193.945 214.109 193.945C212.695 193.945 211.75 192.797 211.75 190.938C211.75 189.125 212.68 187.93 214.094 187.93C215.242 187.93 215.906 188.594 216.141 189.375H217.484ZM224.703 186.875H218.109V187.992H220.734V195H222.078V187.992H224.703V186.875ZM234.516 195H235.867V186.875H229.242V195H230.586V187.992H234.516V195ZM241.727 186.734C240.547 186.734 239.602 187.336 239.102 188.25H239.07V186.875H237.781V197.711H239.141V193.68H239.172C239.656 194.57 240.594 195.141 241.758 195.141C243.805 195.141 245.203 193.484 245.203 190.938C245.203 188.391 243.797 186.734 241.727 186.734ZM241.461 193.945C240.07 193.945 239.133 192.75 239.133 190.938C239.133 189.133 240.07 187.93 241.461 187.93C242.906 187.93 243.812 189.102 243.812 190.938C243.812 192.781 242.906 193.945 241.461 193.945ZM250.086 195.141C252.328 195.141 253.844 193.523 253.844 190.938C253.844 188.344 252.328 186.734 250.086 186.734C247.836 186.734 246.32 188.344 246.32 190.938C246.32 193.523 247.836 195.141 250.086 195.141ZM250.086 193.945C248.648 193.945 247.703 192.852 247.703 190.938C247.703 189.023 248.648 187.93 250.086 187.93C251.523 187.93 252.461 189.023 252.461 190.938C252.461 192.852 251.523 193.945 250.086 193.945ZM260.586 193.883H256.625V193.82C257.008 193.305 257.219 192.422 257.289 191.414L257.539 187.992H260.586V193.883ZM255.656 197.148V195H261.961V197.148H263.227V193.883H261.938V186.875H256.344L256.031 191.383C255.953 192.477 255.664 193.492 255.07 193.883H254.391V197.148H255.656ZM267.133 193.984C266.156 193.984 265.508 193.477 265.508 192.703C265.508 191.938 266.133 191.453 267.227 191.383L269.398 191.25V191.914C269.398 193.086 268.414 193.984 267.133 193.984ZM266.828 195.141C267.922 195.141 268.953 194.531 269.438 193.602H269.469V195H270.758V189.383C270.758 187.766 269.555 186.734 267.648 186.734C265.727 186.734 264.523 187.812 264.43 189.219H265.742C265.914 188.422 266.57 187.93 267.617 187.93C268.742 187.93 269.398 188.523 269.398 189.516V190.195L267.07 190.328C265.195 190.438 264.125 191.312 264.125 192.703C264.125 194.164 265.211 195.141 266.828 195.141ZM279.672 190.719L283.219 186.875H281.562L278.32 190.469H278.258V186.875H276.914V190.469H276.859L273.617 186.875H271.945L275.508 190.742L271.859 195H273.578L276.859 191.094H276.914V195H278.258V191.094H278.32L281.602 195H283.344L279.672 190.719ZM291.062 187.977C291.914 187.977 292.375 188.375 292.375 189.094C292.375 189.875 291.883 190.25 290.859 190.25H289.117V187.977H291.062ZM290.969 191.344C292.156 191.344 292.727 191.766 292.727 192.633C292.727 193.453 292.195 193.898 291.211 193.898H289.117V191.344H290.969ZM287.773 195H291.273C293 195 294.062 194.102 294.062 192.664C294.062 191.648 293.391 190.906 292.367 190.766V190.703C293.117 190.547 293.703 189.781 293.703 188.953C293.703 187.664 292.773 186.875 291.25 186.875H287.773V195ZM298.992 195.141C301.234 195.141 302.75 193.523 302.75 190.938C302.75 188.344 301.234 186.734 298.992 186.734C296.742 186.734 295.227 188.344 295.227 190.938C295.227 193.523 296.742 195.141 298.992 195.141ZM298.992 193.945C297.555 193.945 296.609 192.852 296.609 190.938C296.609 189.023 297.555 187.93 298.992 187.93C300.43 187.93 301.367 189.023 301.367 190.938C301.367 192.852 300.43 193.945 298.992 193.945ZM308.883 195V189.234H308.938L311.562 194.766H312.602L315.227 189.234H315.281V195H316.633V186.875H315.047L312.141 193.203H312.078L309.188 186.875H307.539V195H308.883ZM323.891 195H325.234V186.875H323.891V190.227H319.883V186.875H318.539V195H319.883V191.344H323.891V195ZM330.523 195.141C332.766 195.141 334.281 193.523 334.281 190.938C334.281 188.344 332.766 186.734 330.523 186.734C328.273 186.734 326.758 188.344 326.758 190.938C326.758 193.523 328.273 195.141 330.523 195.141ZM330.523 193.945C329.086 193.945 328.141 192.852 328.141 190.938C328.141 189.023 329.086 187.93 330.523 187.93C331.961 187.93 332.898 189.023 332.898 190.938C332.898 192.852 331.961 193.945 330.523 193.945ZM341.016 187.992V186.875H335.789V195H337.133V187.992H341.016ZM343.836 195L347.898 188.953H347.961V195H349.305V186.875H347.961L343.898 192.922H343.836V186.875H342.492V195H343.836ZM354.094 191.906L356.039 195H357.547L354.844 190.883L357.586 186.875H356.07L354.141 189.922H354.109L352.156 186.875H350.641L353.359 190.938L350.594 195H352.102L354.062 191.906H354.094ZM168.031 205.875H161.438V206.992H164.062V214H165.406V206.992H168.031V205.875ZM172.508 214.141C174.75 214.141 176.266 212.523 176.266 209.938C176.266 207.344 174.75 205.734 172.508 205.734C170.258 205.734 168.742 207.344 168.742 209.938C168.742 212.523 170.258 214.141 172.508 214.141ZM172.508 212.945C171.07 212.945 170.125 211.852 170.125 209.938C170.125 208.023 171.07 206.93 172.508 206.93C173.945 206.93 174.883 208.023 174.883 209.938C174.883 211.852 173.945 212.945 172.508 212.945ZM181.062 206.977C181.914 206.977 182.375 207.375 182.375 208.094C182.375 208.875 181.883 209.25 180.859 209.25H179.117V206.977H181.062ZM180.969 210.344C182.156 210.344 182.727 210.766 182.727 211.633C182.727 212.453 182.195 212.898 181.211 212.898H179.117V210.344H180.969ZM177.773 214H181.273C183 214 184.062 213.102 184.062 211.664C184.062 210.648 183.391 209.906 182.367 209.766V209.703C183.117 209.547 183.703 208.781 183.703 207.953C183.703 206.664 182.773 205.875 181.25 205.875H177.773V214ZM188.305 212.984C187.328 212.984 186.68 212.477 186.68 211.703C186.68 210.938 187.305 210.453 188.398 210.383L190.57 210.25V210.914C190.57 212.086 189.586 212.984 188.305 212.984ZM188 214.141C189.094 214.141 190.125 213.531 190.609 212.602H190.641V214H191.93V208.383C191.93 206.766 190.727 205.734 188.82 205.734C186.898 205.734 185.695 206.812 185.602 208.219H186.914C187.086 207.422 187.742 206.93 188.789 206.93C189.914 206.93 190.57 207.523 190.57 208.516V209.195L188.242 209.328C186.367 209.438 185.297 210.312 185.297 211.703C185.297 213.164 186.383 214.141 188 214.141ZM197.758 205.734C196.578 205.734 195.633 206.336 195.133 207.25H195.102V205.875H193.812V216.711H195.172V212.68H195.203C195.688 213.57 196.625 214.141 197.789 214.141C199.836 214.141 201.234 212.484 201.234 209.938C201.234 207.391 199.828 205.734 197.758 205.734ZM197.492 212.945C196.102 212.945 195.164 211.75 195.164 209.938C195.164 208.133 196.102 206.93 197.492 206.93C198.938 206.93 199.844 208.102 199.844 209.938C199.844 211.781 198.938 212.945 197.492 212.945ZM208.094 214H209.438V205.875H208.094V209.227H204.086V205.875H202.742V214H204.086V210.344H208.094V214ZM218.305 214H219.648V205.875H218.305V214ZM214.211 209.586C215.258 209.586 215.945 210.234 215.945 211.234C215.945 212.227 215.266 212.883 214.211 212.883H212.695V209.586H214.211ZM211.352 214H214.234C216.094 214 217.289 212.93 217.289 211.234C217.289 209.539 216.094 208.469 214.234 208.469H212.695V205.875H211.352V214ZM224.438 210.906L226.383 214H227.891L225.188 209.883L227.93 205.875H226.414L224.484 208.922H224.453L222.5 205.875H220.984L223.703 209.938L220.938 214H222.445L224.406 210.906H224.438ZM235.25 209.719L239.047 205.875H237.367L233.898 209.469H233.836V205.875H232.492V214H233.836V210.094H233.898L237.406 214H239.156L235.25 209.719ZM242.742 212.984C241.766 212.984 241.117 212.477 241.117 211.703C241.117 210.938 241.742 210.453 242.836 210.383L245.008 210.25V210.914C245.008 212.086 244.023 212.984 242.742 212.984ZM242.438 214.141C243.531 214.141 244.562 213.531 245.047 212.602H245.078V214H246.367V208.383C246.367 206.766 245.164 205.734 243.258 205.734C241.336 205.734 240.133 206.812 240.039 208.219H241.352C241.523 207.422 242.18 206.93 243.227 206.93C244.352 206.93 245.008 207.523 245.008 208.516V209.195L242.68 209.328C240.805 209.438 239.734 210.312 239.734 211.703C239.734 213.164 240.82 214.141 242.438 214.141ZM254.031 205.875H247.438V206.992H250.062V214H251.406V206.992H254.031V205.875ZM258.398 206.914C259.68 206.914 260.531 207.883 260.562 209.242H256.148C256.234 207.891 257.125 206.914 258.398 206.914ZM260.531 211.672C260.305 212.438 259.547 212.961 258.516 212.961C257.055 212.961 256.141 211.938 256.141 210.383V210.305H261.969V209.789C261.969 207.328 260.617 205.734 258.422 205.734C256.18 205.734 254.742 207.445 254.742 209.969C254.742 212.523 256.156 214.141 258.484 214.141C260.258 214.141 261.633 213.094 261.867 211.672H260.531ZM268.703 206.992V205.875H263.477V214H264.82V206.992H268.703ZM273.242 214.141C275.484 214.141 277 212.523 277 209.938C277 207.344 275.484 205.734 273.242 205.734C270.992 205.734 269.477 207.344 269.477 209.938C269.477 212.523 270.992 214.141 273.242 214.141ZM273.242 212.945C271.805 212.945 270.859 211.852 270.859 209.938C270.859 208.023 271.805 206.93 273.242 206.93C274.68 206.93 275.617 208.023 275.617 209.938C275.617 211.852 274.68 212.945 273.242 212.945ZM282.461 205.734C281.281 205.734 280.336 206.336 279.836 207.25H279.805V205.875H278.516V216.711H279.875V212.68H279.906C280.391 213.57 281.328 214.141 282.492 214.141C284.539 214.141 285.938 212.484 285.938 209.938C285.938 207.391 284.531 205.734 282.461 205.734ZM282.195 212.945C280.805 212.945 279.867 211.75 279.867 209.938C279.867 208.133 280.805 206.93 282.195 206.93C283.641 206.93 284.547 208.102 284.547 209.938C284.547 211.781 283.641 212.945 282.195 212.945ZM288.789 214L292.852 207.953H292.914V214H294.258V205.875H292.914L288.852 211.922H288.789V205.875H287.445V214H288.789ZM299.086 209.992C298.039 209.992 297.359 209.391 297.359 208.547C297.359 207.57 298.031 206.992 299.086 206.992H300.641V209.992H299.086ZM300.641 214H301.984V205.875H299.078C297.211 205.875 296.008 206.898 296.008 208.57C296.008 209.688 296.703 210.531 297.852 210.859L295.586 214H297.141L299.203 211.109H300.641V214ZM306.781 210.906L308.727 214H310.234L307.531 209.883L310.273 205.875H308.758L306.828 208.922H306.797L304.844 205.875H303.328L306.047 209.938L303.281 214H304.789L306.75 210.906H306.781ZM318.125 206.977C318.977 206.977 319.438 207.375 319.438 208.094C319.438 208.875 318.945 209.25 317.922 209.25H316.18V206.977H318.125ZM318.031 210.344C319.219 210.344 319.789 210.766 319.789 211.633C319.789 212.453 319.258 212.898 318.273 212.898H316.18V210.344H318.031ZM314.836 214H318.336C320.062 214 321.125 213.102 321.125 211.664C321.125 210.648 320.453 209.906 319.43 209.766V209.703C320.18 209.547 320.766 208.781 320.766 207.953C320.766 206.664 319.836 205.875 318.312 205.875H314.836V214ZM329.633 214H330.977V205.875H329.633V214ZM325.539 209.586C326.586 209.586 327.273 210.234 327.273 211.234C327.273 212.227 326.594 212.883 325.539 212.883H324.023V209.586H325.539ZM322.68 214H325.562C327.422 214 328.617 212.93 328.617 211.234C328.617 209.539 327.422 208.469 325.562 208.469H324.023V205.875H322.68V214ZM336.836 205.734C335.656 205.734 334.711 206.336 334.211 207.25H334.18V205.875H332.891V216.711H334.25V212.68H334.281C334.766 213.57 335.703 214.141 336.867 214.141C338.914 214.141 340.312 212.484 340.312 209.938C340.312 207.391 338.906 205.734 336.836 205.734ZM336.57 212.945C335.18 212.945 334.242 211.75 334.242 209.938C334.242 208.133 335.18 206.93 336.57 206.93C338.016 206.93 338.922 208.102 338.922 209.938C338.922 211.781 338.016 212.945 336.57 212.945ZM345.195 214.141C347.438 214.141 348.953 212.523 348.953 209.938C348.953 207.344 347.438 205.734 345.195 205.734C342.945 205.734 341.43 207.344 341.43 209.938C341.43 212.523 342.945 214.141 345.195 214.141ZM345.195 212.945C343.758 212.945 342.812 211.852 342.812 209.938C342.812 208.023 343.758 206.93 345.195 206.93C346.633 206.93 347.57 208.023 347.57 209.938C347.57 211.852 346.633 212.945 345.195 212.945ZM357.188 208.375C356.945 206.992 355.75 205.734 353.789 205.734C351.539 205.734 350.07 207.406 350.07 209.938C350.07 212.523 351.547 214.141 353.805 214.141C355.633 214.141 356.938 213.055 357.203 211.516H355.859C355.602 212.414 354.891 212.945 353.812 212.945C352.398 212.945 351.453 211.797 351.453 209.938C351.453 208.125 352.383 206.93 353.797 206.93C354.945 206.93 355.609 207.594 355.844 208.375H357.188ZM365.188 206.977C366.039 206.977 366.5 207.375 366.5 208.094C366.5 208.875 366.008 209.25 364.984 209.25H363.242V206.977H365.188ZM365.094 210.344C366.281 210.344 366.852 210.766 366.852 211.633C366.852 212.453 366.32 212.898 365.336 212.898H363.242V210.344H365.094ZM361.898 214H365.398C367.125 214 368.188 213.102 368.188 211.664C368.188 210.648 367.516 209.906 366.492 209.766V209.703C367.242 209.547 367.828 208.781 367.828 207.953C367.828 206.664 366.898 205.875 365.375 205.875H361.898V214ZM375.859 214H377.219V202.727H375.844L372.844 204.883V206.367L375.828 204.219H375.859V214ZM384.023 214.188C386.648 214.188 388.164 211.914 388.164 208.352C388.164 204.812 386.641 202.539 384.023 202.539C381.406 202.539 379.867 204.828 379.867 208.359C379.867 211.922 381.391 214.188 384.023 214.188ZM384.023 212.961C382.258 212.961 381.281 211.164 381.281 208.352C381.281 205.602 382.281 203.773 384.023 203.773C385.766 203.773 386.75 205.586 386.75 208.359C386.75 211.172 385.781 212.961 384.023 212.961ZM166.539 224.734C165.359 224.734 164.414 225.336 163.914 226.25H163.883V224.875H162.594V235.711H163.953V231.68H163.984C164.469 232.57 165.406 233.141 166.57 233.141C168.617 233.141 170.016 231.484 170.016 228.938C170.016 226.391 168.609 224.734 166.539 224.734ZM166.273 231.945C164.883 231.945 163.945 230.75 163.945 228.938C163.945 227.133 164.883 225.93 166.273 225.93C167.719 225.93 168.625 227.102 168.625 228.938C168.625 230.781 167.719 231.945 166.273 231.945ZM174.211 231.984C173.234 231.984 172.586 231.477 172.586 230.703C172.586 229.938 173.211 229.453 174.305 229.383L176.477 229.25V229.914C176.477 231.086 175.492 231.984 174.211 231.984ZM173.906 233.141C175 233.141 176.031 232.531 176.516 231.602H176.547V233H177.836V227.383C177.836 225.766 176.633 224.734 174.727 224.734C172.805 224.734 171.602 225.812 171.508 227.219H172.82C172.992 226.422 173.648 225.93 174.695 225.93C175.82 225.93 176.477 226.523 176.477 227.516V228.195L174.148 228.328C172.273 228.438 171.203 229.312 171.203 230.703C171.203 232.164 172.289 233.141 173.906 233.141ZM182.422 233.141C184.328 233.141 185.594 232.117 185.594 230.602C185.594 229.664 185.039 228.977 183.969 228.742V228.68C184.781 228.492 185.312 227.758 185.312 226.93C185.312 225.625 184.305 224.734 182.453 224.734C180.734 224.734 179.562 225.586 179.391 226.93H180.711C180.82 226.281 181.492 225.867 182.453 225.867C183.5 225.867 183.984 226.359 183.984 227.039C183.984 227.836 183.453 228.227 182.422 228.227H181.203V229.336H182.422C183.648 229.336 184.258 229.75 184.258 230.664C184.258 231.453 183.602 232.016 182.422 232.016C181.414 232.016 180.742 231.602 180.586 230.891H179.211C179.352 232.266 180.641 233.141 182.422 233.141ZM197.156 227.375C196.914 225.992 195.719 224.734 193.758 224.734C191.508 224.734 190.039 226.406 190.039 228.938C190.039 231.523 191.516 233.141 193.773 233.141C195.602 233.141 196.906 232.055 197.172 230.516H195.828C195.57 231.414 194.859 231.945 193.781 231.945C192.367 231.945 191.422 230.797 191.422 228.938C191.422 227.125 192.352 225.93 193.766 225.93C194.914 225.93 195.578 226.594 195.812 227.375H197.156ZM201.758 224.977V224.984H203.117V224.977C203.117 223.719 204.117 222.766 205.438 222.766C206.68 222.766 207.672 223.633 207.672 224.719C207.672 225.656 207.312 226.258 205.797 227.852L201.828 232.031V233H209.266V231.75H203.773V231.719L206.625 228.773C208.508 226.828 209.078 225.891 209.078 224.633C209.078 222.906 207.492 221.539 205.477 221.539C203.352 221.539 201.758 223.008 201.758 224.977ZM214.836 233.188C217.461 233.188 218.977 230.914 218.977 227.352C218.977 223.812 217.453 221.539 214.836 221.539C212.219 221.539 210.68 223.828 210.68 227.359C210.68 230.922 212.203 233.188 214.836 233.188ZM214.836 231.961C213.07 231.961 212.094 230.164 212.094 227.352C212.094 224.602 213.094 222.773 214.836 222.773C216.578 222.773 217.562 224.586 217.562 227.359C217.562 230.172 216.594 231.961 214.836 231.961ZM223.312 233H224.672V221.727H223.297L220.297 223.883V225.367L223.281 223.219H223.312V233ZM232.891 233H234.25V230.656H235.844V229.422H234.25V221.727H232.172C229.508 225.547 228.188 227.602 227.227 229.383V230.656H232.891V233ZM228.617 229.391C229.508 227.828 230.734 225.945 232.867 222.898H232.891V229.422H228.617V229.391ZM245.812 233H247.164V224.875H240.539V233H241.883V225.992H245.812V233ZM252.445 233.141C254.688 233.141 256.203 231.523 256.203 228.938C256.203 226.344 254.688 224.734 252.445 224.734C250.195 224.734 248.68 226.344 248.68 228.938C248.68 231.523 250.195 233.141 252.445 233.141ZM252.445 231.945C251.008 231.945 250.062 230.852 250.062 228.938C250.062 227.023 251.008 225.93 252.445 225.93C253.883 225.93 254.82 227.023 254.82 228.938C254.82 230.852 253.883 231.945 252.445 231.945ZM260.883 224.977V224.984H262.242V224.977C262.242 223.719 263.242 222.766 264.562 222.766C265.805 222.766 266.797 223.633 266.797 224.719C266.797 225.656 266.438 226.258 264.922 227.852L260.953 232.031V233H268.391V231.75H262.898V231.719L265.75 228.773C267.633 226.828 268.203 225.891 268.203 224.633C268.203 222.906 266.617 221.539 264.602 221.539C262.477 221.539 260.883 223.008 260.883 224.977ZM273.961 233.188C276.586 233.188 278.102 230.914 278.102 227.352C278.102 223.812 276.578 221.539 273.961 221.539C271.344 221.539 269.805 223.828 269.805 227.359C269.805 230.922 271.328 233.188 273.961 233.188ZM273.961 231.961C272.195 231.961 271.219 230.164 271.219 227.352C271.219 224.602 272.219 222.773 273.961 222.773C275.703 222.773 276.688 224.586 276.688 227.359C276.688 230.172 275.719 231.961 273.961 231.961ZM282.438 233H283.797V221.727H282.422L279.422 223.883V225.367L282.406 223.219H282.438V233ZM290.531 233.188C292.922 233.188 294.625 231.844 294.625 229.953C294.625 228.555 293.656 227.398 292.195 227.055V227.023C293.422 226.633 294.164 225.68 294.164 224.508C294.164 222.789 292.641 221.539 290.531 221.539C288.438 221.539 286.891 222.797 286.891 224.5C286.891 225.688 287.648 226.648 288.867 227.023V227.055C287.414 227.391 286.445 228.547 286.445 229.953C286.445 231.836 288.148 233.188 290.531 233.188ZM290.531 231.961C288.984 231.961 287.875 231.078 287.875 229.852C287.875 228.617 288.984 227.734 290.531 227.734C292.086 227.734 293.188 228.609 293.188 229.852C293.188 231.078 292.086 231.961 290.531 231.961ZM290.531 226.5C289.211 226.5 288.289 225.727 288.289 224.633C288.289 223.531 289.211 222.75 290.531 222.75C291.852 222.75 292.773 223.523 292.773 224.633C292.773 225.727 291.844 226.5 290.531 226.5ZM297.133 233.078C297.633 233.078 298.023 232.688 298.023 232.188C298.023 231.688 297.633 231.297 297.133 231.297C296.633 231.297 296.242 231.688 296.242 232.188C296.242 232.688 296.633 233.078 297.133 233.078ZM311.672 233V221.727H302.836V233H304.25V223.008H310.281V233H311.672ZM317.758 224.734C316.578 224.734 315.633 225.336 315.133 226.25H315.102V224.875H313.812V235.711H315.172V231.68H315.203C315.688 232.57 316.625 233.141 317.789 233.141C319.836 233.141 321.234 231.484 321.234 228.938C321.234 226.391 319.828 224.734 317.758 224.734ZM317.492 231.945C316.102 231.945 315.164 230.75 315.164 228.938C315.164 227.133 316.102 225.93 317.492 225.93C318.938 225.93 319.844 227.102 319.844 228.938C319.844 230.781 318.938 231.945 317.492 231.945ZM326.117 233.141C328.359 233.141 329.875 231.523 329.875 228.938C329.875 226.344 328.359 224.734 326.117 224.734C323.867 224.734 322.352 226.344 322.352 228.938C322.352 231.523 323.867 233.141 326.117 233.141ZM326.117 231.945C324.68 231.945 323.734 230.852 323.734 228.938C323.734 227.023 324.68 225.93 326.117 225.93C327.555 225.93 328.492 227.023 328.492 228.938C328.492 230.852 327.555 231.945 326.117 231.945ZM336.617 231.883H332.656V231.82C333.039 231.305 333.25 230.422 333.32 229.414L333.57 225.992H336.617V231.883ZM331.688 235.148V233H337.992V235.148H339.258V231.883H337.969V224.875H332.375L332.062 229.383C331.984 230.477 331.695 231.492 331.102 231.883H330.422V235.148H331.688ZM343.164 231.984C342.188 231.984 341.539 231.477 341.539 230.703C341.539 229.938 342.164 229.453 343.258 229.383L345.43 229.25V229.914C345.43 231.086 344.445 231.984 343.164 231.984ZM342.859 233.141C343.953 233.141 344.984 232.531 345.469 231.602H345.5V233H346.789V227.383C346.789 225.766 345.586 224.734 343.68 224.734C341.758 224.734 340.555 225.812 340.461 227.219H341.773C341.945 226.422 342.602 225.93 343.648 225.93C344.773 225.93 345.43 226.523 345.43 227.516V228.195L343.102 228.328C341.227 228.438 340.156 229.312 340.156 230.703C340.156 232.164 341.242 233.141 342.859 233.141ZM355.703 228.719L359.25 224.875H357.594L354.352 228.469H354.289V224.875H352.945V228.469H352.891L349.648 224.875H347.977L351.539 228.742L347.891 233H349.609L352.891 229.094H352.945V233H354.289V229.094H354.352L357.633 233H359.375L355.703 228.719ZM361.867 233L365.93 226.953H365.992V233H367.336V224.875H365.992L361.93 230.922H361.867V224.875H360.523V233H361.867ZM377.875 233H379.219V224.875H377.875V228.227H373.867V224.875H372.523V233H373.867V229.344H377.875V233ZM383.82 231.984C382.844 231.984 382.195 231.477 382.195 230.703C382.195 229.938 382.82 229.453 383.914 229.383L386.086 229.25V229.914C386.086 231.086 385.102 231.984 383.82 231.984ZM383.516 233.141C384.609 233.141 385.641 232.531 386.125 231.602H386.156V233H387.445V227.383C387.445 225.766 386.242 224.734 384.336 224.734C382.414 224.734 381.211 225.812 381.117 227.219H382.43C382.602 226.422 383.258 225.93 384.305 225.93C385.43 225.93 386.086 226.523 386.086 227.516V228.195L383.758 228.328C381.883 228.438 380.812 229.312 380.812 230.703C380.812 232.164 381.898 233.141 383.516 233.141ZM192.133 253H193.609L189.453 241.727H188.062L183.906 253H185.383L186.516 249.773H191L192.133 253ZM188.734 243.438H188.781L190.586 248.578H186.93L188.734 243.438ZM196.18 253V247.234H196.234L198.859 252.766H199.898L202.523 247.234H202.578V253H203.93V244.875H202.344L199.438 251.203H199.375L196.484 244.875H194.836V253H196.18ZM208.523 251.984C207.547 251.984 206.898 251.477 206.898 250.703C206.898 249.938 207.523 249.453 208.617 249.383L210.789 249.25V249.914C210.789 251.086 209.805 251.984 208.523 251.984ZM208.219 253.141C209.312 253.141 210.344 252.531 210.828 251.602H210.859V253H212.148V247.383C212.148 245.766 210.945 244.734 209.039 244.734C207.117 244.734 205.914 245.812 205.82 247.219H207.133C207.305 246.422 207.961 245.93 209.008 245.93C210.133 245.93 210.789 246.523 210.789 247.516V248.195L208.461 248.328C206.586 248.438 205.516 249.312 205.516 250.703C205.516 252.164 206.602 253.141 208.219 253.141ZM216.734 253.141C218.641 253.141 219.906 252.117 219.906 250.602C219.906 249.664 219.352 248.977 218.281 248.742V248.68C219.094 248.492 219.625 247.758 219.625 246.93C219.625 245.625 218.617 244.734 216.766 244.734C215.047 244.734 213.875 245.586 213.703 246.93H215.023C215.133 246.281 215.805 245.867 216.766 245.867C217.812 245.867 218.297 246.359 218.297 247.039C218.297 247.836 217.766 248.227 216.734 248.227H215.516V249.336H216.734C217.961 249.336 218.57 249.75 218.57 250.664C218.57 251.453 217.914 252.016 216.734 252.016C215.727 252.016 215.055 251.602 214.898 250.891H213.523C213.664 252.266 214.953 253.141 216.734 253.141ZM224.836 253.141C227.078 253.141 228.594 251.523 228.594 248.938C228.594 246.344 227.078 244.734 224.836 244.734C222.586 244.734 221.07 246.344 221.07 248.938C221.07 251.523 222.586 253.141 224.836 253.141ZM224.836 251.945C223.398 251.945 222.453 250.852 222.453 248.938C222.453 247.023 223.398 245.93 224.836 245.93C226.273 245.93 227.211 247.023 227.211 248.938C227.211 250.852 226.273 251.945 224.836 251.945ZM235.453 253H236.797V244.875H235.453V248.227H231.445V244.875H230.102V253H231.445V249.344H235.453V253ZM241.883 244.977V244.984H243.242V244.977C243.242 243.719 244.242 242.766 245.562 242.766C246.805 242.766 247.797 243.633 247.797 244.719C247.797 245.656 247.438 246.258 245.922 247.852L241.953 252.031V253H249.391V251.75H243.898V251.719L246.75 248.773C248.633 246.828 249.203 245.891 249.203 244.633C249.203 242.906 247.617 241.539 245.602 241.539C243.477 241.539 241.883 243.008 241.883 244.977ZM254.961 253.188C257.586 253.188 259.102 250.914 259.102 247.352C259.102 243.812 257.578 241.539 254.961 241.539C252.344 241.539 250.805 243.828 250.805 247.359C250.805 250.922 252.328 253.188 254.961 253.188ZM254.961 251.961C253.195 251.961 252.219 250.164 252.219 247.352C252.219 244.602 253.219 242.773 254.961 242.773C256.703 242.773 257.688 244.586 257.688 247.359C257.688 250.172 256.719 251.961 254.961 251.961ZM261.305 255.242L262.375 251.266H260.93L260.172 255.242H261.305ZM268.5 253.188C270.852 253.188 272.516 251.602 272.516 249.336C272.516 247.148 270.953 245.562 268.789 245.562C267.711 245.562 266.773 245.969 266.266 246.648H266.234L266.578 242.977H271.875V241.727H265.422L264.805 248.039H266.125C266.586 247.25 267.484 246.773 268.539 246.773C270.039 246.773 271.109 247.859 271.109 249.375C271.109 250.891 270.047 251.953 268.516 251.953C267.164 251.953 266.141 251.125 266.016 249.922H264.633C264.75 251.844 266.344 253.188 268.5 253.188ZM278.648 253V247.234H278.703L281.328 252.766H282.367L284.992 247.234H285.047V253H286.398V244.875H284.812L281.906 251.203H281.844L278.953 244.875H277.305V253H278.648ZM290.477 249.414L290.727 245.992H293.492V253H294.836V244.875H289.516L289.203 249.383C289.102 250.875 288.797 251.82 287.992 251.82C287.797 251.82 287.648 251.781 287.578 251.758V252.984C287.672 253.023 287.828 253.07 288.062 253.07C289.773 253.07 290.312 251.656 290.477 249.414ZM300.711 244.734C299.531 244.734 298.586 245.336 298.086 246.25H298.055V244.875H296.766V255.711H298.125V251.68H298.156C298.641 252.57 299.578 253.141 300.742 253.141C302.789 253.141 304.188 251.484 304.188 248.938C304.188 246.391 302.781 244.734 300.711 244.734ZM300.445 251.945C299.055 251.945 298.117 250.75 298.117 248.938C298.117 247.133 299.055 245.93 300.445 245.93C301.891 245.93 302.797 247.102 302.797 248.938C302.797 250.781 301.891 251.945 300.445 251.945ZM310.93 251.883H306.969V251.82C307.352 251.305 307.562 250.422 307.633 249.414L307.883 245.992H310.93V251.883ZM306 255.148V253H312.305V255.148H313.57V251.883H312.281V244.875H306.688L306.375 249.383C306.297 250.477 306.008 251.492 305.414 251.883H304.734V255.148H306ZM316.195 255.242L317.266 251.266H315.82L315.062 255.242H316.195ZM325.273 253.141C327.516 253.141 329.031 251.523 329.031 248.938C329.031 246.344 327.516 244.734 325.273 244.734C323.023 244.734 321.508 246.344 321.508 248.938C321.508 251.523 323.023 253.141 325.273 253.141ZM325.273 251.945C323.836 251.945 322.891 250.852 322.891 248.938C322.891 247.023 323.836 245.93 325.273 245.93C326.711 245.93 327.648 247.023 327.648 248.938C327.648 250.852 326.711 251.945 325.273 251.945ZM334.023 253.141C336.375 253.141 337.82 251.57 337.82 249.016C337.82 246.594 336.422 245.047 334.227 245.047C332.977 245.047 331.961 245.547 331.43 246.508H331.367C331.695 244.078 332.367 243.086 334.625 243L335.227 242.977C336.164 242.938 337.023 242.734 337.281 242.5V241.312C336.82 241.555 335.945 241.711 335.164 241.75L334.562 241.773C331.406 241.891 330.219 243.758 330.219 248.242C330.219 251.469 331.531 253.141 334.023 253.141ZM334.023 251.938C332.492 251.938 331.609 250.883 331.609 249.016C331.609 247.242 332.492 246.234 334.023 246.234C335.547 246.234 336.43 247.242 336.43 249.016C336.43 250.883 335.547 251.938 334.023 251.938ZM343.43 253C345.297 253 346.492 251.93 346.492 250.234C346.492 248.539 345.297 247.469 343.43 247.469H341.898V244.875H338.375V245.992H340.555V253H343.43ZM343.414 248.586C344.461 248.586 345.148 249.234 345.148 250.234C345.148 251.227 344.469 251.883 343.414 251.883H341.898V248.586H343.414ZM351.242 245.914C352.523 245.914 353.375 246.883 353.406 248.242H348.992C349.078 246.891 349.969 245.914 351.242 245.914ZM353.375 250.672C353.148 251.438 352.391 251.961 351.359 251.961C349.898 251.961 348.984 250.938 348.984 249.383V249.305H354.812V248.789C354.812 246.328 353.461 244.734 351.266 244.734C349.023 244.734 347.586 246.445 347.586 248.969C347.586 251.523 349 253.141 351.328 253.141C353.102 253.141 354.477 252.094 354.711 250.672H353.375ZM357.664 253V247.234H357.719L360.344 252.766H361.383L364.008 247.234H364.062V253H365.414V244.875H363.828L360.922 251.203H360.859L357.969 244.875H356.32V253H357.664ZM184.648 272H186V263.875H179.375V272H180.719V264.992H184.648V272ZM191.859 263.734C190.68 263.734 189.734 264.336 189.234 265.25H189.203V263.875H187.914V274.711H189.273V270.68H189.305C189.789 271.57 190.727 272.141 191.891 272.141C193.938 272.141 195.336 270.484 195.336 267.938C195.336 265.391 193.93 263.734 191.859 263.734ZM191.594 270.945C190.203 270.945 189.266 269.75 189.266 267.938C189.266 266.133 190.203 264.93 191.594 264.93C193.039 264.93 193.945 266.102 193.945 267.938C193.945 269.781 193.039 270.945 191.594 270.945ZM200.219 272.141C202.461 272.141 203.977 270.523 203.977 267.938C203.977 265.344 202.461 263.734 200.219 263.734C197.969 263.734 196.453 265.344 196.453 267.938C196.453 270.523 197.969 272.141 200.219 272.141ZM200.219 270.945C198.781 270.945 197.836 269.852 197.836 267.938C197.836 266.023 198.781 264.93 200.219 264.93C201.656 264.93 202.594 266.023 202.594 267.938C202.594 269.852 201.656 270.945 200.219 270.945ZM210.719 270.883H206.758V270.82C207.141 270.305 207.352 269.422 207.422 268.414L207.672 264.992H210.719V270.883ZM205.789 274.148V272H212.094V274.148H213.359V270.883H212.07V263.875H206.477L206.164 268.383C206.086 269.477 205.797 270.492 205.203 270.883H204.523V274.148H205.789ZM217.266 270.984C216.289 270.984 215.641 270.477 215.641 269.703C215.641 268.938 216.266 268.453 217.359 268.383L219.531 268.25V268.914C219.531 270.086 218.547 270.984 217.266 270.984ZM216.961 272.141C218.055 272.141 219.086 271.531 219.57 270.602H219.602V272H220.891V266.383C220.891 264.766 219.688 263.734 217.781 263.734C215.859 263.734 214.656 264.812 214.562 266.219H215.875C216.047 265.422 216.703 264.93 217.75 264.93C218.875 264.93 219.531 265.523 219.531 266.516V267.195L217.203 267.328C215.328 267.438 214.258 268.312 214.258 269.703C214.258 271.164 215.344 272.141 216.961 272.141ZM229.805 267.719L233.352 263.875H231.695L228.453 267.469H228.391V263.875H227.047V267.469H226.992L223.75 263.875H222.078L225.641 267.742L221.992 272H223.711L226.992 268.094H227.047V272H228.391V268.094H228.453L231.734 272H233.477L229.805 267.719ZM243.852 263.875H237.258V264.992H239.883V272H241.227V264.992H243.852V263.875ZM248.328 272.141C250.57 272.141 252.086 270.523 252.086 267.938C252.086 265.344 250.57 263.734 248.328 263.734C246.078 263.734 244.562 265.344 244.562 267.938C244.562 270.523 246.078 272.141 248.328 272.141ZM248.328 270.945C246.891 270.945 245.945 269.852 245.945 267.938C245.945 266.023 246.891 264.93 248.328 264.93C249.766 264.93 250.703 266.023 250.703 267.938C250.703 269.852 249.766 270.945 248.328 270.945ZM256.883 264.977C257.734 264.977 258.195 265.375 258.195 266.094C258.195 266.875 257.703 267.25 256.68 267.25H254.938V264.977H256.883ZM256.789 268.344C257.977 268.344 258.547 268.766 258.547 269.633C258.547 270.453 258.016 270.898 257.031 270.898H254.938V268.344H256.789ZM253.594 272H257.094C258.82 272 259.883 271.102 259.883 269.664C259.883 268.648 259.211 267.906 258.188 267.766V267.703C258.938 267.547 259.523 266.781 259.523 265.953C259.523 264.664 258.594 263.875 257.07 263.875H253.594V272ZM264.125 270.984C263.148 270.984 262.5 270.477 262.5 269.703C262.5 268.938 263.125 268.453 264.219 268.383L266.391 268.25V268.914C266.391 270.086 265.406 270.984 264.125 270.984ZM263.82 272.141C264.914 272.141 265.945 271.531 266.43 270.602H266.461V272H267.75V266.383C267.75 264.766 266.547 263.734 264.641 263.734C262.719 263.734 261.516 264.812 261.422 266.219H262.734C262.906 265.422 263.562 264.93 264.609 264.93C265.734 264.93 266.391 265.523 266.391 266.516V267.195L264.062 267.328C262.188 267.438 261.117 268.312 261.117 269.703C261.117 271.164 262.203 272.141 263.82 272.141ZM273.578 263.734C272.398 263.734 271.453 264.336 270.953 265.25H270.922V263.875H269.633V274.711H270.992V270.68H271.023C271.508 271.57 272.445 272.141 273.609 272.141C275.656 272.141 277.055 270.484 277.055 267.938C277.055 265.391 275.648 263.734 273.578 263.734ZM273.312 270.945C271.922 270.945 270.984 269.75 270.984 267.938C270.984 266.133 271.922 264.93 273.312 264.93C274.758 264.93 275.664 266.102 275.664 267.938C275.664 269.781 274.758 270.945 273.312 270.945ZM281.938 272.141C284.18 272.141 285.695 270.523 285.695 267.938C285.695 265.344 284.18 263.734 281.938 263.734C279.688 263.734 278.172 265.344 278.172 267.938C278.172 270.523 279.688 272.141 281.938 272.141ZM281.938 270.945C280.5 270.945 279.555 269.852 279.555 267.938C279.555 266.023 280.5 264.93 281.938 264.93C283.375 264.93 284.312 266.023 284.312 267.938C284.312 269.852 283.375 270.945 281.938 270.945ZM290.492 264.977C291.344 264.977 291.805 265.375 291.805 266.094C291.805 266.875 291.312 267.25 290.289 267.25H288.547V264.977H290.492ZM290.398 268.344C291.586 268.344 292.156 268.766 292.156 269.633C292.156 270.453 291.625 270.898 290.641 270.898H288.547V268.344H290.398ZM287.203 272H290.703C292.43 272 293.492 271.102 293.492 269.664C293.492 268.648 292.82 267.906 291.797 267.766V267.703C292.547 267.547 293.133 266.781 293.133 265.953C293.133 264.664 292.203 263.875 290.68 263.875H287.203V272ZM303.68 272H305.023V263.875H303.68V267.227H299.672V263.875H298.328V272H299.672V268.344H303.68V272ZM309.625 270.984C308.648 270.984 308 270.477 308 269.703C308 268.938 308.625 268.453 309.719 268.383L311.891 268.25V268.914C311.891 270.086 310.906 270.984 309.625 270.984ZM309.32 272.141C310.414 272.141 311.445 271.531 311.93 270.602H311.961V272H313.25V266.383C313.25 264.766 312.047 263.734 310.141 263.734C308.219 263.734 307.016 264.812 306.922 266.219H308.234C308.406 265.422 309.062 264.93 310.109 264.93C311.234 264.93 311.891 265.523 311.891 266.516V267.195L309.562 267.328C307.688 267.438 306.617 268.312 306.617 269.703C306.617 271.164 307.703 272.141 309.32 272.141ZM325.953 272H327.43L323.273 260.727H321.883L317.727 272H319.203L320.336 268.773H324.82L325.953 272ZM322.555 262.438H322.602L324.406 267.578H320.75L322.555 262.438ZM330 272V266.234H330.055L332.68 271.766H333.719L336.344 266.234H336.398V272H337.75V263.875H336.164L333.258 270.203H333.195L330.305 263.875H328.656V272H330ZM342.344 270.984C341.367 270.984 340.719 270.477 340.719 269.703C340.719 268.938 341.344 268.453 342.438 268.383L344.609 268.25V268.914C344.609 270.086 343.625 270.984 342.344 270.984ZM342.039 272.141C343.133 272.141 344.164 271.531 344.648 270.602H344.68V272H345.969V266.383C345.969 264.766 344.766 263.734 342.859 263.734C340.938 263.734 339.734 264.812 339.641 266.219H340.953C341.125 265.422 341.781 264.93 342.828 264.93C343.953 264.93 344.609 265.523 344.609 266.516V267.195L342.281 267.328C340.406 267.438 339.336 268.312 339.336 269.703C339.336 271.164 340.422 272.141 342.039 272.141ZM350.555 272.141C352.461 272.141 353.727 271.117 353.727 269.602C353.727 268.664 353.172 267.977 352.102 267.742V267.68C352.914 267.492 353.445 266.758 353.445 265.93C353.445 264.625 352.438 263.734 350.586 263.734C348.867 263.734 347.695 264.586 347.523 265.93H348.844C348.953 265.281 349.625 264.867 350.586 264.867C351.633 264.867 352.117 265.359 352.117 266.039C352.117 266.836 351.586 267.227 350.555 267.227H349.336V268.336H350.555C351.781 268.336 352.391 268.75 352.391 269.664C352.391 270.453 351.734 271.016 350.555 271.016C349.547 271.016 348.875 270.602 348.719 269.891H347.344C347.484 271.266 348.773 272.141 350.555 272.141ZM358.656 272.141C360.898 272.141 362.414 270.523 362.414 267.938C362.414 265.344 360.898 263.734 358.656 263.734C356.406 263.734 354.891 265.344 354.891 267.938C354.891 270.523 356.406 272.141 358.656 272.141ZM358.656 270.945C357.219 270.945 356.273 269.852 356.273 267.938C356.273 266.023 357.219 264.93 358.656 264.93C360.094 264.93 361.031 266.023 361.031 267.938C361.031 269.852 360.094 270.945 358.656 270.945ZM369.273 272H370.617V263.875H369.273V267.227H365.266V263.875H363.922V272H365.266V268.344H369.273V272Z" fill="#222A33"/>
<path d="M293.67 66.2808C292.936 69.5083 290.839 72.213 287.379 74.395C283.918 76.5769 279.059 78.5055 272.804 80.1806C266.544 81.8579 261.37 82.6176 257.281 82.4597C253.192 82.3018 250.008 80.9595 247.73 78.4329C245.456 75.9083 243.87 73.5644 242.97 71.4012C242.071 69.2379 241.021 65.9135 239.82 61.4279C238.618 56.9446 237.866 53.541 237.562 51.2171C237.258 48.8933 237.436 46.1798 238.097 43.0767C239.467 37.0657 246.51 32.3563 259.228 28.9485C271.748 25.5937 280.005 26.2034 283.998 30.7777C286.37 33.2815 288.006 35.6125 288.908 37.7709C289.809 39.9292 290.859 43.2536 292.058 47.7441C293.261 52.2325 294.013 55.6361 294.316 57.9549C294.618 60.2737 294.403 63.049 293.67 66.2808Z" fill="#BDF3E9"/>
<path d="M277.5 46L261.692 63.5L255 56.9066" stroke="#1AD8B4" stroke-width="5" stroke-linecap="round" stroke-linejoin="round"/>
<defs>
<filter id="filter0_d" x="0.890381" y="8.32837" width="555.722" height="547.853" filterUnits="userSpaceOnUse" color-interpolation-filters="sRGB">
<feFlood flood-opacity="0" result="BackgroundImageFix"/>
<feColorMatrix in="SourceAlpha" type="matrix" values="0 0 0 0 0 0 0 0 0 0 0 0 0 0 0 0 0 0 127 0"/>
<feOffset dy="94"/>
<feGaussianBlur stdDeviation="57"/>
<feColorMatrix type="matrix" values="0 0 0 0 0.475983 0 0 0 0 0.475983 0 0 0 0 0.475983 0 0 0 0.1 0"/>
<feBlend mode="normal" in2="BackgroundImageFix" result="effect1_dropShadow"/>
<feBlend mode="normal" in="SourceGraphic" in2="effect1_dropShadow" result="shape"/>
</filter>
</defs>
</svg>
