<svg width="87" height="86" viewBox="0 0 87 86" fill="none" xmlns="http://www.w3.org/2000/svg">
<path d="M79.2887 57.87C78.3303 62.0879 75.5896 65.6227 71.0667 68.4743C66.5437 71.3258 60.1944 73.8462 52.0188 76.0355C43.8381 78.2275 37.0759 79.2203 31.7322 79.0139C26.3884 78.8075 22.2277 77.0534 19.25 73.7514C16.2788 70.452 14.2054 67.3888 13.0299 64.5617C11.8544 61.7346 10.482 57.39 8.91264 51.5278C7.34267 45.6686 6.35908 41.2205 5.96187 38.1834C5.56466 35.1464 5.79785 31.6002 6.66143 27.5449C8.45112 19.689 17.6564 13.5344 34.2772 9.08082C50.6399 4.69646 61.4304 5.4933 66.6486 11.4713C69.748 14.7435 71.8868 17.7899 73.0649 20.6106C74.2431 23.4314 75.6155 27.776 77.1822 33.6446C78.7539 39.5103 79.7375 43.9585 80.133 46.9889C80.5284 50.0193 80.247 53.6464 79.2887 57.87Z" fill="#CEE2E9"/>
<path d="M57.2 31H26.8C24.7013 31 23 32.7269 23 34.8571V54.1429C23 56.2731 24.7013 58 26.8 58H57.2C59.2987 58 61 56.2731 61 54.1429V34.8571C61 32.7269 59.2987 31 57.2 31Z" stroke="#278DCC" stroke-width="4" stroke-linecap="round" stroke-linejoin="round"/>
<path d="M49 58V27.7778C49 26.7758 48.6049 25.815 47.9016 25.1065C47.1984 24.398 46.2446 24 45.25 24H37.75C36.7554 24 35.8016 24.398 35.0984 25.1065C34.3951 25.815 34 26.7758 34 27.7778V58" stroke="#278DCC" stroke-width="4" stroke-linecap="round" stroke-linejoin="round"/>
</svg>
