<svg width="66" height="66" viewBox="0 0 66 66" fill="none" xmlns="http://www.w3.org/2000/svg">
<path d="M60.6698 44.2808C59.9365 47.5083 57.8394 50.213 54.3785 52.395C50.9177 54.5769 46.0593 56.5055 39.8035 58.1806C33.5439 59.8579 28.3696 60.6176 24.2807 60.4597C20.1918 60.3018 17.0081 58.9595 14.7297 56.4329C12.4561 53.9083 10.8697 51.5644 9.97018 49.4012C9.0707 47.2379 8.02055 43.9135 6.81974 39.4279C5.61844 34.9446 4.86582 31.541 4.56188 29.2171C4.25795 26.8933 4.43638 24.1798 5.09717 21.0767C6.4666 15.0657 13.5103 10.3563 26.2281 6.94851C38.7484 3.5937 47.0051 4.20342 50.9979 8.77767C53.3695 11.2815 55.0061 13.6125 55.9075 15.7709C56.809 17.9292 57.8592 21.2536 59.058 25.7441C60.2606 30.2325 61.0133 33.6361 61.3158 35.9549C61.6184 38.2737 61.4031 41.049 60.6698 44.2808Z" fill="#BDF3E9"/>
<path d="M44.5 24L28.6923 41.5L22 34.9066" stroke="#1AD8B4" stroke-width="5" stroke-linecap="round" stroke-linejoin="round"/>
</svg>
