<svg width="76" height="76" viewBox="0 0 76 76" fill="none" xmlns="http://www.w3.org/2000/svg">
<path d="M76 38C76 58.9868 58.9868 76 38 76C17.0132 76 0 58.9868 0 38C0 17.0132 17.0132 0 38 0C58.9868 0 76 17.0132 76 38Z" fill="#EFEFE8"/>
<path d="M30.1228 33.2304V33.3103H34.6015V33.2304C34.6015 31.103 36.249 29.5354 38.4884 29.5354C40.6318 29.5354 42.1514 30.911 42.1514 32.6385C42.1514 34.2381 41.4316 35.4057 39.0962 37.7411L30.3947 46.1227V49.3697H47.1739V45.5308H36.7609V45.4349L42.3913 40.0124C44.9346 37.4851 46.854 35.3258 46.854 32.4466C46.854 28.5917 43.511 25.7765 38.6484 25.7765C33.6098 25.7765 30.1228 28.8636 30.1228 33.2304Z" fill="#222A33"/>
<path d="M5.95964 34.6649C5.69663 36.3217 6.61866 37.5409 8.36271 37.8178C10.1068 38.0946 11.3566 37.2241 11.6202 35.5635C11.8833 33.9066 10.9644 32.6918 9.22036 32.415C7.47631 32.1381 6.22266 33.008 5.95964 34.6649ZM7.08949 34.8442C7.21287 34.067 7.95323 33.6637 8.99587 33.8292C10.0347 33.9941 10.6138 34.6069 10.4904 35.3841C10.3664 36.1651 9.62666 36.5647 8.58781 36.3998C7.54517 36.2342 6.96611 35.6215 7.08949 34.8442Z" fill="#222A33"/>
<path d="M11.0713 27.3821L9.38225 26.4151L10.0663 25.0158L13.0135 26.4566L12.1165 28.2912L12.0889 28.2777C11.9501 27.9487 11.6037 27.6852 11.0713 27.3821ZM12.8943 29.2922L14.4027 26.2069L15.3874 26.6882L15.9431 25.5516L13.9357 24.5702L13.6317 25.1921L9.66879 23.2547L7.82427 27.0275L10.3949 28.4855C11.0605 28.8665 11.3827 29.1268 11.4797 29.5938L11.3142 29.9324L13.3216 30.9137L13.879 29.7736L12.8943 29.2922Z" fill="#222A33"/>
<path d="M13.8951 17.1176C12.7388 18.333 12.8068 19.8601 14.0863 21.0772C15.3657 22.2943 16.8888 22.2862 18.0477 21.0679C19.204 19.8525 19.1361 18.3308 17.8567 17.1137C16.5773 15.8966 15.0514 15.9021 13.8951 17.1176ZM14.7239 17.906C15.2664 17.3359 16.1049 17.4235 16.8698 18.1512C17.6319 18.8762 17.7613 19.7093 17.2189 20.2794C16.6738 20.8524 15.8379 20.762 15.0758 20.037C14.3109 19.3093 14.1815 18.4762 14.7239 17.906Z" fill="#222A33"/>
<path d="M24.8815 13.2976C24.3492 12.3948 23.2826 12.2259 22.2343 12.8439L21.4208 13.3235L20.9724 12.5629L23.1319 11.2898L22.5568 10.3143L19.1836 12.3028L21.9968 17.0748L24.0736 15.8505C25.0955 15.2481 25.4332 14.2335 24.8815 13.2976ZM22.6587 15.4235L21.9394 14.2032L22.4983 13.8737C22.991 13.5832 23.4068 13.6233 23.6427 14.0235C23.8786 14.4236 23.7104 14.8035 23.2242 15.0901L22.6587 15.4235Z" fill="#222A33"/>
<path d="M26.3735 8.38629L27.9042 13.7102L29.2582 13.3209L28.8095 11.7602L29.6802 11.5099C30.8645 11.1694 31.4667 10.1934 31.14 9.05707C30.8112 7.91335 29.8232 7.39452 28.6794 7.72334L26.3735 8.38629ZM28.0256 9.03374L28.6196 8.86297C29.1878 8.69962 29.6131 8.90087 29.7723 9.45429C29.9324 10.0114 29.6789 10.4078 29.1034 10.5733L28.5167 10.742L28.0256 9.03374Z" fill="#222A33"/>
<path d="M38.2097 10.6853L35.8236 10.7757L35.7809 9.64784L38.025 9.56281L37.9858 8.52705L35.7416 8.61208L35.6999 7.51111L38.086 7.4207L38.043 6.2852L34.249 6.42896L34.4588 11.9645L38.2527 11.8208L38.2097 10.6853Z" fill="#222A33"/>
<path d="M45.6714 12.8583L46.9147 7.46011L45.5455 7.14476L45.0578 9.26215L42.9067 8.76672L43.3944 6.64934L42.0215 6.33313L40.7782 11.7313L42.1511 12.0475L42.6517 9.87405L44.8028 10.3695L44.3022 12.543L45.6714 12.8583Z" fill="#222A33"/>
<path d="M51.7376 15.4768L52.9599 16.1793L55.7297 11.3599L54.5574 10.6862L50.8915 12.5114L50.8581 12.4922L52.5569 9.53644L51.3345 8.83392L48.5647 13.6533L49.737 14.327L53.401 12.5052L53.4344 12.5244L51.7376 15.4768Z" fill="#222A33"/>
<path d="M58.901 19.8294L57.2267 18.1269L58.0315 17.3356L59.6061 18.9368L60.3451 18.2101L58.7705 16.6088L59.5561 15.8363L61.2303 17.5388L62.0405 16.7421L59.3784 14.035L55.4287 17.9191L58.0908 20.6262L58.901 19.8294Z" fill="#222A33"/>
<path d="M63.8862 24.8005L64.1958 25.4567C64.4301 25.9531 64.3522 26.3549 63.9877 26.5269C63.6127 26.7039 63.2084 26.5126 62.9888 26.0474C62.7497 25.5405 62.8301 25.0993 63.2038 24.9017L62.6305 23.6866C61.6693 24.1953 61.4121 25.3057 61.974 26.4965C62.5605 27.7394 63.6003 28.3058 64.5064 27.8782C65.173 27.5637 65.4388 26.9034 65.1906 26.1886L65.2184 26.1755C65.593 26.6906 66.2297 26.8614 66.8025 26.5911C67.6219 26.2044 67.81 25.1818 67.2694 24.0361C66.7092 22.8487 65.7222 22.3763 64.7333 22.8175L65.2805 23.9771C65.6793 23.8058 66.082 23.9936 66.3016 24.4588C66.5194 24.9206 66.4334 25.305 66.0793 25.4721C65.7251 25.6392 65.3568 25.4522 65.1471 25.0078L64.8375 24.3516L63.8862 24.8005Z" fill="#222A33"/>
<path d="M64.6598 34.2441L64.9143 35.7113L70.0265 32.945L69.7335 31.2558L63.9882 30.3729L64.2323 31.7799L65.485 31.9191L65.793 33.6949L64.6598 34.2441ZM68.7213 32.2568L68.7265 32.2869L66.7392 33.2517L66.5245 32.014L68.7213 32.2568Z" fill="#222A33"/>
<path d="M27.4886 67.1631L29.677 62.0905L28.3869 61.5339L27.5148 63.5552C27.4242 63.5912 27.0741 63.707 26.4976 63.4583C25.8789 63.1914 25.701 62.7144 25.9558 62.1238L26.5518 60.7423L25.2617 60.1857L24.6126 61.6902C24.1319 62.8046 24.5083 63.8843 25.7352 64.4136C26.4172 64.7078 26.9276 64.6361 27.0171 64.6122L27.0523 64.6274L26.1984 66.6065L27.4886 67.1631Z" fill="#222A33"/>
<path d="M35.1448 68.8803L36.6389 69.0292L35.3321 63.3161L33.6121 63.1446L31.2029 68.4872L32.6356 68.63L33.1092 67.4508L34.9173 67.6311L35.1448 68.8803ZM34.3112 64.3982L34.3418 64.4012L34.7424 66.5923L33.482 66.4666L34.3112 64.3982Z" fill="#222A33"/>
<path d="M42.5848 68.8192C43.944 68.5691 44.7705 67.5661 44.6717 66.3079L43.3238 66.5559C43.3027 67.1414 42.9468 67.562 42.3767 67.6669C41.6141 67.8073 41.0196 67.2492 40.823 66.1807C40.6285 65.1236 40.9892 64.3897 41.7443 64.2508C42.3068 64.1473 42.8077 64.4298 43.0289 64.9746L44.373 64.7273C44.0354 63.5287 42.8614 62.8547 41.5324 63.0993C39.9089 63.398 39.0844 64.666 39.4116 66.4443C39.7395 68.2264 40.9538 69.1193 42.5848 68.8192Z" fill="#222A33"/>
<path d="M52.0382 65.4976L53.3643 64.8026L49.1439 60.7602L47.6172 61.5602L48.5392 67.3311L49.811 66.6647L49.5589 65.4228L51.1639 64.5818L52.0382 65.4976ZM48.8867 62.2212L48.9139 62.2069L50.4487 63.8124L49.33 64.3986L48.8867 62.2212Z" fill="#222A33"/>
<path fill-rule="evenodd" clip-rule="evenodd" d="M10.4746 42.4828C11.5563 49.2493 15.0483 55.213 20.0446 59.4647L19.1954 60.4627C13.969 56.0151 10.3132 49.7743 9.18066 42.6896L10.4746 42.4828Z" fill="#222A33"/>
<path fill-rule="evenodd" clip-rule="evenodd" d="M65.4903 42.4828C64.4085 49.2493 60.9166 55.213 55.9203 59.4647L56.7695 60.4627C61.9958 56.0151 65.6516 49.7743 66.7842 42.6896L65.4903 42.4828Z" fill="#222A33"/>
</svg>
