<svg width="40" height="40" viewBox="0 0 40 40" fill="none" xmlns="http://www.w3.org/2000/svg">
<rect width="40" height="40" rx="20" fill="#4E555C"/>
<path d="M23.7994 12.0035L21.6063 12C19.1423 12 17.55 13.629 17.55 16.1503V18.0639H15.3449C15.1543 18.0639 15 18.2179 15 18.4079V21.1804C15 21.3704 15.1545 21.5243 15.3449 21.5243H17.55V28.5203C17.55 28.7103 17.7043 28.8642 17.8948 28.8642H20.7719C20.9625 28.8642 21.1168 28.7101 21.1168 28.5203V21.5243H23.6951C23.8857 21.5243 24.04 21.3704 24.04 21.1804L24.041 18.4079C24.041 18.3167 24.0046 18.2293 23.94 18.1647C23.8754 18.1002 23.7875 18.0639 23.696 18.0639H21.1168V16.4417C21.1168 15.662 21.3031 15.2662 22.3217 15.2662L23.7991 15.2657C23.9895 15.2657 24.1438 15.1117 24.1438 14.9218V12.3474C24.1438 12.1577 23.9896 12.0039 23.7994 12.0035Z" fill="white"/>
</svg>
