<svg width="1553" height="1553" viewBox="0 0 1553 1553" fill="none" xmlns="http://www.w3.org/2000/svg">
<path d="M631.817 751.891C636.009 774.782 629.939 798.069 613.608 821.751C597.277 845.433 571.212 871.344 535.412 899.485C499.593 927.651 468.251 946.882 441.384 957.178C414.517 967.474 390.224 967.609 368.504 957.584C346.822 947.557 330.08 936.797 318.279 925.304C306.478 913.811 290.489 895.23 270.313 869.559C250.14 843.905 235.856 823.988 227.46 809.808C219.063 795.629 212.707 777.596 208.39 755.71C200.605 713.066 233.1 663.131 305.874 605.906C377.517 549.57 432.573 530.66 471.041 549.176C493.3 558.796 510.33 569.334 522.13 580.79C533.931 592.246 549.919 610.828 570.096 636.536C590.291 662.219 604.576 682.136 612.949 696.287C621.323 710.437 627.612 728.972 631.817 751.891Z" fill="#222A33"/>
<path d="M439.538 1203.31C385.977 1175.58 348.145 1126.62 326.043 1056.43C303.941 986.236 292.916 892.966 292.967 776.615C293.039 660.26 304.172 566.998 326.365 496.828C348.558 426.657 387.378 377.742 442.824 350.081C498.246 322.413 547.195 305.823 589.671 300.312C632.096 294.791 695.818 292.061 780.835 292.12C865.765 292.176 929.477 294.984 971.974 300.543C1014.39 306.115 1061.47 321.844 1113.23 347.729C1212.92 399.456 1262.69 543.532 1262.55 779.956C1262.41 1012.67 1212.46 1153 1112.7 1200.95C1057.29 1230.44 1008.33 1247.96 965.84 1253.51C923.344 1259.01 859.628 1261.74 774.691 1261.7C689.669 1261.65 625.956 1258.84 583.552 1253.28C541.051 1247.71 493.046 1231.06 439.538 1203.31Z" fill="#FF4F45"/>
<g opacity="0.73">
<path opacity="0.73" d="M1418.67 1075.04L1449.89 1137.96C1449.89 1137.96 1408.34 1175.77 1438.45 1187.57C1438.45 1187.57 1404.83 1222.67 1449.5 1241.22C1487.66 1257.07 1531.57 1215.35 1524.8 1189.4C1517.17 1160.13 1495.08 1166.25 1495.08 1166.25C1495.08 1166.25 1515.87 1149.91 1507.78 1133.57C1498.1 1114.07 1459.48 1133.23 1459.48 1133.23L1424.2 1072.33L1418.67 1075.04Z" fill="white"/>
<path opacity="0.73" d="M1255.84 1136.8L1288.33 1199.09C1288.33 1199.09 1347.55 1170.31 1335.19 1219.01C1335.19 1219.01 1383.35 1212.47 1372.06 1259.54C1362.4 1299.78 1302.81 1310.65 1285.83 1289.97C1266.66 1266.55 1284.61 1252.38 1284.61 1252.38C1284.61 1252.38 1269 1259.74 1260.58 1243.61C1250.52 1224.31 1278.85 1204.15 1278.85 1204.15L1250.34 1139.62L1255.84 1136.8Z" fill="white"/>
<path opacity="0.73" d="M1531.31 1246.09C1533.53 1250.68 1531.06 1256.45 1525.8 1259C1520.54 1261.55 1514.46 1259.9 1512.25 1255.31C1510.05 1250.72 1512.51 1244.95 1517.78 1242.4C1523.04 1239.85 1529.1 1241.5 1531.31 1246.09Z" fill="white"/>
<path opacity="0.73" d="M1336.02 1330.47C1341.28 1327.92 1343.75 1322.14 1341.53 1317.56C1339.31 1312.97 1333.24 1311.33 1327.98 1313.88C1322.71 1316.43 1320.25 1322.22 1322.47 1326.8C1324.69 1331.38 1330.76 1333.02 1336.02 1330.47Z" fill="white"/>
<path opacity="0.73" d="M1506.93 1277.93C1507.25 1278.9 1507.29 1279.95 1507.04 1280.94C1506.79 1281.93 1506.26 1282.83 1505.51 1283.53C1504.76 1284.23 1503.82 1284.7 1502.81 1284.88C1501.8 1285.06 1500.76 1284.94 1499.82 1284.55C1498.87 1284.15 1498.06 1283.49 1497.48 1282.65C1496.9 1281.8 1496.58 1280.8 1496.55 1279.78C1496.52 1278.75 1496.79 1277.74 1497.33 1276.87C1497.86 1275.99 1498.63 1275.29 1499.55 1274.84C1500.94 1274.28 1502.5 1274.29 1503.88 1274.87C1505.26 1275.44 1506.35 1276.54 1506.93 1277.93Z" fill="white"/>
<path opacity="0.73" d="M1374.92 1325.75C1375.25 1326.72 1375.29 1327.77 1375.04 1328.76C1374.79 1329.75 1374.25 1330.65 1373.5 1331.35C1372.75 1332.05 1371.82 1332.52 1370.81 1332.7C1369.8 1332.88 1368.76 1332.76 1367.81 1332.37C1366.87 1331.97 1366.06 1331.31 1365.48 1330.47C1364.9 1329.62 1364.58 1328.62 1364.55 1327.6C1364.52 1326.57 1364.79 1325.56 1365.32 1324.69C1365.85 1323.81 1366.63 1323.11 1367.55 1322.66C1368.94 1322.09 1370.49 1322.1 1371.87 1322.68C1373.26 1323.26 1374.35 1324.36 1374.92 1325.75Z" fill="white"/>
<path opacity="0.73" d="M1378.35 1300.68C1378.77 1301.43 1378.95 1302.29 1378.87 1303.14C1378.79 1303.99 1378.46 1304.8 1377.92 1305.47C1377.38 1306.13 1376.65 1306.62 1375.83 1306.86C1375 1307.1 1374.13 1307.09 1373.31 1306.83C1372.49 1306.58 1371.77 1306.08 1371.24 1305.4C1370.71 1304.73 1370.4 1303.91 1370.34 1303.06C1370.28 1302.2 1370.47 1301.35 1370.9 1300.61C1371.33 1299.87 1371.97 1299.27 1372.75 1298.9C1373.23 1298.64 1373.76 1298.49 1374.31 1298.44C1374.85 1298.4 1375.4 1298.46 1375.92 1298.62C1376.44 1298.79 1376.92 1299.06 1377.34 1299.41C1377.76 1299.76 1378.1 1300.19 1378.35 1300.68Z" fill="white"/>
<path opacity="0.73" d="M1543.93 1286.7C1544.34 1287.45 1544.53 1288.31 1544.45 1289.16C1544.38 1290.02 1544.05 1290.83 1543.51 1291.5C1542.97 1292.16 1542.24 1292.65 1541.42 1292.89C1540.6 1293.14 1539.72 1293.13 1538.9 1292.88C1538.08 1292.62 1537.36 1292.12 1536.83 1291.45C1536.3 1290.78 1535.98 1289.96 1535.92 1289.11C1535.86 1288.25 1536.05 1287.4 1536.48 1286.65C1536.91 1285.91 1537.55 1285.31 1538.32 1284.94C1538.8 1284.69 1539.33 1284.53 1539.88 1284.48C1540.42 1284.44 1540.97 1284.5 1541.49 1284.66C1542.01 1284.82 1542.49 1285.09 1542.91 1285.44C1543.33 1285.79 1543.67 1286.22 1543.93 1286.7Z" fill="white"/>
</g>
<path d="M1374.86 969.841L1502.23 985.155L1509.54 1010L1346.43 1070.29L1307.86 994.977L1374.86 969.841Z" fill="#595959"/>
<path d="M1262.68 1003.83L1242.33 1010L1177.46 1110.51L1190.05 1132.29L1272.38 1101.55L1262.68 1003.83Z" fill="#595959"/>
<path d="M1229.25 965.314C1233.77 976.878 1241.4 986.967 1251.3 994.466C1261.19 1001.97 1272.97 1006.58 1285.33 1007.81L1329.08 973.208L1302.27 951.275L1272.38 940.358L1229.25 965.314Z" fill="#0F576F"/>
<path d="M1165.76 919.765C1164.56 921.101 1163.29 922.367 1161.95 923.556C1160.7 924.536 1159.85 925.945 1159.58 927.512C1159.37 930.927 1165.01 936.958 1165.35 940.308C1165.51 941.943 1170.61 936.647 1171.12 935.405C1172.02 933.297 1170.02 929.195 1170.42 926.891C1171.37 921.203 1167.52 917.64 1165.76 919.765Z" fill="#F9CBC2"/>
<path d="M1335.32 862.106C1333.69 860.831 1319.16 846.923 1320.42 844.521C1322.15 841.448 1329.6 850.813 1331.24 852.218C1330.52 849.802 1330.25 847.279 1330.42 844.766C1330.42 842.527 1329.91 834.453 1331.94 834.192C1333.96 833.93 1334.63 839.471 1335.21 843.769C1335.4 845.109 1335.79 848.018 1336.06 849.26C1335.86 844.733 1336.06 833.358 1339.11 834.028C1342.17 834.698 1340.86 847.315 1340.29 850.829C1341.38 846.302 1342.51 833.244 1346.01 834.388C1347.86 835.009 1345.09 847.103 1344.78 849.93C1345.88 848.133 1348.93 838.604 1351.78 839.863C1355.78 841.775 1347.45 853.934 1346.01 856.206C1344.57 858.478 1338.92 865.358 1334.45 861.55" fill="#FFC1B5"/>
<path d="M1344.05 856.5L1346.43 873.775L1333.43 871.798L1334.44 856.533L1344.05 856.5Z" fill="#FFC1B5"/>
<path d="M1391.43 1136.35C1391.43 1136.35 1466.84 1151.45 1474.91 1047.96L1470.81 1044.82L1467.24 1047.41C1467.24 1047.41 1451.06 1128.81 1396 1111.15L1382.93 1124.92L1391.43 1136.35Z" fill="#F9CBC2"/>
<path d="M1467.24 1047.41C1467.24 1047.41 1468.58 1030.46 1472.29 1030.2C1476 1029.94 1474.14 1038.04 1474.14 1038.04C1474.14 1038.04 1494.9 1033.69 1506.57 1045.69C1518.23 1057.69 1492.41 1049.32 1486.12 1048.81C1482.14 1048.61 1478.19 1049.5 1474.68 1051.39C1474.68 1051.39 1474.94 1045.92 1467.24 1047.41Z" fill="#D85050"/>
<path d="M1355.59 1152.49C1355.59 1152.49 1404.8 1211.59 1476.05 1136.15L1474.83 1131.12L1470.43 1130.89C1470.43 1130.89 1406.69 1184.1 1374.97 1135.79L1356.16 1138.31L1355.59 1152.49Z" fill="#F9CBC2"/>
<path d="M1470.43 1130.86C1470.43 1130.86 1482.12 1118.52 1485.14 1120.64C1488.16 1122.77 1481.66 1127.9 1481.66 1127.9C1481.66 1127.9 1500.54 1137.54 1502.09 1154.21C1503.64 1170.88 1488.8 1148.16 1484.21 1143.82C1481.24 1141.13 1477.57 1139.32 1473.63 1138.59C1473.63 1138.59 1477.36 1134.55 1470.43 1130.86Z" fill="#D85050"/>
<path d="M1274.62 994.977C1274.62 994.977 1218.89 1008.05 1172.59 932.774L1163.45 938.364C1163.45 938.364 1192.87 1020.08 1260.58 1023.58C1260.58 1023.58 1241.1 1129.09 1274.62 1134.07C1308.14 1139.06 1318.11 1122.11 1318.11 1122.11L1274.62 994.977Z" fill="#494949"/>
<path d="M1340.06 1090.23L1299.37 1116.24C1299.37 1116.24 1323.28 1160.58 1382.9 1174.36C1382.9 1174.36 1414.37 1125.64 1413.54 1105.96L1370.23 1090.23H1340.06Z" fill="#0F576F"/>
<path d="M1326.53 934.115C1336.79 931.5 1346.63 927.414 1356.86 924.636C1367.09 921.857 1378.01 920.419 1388.22 923.214C1398.44 926.008 1407.84 933.739 1410.16 944.084C1412.1 952.664 1409.06 961.718 1404.29 969.138C1395.5 982.85 1380.97 992.297 1365.34 996.922C1349.72 1001.55 1333.05 1001.65 1316.9 999.455C1310.68 998.835 1304.6 997.178 1298.92 994.552C1286.59 988.276 1279.54 975.234 1273.22 962.944C1268.2 953.138 1265.67 935.324 1281.08 935.961C1296.83 936.599 1310.92 938.086 1326.53 934.115Z" fill="#0F576F"/>
<path d="M1206.21 899.581C1206.21 899.581 1193.35 975.757 1247.75 980.889C1247.75 980.889 1267.56 977.865 1274.62 994.977C1274.62 994.977 1281.78 993.702 1287.34 985.171L1275.6 964.398L1284.31 933.902L1267.33 890.298L1206.21 899.581Z" fill="#FFC1B5"/>
<path d="M1278.5 957.061C1278.5 957.061 1265.42 980.317 1248.42 981.281C1248.42 981.281 1265.14 990.581 1281.39 960.411L1278.5 957.061Z" fill="#494949"/>
<path d="M1200.93 899.614C1200.93 899.614 1200.93 874.429 1223.94 867.271C1246.95 860.112 1272.55 866.405 1284.66 881.391C1296.77 896.378 1292.71 970.07 1272.25 972.914C1272.25 972.914 1269.49 976.084 1267.74 962.029L1257.64 911.365L1238.9 901.396L1206.88 901.281L1200.93 899.614Z" fill="#D85050"/>
<path d="M1184.29 914.781C1183.34 915.255 1182.54 916.001 1182 916.925C1181.47 917.85 1181.22 918.912 1181.29 919.978C1181.68 922.56 1184.36 924.064 1186.78 925.011C1193.4 927.885 1200.67 928.945 1207.84 928.084C1218.09 926.45 1226.65 919.553 1233.99 912.296C1234.94 911.365 1235.97 910.139 1235.63 908.864C1230.88 906.05 1225.65 904.169 1220.2 903.324C1212.66 902.425 1209.87 903.455 1204.87 908.096C1199.26 913.277 1190.6 911.25 1184.29 914.781Z" fill="#0F576F"/>
<path d="M1257.59 911.218C1257.59 911.218 1254.81 903.814 1252.69 902.016C1242.16 893.322 1200.93 899.614 1200.93 899.614L1202.94 909.632L1257.59 911.218Z" fill="#595959"/>
<path d="M1243.65 902.997H1243.41C1241.77 903.471 1242.03 906.266 1243.83 906.037H1244.08C1244.3 906.025 1244.51 905.968 1244.71 905.871C1244.9 905.775 1245.08 905.639 1245.22 905.473C1245.37 905.306 1245.47 905.113 1245.54 904.904C1245.61 904.695 1245.63 904.474 1245.61 904.256C1245.57 904.039 1245.49 903.832 1245.37 903.648C1245.25 903.464 1245.09 903.306 1244.91 903.184C1244.73 903.062 1244.52 902.978 1244.31 902.938C1244.09 902.897 1243.87 902.901 1243.65 902.948V902.997Z" fill="#333333"/>
<path d="M1209.84 906.56C1210.33 906.515 1210.79 906.286 1211.13 905.919C1211.46 905.551 1211.65 905.072 1211.65 904.574C1211.65 904.076 1211.46 903.597 1211.13 903.229C1210.79 902.862 1210.33 902.633 1209.84 902.588C1209.34 902.633 1208.88 902.862 1208.55 903.229C1208.21 903.597 1208.02 904.076 1208.02 904.574C1208.02 905.072 1208.21 905.551 1208.55 905.919C1208.88 906.286 1209.34 906.515 1209.84 906.56Z" fill="#333333"/>
<path d="M1253.16 910.679C1252.98 910.679 1263.93 977.457 1272.2 972.783C1272.2 972.783 1268.93 969.4 1257.59 911.153L1253.16 910.679Z" fill="#595959"/>
<path d="M1244.71 934.621C1244.94 934.8 1245.13 935.022 1245.28 935.275C1245.42 935.528 1245.51 935.807 1245.55 936.096C1245.58 936.384 1245.56 936.677 1245.48 936.957C1245.4 937.237 1245.27 937.498 1245.09 937.727C1244.34 938.723 1243.34 938.413 1242.38 937.727C1242.15 937.557 1241.95 937.344 1241.8 937.098C1241.66 936.852 1241.56 936.58 1241.52 936.296C1241.48 936.013 1241.5 935.724 1241.57 935.448C1241.65 935.172 1241.78 934.913 1241.95 934.687C1242.7 933.69 1243.8 933.886 1244.71 934.621Z" fill="#333333"/>
<path d="M1223.35 942.728C1223.26 943.308 1222.94 943.828 1222.47 944.174C1221.99 944.52 1221.4 944.664 1220.82 944.574C1219.58 944.395 1219.37 943.381 1219.53 942.188C1219.56 941.903 1219.65 941.627 1219.8 941.378C1219.94 941.129 1220.13 940.911 1220.36 940.737C1220.59 940.563 1220.85 940.437 1221.13 940.366C1221.41 940.295 1221.7 940.281 1221.98 940.325C1223.21 940.505 1223.52 941.535 1223.35 942.728Z" fill="#333333"/>
<path d="M1253.6 945.13C1253.77 946.437 1251.72 947.777 1249.01 948.121C1246.3 948.464 1243.96 947.63 1243.8 946.323C1243.64 945.015 1246.9 943.512 1249.6 943.169C1252.3 942.825 1253.41 943.757 1253.6 945.13Z" fill="#E89F91"/>
<path d="M1216.31 956.456C1215.74 955.279 1217.24 953.335 1219.68 952.141C1222.11 950.948 1224.58 950.916 1225.15 952.141C1225.72 953.367 1223.12 955.802 1220.69 957.044C1218.25 958.287 1216.9 957.633 1216.31 956.456Z" fill="#E89F91"/>
<path d="M1236.69 926.94C1238.12 927.079 1239.57 927.079 1241 926.94C1242.39 926.809 1244.06 926.94 1244.86 925.616C1245.11 925.276 1245.23 924.85 1245.17 924.429C1245.12 924.008 1244.9 923.625 1244.57 923.361C1243.46 922.266 1241.87 922.838 1240.51 923.05C1239.09 923.281 1237.68 923.636 1236.31 924.112C1236.02 924.244 1235.77 924.468 1235.61 924.751C1235.45 925.034 1235.39 925.361 1235.43 925.683C1235.47 926.005 1235.62 926.305 1235.85 926.537C1236.07 926.769 1236.37 926.922 1236.69 926.973V926.94Z" fill="#0F576F"/>
<path d="M1216.86 931.124C1215.41 931.765 1214.09 932.68 1212.98 933.82C1212.66 934.12 1212.47 934.523 1212.42 934.955C1212.38 935.386 1212.5 935.819 1212.75 936.174C1212.99 936.532 1213.36 936.787 1213.78 936.893C1214.2 936.998 1214.65 936.946 1215.03 936.746C1216.46 935.754 1217.68 934.481 1218.6 933.003C1218.74 932.756 1218.8 932.47 1218.77 932.187C1218.73 931.904 1218.61 931.638 1218.42 931.428C1218.23 931.219 1217.97 931.076 1217.69 931.022C1217.41 930.967 1217.12 931.003 1216.86 931.124Z" fill="#0F576F"/>
<path d="M1231.57 933.134C1230.75 938.133 1230.3 943.186 1230.22 948.251C1230.22 951.014 1230.22 956.292 1232.86 958.286C1235.51 960.28 1237.77 955.524 1238.06 953.171C1238.06 952.762 1237.54 952.435 1237.28 952.828C1236.75 954.082 1236.1 955.28 1235.33 956.407C1232.72 958.989 1231.84 952.942 1231.64 950.85C1231.28 944.977 1231.54 939.081 1232.44 933.265C1232.44 933.157 1232.41 933.052 1232.34 932.969C1232.27 932.887 1232.17 932.832 1232.06 932.816C1231.96 932.8 1231.85 932.823 1231.76 932.882C1231.67 932.941 1231.6 933.03 1231.57 933.134Z" fill="#BC6C6C"/>
<path d="M1248.95 967.798C1249.86 966.796 1250.49 965.572 1250.77 964.25C1251.06 962.927 1250.99 961.553 1250.58 960.264C1250.46 959.907 1250.26 959.583 1249.99 959.316C1249.43 958.986 1248.77 958.828 1248.12 958.859C1247.46 958.891 1246.83 959.112 1246.3 959.496C1245.2 960.29 1244.14 961.141 1243.13 962.045C1241.88 962.985 1240.43 963.633 1238.9 963.941C1237.97 964.033 1237.05 964.175 1236.13 964.366C1235.68 964.459 1235.24 964.643 1234.86 964.907C1234.47 965.171 1234.15 965.509 1233.89 965.902C1233.72 966.269 1233.64 966.671 1233.66 967.074C1233.68 967.478 1233.79 967.872 1233.99 968.223C1236.71 973.289 1244.75 972.815 1248.95 967.798Z" fill="#8C4542"/>
<path d="M1272.4 1000.84C1272.4 1000.84 1270.76 1076.19 1303.17 1124.3L1360.38 1082.28L1297.73 985.155H1287.37L1280.64 993.474L1272.4 1000.84Z" fill="#D85050"/>
<path d="M1274.62 994.977C1274.62 994.977 1269.1 1006.97 1272.2 1009.69C1275.31 1012.4 1281.39 994.977 1281.39 994.977C1281.39 994.977 1293.74 1004.78 1298.52 1002.48C1303.29 1000.17 1287.34 985.155 1287.34 985.155C1287.34 985.155 1281.39 993.212 1274.62 994.977Z" fill="white"/>
<path d="M1287.34 985.155C1287.34 985.155 1330.5 976.444 1331.99 867.483H1348.18C1348.18 867.483 1354.46 943.12 1321.48 1006.56C1321.48 1006.56 1354.97 1074.52 1382.95 1091.01C1382.95 1091.01 1368.45 1113.99 1353.97 1110C1339.49 1106.01 1301.67 1044.64 1287.34 985.155Z" fill="#494949"/>
<path d="M1082 876.684L1167.7 837.297L1198.15 892.488L1110.88 936.958L1082 876.684Z" fill="#333333"/>
<path d="M1144.04 917.428L1152.7 932.627L1177.02 920.37L1170.35 904.223L1165.29 906.217L1171.05 917.428L1153.73 927.201L1147.19 915.5L1144.04 917.428Z" fill="#494949"/>
<path d="M1161.95 923.884C1163.29 922.691 1164.56 921.425 1165.76 920.092C1166.85 918.68 1167.81 917.17 1168.62 915.582C1170.43 918.262 1171.69 921.71 1170.79 922.348C1170.36 922.621 1169.86 922.766 1169.35 922.766C1168.85 922.766 1168.35 922.621 1167.92 922.348C1167.92 922.348 1168.77 925.11 1167.33 926.025C1165.89 926.94 1163.72 925.093 1163.72 925.093C1163.72 925.093 1165.12 928.035 1163.6 928.983C1162.08 929.931 1160.89 927.692 1160.89 927.692C1160.89 927.692 1161.38 929.702 1160.42 930.503C1159.88 929.727 1159.6 928.799 1159.63 927.855C1159.89 926.29 1160.71 924.876 1161.95 923.884Z" fill="#E8B5AF"/>
<path d="M1167.3 921.71C1167.73 921.983 1168.22 922.128 1168.73 922.128C1169.24 922.128 1169.74 921.983 1170.17 921.71C1171.61 920.697 1168.15 912.394 1165.06 911.724C1161.97 911.054 1162.82 915.712 1162.82 915.712C1162.31 915.273 1161.68 915.017 1161.01 914.985C1160.34 914.952 1159.68 915.145 1159.14 915.532C1158.58 915.924 1158.2 916.524 1158.08 917.198C1157.96 917.872 1158.11 918.566 1158.5 919.128C1158.5 919.128 1156.75 917.493 1155.58 918.523C1154.4 919.553 1155.95 922.543 1155.95 922.543C1155.95 922.543 1153.09 921.612 1152.82 923.148C1152.54 924.684 1157.42 930.372 1159.16 930.012C1160.89 929.653 1160.2 926.923 1160.2 926.923C1160.2 926.923 1161.4 929.179 1162.92 928.215C1164.44 927.25 1163.03 924.325 1163.03 924.325C1163.03 924.325 1165.29 926.237 1166.71 925.322C1168.13 924.407 1167.3 921.71 1167.3 921.71Z" fill="#F9CBC2"/>
<path d="M1167.98 921.988C1167.34 921.105 1166.58 920.353 1165.91 919.487C1165.36 918.561 1164.68 917.719 1163.9 916.987C1163.68 916.856 1163.5 917.085 1163.52 917.281C1163.84 918.3 1164.4 919.225 1165.15 919.978C1165.83 920.9 1166.64 921.724 1167.54 922.429C1167.6 922.461 1167.67 922.473 1167.74 922.463C1167.81 922.452 1167.87 922.42 1167.92 922.371C1167.97 922.321 1168.01 922.258 1168.02 922.189C1168.03 922.12 1168.01 922.049 1167.98 921.988Z" fill="#E8B5AF"/>
<path d="M1163.72 924.766C1163.08 923.72 1162.36 922.723 1161.64 921.726C1161.1 920.848 1160.42 920.064 1159.63 919.406C1159.59 919.384 1159.55 919.374 1159.51 919.377C1159.47 919.38 1159.43 919.396 1159.39 919.422C1159.36 919.449 1159.33 919.485 1159.32 919.525C1159.31 919.566 1159.31 919.61 1159.32 919.651C1159.82 920.654 1160.42 921.597 1161.13 922.462C1161.78 923.4 1162.5 924.28 1163.29 925.093C1163.34 925.13 1163.4 925.15 1163.46 925.149C1163.52 925.149 1163.58 925.129 1163.63 925.092C1163.68 925.055 1163.71 925.003 1163.73 924.944C1163.74 924.885 1163.74 924.822 1163.72 924.766Z" fill="#E8B5AF"/>
<path d="M1162.57 928.786C1161.48 928.036 1160.55 927.081 1159.83 925.975C1159.05 924.774 1158.16 923.647 1157.18 922.609C1157.15 922.585 1157.12 922.57 1157.08 922.567C1157.04 922.563 1157.01 922.571 1156.98 922.589C1156.94 922.606 1156.92 922.633 1156.9 922.666C1156.89 922.699 1156.88 922.736 1156.89 922.772C1157.49 924.209 1158.36 925.514 1159.47 926.613C1160.24 927.528 1161.22 928.917 1162.44 929.244C1162.72 929.244 1162.92 928.901 1162.64 928.77L1162.57 928.786Z" fill="#E8B5AF"/>
<path d="M1110.88 936.958L1116.76 902.588L1171.1 877.224L1198.15 892.488L1110.88 936.958Z" fill="#494949"/>
<path d="M1137.99 890.298L1151.43 884.219L1152.8 888.942L1140.82 895.283L1137.99 890.298Z" fill="#FFC951"/>
<path d="M1397.83 1037.89L1415.81 1077.54L1427.66 1072.51L1412.76 1030.18L1397.83 1037.89Z" fill="#595959"/>
<path d="M1230.22 1101.08L1249.65 1144.08L1260.58 1137.07L1243.31 1095.33L1230.22 1101.08Z" fill="#595959"/>
</svg>
