<svg width="234" height="351" viewBox="0 0 234 351" fill="none" xmlns="http://www.w3.org/2000/svg">
<path d="M30.4396 133.624L53.3968 255.596C56.5925 272.57 65.8034 287.822 79.3385 298.552C92.8737 309.282 109.825 314.77 127.08 314.009L240.323 309.016C257.934 308.24 274.644 301.01 287.265 288.702C299.886 276.395 307.535 259.873 308.754 242.286L317.724 112.679C320.765 68.7074 283.817 32.4127 239.905 36.2327L94.7401 48.861C52.4557 52.5419 22.591 91.9149 30.4396 133.624Z" fill="#EFEFE8"/>
<path d="M189.146 178.628L62.5867 182.656C62.5867 182.656 61.6202 146.622 110.847 163.083C110.847 163.083 101.198 138.092 125.867 139.608C150.535 141.125 147.319 163.083 147.319 163.083C147.319 163.083 189.146 141.251 189.146 178.628Z" fill="white"/>
<path d="M307.363 132.02L187.757 135.833C187.757 135.833 186.845 101.723 233.37 117.309C233.37 117.309 224.245 93.6706 247.56 95.099C270.874 96.5275 267.829 117.309 267.829 117.309C267.829 117.309 307.363 96.6542 307.363 132.02Z" fill="white"/>
<path d="M45.2698 154.403C45.4431 155.289 45.7104 156.155 46.0672 156.985C46.5308 157.912 48.0931 157.486 48.0421 156.452C47.942 155.548 47.7462 154.658 47.458 153.795C47.0778 152.405 44.9035 152.984 45.2698 154.403Z" fill="#627F60"/>
<path opacity="0.22" d="M30.4812 66.5563C30.1661 66.5196 29.8469 66.5643 29.554 66.6861C29.456 66.7445 29.3749 66.8273 29.3185 66.9265C29.2622 67.0256 29.2325 67.1377 29.2325 67.2517C29.2325 67.3658 29.2622 67.4779 29.3185 67.577C29.3749 67.6762 29.456 67.759 29.554 67.8173C29.8463 67.941 30.1661 67.9858 30.4812 67.9471C30.6656 67.9471 30.8425 67.8739 30.9729 67.7434C31.1033 67.613 31.1766 67.4362 31.1766 67.2517C31.1766 67.0673 31.1033 66.8904 30.9729 66.76C30.8425 66.6296 30.6656 66.5563 30.4812 66.5563Z" fill="#333333"/>
<path opacity="0.22" d="M30.4813 83.7928C30.6601 83.7784 30.8269 83.6971 30.9486 83.5653C31.0702 83.4334 31.1377 83.2606 31.1377 83.0812C31.1377 82.9018 31.0702 82.729 30.9486 82.5971C30.8269 82.4652 30.6601 82.384 30.4813 82.3696C30.3025 82.384 30.1356 82.4652 30.014 82.5971C29.8924 82.729 29.8248 82.9018 29.8248 83.0812C29.8248 83.2606 29.8924 83.4334 30.014 83.5653C30.1356 83.6971 30.3025 83.7784 30.4813 83.7928Z" fill="#333333"/>
<path opacity="0.22" d="M30.4814 83.7371C30.6459 83.7233 30.7991 83.6482 30.9108 83.5267C31.0225 83.4052 31.0845 83.2462 31.0845 83.0812C31.0845 82.9161 31.0225 82.7571 30.9108 82.6356C30.7991 82.5141 30.6459 82.439 30.4814 82.4252C30.3169 82.439 30.1637 82.5141 30.052 82.6356C29.9403 82.7571 29.8783 82.9161 29.8783 83.0812C29.8783 83.2462 29.9403 83.4052 30.052 83.5267C30.1637 83.6482 30.3169 83.7233 30.4814 83.7371Z" fill="#333333"/>
<path opacity="0.22" d="M33.5179 84.3213L35.3444 84.9286V84.8868L33.5179 84.2795C33.4901 84.2795 33.4808 84.312 33.5179 84.3213Z" fill="#333333"/>
<path opacity="0.22" d="M127.28 62.9913C127.28 63.1443 127.28 63.2926 127.28 63.4549C127.28 63.6196 127.345 63.7776 127.461 63.8941C127.578 64.0106 127.736 64.0761 127.901 64.0761C128.066 64.0761 128.224 64.0106 128.34 63.8941C128.457 63.7776 128.522 63.6196 128.522 63.4549C128.522 63.3019 128.522 63.1535 128.522 62.9913C128.522 62.829 128.458 62.6733 128.343 62.5586C128.228 62.4438 128.072 62.3793 127.91 62.3793C127.748 62.3793 127.592 62.4438 127.477 62.5586C127.363 62.6733 127.298 62.829 127.298 62.9913H127.28Z" fill="#333333"/>
<path opacity="0.22" d="M178.423 275.651C178.633 275.651 178.835 275.568 178.984 275.419C179.132 275.27 179.216 275.069 179.216 274.858C179.216 274.648 179.132 274.447 178.984 274.298C178.835 274.149 178.633 274.066 178.423 274.066C178.213 274.066 178.011 274.149 177.863 274.298C177.714 274.447 177.63 274.648 177.63 274.858C177.63 275.069 177.714 275.27 177.863 275.419C178.011 275.568 178.213 275.651 178.423 275.651Z" fill="#333333"/>
<path opacity="0.22" d="M174.775 264.622C174.957 264.644 175.142 264.628 175.318 264.575C175.493 264.521 175.656 264.432 175.795 264.312C175.902 264.201 175.962 264.053 175.962 263.899C175.962 263.745 175.902 263.597 175.795 263.486C175.655 263.367 175.493 263.278 175.317 263.226C175.141 263.173 174.957 263.158 174.775 263.181C173.848 263.12 173.848 264.683 174.775 264.622Z" fill="#333333"/>
<path opacity="0.22" d="M187.556 275.007C187.747 274.992 187.925 274.906 188.055 274.765C188.185 274.625 188.257 274.44 188.257 274.249C188.257 274.057 188.185 273.873 188.055 273.733C187.925 273.592 187.747 273.506 187.556 273.491C187.365 273.506 187.187 273.592 187.057 273.733C186.927 273.873 186.855 274.057 186.855 274.249C186.855 274.44 186.927 274.625 187.057 274.765C187.187 274.906 187.365 274.992 187.556 275.007Z" fill="#333333"/>
<path opacity="0.22" d="M185.632 263.996C185.504 263.785 185.317 263.617 185.093 263.511C184.87 263.406 184.62 263.368 184.376 263.403C184.289 263.426 184.21 263.472 184.146 263.535C184.083 263.599 184.037 263.678 184.014 263.765C183.98 264.01 184.017 264.26 184.123 264.484C184.228 264.708 184.397 264.896 184.608 265.026C184.747 265.146 184.927 265.21 185.111 265.203C185.295 265.196 185.47 265.12 185.6 264.989C185.73 264.858 185.806 264.683 185.812 264.499C185.818 264.315 185.754 264.135 185.632 263.996Z" fill="#333333"/>
<path opacity="0.22" d="M179.031 250.65C179.22 250.635 179.397 250.549 179.527 250.409C179.656 250.27 179.727 250.086 179.727 249.896C179.727 249.706 179.656 249.523 179.527 249.383C179.397 249.244 179.22 249.158 179.031 249.143C178.841 249.158 178.664 249.244 178.535 249.383C178.406 249.523 178.334 249.706 178.334 249.896C178.334 250.086 178.406 250.27 178.535 250.409C178.664 250.549 178.841 250.635 179.031 250.65Z" fill="#333333"/>
<path opacity="0.22" d="M187.58 254.33C187.75 254.311 187.908 254.229 188.022 254.101C188.136 253.972 188.199 253.807 188.199 253.635C188.199 253.463 188.136 253.298 188.022 253.169C187.908 253.041 187.75 252.959 187.58 252.94C187.409 252.959 187.252 253.041 187.137 253.169C187.023 253.298 186.96 253.463 186.96 253.635C186.96 253.807 187.023 253.972 187.137 254.101C187.252 254.229 187.409 254.311 187.58 254.33Z" fill="#333333"/>
<path opacity="0.22" d="M199.878 277.659C199.878 277.195 199.679 276.629 199.123 276.629C198.566 276.629 198.376 277.195 198.362 277.659C198.339 278.632 199.901 278.637 199.878 277.659Z" fill="#333333"/>
<path opacity="0.22" d="M184.223 183.057L184.195 183.169C183.968 184.096 185.54 184.096 185.312 183.169L185.285 183.057C185.249 182.944 185.179 182.846 185.083 182.776C184.988 182.705 184.872 182.668 184.754 182.668C184.635 182.668 184.52 182.705 184.424 182.776C184.329 182.846 184.258 182.944 184.223 183.057Z" fill="#333333"/>
<path opacity="0.22" d="M184.51 191.17C184.677 191.156 184.833 191.08 184.946 190.957C185.059 190.834 185.122 190.673 185.122 190.505C185.122 190.338 185.059 190.176 184.946 190.053C184.833 189.93 184.677 189.854 184.51 189.84C184.343 189.854 184.188 189.93 184.074 190.053C183.961 190.176 183.898 190.338 183.898 190.505C183.898 190.673 183.961 190.834 184.074 190.957C184.188 191.08 184.343 191.156 184.51 191.17Z" fill="#333333"/>
<path opacity="0.22" d="M188.01 191.217L188.14 191.314C188.219 191.364 188.311 191.39 188.404 191.39C188.498 191.39 188.589 191.364 188.669 191.314C188.742 191.263 188.806 191.201 188.859 191.129C188.909 191.049 188.936 190.956 188.936 190.862C188.936 190.768 188.909 190.675 188.859 190.596L188.761 190.466C188.717 190.398 188.658 190.342 188.59 190.3C188.521 190.258 188.443 190.232 188.363 190.224C188.283 190.215 188.202 190.225 188.126 190.252C188.05 190.279 187.981 190.323 187.924 190.38C187.867 190.437 187.824 190.506 187.797 190.582C187.77 190.658 187.76 190.739 187.768 190.819C187.776 190.899 187.802 190.976 187.844 191.045C187.886 191.114 187.943 191.173 188.01 191.217Z" fill="#333333"/>
<path opacity="0.22" d="M180.681 169.78V169.896C180.681 170.04 180.738 170.178 180.84 170.28C180.941 170.381 181.079 170.438 181.223 170.438C181.367 170.438 181.505 170.381 181.607 170.28C181.709 170.178 181.766 170.04 181.766 169.896V169.78C181.753 169.646 181.691 169.52 181.591 169.429C181.491 169.338 181.361 169.288 181.226 169.288C181.09 169.288 180.96 169.338 180.86 169.429C180.76 169.52 180.698 169.646 180.686 169.78H180.681Z" fill="#333333"/>
<path opacity="0.22" d="M176.745 175.186C177.074 175.153 177.283 175.186 177.473 174.875C177.5 174.83 177.515 174.778 177.515 174.724C177.515 174.671 177.5 174.619 177.473 174.574C177.283 174.282 177.074 174.296 176.745 174.268C176.156 174.217 176.152 175.237 176.745 175.195V175.186Z" fill="#333333"/>
<path opacity="0.22" d="M113.784 203.363L113.59 203.331C113.708 203.433 113.862 203.487 114.018 203.481C114.175 203.475 114.324 203.411 114.435 203.3C114.546 203.189 114.611 203.04 114.617 202.883C114.622 202.726 114.568 202.573 114.466 202.454C114.339 202.32 114.178 202.222 114.001 202.17C113.823 202.118 113.635 202.113 113.455 202.158C113.296 202.203 113.161 202.309 113.08 202.453C112.998 202.597 112.977 202.767 113.019 202.927C113.067 203.084 113.173 203.217 113.315 203.298C113.457 203.379 113.625 203.402 113.784 203.363Z" fill="#333333"/>
<path opacity="0.22" d="M124.925 200.948C125.07 200.948 125.209 200.89 125.312 200.787C125.414 200.685 125.472 200.546 125.472 200.4C125.472 200.255 125.414 200.116 125.312 200.014C125.209 199.911 125.07 199.853 124.925 199.853C124.78 199.853 124.641 199.911 124.538 200.014C124.436 200.116 124.378 200.255 124.378 200.4C124.378 200.546 124.436 200.685 124.538 200.787C124.641 200.89 124.78 200.948 124.925 200.948Z" fill="#333333"/>
<path opacity="0.22" d="M129.343 208.555C129.593 209.176 130.168 209.181 130.418 208.555C130.775 207.665 128.986 207.661 129.343 208.555Z" fill="#333333"/>
<path opacity="0.22" d="M131.99 218.763C132.113 218.763 132.231 218.715 132.318 218.628C132.405 218.541 132.454 218.423 132.454 218.3C132.454 218.177 132.405 218.059 132.318 217.972C132.231 217.885 132.113 217.836 131.99 217.836C131.867 217.836 131.749 217.885 131.662 217.972C131.575 218.059 131.526 218.177 131.526 218.3C131.526 218.423 131.575 218.541 131.662 218.628C131.749 218.715 131.867 218.763 131.99 218.763Z" fill="#333333"/>
<path opacity="0.22" d="M139.94 216.821H140.056C140.191 216.781 140.309 216.698 140.392 216.585C140.476 216.472 140.521 216.336 140.521 216.195C140.521 216.055 140.476 215.918 140.392 215.805C140.309 215.693 140.191 215.61 140.056 215.569H139.94C139.844 215.546 139.743 215.545 139.645 215.566C139.548 215.587 139.457 215.63 139.378 215.692C139.3 215.753 139.237 215.832 139.193 215.921C139.15 216.011 139.127 216.109 139.127 216.209C139.127 216.309 139.15 216.407 139.193 216.497C139.237 216.586 139.3 216.665 139.378 216.727C139.457 216.788 139.548 216.831 139.645 216.852C139.743 216.874 139.844 216.872 139.94 216.849V216.821Z" fill="#333333"/>
<path opacity="0.22" d="M134.817 228.485C134.628 228.462 134.436 228.51 134.28 228.619C134.192 228.674 134.119 228.75 134.068 228.84C134.018 228.931 133.991 229.033 133.991 229.136C133.991 229.24 134.018 229.342 134.068 229.432C134.119 229.523 134.192 229.599 134.28 229.653C134.437 229.761 134.628 229.809 134.817 229.788C134.981 229.774 135.133 229.699 135.244 229.579C135.355 229.458 135.416 229.3 135.416 229.136C135.416 228.973 135.355 228.815 135.244 228.694C135.133 228.573 134.981 228.499 134.817 228.485Z" fill="#333333"/>
<path opacity="0.22" d="M141.253 238.207C141.564 238.287 141.894 238.251 142.18 238.105C142.264 238.054 142.334 237.982 142.383 237.897C142.431 237.811 142.457 237.714 142.457 237.616C142.457 237.517 142.431 237.42 142.383 237.334C142.334 237.249 142.264 237.177 142.18 237.126C141.894 236.98 141.564 236.944 141.253 237.024C141.125 237.062 141.013 237.14 140.934 237.247C140.854 237.353 140.811 237.483 140.811 237.616C140.811 237.748 140.854 237.878 140.934 237.984C141.013 238.091 141.125 238.169 141.253 238.207Z" fill="#333333"/>
<path opacity="0.22" d="M144.475 232.041C144.612 232.028 144.739 231.965 144.832 231.863C144.924 231.762 144.976 231.629 144.976 231.491C144.976 231.354 144.924 231.221 144.832 231.12C144.739 231.018 144.612 230.955 144.475 230.942C144.338 230.955 144.21 231.018 144.118 231.12C144.025 231.221 143.973 231.354 143.973 231.491C143.973 231.629 144.025 231.762 144.118 231.863C144.21 231.965 144.338 232.028 144.475 232.041Z" fill="#333333"/>
<path opacity="0.22" d="M150.279 236.283V236.399C150.247 236.524 150.256 236.656 150.304 236.776C150.353 236.896 150.438 236.998 150.547 237.066C150.638 237.123 150.742 237.153 150.849 237.153C150.955 237.153 151.06 237.123 151.15 237.066C151.26 236.998 151.346 236.896 151.395 236.777C151.444 236.657 151.454 236.524 151.424 236.399V236.283C151.388 236.162 151.315 236.057 151.215 235.981C151.115 235.906 150.993 235.865 150.867 235.865C150.742 235.865 150.62 235.906 150.52 235.981C150.419 236.057 150.346 236.162 150.311 236.283H150.279Z" fill="#333333"/>
<path opacity="0.22" d="M71.0228 232.472C70.8504 232.654 70.747 232.89 70.7307 233.14C70.7319 233.27 70.7841 233.394 70.876 233.486C70.9679 233.578 71.0922 233.63 71.2221 233.631C71.4721 233.615 71.7086 233.512 71.8897 233.339C72.5063 232.834 71.5281 231.855 71.0228 232.472Z" fill="#333333"/>
<path opacity="0.22" d="M69.3351 224.47C69.4637 224.458 69.5832 224.398 69.6702 224.303C69.7571 224.207 69.8053 224.083 69.8053 223.953C69.8053 223.824 69.7571 223.7 69.6702 223.604C69.5832 223.508 69.4637 223.449 69.3351 223.437C69.2064 223.449 69.087 223.508 69 223.604C68.9131 223.7 68.8649 223.824 68.8649 223.953C68.8649 224.083 68.9131 224.207 69 224.303C69.087 224.398 69.2064 224.458 69.3351 224.47Z" fill="#333333"/>
<path opacity="0.22" d="M76.4048 227.437C76.5167 227.437 76.624 227.393 76.7031 227.314C76.7822 227.235 76.8267 227.127 76.8267 227.015C76.8267 226.903 76.7822 226.796 76.7031 226.717C76.624 226.638 76.5167 226.594 76.4048 226.594C76.2929 226.594 76.1856 226.638 76.1065 226.717C76.0274 226.796 75.9829 226.903 75.9829 227.015C75.9829 227.127 76.0274 227.235 76.1065 227.314C76.1856 227.393 76.2929 227.437 76.4048 227.437Z" fill="#333333"/>
<path opacity="0.22" d="M76.2843 222.036C76.4722 222.112 76.6711 222.155 76.8731 222.166C77.1003 222.166 77.3367 221.874 77.1605 221.666C77.013 221.481 76.8341 221.324 76.632 221.202C76.1128 220.85 75.626 221.805 76.2843 222.032V222.036Z" fill="#333333"/>
<path opacity="0.22" d="M70.7494 220.641C70.8723 220.641 70.9902 220.592 71.0772 220.505C71.1641 220.418 71.213 220.3 71.213 220.178C71.213 220.055 71.1641 219.937 71.0772 219.85C70.9902 219.763 70.8723 219.714 70.7494 219.714C70.6264 219.714 70.5085 219.763 70.4215 219.85C70.3346 219.937 70.2858 220.055 70.2858 220.178C70.2858 220.3 70.3346 220.418 70.4215 220.505C70.5085 220.592 70.6264 220.641 70.7494 220.641Z" fill="#333333"/>
<path opacity="0.22" d="M74.0498 213.78C74.2155 213.766 74.3699 213.69 74.4824 213.568C74.5949 213.446 74.6574 213.285 74.6574 213.119C74.6574 212.953 74.5949 212.793 74.4824 212.67C74.3699 212.548 74.2155 212.472 74.0498 212.458C73.8842 212.472 73.7298 212.548 73.6172 212.67C73.5047 212.793 73.4423 212.953 73.4423 213.119C73.4423 213.285 73.5047 213.446 73.6172 213.568C73.7298 213.69 73.8842 213.766 74.0498 213.78Z" fill="#333333"/>
<path opacity="0.22" d="M71.4398 204.068C71.4754 204.209 71.555 204.336 71.667 204.429C71.7376 204.496 71.8314 204.534 71.9289 204.534C72.0264 204.534 72.1202 204.496 72.1908 204.429C72.3014 204.335 72.3793 204.209 72.4134 204.068C72.7147 203.256 71.1431 203.252 71.4398 204.068Z" fill="#333333"/>
<path opacity="0.22" d="M84.1746 207.953C84.3031 207.953 84.4264 207.902 84.5172 207.811C84.6081 207.72 84.6591 207.597 84.6591 207.468C84.6591 207.34 84.6081 207.216 84.5172 207.126C84.4264 207.035 84.3031 206.984 84.1746 206.984C84.0462 206.984 83.9229 207.035 83.8321 207.126C83.7412 207.216 83.6902 207.34 83.6902 207.468C83.6902 207.597 83.7412 207.72 83.8321 207.811C83.9229 207.902 84.0462 207.953 84.1746 207.953Z" fill="#333333"/>
<path opacity="0.22" d="M85.1202 203.544H85.4308C85.5686 203.544 85.7006 203.489 85.798 203.392C85.8954 203.294 85.9501 203.162 85.9501 203.024C85.9501 202.887 85.8954 202.755 85.798 202.657C85.7006 202.56 85.5686 202.505 85.4308 202.505H85.1202C84.4295 202.468 84.4295 203.613 85.1202 203.576V203.544Z" fill="#333333"/>
<path opacity="0.22" d="M87.7121 201.226C87.8539 201.213 87.9857 201.148 88.0817 201.042C88.1777 200.937 88.231 200.8 88.231 200.658C88.231 200.516 88.1777 200.378 88.0817 200.273C87.9857 200.168 87.8539 200.103 87.7121 200.09C87.5703 200.103 87.4385 200.168 87.3425 200.273C87.2465 200.378 87.1932 200.516 87.1932 200.658C87.1932 200.8 87.2465 200.937 87.3425 201.042C87.4385 201.148 87.5703 201.213 87.7121 201.226Z" fill="#333333"/>
<path opacity="0.22" d="M54.5003 235.332H54.6162C54.7496 235.32 54.8736 235.258 54.9638 235.159C55.0541 235.06 55.1041 234.931 55.1041 234.797C55.1041 234.663 55.0541 234.534 54.9638 234.435C54.8736 234.336 54.7496 234.274 54.6162 234.261H54.5003C54.3564 234.261 54.2185 234.319 54.1168 234.42C54.015 234.522 53.9579 234.66 53.9579 234.804C53.9579 234.948 54.015 235.086 54.1168 235.187C54.2185 235.289 54.3564 235.346 54.5003 235.346V235.332Z" fill="#333333"/>
<path opacity="0.22" d="M52.8495 227.915C52.9556 227.904 53.0537 227.854 53.1251 227.775C53.1965 227.695 53.236 227.593 53.236 227.486C53.236 227.379 53.1965 227.277 53.1251 227.197C53.0537 227.118 52.9556 227.068 52.8495 227.057C52.7435 227.068 52.6453 227.118 52.5739 227.197C52.5025 227.277 52.463 227.379 52.463 227.486C52.463 227.593 52.5025 227.695 52.5739 227.775C52.6453 227.854 52.7435 227.904 52.8495 227.915Z" fill="#333333"/>
<path opacity="0.22" d="M74.0962 303.828H73.9849C73.3266 303.926 73.3266 305.057 73.9849 305.154H74.0962C74.1989 305.178 74.3058 305.179 74.4088 305.156C74.5118 305.133 74.6083 305.087 74.691 305.021C74.7737 304.956 74.8405 304.872 74.8865 304.777C74.9324 304.682 74.9563 304.578 74.9563 304.473C74.9563 304.367 74.9324 304.263 74.8865 304.168C74.8405 304.073 74.7737 303.99 74.691 303.924C74.6083 303.859 74.5118 303.813 74.4088 303.79C74.3058 303.767 74.1989 303.767 74.0962 303.791V303.828Z" fill="#333333"/>
<path opacity="0.22" d="M71.9265 295.933C72.0261 295.933 72.1216 295.894 72.1921 295.823C72.2625 295.753 72.3021 295.657 72.3021 295.558C72.3021 295.458 72.2625 295.363 72.1921 295.292C72.1216 295.222 72.0261 295.182 71.9265 295.182C71.8269 295.182 71.7314 295.222 71.661 295.292C71.5906 295.363 71.551 295.458 71.551 295.558C71.551 295.657 71.5906 295.753 71.661 295.823C71.7314 295.894 71.8269 295.933 71.9265 295.933Z" fill="#333333"/>
<path opacity="0.22" d="M83.943 303.286C84.0479 303.275 84.1449 303.226 84.2155 303.147C84.2861 303.069 84.3251 302.967 84.3251 302.862C84.3251 302.756 84.2861 302.655 84.2155 302.576C84.1449 302.498 84.0479 302.449 83.943 302.438C83.8382 302.449 83.7411 302.498 83.6705 302.576C83.6 302.655 83.5609 302.756 83.5609 302.862C83.5609 302.967 83.6 303.069 83.6705 303.147C83.7411 303.226 83.8382 303.275 83.943 303.286Z" fill="#333333"/>
<path opacity="0.22" d="M79.7011 293.017C79.8364 293.017 79.9661 292.964 80.0617 292.868C80.1573 292.772 80.2111 292.643 80.2111 292.507C80.2111 292.372 80.1573 292.242 80.0617 292.147C79.9661 292.051 79.8364 291.997 79.7011 291.997C79.5659 291.997 79.4362 292.051 79.3405 292.147C79.2449 292.242 79.1912 292.372 79.1912 292.507C79.1912 292.643 79.2449 292.772 79.3405 292.868C79.4362 292.964 79.5659 293.017 79.7011 293.017Z" fill="#333333"/>
<path opacity="0.22" d="M102.079 308.78C102.217 308.78 102.349 308.725 102.446 308.627C102.543 308.53 102.598 308.398 102.598 308.26C102.598 308.123 102.543 307.991 102.446 307.893C102.349 307.796 102.217 307.741 102.079 307.741C101.941 307.741 101.809 307.796 101.712 307.893C101.614 307.991 101.56 308.123 101.56 308.26C101.56 308.398 101.614 308.53 101.712 308.627C101.809 308.725 101.941 308.78 102.079 308.78Z" fill="#333333"/>
<path opacity="0.22" d="M68.7971 275.118L68.9316 275.206C69.0404 275.265 69.1654 275.287 69.2877 275.269C69.4101 275.251 69.5235 275.194 69.6109 275.107C69.6984 275.019 69.7553 274.906 69.7732 274.783C69.7912 274.661 69.7691 274.536 69.7104 274.427L69.6223 274.293C69.0846 273.468 67.9673 274.576 68.7971 275.118Z" fill="#333333"/>
<path d="M10.1993 93.0646C11.8682 93.0646 11.8728 90.4685 10.1993 90.4685C8.5257 90.4685 8.5257 93.0646 10.1993 93.0646Z" fill="#E3EFE9"/>
<path d="M1.61331 76.9548C3.76438 76.9548 3.76438 73.6122 1.61331 73.6122C-0.537769 73.6122 -0.537769 76.9548 1.61331 76.9548Z" fill="#E3EFE9"/>
<path d="M91.7266 331.959L92.2876 332.497C92.3984 332.619 92.5328 332.718 92.6829 332.787C92.8329 332.856 92.9954 332.894 93.1604 332.898C93.3255 332.902 93.4896 332.873 93.643 332.812C93.7964 332.75 93.9357 332.659 94.0526 332.542C94.1695 332.426 94.2615 332.287 94.323 332.133C94.3846 331.98 94.4144 331.816 94.4106 331.651C94.4068 331.486 94.3695 331.323 94.301 331.173C94.2326 331.023 94.1343 330.888 94.0122 330.777L93.4744 330.211C92.3757 329.057 90.5677 330.86 91.7266 331.959Z" fill="#E3EFE9"/>
<path d="M60.8884 350.151C61.3786 350.406 61.8815 350.637 62.3951 350.841C62.707 350.928 63.0399 350.897 63.3304 350.754C63.621 350.611 63.849 350.367 63.9713 350.067C64.0963 349.77 64.1099 349.437 64.0094 349.131C63.9089 348.824 63.7011 348.564 63.4242 348.398C63.0534 348.166 62.6639 347.976 62.2745 347.782C61.9663 347.661 61.6252 347.654 61.3124 347.762C60.9996 347.871 60.7357 348.087 60.5681 348.373C60.4006 348.658 60.3403 348.994 60.3981 349.32C60.456 349.646 60.6282 349.94 60.8837 350.151H60.8884Z" fill="#E3EFE9"/>
<path d="M43.1513 308.316C44.3706 308.316 44.3752 306.42 43.1513 306.42C41.9274 306.42 41.9274 308.316 43.1513 308.316Z" fill="#E3EFE9"/>
<path d="M28.9512 328.844L28.8678 329.307C28.798 329.597 28.8412 329.901 28.9885 330.16C29.1358 330.418 29.3762 330.611 29.6605 330.698C29.8592 330.754 30.0692 330.754 30.2678 330.698C30.5516 330.61 30.7912 330.417 30.9384 330.159C31.0855 329.901 31.1292 329.597 31.0606 329.307L30.9771 328.844C30.801 327.838 29.1228 327.838 28.9512 328.844Z" fill="#E3EFE9"/>
<path d="M27.6674 275.804C27.3985 276.268 27.0786 276.69 27.2038 277.246C27.2396 277.378 27.3094 277.499 27.4061 277.597C27.5028 277.694 27.6232 277.765 27.7554 277.802C28.3117 277.941 28.7429 277.621 29.1972 277.339C29.3486 277.252 29.4779 277.132 29.5752 276.987C29.6725 276.842 29.7352 276.677 29.7584 276.504C29.7816 276.331 29.7647 276.155 29.709 275.99C29.6532 275.825 29.5602 275.675 29.437 275.551C29.3139 275.428 29.164 275.334 28.9989 275.278C28.8338 275.222 28.658 275.204 28.485 275.227C28.3121 275.25 28.1467 275.312 28.0017 275.409C27.8567 275.505 27.7359 275.634 27.6488 275.786L27.6674 275.804Z" fill="#E3EFE9"/>
<path d="M121.879 107.065C118.81 105.336 117.47 103.792 117.901 102.485C118.42 100.899 120.998 100.26 123.529 101.094C126.06 101.929 127.757 103.964 127.238 105.554L130.107 106.481C131.035 103.607 129.227 100.454 125.87 98.7807L126.867 95.7535L123.997 94.8263L123.001 97.8443C119.32 97.1906 115.968 98.6648 115.027 101.553C113.608 105.883 118.736 108.762 120.395 109.708C123.464 111.437 124.804 112.976 124.373 114.288C123.854 115.873 121.276 116.513 118.745 115.679C116.214 114.844 114.517 112.804 115.036 111.219L112.166 110.292C111.239 113.161 113.047 116.319 116.404 117.987L115.435 120.987L118.309 121.914L119.296 118.896C122.977 119.55 126.329 118.076 127.27 115.187C128.666 110.885 123.557 108.011 121.879 107.065Z" fill="white"/>
<path d="M167.993 164.092L167.339 204.615H176.226L175.563 171.036L167.993 164.092Z" fill="#494949"/>
<path d="M172.703 237.071L171.558 312.141L185.285 311.403L186.949 257.538L209.749 259.175L210.676 310.286L223.17 309.558C223.476 307.815 223.828 249.606 223.828 249.606L208.02 234.433L172.703 237.071Z" fill="#494949"/>
<path d="M216.396 200.034H223.846L231.764 285.906L169.114 286.805L166.958 198.379L216.396 200.034Z" fill="#627F60"/>
<path d="M179.1 124.784C179.1 124.784 157.83 147.662 146.528 189.608L153.134 207.15C153.134 207.15 164.993 174.166 171.558 167.11L174.733 190.943L188.15 184.356L185.943 162.154L179.1 124.784Z" fill="#494949"/>
<path d="M85.6722 114.014C85.2734 113.234 84.7679 112.513 84.1701 111.873C83.8781 112.165 83.5906 112.457 83.2986 112.744C84.0913 113.461 84.9532 114.098 85.8715 114.645C86.7384 115.22 87.7584 115.948 88.7922 116.128C88.9952 116.172 89.207 116.151 89.3968 116.066C89.5866 115.982 89.7445 115.839 89.8478 115.659C89.9511 115.478 89.9943 115.27 89.9712 115.064C89.9482 114.857 89.8599 114.663 89.7194 114.51C88.973 113.75 87.8372 113.314 86.8775 112.897C85.9137 112.417 84.9101 112.022 83.8781 111.715C83.2337 111.562 82.7376 112.554 83.4145 112.842C84.1693 113.139 84.8327 113.63 85.3384 114.265C85.4914 114.455 85.7649 114.214 85.6629 114.014H85.6722Z" fill="#B77D51"/>
<path d="M88.3194 148.649C88.6578 149.929 88.8062 151.241 89.1678 152.511C89.483 153.624 89.7334 154.866 90.5307 155.733C91.1937 156.447 92.209 155.831 92.2924 155.001C92.4083 153.879 91.7917 152.683 91.393 151.64C90.9294 150.471 90.2989 149.396 89.8307 148.232C89.4645 147.305 88.0551 147.648 88.3194 148.649Z" fill="#B77D51"/>
<path d="M110.335 179.437C112.315 180.257 114.781 181.634 116.983 181.291C117.16 181.242 117.322 181.147 117.451 181.017C117.58 180.886 117.672 180.723 117.719 180.546C117.766 180.368 117.766 180.181 117.718 180.004C117.67 179.826 117.577 179.664 117.447 179.534C115.63 178.116 112.755 178.143 110.549 177.875C109.58 177.759 109.594 179.126 110.335 179.432V179.437Z" fill="#B77D51"/>
<path d="M115.138 161.102C114.675 162.293 114.169 163.48 113.747 164.69C113.358 165.77 112.751 166.938 112.82 168.102C112.862 168.728 113.747 169.275 114.211 168.677C114.962 167.75 115.138 166.567 115.467 165.432C115.834 164.12 116.135 162.794 116.455 161.468C116.492 161.298 116.462 161.12 116.372 160.971C116.282 160.822 116.138 160.713 115.97 160.666C115.802 160.62 115.623 160.64 115.469 160.722C115.315 160.803 115.198 160.941 115.143 161.106L115.138 161.102Z" fill="#B77D51"/>
<path d="M78.4307 88.5168C78.4307 88.5168 87.239 116.416 99.9832 146.332C109.454 168.584 121.091 191.991 132.847 205.811L138.271 202.102C138.271 202.102 98.6295 153.081 83.0527 86.8524L78.4307 88.5168Z" fill="#B77D51"/>
<path d="M101.662 144.811C101.662 144.811 117.818 130.62 121.133 104.909H125.087C125.087 104.909 120.873 131.849 105.176 149.373L101.662 144.811Z" fill="#B77D51"/>
<path d="M105.597 159.062L55.9094 139.804L35.1728 116.462L32.0389 118.706L55.9094 145.242L108.351 163.758L105.597 159.062Z" fill="#B77D51"/>
<path d="M12.2946 123.463C11.3906 130.263 12.8463 137.338 15.4053 143.708C19.3088 153.443 28.386 160.731 38.585 163.276C48.7841 165.821 59.8315 163.865 68.9968 158.751C74.0963 155.896 78.9641 151.668 80.2575 145.956C80.8972 143.114 80.5959 140.138 80.0767 137.273C77.4092 122.957 69.4997 110.15 57.8937 101.354C49.3589 94.9469 16.6895 90.552 12.2946 123.463Z" fill="#0F937A"/>
<path d="M75.7652 100.992C84.2814 101.534 93.2195 98.4423 98.6946 91.901C104.378 85.114 105.718 75.8096 106.84 67.0338C107.41 62.5601 107.953 57.8454 106.237 53.6777C105.217 51.1882 103.456 49.0742 101.546 47.1873C87.0074 32.7047 49.6556 25.1852 43.5779 51.9485C41.6818 60.2931 43.4991 69.018 45.5435 77.3395C46.5356 81.3913 47.6297 85.5219 49.9894 88.9572C55.2975 96.6528 66.79 100.422 75.7652 100.992Z" fill="#0F937A"/>
<path d="M100.104 123.439C103.46 126.017 107.563 127.408 111.643 128.539C115.722 129.67 119.797 130.542 123.956 130.282C132.323 129.753 140.126 124.176 143.505 116.504C146.885 108.831 145.786 99.4159 140.886 92.6149C139.855 91.1028 138.548 89.7988 137.034 88.7717C132.509 85.8743 126.593 86.9174 121.41 88.3313C114.744 90.1486 108.04 92.4805 102.649 96.8012C93.9054 103.806 90.09 115.748 100.104 123.439Z" fill="#0F937A"/>
<path d="M120.326 107.671C116.932 105.998 115.406 104.426 115.789 102.996C116.253 101.265 118.979 100.427 121.742 101.168C124.505 101.908 126.447 103.996 125.983 105.728L129.117 106.568C129.957 103.433 127.813 100.143 124.118 98.5652L125.004 95.2579L121.871 94.4182L120.985 97.7255C116.996 97.2442 113.495 99.0215 112.655 102.157C111.387 106.886 117.037 109.668 118.892 110.583C122.287 112.255 123.813 113.827 123.43 115.257C122.966 116.988 120.24 117.826 117.477 117.085C114.714 116.345 112.771 114.257 113.235 112.525L110.102 111.686C109.262 114.82 111.405 118.11 115.1 119.688L114.218 122.979L117.353 123.819L118.234 120.528C122.222 121.009 125.724 119.232 126.564 116.097C127.831 111.367 122.183 108.585 120.326 107.671L120.326 107.671Z" fill="#045B4B"/>
<path d="M102.524 203.595L148.382 173.035L175.563 226.515L142.944 248.114L102.524 203.595Z" fill="#FF8074"/>
<path d="M102.524 203.595L116.682 194.161C116.682 194.161 137.381 233.214 166.959 232.212L142.944 248.114L102.524 203.595Z" fill="#EF6660"/>
<path d="M176.857 218.661C176.068 217.938 167.659 211.42 166.5 212.269C165.03 213.404 170.51 216.557 171.368 217.303C170.148 217.104 169.319 217.132 167.404 217.41C166.236 217.577 161.975 217.961 161.998 219.032C162.022 220.103 164.97 220.024 167.26 220.015C167.974 220.015 169.523 219.987 170.199 220.015C167.816 220.275 161.887 221.281 162.476 222.797C163.065 224.313 169.555 222.672 171.349 222.097C169.064 223.024 162.332 224.633 163.204 226.362C163.667 227.289 169.777 224.888 171.229 224.507C170.38 225.221 165.638 227.558 166.518 228.944C167.83 230.886 173.533 225.583 174.571 224.665C175.61 223.747 178.804 220.242 176.458 218.207" fill="#FFC1B5"/>
<path d="M182.035 216.779H174.733V226.121L183.954 225.866L182.035 216.779Z" fill="white"/>
<path d="M180.603 135.27L188.15 128.525L189.374 124.019H195.21L200.95 133.17V158.719L198.252 169.321L187.162 167.49L182.638 148.997L182.285 137.746L180.603 135.27Z" fill="#E6E6E6"/>
<path d="M197.236 120.806C197.236 120.806 224.996 129.081 238.153 160.828C251.31 192.575 229.803 226.26 182.285 227.094L181.617 216.061C181.617 216.061 241.268 209.57 226.415 170.809C223.248 162.534 216.021 152.266 200.949 148.237L197.236 120.806Z" fill="#494949"/>
<path d="M222.831 162.284C221.64 164.277 223.846 200.053 223.846 200.053H205.868L197.236 161.111L205.001 139.545L222.831 162.284Z" fill="#494949"/>
<path d="M183.254 123.031L190.426 180.888L176.226 147.912L181.302 143.263L174.14 132.864L183.254 123.031Z" fill="#333333"/>
<path d="M197.236 120.806L195.21 179.78L206.693 148.353L199.892 139.512L205.646 129.985L197.236 120.806Z" fill="#333333"/>
<path d="M190.426 131.093V180.888H195.21L192.197 131.093L191.677 130.106L190.426 131.093Z" fill="#333333"/>
<path d="M169.634 164.931C170.153 164.792 215.038 164.092 215.038 164.092L216.396 200.034L198.557 204.615L170.922 200.869L169.634 164.931Z" fill="#627F60"/>
<path d="M205.205 124.121C205.205 124.121 208.891 150.893 212.576 162.942C213.726 166.706 212.952 169.266 212.113 169.395C208.844 169.919 208.288 167.694 208.404 163.128C208.678 150.147 202.915 123.031 202.915 123.031L206.693 124.886" fill="#C9A587"/>
<path d="M175.725 123.592C175.725 123.592 174.45 150.587 171.859 162.919C171.047 166.771 172.049 169.247 172.874 169.307C176.179 169.534 176.532 167.272 176.026 162.729C174.599 149.841 177.909 122.304 177.909 122.304L174.311 124.482" fill="#C9A587"/>
<path d="M188.15 128.525L190.426 131.093H192.197L195.21 126.666L191.678 123.031L188.15 128.525Z" fill="#333333"/>
<path d="M197.236 120.806C197.236 120.806 198.335 134.496 196.717 135.613C195.099 136.731 190.741 124.533 190.741 124.533C190.741 124.533 187 135.864 185.262 136.239C183.523 136.615 183.254 121.919 183.254 121.919L197.236 120.806Z" fill="white"/>
<path d="M195.21 102.768C195.21 102.768 194.988 117.501 197.236 120.806C195.838 121.922 194.17 122.649 192.401 122.912C190.632 123.176 188.825 122.968 187.162 122.308L190.621 111.033L195.21 102.768Z" fill="#F9CBC2"/>
<path d="M189.582 46.7886C189.582 46.7886 203.68 46.9741 202.173 78.8183C202.173 78.8183 201.983 91.9427 194.575 93.8944L196.916 81.6185L193.476 68.1L185.261 54.6002L189.582 46.7886Z" fill="#1F1141"/>
<path d="M195.896 82.286C195.896 82.286 204.612 76.0322 207.106 80.6635C209.6 85.2948 196.402 86.2266 196.402 86.2266L195.896 82.286Z" fill="#F9CBC2"/>
<path d="M149.523 98.7947C149.523 98.7947 146.528 73.0976 150.756 58.5083L172.702 50.5901L188.826 55.9215L197.236 70.2929L195.219 76.6349L195.864 87.1121L191.983 107.455L169.346 111.849L153.12 103.602L149.523 98.7947Z" fill="#F9CBC2"/>
<path d="M149.379 97.427C149.379 97.427 149.189 103.227 159.481 96.8243C169.773 90.4221 172.925 102.953 185.762 98.7946C198.599 94.6362 193.574 75.4295 193.574 75.4295H196.1C196.1 75.4295 204.116 115.438 177.357 135.279C150.598 155.121 149.379 97.427 149.379 97.427Z" fill="#1F1141"/>
<path d="M175.35 82.5457C175.568 82.9159 175.631 83.3576 175.524 83.774C175.417 84.1903 175.149 84.5472 174.779 84.7663C174.005 85.2299 173.389 84.7663 172.948 84.0199C172.835 83.8436 172.759 83.6464 172.723 83.44C172.687 83.2336 172.694 83.0221 172.741 82.8181C172.789 82.6141 172.877 82.4217 173 82.2523C173.123 82.0829 173.279 81.9399 173.458 81.8318C174.237 81.3496 174.886 81.79 175.35 82.5457Z" fill="#333333"/>
<path d="M159.56 83.343C159.345 83.7155 158.99 83.9872 158.575 84.0985C158.159 84.2098 157.717 84.1515 157.344 83.9364C156.547 83.4728 156.667 82.7404 157.098 81.9708C157.197 81.7862 157.331 81.6231 157.494 81.4913C157.656 81.3595 157.843 81.2615 158.044 81.2032C158.245 81.1448 158.456 81.1273 158.663 81.1517C158.871 81.176 159.072 81.2417 159.254 81.345C160.051 81.79 159.987 82.5735 159.56 83.343Z" fill="#333333"/>
<path d="M182.587 90.8625C182.355 91.7897 180.603 92.1745 178.669 91.697C176.736 91.2195 175.359 90.0744 175.591 89.1426C175.823 88.2108 178.447 88.0439 180.38 88.5214C182.313 88.9989 182.814 89.9261 182.587 90.8625Z" fill="#E89F91"/>
<path d="M152.026 91.0017C151.943 90.042 153.477 89.1195 155.461 88.9433C157.446 88.7671 159.119 89.4069 159.203 90.3665C159.286 91.3262 156.852 92.3275 154.873 92.5037C152.893 92.6799 152.11 91.9613 152.026 91.0017Z" fill="#E89F91"/>
<path d="M174.937 76.1759C175.889 76.6319 176.879 77.0041 177.895 77.2885C178.869 77.562 179.972 78.1137 180.871 77.4044C181.129 77.2333 181.314 76.9718 181.388 76.6715C181.463 76.3711 181.422 76.0537 181.275 75.7818C180.811 74.7434 179.569 74.7155 178.581 74.5069C177.55 74.2827 176.502 74.1523 175.447 74.1175C174.376 74.0851 173.978 75.7076 174.937 76.1759Z" fill="#1F1141"/>
<path d="M158.28 74.3864C157.117 74.4401 155.975 74.7155 154.914 75.1977C154.623 75.3225 154.385 75.5463 154.242 75.8297C154.1 76.113 154.062 76.4376 154.136 76.7461C154.21 77.0508 154.391 77.3187 154.647 77.5008C154.902 77.6829 155.214 77.7672 155.526 77.7382C156.763 77.4348 157.927 76.8862 158.948 76.1249C159.764 75.5686 159.18 74.303 158.257 74.3864H158.28Z" fill="#1F1141"/>
<path d="M166.959 81.1549L165.967 94.27C165.967 94.27 164.719 97.1164 162.745 96.6111C160.77 96.1058 164.284 84.5021 166.959 81.1549Z" fill="#F9CBC2"/>
<path d="M167.696 78.9806C165.916 82.2258 164.075 85.4709 162.787 88.9247C162.087 90.8162 160.724 94.4276 161.938 96.4674C163.269 98.7066 166.046 95.8833 166.838 94.3488C166.977 94.0799 166.662 93.7136 166.375 93.913C165.619 94.4693 164.924 95.4753 164.099 95.8369C161.646 96.9078 162.638 92.5547 163.051 91.0712C164.196 86.9313 166.25 83.0742 168.238 79.2912C168.271 79.2183 168.275 79.1358 168.25 79.0601C168.225 78.9843 168.172 78.9208 168.102 78.8818C168.032 78.8429 167.951 78.8315 167.873 78.8497C167.795 78.868 167.727 78.9147 167.682 78.9806H167.696Z" fill="#BC6C6C"/>
<path d="M164.645 100.371C164.961 100.73 165.361 101.005 165.809 101.173C166.257 101.34 166.739 101.394 167.214 101.331C167.992 101.256 169.068 100.909 169.314 100.088C169.324 100.051 169.325 100.013 169.315 99.9756C169.306 99.9386 169.287 99.9048 169.26 99.8778C169.233 99.8508 169.199 99.8316 169.162 99.8221C169.125 99.8126 169.086 99.8132 169.049 99.8238C168.386 100.074 167.909 100.542 167.163 100.626C166.366 100.693 165.572 100.478 164.919 100.019C164.696 99.8702 164.492 100.19 164.645 100.371Z" fill="#8C4542"/>
<path d="M193.574 75.4294C193.574 75.4294 192.938 69.769 189.55 69.514C186.708 69.3007 180.533 69.2868 179.74 62.2402C178.947 55.1936 153.779 64.4469 146.528 62.4766C139.277 60.5064 134.345 49.0324 145.494 44.7812C156.644 40.5301 151.057 33.6272 165.892 35.5372C180.727 37.4472 177.283 45.8058 188.826 46.6866C189.086 46.6866 189.336 46.7423 189.582 46.7886C200.217 48.7867 198.659 74.3261 197.236 75.4294C195.813 76.5328 193.574 75.4294 193.574 75.4294Z" fill="#1F1141"/>
<path d="M210.727 167.068C210.908 167.054 211.077 166.971 211.2 166.838C211.324 166.704 211.392 166.529 211.392 166.347C211.392 166.165 211.324 165.99 211.2 165.857C211.077 165.723 210.908 165.641 210.727 165.626C210.545 165.641 210.376 165.723 210.253 165.857C210.13 165.99 210.061 166.165 210.061 166.347C210.061 166.529 210.13 166.704 210.253 166.838C210.376 166.971 210.545 167.054 210.727 167.068Z" fill="#494949"/>
<path d="M179.346 224.331C179.538 224.331 179.722 224.255 179.857 224.119C179.993 223.984 180.069 223.8 180.069 223.608C180.069 223.416 179.993 223.232 179.857 223.097C179.722 222.961 179.538 222.885 179.346 222.885C179.154 222.885 178.97 222.961 178.835 223.097C178.699 223.232 178.623 223.416 178.623 223.608C178.623 223.8 178.699 223.984 178.835 224.119C178.97 224.255 179.154 224.331 179.346 224.331Z" fill="#494949"/>
<path d="M173.101 166.363C173.091 166.403 173.078 166.441 173.064 166.479L173.384 166.062L173.333 166.095C173.18 166.184 173.06 166.321 172.993 166.485C172.925 166.649 172.914 166.831 172.96 167.002C173.006 167.173 173.107 167.324 173.248 167.432C173.389 167.54 173.561 167.598 173.739 167.598C173.916 167.598 174.088 167.54 174.229 167.432C174.37 167.324 174.471 167.173 174.517 167.002C174.564 166.831 174.552 166.649 174.485 166.485C174.417 166.321 174.297 166.184 174.144 166.095L174.093 166.062L174.413 166.479C174.399 166.441 174.386 166.403 174.376 166.363C174.334 166.227 174.249 166.109 174.134 166.024C174.02 165.94 173.881 165.894 173.739 165.894C173.596 165.894 173.457 165.94 173.343 166.024C173.228 166.109 173.143 166.227 173.101 166.363Z" fill="#494949"/>
<path d="M180.603 176.655L205.043 177.179V196.734H181.321L180.603 176.655Z" fill="#7D9B7B"/>
<path d="M42.0528 130.43L44.4728 117.598C43.6748 117.447 42.8648 117.37 42.0528 117.366C39.1405 117.364 36.3109 118.335 34.0129 120.124C31.7149 121.913 30.0801 124.418 29.3678 127.242C28.6556 130.066 28.9066 133.047 30.0812 135.712C31.2557 138.377 33.2865 140.573 35.8514 141.953C38.4162 143.333 41.3683 143.816 44.2393 143.327C47.1103 142.838 49.7358 141.405 51.6994 139.254C53.6629 137.103 54.852 134.358 55.0781 131.454C55.3042 128.551 54.5542 125.655 52.9473 123.226L42.0528 130.43Z" fill="#045B4B"/>
<path d="M55.6313 119.17C54.6669 117.712 53.42 116.463 51.9644 115.497C50.5087 114.53 48.8739 113.865 47.1568 113.542L44.7368 126.369L55.6313 119.17Z" fill="#045B4B"/>
<path d="M60.9067 86.0365L67.4249 62.7873L77.4292 72.2029L85.5097 57.2659L87.8601 58.6845L77.4292 78.1276L68.7322 69.6531L64.24 85.814L60.9067 86.0365Z" fill="#045B4B"/>
<path d="M81.7363 57.8036L89.279 62.7872L90.2989 51.4153L81.7363 57.8036Z" fill="#045B4B"/>
<path d="M110.335 220.66C110.419 219.44 112.227 207.368 113.854 207.155C115.977 206.933 113.933 213.886 113.812 215.184C114.661 214.058 115.375 213.418 117.183 212.134C118.286 211.346 122.12 208.286 122.945 209.195C123.77 210.103 121.271 212.37 119.366 214.178C118.768 214.739 117.465 215.949 116.937 216.496C119.116 214.823 124.818 210.961 125.55 212.69C126.283 214.42 119.607 218.212 117.646 219.157C120.27 218.11 127.131 214.118 127.78 216.241C128.119 217.377 121.16 220.228 119.658 221.058C120.928 220.979 126.709 219.162 127.076 221.007C127.539 223.659 118.601 223.789 117.011 223.84C115.421 223.891 110.002 223.529 110.331 219.987" fill="#FFC1B5"/>
<path d="M171.785 100.083C171.817 100.654 171.706 101.474 172.082 101.938C172.111 101.967 172.147 101.989 172.186 102.002C172.226 102.015 172.267 102.019 172.308 102.014C172.349 102.008 172.389 101.994 172.423 101.971C172.458 101.948 172.487 101.918 172.508 101.882C172.749 101.331 172.42 100.552 172.304 99.9907C172.287 99.9289 172.249 99.8754 172.195 99.84C172.142 99.8045 172.078 99.7897 172.014 99.7982C171.951 99.8067 171.892 99.838 171.85 99.8862C171.808 99.9344 171.785 99.9962 171.785 100.06V100.083Z" fill="#3E2E6D"/>
<path d="M160.867 99.0774C160.89 99.643 160.645 100.102 160.594 100.644C160.571 100.867 160.853 100.927 160.992 100.811C161.456 100.426 161.507 99.6291 161.456 99.0774C161.456 98.688 160.835 98.6834 160.849 99.0774H160.867Z" fill="#3E2E6D"/>
<path d="M157.372 101.182C157.45 101.486 157.45 101.805 157.372 102.109C157.279 102.344 157.205 102.586 157.149 102.833C157.151 102.875 157.164 102.917 157.186 102.953C157.208 102.989 157.239 103.019 157.277 103.04C157.314 103.061 157.356 103.072 157.398 103.072C157.441 103.072 157.483 103.062 157.52 103.041C158.141 102.67 158.113 101.65 157.928 101.057C157.908 100.986 157.861 100.925 157.797 100.889C157.732 100.852 157.656 100.843 157.585 100.862C157.514 100.882 157.453 100.929 157.417 100.993C157.38 101.058 157.371 101.134 157.39 101.205L157.372 101.182Z" fill="#3E2E6D"/>
<path d="M153.556 102.944C153.459 103.38 153.361 103.815 153.292 104.251C153.19 104.579 153.19 104.93 153.292 105.257C153.306 105.282 153.326 105.303 153.35 105.318C153.373 105.334 153.4 105.344 153.429 105.348C153.457 105.351 153.486 105.348 153.513 105.339C153.539 105.33 153.564 105.314 153.584 105.294C153.792 105.017 153.907 104.681 153.913 104.335C153.978 103.871 154.02 103.454 154.057 103.013C154.057 102.953 154.036 102.894 153.996 102.848C153.957 102.802 153.902 102.772 153.841 102.763C153.781 102.755 153.72 102.769 153.67 102.802C153.619 102.835 153.582 102.885 153.565 102.944H153.556Z" fill="#3E2E6D"/>
<path d="M157.371 106.226C157.443 106.584 157.443 106.953 157.371 107.311C157.265 107.588 157.202 107.881 157.186 108.178C157.186 108.212 157.196 108.245 157.213 108.275C157.23 108.304 157.255 108.328 157.284 108.345C157.314 108.362 157.347 108.371 157.381 108.371C157.415 108.371 157.449 108.362 157.478 108.345C158.169 107.951 158.09 106.727 157.942 106.073C157.863 105.711 157.325 105.869 157.39 106.226H157.371Z" fill="#3E2E6D"/>
<path d="M162.109 104.947C162.007 105.503 161.836 106.226 162.063 106.764C162.078 106.808 162.106 106.846 162.144 106.874C162.182 106.901 162.227 106.915 162.274 106.915C162.32 106.915 162.366 106.901 162.404 106.874C162.442 106.846 162.47 106.808 162.485 106.764C162.587 106.215 162.644 105.658 162.656 105.099C162.712 104.743 162.193 104.585 162.109 104.947Z" fill="#3E2E6D"/>
<path d="M155.619 113.398C155.689 113.838 155.758 114.283 155.842 114.724C155.911 115.071 155.911 115.433 156.231 115.651C156.278 115.677 156.333 115.683 156.385 115.67C156.437 115.656 156.482 115.623 156.509 115.577C156.723 115.271 156.56 114.905 156.482 114.566C156.38 114.13 156.264 113.699 156.152 113.268C156.055 112.92 155.564 113.073 155.619 113.416V113.398Z" fill="#3E2E6D"/>
<path d="M160.255 111.706C160.379 112.034 160.46 112.377 160.496 112.726C160.49 113.025 160.521 113.324 160.589 113.616C160.606 113.664 160.637 113.705 160.679 113.735C160.72 113.764 160.77 113.78 160.821 113.78C160.872 113.78 160.921 113.764 160.963 113.735C161.004 113.705 161.036 113.664 161.053 113.616C161.308 112.99 160.923 112.104 160.659 111.534C160.552 111.312 160.167 111.469 160.255 111.706Z" fill="#3E2E6D"/>
<path d="M156.848 121.251C156.95 121.565 157.032 121.886 157.094 122.211C157.099 122.508 157.172 122.799 157.307 123.064C157.323 123.091 157.346 123.113 157.373 123.128C157.4 123.144 157.431 123.152 157.462 123.152C157.493 123.152 157.524 123.144 157.551 123.128C157.579 123.113 157.601 123.091 157.617 123.064C157.886 122.54 157.534 121.627 157.367 121.107C157.26 120.783 156.741 120.922 156.848 121.251Z" fill="#3E2E6D"/>
<path d="M160.404 118.901C160.517 119.257 160.606 119.621 160.668 119.99C160.66 120.3 160.74 120.605 160.9 120.871C160.922 120.892 160.948 120.908 160.976 120.917C161.005 120.927 161.035 120.93 161.065 120.926C161.095 120.922 161.124 120.911 161.149 120.894C161.174 120.877 161.195 120.855 161.21 120.829C161.34 120.536 161.354 120.205 161.248 119.902C161.181 119.51 161.083 119.124 160.956 118.748C160.84 118.4 160.288 118.544 160.404 118.896V118.901Z" fill="#3E2E6D"/>
<path d="M166.078 109.286C166.022 109.715 166.036 110.15 166.119 110.575C166.131 110.617 166.156 110.654 166.191 110.681C166.226 110.707 166.268 110.722 166.312 110.722C166.356 110.722 166.398 110.707 166.433 110.681C166.468 110.654 166.493 110.617 166.504 110.575C166.589 110.15 166.601 109.714 166.541 109.286C166.541 109.224 166.517 109.165 166.473 109.122C166.43 109.078 166.371 109.054 166.31 109.054C166.248 109.054 166.189 109.078 166.146 109.122C166.102 109.165 166.078 109.224 166.078 109.286Z" fill="#3E2E6D"/>
<path d="M172.123 106.852C172.28 107.182 172.37 107.539 172.387 107.904C172.352 108.203 172.352 108.505 172.387 108.804C172.399 108.847 172.423 108.887 172.455 108.918C172.487 108.95 172.526 108.973 172.57 108.984C172.613 108.996 172.659 108.996 172.703 108.985C172.746 108.974 172.786 108.951 172.818 108.92C173.356 108.312 172.967 107.172 172.6 106.569C172.557 106.524 172.498 106.494 172.436 106.486C172.373 106.478 172.309 106.492 172.255 106.525C172.201 106.558 172.16 106.608 172.139 106.668C172.117 106.727 172.116 106.792 172.137 106.852H172.123Z" fill="#3E2E6D"/>
<path d="M165.369 116.578C165.369 117.074 165.193 118.159 165.628 118.511C165.65 118.533 165.676 118.549 165.705 118.559C165.734 118.568 165.765 118.572 165.795 118.568C165.825 118.564 165.854 118.554 165.88 118.538C165.906 118.522 165.927 118.5 165.944 118.474C166.058 118.229 166.076 117.949 165.995 117.691C165.943 117.322 165.911 116.95 165.897 116.578C165.897 116.508 165.869 116.441 165.82 116.391C165.77 116.342 165.703 116.314 165.633 116.314C165.563 116.314 165.496 116.342 165.446 116.391C165.397 116.441 165.369 116.508 165.369 116.578Z" fill="#3E2E6D"/>
<path d="M170.528 114.747C170.598 115.287 170.707 115.822 170.853 116.346C170.871 116.377 170.897 116.403 170.927 116.42C170.958 116.438 170.993 116.447 171.029 116.447C171.065 116.447 171.1 116.438 171.131 116.42C171.162 116.403 171.187 116.377 171.205 116.346C171.446 115.804 171.238 115.136 171.066 114.599C171.046 114.527 170.999 114.467 170.935 114.43C170.871 114.394 170.794 114.384 170.723 114.404C170.652 114.424 170.591 114.471 170.555 114.535C170.518 114.599 170.509 114.676 170.528 114.747Z" fill="#3E2E6D"/>
<path d="M158.646 127.728C158.783 128.012 158.887 128.31 158.957 128.618C158.982 128.879 159.051 129.135 159.161 129.373C159.181 129.407 159.21 129.435 159.244 129.454C159.278 129.473 159.316 129.483 159.356 129.483C159.395 129.483 159.433 129.473 159.468 129.454C159.502 129.435 159.53 129.407 159.55 129.373C159.81 128.78 159.439 127.959 159.179 127.417C159.008 127.055 158.475 127.371 158.646 127.728Z" fill="#3E2E6D"/>
<path d="M164.043 124.992C163.966 125.496 163.98 126.01 164.084 126.508C164.099 126.551 164.127 126.589 164.164 126.615C164.201 126.642 164.245 126.656 164.291 126.656C164.336 126.656 164.381 126.642 164.418 126.615C164.455 126.589 164.482 126.551 164.497 126.508C164.606 126.01 164.62 125.496 164.539 124.992C164.531 124.932 164.501 124.877 164.455 124.838C164.41 124.798 164.351 124.776 164.291 124.776C164.23 124.776 164.172 124.798 164.126 124.838C164.081 124.877 164.051 124.932 164.043 124.992Z" fill="#3E2E6D"/>
<path d="M161.794 129.661C161.85 130.009 161.878 130.361 161.878 130.713C161.85 130.979 161.88 131.248 161.966 131.501C161.986 131.534 162.015 131.561 162.048 131.579C162.082 131.598 162.12 131.608 162.158 131.608C162.197 131.608 162.234 131.598 162.268 131.579C162.302 131.561 162.33 131.534 162.351 131.501C162.652 130.982 162.411 130.083 162.29 129.526C162.216 129.202 161.748 129.345 161.794 129.661Z" fill="#3E2E6D"/>
<path d="M164.576 134.603C164.627 134.927 164.673 135.252 164.729 135.576C164.784 135.901 164.784 135.975 165.002 136.133C165.043 136.153 165.089 136.158 165.133 136.146C165.177 136.134 165.215 136.106 165.239 136.068C165.392 135.859 165.331 135.669 165.29 135.423L165.123 134.454C165.058 134.093 164.52 134.246 164.576 134.603Z" fill="#3E2E6D"/>
<path d="M168.071 122.415C168.071 122.809 167.895 123.513 168.261 123.768C168.282 123.782 168.306 123.79 168.331 123.79C168.356 123.79 168.38 123.782 168.4 123.768C168.767 123.509 168.595 122.813 168.59 122.415C168.59 122.346 168.563 122.28 168.514 122.231C168.466 122.182 168.4 122.155 168.331 122.155C168.262 122.155 168.196 122.182 168.147 122.231C168.099 122.28 168.071 122.346 168.071 122.415Z" fill="#3E2E6D"/>
<path d="M167.821 129.48C167.782 129.985 167.808 130.493 167.9 130.991C167.911 131.032 167.936 131.069 167.969 131.094C168.003 131.12 168.045 131.134 168.088 131.134C168.13 131.134 168.172 131.12 168.206 131.094C168.239 131.069 168.264 131.032 168.275 130.991C168.366 130.493 168.393 129.985 168.354 129.48C168.346 129.415 168.314 129.356 168.265 129.313C168.216 129.27 168.153 129.246 168.088 129.246C168.022 129.246 167.959 129.27 167.91 129.313C167.861 129.356 167.829 129.415 167.821 129.48Z" fill="#3E2E6D"/>
<path d="M171.757 133.856C171.72 134.389 171.786 134.924 171.951 135.432C171.975 135.471 172.01 135.502 172.051 135.521C172.092 135.54 172.138 135.548 172.182 135.542C172.227 135.536 172.27 135.517 172.304 135.488C172.339 135.459 172.365 135.42 172.378 135.377C172.46 134.871 172.443 134.355 172.327 133.856C172.294 133.495 171.733 133.485 171.757 133.856Z" fill="#3E2E6D"/>
<path d="M172.068 123.87C172.068 124.371 171.947 124.988 172.174 125.442C172.195 125.476 172.223 125.503 172.257 125.523C172.291 125.542 172.33 125.552 172.369 125.552C172.408 125.552 172.447 125.542 172.481 125.523C172.515 125.503 172.544 125.476 172.564 125.442C172.791 124.978 172.68 124.367 172.675 123.87C172.666 123.796 172.63 123.728 172.574 123.679C172.518 123.629 172.446 123.602 172.371 123.602C172.297 123.602 172.225 123.629 172.169 123.679C172.113 123.728 172.077 123.796 172.068 123.87Z" fill="#3E2E6D"/>
<path d="M177.237 128.108C177.329 128.42 177.385 128.742 177.404 129.067C177.378 129.333 177.414 129.601 177.51 129.851C177.535 129.894 177.572 129.93 177.615 129.955C177.659 129.98 177.708 129.993 177.758 129.993C177.808 129.993 177.858 129.98 177.901 129.955C177.945 129.93 177.981 129.894 178.006 129.851C178.317 129.336 178.006 128.46 177.793 127.955C177.654 127.621 177.13 127.737 177.237 128.108Z" fill="#3E2E6D"/>
<path d="M175.906 118.038C175.948 118.433 175.883 118.989 176.18 119.286C176.199 119.305 176.223 119.32 176.25 119.329C176.276 119.338 176.304 119.341 176.331 119.338C176.359 119.335 176.385 119.326 176.409 119.311C176.432 119.296 176.452 119.277 176.467 119.253C176.68 118.919 176.514 118.414 176.467 118.038C176.421 117.663 175.86 117.672 175.902 118.038H175.906Z" fill="#3E2E6D"/>
<path d="M182.132 122.188C182.179 122.516 182.155 122.851 182.063 123.17C181.979 123.439 181.78 123.699 181.812 123.982C181.814 124.012 181.822 124.042 181.836 124.069C181.85 124.097 181.87 124.12 181.894 124.139C181.919 124.157 181.947 124.17 181.977 124.177C182.007 124.183 182.038 124.183 182.067 124.176C182.772 124.014 182.86 122.753 182.795 122.188C182.744 121.775 182.081 121.77 182.132 122.188Z" fill="#3E2E6D"/>
<path d="M176.453 112.735C176.564 113.199 176.583 113.797 176.972 114.084C177.102 114.186 177.26 114.084 177.311 113.945C177.478 113.542 177.167 112.967 177.051 112.554C177.027 112.477 176.974 112.413 176.903 112.374C176.832 112.336 176.749 112.326 176.671 112.348C176.594 112.37 176.527 112.421 176.487 112.49C176.446 112.56 176.434 112.643 176.453 112.721V112.735Z" fill="#3E2E6D"/>
<path d="M179.875 112.985C179.898 113.509 179.875 114.186 180.199 114.617C180.32 114.775 180.556 114.663 180.612 114.506C180.774 114.042 180.51 113.379 180.371 112.92C180.352 112.864 180.314 112.817 180.264 112.786C180.214 112.754 180.154 112.741 180.096 112.749C180.037 112.757 179.983 112.784 179.943 112.828C179.903 112.871 179.878 112.926 179.875 112.985Z" fill="#3E2E6D"/>
<path d="M185.391 117.7C185.363 118.117 185.34 118.53 185.312 118.942C185.289 119.272 185.183 119.633 185.456 119.87C185.489 119.903 185.532 119.924 185.578 119.93C185.624 119.936 185.671 119.926 185.711 119.902C186.017 119.689 185.961 119.369 185.98 119.021C185.98 118.558 186.022 118.14 186.04 117.7C186.059 117.26 185.419 117.287 185.391 117.7Z" fill="#3E2E6D"/>
<path d="M180.829 106.259C180.777 106.653 180.797 107.054 180.89 107.441C180.904 107.491 180.935 107.535 180.976 107.567C181.018 107.599 181.069 107.616 181.122 107.616C181.174 107.616 181.225 107.599 181.267 107.567C181.309 107.535 181.339 107.491 181.353 107.441C181.443 107.053 181.464 106.653 181.414 106.259C181.414 106.181 181.383 106.107 181.328 106.052C181.273 105.997 181.199 105.966 181.122 105.966C181.044 105.966 180.97 105.997 180.915 106.052C180.86 106.107 180.829 106.181 180.829 106.259Z" fill="#3E2E6D"/>
<path d="M165.628 104.576C165.598 104.868 165.629 105.163 165.721 105.443C165.736 105.466 165.757 105.486 165.781 105.5C165.806 105.514 165.834 105.521 165.862 105.521C165.89 105.521 165.918 105.514 165.943 105.5C165.968 105.486 165.989 105.466 166.004 105.443C166.095 105.163 166.127 104.868 166.096 104.576C166.086 104.522 166.057 104.474 166.014 104.439C165.972 104.405 165.919 104.386 165.864 104.386C165.81 104.386 165.757 104.405 165.715 104.439C165.672 104.474 165.643 104.522 165.633 104.576H165.628Z" fill="#3E2E6D"/>
<path d="M166.161 97.6171C166.161 97.9834 166.017 98.4655 166.296 98.7576C166.329 98.7913 166.375 98.8102 166.423 98.8102C166.471 98.8102 166.517 98.7913 166.551 98.7576C166.829 98.4655 166.704 97.988 166.685 97.6171C166.677 97.5537 166.645 97.4954 166.597 97.4533C166.549 97.4111 166.487 97.3878 166.423 97.3878C166.359 97.3878 166.297 97.4111 166.249 97.4533C166.201 97.4954 166.17 97.5537 166.161 97.6171Z" fill="#3E2E6D"/>
<path d="M176.945 103.519C177.051 103.982 177.079 104.678 177.408 105.035C177.43 105.056 177.456 105.071 177.486 105.079C177.515 105.087 177.546 105.087 177.575 105.079C177.604 105.071 177.631 105.055 177.652 105.034C177.673 105.012 177.688 104.985 177.696 104.956C177.835 104.492 177.547 103.843 177.441 103.384C177.366 103.06 176.87 103.199 176.945 103.519Z" fill="#3E2E6D"/>
<path d="M184.399 101.553C184.425 101.821 184.425 102.091 184.399 102.36C184.362 102.598 184.362 102.84 184.399 103.078C184.412 103.123 184.437 103.163 184.472 103.193C184.507 103.223 184.551 103.242 184.597 103.248C184.642 103.254 184.689 103.247 184.731 103.226C184.772 103.206 184.807 103.174 184.83 103.134C185.136 102.726 185.058 102.031 185.002 101.553C184.96 101.173 184.362 101.164 184.399 101.553Z" fill="#3E2E6D"/>
<path d="M186.151 108.771C186.031 109.235 185.869 110.065 186.281 110.431C186.306 110.454 186.337 110.471 186.371 110.48C186.404 110.488 186.439 110.488 186.472 110.479C186.506 110.47 186.536 110.453 186.561 110.429C186.586 110.405 186.605 110.376 186.615 110.343C186.668 110.136 186.668 109.919 186.615 109.712C186.58 109.441 186.58 109.167 186.615 108.896C186.657 108.604 186.23 108.465 186.151 108.771Z" fill="#3E2E6D"/>
<path d="M191.047 107.992C191.17 108.25 191.259 108.523 191.311 108.804C191.323 109.066 191.359 109.327 191.418 109.582C191.488 109.768 191.794 109.865 191.882 109.643C192.155 109.035 191.882 108.252 191.594 107.668C191.413 107.288 190.852 107.617 191.033 107.992H191.047Z" fill="#3E2E6D"/>
<path d="M189.763 101.604C189.804 101.964 189.904 102.315 190.06 102.643C190.08 102.675 190.111 102.7 190.146 102.715C190.182 102.729 190.222 102.731 190.259 102.721C190.296 102.711 190.329 102.69 190.354 102.66C190.378 102.63 190.392 102.593 190.393 102.554C190.395 102.19 190.336 101.828 190.217 101.484C190.148 101.187 189.703 101.312 189.754 101.604H189.763Z" fill="#3E2E6D"/>
<path d="M193.639 97.4688C193.708 97.988 193.68 98.7437 193.977 99.1795C193.999 99.2141 194.03 99.2418 194.067 99.2593C194.104 99.2767 194.145 99.2831 194.186 99.2777C194.226 99.2724 194.265 99.2554 194.296 99.229C194.327 99.2025 194.35 99.1676 194.362 99.1285C194.427 98.8588 194.427 98.5776 194.362 98.3079C194.311 97.9741 194.265 97.645 194.218 97.3158C194.172 96.9867 193.597 97.1026 193.648 97.4688H193.639Z" fill="#3E2E6D"/>
<path d="M189.703 114.413C189.761 114.874 189.919 115.317 190.166 115.711C190.191 115.737 190.223 115.756 190.257 115.765C190.292 115.775 190.329 115.776 190.363 115.767C190.398 115.758 190.43 115.74 190.456 115.715C190.481 115.689 190.5 115.658 190.509 115.623C190.525 115.154 190.438 114.687 190.254 114.255C190.23 114.186 190.179 114.128 190.113 114.095C190.048 114.061 189.972 114.053 189.901 114.073C189.829 114.093 189.769 114.139 189.73 114.202C189.692 114.265 189.679 114.341 189.694 114.413H189.703Z" fill="#3E2E6D"/>
<path d="M194.538 91.5579C194.529 91.9141 194.56 92.2702 194.631 92.6195C194.644 92.6561 194.668 92.6877 194.7 92.71C194.732 92.7323 194.77 92.7442 194.809 92.7442C194.848 92.7442 194.886 92.7323 194.918 92.71C194.95 92.6877 194.974 92.6561 194.988 92.6195C195.056 92.2699 195.087 91.914 195.08 91.5579C195.072 91.4921 195.04 91.4316 194.99 91.3878C194.94 91.3441 194.876 91.3199 194.809 91.3199C194.743 91.3199 194.679 91.3441 194.629 91.3878C194.579 91.4316 194.547 91.4921 194.538 91.5579Z" fill="#3E2E6D"/>
<path d="M195.423 85.0537C195.441 85.3251 195.415 85.5976 195.345 85.8604C195.284 86.0783 195.192 86.2359 195.284 86.4538C195.3 86.5066 195.335 86.5515 195.382 86.5791C195.43 86.6068 195.486 86.615 195.539 86.6021C196.082 86.4074 196.045 85.5173 195.98 85.0537C195.938 84.7107 195.405 84.6875 195.423 85.0537Z" fill="#3E2E6D"/>
<path d="M194.951 78.7442C195.025 79.2078 195.02 79.8522 195.289 80.2416C195.317 80.2808 195.355 80.3116 195.4 80.3306C195.444 80.3496 195.493 80.3561 195.54 80.3494C195.588 80.3427 195.633 80.3231 195.671 80.2926C195.708 80.2622 195.736 80.2221 195.753 80.1767C195.887 79.7131 195.651 79.0594 195.562 78.5727C195.488 78.1601 194.872 78.3362 194.941 78.7442H194.951Z" fill="#3E2E6D"/>
<path d="M60.9256 147.379C61.1657 148.102 61.4537 148.809 61.7879 149.493C61.9431 149.754 62.1875 149.949 62.4756 150.042C62.7638 150.136 63.0762 150.122 63.3548 150.003C63.6364 149.889 63.8659 149.675 63.9993 149.402C64.1328 149.129 64.1608 148.817 64.078 148.524C63.7595 147.829 63.3924 147.156 62.9793 146.512C62.8417 146.281 62.6254 146.107 62.3701 146.022C62.1148 145.937 61.8374 145.946 61.5886 146.049C61.337 146.152 61.1321 146.344 61.0125 146.589C60.8929 146.833 60.8669 147.113 60.9395 147.375L60.9256 147.379Z" fill="#19AB90"/>
<path d="M67.2212 133.23C67.8778 133.81 68.5871 134.327 69.3398 134.774C69.5554 134.898 69.8086 134.939 70.0524 134.891C70.2963 134.843 70.5144 134.708 70.6665 134.511C70.8185 134.314 70.8942 134.069 70.8796 133.821C70.865 133.573 70.761 133.338 70.5869 133.161C70.0753 132.574 69.5104 132.035 68.8994 131.552C68.6723 131.338 68.3722 131.219 68.0603 131.219C67.7484 131.219 67.4482 131.338 67.2212 131.552C67.0009 131.776 66.8774 132.077 66.8774 132.391C66.8774 132.705 67.0009 133.007 67.2212 133.23Z" fill="#19AB90"/>
<path d="M16.7728 128.242C16.7086 129.026 16.5705 129.802 16.3602 130.56C16.2724 130.873 16.3017 131.207 16.4425 131.5C16.5833 131.792 16.826 132.024 17.1251 132.15C17.419 132.277 17.749 132.291 18.0529 132.191C18.3569 132.092 18.6139 131.884 18.7755 131.608C19.2464 130.45 19.2973 129.164 18.9192 127.973C18.8418 127.726 18.6795 127.514 18.4609 127.375C18.2424 127.236 17.9817 127.178 17.7249 127.213C17.4681 127.247 17.2317 127.371 17.0575 127.563C16.8833 127.755 16.7824 128.002 16.7728 128.261V128.242Z" fill="#19AB90"/>
<path d="M31.3898 113.143C31.9369 113.834 32.5859 114.705 33.5363 114.798C33.6713 114.797 33.8021 114.75 33.9079 114.666C34.0137 114.582 34.0884 114.466 34.1204 114.334C34.4032 113.407 33.7356 112.392 33.3184 111.636C33.2257 111.493 33.1043 111.371 32.9618 111.277C32.8193 111.183 32.6589 111.12 32.4907 111.092C32.3225 111.064 32.1503 111.071 31.985 111.113C31.8197 111.155 31.6649 111.23 31.5305 111.335C31.3962 111.44 31.2851 111.572 31.2044 111.722C31.1238 111.873 31.0753 112.038 31.0621 112.208C31.0488 112.378 31.0711 112.549 31.1276 112.71C31.184 112.871 31.2733 113.018 31.3898 113.143Z" fill="#19AB90"/>
<path d="M50.8747 106.11C51.2974 106.669 51.6205 107.296 51.8297 107.965C51.9139 108.272 52.1168 108.533 52.3937 108.691C52.6706 108.849 52.9989 108.89 53.3062 108.806C53.6136 108.722 53.875 108.519 54.0328 108.242C54.1906 107.965 54.2319 107.637 54.1477 107.329C53.9031 106.233 53.3829 105.216 52.6364 104.376C52.4024 104.147 52.0878 104.018 51.7602 104.018C51.4325 104.018 51.1179 104.147 50.884 104.376C50.66 104.613 50.5352 104.927 50.5352 105.252C50.5352 105.578 50.66 105.892 50.884 106.129L50.8747 106.11Z" fill="#19AB90"/>
<path d="M25.2241 148.297C25.4459 148.921 25.7269 149.521 26.0632 150.091C26.2058 150.325 26.427 150.5 26.687 150.585C26.9471 150.67 27.2288 150.659 27.4818 150.555C27.7348 150.449 27.9409 150.255 28.062 150.008C28.183 149.762 28.2107 149.48 28.1401 149.215C27.8634 148.51 27.5187 147.833 27.1109 147.194C26.9622 146.946 26.7223 146.765 26.4425 146.692C26.1626 146.618 25.8651 146.657 25.6135 146.8C25.3688 146.952 25.1919 147.192 25.1194 147.471C25.0469 147.749 25.0844 148.045 25.2241 148.297Z" fill="#19AB90"/>
<path d="M52.4281 57.6229C52.4281 58.3229 52.4281 59.0137 52.4559 59.723C52.4976 60.2978 52.6043 61.0859 53.346 61.1137C54.0878 61.1416 54.1851 60.3859 54.2315 59.8528C54.2917 59.1203 54.2593 58.3739 54.2639 57.6414C54.2639 56.4593 52.4095 56.4593 52.4095 57.6414L52.4281 57.6229Z" fill="#19AB90"/>
<path d="M61.2549 45.1568C61.2785 46.1478 61.3699 47.136 61.5285 48.1145C61.7834 49.3894 63.8464 49.0974 63.7908 47.8086C63.7202 46.8206 63.5824 45.8386 63.3782 44.8694C63.1742 43.6687 61.1808 43.9422 61.2549 45.1568Z" fill="#19AB90"/>
<path d="M81.7456 46.0701C81.9032 46.5661 82.0562 47.0575 82.2092 47.5489C82.4039 48.1609 82.5523 48.745 83.1364 49.0742C83.2789 49.1539 83.4376 49.2006 83.6006 49.2108C83.7636 49.221 83.9268 49.1944 84.0782 49.1329C84.2295 49.0715 84.3651 48.9768 84.475 48.8559C84.5848 48.735 84.666 48.5909 84.7126 48.4344C84.9398 47.7761 84.6106 47.2291 84.3417 46.6449C84.1285 46.1813 83.9152 45.7177 83.6973 45.2541C83.1874 44.1369 81.3516 44.9296 81.7224 46.0886L81.7456 46.0701Z" fill="#19AB90"/>
<path d="M52.1219 70.6545L52.3027 71.5817C52.3485 71.7387 52.4439 71.8767 52.5747 71.9749C52.7056 72.073 52.8647 72.1261 53.0283 72.1261C53.1918 72.1261 53.351 72.073 53.4818 71.9749C53.6126 71.8767 53.7081 71.7387 53.7538 71.5817L53.9346 70.6545C53.9638 70.5193 53.9623 70.3792 53.9303 70.2446C53.8983 70.11 53.8366 69.9842 53.7497 69.8765C53.6628 69.7689 53.5529 69.682 53.4281 69.6224C53.3032 69.5627 53.1666 69.5317 53.0283 69.5317C52.8899 69.5317 52.7533 69.5627 52.6285 69.6224C52.5036 69.682 52.3937 69.7689 52.3068 69.8765C52.2199 69.9842 52.1582 70.11 52.1262 70.2446C52.0942 70.3792 52.0927 70.5193 52.1219 70.6545Z" fill="#19AB90"/>
<path d="M70.2159 55.9864C70.4775 56.5923 70.7779 57.1808 71.1152 57.748C71.2666 57.9883 71.4985 58.1668 71.7694 58.2518C72.0404 58.3367 72.3327 58.3225 72.5941 58.2116C72.8569 58.1014 73.071 57.9 73.1971 57.6445C73.3232 57.3889 73.3527 57.0964 73.2802 56.8209C72.9932 56.1138 72.6602 55.4262 72.2835 54.7625C72.1213 54.4908 71.8588 54.2939 71.5526 54.2141C71.2464 54.1343 70.9212 54.1781 70.647 54.336C70.3782 54.5007 70.1833 54.7628 70.103 55.0677C70.0227 55.3726 70.0631 55.6967 70.2159 55.9725V55.9864Z" fill="#19AB90"/>
<path d="M69.539 89.6062C69.2317 90.9429 69.3955 92.3447 70.0026 93.5746C70.7768 95.0859 73.053 93.7507 72.2788 92.244C71.8798 91.5282 71.6827 90.7174 71.7086 89.8983C71.7642 88.6697 69.794 88.3777 69.5436 89.6062H69.539Z" fill="#19AB90"/>
<path d="M87.7257 88.2988C88.1378 89.0094 88.5914 89.6952 89.084 90.3526C89.3012 90.5714 89.5913 90.7027 89.899 90.7215C90.2068 90.7403 90.5107 90.6453 90.7529 90.4546C90.9958 90.2661 91.1624 89.9962 91.222 89.6947C91.2816 89.3931 91.2303 89.0801 91.0774 88.8134C90.7046 88.2048 90.2991 87.6167 89.8628 87.0518C89.6945 86.7717 89.4248 86.5672 89.1097 86.4809C88.7945 86.3946 88.4582 86.433 88.1707 86.5882C87.8871 86.7532 87.6795 87.0229 87.5928 87.3394C87.5061 87.6559 87.5472 87.9938 87.7071 88.2803L87.7257 88.2988Z" fill="#19AB90"/>
<path d="M95.19 76.3196C95.9374 76.924 96.768 77.4174 97.6563 77.7845C97.9051 77.851 98.1687 77.8345 98.4072 77.7374C98.6457 77.6403 98.846 77.4681 98.9776 77.2468C99.0949 77.0247 99.1406 76.7717 99.1082 76.5226C99.0758 76.2736 98.967 76.0407 98.7968 75.856C98.1059 75.189 97.3258 74.6211 96.4788 74.1685C96.3358 74.074 96.175 74.0096 96.0062 73.9794C95.8374 73.9491 95.6643 73.9536 95.4973 73.9925C95.3304 74.0315 95.1731 74.104 95.0351 74.2058C94.8971 74.3076 94.7814 74.4364 94.6949 74.5845C94.6084 74.7325 94.553 74.8966 94.5321 75.0668C94.5112 75.237 94.5252 75.4096 94.5733 75.5742C94.6214 75.7387 94.7025 75.8918 94.8117 76.0239C94.921 76.1561 95.056 76.2646 95.2086 76.3428L95.19 76.3196Z" fill="#19AB90"/>
<path d="M84.8795 75.6149C85.2517 76.1489 85.7795 76.5552 86.3909 76.7785C86.4843 76.8023 86.5818 76.8046 86.6762 76.7854C86.7707 76.7662 86.8596 76.7259 86.9362 76.6675C87.0129 76.6091 87.0754 76.5341 87.119 76.4482C87.1627 76.3622 87.1863 76.2676 87.1882 76.1712C87.2207 75.5361 86.8034 74.8963 86.465 74.391C86.3931 74.2661 86.2952 74.158 86.178 74.074C86.0608 73.99 85.927 73.932 85.7855 73.904C85.6441 73.876 85.4983 73.8786 85.3579 73.9116C85.2175 73.9446 85.0858 74.0073 84.9717 74.0954C84.8576 74.1835 84.7636 74.295 84.6961 74.4225C84.6286 74.5499 84.5892 74.6903 84.5805 74.8342C84.5717 74.9781 84.5939 75.1223 84.6455 75.2569C84.6971 75.3916 84.7769 75.5136 84.8795 75.6149Z" fill="#19AB90"/>
<path d="M96.8355 60.0799C97.381 60.9832 98.2183 61.6733 99.2091 62.0363C99.5072 62.1224 99.8264 62.0961 100.106 61.9623C100.386 61.8285 100.607 61.5965 100.727 61.3105C100.847 61.0245 100.858 60.7043 100.758 60.4108C100.658 60.1172 100.453 59.8708 100.183 59.7183C99.9648 59.6117 99.7423 59.5375 99.5197 59.4494C99.6681 59.5097 99.2694 59.3196 99.2277 59.2918C98.9717 59.1505 98.7426 58.9654 98.5508 58.7448C97.7071 57.8639 96.1355 59.0229 96.8355 60.0706V60.0799Z" fill="#19AB90"/>
<path d="M98.902 111.896L98.7675 113.556C98.7229 113.857 98.7459 114.165 98.8349 114.457C98.9239 114.749 99.0766 115.018 99.2821 115.243C99.3731 115.335 99.4814 115.408 99.6007 115.458C99.7201 115.508 99.8482 115.533 99.9775 115.533C100.107 115.533 100.235 115.508 100.354 115.458C100.474 115.408 100.582 115.335 100.673 115.243C100.878 115.018 101.031 114.749 101.12 114.457C101.209 114.165 101.232 113.857 101.187 113.556L101.053 111.896C101.053 111.612 100.94 111.34 100.739 111.139C100.539 110.938 100.266 110.825 99.9821 110.825C99.6981 110.825 99.4257 110.938 99.2249 111.139C99.0241 111.34 98.9112 111.612 98.9112 111.896H98.902Z" fill="#19AB90"/>
<path d="M131.541 93.8301L132.547 94.6878C132.918 95.0734 133.378 95.3629 133.887 95.5315C134.61 95.6706 135.546 95.0354 135.222 94.201C134.897 93.3665 133.942 92.7407 133.214 92.1519C132.989 91.9373 132.689 91.8177 132.378 91.8177C132.066 91.8177 131.766 91.9373 131.541 92.1519C131.32 92.3756 131.197 92.677 131.197 92.991C131.197 93.305 131.32 93.6064 131.541 93.8301Z" fill="#19AB90"/>
<path d="M137.689 106.078C137.677 106.871 137.734 107.664 137.861 108.447C138.06 109.541 139.877 109.541 140.072 108.447C140.201 107.664 140.263 106.871 140.257 106.078C140.257 105.738 140.123 105.413 139.883 105.173C139.643 104.933 139.317 104.798 138.978 104.798C138.639 104.798 138.313 104.933 138.073 105.173C137.833 105.413 137.698 105.738 137.698 106.078H137.689Z" fill="#19AB90"/>
<path d="M105.294 104.381L106.819 102.712C107.31 102.175 107.932 101.66 107.969 100.895C107.967 100.783 107.94 100.672 107.89 100.572C107.84 100.471 107.767 100.383 107.678 100.315C107.588 100.247 107.485 100.199 107.374 100.177C107.264 100.155 107.15 100.158 107.041 100.186C106.355 100.306 105.906 101.034 105.479 101.53L104.07 103.139C103.347 103.973 104.533 105.193 105.294 104.363V104.381Z" fill="#19AB90"/>
<path d="M130.321 119.855C130.502 120.545 130.636 121.273 130.882 121.941C130.985 122.283 131.215 122.573 131.526 122.75C131.837 122.927 132.204 122.978 132.551 122.891C132.889 122.784 133.174 122.551 133.346 122.241C133.518 121.931 133.566 121.566 133.478 121.222C133.33 120.522 133.061 119.832 132.848 119.155C132.742 118.832 132.517 118.561 132.218 118.4C131.918 118.239 131.569 118.2 131.241 118.29C130.913 118.38 130.633 118.593 130.458 118.884C130.283 119.176 130.228 119.523 130.302 119.855H130.321Z" fill="#19AB90"/>
</svg>
