<svg width="738" height="757" viewBox="0 0 738 757" fill="none" xmlns="http://www.w3.org/2000/svg">
<path d="M65.6601 288.236L115.18 551.336C122.074 587.95 141.942 620.849 171.138 643.995C200.334 667.14 236.899 678.978 274.12 677.336L518.39 666.566C556.379 664.893 592.423 649.295 619.647 622.748C646.871 596.2 663.371 560.561 666 522.626L685.35 243.056C691.91 148.206 612.21 69.916 517.49 78.156L204.36 105.396C113.15 113.336 48.7301 198.266 65.6601 288.236Z" fill="#EFEFE8"/>
<path d="M408 385.311L135.003 394C135.003 394 132.918 316.273 239.103 351.78C239.103 351.78 218.29 297.872 271.501 301.143C324.713 304.414 317.776 351.78 317.776 351.78C317.776 351.78 408 304.687 408 385.311Z" fill="white"/>
<path d="M663 284.775L405.003 293C405.003 293 403.037 219.422 503.394 253.043C503.394 253.043 483.711 202.053 534.001 205.134C584.292 208.215 577.723 253.043 577.723 253.043C577.723 253.043 663 208.489 663 284.775Z" fill="white"/>
<path d="M97.6501 333.056C98.024 334.968 98.6006 336.836 99.3701 338.626C100.37 340.626 103.74 339.706 103.63 337.476C103.414 335.527 102.992 333.606 102.37 331.746C101.55 328.746 96.8601 329.996 97.6501 333.056Z" fill="#627F60"/>
<path opacity="0.22" d="M65.75 143.566C65.0704 143.487 64.3817 143.583 63.75 143.846C63.5387 143.972 63.3636 144.15 63.2421 144.364C63.1205 144.578 63.0566 144.82 63.0566 145.066C63.0566 145.312 63.1205 145.554 63.2421 145.768C63.3636 145.981 63.5387 146.16 63.75 146.286C64.3806 146.553 65.0703 146.649 65.75 146.566C66.1478 146.566 66.5294 146.408 66.8107 146.127C67.092 145.845 67.25 145.464 67.25 145.066C67.25 144.668 67.092 144.287 66.8107 144.005C66.5294 143.724 66.1478 143.566 65.75 143.566Z" fill="#333333"/>
<path opacity="0.22" d="M65.75 180.746C66.1357 180.715 66.4955 180.54 66.7579 180.255C67.0203 179.971 67.166 179.598 67.166 179.211C67.166 178.824 67.0203 178.451 66.7579 178.167C66.4955 177.882 66.1357 177.707 65.75 177.676C65.3643 177.707 65.0044 177.882 64.742 178.167C64.4797 178.451 64.334 178.824 64.334 179.211C64.334 179.598 64.4797 179.971 64.742 180.255C65.0044 180.54 65.3643 180.715 65.75 180.746Z" fill="#333333"/>
<path opacity="0.22" d="M65.7499 180.626C66.1047 180.596 66.4352 180.434 66.6762 180.172C66.9171 179.91 67.0509 179.567 67.0509 179.211C67.0509 178.855 66.9171 178.512 66.6762 178.25C66.4352 177.988 66.1047 177.826 65.7499 177.796C65.3952 177.826 65.0646 177.988 64.8236 178.25C64.5827 178.512 64.449 178.855 64.449 179.211C64.449 179.567 64.5827 179.91 64.8236 180.172C65.0646 180.434 65.3952 180.596 65.7499 180.626Z" fill="#333333"/>
<path opacity="0.22" d="M72.3001 181.886L76.2401 183.196V183.106L72.3001 181.796C72.2401 181.796 72.2201 181.866 72.3001 181.886Z" fill="#333333"/>
<path opacity="0.22" d="M274.55 135.876C274.55 136.206 274.55 136.526 274.55 136.876C274.55 137.231 274.691 137.572 274.943 137.823C275.194 138.075 275.535 138.216 275.89 138.216C276.245 138.216 276.586 138.075 276.838 137.823C277.089 137.572 277.23 137.231 277.23 136.876C277.23 136.546 277.23 136.226 277.23 135.876C277.23 135.526 277.091 135.19 276.843 134.943C276.596 134.695 276.26 134.556 275.91 134.556C275.56 134.556 275.224 134.695 274.977 134.943C274.729 135.19 274.59 135.526 274.59 135.876H274.55Z" fill="#333333"/>
<path opacity="0.22" d="M675.1 88.886C675.524 88.886 675.931 88.7175 676.231 88.4174C676.531 88.1174 676.7 87.7104 676.7 87.286C676.7 86.8617 676.531 86.4547 676.231 86.1547C675.931 85.8546 675.524 85.686 675.1 85.686C674.676 85.686 674.269 85.8546 673.969 86.1547C673.669 86.4547 673.5 86.8617 673.5 87.286C673.5 87.7104 673.669 88.1174 673.969 88.4174C674.269 88.7175 674.676 88.886 675.1 88.886Z" fill="#333333"/>
<path opacity="0.22" d="M641 105.866C641.368 105.823 641.708 105.647 641.954 105.37C642.2 105.094 642.337 104.736 642.337 104.366C642.337 103.996 642.2 103.638 641.954 103.361C641.708 103.085 641.368 102.909 641 102.866C640.632 102.909 640.293 103.085 640.046 103.361C639.8 103.638 639.664 103.996 639.664 104.366C639.664 104.736 639.8 105.094 640.046 105.37C640.293 105.647 640.632 105.823 641 105.866Z" fill="#333333"/>
<path opacity="0.22" d="M659.34 120.406C659.764 120.406 660.171 120.237 660.471 119.937C660.771 119.637 660.94 119.23 660.94 118.806C660.94 118.382 660.771 117.975 660.471 117.675C660.171 117.375 659.764 117.206 659.34 117.206C658.916 117.206 658.509 117.375 658.209 117.675C657.909 117.975 657.74 118.382 657.74 118.806C657.74 119.23 657.909 119.637 658.209 119.937C658.509 120.237 658.916 120.406 659.34 120.406Z" fill="#333333"/>
<path opacity="0.22" d="M618.63 133.356C619.007 133.356 619.368 133.206 619.634 132.94C619.9 132.674 620.05 132.313 620.05 131.936C620.05 131.559 619.9 131.198 619.634 130.932C619.368 130.666 619.007 130.516 618.63 130.516C618.253 130.516 617.892 130.666 617.626 130.932C617.36 131.198 617.21 131.559 617.21 131.936C617.21 132.313 617.36 132.674 617.626 132.94C617.892 133.206 618.253 133.356 618.63 133.356Z" fill="#333333"/>
<path opacity="0.22" d="M655.4 179.666C655.845 179.632 656.261 179.432 656.565 179.105C656.868 178.777 657.037 178.347 657.037 177.901C657.037 177.454 656.868 177.025 656.565 176.697C656.261 176.37 655.845 176.169 655.4 176.136C654.955 176.169 654.539 176.37 654.235 176.697C653.932 177.025 653.763 177.454 653.763 177.901C653.763 178.347 653.932 178.777 654.235 179.105C654.539 179.432 654.955 179.632 655.4 179.666Z" fill="#333333"/>
<path opacity="0.22" d="M621.26 91.266C620.627 91.2405 619.998 91.3856 619.44 91.686C619.293 91.7751 619.172 91.9006 619.087 92.0504C619.003 92.2002 618.959 92.3691 618.959 92.541C618.959 92.7129 619.003 92.8818 619.087 93.0316C619.172 93.1814 619.293 93.3069 619.44 93.396C620.001 93.6884 620.628 93.8298 621.26 93.806C622.89 93.956 622.89 91.116 621.26 91.266Z" fill="#333333"/>
<path opacity="0.22" d="M634.39 639.136C634.814 639.136 635.221 638.967 635.521 638.667C635.821 638.367 635.99 637.96 635.99 637.536C635.99 637.112 635.821 636.705 635.521 636.405C635.221 636.105 634.814 635.936 634.39 635.936C633.966 635.936 633.559 636.105 633.259 636.405C632.959 636.705 632.79 637.112 632.79 637.536C632.79 637.96 632.959 638.367 633.259 638.667C633.559 638.967 633.966 639.136 634.39 639.136Z" fill="#333333"/>
<path opacity="0.22" d="M598.93 644.346C599.321 644.314 599.686 644.137 599.952 643.849C600.218 643.561 600.365 643.183 600.365 642.791C600.365 642.399 600.218 642.021 599.952 641.733C599.686 641.445 599.321 641.267 598.93 641.236C598.539 641.267 598.174 641.445 597.909 641.733C597.643 642.021 597.495 642.399 597.495 642.791C597.495 643.183 597.643 643.561 597.909 643.849C598.174 644.137 598.539 644.314 598.93 644.346Z" fill="#333333"/>
<path opacity="0.22" d="M616.57 613.876C617.57 614.416 618.95 615.466 620.17 615.076C620.447 614.996 620.682 614.812 620.824 614.561C620.966 614.31 621.004 614.014 620.93 613.736C620.49 612.476 619.05 612.096 617.93 611.546C616.39 610.796 615.03 613.076 616.57 613.876Z" fill="#333333"/>
<path opacity="0.22" d="M643.58 599.356C643.883 599.328 644.165 599.188 644.37 598.964C644.576 598.739 644.69 598.445 644.69 598.141C644.69 597.836 644.576 597.543 644.37 597.318C644.165 597.093 643.883 596.953 643.58 596.926C643.277 596.953 642.995 597.093 642.789 597.318C642.584 597.543 642.47 597.836 642.47 598.141C642.47 598.445 642.584 598.739 642.789 598.964C642.995 599.188 643.277 599.328 643.58 599.356Z" fill="#333333"/>
<path opacity="0.22" d="M581.86 589.946C582.125 589.946 582.38 589.84 582.567 589.653C582.755 589.465 582.86 589.211 582.86 588.946C582.86 588.681 582.755 588.426 582.567 588.239C582.38 588.051 582.125 587.946 581.86 587.946C581.595 587.946 581.34 588.051 581.153 588.239C580.965 588.426 580.86 588.681 580.86 588.946C580.86 589.211 580.965 589.465 581.153 589.653C581.34 589.84 581.595 589.946 581.86 589.946Z" fill="#333333"/>
<path opacity="0.22" d="M547.53 452.366C547.387 453.046 547.49 453.755 547.82 454.366C547.945 454.575 548.122 454.748 548.334 454.869C548.547 454.989 548.786 455.052 549.03 455.052C549.274 455.052 549.513 454.989 549.725 454.869C549.938 454.748 550.115 454.575 550.24 454.366C550.561 453.752 550.663 453.046 550.53 452.366C550.53 451.968 550.372 451.587 550.091 451.305C549.809 451.024 549.428 450.866 549.03 450.866C548.632 450.866 548.251 451.024 547.969 451.305C547.688 451.587 547.53 451.968 547.53 452.366Z" fill="#333333"/>
<path opacity="0.22" d="M551.65 473.276C551.971 473.276 552.279 473.148 552.506 472.922C552.732 472.695 552.86 472.387 552.86 472.066C552.86 471.745 552.732 471.437 552.506 471.21C552.279 470.983 551.971 470.856 551.65 470.856C551.329 470.856 551.021 470.983 550.794 471.21C550.567 471.437 550.44 471.745 550.44 472.066C550.44 472.387 550.567 472.695 550.794 472.922C551.021 473.148 551.329 473.276 551.65 473.276Z" fill="#333333"/>
<path opacity="0.22" d="M566.1 455.056C566.439 455.027 566.755 454.872 566.985 454.621C567.216 454.37 567.343 454.042 567.343 453.701C567.343 453.361 567.216 453.032 566.985 452.782C566.755 452.531 566.439 452.375 566.1 452.346C565.761 452.375 565.445 452.531 565.214 452.782C564.984 453.032 564.856 453.361 564.856 453.701C564.856 454.042 564.984 454.37 565.214 454.621C565.445 454.872 565.761 455.027 566.1 455.056Z" fill="#333333"/>
<path opacity="0.22" d="M384.87 594.596C385.323 594.596 385.758 594.416 386.079 594.095C386.4 593.775 386.58 593.34 386.58 592.886C386.58 592.433 386.4 591.998 386.079 591.677C385.758 591.356 385.323 591.176 384.87 591.176C384.416 591.176 383.981 591.356 383.661 591.677C383.34 591.998 383.16 592.433 383.16 592.886C383.16 593.34 383.34 593.775 383.661 594.095C383.981 594.416 384.416 594.596 384.87 594.596Z" fill="#333333"/>
<path opacity="0.22" d="M377 570.806C377.393 570.854 377.792 570.819 378.171 570.704C378.55 570.588 378.9 570.395 379.2 570.136C379.431 569.897 379.56 569.578 379.56 569.246C379.56 568.914 379.431 568.595 379.2 568.356C378.899 568.099 378.549 567.907 378.17 567.794C377.791 567.68 377.392 567.647 377 567.696C375 567.566 375 570.936 377 570.806Z" fill="#333333"/>
<path opacity="0.22" d="M404.57 593.206C404.981 593.174 405.366 592.988 405.646 592.684C405.926 592.381 406.082 591.984 406.082 591.571C406.082 591.158 405.926 590.761 405.646 590.457C405.366 590.154 404.981 589.968 404.57 589.936C404.158 589.968 403.774 590.154 403.494 590.457C403.214 590.761 403.058 591.158 403.058 591.571C403.058 591.984 403.214 592.381 403.494 592.684C403.774 592.988 404.158 593.174 404.57 593.206Z" fill="#333333"/>
<path opacity="0.22" d="M400.42 569.456C400.143 569.001 399.739 568.637 399.257 568.409C398.775 568.182 398.237 568.101 397.71 568.176C397.523 568.226 397.352 568.324 397.215 568.461C397.078 568.598 396.98 568.769 396.93 568.956C396.855 569.485 396.936 570.024 397.164 570.507C397.391 570.991 397.755 571.397 398.21 571.676C398.51 571.936 398.899 572.073 399.296 572.058C399.693 572.044 400.07 571.879 400.351 571.597C400.631 571.315 400.794 570.938 400.807 570.54C400.82 570.143 400.682 569.755 400.42 569.456Z" fill="#333333"/>
<path opacity="0.22" d="M386.18 540.666C386.589 540.634 386.971 540.449 387.249 540.148C387.528 539.846 387.682 539.451 387.682 539.041C387.682 538.631 387.528 538.236 387.249 537.935C386.971 537.633 386.589 537.448 386.18 537.416C385.771 537.448 385.389 537.633 385.111 537.935C384.832 538.236 384.677 538.631 384.677 539.041C384.677 539.451 384.832 539.846 385.111 540.148C385.389 540.449 385.771 540.634 386.18 540.666Z" fill="#333333"/>
<path opacity="0.22" d="M404.62 548.606C404.988 548.563 405.327 548.387 405.574 548.11C405.82 547.834 405.956 547.476 405.956 547.106C405.956 546.735 405.82 546.378 405.574 546.101C405.327 545.825 404.988 545.648 404.62 545.606C404.252 545.648 403.912 545.825 403.666 546.101C403.42 546.378 403.283 546.735 403.283 547.106C403.283 547.476 403.42 547.834 403.666 548.11C403.912 548.387 404.252 548.563 404.62 548.606Z" fill="#333333"/>
<path opacity="0.22" d="M431.15 598.926C431.15 597.926 430.72 596.706 429.52 596.706C428.32 596.706 427.91 597.926 427.88 598.926C427.83 601.026 431.2 601.036 431.15 598.926Z" fill="#333333"/>
<path opacity="0.22" d="M397.38 394.866L397.32 395.106C396.83 397.106 400.22 397.106 399.73 395.106L399.67 394.866C399.594 394.622 399.441 394.409 399.235 394.258C399.029 394.107 398.781 394.025 398.525 394.025C398.27 394.025 398.021 394.107 397.815 394.258C397.609 394.409 397.457 394.622 397.38 394.866Z" fill="#333333"/>
<path opacity="0.22" d="M398 412.366C398.36 412.336 398.695 412.172 398.94 411.906C399.184 411.64 399.32 411.292 399.32 410.931C399.32 410.57 399.184 410.222 398.94 409.956C398.695 409.69 398.36 409.526 398 409.496C397.64 409.526 397.305 409.69 397.06 409.956C396.816 410.222 396.68 410.57 396.68 410.931C396.68 411.292 396.816 411.64 397.06 411.906C397.305 412.172 397.64 412.336 398 412.366Z" fill="#333333"/>
<path opacity="0.22" d="M405.55 412.466L405.83 412.676C406.001 412.783 406.198 412.84 406.4 412.84C406.602 412.84 406.799 412.783 406.97 412.676C407.128 412.566 407.266 412.431 407.38 412.276C407.488 412.104 407.546 411.904 407.546 411.701C407.546 411.497 407.488 411.298 407.38 411.126L407.17 410.846C407.075 410.701 406.948 410.578 406.799 410.488C406.651 410.398 406.484 410.341 406.311 410.324C406.138 410.306 405.964 410.327 405.8 410.385C405.636 410.443 405.487 410.537 405.364 410.66C405.241 410.783 405.147 410.932 405.089 411.096C405.031 411.26 405.01 411.434 405.028 411.607C405.045 411.78 405.102 411.947 405.192 412.096C405.282 412.244 405.404 412.371 405.55 412.466Z" fill="#333333"/>
<path opacity="0.22" d="M389.74 366.226V366.476C389.74 366.786 389.863 367.084 390.083 367.303C390.302 367.523 390.6 367.646 390.91 367.646C391.22 367.646 391.518 367.523 391.737 367.303C391.957 367.084 392.08 366.786 392.08 366.476V366.226C392.053 365.936 391.919 365.666 391.703 365.469C391.488 365.273 391.207 365.164 390.915 365.164C390.623 365.164 390.342 365.273 390.127 365.469C389.911 365.666 389.777 365.936 389.75 366.226H389.74Z" fill="#333333"/>
<path opacity="0.22" d="M381.25 377.886C381.96 377.816 382.41 377.886 382.82 377.216C382.879 377.118 382.91 377.006 382.91 376.891C382.91 376.776 382.879 376.664 382.82 376.566C382.41 375.936 381.96 375.966 381.25 375.906C379.98 375.796 379.97 377.996 381.25 377.906V377.886Z" fill="#333333"/>
<path opacity="0.22" d="M245.44 438.666L245.02 438.596C245.276 438.817 245.607 438.933 245.945 438.921C246.283 438.909 246.604 438.769 246.844 438.53C247.083 438.29 247.223 437.969 247.235 437.631C247.247 437.293 247.131 436.962 246.91 436.706C246.636 436.416 246.289 436.205 245.906 436.092C245.523 435.98 245.118 435.971 244.73 436.066C244.387 436.164 244.096 436.393 243.92 436.704C243.744 437.014 243.698 437.381 243.79 437.726C243.893 438.064 244.121 438.35 244.428 438.525C244.735 438.7 245.097 438.75 245.44 438.666Z" fill="#333333"/>
<path opacity="0.22" d="M269.47 433.456C269.783 433.456 270.083 433.332 270.304 433.11C270.526 432.889 270.65 432.589 270.65 432.276C270.65 431.963 270.526 431.663 270.304 431.441C270.083 431.22 269.783 431.096 269.47 431.096C269.157 431.096 268.857 431.22 268.636 431.441C268.414 431.663 268.29 431.963 268.29 432.276C268.29 432.589 268.414 432.889 268.636 433.11C268.857 433.332 269.157 433.456 269.47 433.456Z" fill="#333333"/>
<path opacity="0.22" d="M279 449.866C279.54 451.206 280.78 451.216 281.32 449.866C282.09 447.946 278.23 447.936 279 449.866Z" fill="#333333"/>
<path opacity="0.22" d="M284.71 471.886C284.975 471.886 285.23 471.781 285.417 471.593C285.605 471.406 285.71 471.151 285.71 470.886C285.71 470.621 285.605 470.366 285.417 470.179C285.23 469.991 284.975 469.886 284.71 469.886C284.445 469.886 284.19 469.991 284.003 470.179C283.815 470.366 283.71 470.621 283.71 470.886C283.71 471.151 283.815 471.406 284.003 471.593C284.19 471.781 284.445 471.886 284.71 471.886Z" fill="#333333"/>
<path opacity="0.22" d="M301.86 467.696H302.11C302.4 467.609 302.654 467.43 302.835 467.187C303.016 466.944 303.113 466.649 303.113 466.346C303.113 466.043 303.016 465.748 302.835 465.505C302.654 465.262 302.4 465.083 302.11 464.996H301.86C301.651 464.945 301.434 464.943 301.224 464.988C301.014 465.034 300.817 465.127 300.648 465.26C300.479 465.393 300.342 465.562 300.248 465.755C300.154 465.949 300.105 466.161 300.105 466.376C300.105 466.591 300.154 466.803 300.248 466.996C300.342 467.19 300.479 467.359 300.648 467.492C300.817 467.625 301.014 467.718 301.224 467.763C301.434 467.809 301.651 467.807 301.86 467.756V467.696Z" fill="#333333"/>
<path opacity="0.22" d="M290.81 492.856C290.401 492.806 289.988 492.909 289.65 493.146C289.46 493.263 289.303 493.427 289.194 493.622C289.085 493.818 289.028 494.037 289.028 494.261C289.028 494.484 289.085 494.704 289.194 494.899C289.303 495.095 289.46 495.259 289.65 495.376C289.989 495.608 290.401 495.711 290.81 495.666C291.162 495.636 291.49 495.475 291.729 495.215C291.969 494.955 292.101 494.614 292.101 494.261C292.101 493.907 291.969 493.567 291.729 493.307C291.49 493.047 291.162 492.886 290.81 492.856Z" fill="#333333"/>
<path opacity="0.22" d="M304.69 513.826C305.361 514 306.073 513.922 306.69 513.606C306.872 513.497 307.023 513.342 307.128 513.157C307.233 512.972 307.288 512.763 307.288 512.551C307.288 512.338 307.233 512.13 307.128 511.945C307.023 511.76 306.872 511.605 306.69 511.496C306.073 511.18 305.361 511.102 304.69 511.276C304.415 511.357 304.174 511.526 304.003 511.755C303.831 511.985 303.739 512.264 303.739 512.551C303.739 512.838 303.831 513.117 304.003 513.346C304.174 513.576 304.415 513.744 304.69 513.826Z" fill="#333333"/>
<path opacity="0.22" d="M311.64 500.526C311.936 500.499 312.21 500.362 312.41 500.143C312.61 499.924 312.721 499.638 312.721 499.341C312.721 499.044 312.61 498.758 312.41 498.539C312.21 498.32 311.936 498.183 311.64 498.156C311.345 498.183 311.07 498.32 310.87 498.539C310.67 498.758 310.559 499.044 310.559 499.341C310.559 499.638 310.67 499.924 310.87 500.143C311.07 500.362 311.345 500.499 311.64 500.526Z" fill="#333333"/>
<path opacity="0.22" d="M324.16 509.676V509.926C324.092 510.196 324.112 510.481 324.216 510.74C324.32 510.999 324.504 511.218 324.74 511.366C324.935 511.488 325.16 511.553 325.39 511.553C325.62 511.553 325.845 511.488 326.04 511.366C326.277 511.218 326.462 511 326.568 510.741C326.674 510.483 326.695 510.197 326.63 509.926V509.676C326.554 509.416 326.396 509.188 326.18 509.026C325.964 508.864 325.7 508.776 325.43 508.776C325.16 508.776 324.896 508.864 324.68 509.026C324.464 509.188 324.306 509.416 324.23 509.676H324.16Z" fill="#333333"/>
<path opacity="0.22" d="M153.2 501.456C152.828 501.848 152.605 502.357 152.57 502.896C152.573 503.176 152.685 503.444 152.883 503.643C153.082 503.841 153.35 503.953 153.63 503.956C154.169 503.922 154.679 503.699 155.07 503.326C156.4 502.236 154.29 500.126 153.2 501.456Z" fill="#333333"/>
<path opacity="0.22" d="M149.56 484.196C149.837 484.17 150.095 484.041 150.283 483.835C150.47 483.628 150.574 483.36 150.574 483.081C150.574 482.802 150.47 482.533 150.283 482.327C150.095 482.121 149.837 481.992 149.56 481.966C149.282 481.992 149.025 482.121 148.837 482.327C148.65 482.533 148.546 482.802 148.546 483.081C148.546 483.36 148.65 483.628 148.837 483.835C149.025 484.041 149.282 484.17 149.56 484.196Z" fill="#333333"/>
<path opacity="0.22" d="M164.81 490.596C165.051 490.596 165.283 490.5 165.453 490.329C165.624 490.159 165.72 489.927 165.72 489.686C165.72 489.444 165.624 489.213 165.453 489.042C165.283 488.872 165.051 488.776 164.81 488.776C164.569 488.776 164.337 488.872 164.166 489.042C163.996 489.213 163.9 489.444 163.9 489.686C163.9 489.927 163.996 490.159 164.166 490.329C164.337 490.5 164.569 490.596 164.81 490.596Z" fill="#333333"/>
<path opacity="0.22" d="M164.55 478.946C164.955 479.108 165.384 479.202 165.82 479.226C166.31 479.226 166.82 478.596 166.44 478.146C166.122 477.748 165.736 477.41 165.3 477.146C164.18 476.386 163.13 478.446 164.55 478.936V478.946Z" fill="#333333"/>
<path opacity="0.22" d="M152.61 475.936C152.875 475.936 153.13 475.831 153.317 475.643C153.505 475.456 153.61 475.201 153.61 474.936C153.61 474.671 153.505 474.417 153.317 474.229C153.13 474.041 152.875 473.936 152.61 473.936C152.345 473.936 152.091 474.041 151.903 474.229C151.715 474.417 151.61 474.671 151.61 474.936C151.61 475.201 151.715 475.456 151.903 475.643C152.091 475.831 152.345 475.936 152.61 475.936Z" fill="#333333"/>
<path opacity="0.22" d="M159.73 461.136C160.087 461.106 160.42 460.943 160.663 460.679C160.906 460.415 161.04 460.069 161.04 459.711C161.04 459.352 160.906 459.007 160.663 458.743C160.42 458.479 160.087 458.316 159.73 458.286C159.373 458.316 159.04 458.479 158.797 458.743C158.554 459.007 158.419 459.352 158.419 459.711C158.419 460.069 158.554 460.415 158.797 460.679C159.04 460.943 159.373 461.106 159.73 461.136Z" fill="#333333"/>
<path opacity="0.22" d="M154.1 440.186C154.177 440.491 154.348 440.764 154.59 440.966C154.742 441.111 154.945 441.192 155.155 441.192C155.365 441.192 155.567 441.111 155.72 440.966C155.958 440.763 156.126 440.49 156.2 440.186C156.85 438.436 153.46 438.426 154.1 440.186Z" fill="#333333"/>
<path opacity="0.22" d="M181.57 448.566C181.847 448.566 182.113 448.456 182.309 448.26C182.505 448.064 182.615 447.798 182.615 447.521C182.615 447.244 182.505 446.978 182.309 446.782C182.113 446.586 181.847 446.476 181.57 446.476C181.293 446.476 181.027 446.586 180.831 446.782C180.635 446.978 180.525 447.244 180.525 447.521C180.525 447.798 180.635 448.064 180.831 448.26C181.027 448.456 181.293 448.566 181.57 448.566Z" fill="#333333"/>
<path opacity="0.22" d="M183.61 439.056H184.28C184.577 439.056 184.862 438.938 185.072 438.728C185.282 438.518 185.4 438.233 185.4 437.936C185.4 437.639 185.282 437.354 185.072 437.144C184.862 436.934 184.577 436.816 184.28 436.816H183.61C182.12 436.736 182.12 439.206 183.61 439.126V439.056Z" fill="#333333"/>
<path opacity="0.22" d="M189.2 434.056C189.506 434.028 189.79 433.887 189.997 433.661C190.204 433.434 190.319 433.138 190.319 432.831C190.319 432.524 190.204 432.228 189.997 432.001C189.79 431.775 189.506 431.634 189.2 431.606C188.894 431.634 188.61 431.775 188.403 432.001C188.196 432.228 188.081 432.524 188.081 432.831C188.081 433.138 188.196 433.434 188.403 433.661C188.61 433.887 188.894 434.028 189.2 434.056Z" fill="#333333"/>
<path opacity="0.22" d="M117.56 507.626H117.81C118.098 507.599 118.365 507.466 118.56 507.252C118.755 507.039 118.863 506.76 118.863 506.471C118.863 506.182 118.755 505.903 118.56 505.69C118.365 505.476 118.098 505.343 117.81 505.316H117.56C117.25 505.316 116.952 505.439 116.733 505.659C116.513 505.878 116.39 506.176 116.39 506.486C116.39 506.796 116.513 507.094 116.733 507.313C116.952 507.533 117.25 507.656 117.56 507.656V507.626Z" fill="#333333"/>
<path opacity="0.22" d="M114 491.626C114.229 491.602 114.44 491.494 114.594 491.324C114.748 491.153 114.834 490.931 114.834 490.701C114.834 490.471 114.748 490.249 114.594 490.078C114.44 489.907 114.229 489.8 114 489.776C113.771 489.8 113.559 489.907 113.405 490.078C113.251 490.249 113.166 490.471 113.166 490.701C113.166 490.931 113.251 491.153 113.405 491.324C113.559 491.494 113.771 491.602 114 491.626Z" fill="#333333"/>
<path opacity="0.22" d="M159.83 655.376H159.59C158.17 655.586 158.17 658.026 159.59 658.236H159.83C160.052 658.288 160.282 658.289 160.504 658.24C160.726 658.19 160.934 658.091 161.113 657.949C161.291 657.808 161.435 657.628 161.535 657.423C161.634 657.218 161.685 656.994 161.685 656.766C161.685 656.538 161.634 656.313 161.535 656.109C161.435 655.904 161.291 655.724 161.113 655.582C160.934 655.441 160.726 655.342 160.504 655.292C160.282 655.243 160.052 655.244 159.83 655.296V655.376Z" fill="#333333"/>
<path opacity="0.22" d="M155.15 638.346C155.365 638.346 155.571 638.261 155.723 638.109C155.875 637.957 155.96 637.751 155.96 637.536C155.96 637.321 155.875 637.115 155.723 636.963C155.571 636.811 155.365 636.726 155.15 636.726C154.935 636.726 154.729 636.811 154.577 636.963C154.425 637.115 154.34 637.321 154.34 637.536C154.34 637.751 154.425 637.957 154.577 638.109C154.729 638.261 154.935 638.346 155.15 638.346Z" fill="#333333"/>
<path opacity="0.22" d="M181.07 654.206C181.296 654.182 181.506 654.076 181.658 653.907C181.81 653.738 181.894 653.518 181.894 653.291C181.894 653.064 181.81 652.844 181.658 652.675C181.506 652.506 181.296 652.4 181.07 652.376C180.844 652.4 180.634 652.506 180.482 652.675C180.33 652.844 180.246 653.064 180.246 653.291C180.246 653.518 180.33 653.738 180.482 653.907C180.634 654.076 180.844 654.182 181.07 654.206Z" fill="#333333"/>
<path opacity="0.22" d="M171.92 632.056C172.212 632.056 172.492 631.94 172.698 631.734C172.904 631.527 173.02 631.248 173.02 630.956C173.02 630.664 172.904 630.384 172.698 630.178C172.492 629.972 172.212 629.856 171.92 629.856C171.628 629.856 171.349 629.972 171.142 630.178C170.936 630.384 170.82 630.664 170.82 630.956C170.82 631.248 170.936 631.527 171.142 631.734C171.349 631.94 171.628 632.056 171.92 632.056Z" fill="#333333"/>
<path opacity="0.22" d="M220.19 666.056C220.487 666.056 220.772 665.938 220.982 665.728C221.192 665.518 221.31 665.233 221.31 664.936C221.31 664.639 221.192 664.354 220.982 664.144C220.772 663.934 220.487 663.816 220.19 663.816C219.893 663.816 219.608 663.934 219.398 664.144C219.188 664.354 219.07 664.639 219.07 664.936C219.07 665.233 219.188 665.518 219.398 665.728C219.608 665.938 219.893 666.056 220.19 666.056Z" fill="#333333"/>
<path opacity="0.22" d="M148.4 593.446L148.69 593.636C148.925 593.763 149.194 593.81 149.458 593.771C149.722 593.733 149.967 593.61 150.155 593.421C150.344 593.233 150.467 592.988 150.505 592.724C150.544 592.46 150.497 592.191 150.37 591.956L150.18 591.666C149.02 589.886 146.61 592.276 148.4 593.446Z" fill="#333333"/>
<path opacity="0.22" d="M642.91 415.566C643.177 415.54 643.425 415.416 643.606 415.217C643.786 415.018 643.886 414.759 643.886 414.491C643.886 414.222 643.786 413.964 643.606 413.765C643.425 413.566 643.177 413.442 642.91 413.416C642.643 413.442 642.395 413.566 642.214 413.765C642.034 413.964 641.934 414.222 641.934 414.491C641.934 414.759 642.034 415.018 642.214 415.217C642.395 415.416 642.643 415.54 642.91 415.566Z" fill="#333333"/>
<path opacity="0.22" d="M645.31 409.416C645.49 409.173 645.613 408.893 645.67 408.596C645.704 408.467 645.704 408.332 645.669 408.203C645.635 408.074 645.567 407.957 645.473 407.863C645.379 407.769 645.261 407.701 645.133 407.666C645.004 407.632 644.869 407.632 644.74 407.666C644.444 407.727 644.165 407.85 643.92 408.026C642.56 408.956 644.38 410.786 645.31 409.416Z" fill="#333333"/>
<path opacity="0.22" d="M552.69 438.516V438.766C552.609 439.125 552.667 439.501 552.852 439.818C553.038 440.136 553.338 440.371 553.69 440.476C553.928 440.571 554.192 440.571 554.43 440.476C554.785 440.375 555.088 440.141 555.274 439.822C555.46 439.504 555.516 439.125 555.43 438.766V438.516C555.344 438.236 555.171 437.99 554.935 437.816C554.699 437.641 554.413 437.547 554.12 437.547C553.827 437.547 553.541 437.641 553.305 437.816C553.069 437.99 552.896 438.236 552.81 438.516H552.69Z" fill="#333333"/>
<path d="M22 200.746C25.6 200.746 25.61 195.146 22 195.146C18.39 195.146 18.39 200.746 22 200.746Z" fill="#E3EFE9"/>
<path d="M3.48 165.996C8.12 165.996 8.12 158.786 3.48 158.786C-1.16 158.786 -1.16 165.996 3.48 165.996Z" fill="#E3EFE9"/>
<path d="M626.4 27.256C625.805 27.1352 625.191 27.1555 624.606 27.3153C624.02 27.4751 623.481 27.7699 623.03 28.176C622.513 28.6935 622.223 29.3948 622.223 30.126C622.223 30.8572 622.513 31.5586 623.03 32.076C623.482 32.4802 624.022 32.7736 624.607 32.9333C625.191 33.093 625.805 33.1145 626.4 32.996C627.161 32.996 627.891 32.6937 628.429 32.1554C628.968 31.6172 629.27 30.8872 629.27 30.126C629.27 29.3649 628.968 28.6349 628.429 28.0966C627.891 27.5584 627.161 27.256 626.4 27.256Z" fill="#E3EFE9"/>
<path d="M667.65 41.4859C671.28 41.4859 671.29 35.8359 667.65 35.8359C664.01 35.8359 664.01 41.4859 667.65 41.4859Z" fill="#E3EFE9"/>
<path d="M702.6 6.05595L703.6 5.85595C706.36 5.32595 706.36 0.855953 703.6 0.285953L702.6 0.0959527C702.14 -0.0203839 701.66 -0.0310795 701.196 0.0646687C700.731 0.160417 700.294 0.360122 699.918 0.648794C699.542 0.937467 699.236 1.30761 699.023 1.73144C698.811 2.15527 698.697 2.62178 698.69 3.09595C698.698 3.56948 698.814 4.03498 699.027 4.45783C699.24 4.88067 699.546 5.24998 699.922 5.53828C700.298 5.82657 700.734 6.02643 701.197 6.12298C701.661 6.21953 702.14 6.21029 702.6 6.09595V6.05595Z" fill="#E3EFE9"/>
<path d="M718.67 214.916C719.54 215.546 719.94 215.916 720.96 216.586C721.388 216.833 721.864 216.986 722.356 217.035C722.848 217.084 723.344 217.028 723.813 216.871C724.282 216.713 724.711 216.458 725.074 216.122C725.437 215.786 725.724 215.377 725.916 214.922C726.109 214.467 726.203 213.976 726.191 213.482C726.18 212.988 726.064 212.502 725.851 212.056C725.637 211.61 725.332 211.214 724.954 210.896C724.576 210.577 724.135 210.342 723.66 210.206L723 209.956C722.616 209.786 722.2 209.704 721.78 209.716C722.11 209.716 722.07 209.716 721.67 209.596L721.01 209.386C720.304 209.192 719.551 209.262 718.894 209.585C718.236 209.907 717.719 210.459 717.44 211.136C717.163 211.81 717.135 212.56 717.361 213.252C717.586 213.944 718.05 214.534 718.67 214.916Z" fill="#E3EFE9"/>
<path d="M692.36 612.716L691.71 612.486L693.27 614.056C693.108 613.41 692.74 612.835 692.223 612.417C691.705 611.998 691.065 611.759 690.4 611.736C689.656 611.78 688.958 612.106 688.447 612.648C687.936 613.189 687.651 613.906 687.651 614.651C687.651 615.396 687.936 616.113 688.447 616.654C688.958 617.196 689.656 617.522 690.4 617.566C691.064 617.539 691.702 617.299 692.219 616.881C692.736 616.464 693.105 615.89 693.27 615.246L691.71 616.806L692.36 616.576C692.784 616.461 693.158 616.209 693.424 615.861C693.691 615.512 693.836 615.085 693.836 614.646C693.836 614.207 693.691 613.78 693.424 613.431C693.158 613.082 692.784 612.831 692.36 612.716Z" fill="#E3EFE9"/>
<path d="M695.48 687.986C696.129 688.211 696.799 688.368 697.48 688.456C698.263 688.373 699.014 688.102 699.67 687.666C699.997 687.467 700.267 687.187 700.455 686.854C700.642 686.52 700.741 686.144 700.741 685.761C700.741 685.378 700.642 685.002 700.455 684.668C700.267 684.335 699.997 684.055 699.67 683.856C699.015 683.417 698.264 683.142 697.48 683.056C696.799 683.144 696.129 683.301 695.48 683.526C693.27 683.986 693.27 687.526 695.48 687.986Z" fill="#E3EFE9"/>
<path d="M732.34 667.056C732.8 667.136 733.27 667.226 733.74 667.296C734.495 667.358 735.251 667.19 735.91 666.816C737.74 666.006 737.74 662.816 735.91 661.976C735.249 661.609 734.494 661.446 733.74 661.506C733.27 661.566 732.8 661.656 732.34 661.736C729.7 662.216 729.7 666.586 732.34 667.056Z" fill="#E3EFE9"/>
<path d="M546.76 704.406C547.38 704.411 547.999 704.361 548.61 704.256C549.21 704.059 549.733 703.677 550.103 703.165C550.474 702.653 550.673 702.038 550.673 701.406C550.673 700.774 550.474 700.158 550.103 699.647C549.733 699.135 549.21 698.753 548.61 698.556C548 698.446 547.38 698.396 546.76 698.406C545.964 698.406 545.201 698.722 544.639 699.285C544.076 699.847 543.76 700.61 543.76 701.406C543.76 702.202 544.076 702.965 544.639 703.527C545.201 704.09 545.964 704.406 546.76 704.406Z" fill="#E3EFE9"/>
<path d="M569.57 732.636C570.275 733.274 571.079 733.794 571.95 734.176C572.211 734.244 572.486 734.242 572.747 734.171C573.007 734.101 573.245 733.963 573.436 733.772C573.627 733.581 573.765 733.343 573.835 733.083C573.906 732.822 573.908 732.547 573.84 732.286C573.464 731.414 572.947 730.61 572.31 729.906C570.7 727.986 567.65 731.026 569.57 732.636Z" fill="#E3EFE9"/>
<path d="M197.86 716.056L199.07 717.216C199.309 717.48 199.599 717.693 199.923 717.841C200.246 717.99 200.597 718.071 200.953 718.08C201.309 718.089 201.663 718.026 201.994 717.894C202.325 717.763 202.625 717.565 202.877 717.313C203.13 717.062 203.328 716.762 203.461 716.431C203.593 716.101 203.658 715.747 203.649 715.391C203.641 715.035 203.561 714.684 203.413 714.36C203.266 714.036 203.054 713.746 202.79 713.506L201.63 712.286C199.26 709.796 195.36 713.686 197.86 716.056Z" fill="#E3EFE9"/>
<path d="M131.34 755.296C132.397 755.847 133.482 756.344 134.59 756.786C135.263 756.972 135.981 756.905 136.608 756.597C137.234 756.29 137.726 755.762 137.99 755.116C138.26 754.474 138.289 753.757 138.072 753.096C137.855 752.434 137.407 751.873 136.81 751.516C136.01 751.016 135.17 750.606 134.33 750.186C133.665 749.926 132.929 749.911 132.255 750.145C131.58 750.378 131.011 750.845 130.649 751.461C130.288 752.076 130.158 752.801 130.283 753.504C130.407 754.207 130.779 754.842 131.33 755.296H131.34Z" fill="#E3EFE9"/>
<path d="M93.0801 665.056C95.7101 665.056 95.7201 660.966 93.0801 660.966C90.4401 660.966 90.4401 665.056 93.0801 665.056Z" fill="#E3EFE9"/>
<path d="M62.45 709.336L62.27 710.336C62.1195 710.96 62.2126 711.617 62.5304 712.175C62.8481 712.732 63.3666 713.148 63.98 713.336C64.4084 713.456 64.8616 713.456 65.29 713.336C65.902 713.145 66.419 712.73 66.7364 712.173C67.0538 711.616 67.148 710.96 67 710.336L66.82 709.336C66.44 707.166 62.82 707.166 62.45 709.336Z" fill="#E3EFE9"/>
<path d="M59.68 594.926C59.1 595.926 58.41 596.836 58.68 598.036C58.7574 598.322 58.9078 598.583 59.1164 598.793C59.325 599.004 59.5847 599.156 59.87 599.236C61.07 599.536 62 598.846 62.98 598.236C63.3064 598.049 63.5854 597.789 63.7954 597.477C64.0053 597.165 64.1405 596.809 64.1905 596.436C64.2406 596.063 64.2041 595.684 64.0838 595.327C63.9636 594.971 63.7629 594.647 63.4973 594.38C63.2317 594.114 62.9083 593.912 62.5522 593.791C62.196 593.67 61.8168 593.632 61.4438 593.681C61.0708 593.73 60.714 593.864 60.4012 594.073C60.0884 594.282 59.8279 594.56 59.64 594.886L59.68 594.926Z" fill="#E3EFE9"/>
<path d="M262.9 230.946C256.28 227.216 253.39 223.886 254.32 221.066C255.44 217.646 261 216.266 266.46 218.066C271.92 219.866 275.58 224.256 274.46 227.686L280.65 229.686C282.65 223.486 278.75 216.686 271.51 213.076L273.66 206.546L267.47 204.546L265.32 211.056C257.38 209.646 250.15 212.826 248.12 219.056C245.06 228.396 256.12 234.606 259.7 236.646C266.32 240.376 269.21 243.696 268.28 246.526C267.16 249.946 261.6 251.326 256.14 249.526C250.68 247.726 247.02 243.326 248.14 239.906L241.95 237.906C239.95 244.096 243.85 250.906 251.09 254.506L249 260.976L255.2 262.976L257.33 256.466C265.27 257.876 272.5 254.696 274.53 248.466C277.54 239.186 266.52 232.986 262.9 230.946Z" fill="white"/>
<path d="M362.37 353.956L360.96 441.366H380.13L378.7 368.936L362.37 353.956Z" fill="#494949"/>
<path d="M372.53 511.376L370.06 673.306L399.67 671.716L403.26 555.526L452.44 559.056L454.44 669.306L481.39 667.736C482.05 663.976 482.81 538.416 482.81 538.416L448.71 505.686L372.53 511.376Z" fill="#494949"/>
<path d="M466.78 431.486H482.85L499.93 616.716L364.79 618.656L360.14 427.916L466.78 431.486Z" fill="#627F60"/>
<path d="M386.33 269.166C386.33 269.166 340.45 318.516 316.07 408.996L330.32 446.836C330.32 446.836 355.9 375.686 370.06 360.466L376.91 411.876L405.85 397.666L401.09 349.776L386.33 269.166Z" fill="#494949"/>
<path d="M184.8 245.936C183.94 244.253 182.85 242.698 181.56 241.316C180.93 241.946 180.31 242.576 179.68 243.196C181.39 244.743 183.249 246.116 185.23 247.296C187.1 248.536 189.3 250.106 191.53 250.496C191.968 250.591 192.425 250.544 192.834 250.361C193.244 250.179 193.584 249.872 193.807 249.483C194.03 249.094 194.123 248.644 194.073 248.199C194.024 247.754 193.833 247.336 193.53 247.006C191.92 245.366 189.47 244.426 187.4 243.526C185.321 242.491 183.156 241.638 180.93 240.976C179.54 240.646 178.47 242.786 179.93 243.406C181.558 244.048 182.989 245.107 184.08 246.476C184.41 246.886 185 246.366 184.78 245.936H184.8Z" fill="#B77D51"/>
<path d="M190.51 320.646C191.24 323.406 191.56 326.236 192.34 328.976C193.02 331.376 193.56 334.056 195.28 335.926C196.71 337.466 198.9 336.136 199.08 334.346C199.33 331.926 198 329.346 197.14 327.096C196.14 324.576 194.78 322.256 193.77 319.746C192.98 317.746 189.94 318.486 190.51 320.646Z" fill="#B77D51"/>
<path d="M238 387.056C242.27 388.826 247.59 391.796 252.34 391.056C252.722 390.95 253.07 390.746 253.348 390.464C253.627 390.181 253.826 389.831 253.927 389.448C254.029 389.065 254.028 388.662 253.924 388.279C253.821 387.896 253.62 387.547 253.34 387.266C249.42 384.206 243.22 384.266 238.46 383.686C236.37 383.436 236.4 386.386 238 387.046V387.056Z" fill="#B77D51"/>
<path d="M248.36 347.506C247.36 350.076 246.27 352.636 245.36 355.246C244.52 357.576 243.21 360.096 243.36 362.606C243.45 363.956 245.36 365.136 246.36 363.846C247.98 361.846 248.36 359.296 249.07 356.846C249.86 354.016 250.51 351.156 251.2 348.296C251.28 347.929 251.216 347.545 251.021 347.223C250.827 346.902 250.516 346.667 250.154 346.567C249.792 346.467 249.405 346.51 249.073 346.686C248.741 346.863 248.49 347.16 248.37 347.516L248.36 347.506Z" fill="#B77D51"/>
<path d="M169.18 190.936C169.18 190.936 188.18 251.116 215.67 315.646C236.1 363.646 261.2 414.136 286.56 443.946L298.26 435.946C298.26 435.946 212.75 330.206 179.15 187.346L169.18 190.936Z" fill="#B77D51"/>
<path d="M219.29 312.366C219.29 312.366 254.14 281.756 261.29 226.296H269.82C269.82 226.296 260.73 284.406 226.87 322.206L219.29 312.366Z" fill="#B77D51"/>
<path d="M227.78 343.106L120.6 301.566L75.8701 251.216L69.1101 256.056L120.6 313.296L233.72 353.236L227.78 343.106Z" fill="#B77D51"/>
<path d="M26.5199 266.316C24.5699 280.986 27.7099 296.246 33.2299 309.986C41.6499 330.986 61.2299 346.706 83.2299 352.196C105.23 357.686 129.06 353.466 148.83 342.436C159.83 336.276 170.33 327.156 173.12 314.836C174.5 308.706 173.85 302.286 172.73 296.106C166.976 265.225 149.915 237.599 124.88 218.626C106.47 204.806 35.9999 195.326 26.5199 266.316Z" fill="#0F937A"/>
<path d="M163.43 217.846C181.8 219.016 201.08 212.346 212.89 198.236C225.15 183.596 228.04 163.526 230.46 144.596C231.69 134.946 232.86 124.776 229.16 115.786C226.96 110.416 223.16 105.856 219.04 101.786C187.68 70.5459 107.11 54.3259 93.9999 112.056C89.9099 130.056 93.8299 148.876 98.2399 166.826C100.38 175.566 102.74 184.476 107.83 191.886C119.28 208.486 144.07 216.616 163.43 217.846Z" fill="#0F937A"/>
<path d="M215.93 266.266C223.17 271.826 232.02 274.826 240.82 277.266C249.62 279.706 258.41 281.586 267.38 281.026C285.43 279.886 302.26 267.856 309.55 251.306C316.84 234.756 314.47 214.446 303.9 199.776C301.677 196.514 298.857 193.701 295.59 191.486C285.83 185.236 273.07 187.486 261.89 190.536C247.51 194.456 233.05 199.486 221.42 208.806C202.56 223.916 194.33 249.676 215.93 266.266Z" fill="#0F937A"/>
<path d="M259.551 232.252C252.229 228.645 248.937 225.252 249.763 222.169C250.764 218.434 256.645 216.628 262.604 218.225C268.564 219.822 272.754 224.326 271.753 228.061L278.513 229.873C280.325 223.11 275.7 216.014 267.731 212.611L269.642 205.477L262.883 203.666L260.971 210.8C252.368 209.761 244.815 213.595 243.003 220.358C240.27 230.559 252.455 236.561 256.458 238.533C263.78 242.14 267.071 245.533 266.245 248.616C265.244 252.351 259.364 254.157 253.404 252.56C247.444 250.963 243.255 246.459 244.256 242.724L237.496 240.912C235.684 247.675 240.308 254.771 248.278 258.174L246.376 265.273L253.138 267.085L255.038 259.985C263.64 261.024 271.194 257.19 273.006 250.427C275.739 240.226 263.556 234.225 259.551 232.252L259.551 232.252Z" fill="#045B4B"/>
<path d="M221.15 439.166L320.07 373.246L378.7 488.606L308.34 535.196L221.15 439.166Z" fill="#FF8074"/>
<path d="M221.15 439.166L251.69 418.816C251.69 418.816 296.34 503.056 360.14 500.896L308.34 535.196L221.15 439.166Z" fill="#EF6660"/>
<path d="M381.49 471.666C379.79 470.106 361.65 456.046 359.15 457.876C355.98 460.326 367.8 467.126 369.65 468.736C367.02 468.306 365.23 468.366 361.1 468.966C358.58 469.326 349.39 470.156 349.44 472.466C349.49 474.776 355.85 474.606 360.79 474.586C362.33 474.586 365.67 474.526 367.13 474.586C361.99 475.146 349.2 477.316 350.47 480.586C351.74 483.856 365.74 480.316 369.61 479.076C364.68 481.076 350.16 484.546 352.04 488.276C353.04 490.276 366.22 485.096 369.35 484.276C367.52 485.816 357.29 490.856 359.19 493.846C362.02 498.036 374.32 486.596 376.56 484.616C378.8 482.636 385.69 475.076 380.63 470.686" fill="#FFC1B5"/>
<path d="M392.66 467.606H376.91V487.756L396.8 487.206L392.66 467.606Z" fill="white"/>
<path d="M389.57 291.786L405.85 277.236L408.49 267.516H421.08L433.46 287.256V342.366L427.64 365.236L403.72 361.286L393.96 321.396L393.2 297.126L389.57 291.786Z" fill="#E6E6E6"/>
<path d="M425.45 260.586C425.45 260.586 485.33 278.436 513.71 346.916C542.09 415.396 495.7 488.056 393.2 489.856L391.76 466.056C391.76 466.056 520.43 452.056 488.39 368.446C481.56 350.596 465.97 328.446 433.46 319.756L425.45 260.586Z" fill="#494949"/>
<path d="M480.66 350.056C478.09 354.356 482.85 431.526 482.85 431.526H444.07L425.45 347.526L442.2 301.006L480.66 350.056Z" fill="#494949"/>
<path d="M395.29 265.386L410.76 390.186L380.13 319.056L391.08 309.026L375.63 286.596L395.29 265.386Z" fill="#333333"/>
<path d="M425.45 260.586L421.08 387.796L445.85 320.006L431.18 300.936L443.59 280.386L425.45 260.586Z" fill="#333333"/>
<path d="M410.76 282.776V390.186H421.08L414.58 282.776L413.46 280.646L410.76 282.776Z" fill="#333333"/>
<path d="M365.91 355.766C367.03 355.466 463.85 353.956 463.85 353.956L466.78 431.486L428.3 441.366L368.69 433.286L365.91 355.766Z" fill="#627F60"/>
<path d="M442.64 267.736C442.64 267.736 450.59 325.486 458.54 351.476C461.02 359.596 459.35 365.116 457.54 365.396C450.49 366.526 449.29 361.726 449.54 351.876C450.13 323.876 437.7 265.386 437.7 265.386L445.85 269.386" fill="#C9A587"/>
<path d="M379.05 266.596C379.05 266.596 376.3 324.826 370.71 351.426C368.96 359.736 371.12 365.076 372.9 365.206C380.03 365.696 380.79 360.816 379.7 351.016C376.62 323.216 383.76 263.816 383.76 263.816L376 268.516" fill="#C9A587"/>
<path d="M405.85 277.236L410.76 282.776H414.58L421.08 273.226L413.46 265.386L405.85 277.236Z" fill="#333333"/>
<path d="M425.45 260.586C425.45 260.586 427.82 290.116 424.33 292.526C420.84 294.936 411.44 268.626 411.44 268.626C411.44 268.626 403.37 293.066 399.62 293.876C395.87 294.686 395.29 262.986 395.29 262.986L425.45 260.586Z" fill="white"/>
<path d="M421.08 221.676C421.08 221.676 420.6 253.456 425.45 260.586C422.435 262.993 418.837 264.561 415.021 265.13C411.205 265.698 407.306 265.249 403.72 263.826L411.18 239.506L421.08 221.676Z" fill="#F9CBC2"/>
<path d="M408.94 100.926C408.94 100.926 439.35 101.326 436.1 170.016C436.1 170.016 435.69 198.326 419.71 202.536L424.76 176.056L417.34 146.896L399.62 117.776L408.94 100.926Z" fill="#1F1141"/>
<path d="M422.56 177.496C422.56 177.496 441.36 164.006 446.74 173.996C452.12 183.986 423.65 185.996 423.65 185.996L422.56 177.496Z" fill="#F9CBC2"/>
<path d="M322.53 213.106C322.53 213.106 316.07 157.676 325.19 126.206L372.53 109.126L407.31 120.626L425.45 151.626L421.1 165.306L422.49 187.906L414.12 231.786L365.29 241.266L330.29 223.476L322.53 213.106Z" fill="#F9CBC2"/>
<path d="M322.22 210.156C322.22 210.156 321.81 222.666 344.01 208.856C366.21 195.046 373.01 222.076 400.7 213.106C428.39 204.136 417.55 162.706 417.55 162.706H423C423 162.706 440.29 249.006 382.57 291.806C324.85 334.606 322.22 210.156 322.22 210.156Z" fill="#1F1141"/>
<path d="M378.24 178.056C378.711 178.854 378.846 179.807 378.616 180.705C378.385 181.603 377.808 182.373 377.01 182.846C375.34 183.846 374.01 182.846 373.06 181.236C372.816 180.856 372.651 180.43 372.574 179.985C372.497 179.54 372.511 179.084 372.613 178.644C372.716 178.204 372.905 177.789 373.171 177.423C373.437 177.058 373.773 176.749 374.16 176.516C375.84 175.476 377.24 176.426 378.24 178.056Z" fill="#333333"/>
<path d="M344.18 179.776C343.716 180.579 342.951 181.165 342.055 181.405C341.159 181.646 340.204 181.52 339.4 181.056C337.68 180.056 337.94 178.476 338.87 176.816C339.082 176.418 339.372 176.066 339.723 175.782C340.073 175.497 340.477 175.286 340.91 175.16C341.344 175.034 341.798 174.996 342.246 175.049C342.694 175.102 343.127 175.243 343.52 175.466C345.24 176.426 345.1 178.116 344.18 179.776Z" fill="#333333"/>
<path d="M393.85 195.996C393.35 197.996 389.57 198.826 385.4 197.796C381.23 196.766 378.26 194.296 378.76 192.286C379.26 190.276 384.92 189.916 389.09 190.946C393.26 191.976 394.34 193.976 393.85 195.996Z" fill="#E89F91"/>
<path d="M327.93 196.296C327.75 194.226 331.06 192.236 335.34 191.856C339.62 191.476 343.23 192.856 343.41 194.926C343.59 196.996 338.34 199.156 334.07 199.536C329.8 199.916 328.11 198.366 327.93 196.296Z" fill="#E89F91"/>
<path d="M377.35 164.316C379.403 165.299 381.538 166.103 383.73 166.716C385.83 167.306 388.21 168.496 390.15 166.966C390.706 166.597 391.104 166.033 391.265 165.385C391.426 164.737 391.339 164.052 391.02 163.466C390.02 161.226 387.34 161.166 385.21 160.716C382.987 160.232 380.724 159.951 378.45 159.876C376.14 159.806 375.28 163.306 377.35 164.316Z" fill="#1F1141"/>
<path d="M341.42 160.456C338.911 160.572 336.447 161.166 334.16 162.206C333.531 162.475 333.017 162.958 332.71 163.569C332.402 164.18 332.321 164.881 332.48 165.546C332.64 166.203 333.031 166.781 333.582 167.174C334.133 167.567 334.806 167.748 335.48 167.686C338.148 167.031 340.658 165.848 342.86 164.206C344.62 163.006 343.36 160.276 341.37 160.456H341.42Z" fill="#1F1141"/>
<path d="M360.14 175.056L358 203.346C358 203.346 355.31 209.486 351.05 208.396C346.79 207.306 354.37 182.276 360.14 175.056Z" fill="#F9CBC2"/>
<path d="M361.73 170.366C357.89 177.366 353.92 184.366 351.14 191.816C349.63 195.896 346.69 203.686 349.31 208.086C352.18 212.916 358.17 206.826 359.88 203.516C360.18 202.936 359.5 202.146 358.88 202.576C357.25 203.776 355.75 205.946 353.97 206.726C348.68 209.036 350.82 199.646 351.71 196.446C354.18 187.516 358.61 179.196 362.9 171.036C362.97 170.879 362.979 170.701 362.924 170.537C362.87 170.374 362.756 170.237 362.606 170.153C362.456 170.069 362.279 170.044 362.112 170.084C361.944 170.123 361.797 170.224 361.7 170.366H361.73Z" fill="#BC6C6C"/>
<path d="M355.15 216.506C355.832 217.28 356.694 217.874 357.661 218.235C358.627 218.596 359.668 218.713 360.69 218.576C362.37 218.416 364.69 217.666 365.22 215.896C365.243 215.817 365.244 215.733 365.224 215.653C365.203 215.574 365.162 215.501 365.104 215.442C365.045 215.384 364.972 215.343 364.893 215.322C364.813 215.302 364.729 215.303 364.65 215.326C363.22 215.866 362.19 216.876 360.58 217.056C358.863 217.202 357.149 216.738 355.74 215.746C355.26 215.426 354.82 216.116 355.15 216.506Z" fill="#8C4542"/>
<path d="M417.55 162.706C417.55 162.706 416.18 150.496 408.87 149.946C402.74 149.486 389.42 149.456 387.71 134.256C386 119.056 331.71 139.016 316.07 134.766C300.43 130.516 289.79 105.766 313.84 96.5959C337.89 87.4259 325.84 72.5359 357.84 76.6559C389.84 80.7759 382.41 98.8059 407.31 100.706C407.87 100.706 408.41 100.826 408.94 100.926C431.88 105.236 428.52 160.326 425.45 162.706C422.38 165.086 417.55 162.706 417.55 162.706Z" fill="#1F1141"/>
<path d="M454.55 360.376C454.941 360.345 455.306 360.167 455.572 359.879C455.837 359.591 455.985 359.213 455.985 358.821C455.985 358.429 455.837 358.051 455.572 357.763C455.306 357.475 454.941 357.297 454.55 357.266C454.159 357.297 453.794 357.475 453.528 357.763C453.262 358.051 453.115 358.429 453.115 358.821C453.115 359.213 453.262 359.591 453.528 359.879C453.794 360.167 454.159 360.345 454.55 360.376Z" fill="#494949"/>
<path d="M386.86 483.896C387.274 483.896 387.671 483.732 387.963 483.439C388.256 483.147 388.42 482.75 388.42 482.336C388.42 481.922 388.256 481.525 387.963 481.233C387.671 480.94 387.274 480.776 386.86 480.776C386.446 480.776 386.05 480.94 385.757 481.233C385.464 481.525 385.3 481.922 385.3 482.336C385.3 482.75 385.464 483.147 385.757 483.439C386.05 483.732 386.446 483.896 386.86 483.896Z" fill="#494949"/>
<path d="M373.39 358.856C373.368 358.941 373.341 359.024 373.31 359.106L374 358.206L373.89 358.276C373.559 358.468 373.301 358.764 373.156 359.118C373.01 359.472 372.985 359.864 373.085 360.233C373.185 360.602 373.403 360.929 373.707 361.161C374.01 361.394 374.382 361.52 374.765 361.52C375.147 361.52 375.519 361.394 375.823 361.161C376.127 360.929 376.345 360.602 376.445 360.233C376.544 359.864 376.52 359.472 376.374 359.118C376.229 358.764 375.971 358.468 375.64 358.276L375.53 358.206L376.22 359.106C376.189 359.024 376.162 358.941 376.14 358.856C376.049 358.563 375.866 358.306 375.619 358.124C375.371 357.942 375.072 357.844 374.765 357.844C374.458 357.844 374.159 357.942 373.911 358.124C373.664 358.306 373.481 358.563 373.39 358.856Z" fill="#494949"/>
<path d="M389.57 381.056L442.29 382.186V424.366H391.12L389.57 381.056Z" fill="#7D9B7B"/>
<path d="M90.7101 281.346L95.9301 253.666C94.2089 253.341 92.4617 253.174 90.7101 253.166C84.428 253.162 78.3244 255.255 73.3675 259.115C68.4106 262.974 64.8842 268.378 63.3478 274.469C61.8114 280.56 62.353 286.99 64.8866 292.739C67.4201 298.487 71.8006 303.225 77.3332 306.201C82.8658 309.177 89.2336 310.22 95.4265 309.166C101.619 308.111 107.283 305.018 111.518 300.379C115.754 295.739 118.319 289.818 118.806 283.555C119.294 277.292 117.676 271.045 114.21 265.806L90.7101 281.346Z" fill="#045B4B"/>
<path d="M120 257.056C117.92 253.913 115.23 251.219 112.09 249.133C108.95 247.048 105.424 245.614 101.72 244.916L96.5 272.586L120 257.056Z" fill="#045B4B"/>
<path d="M131.38 185.586L145.44 135.436L167.02 155.746L184.45 123.526L189.52 126.586L167.02 168.526L148.26 150.246L138.57 185.106L131.38 185.586Z" fill="#045B4B"/>
<path d="M176.31 124.686L192.58 135.436L194.78 110.906L176.31 124.686Z" fill="#045B4B"/>
<path d="M238 475.976C238.18 473.346 242.08 447.306 245.59 446.846C250.17 446.366 245.76 461.366 245.5 464.166C247.33 461.736 248.87 460.356 252.77 457.586C255.15 455.886 263.42 449.286 265.2 451.246C266.98 453.206 261.59 458.096 257.48 461.996C256.19 463.206 253.38 465.816 252.24 466.996C256.94 463.386 269.24 455.056 270.82 458.786C272.4 462.516 258 470.696 253.77 472.736C259.43 470.476 274.23 461.866 275.63 466.446C276.36 468.896 261.35 475.046 258.11 476.836C260.85 476.666 273.32 472.746 274.11 476.726C275.11 482.446 255.83 482.726 252.4 482.836C248.97 482.946 237.28 482.166 237.99 474.526" fill="#FFC1B5"/>
<path d="M370.55 215.886C370.62 217.116 370.38 218.886 371.19 219.886C371.254 219.948 371.331 219.996 371.416 220.024C371.501 220.052 371.591 220.061 371.679 220.05C371.768 220.038 371.853 220.006 371.927 219.957C372.002 219.908 372.064 219.843 372.11 219.766C372.63 218.576 371.92 216.896 371.67 215.686C371.634 215.553 371.55 215.437 371.435 215.361C371.32 215.284 371.181 215.252 371.044 215.271C370.908 215.289 370.782 215.356 370.691 215.46C370.6 215.564 370.55 215.698 370.55 215.836V215.886Z" fill="#3E2E6D"/>
<path d="M347 213.716C347.05 214.936 346.52 215.926 346.41 217.096C346.36 217.576 346.97 217.706 347.27 217.456C348.27 216.626 348.38 214.906 348.27 213.716C348.27 212.876 346.93 212.866 346.96 213.716H347Z" fill="#3E2E6D"/>
<path d="M339.46 218.256C339.629 218.912 339.629 219.6 339.46 220.256C339.261 220.763 339.1 221.285 338.98 221.816C338.984 221.908 339.011 221.997 339.059 222.075C339.107 222.154 339.175 222.219 339.255 222.264C339.335 222.309 339.425 222.333 339.517 222.333C339.609 222.333 339.699 222.31 339.78 222.266C341.12 221.466 341.06 219.266 340.66 217.986C340.618 217.832 340.516 217.701 340.377 217.623C340.238 217.544 340.074 217.524 339.92 217.566C339.766 217.608 339.635 217.71 339.557 217.849C339.478 217.988 339.458 218.152 339.5 218.306L339.46 218.256Z" fill="#3E2E6D"/>
<path d="M331.23 222.056C331.02 222.996 330.81 223.936 330.66 224.876C330.44 225.583 330.44 226.339 330.66 227.046C330.691 227.099 330.734 227.144 330.785 227.178C330.836 227.212 330.894 227.234 330.955 227.241C331.016 227.249 331.078 227.243 331.136 227.223C331.194 227.203 331.247 227.17 331.29 227.126C331.739 226.528 331.988 225.804 332 225.056C332.14 224.056 332.23 223.156 332.31 222.206C332.311 222.075 332.265 221.948 332.179 221.849C332.094 221.75 331.975 221.685 331.846 221.667C331.716 221.648 331.584 221.678 331.475 221.749C331.365 221.821 331.285 221.93 331.25 222.056H331.23Z" fill="#3E2E6D"/>
<path d="M339.46 229.136C339.615 229.908 339.615 230.704 339.46 231.476C339.23 232.075 339.095 232.706 339.06 233.346C339.061 233.419 339.081 233.491 339.118 233.555C339.155 233.618 339.208 233.671 339.272 233.707C339.335 233.743 339.408 233.762 339.481 233.762C339.554 233.762 339.626 233.743 339.69 233.706C341.18 232.856 341.01 230.216 340.69 228.806C340.52 228.026 339.36 228.366 339.5 229.136H339.46Z" fill="#3E2E6D"/>
<path d="M349.68 226.376C349.46 227.576 349.09 229.136 349.58 230.296C349.612 230.391 349.673 230.474 349.755 230.533C349.836 230.591 349.934 230.623 350.035 230.623C350.135 230.623 350.233 230.591 350.315 230.533C350.397 230.474 350.458 230.391 350.49 230.296C350.71 229.111 350.833 227.911 350.86 226.706C350.98 225.936 349.86 225.596 349.68 226.376Z" fill="#3E2E6D"/>
<path d="M335.68 244.606C335.83 245.556 335.98 246.516 336.16 247.466C336.31 248.216 336.31 248.996 337 249.466C337.101 249.522 337.22 249.536 337.332 249.506C337.444 249.476 337.54 249.405 337.6 249.306C338.06 248.646 337.71 247.856 337.54 247.126C337.32 246.186 337.07 245.256 336.83 244.326C336.62 243.576 335.56 243.906 335.68 244.646V244.606Z" fill="#3E2E6D"/>
<path d="M345.68 240.956C345.947 241.664 346.122 242.403 346.2 243.156C346.186 243.802 346.253 244.447 346.4 245.076C346.436 245.179 346.504 245.269 346.594 245.333C346.683 245.396 346.79 245.43 346.9 245.43C347.01 245.43 347.117 245.396 347.206 245.333C347.296 245.269 347.363 245.179 347.4 245.076C347.95 243.726 347.12 241.816 346.55 240.586C346.32 240.106 345.49 240.446 345.68 240.956Z" fill="#3E2E6D"/>
<path d="M338.33 261.546C338.551 262.224 338.728 262.915 338.86 263.616C338.871 264.256 339.029 264.886 339.32 265.456C339.355 265.514 339.404 265.562 339.462 265.595C339.521 265.629 339.587 265.646 339.655 265.646C339.723 265.646 339.789 265.629 339.848 265.595C339.906 265.562 339.955 265.514 339.99 265.456C340.57 264.326 339.81 262.356 339.45 261.236C339.22 260.536 338.1 260.836 338.33 261.546Z" fill="#3E2E6D"/>
<path d="M346 256.476C346.245 257.245 346.436 258.03 346.57 258.826C346.553 259.494 346.726 260.153 347.07 260.726C347.117 260.771 347.173 260.805 347.235 260.826C347.297 260.846 347.362 260.852 347.427 260.844C347.491 260.835 347.553 260.812 347.607 260.776C347.662 260.74 347.707 260.692 347.74 260.636C348.02 260.004 348.049 259.289 347.82 258.636C347.676 257.791 347.466 256.958 347.19 256.146C346.94 255.396 345.75 255.706 346 256.466V256.476Z" fill="#3E2E6D"/>
<path d="M358.24 235.736C358.119 236.661 358.15 237.6 358.33 238.516C358.355 238.607 358.409 238.688 358.484 238.745C358.559 238.802 358.65 238.833 358.745 238.833C358.839 238.833 358.931 238.802 359.006 238.745C359.081 238.688 359.135 238.607 359.16 238.516C359.342 237.6 359.369 236.661 359.24 235.736C359.24 235.603 359.187 235.476 359.093 235.382C359 235.289 358.872 235.236 358.74 235.236C358.607 235.236 358.48 235.289 358.386 235.382C358.293 235.476 358.24 235.603 358.24 235.736Z" fill="#3E2E6D"/>
<path d="M371.28 230.486C371.619 231.197 371.812 231.969 371.85 232.756C371.775 233.401 371.775 234.052 371.85 234.696C371.876 234.79 371.926 234.875 371.995 234.943C372.064 235.011 372.15 235.06 372.244 235.086C372.338 235.111 372.436 235.111 372.53 235.087C372.624 235.062 372.71 235.014 372.78 234.946C373.94 233.636 373.1 231.176 372.31 229.876C372.215 229.778 372.09 229.715 371.955 229.697C371.819 229.68 371.682 229.709 371.565 229.78C371.449 229.851 371.36 229.96 371.314 230.088C371.267 230.217 371.266 230.357 371.31 230.486H371.28Z" fill="#3E2E6D"/>
<path d="M356.71 251.466C356.71 252.536 356.33 254.876 357.27 255.636C357.317 255.682 357.374 255.717 357.436 255.738C357.498 255.759 357.564 255.766 357.629 255.758C357.694 255.751 357.757 255.729 357.812 255.693C357.868 255.658 357.915 255.611 357.95 255.556C358.196 255.026 358.236 254.423 358.06 253.866C357.949 253.07 357.879 252.269 357.85 251.466C357.85 251.315 357.79 251.17 357.683 251.063C357.576 250.956 357.431 250.896 357.28 250.896C357.129 250.896 356.984 250.956 356.877 251.063C356.77 251.17 356.71 251.315 356.71 251.466Z" fill="#3E2E6D"/>
<path d="M367.84 247.516C367.99 248.681 368.224 249.834 368.54 250.966C368.579 251.032 368.634 251.087 368.701 251.126C368.768 251.164 368.843 251.184 368.92 251.184C368.997 251.184 369.072 251.164 369.139 251.126C369.206 251.087 369.261 251.032 369.3 250.966C369.82 249.796 369.37 248.356 369 247.196C368.958 247.042 368.856 246.911 368.717 246.833C368.578 246.754 368.414 246.734 368.26 246.776C368.106 246.818 367.976 246.92 367.897 247.059C367.818 247.198 367.798 247.362 367.84 247.516Z" fill="#3E2E6D"/>
<path d="M342.21 275.516C342.504 276.129 342.729 276.773 342.88 277.436C342.934 278 343.083 278.551 343.32 279.066C343.364 279.138 343.425 279.198 343.499 279.24C343.572 279.282 343.656 279.304 343.74 279.304C343.825 279.304 343.908 279.282 343.981 279.24C344.055 279.198 344.117 279.138 344.16 279.066C344.72 277.786 343.92 276.016 343.36 274.846C342.99 274.066 341.84 274.746 342.21 275.516Z" fill="#3E2E6D"/>
<path d="M353.85 269.616C353.684 270.703 353.714 271.81 353.94 272.886C353.972 272.979 354.031 273.06 354.111 273.117C354.191 273.174 354.287 273.205 354.385 273.205C354.483 273.205 354.579 273.174 354.659 273.117C354.738 273.06 354.798 272.979 354.83 272.886C355.065 271.811 355.096 270.702 354.92 269.616C354.902 269.487 354.838 269.368 354.74 269.282C354.642 269.197 354.515 269.149 354.385 269.149C354.254 269.149 354.128 269.197 354.03 269.282C353.932 269.368 353.868 269.487 353.85 269.616Z" fill="#3E2E6D"/>
<path d="M349 279.686C349.12 280.437 349.18 281.196 349.18 281.956C349.12 282.53 349.185 283.11 349.37 283.656C349.414 283.726 349.475 283.784 349.548 283.824C349.621 283.864 349.702 283.885 349.785 283.885C349.868 283.885 349.95 283.864 350.022 283.824C350.095 283.784 350.156 283.726 350.2 283.656C350.85 282.536 350.33 280.596 350.07 279.396C349.91 278.696 348.9 279.006 349 279.686Z" fill="#3E2E6D"/>
<path d="M355 290.346C355.11 291.046 355.21 291.746 355.33 292.446C355.45 293.146 355.45 293.306 355.92 293.646C356.007 293.691 356.108 293.702 356.202 293.676C356.297 293.65 356.378 293.589 356.43 293.506C356.76 293.056 356.63 292.646 356.54 292.116L356.18 290.026C356.04 289.246 354.88 289.576 355 290.346Z" fill="#3E2E6D"/>
<path d="M362.54 264.056C362.54 264.906 362.16 266.426 362.95 266.976C362.994 267.006 363.047 267.021 363.1 267.021C363.153 267.021 363.206 267.006 363.25 266.976C364.04 266.416 363.67 264.916 363.66 264.056C363.66 263.907 363.601 263.765 363.496 263.66C363.391 263.555 363.249 263.496 363.1 263.496C362.952 263.496 362.809 263.555 362.704 263.66C362.599 263.765 362.54 263.907 362.54 264.056Z" fill="#3E2E6D"/>
<path d="M362 279.296C361.916 280.385 361.973 281.481 362.17 282.556C362.194 282.645 362.247 282.723 362.32 282.779C362.394 282.834 362.483 282.865 362.575 282.865C362.667 282.865 362.757 282.834 362.83 282.779C362.903 282.723 362.956 282.645 362.98 282.556C363.177 281.481 363.234 280.385 363.15 279.296C363.132 279.156 363.063 279.028 362.957 278.936C362.852 278.843 362.716 278.792 362.575 278.792C362.434 278.792 362.299 278.843 362.193 278.936C362.087 279.028 362.019 279.156 362 279.296Z" fill="#3E2E6D"/>
<path d="M370.49 288.736C370.411 289.886 370.554 291.04 370.91 292.136C370.962 292.219 371.036 292.285 371.125 292.327C371.213 292.369 371.312 292.384 371.408 292.372C371.505 292.359 371.597 292.319 371.671 292.256C371.746 292.193 371.801 292.109 371.83 292.016C372.008 290.926 371.97 289.812 371.72 288.736C371.65 287.956 370.44 287.936 370.49 288.736Z" fill="#3E2E6D"/>
<path d="M371.16 267.196C371.16 268.276 370.9 269.606 371.39 270.586C371.434 270.658 371.495 270.718 371.569 270.76C371.642 270.802 371.725 270.824 371.81 270.824C371.895 270.824 371.978 270.802 372.051 270.76C372.125 270.718 372.186 270.658 372.23 270.586C372.72 269.586 372.48 268.266 372.47 267.196C372.45 267.036 372.373 266.889 372.252 266.783C372.131 266.676 371.976 266.617 371.815 266.617C371.654 266.617 371.499 266.676 371.378 266.783C371.257 266.889 371.18 267.036 371.16 267.196Z" fill="#3E2E6D"/>
<path d="M382.31 276.336C382.51 277.01 382.631 277.704 382.67 278.406C382.614 278.979 382.693 279.558 382.9 280.096C382.955 280.189 383.033 280.267 383.127 280.32C383.22 280.374 383.327 280.403 383.435 280.403C383.543 280.403 383.649 280.374 383.743 280.32C383.837 280.267 383.915 280.189 383.97 280.096C384.64 278.986 383.97 277.096 383.51 276.006C383.21 275.286 382.08 275.536 382.31 276.336Z" fill="#3E2E6D"/>
<path d="M379.44 254.616C379.53 255.466 379.39 256.666 380.03 257.306C380.073 257.348 380.124 257.38 380.181 257.4C380.237 257.42 380.297 257.426 380.357 257.42C380.416 257.413 380.474 257.393 380.524 257.361C380.575 257.329 380.618 257.287 380.65 257.236C381.11 256.516 380.75 255.426 380.65 254.616C380.55 253.806 379.34 253.826 379.43 254.616H379.44Z" fill="#3E2E6D"/>
<path d="M392.87 263.566C392.971 264.275 392.92 264.998 392.72 265.686C392.54 266.266 392.11 266.826 392.18 267.436C392.183 267.502 392.2 267.566 392.23 267.625C392.261 267.684 392.304 267.735 392.357 267.775C392.409 267.815 392.47 267.843 392.534 267.857C392.599 267.871 392.666 267.871 392.73 267.856C394.25 267.506 394.44 264.786 394.3 263.566C394.19 262.676 392.76 262.666 392.87 263.566Z" fill="#3E2E6D"/>
<path d="M380.62 243.176C380.86 244.176 380.9 245.466 381.74 246.086C382.02 246.306 382.36 246.086 382.47 245.786C382.83 244.916 382.16 243.676 381.91 242.786C381.858 242.62 381.743 242.481 381.59 242.398C381.437 242.315 381.258 242.295 381.091 242.342C380.923 242.388 380.78 242.498 380.693 242.649C380.605 242.799 380.579 242.977 380.62 243.146V243.176Z" fill="#3E2E6D"/>
<path d="M388 243.716C388.05 244.846 388 246.306 388.7 247.236C388.96 247.576 389.47 247.336 389.59 246.996C389.94 245.996 389.37 244.566 389.07 243.576C389.029 243.455 388.948 243.353 388.84 243.285C388.732 243.218 388.604 243.19 388.477 243.206C388.351 243.223 388.235 243.283 388.147 243.376C388.06 243.469 388.008 243.589 388 243.716Z" fill="#3E2E6D"/>
<path d="M399.9 253.886C399.84 254.786 399.79 255.676 399.73 256.566C399.68 257.276 399.45 258.056 400.04 258.566C400.111 258.637 400.203 258.683 400.303 258.696C400.403 258.708 400.504 258.687 400.59 258.636C401.25 258.176 401.13 257.486 401.17 256.736C401.17 255.736 401.26 254.836 401.3 253.886C401.34 252.936 399.96 252.996 399.9 253.886Z" fill="#3E2E6D"/>
<path d="M390.06 229.206C389.946 230.057 389.991 230.921 390.19 231.756C390.221 231.865 390.287 231.96 390.377 232.028C390.467 232.096 390.577 232.133 390.69 232.133C390.803 232.133 390.913 232.096 391.003 232.028C391.093 231.96 391.159 231.865 391.19 231.756C391.384 230.92 391.428 230.057 391.32 229.206C391.32 229.039 391.253 228.879 391.135 228.761C391.017 228.642 390.857 228.576 390.69 228.576C390.523 228.576 390.363 228.642 390.244 228.761C390.126 228.879 390.06 229.039 390.06 229.206Z" fill="#3E2E6D"/>
<path d="M357.27 225.576C357.205 226.206 357.273 226.843 357.47 227.446C357.502 227.498 357.547 227.54 357.601 227.57C357.654 227.599 357.714 227.615 357.775 227.615C357.836 227.615 357.896 227.599 357.949 227.57C358.003 227.54 358.048 227.498 358.08 227.446C358.277 226.843 358.345 226.206 358.28 225.576C358.257 225.46 358.194 225.356 358.103 225.282C358.012 225.207 357.898 225.166 357.78 225.166C357.662 225.166 357.548 225.207 357.457 225.282C357.366 225.356 357.303 225.46 357.28 225.576H357.27Z" fill="#3E2E6D"/>
<path d="M358.42 210.566C358.42 211.356 358.11 212.396 358.71 213.026C358.783 213.099 358.882 213.139 358.985 213.139C359.088 213.139 359.187 213.099 359.26 213.026C359.86 212.396 359.59 211.366 359.55 210.566C359.532 210.429 359.464 210.303 359.36 210.212C359.256 210.121 359.123 210.071 358.985 210.071C358.847 210.071 358.713 210.121 358.609 210.212C358.506 210.303 358.438 210.429 358.42 210.566Z" fill="#3E2E6D"/>
<path d="M381.68 223.296C381.91 224.296 381.97 225.796 382.68 226.566C382.726 226.612 382.784 226.645 382.847 226.662C382.91 226.679 382.976 226.678 383.039 226.661C383.102 226.644 383.159 226.61 383.205 226.564C383.251 226.517 383.284 226.459 383.3 226.396C383.6 225.396 382.98 223.996 382.75 223.006C382.59 222.306 381.52 222.606 381.68 223.296Z" fill="#3E2E6D"/>
<path d="M397.76 219.056C397.815 219.635 397.815 220.217 397.76 220.796C397.68 221.31 397.68 221.832 397.76 222.346C397.787 222.442 397.842 222.528 397.918 222.593C397.993 222.658 398.087 222.7 398.186 222.713C398.285 222.726 398.385 222.709 398.475 222.665C398.565 222.621 398.639 222.552 398.69 222.466C399.35 221.586 399.18 220.086 399.06 219.056C398.97 218.236 397.68 218.216 397.76 219.056Z" fill="#3E2E6D"/>
<path d="M401.54 234.626C401.28 235.626 400.93 237.416 401.82 238.206C401.874 238.257 401.941 238.293 402.013 238.311C402.085 238.329 402.16 238.329 402.232 238.31C402.304 238.291 402.37 238.254 402.424 238.202C402.478 238.151 402.518 238.087 402.54 238.016C402.655 237.57 402.655 237.102 402.54 236.656C402.465 236.072 402.465 235.48 402.54 234.896C402.63 234.266 401.71 233.966 401.54 234.626Z" fill="#3E2E6D"/>
<path d="M412.1 232.946C412.364 233.502 412.556 234.091 412.67 234.696C412.696 235.262 412.773 235.824 412.9 236.376C413.05 236.776 413.71 236.986 413.9 236.506C414.49 235.196 413.9 233.506 413.28 232.246C412.89 231.426 411.68 232.136 412.07 232.946H412.1Z" fill="#3E2E6D"/>
<path d="M409.33 219.166C409.418 219.943 409.634 220.7 409.97 221.406C410.014 221.476 410.08 221.531 410.157 221.561C410.234 221.592 410.32 221.597 410.4 221.576C410.48 221.555 410.552 221.508 410.604 221.443C410.656 221.379 410.686 221.299 410.69 221.216C410.694 220.43 410.565 219.649 410.31 218.906C410.16 218.266 409.2 218.536 409.31 219.166H409.33Z" fill="#3E2E6D"/>
<path d="M417.69 210.246C417.84 211.366 417.78 212.996 418.42 213.936C418.467 214.011 418.534 214.071 418.614 214.108C418.694 214.146 418.783 214.16 418.87 214.148C418.958 214.136 419.04 214.1 419.107 214.043C419.175 213.986 419.224 213.91 419.25 213.826C419.39 213.244 419.39 212.638 419.25 212.056C419.14 211.336 419.04 210.626 418.94 209.916C418.84 209.206 417.6 209.456 417.71 210.246H417.69Z" fill="#3E2E6D"/>
<path d="M409.2 246.796C409.326 247.791 409.667 248.746 410.2 249.596C410.254 249.652 410.322 249.692 410.396 249.713C410.471 249.734 410.55 249.735 410.625 249.716C410.7 249.696 410.769 249.658 410.824 249.603C410.879 249.549 410.919 249.481 410.94 249.406C410.974 248.394 410.787 247.387 410.39 246.456C410.336 246.306 410.227 246.182 410.086 246.109C409.944 246.036 409.78 246.019 409.627 246.062C409.473 246.105 409.342 246.205 409.259 246.341C409.176 246.477 409.148 246.64 409.18 246.796H409.2Z" fill="#3E2E6D"/>
<path d="M419.63 197.496C419.611 198.264 419.678 199.032 419.83 199.786C419.859 199.865 419.911 199.933 419.98 199.981C420.049 200.029 420.131 200.055 420.215 200.055C420.299 200.055 420.381 200.029 420.45 199.981C420.519 199.933 420.571 199.865 420.6 199.786C420.746 199.032 420.814 198.264 420.8 197.496C420.781 197.354 420.712 197.224 420.604 197.129C420.497 197.035 420.358 196.983 420.215 196.983C420.072 196.983 419.933 197.035 419.826 197.129C419.718 197.224 419.649 197.354 419.63 197.496Z" fill="#3E2E6D"/>
<path d="M421.54 183.466C421.579 184.051 421.521 184.639 421.37 185.206C421.24 185.676 421.04 186.016 421.24 186.486C421.273 186.6 421.348 186.697 421.451 186.756C421.553 186.816 421.675 186.834 421.79 186.806C422.96 186.386 422.88 184.466 422.74 183.466C422.65 182.726 421.5 182.676 421.54 183.466Z" fill="#3E2E6D"/>
<path d="M420.52 169.856C420.68 170.856 420.67 172.246 421.25 173.086C421.311 173.171 421.393 173.237 421.489 173.278C421.584 173.319 421.689 173.333 421.792 173.318C421.895 173.304 421.993 173.262 422.073 173.196C422.154 173.13 422.215 173.044 422.25 172.946C422.54 171.946 422.03 170.536 421.84 169.486C421.68 168.596 420.35 168.976 420.5 169.856H420.52Z" fill="#3E2E6D"/>
<path d="M131.42 317.906C131.938 319.466 132.559 320.989 133.28 322.466C133.615 323.027 134.142 323.448 134.764 323.651C135.385 323.853 136.059 323.823 136.66 323.566C137.267 323.32 137.762 322.858 138.05 322.269C138.338 321.681 138.399 321.006 138.22 320.376C137.533 318.875 136.741 317.425 135.85 316.036C135.553 315.537 135.087 315.162 134.536 314.978C133.985 314.795 133.387 314.815 132.85 315.036C132.307 315.259 131.865 315.673 131.607 316.2C131.349 316.727 131.294 317.33 131.45 317.896L131.42 317.906Z" fill="#19AB90"/>
<path d="M145 287.386C146.416 288.636 147.946 289.751 149.57 290.716C150.035 290.983 150.581 291.073 151.107 290.968C151.633 290.864 152.104 290.573 152.432 290.148C152.76 289.724 152.923 289.195 152.891 288.66C152.86 288.125 152.636 287.619 152.26 287.236C151.157 285.969 149.938 284.807 148.62 283.766C148.13 283.305 147.483 283.048 146.81 283.048C146.137 283.048 145.49 283.305 145 283.766C144.525 284.249 144.259 284.899 144.259 285.576C144.259 286.253 144.525 286.903 145 287.386Z" fill="#19AB90"/>
<path d="M36.1799 276.626C36.0415 278.317 35.7435 279.991 35.2899 281.626C35.1007 282.301 35.1638 283.021 35.4675 283.652C35.7713 284.284 36.2947 284.783 36.9399 285.056C37.5739 285.329 38.2857 285.36 38.9413 285.145C39.5969 284.929 40.1512 284.482 40.4999 283.886C41.5158 281.389 41.6254 278.615 40.8099 276.046C40.6429 275.513 40.2927 275.056 39.8213 274.755C39.3499 274.455 38.7876 274.331 38.2337 274.405C37.6798 274.48 37.1699 274.747 36.7941 275.161C36.4183 275.574 36.2008 276.108 36.1799 276.666V276.626Z" fill="#19AB90"/>
<path d="M67.7101 244.056C68.8901 245.546 70.2901 247.426 72.3401 247.626C72.6314 247.623 72.9135 247.523 73.1417 247.342C73.3699 247.161 73.5312 246.909 73.6001 246.626C74.2101 244.626 72.7701 242.436 71.8701 240.806C71.6703 240.497 71.4084 240.233 71.101 240.031C70.7937 239.829 70.4476 239.693 70.0848 239.632C69.7221 239.571 69.3506 239.586 68.994 239.677C68.6374 239.767 68.3035 239.931 68.0137 240.157C67.7238 240.384 67.4842 240.668 67.3102 240.992C67.1363 241.316 67.0317 241.673 67.0031 242.04C66.9746 242.406 67.0227 242.775 67.1444 243.122C67.2661 243.469 67.4588 243.787 67.7101 244.056Z" fill="#19AB90"/>
<path d="M109.74 228.886C110.652 230.091 111.349 231.444 111.8 232.886C111.982 233.549 112.419 234.113 113.017 234.453C113.614 234.793 114.322 234.883 114.985 234.701C115.648 234.519 116.212 234.082 116.552 233.484C116.892 232.887 116.982 232.179 116.8 231.516C116.272 229.15 115.15 226.958 113.54 225.146C113.035 224.651 112.357 224.374 111.65 224.374C110.943 224.374 110.265 224.651 109.76 225.146C109.277 225.657 109.008 226.333 109.008 227.036C109.008 227.739 109.277 228.415 109.76 228.926L109.74 228.886Z" fill="#19AB90"/>
<path d="M54.41 319.886C54.8885 321.231 55.4946 322.527 56.22 323.756C56.5277 324.259 57.0048 324.637 57.5657 324.82C58.1265 325.003 58.7343 324.98 59.28 324.756C59.8259 324.527 60.2704 324.108 60.5314 323.577C60.7925 323.046 60.8523 322.438 60.7 321.866C60.1032 320.344 59.3596 318.884 58.48 317.506C58.1592 316.971 57.6417 316.582 57.0381 316.423C56.4345 316.264 55.7928 316.348 55.25 316.656C54.7221 316.984 54.3405 317.502 54.1841 318.103C54.0277 318.704 54.1086 319.343 54.41 319.886Z" fill="#19AB90"/>
<path d="M113.09 124.296C113.09 125.806 113.09 127.296 113.15 128.826C113.24 130.066 113.47 131.766 115.07 131.826C116.67 131.886 116.88 130.256 116.98 129.106C117.11 127.526 117.04 125.916 117.05 124.336C117.05 121.786 113.05 121.786 113.05 124.336L113.09 124.296Z" fill="#19AB90"/>
<path d="M132.13 97.406C132.181 99.5436 132.378 101.675 132.72 103.786C133.27 106.536 137.72 105.906 137.6 103.126C137.448 100.995 137.151 98.8766 136.71 96.786C136.27 94.196 131.97 94.786 132.13 97.406Z" fill="#19AB90"/>
<path d="M176.33 99.376C176.67 100.446 177 101.506 177.33 102.566C177.75 103.886 178.07 105.146 179.33 105.856C179.637 106.028 179.98 106.129 180.331 106.151C180.683 106.173 181.035 106.115 181.361 105.983C181.688 105.85 181.98 105.646 182.217 105.385C182.454 105.124 182.629 104.814 182.73 104.476C183.22 103.056 182.51 101.876 181.93 100.616C181.47 99.616 181.01 98.616 180.54 97.616C179.44 95.206 175.48 96.916 176.28 99.416L176.33 99.376Z" fill="#19AB90"/>
<path d="M112.43 152.406L112.82 154.406C112.919 154.745 113.125 155.042 113.407 155.254C113.689 155.466 114.032 155.58 114.385 155.58C114.738 155.58 115.081 155.466 115.363 155.254C115.645 155.042 115.851 154.745 115.95 154.406L116.34 152.406C116.403 152.114 116.4 151.812 116.331 151.522C116.262 151.231 116.129 150.96 115.941 150.728C115.754 150.496 115.517 150.308 115.247 150.18C114.978 150.051 114.683 149.984 114.385 149.984C114.087 149.984 113.792 150.051 113.523 150.18C113.253 150.308 113.016 150.496 112.829 150.728C112.641 150.96 112.508 151.231 112.439 151.522C112.37 151.812 112.367 152.114 112.43 152.406Z" fill="#19AB90"/>
<path d="M151.46 120.766C152.024 122.073 152.672 123.342 153.4 124.566C153.726 125.084 154.227 125.469 154.811 125.653C155.396 125.836 156.026 125.805 156.59 125.566C157.157 125.328 157.619 124.894 157.891 124.343C158.163 123.791 158.226 123.16 158.07 122.566C157.451 121.041 156.733 119.558 155.92 118.126C155.57 117.54 155.004 117.115 154.343 116.943C153.683 116.771 152.981 116.865 152.39 117.206C151.81 117.561 151.39 118.127 151.217 118.784C151.043 119.442 151.13 120.141 151.46 120.736V120.766Z" fill="#19AB90"/>
<path d="M150 193.286C149.337 196.169 149.69 199.193 151 201.846C152.67 205.106 157.58 202.226 155.91 198.976C155.049 197.432 154.624 195.683 154.68 193.916C154.8 191.266 150.55 190.636 150.01 193.286H150Z" fill="#19AB90"/>
<path d="M189.23 190.466C190.119 191.999 191.097 193.478 192.16 194.896C192.628 195.368 193.254 195.651 193.918 195.692C194.582 195.732 195.237 195.527 195.76 195.116C196.284 194.709 196.643 194.127 196.772 193.477C196.9 192.826 196.79 192.151 196.46 191.576C195.656 190.263 194.781 188.994 193.84 187.776C193.477 187.172 192.895 186.731 192.215 186.545C191.536 186.358 190.81 186.441 190.19 186.776C189.578 187.132 189.13 187.714 188.943 188.396C188.756 189.079 188.845 189.808 189.19 190.426L189.23 190.466Z" fill="#19AB90"/>
<path d="M205.33 164.626C206.942 165.93 208.734 166.994 210.65 167.786C211.187 167.929 211.755 167.894 212.27 167.684C212.784 167.475 213.216 167.103 213.5 166.626C213.753 166.147 213.852 165.601 213.782 165.064C213.712 164.527 213.477 164.024 213.11 163.626C211.62 162.187 209.937 160.962 208.11 159.986C207.802 159.782 207.455 159.643 207.091 159.578C206.727 159.513 206.353 159.522 205.993 159.606C205.633 159.69 205.294 159.847 204.996 160.066C204.698 160.286 204.449 160.564 204.262 160.883C204.075 161.203 203.956 161.557 203.911 161.924C203.866 162.291 203.896 162.663 204 163.018C204.103 163.373 204.278 163.703 204.514 163.988C204.75 164.273 205.041 164.507 205.37 164.676L205.33 164.626Z" fill="#19AB90"/>
<path d="M183.09 163.106C183.893 164.258 185.031 165.134 186.35 165.616C186.551 165.667 186.762 165.672 186.966 165.631C187.169 165.589 187.361 165.502 187.526 165.376C187.692 165.25 187.827 165.089 187.921 164.903C188.015 164.718 188.066 164.514 188.07 164.306C188.14 162.936 187.24 161.556 186.51 160.466C186.355 160.196 186.144 159.963 185.891 159.782C185.638 159.601 185.349 159.476 185.044 159.415C184.739 159.355 184.425 159.361 184.122 159.432C183.819 159.503 183.535 159.638 183.289 159.828C183.043 160.018 182.84 160.259 182.694 160.534C182.549 160.809 182.464 161.111 182.445 161.422C182.426 161.732 182.474 162.043 182.585 162.334C182.696 162.624 182.869 162.887 183.09 163.106Z" fill="#19AB90"/>
<path d="M208.88 129.596C210.057 131.544 211.863 133.033 214 133.816C214.643 134.002 215.332 133.945 215.935 133.656C216.539 133.368 217.016 132.867 217.275 132.25C217.534 131.633 217.557 130.943 217.341 130.31C217.124 129.676 216.683 129.145 216.1 128.816C215.63 128.586 215.15 128.426 214.67 128.236C214.99 128.366 214.13 127.956 214.04 127.896C213.488 127.591 212.994 127.192 212.58 126.716C210.76 124.816 207.37 127.316 208.88 129.576V129.596Z" fill="#19AB90"/>
<path d="M213.338 241.366L213.048 244.946C212.951 245.597 213.001 246.262 213.193 246.891C213.385 247.521 213.715 248.1 214.158 248.586C214.354 248.784 214.588 248.942 214.845 249.049C215.103 249.157 215.379 249.212 215.658 249.212C215.937 249.212 216.213 249.157 216.471 249.049C216.728 248.942 216.962 248.784 217.158 248.586C217.601 248.1 217.931 247.521 218.123 246.891C218.315 246.262 218.364 245.597 218.268 244.946L217.978 241.366C217.978 240.753 217.734 240.166 217.301 239.733C216.868 239.3 216.28 239.056 215.668 239.056C215.055 239.056 214.468 239.3 214.034 239.733C213.601 240.166 213.358 240.753 213.358 241.366H213.338Z" fill="#19AB90"/>
<path d="M283.741 202.397L285.911 204.247C286.713 205.079 287.705 205.704 288.801 206.067C290.361 206.367 292.381 204.997 291.681 203.197C290.981 201.397 288.921 200.047 287.351 198.777C286.864 198.314 286.218 198.056 285.546 198.056C284.875 198.056 284.228 198.314 283.741 198.777C283.266 199.26 283 199.91 283 200.587C283 201.264 283.266 201.914 283.741 202.397Z" fill="#19AB90"/>
<path d="M297.004 228.816C296.977 230.527 297.101 232.237 297.374 233.926C297.804 236.286 301.724 236.286 302.144 233.926C302.422 232.237 302.556 230.528 302.544 228.816C302.544 228.084 302.253 227.382 301.735 226.865C301.218 226.347 300.516 226.056 299.784 226.056C299.052 226.056 298.35 226.347 297.832 226.865C297.314 227.382 297.024 228.084 297.024 228.816H297.004Z" fill="#19AB90"/>
<path d="M227.125 225.157L230.415 221.557C231.475 220.397 232.815 219.287 232.895 217.637C232.892 217.394 232.834 217.156 232.725 216.939C232.617 216.722 232.46 216.533 232.267 216.385C232.075 216.238 231.851 216.136 231.613 216.088C231.376 216.04 231.13 216.046 230.895 216.107C229.415 216.367 228.445 217.937 227.525 219.007L224.485 222.477C222.925 224.277 225.485 226.907 227.125 225.117V225.157Z" fill="#19AB90"/>
<path d="M281.11 258.534C281.5 260.024 281.79 261.594 282.32 263.034C282.541 263.773 283.039 264.398 283.709 264.78C284.38 265.162 285.171 265.271 285.92 265.084C286.65 264.852 287.263 264.35 287.635 263.681C288.007 263.012 288.109 262.226 287.92 261.484C287.6 259.974 287.02 258.484 286.56 257.024C286.333 256.327 285.846 255.744 285.201 255.397C284.555 255.049 283.801 254.964 283.094 255.158C282.387 255.353 281.783 255.812 281.406 256.44C281.029 257.069 280.909 257.819 281.07 258.534H281.11Z" fill="#19AB90"/>
</svg>
