<svg width="40" height="41" viewBox="0 0 40 41" fill="none" xmlns="http://www.w3.org/2000/svg">
<rect y="0.00390625" width="40" height="40" rx="20" fill="#4E555C"/>
<path d="M17.1297 20.862H20.3046C19.7473 22.4389 18.238 23.5696 16.4709 23.5565C14.3269 23.5407 12.554 21.824 12.4708 19.6796C12.3816 17.381 14.2241 15.4825 16.5012 15.4825C17.5424 15.4825 18.4925 15.8796 19.2089 16.5302C19.3785 16.6844 19.6368 16.6853 19.8037 16.5281L20.9698 15.4297C21.1521 15.2579 21.1528 14.9677 20.971 14.7953C19.835 13.7182 18.3111 13.0468 16.6306 13.0139C13.0463 12.9439 10.0251 15.8852 10.0002 19.4732C9.97497 23.0882 12.8953 26.0265 16.5012 26.0265C19.969 26.0265 22.8019 23.3089 22.9916 19.8856C22.9967 19.8427 23 18.3921 23 18.3921H17.1297C16.8891 18.3921 16.6941 18.5873 16.6941 18.8282V20.4259C16.6941 20.6668 16.8891 20.862 17.1297 20.862Z" fill="white"/>
<path d="M29.0452 18.9739V17.4019C29.0452 17.1893 28.8732 17.0171 28.6609 17.0171H27.3391C27.1268 17.0171 26.9548 17.1893 26.9548 17.4019V18.9739H25.3844C25.1721 18.9739 25 19.1462 25 19.3587V20.6818C25 20.8944 25.1721 21.0666 25.3844 21.0666H26.9548V22.6387C26.9548 22.8512 27.1268 23.0235 27.3391 23.0235H28.6609C28.8732 23.0235 29.0452 22.8512 29.0452 22.6387V21.0666H30.6156C30.8279 21.0666 31 20.8944 31 20.6818V19.3587C31 19.1462 30.8279 18.9739 30.6156 18.9739H29.0452Z" fill="white"/>
</svg>
