<svg width="66" height="66" viewBox="0 0 66 66" fill="none" xmlns="http://www.w3.org/2000/svg">
<path d="M60.6698 44.2807C59.9365 47.5082 57.8394 50.2129 54.3785 52.3948C50.9177 54.5768 46.0593 56.5054 39.8035 58.1805C33.5439 59.8578 28.3696 60.6174 24.2807 60.4595C20.1918 60.3016 17.0081 58.9594 14.7297 56.4328C12.4561 53.9082 10.8697 51.5642 9.97018 49.401C9.0707 47.2378 8.02055 43.9134 6.81974 39.4278C5.61844 34.9445 4.86582 31.5409 4.56188 29.217C4.25795 26.8931 4.43638 24.1797 5.09717 21.0766C6.46659 15.0655 13.5103 10.3561 26.2281 6.94839C38.7485 3.59358 47.0051 4.2033 50.9979 8.77755C53.3695 11.2813 55.0061 13.6124 55.9075 15.7707C56.809 17.9291 57.8592 21.2535 59.058 25.744C60.2606 30.2323 61.0133 33.6359 61.3158 35.9548C61.6184 38.2736 61.4031 41.0489 60.6698 44.2807Z" fill="#FFDEC4"/>
<path d="M26.5137 39.3124C30.0586 39.3124 32.207 36.4706 32.207 31.9198C32.207 27.369 30.0391 24.5858 26.5137 24.5858C22.9883 24.5858 20.8105 27.3788 20.8105 31.9296C20.8105 36.4901 22.9688 39.3124 26.5137 39.3124ZM26.5137 36.9491C24.834 36.9491 23.8086 35.1327 23.8086 31.9296C23.8086 28.7557 24.8535 26.9491 26.5137 26.9491C28.1836 26.9491 29.209 28.746 29.209 31.9296C29.209 35.1425 28.1934 36.9491 26.5137 36.9491ZM33.7598 29.1464V29.1952H36.4941V29.1464C36.4941 27.8475 37.5 26.8905 38.8672 26.8905C40.1758 26.8905 41.1035 27.7303 41.1035 28.785C41.1035 29.7616 40.6641 30.4745 39.2383 31.9003L33.9258 37.0175V38.9999H44.1699V36.6561H37.8125V36.5975L41.25 33.287C42.8027 31.744 43.9746 30.4257 43.9746 28.6678C43.9746 26.3143 41.9336 24.5956 38.9648 24.5956C35.8887 24.5956 33.7598 26.4803 33.7598 29.1464Z" fill="#DF8A44"/>
</svg>
