<svg width="66" height="66" viewBox="0 0 66 66" fill="none" xmlns="http://www.w3.org/2000/svg">
<path d="M60.6698 44.2807C59.9365 47.5082 57.8394 50.2129 54.3785 52.3948C50.9177 54.5768 46.0593 56.5054 39.8035 58.1805C33.5439 59.8578 28.3696 60.6174 24.2807 60.4595C20.1918 60.3016 17.0081 58.9594 14.7297 56.4328C12.4561 53.9082 10.8697 51.5642 9.97018 49.401C9.0707 47.2378 8.02055 43.9134 6.81974 39.4278C5.61844 34.9445 4.86582 31.5409 4.56188 29.217C4.25795 26.8931 4.43638 24.1797 5.09717 21.0766C6.46659 15.0655 13.5103 10.3561 26.2281 6.94839C38.7485 3.59358 47.0051 4.2033 50.9979 8.77755C53.3695 11.2813 55.0061 13.6124 55.9075 15.7707C56.809 17.9291 57.8592 21.2535 59.058 25.744C60.2606 30.2323 61.0133 33.6359 61.3158 35.9548C61.6184 38.2736 61.4031 41.0489 60.6698 44.2807Z" fill="#CEE2E9"/>
<path d="M27.7441 39.3125C31.2891 39.3125 33.4375 36.4707 33.4375 31.9199C33.4375 27.3691 31.2695 24.5859 27.7441 24.5859C24.2188 24.5859 22.041 27.3789 22.041 31.9297C22.041 36.4902 24.1992 39.3125 27.7441 39.3125ZM27.7441 36.9492C26.0645 36.9492 25.0391 35.1328 25.0391 31.9297C25.0391 28.7559 26.084 26.9492 27.7441 26.9492C29.4141 26.9492 30.4395 28.7461 30.4395 31.9297C30.4395 35.1426 29.4238 36.9492 27.7441 36.9492ZM38.6816 39H41.6016V24.9082H38.6719L35.0293 27.4375V30.0938L38.623 27.6133H38.6816V39Z" fill="#278DCC"/>
</svg>
