<svg width="66" height="66" viewBox="0 0 66 66" fill="none" xmlns="http://www.w3.org/2000/svg">
<path d="M60.6698 44.2807C59.9365 47.5082 57.8394 50.2129 54.3785 52.3948C50.9177 54.5768 46.0593 56.5054 39.8035 58.1805C33.5439 59.8578 28.3696 60.6174 24.2807 60.4595C20.1918 60.3016 17.0081 58.9594 14.7297 56.4328C12.4561 53.9082 10.8697 51.5642 9.97018 49.401C9.0707 47.2378 8.02055 43.9134 6.81974 39.4278C5.61844 34.9445 4.86582 31.5409 4.56188 29.217C4.25795 26.8931 4.43638 24.1797 5.09717 21.0766C6.46659 15.0655 13.5103 10.3561 26.2281 6.94839C38.7485 3.59358 47.0051 4.2033 50.9979 8.77755C53.3695 11.2813 55.0061 13.6124 55.9075 15.7707C56.809 17.9291 57.8592 21.2535 59.058 25.744C60.2606 30.2323 61.0133 33.6359 61.3158 35.9548C61.6184 38.2736 61.4031 41.0489 60.6698 44.2807Z" fill="#FACAC4"/>
<path d="M25.7012 39.3124C29.2461 39.3124 31.3945 36.4706 31.3945 31.9198C31.3945 27.369 29.2266 24.5858 25.7012 24.5858C22.1758 24.5858 19.998 27.3788 19.998 31.9296C19.998 36.4901 22.1562 39.3124 25.7012 39.3124ZM25.7012 36.9491C24.0215 36.9491 22.9961 35.1327 22.9961 31.9296C22.9961 28.7557 24.041 26.9491 25.7012 26.9491C27.3711 26.9491 28.3965 28.746 28.3965 31.9296C28.3965 35.1425 27.3809 36.9491 25.7012 36.9491ZM36.6387 32.8475H38.377C39.9688 32.8475 40.9355 33.6288 40.9355 34.9178C40.9355 36.1093 39.9004 36.9393 38.4258 36.9393C36.873 36.9393 35.8965 36.1581 35.8086 34.9667H32.9863C33.123 37.5643 35.2031 39.3124 38.3867 39.3124C41.6387 39.3124 43.9336 37.6327 43.9336 35.1034C43.9336 33.1503 42.5762 31.8807 40.4766 31.705V31.6464C42.2051 31.3339 43.3867 30.0839 43.3867 28.3553C43.3867 26.0995 41.3848 24.5956 38.4551 24.5956C35.3984 24.5956 33.3672 26.2948 33.2598 28.9022H35.9746C36.0527 27.6718 36.9609 26.8612 38.3281 26.8612C39.793 26.8612 40.6035 27.6132 40.6035 28.7557C40.6035 29.9178 39.6953 30.7186 38.3477 30.7186H36.6387V32.8475Z" fill="#FF4F45"/>
</svg>
