<svg width="442" height="432" viewBox="0 0 442 432" fill="none" xmlns="http://www.w3.org/2000/svg">
<path d="M287.903 385.152L289.057 368.878L299.221 368.934L298.475 382.322L292.788 387.644L287.903 385.152Z" fill="#FFC1B5"/>
<path d="M302.671 388.869C302.671 388.869 271.193 404.101 259.578 404.101C259.578 404.101 256.678 394.599 268.194 392.036C275.368 390.364 282.17 387.376 288.255 383.224C288.255 383.224 292.802 388.517 298.827 380.507C300.404 383.149 301.692 385.952 302.671 388.869Z" fill="#1F1141"/>
<path d="M259.353 404.101C259.353 404.101 255.735 395.725 265.519 392.768C265.519 392.768 269.011 398.554 270.348 400.666C270.348 400.666 299.686 390.994 302.46 388.108L303.163 390.389C303.163 390.389 271.15 405.931 259.353 404.101Z" fill="white"/>
<path d="M426.598 359.587L412.788 350.915L417.602 341.961L429.076 348.916L431.103 356.433L426.598 359.587Z" fill="#FFC1B5"/>
<path d="M436.804 348.31C436.804 348.31 435.467 383.252 430.019 393.514C430.019 393.514 420.263 391.6 423.402 380.239C425.299 373.116 425.862 365.704 425.063 358.376C425.063 358.376 431.863 356.856 427.626 347.775C430.696 347.623 433.773 347.802 436.804 348.31Z" fill="#1F1141"/>
<path d="M429.92 393.683C429.92 393.683 420.826 392.937 422.811 382.914C422.811 382.914 429.568 382.548 432.046 382.365C432.046 382.365 437.297 351.928 436.058 348.127L438.395 348.564C438.395 348.564 437.072 384.139 429.92 393.683Z" fill="white"/>
<path d="M422.206 98.0627L417.25 102.877L422.206 107.706L427.091 101.512L422.206 98.0627Z" fill="#FFC1B5"/>
<path d="M421.741 100.737C421.459 99.3294 419.84 84.9278 421.642 84.1817C424.007 83.2807 423.796 91.8823 424.05 93.4027C424.755 91.7331 425.746 90.1992 426.978 88.8696C428.006 87.6308 431.469 82.9569 432.693 83.7453C433.918 84.5336 431.75 87.8982 430.117 90.5449C429.596 91.3755 428.47 93.1633 428.034 93.9799C430.033 91.3895 435.396 85.2094 436.762 86.9409C438.128 88.6725 431.595 95.0779 429.653 96.7954C432.342 94.7964 438.986 88.1235 440.38 90.3619C441.126 91.5585 434.017 96.9503 432.539 98.3581C433.946 97.8935 440.056 94.0362 440.985 96.0352C442.309 98.9353 432.102 101.807 430.3 102.356C428.498 102.905 422.22 104.172 421.516 99.9489" fill="#FFC1B5"/>
<path d="M238.855 125.697C238.855 125.697 298.757 146.265 345.073 175.73L338.836 185.134L260.507 153.783C262.168 154.472 280.512 209.038 281.525 218.541C282.539 228.043 267.18 232.506 244.923 221.539L239.714 150.854L238.855 125.697Z" fill="#1F1141"/>
<path d="M333.867 133.736C333.867 133.736 373.158 146.49 417.757 99.8223L424.584 107.143C424.584 107.143 408.536 140.381 348.747 153.797L355.617 239.939C355.617 239.939 346.34 252.285 299.306 236.645C299.306 236.645 303.529 151.164 323.731 133.877C323.731 133.877 322.253 138.1 328.25 137.832C335.19 137.509 333.867 133.736 333.867 133.736Z" fill="#EFEFE8"/>
<path d="M324.336 181.798V238.574H322.253L322.351 182.811L324.336 181.798Z" fill="#E6E6E6"/>
<path d="M357.574 80.4373C352.323 74.6794 345.284 70.9206 339.146 66.1201C333.008 61.3195 327.419 54.6889 327.18 46.9038C327.044 45.6434 327.206 44.3687 327.654 43.1826C328.101 41.9965 328.821 40.9323 329.756 40.0761C331.953 38.4008 335.092 38.7387 337.668 39.696C340.244 40.6533 342.652 42.1877 345.355 42.7368C346.62 43.0414 347.946 42.968 349.17 42.5256C350.177 42.0279 351.122 41.4137 351.985 40.6955C353.525 39.5909 355.291 38.8409 357.155 38.4995C359.02 38.1582 360.937 38.2338 362.768 38.7209C364.6 39.2081 366.301 40.0948 367.749 41.3173C369.198 42.5398 370.357 44.0678 371.145 45.7917C372.243 48.606 372.815 51.5977 372.835 54.6185C373.172 60.2496 373.609 66.3735 377.354 70.6109C379.395 72.9197 382.436 74.2993 385.012 76.7629C386.385 78.1353 387.455 79.7802 388.153 81.5915C388.852 83.4027 389.163 85.3402 389.066 87.2791C389.075 88.2898 388.759 89.2765 388.165 90.0947C387.45 90.7813 386.566 91.2669 385.603 91.5024C382.999 92.3893 380.197 93.5015 378.818 95.8947C376.368 100.118 379.69 105.749 377.79 110.268C377.076 111.678 376.002 112.874 374.677 113.734C373.352 114.595 371.822 115.089 370.244 115.167C367.095 115.301 363.949 114.823 360.981 113.76C357.254 112.853 353.723 111.274 350.563 109.1C352.112 110.296 356.687 104.792 357.279 103.764C358.686 101.301 359.841 98.654 361.234 96.1622C364.233 90.7282 361.432 84.6606 357.574 80.4373Z" fill="#1F1141"/>
<path d="M324.196 135.496C322.829 129.376 320.979 123.374 318.663 117.547C315.411 110.015 313.651 98.1332 317.185 83.2529C317.185 83.2529 310.864 84.7451 310.526 83.3937C309.808 80.5781 324.97 62.1361 342.483 56.6458L351.943 62.5866L363.205 84.9985L363.29 96.4579L362.304 98.288L355.477 106.735L346.509 116.026C346.509 116.026 340.357 121.446 338.653 123.558C336.546 126.454 334.774 129.58 333.374 132.877L332.586 135.693L324.196 135.496Z" fill="#FFC1B5"/>
<path d="M361.234 97.725C361.234 97.725 373.299 97.4434 372.004 101.737C370.709 106.031 356.927 99.9493 356.927 99.9493L361.234 97.725Z" fill="#FFC1B5"/>
<path d="M329.418 88.7995C328.94 89.7145 330.066 91.249 331.952 92.2345C333.839 93.2199 335.725 93.2903 336.176 92.3753C336.626 91.4602 334.684 89.4893 332.797 88.4898C330.911 87.4902 329.841 87.8985 329.418 88.7995Z" fill="#E89F91"/>
<path d="M328.137 80.4656C328.094 80.9223 328.232 81.3777 328.522 81.7334C328.812 82.0891 329.23 82.3163 329.686 82.3661C330.657 82.4787 331.023 81.7467 331.094 80.8175C331.125 80.5959 331.112 80.3702 331.054 80.154C330.996 79.9378 330.895 79.7355 330.757 79.5593C330.619 79.3831 330.446 79.2367 330.25 79.1287C330.054 79.0207 329.838 78.9535 329.616 78.9311C328.687 78.8325 328.25 79.5364 328.137 80.4656Z" fill="#333333"/>
<path d="M337.063 76.5375C336.227 76.2617 335.476 75.7771 334.881 75.1297C334.162 74.5639 333.632 73.7932 333.36 72.9195C333.327 72.6665 333.36 72.4091 333.455 72.1724C333.551 71.9358 333.707 71.728 333.906 71.5693C334.106 71.4105 334.344 71.3062 334.596 71.2665C334.848 71.2268 335.106 71.2531 335.345 71.3428C336.218 71.6103 336.753 72.5113 337.33 73.2011C337.847 73.8682 338.195 74.6507 338.344 75.4817C338.368 75.6455 338.348 75.8127 338.287 75.9666C338.226 76.1205 338.126 76.2555 337.996 76.3583C337.866 76.461 337.711 76.5277 337.548 76.5518C337.384 76.5758 337.217 76.5563 337.063 76.4953V76.5375Z" fill="#1F1141"/>
<path d="M317.128 83.2668C317.128 83.2668 327.687 87.9829 328.588 96.8238C329.996 110.099 352.112 109.761 363.107 88.9121L364.205 96.0355C364.205 96.0355 341.905 134.792 307.893 123.459C273.881 112.126 313.454 91.7136 317.128 83.2668Z" fill="#1F1141"/>
<path d="M320.746 91.6995C321.137 91.7195 321.515 91.8408 321.845 92.0514C322.534 92.5864 322.408 93.6704 322.084 94.4869C321.329 96.3396 319.969 97.8826 318.227 98.8651C317.724 99.1701 317.163 99.3667 316.579 99.4423C316.085 99.4595 315.593 99.3631 315.141 99.1606C314.69 98.958 314.291 98.6547 313.975 98.2738C313.337 97.5102 312.94 96.5744 312.835 95.585C312.673 94.6834 312.756 93.755 313.074 92.8961C314.186 90.0946 318.438 91.4038 320.746 91.6995Z" fill="#8C4542"/>
<path d="M357.574 80.4373C352.647 74.3979 345.284 70.9206 339.146 66.1201C336.004 63.7345 333.242 60.8866 330.953 57.6734C328.699 54.5301 327.39 50.8082 327.18 46.9461C327.044 45.6857 327.206 44.4109 327.654 43.2248C328.101 42.0387 328.821 40.9745 329.756 40.1183C331.953 38.443 335.092 38.7809 337.668 39.7382C340.244 40.6955 342.652 42.23 345.355 42.779C346.62 43.0837 347.946 43.0102 349.17 42.5678C350.177 42.0701 351.122 41.4559 351.985 40.7377C353.525 39.6331 355.291 38.8832 357.155 38.5418C359.02 38.2004 360.937 38.276 362.768 38.7632C364.6 39.2504 366.301 40.137 367.749 41.3595C369.198 42.5821 370.357 44.1101 371.145 45.8339C372.243 48.6482 372.815 51.6399 372.835 54.6607C373.172 60.2919 373.609 66.4157 377.354 70.6531C379.395 72.9619 360.882 98.7103 360.84 96.9646C360.657 93.1073 361.995 85.8713 357.574 80.4373Z" fill="#1F1141"/>
<path d="M228.748 124.43C228.748 124.43 160.682 152.29 137.777 172.168L145.759 185.852C145.759 185.852 187.993 161.919 205.322 153.67C205.322 153.67 185.318 214.528 186.191 229.451C187.063 244.373 215.388 226.649 215.388 226.649L225.735 146.406L228.748 124.43Z" fill="#1F1141"/>
<path d="M226.903 126.612C226.903 126.612 199.325 175.885 201.422 257.241C201.422 257.241 236.012 254.284 266.181 257.79C266.181 257.79 264.773 174.027 238.884 125.697C238.855 125.697 231.465 129.724 226.903 126.612Z" fill="white"/>
<path d="M230.972 257.241C230.972 257.241 228.396 154.628 232.253 134.764C232.253 134.764 230.508 233.815 233.844 257.241H230.972Z" fill="#E6E6E6"/>
<path d="M220.287 141.211C220.287 141.211 227.903 136.115 230.282 132.075L235.097 132.328C235.097 132.328 240.038 141.873 246.486 142.704L245.501 139.649L235.646 126.641H230.451L221.174 138.114L220.287 141.211Z" fill="#E6E6E6"/>
<path d="M22.2678 102.019L28.096 107.678L22.2678 113.351L16.5381 106.073L22.2678 102.019Z" fill="#FFC1B5"/>
<path d="M95.0366 80.0571C95.0366 80.0571 91.8691 93.3466 80.9588 94.2335C70.0485 95.1204 51.3953 103.257 52.5497 126.613L99.0066 153.163C99.0066 153.163 114.225 156.134 126.304 149.039L106.412 128.358L110.213 104.172L100.724 86.2936L95.0366 80.0571Z" fill="#582C46"/>
<path d="M155.459 98.2175C156.12 98.2175 160.555 105.256 173.183 104.187C185.811 103.117 192.681 121.925 187.796 128.358L144.689 149.081L140.607 146.519L137.791 137.875L146.153 102.765" fill="#582C46"/>
<path d="M151.63 79.8319C151.63 79.8319 173.999 82.4926 180.799 61.939C187.599 41.3853 179.912 31.8828 168.734 28.1521C157.556 24.4215 148.138 37.0775 144.999 42.6101C140.776 50.0995 135.257 54.9845 112.24 58.4899C89.2225 61.9953 95.5012 94.6418 92.207 100.174L105.468 102.765L128.176 82.4645C128.176 82.4645 150.532 79.7615 151.63 79.8319Z" fill="#582C46"/>
<path d="M140.902 141.479C142.96 135.552 145.488 129.799 148.462 124.276C152.559 117.237 161.132 104.961 153.868 90.3761C153.868 90.3761 159.978 92.5864 160.471 91.2771C161.512 88.4616 150.686 67.0632 133.92 59.6724L121.785 65.8525L108.073 86.8426L106.665 98.2175V101.695L109.481 115.224L122.066 127.049L131.245 131.892C131.245 131.892 131.808 136.115 132.146 137.818L132.596 140.634L140.902 141.479Z" fill="#FFC1B5"/>
<path d="M106.679 98.8511C106.679 98.8511 111.212 78.2693 124.938 76.7629C143.999 74.6653 145.238 64.0929 145.238 64.0929L134.201 57.054L116.167 63.1215L103.258 81.9295L99.105 89.1092L106.679 98.8511Z" fill="#582C46"/>
<path d="M126.05 140.564C126.205 140.113 140.747 135.453 144.197 138.452C146.21 140.197 144.717 149.109 144.689 149.081C144.661 149.052 141.508 155.078 137.777 155.247C133.145 155.472 127.655 149.813 126.402 149.038C126.402 149.038 125.177 143.14 126.05 140.564Z" fill="#FFC951"/>
<path d="M126.402 149.038C126.402 149.038 140.874 137.889 126.402 125.768C111.93 113.647 111.648 116.73 107.199 104.172H105.158L87.9551 118.912L97.2042 138.621L126.402 149.038Z" fill="#582C46"/>
<path d="M108.396 99.8365C108.396 99.8365 98.2178 93.3325 97.1338 97.6685C96.0498 102.004 108.396 104.172 108.396 104.172V99.8365Z" fill="#FFC1B5"/>
<path d="M140.03 92.5724C140.396 93.5297 139.1 94.9234 137.115 95.6836C135.131 96.4438 133.244 96.3031 132.892 95.3458C132.54 94.3885 134.722 92.6428 136.693 91.8685C138.664 91.0943 139.649 91.6151 140.03 92.5724Z" fill="#E89F91"/>
<path d="M143.309 86.35C143.306 86.5774 143.257 86.8018 143.167 87.0105C143.076 87.2192 142.946 87.408 142.782 87.5662C142.619 87.7244 142.426 87.8488 142.214 87.9324C142.003 88.016 141.777 88.0571 141.55 88.0534C140.578 88.0534 140.297 87.2932 140.297 86.35C140.293 86.1264 140.334 85.9044 140.417 85.6969C140.501 85.4895 140.625 85.3008 140.782 85.1421C140.94 84.9833 141.127 84.8577 141.334 84.7726C141.541 84.6875 141.762 84.6446 141.986 84.6465C142.957 84.6465 143.309 85.4067 143.309 86.35Z" fill="#333333"/>
<path d="M137.65 81.2255C138.509 81.066 139.31 80.6823 139.973 80.1134C140.757 79.6437 141.372 78.9394 141.733 78.1002C141.822 77.8503 141.838 77.5803 141.781 77.3213C141.723 77.0624 141.593 76.8251 141.406 76.6367C141.219 76.4484 140.983 76.3166 140.724 76.2568C140.466 76.1969 140.196 76.2113 139.945 76.2983C139.077 76.6173 138.32 77.1793 137.763 77.9172C137.185 78.5222 136.769 79.2629 136.552 80.0711C136.511 80.2295 136.511 80.3959 136.554 80.5541C136.596 80.7122 136.679 80.8566 136.794 80.9731C136.909 81.0896 137.052 81.1741 137.21 81.2184C137.367 81.2626 137.534 81.2651 137.693 81.2255H137.65Z" fill="#582C46"/>
<path d="M144.337 94.7402C143.953 94.721 143.571 94.7984 143.225 94.9654C142.197 95.5708 142.591 97.1193 142.915 98.0203C143.37 99.2319 144.081 100.331 144.998 101.244C145.414 101.766 145.94 102.188 146.539 102.48C147.138 102.773 147.795 102.928 148.462 102.933C149.264 102.736 150.008 102.35 150.63 101.806C151.252 101.262 151.735 100.577 152.037 99.8082C152.402 99.0568 152.544 98.2164 152.446 97.3868C152.429 97.2465 152.381 97.1118 152.305 96.9926C152.208 96.9077 152.093 96.8468 151.968 96.815C151.843 96.7832 151.713 96.7813 151.587 96.8096C150.137 97.0509 148.648 96.7929 147.364 96.0776C146.488 95.3755 145.445 94.9144 144.337 94.7402Z" fill="#8C4542"/>
<path d="M182.854 282.75C182.854 282.75 210.573 354.73 164.947 403.242L157.5 398.766C157.5 398.766 194.708 355.251 164.947 282.75H182.854Z" fill="#FFC1B5"/>
<path d="M159.992 394.964C159.992 394.964 147.026 406.03 148.983 409.211C150.94 412.393 156.444 406.086 156.444 406.086C156.444 406.086 165.144 425.499 181.784 427.907C198.424 430.314 176.407 414.279 172.296 409.465C169.845 406.579 168.551 402.887 168.664 399.103C168.664 399.103 163.3 402.102 159.992 394.964Z" fill="#EBAE41"/>
<path d="M149.701 288.17C149.701 288.17 138.762 364.514 75.2711 384.589L70.9492 377.043C70.9492 377.043 124.656 357.236 134.074 279.428L149.701 288.17Z" fill="#FFC1B5"/>
<path d="M74.9756 374.946C74.9756 374.946 58.2511 378.268 58.4341 381.985C58.6171 385.701 66.4585 382.914 66.4585 382.914C66.4585 382.914 64.5721 404.101 77.8897 414.307C91.2073 424.514 79.8465 399.793 78.6077 393.571C77.8766 389.858 78.5488 386.005 80.4941 382.759C80.4941 382.759 74.4125 382.801 74.9756 374.946Z" fill="#EBAE41"/>
<path d="M173.295 231.014L192.864 286.903C192.864 286.903 163.582 310.314 113.338 298.756L115.492 239.052L173.295 231.014Z" fill="#1F1141"/>
<path d="M126.402 149.039C126.402 149.039 86.6181 157.134 26.6605 104.891L19.7061 112.366C19.7061 112.366 55.9706 158.471 116.562 167.593L110.621 249.963C110.621 249.963 147.575 265.139 178.955 240.854L161.892 184.121C161.892 184.121 162.23 183.262 163.638 180.109C167.495 171.437 158.936 158.724 144.745 149.137C144.745 149.137 143.845 151.179 137.833 151.319C133.894 151.496 129.972 150.713 126.402 149.039Z" fill="#EBAE41"/>
<path d="M144.689 149.081C144.689 149.081 192.863 110.592 241.249 122.685L238.053 126.993C238.053 126.993 183.262 138.931 156.711 164.482L144.689 149.081Z" fill="#EBAE41"/>
<path d="M22.8312 105.158C23.155 103.483 25.0555 86.5752 22.9297 85.7023C20.1142 84.6324 20.4098 94.7403 20.1142 96.5282C19.2956 94.5604 18.127 92.7575 16.6651 91.2068C15.4685 89.799 11.4 84.2523 9.94995 85.1814C8.49993 86.1106 11.0762 90.0665 12.9908 93.1777C13.5961 94.149 14.9194 96.2466 15.4262 97.2039C13.0893 94.1631 6.78244 86.913 5.17756 88.9825C3.57269 91.0519 11.2592 98.5413 13.5257 100.512C10.3582 98.1612 2.545 90.3058 0.855663 92.9383C-0.00308589 94.318 8.44362 100.695 10.1189 102.342C8.44362 101.793 1.29208 97.2602 0.137693 99.6112C-1.41087 103.018 10.5694 106.397 12.667 106.988C14.7646 107.579 22.2258 109.086 23.0564 104.172" fill="#FFC1B5"/>
<path d="M240.418 125.81C240.418 127.302 240.925 142.295 242.882 142.704C245.458 143.267 243.896 134.496 243.924 132.849C244.901 134.463 246.154 135.892 247.626 137.072C248.865 138.185 253.131 142.436 254.271 141.437C255.411 140.437 252.652 137.34 250.568 134.876C249.921 134.102 248.499 132.455 247.922 131.695C250.357 134.032 256.819 139.522 257.931 137.509C259.043 135.496 251.385 129.977 249.133 128.555C252.202 130.188 260.043 136.002 261.127 133.497C261.69 132.089 253.581 127.725 251.85 126.458C253.398 126.725 260.212 129.724 260.916 127.514C261.817 124.346 250.935 122.98 248.992 122.699C247.049 122.417 240.39 122.136 240.32 126.5" fill="#EDD4CC"/>
<path d="M324.337 134.665C324.337 134.665 274.67 104.271 213.98 119.94L220.766 124.431C220.766 124.431 292.479 125.134 314.426 150.658L324.337 134.665Z" fill="white"/>
<path d="M224.017 119.757C224.2 121.263 224.693 136.242 222.779 136.861C220.259 137.607 221.188 128.752 221.033 127.148C220.177 128.821 219.028 130.328 217.64 131.596C216.486 132.779 212.53 137.34 211.333 136.425C210.137 135.51 212.642 132.202 214.543 129.611C215.148 128.795 216.443 127.035 216.964 126.233C214.698 128.752 208.658 134.679 207.391 132.751C206.124 130.822 213.389 124.783 215.528 123.206C212.586 125.05 205.181 131.399 203.928 128.978C203.267 127.683 210.967 122.685 212.671 121.348C211.15 121.728 204.576 125.205 203.717 123.065C202.577 119.954 213.346 117.828 215.261 117.434C217.176 117.04 223.792 116.251 224.186 120.601" fill="#EDD4CC"/>
<path d="M213.544 28.9546C213.544 28.9546 191.568 73.0042 210.517 79.2829L218.64 40.8222L213.544 28.9546Z" fill="#FF8074"/>
<path d="M267.265 59.8413C267.265 59.8413 258.086 94.7966 244.951 90.348C236.645 87.5324 244.951 81.9013 244.951 81.9013L262.563 59.9258L267.265 59.8413Z" fill="#FF8074"/>
<path d="M211.038 63.6847C211.038 63.6847 201.183 53.9569 198.903 58.5463C196.622 63.1356 209.996 68.5415 209.996 68.5415L211.038 63.6847Z" fill="#FFC1B5"/>
<path d="M219.949 32.5444C219.949 32.5444 190.386 66.5424 215.36 98.7103C220.02 104.693 228.804 111.859 228.776 125.881C228.776 125.881 234.295 128.105 238.856 125.726C238.856 125.726 239.489 102.708 244.811 95.5991C250.132 88.4898 264.309 71.0755 265.745 59.8695C266.572 52.9172 266.134 45.8724 264.449 39.0766L219.949 32.5444Z" fill="#FFC1B5"/>
<path d="M253.623 81.6481C253.623 81.6481 267.166 84.4637 266.589 79.3112C266.012 74.1587 251.835 77.0165 251.835 77.0165L253.623 81.6481Z" fill="#FFC1B5"/>
<path d="M211.643 39.8508C209.963 38.4492 208.417 36.8939 207.026 35.2051C204.504 32.3462 202.695 28.9306 201.747 25.238C198.776 11.6248 216.571 -5.56429 231.944 1.74211C237.826 4.37733 242.992 8.38412 247.007 13.4267C251.082 18.5105 256.054 22.8048 261.676 26.0968C267.941 29.7429 275.754 32.9949 277.471 40.0198C278.33 43.4125 277.471 46.9883 276.542 50.3529C274.431 57.5889 269.503 64.4308 266.054 71.16C265.21 72.7789 263.028 76.7911 261.254 76.3406C260.426 76.2547 259.593 76.2265 258.762 76.2561C249.851 79.7052 261.028 64.9094 261.958 62.5021C262.718 60.5875 263.675 56.3782 262.859 54.8437C261.451 52.1549 252.061 52.2534 249.02 51.4369C237.73 48.3257 220.414 47.1572 211.643 39.8508Z" fill="#FF8074"/>
<path d="M230.043 57.4341C227.584 60.3258 225.339 63.3936 223.328 66.6129C222.286 68.4008 220.273 71.7935 221.132 74.0741C222.089 76.5659 225.355 74.2149 226.453 72.8071C226.65 72.5537 226.453 72.1314 226.087 72.2863C225.256 72.8817 224.37 73.3956 223.44 73.8207C220.78 74.4683 222.554 70.245 223.229 68.8231C225.273 64.9178 227.727 61.2415 230.55 57.8565C230.803 57.5186 230.31 57.1103 230.043 57.4341Z" fill="#BC6C6C"/>
<path d="M237.138 62.3896C237.217 62.5937 237.254 62.8114 237.248 63.0301C237.241 63.2488 237.191 63.464 237.101 63.6632C237.011 63.8624 236.881 64.0416 236.721 64.1903C236.56 64.339 236.372 64.4543 236.166 64.5294C235.308 64.8814 234.759 64.2901 234.449 63.4454C234.367 63.247 234.326 63.0342 234.328 62.8197C234.33 62.6051 234.375 62.3931 234.46 62.1963C234.546 61.9994 234.67 61.8216 234.825 61.6735C234.98 61.5253 235.163 61.4098 235.364 61.3337C236.223 60.9959 236.8 61.5449 237.138 62.3896Z" fill="#333333"/>
<path d="M221.019 60.4045C220.734 60.7428 220.327 60.9549 219.887 60.9944C219.447 61.034 219.008 60.8978 218.668 60.6156C217.95 60.0244 218.203 59.2923 218.767 58.5884C218.898 58.418 219.063 58.2758 219.251 58.1704C219.439 58.0649 219.646 57.9984 219.86 57.9748C220.074 57.9511 220.291 57.9708 220.497 58.0327C220.704 58.0946 220.895 58.1974 221.061 58.335C221.821 58.9263 221.624 59.7006 221.019 60.4045Z" fill="#333333"/>
<path d="M242.966 72.0749C242.572 72.9759 240.742 73.0463 238.87 72.2157C236.997 71.3851 235.815 69.9914 236.209 69.0904C236.603 68.1895 239.292 68.4992 241.164 69.3157C243.037 70.1322 243.375 71.1599 242.966 72.0749Z" fill="#E89F91"/>
<path d="M209.349 67.7391C209.433 66.7537 211.151 66.092 213.178 66.3314C215.205 66.5707 216.796 67.4435 216.711 68.429C216.627 69.4144 213.994 69.9916 211.967 69.8367C209.94 69.6819 209.264 68.7246 209.349 67.7391Z" fill="#E89F91"/>
<path d="M239.658 56.4767C240.545 57.1058 241.487 57.6524 242.474 58.1098C243.417 58.5603 244.43 59.3205 245.458 58.7574C245.749 58.6325 245.983 58.4018 246.111 58.1118C246.239 57.8218 246.252 57.4941 246.148 57.1947C245.866 56.0685 244.613 55.7869 243.656 55.435C242.656 55.0233 241.619 54.7075 240.559 54.4918C240.316 54.4574 240.068 54.5035 239.854 54.623C239.639 54.7425 239.469 54.9288 239.371 55.1536C239.272 55.3784 239.249 55.6293 239.306 55.8682C239.363 56.1071 239.497 56.3208 239.686 56.4767H239.658Z" fill="#FF8074"/>
<path d="M222.188 51.8874C221.002 51.7363 219.798 51.8127 218.64 52.1127C218.33 52.1925 218.057 52.3754 217.865 52.6313C217.673 52.8872 217.574 53.2008 217.584 53.5205C217.618 53.8412 217.761 54.1407 217.989 54.3688C218.217 54.5968 218.516 54.7397 218.837 54.7734C220.138 54.688 221.407 54.3383 222.568 53.7457C222.755 53.6434 222.905 53.4837 222.996 53.29C223.086 53.0962 223.112 52.8786 223.069 52.6692C223.026 52.4597 222.918 52.2694 222.759 52.1262C222.601 51.983 222.4 51.8944 222.188 51.8734V51.8874Z" fill="#FF8074"/>
<path d="M224.553 80.4231C225.886 80.1727 227.237 80.0268 228.593 79.9867C229.55 80.1116 230.444 80.5354 231.147 81.1976C231.849 81.8598 232.325 82.7267 232.507 83.6751C232.943 86.195 230.17 87.4339 227.044 87.7577C225.58 87.9284 224.097 87.833 222.666 87.4761C218.077 86.2372 214.938 81.6056 217.824 79.4376C219.724 78.0299 222.23 80.578 224.553 80.4231Z" fill="#8C4542"/>
<path d="M228.185 128.471L230.719 137.466L234.125 136.903L238.391 128.471L232.478 127.133L228.185 128.471Z" fill="#582C46"/>
<path d="M228.748 124.43C228.748 124.43 218.71 135.89 220.189 138.058C221.667 140.226 232.479 127.133 232.479 127.133C232.479 127.133 243.741 141.028 247.035 141.211C250.329 141.394 238.912 124.318 238.912 124.318C238.912 124.318 235.182 126.176 228.748 124.43Z" fill="white"/>
<path d="M231.451 136.143C231.451 136.143 233.239 217.372 268.053 233.886L277.471 228.522L272.994 220.075C272.994 220.075 240.094 208.166 233.492 136.214L231.451 136.143Z" fill="#582C46"/>
<path d="M234.731 146.786L232.225 148.616C232.31 149.616 232.408 150.643 232.521 151.713L235.097 149.785C234.998 148.799 234.872 147.814 234.731 146.786Z" fill="#AEA1B2"/>
<path d="M237.011 160.104L234.111 164.539C234.266 165.552 234.421 166.58 234.59 167.622L237.659 162.976C237.448 162.033 237.223 161.089 237.011 160.104Z" fill="#AEA1B2"/>
<path d="M240.418 173.407L237.208 181.122C237.462 182.267 237.729 183.407 238.011 184.543L241.249 176.096C240.967 175.195 240.728 174.308 240.418 173.407Z" fill="#AEA1B2"/>
<path d="M244.951 186.106L241.15 195.679C241.446 196.636 241.77 197.565 242.094 198.494L246.176 188.865C245.782 187.922 245.374 187.021 244.951 186.106Z" fill="#AEA1B2"/>
<path d="M249.935 196.199L246.753 209.827C247.232 210.854 247.753 211.854 248.274 212.839C249.09 209.475 250.498 203.548 251.47 198.761C250.963 197.973 250.442 197.086 249.935 196.199Z" fill="#AEA1B2"/>
<path d="M256.819 206.49L254.003 221.849C254.679 222.736 255.411 223.581 256.087 224.397L258.677 208.644C258.016 207.968 257.424 207.25 256.819 206.49Z" fill="#AEA1B2"/>
<path d="M263.703 213.825L262.295 230.366C263.168 231.028 264.055 231.647 264.97 232.21L265.421 215.317C264.872 214.852 264.309 214.36 263.703 213.825Z" fill="#AEA1B2"/>
<path d="M234.548 181.6C234.938 181.6 235.312 181.445 235.588 181.17C235.864 180.894 236.019 180.52 236.019 180.129C236.019 179.739 235.864 179.365 235.588 179.089C235.312 178.813 234.938 178.658 234.548 178.658C234.158 178.658 233.783 178.813 233.508 179.089C233.232 179.365 233.077 179.739 233.077 180.129C233.077 180.52 233.232 180.894 233.508 181.17C233.783 181.445 234.158 181.6 234.548 181.6Z" fill="#1F1141"/>
<path d="M235.097 203.125C235.473 203.089 235.822 202.914 236.076 202.634C236.33 202.354 236.471 201.99 236.471 201.612C236.471 201.234 236.33 200.87 236.076 200.59C235.822 200.31 235.473 200.135 235.097 200.099C234.721 200.135 234.372 200.31 234.118 200.59C233.863 200.87 233.723 201.234 233.723 201.612C233.723 201.99 233.863 202.354 234.118 202.634C234.372 202.914 234.721 203.089 235.097 203.125Z" fill="#1F1141"/>
<path d="M235.731 226.256C236.074 226.256 236.404 226.119 236.647 225.876C236.889 225.633 237.026 225.304 237.026 224.96C237.026 224.617 236.889 224.288 236.647 224.045C236.404 223.802 236.074 223.665 235.731 223.665C235.387 223.665 235.058 223.802 234.815 224.045C234.572 224.288 234.436 224.617 234.436 224.96C234.436 225.304 234.572 225.633 234.815 225.876C235.058 226.119 235.387 226.256 235.731 226.256Z" fill="#1F1141"/>
<path d="M111.325 198.198C111.986 196.917 115.773 195.566 118.364 194.904C119.983 194.482 125.74 192.694 126.247 194.003C126.754 195.313 122.883 196.819 119.884 197.973C118.941 198.353 116.914 199.142 116.055 199.55C119.293 198.593 127.542 196.734 127.557 198.846C127.571 200.958 118.251 202.436 115.661 202.717C119.11 202.619 128.725 201.014 128.458 203.576C128.317 204.984 119.124 205.266 117.04 205.575C118.448 205.984 125.895 206.307 125.487 208.461C124.769 211.502 114.633 208.095 112.817 207.532C111.001 206.969 109.354 201.901 111.409 198.227" fill="#EDD4CC"/>
<path d="M315.003 149.095C318.142 150.165 323.196 144.28 325.575 140.24L330.108 141.817C330.108 141.817 340.554 155.993 343.877 150.658C344.496 149.672 342.286 146.533 341.821 145.815C335.866 136.791 330.7 136.129 330.7 136.129L324.829 135.144C324.829 135.144 315.299 142.183 314.496 146.012C314.271 146.983 314.003 148.757 315.003 149.095Z" fill="#E6E6E6"/>
<path d="M323.14 137.917L325.012 146.476H329.672L333.346 137.917L327.433 136.58L323.14 137.917Z" fill="#EBAE41"/>
<path d="M336.838 133.863C336.838 133.863 345.974 186.837 345.974 238.588H340.962C340.962 238.588 340.681 156.26 333.867 133.736L336.838 133.863Z" fill="#FF8074"/>
<path d="M323.703 133.877C323.703 133.877 311.737 163.609 309.991 238.588L304.951 237.842C304.951 237.842 309.935 167.101 321.845 133.271L323.703 133.877Z" fill="#FF8074"/>
<path d="M323.703 133.877C323.703 133.877 313.666 145.336 315.144 147.504C316.622 149.672 327.434 136.551 327.434 136.551C327.434 136.551 338.696 150.446 341.99 150.629C345.284 150.812 333.867 133.736 333.867 133.736C333.867 133.736 330.137 135.622 323.703 133.877Z" fill="white"/>
<path d="M299.278 235.42C299.278 235.42 340.793 234.012 355.589 239.925L357.096 250.174C357.096 250.174 367.668 317.747 421.431 343.003C421.431 343.003 419.108 349.859 416.124 353.153C416.124 353.153 358.067 335.865 323.112 261.534C323.112 261.534 299.25 322.801 299.25 376.621L286.664 377.536C286.664 377.536 284.172 286.311 299.278 235.42Z" fill="#582C46"/>
<path d="M231.887 405.241L225.988 390.051L232.436 384.871L243.093 400.356L237.546 406.79L231.887 405.241Z" fill="#FFC1B5"/>
<path d="M247.612 404.298C247.612 404.298 217.852 434.58 213.29 430.244C213.29 430.244 208.701 429.624 217.809 417.405C225.341 407.311 231.535 403.82 231.535 403.82C231.535 403.82 236.885 407.86 241.474 398.188C241.474 398.203 246.768 399.976 247.612 404.298Z" fill="#FF8074"/>
<path d="M326.42 366.26L328.602 351.098L318.593 355.082V374.566L327.588 373.974L329.658 371.018L326.42 366.26Z" fill="#FFC1B5"/>
<path d="M323.041 381.985C323.041 381.985 359.559 360.319 356.434 354.857C356.434 354.857 356.927 350.239 342.891 356.18C331.291 361.079 326.42 366.26 326.42 366.26C326.42 366.26 329.066 372.426 318.593 374.566C318.593 374.566 319.057 380.098 323.041 381.985Z" fill="#FF8074"/>
<path d="M201.31 238.461C201.31 238.461 239.743 233.562 265.055 236.955C265.055 236.955 338.175 274.134 328.827 357.925L316.58 358.812C316.58 358.812 317.354 324.42 301.094 298.559C283.947 271.206 251.822 251.807 238.335 266.926C217.57 290.127 221.554 351.126 239.011 392.36L224.581 395.851C224.581 395.851 196.524 323.702 201.31 238.461Z" fill="#1F1141"/>
<path d="M329.418 142.929C329.418 142.929 329.418 214.163 298.757 230.212L290 225.89L293.675 218.231C293.675 218.231 322.731 206.335 325.646 142.746L329.418 142.929Z" fill="#EBAE41"/>
<path d="M356.321 191.033C355.505 192.229 351.577 193.088 348.874 193.44C347.227 193.651 341.286 194.707 340.934 193.342C340.582 191.976 344.623 191.005 347.748 190.188C348.719 189.935 350.831 189.4 351.746 189.104C348.409 189.653 339.977 190.512 340.23 188.386C340.484 186.26 349.916 185.965 352.562 186.049C349.127 185.711 339.386 186.049 339.892 183.6C340.202 182.262 349.367 183.079 351.478 183.037C350.071 182.445 342.778 181.206 343.482 179.123C344.58 176.195 354.238 180.84 355.969 181.629C357.701 182.417 358.714 187.612 356.265 191.033" fill="#EDD4CC"/>
<path d="M340.962 236.744L345.974 237.462C345.974 237.462 346.748 243.543 343.496 243.543C340.244 243.543 340.962 236.744 340.962 236.744Z" fill="#1F1141"/>
<path d="M305.106 235.293H310.075C310.075 235.293 311.117 242.332 307.837 242.332C304.317 242.473 305.106 235.293 305.106 235.293Z" fill="#1F1141"/>
<path d="M306.781 238.095C306.707 238.323 306.725 238.571 306.834 238.785C306.942 238.999 307.131 239.161 307.359 239.235C307.586 239.31 307.834 239.291 308.048 239.183C308.262 239.075 308.424 238.886 308.499 238.658C308.573 238.43 308.555 238.182 308.446 237.968C308.338 237.755 308.149 237.593 307.922 237.518C307.694 237.443 307.446 237.462 307.232 237.57C307.018 237.679 306.856 237.867 306.781 238.095Z" fill="#F2F2F2"/>
<path d="M342.609 239.446C342.535 239.674 342.554 239.922 342.662 240.136C342.77 240.35 342.959 240.512 343.187 240.587C343.414 240.661 343.662 240.643 343.876 240.534C344.09 240.426 344.252 240.237 344.327 240.01C344.402 239.782 344.383 239.534 344.274 239.32C344.166 239.106 343.977 238.944 343.75 238.869C343.522 238.795 343.274 238.813 343.06 238.922C342.846 239.03 342.684 239.219 342.609 239.446Z" fill="#F2F2F2"/>
<path d="M356.434 354.857C356.434 354.857 347.832 365.345 322.056 381.394L323.464 382.9C323.464 382.9 352.154 366.373 356.758 356.842C357.166 355.969 356.8 355.505 356.434 354.857Z" fill="white"/>
<path d="M213.29 430.244C213.29 430.244 225.481 425.091 247.626 404.312L248.724 406.03C248.724 406.03 225.369 429.526 214.937 431.511C213.98 431.694 213.825 430.779 213.29 430.244Z" fill="white"/>
</svg>
