<svg width="151" height="149" viewBox="0 0 151 149" fill="none" xmlns="http://www.w3.org/2000/svg">
<path d="M139.133 100.908C137.462 108.262 132.683 114.426 124.796 119.398C116.91 124.37 105.838 128.765 91.5825 132.583C77.3179 136.405 65.5266 138.136 56.2087 137.776C46.8908 137.416 39.6358 134.358 34.4436 128.6C29.2627 122.847 25.6474 117.505 23.5977 112.576C21.5479 107.646 19.1548 100.071 16.4184 89.8487C13.6808 79.632 11.9658 71.8758 11.2731 66.5801C10.5805 61.2845 10.9871 55.101 12.493 48.0297C15.6136 34.3316 31.6648 23.5997 60.6466 15.834C89.1781 8.18903 107.993 9.57848 117.092 20.0024C122.497 25.708 126.226 31.0201 128.281 35.9385C130.335 40.857 132.728 48.4327 135.46 58.6657C138.2 68.8939 139.916 76.6501 140.605 81.9343C141.295 87.2184 140.804 93.5428 139.133 100.908Z" fill="white"/>
<path d="M124.444 64.0161L116.089 55.6631C115.374 54.9467 114.21 54.9485 113.492 55.6631L89.1978 79.954C89.0062 80.1456 88.8671 80.3757 88.777 80.625C88.7744 80.632 88.7674 80.6346 88.7648 80.6425L84.1994 93.5643C83.9633 94.2317 84.1321 94.9744 84.6324 95.4756C84.9823 95.8255 85.4529 96.0127 85.9314 96.0127C86.1361 96.0127 86.3443 95.9786 86.5438 95.9077L99.4647 91.3371C99.4699 91.3354 99.4708 91.3301 99.4752 91.3275C99.7219 91.2392 99.9545 91.1018 100.151 90.905L124.443 66.6141C124.788 66.2686 124.981 65.8015 124.981 65.3151C124.981 64.8287 124.789 64.3608 124.444 64.0161ZM88.9449 91.1622L91.2587 84.6121L93.3799 86.7316L95.4951 88.8459L88.9449 91.1622ZM98.8532 87.008L95.9858 84.1432L93.0948 81.2539L114.791 59.5601L120.547 65.3151L98.8532 87.008Z" fill="#FF4F45"/>
<path d="M86.2796 78.6587C86.2796 77.644 85.4564 76.8218 84.4417 76.8218H57.1312C56.1173 76.8218 55.2942 77.6432 55.2942 78.6587C55.2942 79.6743 56.1165 80.4957 57.1312 80.4957H84.4426C85.4564 80.4948 86.2796 79.6735 86.2796 78.6587Z" fill="black"/>
<path d="M99.1524 65.5284C99.1524 64.5137 98.3301 63.6914 97.3145 63.6914H57.1312C56.1173 63.6914 55.2942 64.5128 55.2942 65.5284C55.2942 66.544 56.1165 67.3654 57.1312 67.3654H97.3154C98.3292 67.3654 99.1524 66.5431 99.1524 65.5284Z" fill="black"/>
<path d="M57.1312 89.9575C56.1173 89.9575 55.2942 90.7789 55.2942 91.7945C55.2942 92.8101 56.1165 93.6315 57.1312 93.6315H64.3102C65.3249 93.6315 66.1472 92.8101 66.1472 91.7945C66.1472 90.7789 65.3258 89.9575 64.3102 89.9575H57.1312Z" fill="black"/>
<path d="M71.0222 89.9575C70.0083 89.9575 69.1843 90.7789 69.1843 91.7945C69.1843 92.8101 70.0075 93.6315 71.0222 93.6315H78.9833C79.998 93.6315 80.8202 92.8101 80.8202 91.7945C80.8202 90.7789 79.9989 89.9575 78.9833 89.9575H71.0222Z" fill="black"/>
<path d="M106.609 89.2396C105.594 89.2396 104.772 90.061 104.772 91.0766V98.2521C104.772 100.979 102.552 103.197 99.8233 103.197H49.6739V44.637H59.2455V49.9774C59.2455 50.9921 60.0686 51.8143 61.0833 51.8143H93.1149C94.1296 51.8143 94.9527 50.9929 94.9527 49.9774V44.637H104.773V56.9622C104.773 57.9769 105.594 58.7992 106.61 58.7992C107.625 58.7992 108.447 57.9778 108.447 56.9622V42.8009C108.447 41.7862 107.625 40.9639 106.61 40.9639H94.9527V35.6227C94.9527 34.608 94.1304 33.7858 93.1149 33.7858H85.0777C83.1742 30.8072 79.9315 29 76.3669 29C72.3501 29 70.423 31.3155 69.0706 33.7858H61.0833C60.0695 33.7858 59.2455 34.6071 59.2455 35.6227V40.9639H47.837C46.8231 40.9639 46 41.7853 46 42.8009V105.033C46 106.048 46.8223 106.87 47.837 106.87H99.8242C104.578 106.87 108.446 103.004 108.446 98.2513V91.0757C108.446 90.061 107.623 89.2396 106.609 89.2396ZM70.1886 37.4588C70.8875 37.4588 71.5252 37.0634 71.8348 36.4371C73.2974 33.4822 74.271 32.6731 76.3678 32.6731C78.9168 32.6731 81.2148 34.1155 82.3642 36.4371C82.6739 37.0634 83.3124 37.4588 84.0105 37.4588H91.2796V42.7502C91.2788 42.7677 91.2744 42.7834 91.2744 42.8009C91.2744 42.8184 91.2788 42.8342 91.2796 42.8517V48.1421H62.9211V42.8272C62.9211 42.8175 62.9238 42.8097 62.9238 42.8018C62.9238 42.7939 62.9211 42.7852 62.9211 42.7764V37.4588H70.1886Z" fill="#278DCC"/>
</svg>
