<svg width="151" height="149" viewBox="0 0 151 149" fill="none" xmlns="http://www.w3.org/2000/svg">
<path d="M138.255 100.908C136.584 108.262 131.805 114.426 123.919 119.398C116.032 124.37 104.961 128.765 90.705 132.583C76.4404 136.405 64.6492 138.136 55.3313 137.776C46.0134 137.416 38.7583 134.358 33.5662 128.6C28.3853 122.847 24.77 117.505 22.7202 112.576C20.6705 107.646 18.2774 100.071 15.5409 89.8487C12.8034 79.632 11.0883 71.8758 10.3957 66.5801C9.70309 61.2845 10.1097 55.101 11.6155 48.0297C14.7362 34.3316 30.7874 23.5997 59.7691 15.834C88.3007 8.18903 107.116 9.57848 116.215 20.0024C121.619 25.708 125.349 31.0201 127.403 35.9385C129.457 40.857 131.851 48.4327 134.582 58.6657C137.323 68.8939 139.038 76.6501 139.728 81.9343C140.417 87.2184 139.926 93.5428 138.255 100.908Z" fill="white"/>
<path d="M108.421 62.7319L115.473 52.0004C115.759 51.5639 115.842 51.026 115.699 50.5247C115.555 50.0226 115.201 49.6089 114.727 49.3902L99.2378 42.2417C98.3395 41.8297 97.274 42.2199 96.8611 43.1174C96.4456 44.0149 96.8384 45.0803 97.7368 45.4949L111.336 51.7713L105.695 60.3569L99.3166 57.2997C98.4252 56.8702 97.3545 57.2498 96.9285 58.1403C96.5016 59.0317 96.8769 60.1024 97.77 60.5292L102.371 62.7345L76.3588 76.7375L50.377 62.752L54.4839 60.782C55.3762 60.3543 55.7532 59.2845 55.3246 58.3931C54.8968 57.5017 53.8296 57.1238 52.9347 57.5525L47.0739 60.363L41.4388 51.7887L55.2948 45.5011C56.1949 45.0917 56.5938 44.0297 56.1853 43.1296C55.7768 42.2295 54.714 41.8297 53.8139 42.2391L38.0509 49.3928C37.575 49.6089 37.2164 50.0226 37.0703 50.5256C36.9251 51.0286 37.0073 51.5701 37.2942 52.0066L44.3561 62.7511L37.2575 75.1848C37.0169 75.6047 36.9574 76.1059 37.093 76.5704C37.2269 77.0358 37.5453 77.4276 37.973 77.6542L44.6255 81.1856V94.4415C44.6255 95.1046 44.9911 95.7134 45.5772 96.0248L75.5278 111.918C75.7902 112.057 76.0788 112.126 76.3675 112.126C76.6553 112.126 76.9449 112.057 77.2073 111.917L107.151 96.0239C107.737 95.7134 108.103 95.1046 108.103 94.4415V81.1777L114.794 77.6253C115.222 77.3979 115.541 77.0069 115.675 76.5424C115.81 76.077 115.75 75.5767 115.511 75.155L108.421 62.7319ZM47.15 65.0814L73.9287 79.4982L68.074 89.5779L41.284 75.3554L47.15 65.0814ZM48.2076 83.0873L67.9183 93.5501C68.186 93.6927 68.4729 93.7601 68.7563 93.7601C69.3756 93.7601 69.9757 93.4382 70.3073 92.867L74.5769 85.5156V107.357L48.2076 93.3647V83.0873ZM104.521 93.3647L78.1581 107.357V85.4281L82.4584 92.8372C82.7899 93.4084 83.39 93.7303 84.0093 93.7303C84.2919 93.7303 84.5797 93.663 84.8473 93.5204L104.52 83.0785V93.3647H104.521ZM84.6916 89.5473L78.8422 79.4693L105.621 65.0543L111.484 75.3274L84.6916 89.5473Z" fill="#278DCC"/>
<path d="M82.6229 99.7523C82.9211 100.416 83.5746 100.81 84.2578 100.81C84.5036 100.81 84.7529 100.759 84.9908 100.652L92.651 97.2129C93.5528 96.8079 93.9561 95.7477 93.5511 94.8449C93.1461 93.9431 92.0833 93.5415 91.1823 93.9448L83.523 97.3834C82.6211 97.7893 82.2178 98.8495 82.6229 99.7523Z" fill="black"/>
<path d="M76.3841 70.0888C86.0588 70.0888 93.9281 62.2187 93.9281 52.544C93.9281 42.8692 86.0588 35 76.3841 35C66.7103 35 58.8401 42.8701 58.8401 52.5448C58.8401 62.2196 66.7103 70.0888 76.3841 70.0888ZM84.8946 41.5011L84.1449 42.2525C83.4451 42.9523 83.446 44.086 84.1458 44.7849C84.4948 45.1348 84.954 45.3098 85.4115 45.3098C85.8699 45.3098 86.3283 45.1348 86.6782 44.7849L87.4278 44.0344C88.9044 45.9466 89.8937 48.2437 90.2174 50.7534H89.1476C88.1582 50.7534 87.357 51.5555 87.357 52.5448C87.357 53.5333 88.1582 54.3355 89.1476 54.3355H90.2174C89.8946 56.8451 88.9035 59.1439 87.4287 61.0544L86.6782 60.3039C85.9784 59.6041 84.8429 59.6041 84.1449 60.3039C83.4451 61.0028 83.4451 62.1373 84.144 62.8371L84.8937 63.5886C82.9824 65.0651 80.6844 66.0553 78.1747 66.3781V65.3083C78.1747 64.3198 77.3735 63.5168 76.3832 63.5168C75.3939 63.5168 74.5926 64.3198 74.5926 65.3083V66.3781C72.0821 66.0553 69.7833 65.0643 67.8719 63.5868L68.6233 62.8363C69.3231 62.1373 69.3231 61.0028 68.6242 60.303C67.9253 59.6032 66.7916 59.6032 66.0909 60.3021L65.3395 61.0535C63.863 59.1431 62.8719 56.8442 62.5491 54.3355H63.618C64.6074 54.3355 65.4086 53.5333 65.4086 52.5448C65.4086 51.5555 64.6074 50.7534 63.618 50.7534H62.5491C62.8719 48.2446 63.863 45.9457 65.3395 44.0353L66.0909 44.7858C66.4408 45.1348 66.8992 45.3098 67.3567 45.3098C67.8159 45.3098 68.2734 45.1348 68.6242 44.7841C69.324 44.0843 69.3231 42.9506 68.6233 42.2508L67.8728 41.5011C70.2338 39.6782 73.1799 38.5821 76.3841 38.5821C79.5892 38.5821 82.5354 39.6782 84.8946 41.5011Z" fill="#FF4F45"/>
<path d="M70.5399 54.3357H76.3841C77.3744 54.3357 78.1756 53.5335 78.1756 52.5451V41.336C78.1756 40.3476 77.3744 39.5454 76.3841 39.5454C75.3948 39.5454 74.5935 40.3476 74.5935 41.336V50.7536H70.5399C69.5506 50.7536 68.7493 51.5557 68.7493 52.5451C68.7493 53.5335 69.5506 54.3357 70.5399 54.3357Z" fill="#FF4F45"/>
</svg>
