<svg width="320" height="825" viewBox="0 0 320 825" fill="none" xmlns="http://www.w3.org/2000/svg">
<g opacity="0.5" filter="url(#filter0_d)">
<path d="M133 532.091C110.726 528.512 91.5544 515.549 75.4842 493.203C59.414 470.858 44.5759 439.017 30.9701 397.68C17.3711 356.339 10.4051 321.906 10.0722 294.381C9.73926 266.856 17.8012 244.934 34.2581 228.616C50.7058 212.298 66.1513 200.673 80.5945 193.742C95.0187 186.813 117.334 178.381 147.542 168.447C177.718 158.522 200.679 152.059 216.426 149.058C232.145 146.071 250.713 146.144 272.129 149.279C313.599 155.981 348.15 201.332 375.782 285.333C402.983 368.015 401.672 423.713 371.85 452.428C355.618 469.391 340.279 481.347 325.834 488.294C311.382 495.224 289.068 503.655 258.892 513.587C228.684 523.524 205.723 529.987 190.008 532.976C174.259 535.977 155.257 535.682 133 532.091Z" fill="#EFEFE8"/>
</g>
<path d="M279.206 352.81L273.581 349.167L270.092 354.9L277.008 358.173L279.206 352.81Z" fill="#FFC1B5"/>
<path d="M276.578 352.948C277.869 352.364 291.132 347.723 292.223 349.26C293.591 351.304 285.415 352.963 284.032 353.532C285.763 353.84 287.428 354.449 288.95 355.33C290.333 356.037 295.512 358.296 295.097 359.634C294.682 360.971 290.963 359.634 288.105 358.65C287.198 358.358 285.277 357.682 284.416 357.436C287.29 358.758 294.298 362.508 292.915 364.167C291.532 365.827 284.109 361.094 282.157 359.557C284.631 361.678 292.393 366.519 290.579 368.317C289.611 369.285 282.894 363.706 281.358 362.631C282.126 363.891 287.09 368.778 285.415 370.177C282.956 372.052 278.023 363.015 277.116 361.432C276.209 359.849 273.658 354.116 277.438 352.548" fill="#FFC1B5"/>
<path d="M46.9653 374.511L51.6375 369.7L56.325 374.496L50.3311 379.245L46.9653 374.511Z" fill="#FFC1B5"/>
<path d="M49.5627 374.05C48.1795 373.788 34.1937 372.236 33.4867 374.05C32.6107 376.355 40.9561 376.124 42.4469 376.37C40.8246 377.057 39.3365 378.024 38.0513 379.229C36.8525 380.228 32.3187 383.594 33.0871 384.793C33.8556 385.991 37.1138 383.855 39.6804 382.272C40.495 381.765 42.2163 380.735 43.0001 380.243C40.495 382.18 34.5165 387.421 36.2224 388.727C37.9284 390.033 44.1067 383.701 45.7358 381.811C43.7993 384.424 37.329 390.894 39.5882 392.247C40.7563 392.953 45.9663 386.099 47.2727 384.562C46.8116 385.961 43.0924 391.862 45.0442 392.815C47.8567 394.106 50.6231 384.193 51.1918 382.426C51.7605 380.658 52.8978 374.526 48.8557 373.85" fill="#FFC1B5"/>
<path d="M174.666 301.047C174.666 301.047 232.792 321.011 277.807 349.597L271.737 358.819L195.691 328.388C197.228 329.049 215.117 382.026 216.101 391.309C217.085 400.592 202.161 404.88 180.614 394.229L175.558 325.53L174.666 301.047Z" fill="#222A33"/>
<path d="M164.845 299.818C164.845 299.818 106.766 313.496 47.6414 370.238L56.6476 379.275C56.6476 379.275 103.4 344.111 142.114 328.204C142.114 328.204 122.688 387.298 123.533 401.791C124.379 416.284 151.92 399.024 151.92 399.024L161.971 321.104L164.845 299.818Z" fill="#222A33"/>
<path d="M163.063 301.954C163.063 301.954 136.275 349.736 138.319 428.794C138.319 428.794 171.915 425.905 201.178 429.332C201.178 429.332 199.871 347.984 174.666 301.062C174.666 301.047 167.489 305.027 163.063 301.954Z" fill="white"/>
<path d="M143.096 403.262C143.106 403.07 143.233 402.968 143.476 402.955C143.574 402.945 143.672 402.95 143.768 402.97C143.797 402.975 143.824 402.987 143.848 403.005C143.872 403.022 143.892 403.044 143.907 403.069C143.931 403.111 143.949 403.155 143.959 403.202C143.969 403.261 143.974 403.32 143.977 403.379L144.073 405.165C144.078 405.224 144.078 405.284 144.076 405.343C144.071 405.39 144.059 405.437 144.041 405.48C143.999 405.572 143.887 405.622 143.705 405.632C143.523 405.642 143.4 405.625 143.336 405.583C143.303 405.561 143.276 405.532 143.256 405.498C143.235 405.464 143.222 405.426 143.217 405.387C143.103 405.574 142.902 405.676 142.613 405.691C142.324 405.706 142.049 405.586 141.787 405.331C141.536 405.092 141.385 404.764 141.367 404.415C141.348 404.067 141.463 403.724 141.688 403.461C141.923 403.18 142.188 403.032 142.485 403.016C142.591 403.008 142.698 403.022 142.799 403.058C142.871 403.082 142.939 403.117 143.001 403.163C143.036 403.193 143.068 403.226 143.096 403.262ZM142.242 404.372C142.246 404.429 142.261 404.485 142.286 404.536C142.311 404.587 142.346 404.632 142.389 404.669C142.432 404.71 142.483 404.742 142.538 404.763C142.594 404.783 142.653 404.791 142.712 404.787C142.77 404.786 142.828 404.771 142.88 404.745C142.932 404.718 142.978 404.681 143.015 404.634C143.087 404.548 143.124 404.438 143.119 404.325C143.111 404.211 143.063 404.103 142.984 404.022C142.943 403.977 142.893 403.943 142.837 403.921C142.781 403.899 142.721 403.891 142.661 403.896C142.6 403.898 142.541 403.913 142.487 403.94C142.433 403.968 142.385 404.008 142.348 404.057C142.276 404.145 142.238 404.257 142.242 404.372Z" fill="#333333"/>
<path d="M145.259 403.216C145.403 402.966 145.585 402.835 145.805 402.823C146.145 402.805 146.406 402.939 146.59 403.226C146.628 403.168 146.67 403.113 146.715 403.06C146.785 402.983 146.865 402.916 146.953 402.862C147.055 402.792 147.174 402.751 147.298 402.744C147.425 402.735 147.553 402.755 147.672 402.804C147.791 402.852 147.897 402.926 147.984 403.022C148.177 403.219 148.287 403.559 148.313 404.043L148.362 404.939C148.366 404.998 148.367 405.057 148.364 405.116C148.359 405.164 148.345 405.21 148.323 405.254C148.285 405.348 148.159 405.401 147.946 405.412C147.732 405.424 147.601 405.383 147.552 405.29C147.529 405.249 147.512 405.204 147.503 405.157C147.494 405.099 147.488 405.04 147.486 404.981L147.437 404.087C147.421 403.79 147.31 403.648 147.103 403.659C146.986 403.666 146.909 403.709 146.871 403.789C146.83 403.895 146.814 404.01 146.825 404.124L146.874 405.02C146.878 405.08 146.879 405.139 146.876 405.199C146.871 405.246 146.857 405.292 146.836 405.334C146.794 405.429 146.666 405.482 146.453 405.493C146.239 405.505 146.108 405.464 146.059 405.371C146.036 405.33 146.02 405.285 146.01 405.238C146.001 405.18 145.995 405.121 145.993 405.063L145.944 404.168C145.928 403.871 145.817 403.729 145.61 403.74C145.41 403.751 145.318 403.905 145.334 404.201L145.383 405.105C145.387 405.163 145.388 405.222 145.385 405.281C145.379 405.329 145.366 405.376 145.344 405.419C145.299 405.511 145.171 405.562 144.961 405.573C144.751 405.584 144.62 405.545 144.568 405.456C144.545 405.415 144.529 405.371 144.519 405.326C144.509 405.267 144.503 405.208 144.5 405.149L144.402 403.35C144.398 403.291 144.397 403.232 144.4 403.173C144.406 403.128 144.419 403.083 144.441 403.043C144.486 402.948 144.601 402.896 144.789 402.886C144.978 402.875 145.1 402.9 145.16 402.957C145.224 403.027 145.26 403.12 145.259 403.216Z" fill="#333333"/>
<path d="M150.296 402.871C150.306 402.68 150.432 402.577 150.676 402.564C150.774 402.555 150.872 402.56 150.968 402.579C150.997 402.585 151.024 402.597 151.048 402.614C151.072 402.631 151.092 402.653 151.107 402.679C151.131 402.72 151.149 402.765 151.159 402.812C151.168 402.87 151.174 402.929 151.176 402.987L151.273 404.775C151.277 404.833 151.278 404.892 151.275 404.951C151.271 404.999 151.259 405.045 151.241 405.089C151.199 405.18 151.087 405.23 150.905 405.24C150.723 405.25 150.6 405.234 150.535 405.191C150.503 405.169 150.476 405.14 150.455 405.106C150.435 405.073 150.422 405.035 150.417 404.995C150.303 405.183 150.102 405.284 149.813 405.3C149.524 405.315 149.249 405.195 148.987 404.94C148.733 404.702 148.582 404.372 148.566 404.021C148.556 403.849 148.579 403.676 148.635 403.512C148.691 403.349 148.777 403.199 148.89 403.07C149.124 402.789 149.39 402.641 149.687 402.625C149.793 402.618 149.899 402.632 149.999 402.667C150.071 402.691 150.139 402.726 150.2 402.772C150.235 402.802 150.267 402.835 150.296 402.871ZM149.443 403.982C149.447 404.039 149.462 404.094 149.487 404.145C149.512 404.196 149.547 404.241 149.59 404.278C149.633 404.32 149.684 404.352 149.739 404.372C149.795 404.392 149.854 404.401 149.913 404.397C149.971 404.395 150.028 404.38 150.08 404.354C150.131 404.327 150.177 404.29 150.213 404.243C150.286 404.158 150.324 404.047 150.319 403.934C150.311 403.82 150.264 403.712 150.184 403.632C150.143 403.587 150.093 403.552 150.037 403.53C149.981 403.508 149.92 403.5 149.861 403.506C149.8 403.507 149.741 403.522 149.687 403.55C149.633 403.577 149.585 403.617 149.548 403.666C149.476 403.754 149.439 403.867 149.443 403.982Z" fill="#333333"/>
<path d="M152.956 404.238L153.813 404.191C153.946 404.184 154.043 404.196 154.104 404.227C154.162 404.256 154.207 404.306 154.229 404.368C154.256 404.45 154.271 404.536 154.273 404.623C154.28 404.709 154.275 404.796 154.257 404.88C154.251 404.909 154.239 404.937 154.222 404.961C154.205 404.985 154.184 405.005 154.159 405.02C154.118 405.045 154.074 405.063 154.028 405.073C153.971 405.082 153.914 405.088 153.856 405.09L152.048 405.188C151.991 405.192 151.934 405.183 151.88 405.163C151.826 405.143 151.777 405.112 151.736 405.072C151.692 405.034 151.656 404.986 151.631 404.933C151.606 404.88 151.591 404.823 151.589 404.764C151.585 404.705 151.593 404.646 151.612 404.591C151.632 404.536 151.662 404.485 151.702 404.443C151.784 404.353 151.91 404.22 152.082 404.046C152.254 403.871 152.409 403.715 152.549 403.577C152.688 403.438 152.765 403.362 152.777 403.347L152.071 403.386C151.881 403.396 151.759 403.37 151.705 403.308C151.641 403.224 151.605 403.121 151.605 403.014C151.597 402.922 151.601 402.83 151.616 402.74C151.624 402.691 151.642 402.645 151.668 402.604C151.694 402.571 151.727 402.545 151.765 402.529C151.849 402.505 151.936 402.491 152.024 402.49L153.651 402.401C153.708 402.398 153.765 402.406 153.819 402.425C153.872 402.444 153.922 402.474 153.964 402.513C154.008 402.551 154.045 402.599 154.07 402.653C154.095 402.707 154.109 402.765 154.111 402.825C154.115 402.889 154.105 402.954 154.082 403.014C154.059 403.074 154.024 403.129 153.98 403.174C153.884 403.278 153.543 403.632 152.956 404.238Z" fill="#333333"/>
<path d="M158.374 401.646C158.361 401.673 158.344 401.696 158.322 401.716C158.3 401.735 158.274 401.749 158.247 401.758C158.166 401.785 158.082 401.8 157.997 401.802C157.912 401.81 157.826 401.804 157.743 401.785C157.714 401.779 157.687 401.768 157.663 401.75C157.639 401.733 157.619 401.711 157.604 401.685C157.58 401.644 157.562 401.599 157.552 401.553C157.543 401.494 157.537 401.436 157.535 401.377C157.531 401.318 157.53 401.259 157.533 401.2C157.537 401.154 157.549 401.11 157.568 401.068C157.609 400.973 157.737 400.92 157.95 400.909C158.163 400.897 158.292 400.936 158.338 401.026C158.363 401.066 158.382 401.111 158.393 401.159C158.402 401.217 158.407 401.275 158.41 401.334C158.414 401.393 158.415 401.452 158.412 401.511C158.407 401.558 158.394 401.604 158.374 401.646ZM157.602 402.64C157.598 402.581 157.597 402.522 157.6 402.463C157.604 402.416 157.616 402.369 157.634 402.325C157.676 402.234 157.804 402.183 158.018 402.171C158.178 402.163 158.293 402.185 158.363 402.238C158.394 402.264 158.42 402.297 158.437 402.334C158.455 402.371 158.464 402.412 158.465 402.453C158.47 402.487 158.475 402.536 158.478 402.601L158.575 404.388C158.579 404.447 158.58 404.506 158.577 404.565C158.572 404.613 158.558 404.66 158.537 404.703C158.498 404.794 158.372 404.845 158.159 404.856C157.945 404.868 157.814 404.829 157.765 404.74C157.743 404.699 157.726 404.655 157.716 404.609C157.707 404.55 157.701 404.49 157.699 404.431L157.602 402.64Z" fill="#333333"/>
<path d="M160.344 402.039C160.503 402.027 160.662 402.052 160.81 402.112C160.958 402.172 161.091 402.265 161.199 402.384C161.437 402.632 161.566 402.943 161.586 403.318L161.635 404.218C161.639 404.277 161.64 404.336 161.637 404.395C161.632 404.441 161.62 404.485 161.602 404.527C161.56 404.621 161.432 404.674 161.219 404.686C160.982 404.699 160.841 404.644 160.798 404.52C160.77 404.436 160.755 404.349 160.754 404.261L160.705 403.361C160.706 403.301 160.696 403.242 160.673 403.187C160.65 403.132 160.615 403.083 160.572 403.042C160.528 403.002 160.476 402.973 160.42 402.955C160.364 402.937 160.305 402.932 160.247 402.94C160.188 402.94 160.129 402.953 160.074 402.977C160.02 403.001 159.971 403.036 159.93 403.08C159.891 403.125 159.862 403.177 159.843 403.233C159.825 403.29 159.819 403.349 159.825 403.409L159.874 404.314C159.878 404.373 159.878 404.432 159.876 404.49C159.871 404.537 159.857 404.582 159.835 404.623C159.798 404.717 159.671 404.77 159.457 404.782C159.244 404.794 159.116 404.754 159.064 404.665C159.041 404.623 159.025 404.579 159.015 404.532C159.006 404.474 159 404.415 158.998 404.356L158.9 402.547C158.896 402.49 158.895 402.433 158.898 402.376C158.903 402.33 158.917 402.286 158.939 402.245C158.98 402.158 159.107 402.108 159.317 402.097C159.521 402.085 159.648 402.118 159.7 402.193C159.739 402.255 159.76 402.327 159.762 402.4C159.785 402.36 159.813 402.323 159.845 402.291C159.884 402.249 159.928 402.21 159.974 402.176C160.081 402.093 160.21 402.045 160.344 402.039Z" fill="#333333"/>
<path d="M163.628 404.222C163.51 404.399 163.313 404.496 163.036 404.511C162.76 404.526 162.493 404.409 162.236 404.162C161.99 403.93 161.841 403.61 161.823 403.268C161.805 402.927 161.919 402.593 162.14 402.336C162.369 402.061 162.629 401.915 162.919 401.9C163.026 401.892 163.133 401.908 163.233 401.946C163.305 401.971 163.373 402.007 163.433 402.054C163.465 402.082 163.495 402.114 163.522 402.149C163.521 402.107 163.529 402.066 163.545 402.028C163.561 401.99 163.583 401.955 163.612 401.926C163.668 401.874 163.761 401.844 163.891 401.837C163.987 401.827 164.084 401.832 164.178 401.852C164.206 401.858 164.232 401.87 164.255 401.887C164.278 401.904 164.297 401.925 164.312 401.949C164.336 401.989 164.354 402.032 164.364 402.077C164.373 402.135 164.379 402.192 164.381 402.25L164.496 404.363C164.517 404.754 164.4 405.077 164.146 405.332C163.914 405.577 163.599 405.724 163.264 405.742C163.011 405.756 162.757 405.705 162.528 405.593C162.291 405.479 162.169 405.371 162.164 405.27C162.161 405.204 162.171 405.138 162.193 405.076C162.216 405.014 162.251 404.958 162.296 404.91C162.338 404.854 162.385 404.802 162.435 404.754C162.469 404.725 162.512 404.708 162.556 404.707C162.609 404.707 162.661 404.726 162.703 404.76C162.857 404.873 163.044 404.93 163.234 404.921C163.294 404.919 163.353 404.902 163.405 404.873C163.458 404.843 163.503 404.801 163.536 404.751C163.612 404.642 163.647 404.509 163.637 404.376L163.628 404.222ZM162.68 403.226C162.683 403.282 162.698 403.337 162.723 403.387C162.748 403.437 162.782 403.481 162.824 403.518C162.866 403.558 162.916 403.59 162.971 403.61C163.026 403.629 163.084 403.638 163.142 403.633C163.199 403.632 163.255 403.617 163.306 403.591C163.357 403.565 163.402 403.528 163.438 403.482C163.509 403.398 163.546 403.29 163.542 403.179C163.534 403.068 163.487 402.963 163.41 402.884C163.37 402.84 163.32 402.806 163.265 402.784C163.21 402.763 163.151 402.755 163.092 402.76C163.033 402.761 162.974 402.776 162.921 402.802C162.868 402.829 162.821 402.868 162.784 402.915C162.712 403.001 162.675 403.112 162.68 403.226Z" fill="#333333"/>
<path d="M156.404 404.959C156.39 404.988 156.371 405.014 156.346 405.035C156.322 405.056 156.294 405.072 156.264 405.082C156.083 405.137 155.892 405.147 155.706 405.112C155.675 405.106 155.645 405.092 155.618 405.073C155.592 405.054 155.57 405.03 155.554 405.002C155.526 404.957 155.507 404.907 155.496 404.855C155.486 404.791 155.479 404.726 155.477 404.662C155.472 404.597 155.472 404.532 155.475 404.467C155.48 404.416 155.493 404.367 155.514 404.321C155.56 404.216 155.701 404.158 155.936 404.145C156.171 404.132 156.314 404.176 156.363 404.274C156.391 404.319 156.412 404.369 156.423 404.421C156.433 404.485 156.44 404.55 156.442 404.615C156.447 404.68 156.448 404.745 156.444 404.81C156.439 404.861 156.426 404.912 156.404 404.959Z" fill="#FF4F45"/>
<path d="M154.628 401.973L154.535 402.079C154.379 402.257 154.394 402.531 154.569 402.691L155.604 403.638C155.779 403.798 156.048 403.783 156.204 403.606L156.297 403.5C156.453 403.322 156.439 403.048 156.264 402.888L155.228 401.941C155.053 401.781 154.785 401.796 154.628 401.973Z" fill="url(#paint0_linear)"/>
<path d="M157.099 401.942L156.995 401.847C156.82 401.687 156.552 401.702 156.396 401.88L155.469 402.934C155.312 403.111 155.327 403.385 155.502 403.545L155.606 403.64C155.781 403.8 156.049 403.785 156.206 403.608L157.132 402.554C157.289 402.376 157.274 402.102 157.099 401.942Z" fill="url(#paint1_linear)"/>
<path d="M156.297 403.5L156.204 403.606C156.131 403.688 156.031 403.739 155.923 403.748C155.815 403.757 155.707 403.723 155.622 403.654L155.606 403.64L155.502 403.544C155.46 403.506 155.427 403.46 155.402 403.409C155.378 403.358 155.364 403.302 155.361 403.246C155.358 403.189 155.366 403.132 155.384 403.078C155.403 403.025 155.432 402.976 155.469 402.933L155.845 402.506L156.263 402.888C156.305 402.926 156.339 402.972 156.363 403.024C156.387 403.075 156.401 403.13 156.404 403.187C156.407 403.244 156.399 403.301 156.381 403.354C156.362 403.408 156.334 403.457 156.297 403.5Z" fill="url(#paint2_linear)"/>
<path d="M167.013 428.779C167.013 428.779 164.507 329.142 168.242 309.807C168.242 309.807 166.536 405.971 169.779 428.779H167.013Z" fill="#E6E6E6"/>
<path d="M156.638 316.109C156.638 316.109 164.031 311.16 166.352 307.241L171.07 307.533C171.07 307.533 175.88 316.754 182.136 317.599L181.167 314.633L171.639 301.954H166.613L157.607 313.112L156.638 316.109Z" fill="#E6E6E6"/>
<path d="M150.091 207.127C150.091 207.127 128.759 249.884 147.156 255.985L155.04 218.639L150.091 207.127Z" fill="#FF4F45"/>
<path d="M202.253 237.112C202.253 237.112 193.339 271.047 180.537 266.728C172.468 264.023 180.537 258.475 180.537 258.475L197.627 237.127L202.253 237.112Z" fill="#FF4F45"/>
<path d="M147.647 240.831C147.647 240.831 138.103 231.395 135.875 235.867C133.646 240.34 146.633 245.565 146.633 245.565L147.647 240.831Z" fill="#FFC1B5"/>
<path d="M156.3 210.601C156.3 210.601 127.576 243.552 151.859 274.828C156.377 280.622 164.907 287.584 164.876 301.201C164.876 301.201 170.24 303.368 174.666 301.047C174.666 301.047 175.281 278.701 180.445 271.846C185.609 264.992 199.379 248.04 200.778 237.158C201.583 230.406 201.156 223.564 199.518 216.964L156.3 210.601Z" fill="#FFC1B5"/>
<path d="M189.005 258.245C189.005 258.245 202.161 260.934 201.592 255.985C201.024 251.036 187.269 253.741 187.269 253.741L189.005 258.245Z" fill="#FFC1B5"/>
<path d="M148.262 217.686C146.627 216.33 145.125 214.822 143.774 213.183C141.33 210.436 139.57 207.15 138.641 203.592C135.752 190.298 153.026 173.592 167.965 180.693C173.673 183.252 178.685 187.141 182.581 192.035C186.54 196.968 191.369 201.135 196.828 204.33C202.976 207.865 210.445 211.031 212.197 217.839C212.777 221.206 212.464 224.667 211.29 227.875C209.246 234.899 204.497 241.584 201.101 248.07C200.286 249.607 198.165 253.557 196.49 253.111C195.689 253.026 194.882 252.995 194.077 253.019C185.424 256.385 196.275 241.999 197.151 239.679C197.873 237.804 198.811 233.716 198.011 232.24C196.598 229.627 187.53 229.72 184.579 228.92C173.575 225.924 156.761 224.802 148.262 217.686Z" fill="#FF4F45"/>
<path d="M166.106 234.776C163.719 237.579 161.541 240.553 159.589 243.675C158.575 245.411 156.623 248.716 157.468 250.929C158.313 253.142 161.587 251.052 162.632 249.684C162.817 249.453 162.632 249.038 162.263 249.192C161.461 249.789 160.601 250.303 159.697 250.729C157.115 251.359 158.836 247.256 159.497 245.872C161.477 242.079 163.858 238.509 166.597 235.222C166.633 235.156 166.644 235.079 166.629 235.006C166.614 234.932 166.574 234.866 166.516 234.819C166.458 234.772 166.385 234.746 166.31 234.747C166.235 234.747 166.163 234.774 166.106 234.822V234.776Z" fill="#BC6C6C"/>
<path d="M173.006 239.587C173.156 239.986 173.142 240.429 172.966 240.817C172.79 241.206 172.468 241.51 172.069 241.661C171.224 241.999 170.716 241.431 170.394 240.616C170.31 240.421 170.268 240.211 170.27 239.999C170.272 239.788 170.318 239.578 170.404 239.385C170.491 239.192 170.617 239.018 170.774 238.876C170.93 238.733 171.115 238.625 171.316 238.557C172.115 238.219 172.684 238.772 173.006 239.587Z" fill="#333333"/>
<path d="M157.392 237.65C157.263 237.823 157.1 237.967 156.912 238.073C156.724 238.179 156.517 238.244 156.302 238.264C156.088 238.284 155.871 238.259 155.667 238.191C155.463 238.122 155.275 238.011 155.117 237.865C154.41 237.281 154.656 236.574 155.209 235.898C155.335 235.723 155.497 235.576 155.683 235.467C155.87 235.359 156.077 235.291 156.292 235.267C156.506 235.244 156.723 235.267 156.929 235.333C157.134 235.399 157.323 235.508 157.484 235.652C158.129 236.221 157.945 236.974 157.392 237.65Z" fill="#333333"/>
<path d="M178.662 248.977C178.278 249.853 176.495 249.93 174.681 249.131C172.868 248.332 171.715 246.964 172.099 246.057C172.484 245.15 175.096 245.473 176.91 246.272C178.724 247.071 179 248.163 178.662 248.977Z" fill="#E89F91"/>
<path d="M146.018 244.781C146.111 243.828 147.771 243.244 149.738 243.352C151.705 243.459 153.242 244.428 153.165 245.381C153.088 246.333 150.522 246.917 148.554 246.733C146.587 246.549 145.942 245.734 146.018 244.781Z" fill="#E89F91"/>
<path d="M175.45 233.839C176.307 234.426 177.211 234.94 178.155 235.375C179.062 235.806 180.045 236.544 181.044 236.006C181.328 235.88 181.555 235.653 181.68 235.368C181.805 235.084 181.82 234.763 181.72 234.469C181.444 233.362 180.183 233.132 179.307 232.747C178.312 232.351 177.283 232.043 176.234 231.825C175.999 231.799 175.762 231.849 175.558 231.968C175.354 232.086 175.193 232.266 175.099 232.482C175.004 232.699 174.981 232.94 175.033 233.17C175.086 233.4 175.21 233.607 175.388 233.762L175.45 233.839Z" fill="#FF4F45"/>
<path d="M158.482 229.382C157.332 229.236 156.164 229.309 155.04 229.597C154.734 229.671 154.464 229.851 154.276 230.103C154.088 230.355 153.994 230.666 154.01 230.98C154.025 231.297 154.158 231.597 154.382 231.822C154.607 232.046 154.907 232.179 155.224 232.194C156.483 232.123 157.716 231.805 158.851 231.257C159.04 231.161 159.192 231.006 159.284 230.815C159.376 230.625 159.404 230.409 159.362 230.202C159.32 229.995 159.211 229.807 159.053 229.667C158.894 229.527 158.694 229.443 158.482 229.428V229.382Z" fill="#FF4F45"/>
<path d="M160.788 257.092C162.076 256.847 163.381 256.709 164.692 256.677C165.624 256.794 166.495 257.203 167.18 257.847C167.865 258.49 168.328 259.334 168.503 260.258C168.918 262.701 166.244 263.9 163.201 264.208C161.803 264.37 160.387 264.282 159.02 263.946C154.563 262.732 151.52 258.244 154.41 256.139C156.085 254.771 158.513 257.23 160.788 257.092Z" fill="#8C4542"/>
<path d="M164.307 303.737L166.766 312.482L170.071 311.944L174.205 303.737L168.472 302.446L164.307 303.737Z" fill="#582C46"/>
<path d="M164.845 299.818C164.845 299.818 155.101 310.945 156.546 313.05C157.991 315.156 168.472 302.446 168.472 302.446C168.472 302.446 179.369 315.94 182.596 316.109C185.824 316.278 174.728 299.664 174.728 299.664C174.728 299.664 171.1 301.508 164.845 299.818Z" fill="white"/>
<path d="M167.474 311.175C167.474 311.175 169.21 390.034 203.022 406.079L212.151 400.884L207.802 392.631C207.802 392.631 175.927 381.089 169.456 311.175H167.474Z" fill="#582C46"/>
<path d="M170.655 321.519L168.242 323.301C168.334 324.27 168.426 325.269 168.534 326.375L171.085 324.5C170.932 323.47 170.793 322.502 170.655 321.519Z" fill="#AEA1B2"/>
<path d="M172.853 334.459L170.055 338.839C170.209 339.823 170.363 340.822 170.532 341.913L173.513 337.302C173.298 336.319 173.083 335.412 172.853 334.459Z" fill="#AEA1B2"/>
<path d="M176.188 347.369L173.114 354.869C173.36 355.976 173.621 357.082 173.898 358.189L176.971 349.951C176.71 349.106 176.449 348.245 176.188 347.369Z" fill="#AEA1B2"/>
<path d="M180.614 359.695L176.895 368.916C177.187 369.839 177.494 370.745 177.817 371.668L181.782 362.308C181.382 361.478 180.998 360.602 180.614 359.695Z" fill="#AEA1B2"/>
<path d="M185.424 369.577L182.351 382.81C182.827 383.809 183.319 384.777 183.887 385.73C184.671 382.472 186.039 376.709 186.961 372.113C186.423 371.222 185.916 370.377 185.424 369.577Z" fill="#AEA1B2"/>
<path d="M192.11 379.49L189.328 394.414C189.974 395.259 190.65 396.089 191.341 396.888L193.847 381.519C193.278 380.935 192.694 380.228 192.11 379.49Z" fill="#AEA1B2"/>
<path d="M198.796 386.621L197.443 402.682C198.288 403.312 199.149 403.911 200.04 404.465L200.517 388.02C199.933 387.605 199.38 387.144 198.796 386.621Z" fill="#AEA1B2"/>
<path d="M170.486 355.499C170.914 355.499 171.324 355.329 171.627 355.027C171.93 354.724 172.1 354.314 172.1 353.886C172.1 353.458 171.93 353.047 171.627 352.745C171.324 352.442 170.914 352.272 170.486 352.272C170.058 352.272 169.647 352.442 169.345 352.745C169.042 353.047 168.872 353.458 168.872 353.886C168.872 354.314 169.042 354.724 169.345 355.027C169.647 355.329 170.058 355.499 170.486 355.499Z" fill="#1F1141"/>
<path d="M170.977 376.416C171.418 376.416 171.84 376.242 172.151 375.93C172.462 375.619 172.637 375.197 172.637 374.757C172.637 374.316 172.462 373.894 172.151 373.583C171.84 373.272 171.418 373.097 170.977 373.097C170.537 373.097 170.115 373.272 169.804 373.583C169.493 373.894 169.318 374.316 169.318 374.757C169.318 375.197 169.493 375.619 169.804 375.93C170.115 376.242 170.537 376.416 170.977 376.416Z" fill="#1F1141"/>
<path d="M171.639 398.779C172.014 398.779 172.373 398.63 172.638 398.364C172.904 398.099 173.052 397.74 173.052 397.365C173.052 396.99 172.904 396.63 172.638 396.365C172.373 396.1 172.014 395.951 171.639 395.951C171.264 395.951 170.904 396.1 170.639 396.365C170.374 396.63 170.225 396.99 170.225 397.365C170.225 397.74 170.374 398.099 170.639 398.364C170.904 398.63 171.264 398.779 171.639 398.779Z" fill="#1F1141"/>
<path d="M167.904 572.463L162.171 557.724L168.442 552.683L178.785 567.73L173.39 573.985L167.904 572.463Z" fill="#FFC1B5"/>
<path d="M183.165 571.556C183.165 571.556 154.287 600.957 149.799 596.746C149.799 596.746 145.342 596.147 154.179 584.282C161.51 574.477 167.52 571.095 167.52 571.095C167.52 571.095 172.714 575.014 177.171 565.639C177.217 565.639 182.351 567.361 183.165 571.556Z" fill="#FF8074"/>
<path d="M259.687 534.625L261.808 519.901L252.08 523.774V542.693L260.825 542.109L262.838 539.235L259.687 534.625Z" fill="#FFC1B5"/>
<path d="M256.399 549.886C256.399 549.886 291.855 528.861 288.827 523.559C288.827 523.559 289.319 519.071 275.687 524.835C264.406 529.599 259.687 534.625 259.687 534.625C259.687 534.625 262.254 540.603 252.08 542.693C252.08 542.693 252.526 548.088 256.399 549.886Z" fill="#FF8074"/>
<path d="M138.211 410.536C138.211 410.536 175.527 405.787 200.102 408.999C200.102 408.999 271.106 445.101 262.023 526.449L250.128 527.325C250.128 527.325 250.881 493.928 235.143 468.815C218.498 442.257 187.361 423.415 174.205 438.077C154.041 460.593 157.914 519.825 174.866 559.861L160.865 563.242C160.865 563.242 133.554 493.298 138.211 410.536Z" fill="#222A33"/>
<path d="M288.827 523.559C288.827 523.559 280.436 533.733 255.461 549.394L256.798 550.931C256.798 550.931 284.662 534.886 289.073 525.634C289.534 524.635 289.18 524.174 288.827 523.559Z" fill="white"/>
<path d="M149.799 596.746C149.799 596.746 161.649 591.736 183.134 571.572L184.21 573.247C184.21 573.247 161.526 596.039 151.428 597.976C150.568 598.16 150.368 597.253 149.799 596.746Z" fill="white"/>
<path d="M27.4219 95H28.8984L24.7422 83.7266H23.3516L19.1953 95H20.6719L21.8047 91.7734H26.2891L27.4219 95ZM24.0234 85.4375H24.0703L25.875 90.5781H22.2188L24.0234 85.4375ZM29.9766 95H31.3359V89.9062C31.3359 88.7812 32.1172 87.9375 33.1953 87.9375C34.2031 87.9375 34.8594 88.5781 34.8594 89.5547V95H36.2188V89.8359C36.2188 88.7344 36.9766 87.9375 38.0547 87.9375C39.125 87.9375 39.7422 88.5938 39.7422 89.7031V95H41.1016V89.3906C41.1016 87.7812 40.0625 86.7344 38.4531 86.7344C37.3125 86.7344 36.3594 87.3125 35.9062 88.2812H35.875C35.5234 87.2969 34.7031 86.7344 33.5938 86.7344C32.5 86.7344 31.6719 87.3125 31.2891 88.1719H31.2578V86.875H29.9766V95ZM45.5156 93.9844C44.5391 93.9844 43.8906 93.4766 43.8906 92.7031C43.8906 91.9375 44.5156 91.4531 45.6094 91.3828L47.7812 91.25V91.9141C47.7812 93.0859 46.7969 93.9844 45.5156 93.9844ZM45.2109 95.1406C46.3047 95.1406 47.3359 94.5312 47.8203 93.6016H47.8516V95H49.1406V89.3828C49.1406 87.7656 47.9375 86.7344 46.0312 86.7344C44.1094 86.7344 42.9062 87.8125 42.8125 89.2188H44.125C44.2969 88.4219 44.9531 87.9297 46 87.9297C47.125 87.9297 47.7812 88.5234 47.7812 89.5156V90.1953L45.4531 90.3281C43.5781 90.4375 42.5078 91.3125 42.5078 92.7031C42.5078 94.1641 43.5938 95.1406 45.2109 95.1406ZM50.6172 95H56.6797V93.8828H52.1875V93.8594L56.6562 87.8672V86.875H50.625V87.9922H55.1172V88.0156L50.6172 94.0312V95ZM58.9453 98.0391C60.4141 98.0391 61.0859 97.4688 61.7812 95.5703L64.9766 86.875H63.5469L61.2969 93.6406H61.2734L59.0234 86.875H57.5703L60.5703 95.0078L60.3828 95.5781C60.0703 96.5234 59.6484 96.8906 58.8906 96.8906C58.7188 96.8906 58.5078 96.8828 58.3594 96.8516V97.9922C58.5078 98.0234 58.7812 98.0391 58.9453 98.0391ZM66.125 95H67.4844V86.875H66.125V95ZM66.8047 85.5078C67.2734 85.5078 67.6562 85.125 67.6562 84.6641C67.6562 84.1953 67.2734 83.8203 66.8047 83.8203C66.3438 83.8203 65.9609 84.1953 65.9609 84.6641C65.9609 85.125 66.3438 85.5078 66.8047 85.5078ZM69.3203 95H70.6797V90.2188C70.6797 88.8438 71.5156 87.9375 72.7969 87.9375C74.0469 87.9375 74.6641 88.6562 74.6641 89.9688V95H76.0234V89.7266C76.0234 87.8828 74.9922 86.7344 73.2109 86.7344C71.9531 86.7344 71.0859 87.2969 70.6328 88.1719H70.6016V86.875H69.3203V95ZM81.0625 93.8672C79.6641 93.8672 78.75 92.7266 78.75 90.9062C78.75 89.0859 79.6641 87.9297 81.0625 87.9297C82.4766 87.9297 83.4219 89.1172 83.4219 90.9062C83.4219 92.6953 82.4766 93.8672 81.0625 93.8672ZM81.1094 98.0625C83.3516 98.0625 84.7812 96.7734 84.7812 94.8359V86.875H83.4844V88.2422H83.4609C82.9219 87.2969 81.9688 86.7344 80.8203 86.7344C78.7188 86.7344 77.3594 88.3594 77.3594 90.9062C77.3594 93.4297 78.7188 95.0625 80.7891 95.0625C81.9297 95.0625 82.8906 94.4844 83.3906 93.6016H83.4219V94.8828C83.4219 96.0938 82.5703 96.9062 81.1641 96.9062C80.1484 96.9062 79.3438 96.4141 79.0781 95.6719H77.6797C77.9062 97.0547 79.3203 98.0625 81.1094 98.0625ZM95.1797 95H96.5312V86.875H89.9062V95H91.25V87.9922H95.1797V95ZM101.812 95.1406C104.055 95.1406 105.57 93.5234 105.57 90.9375C105.57 88.3438 104.055 86.7344 101.812 86.7344C99.5625 86.7344 98.0469 88.3438 98.0469 90.9375C98.0469 93.5234 99.5625 95.1406 101.812 95.1406ZM101.812 93.9453C100.375 93.9453 99.4297 92.8516 99.4297 90.9375C99.4297 89.0234 100.375 87.9297 101.812 87.9297C103.25 87.9297 104.188 89.0234 104.188 90.9375C104.188 92.8516 103.25 93.9453 101.812 93.9453ZM108.422 95V89.2344H108.477L111.102 94.7656H112.141L114.766 89.2344H114.82V95H116.172V86.875H114.586L111.68 93.2031H111.617L108.727 86.875H107.078V95H108.422ZM121.453 95.1406C123.695 95.1406 125.211 93.5234 125.211 90.9375C125.211 88.3438 123.695 86.7344 121.453 86.7344C119.203 86.7344 117.688 88.3438 117.688 90.9375C117.688 93.5234 119.203 95.1406 121.453 95.1406ZM121.453 93.9453C120.016 93.9453 119.07 92.8516 119.07 90.9375C119.07 89.0234 120.016 87.9297 121.453 87.9297C122.891 87.9297 123.828 89.0234 123.828 90.9375C123.828 92.8516 122.891 93.9453 121.453 93.9453ZM131.945 87.9922V86.875H126.719V95H128.062V87.9922H131.945ZM135.719 93.9844C134.742 93.9844 134.094 93.4766 134.094 92.7031C134.094 91.9375 134.719 91.4531 135.812 91.3828L137.984 91.25V91.9141C137.984 93.0859 137 93.9844 135.719 93.9844ZM135.414 95.1406C136.508 95.1406 137.539 94.5312 138.023 93.6016H138.055V95H139.344V89.3828C139.344 87.7656 138.141 86.7344 136.234 86.7344C134.312 86.7344 133.109 87.8125 133.016 89.2188H134.328C134.5 88.4219 135.156 87.9297 136.203 87.9297C137.328 87.9297 137.984 88.5234 137.984 89.5156V90.1953L135.656 90.3281C133.781 90.4375 132.711 91.3125 132.711 92.7031C132.711 94.1641 133.797 95.1406 135.414 95.1406ZM144.484 87.9141C145.766 87.9141 146.617 88.8828 146.648 90.2422H142.234C142.32 88.8906 143.211 87.9141 144.484 87.9141ZM146.617 92.6719C146.391 93.4375 145.633 93.9609 144.602 93.9609C143.141 93.9609 142.227 92.9375 142.227 91.3828V91.3047H148.055V90.7891C148.055 88.3281 146.703 86.7344 144.508 86.7344C142.266 86.7344 140.828 88.4453 140.828 90.9688C140.828 93.5234 142.242 95.1406 144.57 95.1406C146.344 95.1406 147.719 94.0938 147.953 92.6719H146.617ZM155.195 86.875H148.602V87.9922H151.227V95H152.57V87.9922H155.195V86.875ZM165.008 95H166.359V86.875H159.734V95H161.078V87.9922H165.008V95ZM172.219 86.7344C171.039 86.7344 170.094 87.3359 169.594 88.25H169.562V86.875H168.273V97.7109H169.633V93.6797H169.664C170.148 94.5703 171.086 95.1406 172.25 95.1406C174.297 95.1406 175.695 93.4844 175.695 90.9375C175.695 88.3906 174.289 86.7344 172.219 86.7344ZM171.953 93.9453C170.562 93.9453 169.625 92.75 169.625 90.9375C169.625 89.1328 170.562 87.9297 171.953 87.9297C173.398 87.9297 174.305 89.1016 174.305 90.9375C174.305 92.7812 173.398 93.9453 171.953 93.9453ZM180.578 95.1406C182.82 95.1406 184.336 93.5234 184.336 90.9375C184.336 88.3438 182.82 86.7344 180.578 86.7344C178.328 86.7344 176.812 88.3438 176.812 90.9375C176.812 93.5234 178.328 95.1406 180.578 95.1406ZM180.578 93.9453C179.141 93.9453 178.195 92.8516 178.195 90.9375C178.195 89.0234 179.141 87.9297 180.578 87.9297C182.016 87.9297 182.953 89.0234 182.953 90.9375C182.953 92.8516 182.016 93.9453 180.578 93.9453ZM191.078 93.8828H187.117V93.8203C187.5 93.3047 187.711 92.4219 187.781 91.4141L188.031 87.9922H191.078V93.8828ZM186.148 97.1484V95H192.453V97.1484H193.719V93.8828H192.43V86.875H186.836L186.523 91.3828C186.445 92.4766 186.156 93.4922 185.562 93.8828H184.883V97.1484H186.148ZM197.625 93.9844C196.648 93.9844 196 93.4766 196 92.7031C196 91.9375 196.625 91.4531 197.719 91.3828L199.891 91.25V91.9141C199.891 93.0859 198.906 93.9844 197.625 93.9844ZM197.32 95.1406C198.414 95.1406 199.445 94.5312 199.93 93.6016H199.961V95H201.25V89.3828C201.25 87.7656 200.047 86.7344 198.141 86.7344C196.219 86.7344 195.016 87.8125 194.922 89.2188H196.234C196.406 88.4219 197.062 87.9297 198.109 87.9297C199.234 87.9297 199.891 88.5234 199.891 89.5156V90.1953L197.562 90.3281C195.688 90.4375 194.617 91.3125 194.617 92.7031C194.617 94.1641 195.703 95.1406 197.32 95.1406ZM206.414 87.9766C207.266 87.9766 207.727 88.375 207.727 89.0938C207.727 89.875 207.234 90.25 206.211 90.25H204.469V87.9766H206.414ZM206.32 91.3438C207.508 91.3438 208.078 91.7656 208.078 92.6328C208.078 93.4531 207.547 93.8984 206.562 93.8984H204.469V91.3438H206.32ZM203.125 95H206.625C208.352 95 209.414 94.1016 209.414 92.6641C209.414 91.6484 208.742 90.9062 207.719 90.7656V90.7031C208.469 90.5469 209.055 89.7812 209.055 88.9531C209.055 87.6641 208.125 86.875 206.602 86.875H203.125V95ZM218.812 97.1484V93.8828H217.516V86.875H216.172V93.8828H212.312V86.875H210.969V95H217.547V97.1484H218.812ZM220.555 98.0391C222.023 98.0391 222.695 97.4688 223.391 95.5703L226.586 86.875H225.156L222.906 93.6406H222.883L220.633 86.875H219.18L222.18 95.0078L221.992 95.5781C221.68 96.5234 221.258 96.8906 220.5 96.8906C220.328 96.8906 220.117 96.8828 219.969 96.8516V97.9922C220.117 98.0234 220.391 98.0391 220.555 98.0391ZM234.453 95.1406C236.695 95.1406 238.211 93.5234 238.211 90.9375C238.211 88.3438 236.695 86.7344 234.453 86.7344C232.203 86.7344 230.688 88.3438 230.688 90.9375C230.688 93.5234 232.203 95.1406 234.453 95.1406ZM234.453 93.9453C233.016 93.9453 232.07 92.8516 232.07 90.9375C232.07 89.0234 233.016 87.9297 234.453 87.9297C235.891 87.9297 236.828 89.0234 236.828 90.9375C236.828 92.8516 235.891 93.9453 234.453 93.9453ZM245.352 86.875H238.758V87.9922H241.383V95H242.727V87.9922H245.352V86.875ZM248.156 91.4141L248.406 87.9922H251.172V95H252.516V86.875H247.195L246.883 91.3828C246.781 92.875 246.477 93.8203 245.672 93.8203C245.477 93.8203 245.328 93.7812 245.258 93.7578V94.9844C245.352 95.0234 245.508 95.0703 245.742 95.0703C247.453 95.0703 247.992 93.6562 248.156 91.4141ZM257.125 93.9844C256.148 93.9844 255.5 93.4766 255.5 92.7031C255.5 91.9375 256.125 91.4531 257.219 91.3828L259.391 91.25V91.9141C259.391 93.0859 258.406 93.9844 257.125 93.9844ZM256.82 95.1406C257.914 95.1406 258.945 94.5312 259.43 93.6016H259.461V95H260.75V89.3828C260.75 87.7656 259.547 86.7344 257.641 86.7344C255.719 86.7344 254.516 87.8125 254.422 89.2188H255.734C255.906 88.4219 256.562 87.9297 257.609 87.9297C258.734 87.9297 259.391 88.5234 259.391 89.5156V90.1953L257.062 90.3281C255.188 90.4375 254.117 91.3125 254.117 92.7031C254.117 94.1641 255.203 95.1406 256.82 95.1406ZM268.016 93.8828H264.055V93.8203C264.438 93.3047 264.648 92.4219 264.719 91.4141L264.969 87.9922H268.016V93.8828ZM263.086 97.1484V95H269.391V97.1484H270.656V93.8828H269.367V86.875H263.773L263.461 91.3828C263.383 92.4766 263.094 93.4922 262.5 93.8828H261.82V97.1484H263.086ZM273.219 95L277.281 88.9531H277.344V95H278.688V86.875H277.344L273.281 92.9219H273.219V86.875H271.875V95H273.219ZM286.539 86.875H279.945V87.9922H282.57V95H283.914V87.9922H286.539V86.875ZM290.656 90.5859C291.703 90.5859 292.391 91.2344 292.391 92.2344C292.391 93.2266 291.711 93.8828 290.656 93.8828H289.141V90.5859H290.656ZM287.797 95H290.68C292.539 95 293.734 93.9297 293.734 92.2344C293.734 90.5391 292.539 89.4688 290.68 89.4688H289.141V86.875H287.797V95ZM23.4375 114.141C25.7891 114.141 27.2344 112.57 27.2344 110.016C27.2344 107.594 25.8359 106.047 23.6406 106.047C22.3906 106.047 21.375 106.547 20.8438 107.508H20.7812C21.1094 105.078 21.7812 104.086 24.0391 104L24.6406 103.977C25.5781 103.938 26.4375 103.734 26.6953 103.5V102.312C26.2344 102.555 25.3594 102.711 24.5781 102.75L23.9766 102.773C20.8203 102.891 19.6328 104.758 19.6328 109.242C19.6328 112.469 20.9453 114.141 23.4375 114.141ZM23.4375 112.938C21.9062 112.938 21.0234 111.883 21.0234 110.016C21.0234 108.242 21.9062 107.234 23.4375 107.234C24.9609 107.234 25.8438 108.242 25.8438 110.016C25.8438 111.883 24.9609 112.938 23.4375 112.938ZM30.0938 114L34.1562 107.953H34.2188V114H35.5625V105.875H34.2188L30.1562 111.922H30.0938V105.875H28.75V114H30.0938ZM40.1797 114.141C42.0859 114.141 43.3516 113.117 43.3516 111.602C43.3516 110.664 42.7969 109.977 41.7266 109.742V109.68C42.5391 109.492 43.0703 108.758 43.0703 107.93C43.0703 106.625 42.0625 105.734 40.2109 105.734C38.4922 105.734 37.3203 106.586 37.1484 107.93H38.4688C38.5781 107.281 39.25 106.867 40.2109 106.867C41.2578 106.867 41.7422 107.359 41.7422 108.039C41.7422 108.836 41.2109 109.227 40.1797 109.227H38.9609V110.336H40.1797C41.4062 110.336 42.0156 110.75 42.0156 111.664C42.0156 112.453 41.3594 113.016 40.1797 113.016C39.1719 113.016 38.5 112.602 38.3438 111.891H36.9688C37.1094 113.266 38.3984 114.141 40.1797 114.141ZM50.2578 114H51.6016V105.875H50.2578V109.227H46.25V105.875H44.9062V114H46.25V110.344H50.2578V114ZM56.7812 106.914C58.0625 106.914 58.9141 107.883 58.9453 109.242H54.5312C54.6172 107.891 55.5078 106.914 56.7812 106.914ZM58.9141 111.672C58.6875 112.438 57.9297 112.961 56.8984 112.961C55.4375 112.961 54.5234 111.938 54.5234 110.383V110.305H60.3516V109.789C60.3516 107.328 59 105.734 56.8047 105.734C54.5625 105.734 53.125 107.445 53.125 109.969C53.125 112.523 54.5391 114.141 56.8672 114.141C58.6406 114.141 60.0156 113.094 60.25 111.672H58.9141ZM68.5859 108.375C68.3438 106.992 67.1484 105.734 65.1875 105.734C62.9375 105.734 61.4688 107.406 61.4688 109.938C61.4688 112.523 62.9453 114.141 65.2031 114.141C67.0312 114.141 68.3359 113.055 68.6016 111.516H67.2578C67 112.414 66.2891 112.945 65.2109 112.945C63.7969 112.945 62.8516 111.797 62.8516 109.938C62.8516 108.125 63.7812 106.93 65.1953 106.93C66.3438 106.93 67.0078 107.594 67.2422 108.375H68.5859ZM75.0547 110.062V108.797H69.9297V110.062H75.0547ZM82.1484 114H83.5V105.875H76.875V114H78.2188V106.992H82.1484V114ZM89.3594 105.734C88.1797 105.734 87.2344 106.336 86.7344 107.25H86.7031V105.875H85.4141V116.711H86.7734V112.68H86.8047C87.2891 113.57 88.2266 114.141 89.3906 114.141C91.4375 114.141 92.8359 112.484 92.8359 109.938C92.8359 107.391 91.4297 105.734 89.3594 105.734ZM89.0938 112.945C87.7031 112.945 86.7656 111.75 86.7656 109.938C86.7656 108.133 87.7031 106.93 89.0938 106.93C90.5391 106.93 91.4453 108.102 91.4453 109.938C91.4453 111.781 90.5391 112.945 89.0938 112.945ZM97.7188 114.141C99.9609 114.141 101.477 112.523 101.477 109.938C101.477 107.344 99.9609 105.734 97.7188 105.734C95.4688 105.734 93.9531 107.344 93.9531 109.938C93.9531 112.523 95.4688 114.141 97.7188 114.141ZM97.7188 112.945C96.2812 112.945 95.3359 111.852 95.3359 109.938C95.3359 108.023 96.2812 106.93 97.7188 106.93C99.1562 106.93 100.094 108.023 100.094 109.938C100.094 111.852 99.1562 112.945 97.7188 112.945ZM110.828 116.148V112.883H109.531V105.875H108.188V112.883H104.328V105.875H102.984V114H109.562V116.148H110.828ZM115.312 106.914C116.594 106.914 117.445 107.883 117.477 109.242H113.062C113.148 107.891 114.039 106.914 115.312 106.914ZM117.445 111.672C117.219 112.438 116.461 112.961 115.43 112.961C113.969 112.961 113.055 111.938 113.055 110.383V110.305H118.883V109.789C118.883 107.328 117.531 105.734 115.336 105.734C113.094 105.734 111.656 107.445 111.656 109.969C111.656 112.523 113.07 114.141 115.398 114.141C117.172 114.141 118.547 113.094 118.781 111.672H117.445ZM127.117 108.375C126.875 106.992 125.68 105.734 123.719 105.734C121.469 105.734 120 107.406 120 109.938C120 112.523 121.477 114.141 123.734 114.141C125.562 114.141 126.867 113.055 127.133 111.516H125.789C125.531 112.414 124.82 112.945 123.742 112.945C122.328 112.945 121.383 111.797 121.383 109.938C121.383 108.125 122.312 106.93 123.727 106.93C124.875 106.93 125.539 107.594 125.773 108.375H127.117ZM135.273 108.375C135.031 106.992 133.836 105.734 131.875 105.734C129.625 105.734 128.156 107.406 128.156 109.938C128.156 112.523 129.633 114.141 131.891 114.141C133.719 114.141 135.023 113.055 135.289 111.516H133.945C133.688 112.414 132.977 112.945 131.898 112.945C130.484 112.945 129.539 111.797 129.539 109.938C129.539 108.125 130.469 106.93 131.883 106.93C133.031 106.93 133.695 107.594 133.93 108.375H135.273ZM143.656 114H145V105.875H143.656V114ZM139.562 109.586C140.609 109.586 141.297 110.234 141.297 111.234C141.297 112.227 140.617 112.883 139.562 112.883H138.047V109.586H139.562ZM136.703 114H139.586C141.445 114 142.641 112.93 142.641 111.234C142.641 109.539 141.445 108.469 139.586 108.469H138.047V105.875H136.703V114ZM151.531 114L155.594 107.953H155.656V114H157V105.875H155.656L151.594 111.922H151.531V105.875H150.188V114H151.531ZM166.141 105.734C164.961 105.734 164.016 106.336 163.516 107.25H163.484V105.875H162.195V116.711H163.555V112.68H163.586C164.07 113.57 165.008 114.141 166.172 114.141C168.219 114.141 169.617 112.484 169.617 109.938C169.617 107.391 168.211 105.734 166.141 105.734ZM165.875 112.945C164.484 112.945 163.547 111.75 163.547 109.938C163.547 108.133 164.484 106.93 165.875 106.93C167.32 106.93 168.227 108.102 168.227 109.938C168.227 111.781 167.32 112.945 165.875 112.945ZM173.812 112.984C172.836 112.984 172.188 112.477 172.188 111.703C172.188 110.938 172.812 110.453 173.906 110.383L176.078 110.25V110.914C176.078 112.086 175.094 112.984 173.812 112.984ZM173.508 114.141C174.602 114.141 175.633 113.531 176.117 112.602H176.148V114H177.438V108.383C177.438 106.766 176.234 105.734 174.328 105.734C172.406 105.734 171.203 106.812 171.109 108.219H172.422C172.594 107.422 173.25 106.93 174.297 106.93C175.422 106.93 176.078 107.523 176.078 108.516V109.195L173.75 109.328C171.875 109.438 170.805 110.312 170.805 111.703C170.805 113.164 171.891 114.141 173.508 114.141ZM182.023 114.141C183.93 114.141 185.195 113.117 185.195 111.602C185.195 110.664 184.641 109.977 183.57 109.742V109.68C184.383 109.492 184.914 108.758 184.914 107.93C184.914 106.625 183.906 105.734 182.055 105.734C180.336 105.734 179.164 106.586 178.992 107.93H180.312C180.422 107.281 181.094 106.867 182.055 106.867C183.102 106.867 183.586 107.359 183.586 108.039C183.586 108.836 183.055 109.227 182.023 109.227H180.805V110.336H182.023C183.25 110.336 183.859 110.75 183.859 111.664C183.859 112.453 183.203 113.016 182.023 113.016C181.016 113.016 180.344 112.602 180.188 111.891H178.812C178.953 113.266 180.242 114.141 182.023 114.141ZM190.039 106.977C190.891 106.977 191.352 107.375 191.352 108.094C191.352 108.875 190.859 109.25 189.836 109.25H188.094V106.977H190.039ZM189.945 110.344C191.133 110.344 191.703 110.766 191.703 111.633C191.703 112.453 191.172 112.898 190.188 112.898H188.094V110.344H189.945ZM186.75 114H190.25C191.977 114 193.039 113.102 193.039 111.664C193.039 110.648 192.367 109.906 191.344 109.766V109.703C192.094 109.547 192.68 108.781 192.68 107.953C192.68 106.664 191.75 105.875 190.227 105.875H186.75V114ZM195.938 114L200 107.953H200.062V114H201.406V105.875H200.062L196 111.922H195.938V105.875H194.594V114H195.938ZM209.258 105.875H202.664V106.992H205.289V114H206.633V106.992H209.258V105.875ZM213.375 109.586C214.422 109.586 215.109 110.234 215.109 111.234C215.109 112.227 214.43 112.883 213.375 112.883H211.859V109.586H213.375ZM210.516 114H213.398C215.258 114 216.453 112.93 216.453 111.234C216.453 109.539 215.258 108.469 213.398 108.469H211.859V105.875H210.516V114ZM224.703 114.141C227.055 114.141 228.5 112.57 228.5 110.016C228.5 107.594 227.102 106.047 224.906 106.047C223.656 106.047 222.641 106.547 222.109 107.508H222.047C222.375 105.078 223.047 104.086 225.305 104L225.906 103.977C226.844 103.938 227.703 103.734 227.961 103.5V102.312C227.5 102.555 226.625 102.711 225.844 102.75L225.242 102.773C222.086 102.891 220.898 104.758 220.898 109.242C220.898 112.469 222.211 114.141 224.703 114.141ZM224.703 112.938C223.172 112.938 222.289 111.883 222.289 110.016C222.289 108.242 223.172 107.234 224.703 107.234C226.227 107.234 227.109 108.242 227.109 110.016C227.109 111.883 226.227 112.938 224.703 112.938ZM231.359 114L235.422 107.953H235.484V114H236.828V105.875H235.484L231.422 111.922H231.359V105.875H230.016V114H231.359ZM241.445 114.141C243.352 114.141 244.617 113.117 244.617 111.602C244.617 110.664 244.062 109.977 242.992 109.742V109.68C243.805 109.492 244.336 108.758 244.336 107.93C244.336 106.625 243.328 105.734 241.477 105.734C239.758 105.734 238.586 106.586 238.414 107.93H239.734C239.844 107.281 240.516 106.867 241.477 106.867C242.523 106.867 243.008 107.359 243.008 108.039C243.008 108.836 242.477 109.227 241.445 109.227H240.227V110.336H241.445C242.672 110.336 243.281 110.75 243.281 111.664C243.281 112.453 242.625 113.016 241.445 113.016C240.438 113.016 239.766 112.602 239.609 111.891H238.234C238.375 113.266 239.664 114.141 241.445 114.141ZM251.523 114H252.867V105.875H251.523V109.227H247.516V105.875H246.172V114H247.516V110.344H251.523V114ZM258.047 106.914C259.328 106.914 260.18 107.883 260.211 109.242H255.797C255.883 107.891 256.773 106.914 258.047 106.914ZM260.18 111.672C259.953 112.438 259.195 112.961 258.164 112.961C256.703 112.961 255.789 111.938 255.789 110.383V110.305H261.617V109.789C261.617 107.328 260.266 105.734 258.07 105.734C255.828 105.734 254.391 107.445 254.391 109.969C254.391 112.523 255.805 114.141 258.133 114.141C259.906 114.141 261.281 113.094 261.516 111.672H260.18ZM269.852 108.375C269.609 106.992 268.414 105.734 266.453 105.734C264.203 105.734 262.734 107.406 262.734 109.938C262.734 112.523 264.211 114.141 266.469 114.141C268.297 114.141 269.602 113.055 269.867 111.516H268.523C268.266 112.414 267.555 112.945 266.477 112.945C265.062 112.945 264.117 111.797 264.117 109.938C264.117 108.125 265.047 106.93 266.461 106.93C267.609 106.93 268.273 107.594 268.508 108.375H269.852ZM279.914 114H281.258V105.875H279.914V109.227H275.906V105.875H274.562V114H275.906V110.344H279.914V114ZM285.859 112.984C284.883 112.984 284.234 112.477 284.234 111.703C284.234 110.938 284.859 110.453 285.953 110.383L288.125 110.25V110.914C288.125 112.086 287.141 112.984 285.859 112.984ZM285.555 114.141C286.648 114.141 287.68 113.531 288.164 112.602H288.195V114H289.484V108.383C289.484 106.766 288.281 105.734 286.375 105.734C284.453 105.734 283.25 106.812 283.156 108.219H284.469C284.641 107.422 285.297 106.93 286.344 106.93C287.469 106.93 288.125 107.523 288.125 108.516V109.195L285.797 109.328C283.922 109.438 282.852 110.312 282.852 111.703C282.852 113.164 283.938 114.141 285.555 114.141ZM27.5 133H28.9766L24.8203 121.727H23.4297L19.2734 133H20.75L21.8828 129.773H26.3672L27.5 133ZM24.1016 123.438H24.1484L25.9531 128.578H22.2969L24.1016 123.438ZM31.5469 133V127.234H31.6016L34.2266 132.766H35.2656L37.8906 127.234H37.9453V133H39.2969V124.875H37.7109L34.8047 131.203H34.7422L31.8516 124.875H30.2031V133H31.5469ZM43.8906 131.984C42.9141 131.984 42.2656 131.477 42.2656 130.703C42.2656 129.938 42.8906 129.453 43.9844 129.383L46.1562 129.25V129.914C46.1562 131.086 45.1719 131.984 43.8906 131.984ZM43.5859 133.141C44.6797 133.141 45.7109 132.531 46.1953 131.602H46.2266V133H47.5156V127.383C47.5156 125.766 46.3125 124.734 44.4062 124.734C42.4844 124.734 41.2812 125.812 41.1875 127.219H42.5C42.6719 126.422 43.3281 125.93 44.375 125.93C45.5 125.93 46.1562 126.523 46.1562 127.516V128.195L43.8281 128.328C41.9531 128.438 40.8828 129.312 40.8828 130.703C40.8828 132.164 41.9688 133.141 43.5859 133.141ZM52.1016 133.141C54.0078 133.141 55.2734 132.117 55.2734 130.602C55.2734 129.664 54.7188 128.977 53.6484 128.742V128.68C54.4609 128.492 54.9922 127.758 54.9922 126.93C54.9922 125.625 53.9844 124.734 52.1328 124.734C50.4141 124.734 49.2422 125.586 49.0703 126.93H50.3906C50.5 126.281 51.1719 125.867 52.1328 125.867C53.1797 125.867 53.6641 126.359 53.6641 127.039C53.6641 127.836 53.1328 128.227 52.1016 128.227H50.8828V129.336H52.1016C53.3281 129.336 53.9375 129.75 53.9375 130.664C53.9375 131.453 53.2812 132.016 52.1016 132.016C51.0938 132.016 50.4219 131.602 50.2656 130.891H48.8906C49.0312 132.266 50.3203 133.141 52.1016 133.141ZM60.2031 133.141C62.4453 133.141 63.9609 131.523 63.9609 128.938C63.9609 126.344 62.4453 124.734 60.2031 124.734C57.9531 124.734 56.4375 126.344 56.4375 128.938C56.4375 131.523 57.9531 133.141 60.2031 133.141ZM60.2031 131.945C58.7656 131.945 57.8203 130.852 57.8203 128.938C57.8203 127.023 58.7656 125.93 60.2031 125.93C61.6406 125.93 62.5781 127.023 62.5781 128.938C62.5781 130.852 61.6406 131.945 60.2031 131.945ZM70.8203 133H72.1641V124.875H70.8203V128.227H66.8125V124.875H65.4688V133H66.8125V129.344H70.8203V133ZM74.9375 135.242L76.0078 131.266H74.5625L73.8047 135.242H74.9375ZM83.3281 131.984C82.3516 131.984 81.7031 131.477 81.7031 130.703C81.7031 129.938 82.3281 129.453 83.4219 129.383L85.5938 129.25V129.914C85.5938 131.086 84.6094 131.984 83.3281 131.984ZM83.0234 133.141C84.1172 133.141 85.1484 132.531 85.6328 131.602H85.6641V133H86.9531V127.383C86.9531 125.766 85.75 124.734 83.8438 124.734C81.9219 124.734 80.7188 125.812 80.625 127.219H81.9375C82.1094 126.422 82.7656 125.93 83.8125 125.93C84.9375 125.93 85.5938 126.523 85.5938 127.516V128.195L83.2656 128.328C81.3906 128.438 80.3203 129.312 80.3203 130.703C80.3203 132.164 81.4062 133.141 83.0234 133.141ZM93.4531 133L97.5156 126.953H97.5781V133H98.9219V124.875H97.5781L93.5156 130.922H93.4531V124.875H92.1094V133H93.4531ZM106.18 133H107.523V124.875H106.18V128.227H102.172V124.875H100.828V133H102.172V129.344H106.18V133ZM112.727 125.977C113.578 125.977 114.039 126.375 114.039 127.094C114.039 127.875 113.547 128.25 112.523 128.25H110.781V125.977H112.727ZM112.633 129.344C113.82 129.344 114.391 129.766 114.391 130.633C114.391 131.453 113.859 131.898 112.875 131.898H110.781V129.344H112.633ZM109.438 133H112.938C114.664 133 115.727 132.102 115.727 130.664C115.727 129.648 115.055 128.906 114.031 128.766V128.703C114.781 128.547 115.367 127.781 115.367 126.953C115.367 125.664 114.438 124.875 112.914 124.875H109.438V133ZM120.547 125.914C121.828 125.914 122.68 126.883 122.711 128.242H118.297C118.383 126.891 119.273 125.914 120.547 125.914ZM122.68 130.672C122.453 131.438 121.695 131.961 120.664 131.961C119.203 131.961 118.289 130.938 118.289 129.383V129.305H124.117V128.789C124.117 126.328 122.766 124.734 120.57 124.734C118.328 124.734 116.891 126.445 116.891 128.969C116.891 131.523 118.305 133.141 120.633 133.141C122.406 133.141 123.781 132.094 124.016 130.672H122.68ZM132.352 127.375C132.109 125.992 130.914 124.734 128.953 124.734C126.703 124.734 125.234 126.406 125.234 128.938C125.234 131.523 126.711 133.141 128.969 133.141C130.797 133.141 132.102 132.055 132.367 130.516H131.023C130.766 131.414 130.055 131.945 128.977 131.945C127.562 131.945 126.617 130.797 126.617 128.938C126.617 127.125 127.547 125.93 128.961 125.93C130.109 125.93 130.773 126.594 131.008 127.375H132.352ZM139.57 124.875H132.977V125.992H135.602V133H136.945V125.992H139.57V124.875ZM144.047 133.141C146.289 133.141 147.805 131.523 147.805 128.938C147.805 126.344 146.289 124.734 144.047 124.734C141.797 124.734 140.281 126.344 140.281 128.938C140.281 131.523 141.797 133.141 144.047 133.141ZM144.047 131.945C142.609 131.945 141.664 130.852 141.664 128.938C141.664 127.023 142.609 125.93 144.047 125.93C145.484 125.93 146.422 127.023 146.422 128.938C146.422 130.852 145.484 131.945 144.047 131.945ZM153.266 124.734C152.086 124.734 151.141 125.336 150.641 126.25H150.609V124.875H149.32V135.711H150.68V131.68H150.711C151.195 132.57 152.133 133.141 153.297 133.141C155.344 133.141 156.742 131.484 156.742 128.938C156.742 126.391 155.336 124.734 153.266 124.734ZM153 131.945C151.609 131.945 150.672 130.75 150.672 128.938C150.672 127.133 151.609 125.93 153 125.93C154.445 125.93 155.352 127.102 155.352 128.938C155.352 130.781 154.445 131.945 153 131.945ZM158.695 136.039C160.164 136.039 160.836 135.469 161.531 133.57L164.727 124.875H163.297L161.047 131.641H161.023L158.773 124.875H157.32L160.32 133.008L160.133 133.578C159.82 134.523 159.398 134.891 158.641 134.891C158.469 134.891 158.258 134.883 158.109 134.852V135.992C158.258 136.023 158.531 136.039 158.695 136.039ZM172.594 133.141C174.836 133.141 176.352 131.523 176.352 128.938C176.352 126.344 174.836 124.734 172.594 124.734C170.344 124.734 168.828 126.344 168.828 128.938C168.828 131.523 170.344 133.141 172.594 133.141ZM172.594 131.945C171.156 131.945 170.211 130.852 170.211 128.938C170.211 127.023 171.156 125.93 172.594 125.93C174.031 125.93 174.969 127.023 174.969 128.938C174.969 130.852 174.031 131.945 172.594 131.945ZM180.617 128.719L184.414 124.875H182.734L179.266 128.469H179.203V124.875H177.859V133H179.203V129.094H179.266L182.773 133H184.523L180.617 128.719ZM186.18 136.039C187.648 136.039 188.32 135.469 189.016 133.57L192.211 124.875H190.781L188.531 131.641H188.508L186.258 124.875H184.805L187.805 133.008L187.617 133.578C187.305 134.523 186.883 134.891 186.125 134.891C185.953 134.891 185.742 134.883 185.594 134.852V135.992C185.742 136.023 186.016 136.039 186.18 136.039ZM198.695 133H200.047V124.875H193.422V133H194.766V125.992H198.695V133ZM203.297 133L207.359 126.953H207.422V133H208.766V124.875H207.422L203.359 130.922H203.297V124.875H201.953V133H203.297ZM216.617 124.875H210.023V125.992H212.648V133H213.992V125.992H216.617V124.875ZM220.734 128.586C221.781 128.586 222.469 129.234 222.469 130.234C222.469 131.227 221.789 131.883 220.734 131.883H219.219V128.586H220.734ZM217.875 133H220.758C222.617 133 223.812 131.93 223.812 130.234C223.812 128.539 222.617 127.469 220.758 127.469H219.219V124.875H217.875V133ZM21.2969 153L25.3594 146.953H25.4219V153H26.7656V144.875H25.4219L21.3594 150.922H21.2969V144.875H19.9531V153H21.2969ZM34.0234 153H35.3672V144.875H34.0234V148.227H30.0156V144.875H28.6719V153H30.0156V149.344H34.0234V153ZM40.5703 145.977C41.4219 145.977 41.8828 146.375 41.8828 147.094C41.8828 147.875 41.3906 148.25 40.3672 148.25H38.625V145.977H40.5703ZM40.4766 149.344C41.6641 149.344 42.2344 149.766 42.2344 150.633C42.2344 151.453 41.7031 151.898 40.7188 151.898H38.625V149.344H40.4766ZM37.2812 153H40.7812C42.5078 153 43.5703 152.102 43.5703 150.664C43.5703 149.648 42.8984 148.906 41.875 148.766V148.703C42.625 148.547 43.2109 147.781 43.2109 146.953C43.2109 145.664 42.2812 144.875 40.7578 144.875H37.2812V153ZM48.3906 145.914C49.6719 145.914 50.5234 146.883 50.5547 148.242H46.1406C46.2266 146.891 47.1172 145.914 48.3906 145.914ZM50.5234 150.672C50.2969 151.438 49.5391 151.961 48.5078 151.961C47.0469 151.961 46.1328 150.938 46.1328 149.383V149.305H51.9609V148.789C51.9609 146.328 50.6094 144.734 48.4141 144.734C46.1719 144.734 44.7344 146.445 44.7344 148.969C44.7344 151.523 46.1484 153.141 48.4766 153.141C50.25 153.141 51.625 152.094 51.8594 150.672H50.5234ZM60.1953 147.375C59.9531 145.992 58.7578 144.734 56.7969 144.734C54.5469 144.734 53.0781 146.406 53.0781 148.938C53.0781 151.523 54.5547 153.141 56.8125 153.141C58.6406 153.141 59.9453 152.055 60.2109 150.516H58.8672C58.6094 151.414 57.8984 151.945 56.8203 151.945C55.4062 151.945 54.4609 150.797 54.4609 148.938C54.4609 147.125 55.3906 145.93 56.8047 145.93C57.9531 145.93 58.6172 146.594 58.8516 147.375H60.1953ZM67.4141 144.875H60.8203V145.992H63.4453V153H64.7891V145.992H67.4141V144.875ZM70.0156 153L74.0781 146.953H74.1406V153H75.4844V144.875H74.1406L70.0781 150.922H70.0156V144.875H68.6719V153H70.0156ZM85.2344 155.148V151.883H83.9375V144.875H82.5938V151.883H78.7344V144.875H77.3906V153H83.9688V155.148H85.2344ZM87.7969 153L91.8594 146.953H91.9219V153H93.2656V144.875H91.9219L87.8594 150.922H87.7969V144.875H86.4531V153H87.7969ZM96.5156 153L100.578 146.953H100.641V153H101.984V144.875H100.641L96.5781 150.922H96.5156V144.875H95.1719V153H96.5156ZM108.516 153L112.578 146.953H112.641V153H113.984V144.875H112.641L108.578 150.922H108.516V144.875H107.172V153H108.516ZM124.445 153H125.797V144.875H119.172V153H120.516V145.992H124.445V153ZM131.078 153.141C133.32 153.141 134.836 151.523 134.836 148.938C134.836 146.344 133.32 144.734 131.078 144.734C128.828 144.734 127.312 146.344 127.312 148.938C127.312 151.523 128.828 153.141 131.078 153.141ZM131.078 151.945C129.641 151.945 128.695 150.852 128.695 148.938C128.695 147.023 129.641 145.93 131.078 145.93C132.516 145.93 133.453 147.023 133.453 148.938C133.453 150.852 132.516 151.945 131.078 151.945ZM138.203 149.414L138.453 145.992H141.219V153H142.562V144.875H137.242L136.93 149.383C136.828 150.875 136.523 151.82 135.719 151.82C135.523 151.82 135.375 151.781 135.305 151.758V152.984C135.398 153.023 135.555 153.07 135.789 153.07C137.5 153.07 138.039 151.656 138.203 149.414ZM145.164 156.039C146.633 156.039 147.305 155.469 148 153.57L151.195 144.875H149.766L147.516 151.641H147.492L145.242 144.875H143.789L146.789 153.008L146.602 153.578C146.289 154.523 145.867 154.891 145.109 154.891C144.938 154.891 144.727 154.883 144.578 154.852V155.992C144.727 156.023 145 156.039 145.164 156.039ZM158.602 153V144.875H157.258V148.141C156.883 148.562 156.219 148.938 155.211 148.938C154.117 148.938 153.547 148.258 153.547 147.195V144.875H152.203V147.211C152.203 148.945 153.227 150.125 155.172 150.125C156.055 150.125 156.703 149.867 157.141 149.492H157.258V153H158.602ZM161.859 153L165.922 146.953H165.984V153H167.328V144.875H165.984L161.922 150.922H161.859V144.875H160.516V153H161.859ZM175.18 144.875H168.586V145.992H171.211V153H172.555V145.992H175.18V144.875ZM179.297 148.586C180.344 148.586 181.031 149.234 181.031 150.234C181.031 151.227 180.352 151.883 179.297 151.883H177.781V148.586H179.297ZM176.438 153H179.32C181.18 153 182.375 151.93 182.375 150.234C182.375 148.539 181.18 147.469 179.32 147.469H177.781V144.875H176.438V153ZM192.414 153H193.766V144.875H187.141V153H188.484V145.992H192.414V153ZM199.625 144.734C198.445 144.734 197.5 145.336 197 146.25H196.969V144.875H195.68V155.711H197.039V151.68H197.07C197.555 152.57 198.492 153.141 199.656 153.141C201.703 153.141 203.102 151.484 203.102 148.938C203.102 146.391 201.695 144.734 199.625 144.734ZM199.359 151.945C197.969 151.945 197.031 150.75 197.031 148.938C197.031 147.133 197.969 145.93 199.359 145.93C200.805 145.93 201.711 147.102 201.711 148.938C201.711 150.781 200.805 151.945 199.359 151.945ZM205.953 153L210.016 146.953H210.078V153H211.422V144.875H210.078L206.016 150.922H205.953V144.875H204.609V153H205.953ZM216.812 153.141C219.164 153.141 220.609 151.57 220.609 149.016C220.609 146.594 219.211 145.047 217.016 145.047C215.766 145.047 214.75 145.547 214.219 146.508H214.156C214.484 144.078 215.156 143.086 217.414 143L218.016 142.977C218.953 142.938 219.812 142.734 220.07 142.5V141.312C219.609 141.555 218.734 141.711 217.953 141.75L217.352 141.773C214.195 141.891 213.008 143.758 213.008 148.242C213.008 151.469 214.32 153.141 216.812 153.141ZM216.812 151.938C215.281 151.938 214.398 150.883 214.398 149.016C214.398 147.242 215.281 146.234 216.812 146.234C218.336 146.234 219.219 147.242 219.219 149.016C219.219 150.883 218.336 151.938 216.812 151.938ZM229.078 153H230.422V144.875H229.078V153ZM224.984 148.586C226.031 148.586 226.719 149.234 226.719 150.234C226.719 151.227 226.039 151.883 224.984 151.883H223.469V148.586H224.984ZM222.125 153H225.008C226.867 153 228.062 151.93 228.062 150.234C228.062 148.539 226.867 147.469 225.008 147.469H223.469V144.875H222.125V153ZM234.5 149.414L234.75 145.992H237.516V153H238.859V144.875H233.539L233.227 149.383C233.125 150.875 232.82 151.82 232.016 151.82C231.82 151.82 231.672 151.781 231.602 151.758V152.984C231.695 153.023 231.852 153.07 232.086 153.07C233.797 153.07 234.336 151.656 234.5 149.414ZM243.641 148.586C244.688 148.586 245.375 149.234 245.375 150.234C245.375 151.227 244.695 151.883 243.641 151.883H242.125V148.586H243.641ZM240.781 153H243.664C245.523 153 246.719 151.93 246.719 150.234C246.719 148.539 245.523 147.469 243.664 147.469H242.125V144.875H240.781V153Z" fill="#222A33"/>
<path d="M27.12 179.128C27.635 179.383 27.7626 179.764 27.5051 180.275C25.4425 184.488 24.5572 188.525 24.849 192.387C25.1384 196.248 26.2175 199.728 28.0863 202.824C29.9551 205.917 32.5302 208.678 35.8162 211.105C40.324 214.362 45.5107 216.61 51.3723 217.856C57.2337 219.101 62.9333 219.055 68.4734 217.713C67.4409 217.392 64.2551 215.99 58.9064 213.499C58.3913 213.31 58.2466 212.94 58.4723 212.398C58.6979 211.854 59.1001 211.713 59.6789 211.968C60.1939 212.16 61.1112 212.573 62.4331 213.213C63.7525 213.849 64.7531 214.313 65.4276 214.6C66.1044 214.887 66.9751 215.237 68.037 215.655C69.1014 216.068 70.0824 216.403 70.9849 216.658C71.3062 216.722 71.5318 216.914 71.6618 217.232C71.7893 217.295 71.8874 217.424 71.9512 217.616C72.0812 218.061 71.9512 218.413 71.5661 218.668L71.3724 218.858C69.1823 220.775 67.5073 222.464 66.3472 223.932C65.1871 225.4 64.3509 227.188 63.8358 229.295C63.7059 229.869 63.3527 230.092 62.7739 229.966C62.1951 229.837 61.967 229.487 62.097 228.911C62.9333 225.528 64.8022 222.464 67.701 219.721C62.1608 220.87 56.4269 220.79 50.5013 219.48C44.576 218.175 39.3276 215.83 34.7538 212.447C31.2761 209.959 28.5367 207.052 26.5404 203.735C24.544 200.415 23.384 196.68 23.0602 192.532C22.739 188.384 23.7028 184.043 25.9591 179.511C26.2166 179.001 26.6041 178.872 27.1192 179.127L27.12 179.128Z" fill="black"/>
<path d="M70.6698 44.2808C69.9365 47.5083 67.8394 50.213 64.3785 52.395C60.9177 54.5769 56.0593 56.5055 49.8035 58.1806C43.5439 59.8579 38.3696 60.6176 34.2807 60.4597C30.1918 60.3018 27.0081 58.9595 24.7297 56.4329C22.4561 53.9083 20.8697 51.5644 19.9702 49.4012C19.0707 47.2379 18.0206 43.9135 16.8197 39.4279C15.6184 34.9446 14.8658 31.541 14.5619 29.2171C14.2579 26.8933 14.4364 24.1798 15.0972 21.0767C16.4666 15.0657 23.5103 10.3563 36.2281 6.94851C48.7485 3.5937 57.0051 4.20342 60.9979 8.77767C63.3695 11.2815 65.0061 13.6125 65.9075 15.7709C66.809 17.9292 67.8592 21.2536 69.058 25.7441C70.2606 30.2325 71.0133 33.6361 71.3158 35.9549C71.6184 38.2737 71.4031 41.049 70.6698 44.2808Z" fill="#FACAC4"/>
<path d="M35.7012 39.3125C39.2461 39.3125 41.3945 36.4707 41.3945 31.9199C41.3945 27.3691 39.2266 24.5859 35.7012 24.5859C32.1758 24.5859 29.998 27.3789 29.998 31.9297C29.998 36.4902 32.1562 39.3125 35.7012 39.3125ZM35.7012 36.9492C34.0215 36.9492 32.9961 35.1328 32.9961 31.9297C32.9961 28.7559 34.041 26.9492 35.7012 26.9492C37.3711 26.9492 38.3965 28.7461 38.3965 31.9297C38.3965 35.1426 37.3809 36.9492 35.7012 36.9492ZM46.6387 32.8477H48.377C49.9688 32.8477 50.9355 33.6289 50.9355 34.918C50.9355 36.1094 49.9004 36.9395 48.4258 36.9395C46.873 36.9395 45.8965 36.1582 45.8086 34.9668H42.9863C43.123 37.5645 45.2031 39.3125 48.3867 39.3125C51.6387 39.3125 53.9336 37.6328 53.9336 35.1035C53.9336 33.1504 52.5762 31.8809 50.4766 31.7051V31.6465C52.2051 31.334 53.3867 30.084 53.3867 28.3555C53.3867 26.0996 51.3848 24.5957 48.4551 24.5957C45.3984 24.5957 43.3672 26.2949 43.2598 28.9023H45.9746C46.0527 27.6719 46.9609 26.8613 48.3281 26.8613C49.793 26.8613 50.6035 27.6133 50.6035 28.7559C50.6035 29.918 49.6953 30.7188 48.3477 30.7188H46.6387V32.8477Z" fill="#FF4F45"/>
<path d="M36 278.143L56.0015 266L73.6356 298.386L55.4861 309.739L36 278.143Z" fill="#222A33"/>
<path d="M39.269 278.9L54.9707 269.221L65.1325 288.417L68.4177 294.633L54.4231 303.426L39.269 278.9Z" fill="#494949"/>
<path opacity="0.25" d="M65.1325 288.417L39.269 278.9L54.9707 269.221L65.1325 288.417Z" fill="white"/>
<path d="M64.4079 300.866C64.4442 301.286 64.3249 301.706 64.0726 302.044C63.8203 302.382 63.4525 302.616 63.0391 302.702C62.845 302.754 62.6422 302.764 62.4438 302.733C62.2453 302.702 62.0556 302.629 61.8871 302.52C61.7185 302.411 61.5748 302.267 61.4654 302.099C61.3559 301.93 61.283 301.74 61.2515 301.542C61.2073 301.122 61.3215 300.701 61.5718 300.362C61.8221 300.022 62.1904 299.788 62.6043 299.706C62.7993 299.654 63.003 299.643 63.2025 299.674C63.4019 299.706 63.5926 299.778 63.7624 299.887C63.9322 299.996 64.0774 300.14 64.1885 300.308C64.2997 300.477 64.3744 300.667 64.4079 300.866Z" fill="#494949"/>
<defs>
<filter id="filter0_d" x="-187" y="45" width="779.344" height="779.898" filterUnits="userSpaceOnUse" color-interpolation-filters="sRGB">
<feFlood flood-opacity="0" result="BackgroundImageFix"/>
<feColorMatrix in="SourceAlpha" type="matrix" values="0 0 0 0 0 0 0 0 0 0 0 0 0 0 0 0 0 0 127 0"/>
<feOffset dy="94"/>
<feGaussianBlur stdDeviation="57"/>
<feColorMatrix type="matrix" values="0 0 0 0 0 0 0 0 0 0 0 0 0 0 0 0 0 0 0.1 0"/>
<feBlend mode="normal" in2="BackgroundImageFix" result="effect1_dropShadow"/>
<feBlend mode="normal" in="SourceGraphic" in2="effect1_dropShadow" result="shape"/>
</filter>
<linearGradient id="paint0_linear" x1="155.47" y1="403.772" x2="155.363" y2="401.807" gradientUnits="userSpaceOnUse">
<stop stop-color="#278DCC"/>
<stop offset="1" stop-color="#93BFE4"/>
</linearGradient>
<linearGradient id="paint1_linear" x1="155.337" y1="402.796" x2="157.264" y2="402.691" gradientUnits="userSpaceOnUse">
<stop stop-color="#F46A4F"/>
<stop offset="0.41" stop-color="#F78154"/>
<stop offset="1" stop-color="#FDA95D"/>
</linearGradient>
<linearGradient id="paint2_linear" x1="155.356" y1="403.156" x2="156.399" y2="403.099" gradientUnits="userSpaceOnUse">
<stop stop-color="#2B5A3F"/>
<stop offset="0.63" stop-color="#2B4337"/>
<stop offset="1" stop-color="#2B3431"/>
</linearGradient>
</defs>
</svg>
