<svg width="151" height="149" viewBox="0 0 151 149" fill="none" xmlns="http://www.w3.org/2000/svg">
<path d="M138.255 100.908C136.584 108.262 131.805 114.426 123.919 119.398C116.032 124.37 104.961 128.765 90.705 132.583C76.4404 136.405 64.6492 138.136 55.3313 137.776C46.0134 137.416 38.7583 134.358 33.5662 128.6C28.3853 122.847 24.77 117.505 22.7202 112.576C20.6705 107.646 18.2774 100.071 15.5409 89.8487C12.8034 79.632 11.0883 71.8758 10.3957 66.5801C9.70309 61.2845 10.1097 55.101 11.6155 48.0297C14.7362 34.3316 30.7874 23.5997 59.7691 15.834C88.3007 8.18903 107.116 9.57848 116.215 20.0024C121.619 25.708 125.349 31.0201 127.403 35.9385C129.457 40.857 131.851 48.4327 134.582 58.6657C137.323 68.8939 139.038 76.6501 139.728 81.9343C140.417 87.2184 139.926 93.5428 138.255 100.908Z" fill="white"/>
<path d="M113.727 73.4341L103.379 67.4971L113.727 61.5593C114.329 61.2138 114.69 60.563 114.662 59.8693C114.635 59.1765 114.224 58.5554 113.599 58.2572L97.1272 50.4378C96.1974 49.9969 95.0838 50.3932 94.6438 51.323C94.2012 52.2538 94.5974 53.3647 95.5282 53.8073L108.78 60.0976L99.587 65.3724L92.142 61.5069C91.2297 61.031 90.103 61.3888 89.6289 62.302C89.1539 63.2161 89.5099 64.3419 90.4231 64.816L95.5255 67.4656L75.332 77.562L55.1515 67.4726L59.974 64.9857C60.8898 64.5134 61.2485 63.3893 60.777 62.4743C60.3046 61.5593 59.1815 61.1989 58.2656 61.6722L51.0804 65.375L41.7801 60.0373L56.0096 52.7856C56.9272 52.3185 57.292 51.1953 56.824 50.2777C56.356 49.3592 55.2346 48.9962 54.3161 49.4624L37.0179 58.2782C36.4082 58.5887 36.0172 59.208 36.0006 59.8938C35.9831 60.5779 36.3435 61.2164 36.9357 61.5567L47.2875 67.4971L36.9366 73.4376C36.3409 73.7796 35.9814 74.4225 36.0015 75.1083C36.0216 75.795 36.5106 76.4152 37.1264 76.7222L49.3572 82.7904V94.7814C49.3572 95.4882 49.6624 96.1329 50.2931 96.4487L74.5447 108.598C74.808 108.729 75.0695 108.795 75.3547 108.795C75.6337 108.795 75.8935 108.717 76.1507 108.592C76.1595 108.591 76.1621 108.603 76.1708 108.599L100.205 96.4496C100.836 96.1329 100.967 95.4882 100.967 94.7814V82.786L113.368 76.7179C113.983 76.4108 114.512 75.7906 114.53 75.104C114.549 74.4173 114.323 73.7761 113.727 73.4341ZM51.0944 69.6123L71.3886 79.7602L62.1049 85.0901L41.8081 74.9421L51.0944 69.6123ZM52.8562 84.6545L61.3106 88.8708C61.5739 89.0028 61.8704 89.0684 62.1556 89.0684C62.4758 89.0684 62.9927 88.9853 63.2797 88.8209L73.8501 82.8665V103.914L52.8562 93.6294V84.6545ZM97.4684 93.6294L77.3491 103.914V82.8656L87.6458 88.8174C87.9327 88.9818 88.2153 89.0649 88.5363 89.0649C88.8206 89.0649 88.9369 89.0002 89.2011 88.8673L97.4684 84.6501V93.6294ZM88.5582 85.0857L79.2753 79.7585L90.4021 74.1968L99.5721 69.6123L108.855 74.9395L88.5582 85.0857Z" fill="#278DCC"/>
<path d="M75.3303 64.4233C84.5458 64.4233 92.0424 56.9267 92.0424 47.7121C92.0424 38.4975 84.5458 31 75.3303 31C66.1175 31 58.6208 38.4966 58.6208 47.7112C58.6208 56.9258 66.1175 64.4233 75.3303 64.4233ZM75.3303 34.7291C82.4893 34.7291 88.3125 40.5531 88.3125 47.7121C88.3125 54.871 82.4893 60.6951 75.3303 60.6951C68.1731 60.6951 62.3517 54.871 62.3517 47.7121C62.3517 40.5531 68.1731 34.7291 75.3303 34.7291Z" fill="#FF4F45"/>
<path d="M73.8501 57.2122V58.5645H77.3491V57.1649C79.9733 56.7949 81.7228 54.8285 81.7228 52.4579V50.474C81.7228 48.595 80.4938 47.0729 78.5737 46.4038C78.4722 46.3679 78.3262 46.3417 78.2203 46.3242L73.131 45.494C72.9683 45.4512 72.9517 45.4127 72.9526 45.4136C72.9429 45.3847 72.9753 45.285 72.9753 45.047V43.0718C72.9753 42.4945 73.3934 41.9443 74.081 41.9443H76.5828C77.2703 41.9443 78.2238 42.4945 78.2238 43.0718V43.6938H81.7228V43.0718C81.7228 40.7022 79.9733 38.7357 77.3491 38.3657V36.6958H73.8501V38.3176C71.2258 38.524 69.4763 40.5753 69.4763 43.0718V45.047C69.4763 47.9433 71.2932 48.8522 72.4872 49.1365C72.5301 49.147 72.4811 49.1549 72.5239 49.1618L77.636 49.9745C78.0716 50.1556 78.2238 50.3375 78.2238 50.474V52.4579C78.2238 53.0344 77.2703 53.316 76.5854 53.316H74.0871C73.4066 53.316 72.9753 53.0247 72.9753 52.4579V51.5665H69.4763V52.4579C69.4763 54.9527 71.2258 57.0031 73.8501 57.2122Z" fill="#FF4F45"/>
</svg>
