<svg width="320" height="519" viewBox="0 0 320 519" fill="none" xmlns="http://www.w3.org/2000/svg">
<path d="M113.378 453.111C96.253 450.358 81.5132 440.392 69.158 423.213C56.8029 406.033 45.3951 381.553 34.9346 349.772C24.4793 317.988 19.1237 291.515 18.8678 270.354C18.6118 249.192 24.81 232.338 37.4625 219.792C50.1078 207.246 61.9827 198.309 73.087 192.98C84.1766 187.652 101.333 181.17 124.558 173.533C147.758 165.902 165.411 160.933 177.517 158.626C189.603 156.329 203.878 156.386 220.343 158.796C252.226 163.948 278.79 198.815 300.034 263.397C320.947 326.965 319.939 369.787 297.011 391.863C284.531 404.906 272.739 414.097 261.633 419.438C250.522 424.766 233.367 431.248 210.166 438.884C186.942 446.524 169.288 451.493 157.207 453.791C145.099 456.098 130.489 455.871 113.378 453.111Z" fill="white"/>
<path d="M174.416 296.152L183.033 288.438L184.429 283.291H191.1L197.672 293.755L213.664 319.266L226.751 415.164L165.391 412.485L176.729 311.834L176.334 298.987L174.416 296.152Z" fill="#E6E6E6"/>
<path d="M294.063 363.083C294.162 364.296 296.15 376.297 297.772 376.481C299.888 376.678 297.772 369.768 297.603 368.485C298.559 369.671 299.713 370.683 301.016 371.474C302.13 372.236 305.994 375.226 306.798 374.295C307.602 373.364 305.091 371.164 303.159 369.387C302.553 368.837 301.241 367.653 300.706 367.088C302.906 368.738 308.659 372.49 309.35 370.755C310.042 369.02 303.315 365.368 301.354 364.451C303.991 365.453 310.888 369.331 311.508 367.201C311.818 366.059 304.852 363.337 303.343 362.519C304.598 362.519 310.394 364.31 310.733 362.519C311.142 359.868 302.271 359.882 300.663 359.854C299.056 359.826 293.682 360.263 294.063 363.788" fill="#FFC1B5"/>
<path d="M288.267 360.629L294.374 366.313L301.636 358.486L293.711 351.533L288.267 360.629Z" fill="white"/>
<path d="M296.39 356.399C296.226 356.273 296.021 356.213 295.815 356.23C295.608 356.248 295.416 356.341 295.275 356.493C295.134 356.644 295.055 356.843 295.053 357.049C295.05 357.256 295.125 357.457 295.262 357.611C295.426 357.737 295.632 357.797 295.838 357.78C296.044 357.762 296.236 357.669 296.377 357.517C296.518 357.366 296.597 357.167 296.6 356.961C296.602 356.754 296.528 356.553 296.39 356.399Z" fill="#494949"/>
<path d="M68.3504 373.745C67.2363 372.885 55.5734 365.283 54.1491 366.468C52.3439 368.104 59.7901 371.658 61.0312 372.532C59.2909 372.418 57.5442 372.609 55.8696 373.096C54.3606 373.435 48.8183 374.379 48.9734 375.776C49.1285 377.172 52.9645 376.763 56.0247 376.509C56.9555 376.424 58.9722 376.241 59.8607 376.213C56.7722 376.805 49.1426 378.737 50.0593 380.669C50.976 382.601 59.2965 379.767 61.5812 378.822C58.6901 380.232 50.0593 383.053 51.385 385.253C52.0901 386.395 59.8465 382.629 61.6658 381.981C60.6363 383.01 54.685 386.55 56.0247 388.27C57.9427 390.668 64.8389 383.151 66.094 381.84C67.3492 380.528 71.171 375.635 67.8992 373.223" fill="#FFC1B5"/>
<path d="M65.7979 372.56L79.562 367.822L80.0274 378.794L67.3773 380.415L65.7979 372.56Z" fill="#FFC1B5"/>
<path d="M74.5275 381.149L70.1134 381.797L67.8711 370.473L74.7532 369.133L74.5275 381.149Z" fill="white"/>
<path d="M193.427 279.624C193.427 279.624 225.99 281.175 296.94 353.042L288.267 362.914C288.267 362.914 265.59 340.815 220.73 318.054C189.478 302.146 193.427 279.624 193.427 279.624Z" fill="#494949"/>
<path fill-rule="evenodd" clip-rule="evenodd" d="M163.329 452.101L163.966 405.56L164.136 403.219L226.751 401.457C227.044 413.661 227.014 424.402 226.779 433.77C218.918 436.362 208.467 439.61 197.965 442.713C194.301 430.736 191.1 422.878 191.1 422.878C189.123 428.479 187.125 437.152 185.321 446.366C176.788 448.771 168.951 450.842 163.329 452.101Z" fill="#333333"/>
<path d="M220.73 317.997C227.659 347.637 230.314 378.116 228.613 408.508C228.613 408.508 196.177 416.702 193.836 379.358C191.495 342.014 193.427 279.624 193.427 279.624L220.73 317.997Z" fill="#494949"/>
<path d="M185.642 291.371L186.023 376.861L192.806 374.563L187.659 291.371L187.066 290.257L185.642 291.371Z" fill="#DF8A44"/>
<path d="M164.954 294.53C164.954 294.53 136.481 358.091 71.5378 368.767L74.4712 382.503C74.4712 382.503 139.343 371.982 163.318 336.895L161.908 408.325C161.908 408.325 191.269 411.484 191.904 391.5C192.539 371.517 176.744 287.578 176.744 287.578L164.954 294.53Z" fill="#494949"/>
<path d="M177.449 282.162L187.137 348.275L169.41 310.593L175.206 305.291L167.027 293.402L177.449 282.162Z" fill="#222A33"/>
<path d="M193.427 279.624L192.806 347.486L204.23 311.101L196.459 301.003L203.031 290.116L193.427 279.624Z" fill="#222A33"/>
<path d="M183.033 288.438L185.642 291.371H187.659L191.1 286.323L187.067 282.162L183.033 288.438Z" fill="#DF8A44"/>
<path d="M193.427 279.624C193.427 279.624 194.682 295.264 192.834 296.547C190.987 297.83 185.995 283.855 185.995 283.855C185.995 283.855 181.764 296.801 179.733 297.224C177.702 297.647 177.448 280.865 177.448 280.865L193.427 279.624Z" fill="white"/>
<path d="M191.1 259.006C191.1 259.006 190.846 275.844 193.427 279.624C191.828 280.9 189.921 281.732 187.897 282.034C185.874 282.336 183.807 282.098 181.905 281.344L185.854 268.454L191.1 259.006Z" fill="#F9CBC2"/>
<path d="M70.3106 373.322C70.5109 373.296 70.6947 373.197 70.8279 373.046C70.9611 372.894 71.0346 372.699 71.0346 372.497C71.0346 372.295 70.9611 372.1 70.8279 371.948C70.6947 371.796 70.5109 371.698 70.3106 371.672C70.1104 371.698 69.9265 371.796 69.7933 371.948C69.6601 372.1 69.5867 372.295 69.5867 372.497C69.5867 372.699 69.6601 372.894 69.7933 373.046C69.9265 373.197 70.1104 373.296 70.3106 373.322Z" fill="#494949"/>
<path d="M184.669 195.036C184.669 195.036 200.788 195.248 199.068 231.703C199.068 231.703 198.842 246.694 190.381 248.922L193.06 234.904L189.126 219.406L179.733 203.977L184.669 195.036Z" fill="#DF8A44"/>
<path d="M191.89 235.609C191.89 235.609 201.846 228.459 204.695 233.748C207.544 239.036 192.468 240.108 192.468 240.108L191.89 235.609Z" fill="#F9CBC2"/>
<path d="M138.892 254.465C138.892 254.465 135.479 225.103 140.302 208.434L165.391 199.38L183.809 205.472L193.427 221.916L191.114 229.164L191.847 241.138L187.419 264.379L161.555 269.413L143.024 259.979L138.892 254.465Z" fill="#F9CBC2"/>
<path d="M138.737 252.899C138.737 252.899 138.511 259.527 150.273 252.222C162.034 244.917 165.631 259.274 180.311 254.465C194.992 249.656 189.238 227.768 189.238 227.768H192.13C192.13 227.768 201.282 273.475 170.722 296.166C140.161 318.857 138.737 252.899 138.737 252.899Z" fill="#DF8A44"/>
<path d="M168.409 235.891C168.534 236.101 168.616 236.332 168.651 236.573C168.686 236.814 168.673 237.06 168.612 237.296C168.552 237.532 168.446 237.753 168.299 237.948C168.153 238.143 167.97 238.306 167.76 238.43C166.872 238.98 166.195 238.43 165.659 237.584C165.53 237.381 165.444 237.154 165.404 236.917C165.364 236.68 165.372 236.438 165.427 236.204C165.483 235.97 165.584 235.75 165.725 235.556C165.867 235.362 166.045 235.198 166.251 235.074C167.14 234.538 167.887 235.031 168.409 235.891Z" fill="#333333"/>
<path d="M150.357 236.808C150.237 237.019 150.077 237.205 149.885 237.354C149.693 237.504 149.473 237.613 149.239 237.678C149.004 237.742 148.759 237.759 148.518 237.728C148.277 237.698 148.044 237.62 147.833 237.499C146.93 236.991 147.057 236.089 147.551 235.243C147.664 235.032 147.819 234.846 148.005 234.696C148.191 234.546 148.406 234.435 148.636 234.369C148.866 234.303 149.107 234.285 149.345 234.313C149.582 234.342 149.811 234.419 150.019 234.538C150.921 235.045 150.851 235.934 150.357 236.808Z" fill="#333333"/>
<path d="M176.673 245.411C176.419 246.469 174.416 246.906 172.202 246.356C169.988 245.806 168.423 244.508 168.691 243.436C168.959 242.365 171.948 242.181 174.163 242.731C176.377 243.281 176.941 244.339 176.673 245.411Z" fill="#E89F91"/>
<path d="M141.755 245.566C141.656 244.466 143.419 243.408 145.675 243.211C147.932 243.013 149.906 243.732 149.906 244.832C149.906 245.933 147.212 247.075 144.956 247.272C142.7 247.47 141.853 246.68 141.755 245.566Z" fill="#E89F91"/>
<path d="M167.943 228.614C169.025 229.145 170.153 229.575 171.314 229.898C172.428 230.208 173.697 230.829 174.727 230.025C175.019 229.829 175.227 229.53 175.311 229.189C175.394 228.847 175.347 228.486 175.178 228.177C174.642 226.979 173.232 226.95 172.104 226.767C170.925 226.517 169.726 226.37 168.522 226.33C168.25 226.341 167.989 226.439 167.778 226.611C167.567 226.783 167.418 227.019 167.353 227.283C167.287 227.547 167.31 227.825 167.416 228.076C167.523 228.326 167.708 228.535 167.943 228.671V228.614Z" fill="#DF8A44"/>
<path d="M148.905 226.584C147.574 226.639 146.267 226.95 145.055 227.5C144.72 227.644 144.448 227.901 144.285 228.226C144.122 228.551 144.08 228.924 144.166 229.277C144.253 229.631 144.466 229.94 144.764 230.148C145.063 230.355 145.427 230.447 145.788 230.406C147.199 230.061 148.527 229.437 149.694 228.572C149.885 228.424 150.022 228.218 150.085 227.986C150.149 227.753 150.135 227.506 150.046 227.282C149.957 227.057 149.797 226.868 149.592 226.742C149.386 226.617 149.145 226.561 148.905 226.584Z" fill="#DF8A44"/>
<path d="M158.819 234.298L157.691 249.303C157.691 249.303 156.281 252.547 154.01 251.968C151.74 251.39 155.759 238.134 158.819 234.298Z" fill="#F9CBC2"/>
<path d="M159.665 231.83C157.502 235.467 155.616 239.262 154.024 243.183C153.22 245.354 151.669 249.472 153.051 251.813C154.433 254.154 157.747 251.136 158.692 249.388C158.847 249.077 158.495 248.668 158.184 248.894C157.324 249.529 156.534 250.671 155.575 251.094C152.755 252.321 153.911 247.343 154.391 245.636C155.885 240.955 157.87 236.446 160.314 232.182C160.345 232.1 160.346 232.009 160.316 231.926C160.286 231.843 160.227 231.774 160.149 231.731C160.072 231.688 159.982 231.674 159.896 231.693C159.809 231.711 159.732 231.76 159.679 231.83H159.665Z" fill="#BC6C6C"/>
<path d="M156.153 256.27C156.515 256.68 156.971 256.995 157.483 257.187C157.994 257.378 158.545 257.441 159.087 257.37C159.975 257.285 161.188 256.89 161.484 255.96C161.496 255.919 161.496 255.875 161.486 255.834C161.475 255.792 161.453 255.755 161.423 255.725C161.393 255.694 161.355 255.673 161.314 255.662C161.273 255.651 161.229 255.652 161.188 255.663C160.511 256.061 159.786 256.369 159.03 256.58C158.121 256.652 157.214 256.408 156.464 255.889C156.21 255.72 155.97 256.072 156.153 256.284V256.27Z" fill="#333333"/>
<path d="M189.238 227.768C189.238 227.768 188.505 221.295 184.641 221.013C181.383 220.773 174.332 220.745 173.359 212.693C172.386 204.64 143.743 215.217 135.409 212.961C127.074 210.704 121.546 197.603 134.295 192.751C147.043 187.9 140.641 180.003 157.564 182.174C174.487 184.346 170.581 193.922 183.767 194.867C184.055 194.889 184.342 194.926 184.627 194.98C196.783 197.264 195.006 226.457 193.385 227.712C191.763 228.967 189.238 227.768 189.238 227.768Z" fill="#DF8A44"/>
<path d="M164.333 255.945C164.333 256.594 164.248 257.553 164.672 258.089C164.707 258.121 164.749 258.145 164.794 258.159C164.84 258.173 164.888 258.176 164.935 258.17C164.982 258.163 165.027 258.146 165.067 258.12C165.107 258.094 165.14 258.059 165.165 258.019C165.433 257.398 165.066 256.495 164.925 255.861C164.898 255.799 164.851 255.747 164.792 255.714C164.733 255.681 164.664 255.668 164.597 255.677C164.53 255.687 164.467 255.718 164.42 255.767C164.372 255.815 164.342 255.878 164.333 255.945Z" fill="#AA6D44"/>
<path d="M151.838 254.789C151.777 255.383 151.673 255.973 151.528 256.552C151.528 256.806 151.824 256.876 151.979 256.749C152.206 256.476 152.373 256.157 152.468 255.814C152.563 255.471 152.584 255.112 152.529 254.761C152.529 254.324 151.824 254.31 151.838 254.761V254.789Z" fill="#AA6D44"/>
<path d="M147.861 257.201C147.946 257.538 147.946 257.892 147.861 258.23C147.757 258.496 147.673 258.77 147.607 259.048C147.606 259.098 147.617 259.148 147.641 259.192C147.665 259.237 147.701 259.274 147.744 259.3C147.787 259.325 147.837 259.339 147.887 259.34C147.937 259.34 147.987 259.327 148.03 259.302C148.736 258.865 148.707 257.708 148.496 257.031C148.465 256.959 148.41 256.9 148.339 256.865C148.268 256.831 148.187 256.823 148.111 256.844C148.035 256.865 147.97 256.912 147.926 256.978C147.883 257.043 147.865 257.123 147.875 257.201H147.861Z" fill="#AA6D44"/>
<path d="M143.461 259.189C143.348 259.683 143.235 260.176 143.165 260.684C143.045 261.055 143.045 261.455 143.165 261.826C143.185 261.852 143.21 261.874 143.24 261.888C143.269 261.903 143.301 261.911 143.334 261.911C143.367 261.911 143.399 261.903 143.429 261.888C143.458 261.874 143.484 261.852 143.503 261.826C143.73 261.51 143.849 261.129 143.842 260.74C143.842 260.233 143.969 259.739 144.011 259.231C144.003 259.167 143.974 259.107 143.929 259.061C143.884 259.015 143.825 258.985 143.761 258.975C143.697 258.965 143.632 258.977 143.575 259.008C143.519 259.039 143.473 259.088 143.447 259.147L143.461 259.189Z" fill="#AA6D44"/>
<path d="M147.861 262.969C147.946 263.378 147.946 263.8 147.861 264.21C147.742 264.526 147.671 264.859 147.65 265.197C147.652 265.235 147.664 265.273 147.684 265.305C147.705 265.338 147.734 265.365 147.768 265.383C147.801 265.402 147.84 265.411 147.878 265.411C147.917 265.41 147.955 265.4 147.988 265.38C148.778 264.929 148.693 263.533 148.524 262.785C148.425 262.376 147.819 262.56 147.889 262.969H147.861Z" fill="#AA6D44"/>
<path d="M153.333 261.502C153.15 262.181 153.15 262.896 153.333 263.575C153.35 263.625 153.383 263.668 153.426 263.698C153.469 263.729 153.52 263.745 153.573 263.745C153.625 263.745 153.677 263.729 153.72 263.698C153.763 263.668 153.795 263.625 153.812 263.575C153.934 262.947 154.005 262.31 154.024 261.671C154.024 261.262 153.474 261.093 153.389 261.502H153.333Z" fill="#AA6D44"/>
<path d="M145.859 271.162L146.112 272.671C146.197 273.066 146.197 273.475 146.564 273.715C146.619 273.743 146.682 273.749 146.742 273.734C146.802 273.718 146.854 273.681 146.888 273.63C147.128 273.278 146.888 272.855 146.888 272.474C146.888 272.093 146.648 271.487 146.507 270.993C146.366 270.499 145.845 270.767 145.901 271.162H145.859Z" fill="#AA6D44"/>
<path d="M151.161 269.244C151.298 269.618 151.393 270.006 151.443 270.401C151.433 270.742 151.466 271.083 151.542 271.416C151.556 271.475 151.589 271.527 151.636 271.565C151.684 271.602 151.742 271.623 151.803 271.623C151.863 271.623 151.922 271.602 151.969 271.565C152.017 271.527 152.05 271.475 152.064 271.416C152.215 270.599 152.059 269.756 151.627 269.047C151.597 268.991 151.547 268.948 151.487 268.927C151.428 268.906 151.362 268.909 151.304 268.933C151.246 268.958 151.199 269.004 151.172 269.061C151.146 269.119 151.142 269.184 151.161 269.244Z" fill="#AA6D44"/>
<path d="M147.269 280.132C147.384 280.492 147.479 280.86 147.551 281.232C147.558 281.57 147.64 281.902 147.791 282.205C147.875 282.317 148.073 282.36 148.143 282.205C148.454 281.612 148.045 280.569 147.861 279.976C147.734 279.596 147.142 279.751 147.269 280.132Z" fill="#AA6D44"/>
<path d="M151.344 277.452C151.478 277.857 151.577 278.272 151.641 278.693C151.634 279.045 151.727 279.392 151.909 279.694C151.93 279.721 151.957 279.742 151.987 279.757C152.018 279.772 152.051 279.779 152.085 279.779C152.119 279.779 152.152 279.772 152.183 279.757C152.213 279.742 152.24 279.721 152.261 279.694C152.398 279.355 152.398 278.976 152.261 278.637C152.188 278.187 152.08 277.744 151.937 277.311C151.796 276.916 151.175 277.085 151.302 277.494L151.344 277.452Z" fill="#AA6D44"/>
<path d="M157.818 266.424C157.741 266.891 157.741 267.367 157.818 267.834C157.83 267.882 157.858 267.925 157.898 267.956C157.938 267.987 157.986 268.004 158.036 268.004C158.086 268.004 158.135 267.987 158.175 267.956C158.214 267.925 158.243 267.882 158.255 267.834C158.332 267.367 158.332 266.891 158.255 266.424C158.241 266.365 158.208 266.312 158.161 266.275C158.113 266.237 158.054 266.217 157.994 266.217C157.934 266.217 157.875 266.237 157.828 266.275C157.78 266.312 157.747 266.365 157.733 266.424H157.818Z" fill="#AA6D44"/>
<path d="M164.728 263.674C164.904 264.055 165.005 264.467 165.024 264.887C164.989 265.229 164.989 265.574 165.024 265.916C165.039 265.965 165.066 266.01 165.102 266.046C165.139 266.082 165.185 266.107 165.235 266.12C165.285 266.133 165.337 266.133 165.387 266.119C165.436 266.106 165.481 266.079 165.518 266.043C166.138 265.352 165.687 264.04 165.278 263.349C165.228 263.292 165.16 263.253 165.085 263.241C165.01 263.229 164.933 263.243 164.867 263.282C164.802 263.32 164.752 263.381 164.726 263.452C164.701 263.524 164.702 263.602 164.728 263.674Z" fill="#AA6D44"/>
<path d="M157 274.787C157 275.365 156.802 276.592 157.296 277.001C157.318 277.027 157.347 277.049 157.378 277.064C157.41 277.078 157.444 277.086 157.479 277.086C157.514 277.086 157.549 277.078 157.58 277.064C157.612 277.049 157.64 277.027 157.663 277.001C157.775 276.715 157.775 276.398 157.663 276.112C157.603 275.687 157.566 275.258 157.55 274.829C157.535 274.76 157.496 274.698 157.441 274.653C157.386 274.609 157.317 274.584 157.247 274.584C157.176 274.584 157.107 274.609 157.052 274.653C156.997 274.698 156.958 274.76 156.943 274.829L157 274.787Z" fill="#AA6D44"/>
<path d="M162.895 272.699C162.98 273.317 163.102 273.93 163.261 274.533C163.283 274.568 163.313 274.597 163.348 274.617C163.384 274.637 163.425 274.647 163.466 274.647C163.507 274.647 163.547 274.637 163.583 274.617C163.619 274.597 163.649 274.568 163.67 274.533C163.859 273.868 163.804 273.158 163.515 272.53C163.388 272.149 162.782 272.305 162.895 272.699Z" fill="#AA6D44"/>
<path d="M149.314 287.578C149.471 287.902 149.594 288.243 149.681 288.593C149.712 288.89 149.788 289.18 149.906 289.453C149.93 289.491 149.964 289.522 150.003 289.544C150.043 289.565 150.087 289.577 150.132 289.577C150.177 289.577 150.221 289.565 150.26 289.544C150.3 289.522 150.333 289.491 150.357 289.453C150.512 288.679 150.361 287.875 149.934 287.211C149.737 286.802 149.131 287.211 149.314 287.578Z" fill="#AA6D44"/>
<path d="M155.491 284.405C155.385 284.978 155.385 285.566 155.491 286.139C155.508 286.189 155.54 286.232 155.583 286.263C155.626 286.293 155.678 286.31 155.73 286.31C155.783 286.31 155.834 286.293 155.877 286.263C155.92 286.232 155.953 286.189 155.97 286.139C156.076 285.566 156.076 284.978 155.97 284.405C155.97 284.33 155.94 284.258 155.888 284.205C155.835 284.152 155.763 284.123 155.688 284.123C155.613 284.123 155.542 284.152 155.489 284.205C155.436 284.258 155.406 284.33 155.406 284.405H155.491Z" fill="#AA6D44"/>
<path d="M152.924 289.75C152.985 290.146 153.018 290.547 153.023 290.948C152.985 291.253 153.018 291.562 153.122 291.851C153.192 292.02 153.46 291.992 153.559 291.851C153.798 291.118 153.798 290.328 153.559 289.594C153.474 289.214 152.938 289.383 152.995 289.75H152.924Z" fill="#AA6D44"/>
<path d="M156.153 295.391C156.153 295.757 156.28 296.138 156.337 296.505C156.335 296.627 156.362 296.749 156.415 296.859C156.469 296.97 156.549 297.066 156.647 297.139C156.685 297.17 156.732 297.187 156.781 297.187C156.83 297.187 156.877 297.17 156.915 297.139C157.098 296.9 157.028 296.674 156.915 296.392C156.802 296.11 156.788 295.659 156.732 295.292C156.675 294.925 156.041 295.052 156.097 295.461L156.153 295.391Z" fill="#AA6D44"/>
<path d="M160.088 281.457C160.088 281.908 159.891 282.712 160.3 283.008C160.326 283.022 160.355 283.029 160.384 283.029C160.414 283.029 160.443 283.022 160.469 283.008C160.892 282.712 160.695 281.908 160.68 281.457C160.68 281.379 160.649 281.303 160.594 281.248C160.538 281.192 160.463 281.161 160.384 281.161C160.306 281.161 160.23 281.192 160.175 281.248C160.119 281.303 160.088 281.379 160.088 281.457Z" fill="#AA6D44"/>
<path d="M159.82 289.538C159.775 290.113 159.808 290.692 159.919 291.259C159.935 291.302 159.964 291.339 160.002 291.365C160.039 291.392 160.084 291.406 160.13 291.406C160.176 291.406 160.221 291.392 160.259 291.365C160.297 291.339 160.326 291.302 160.342 291.259C160.434 290.69 160.448 290.111 160.384 289.538C160.384 289.456 160.352 289.377 160.293 289.319C160.235 289.26 160.156 289.228 160.074 289.228C159.992 289.228 159.913 289.26 159.855 289.319C159.796 289.377 159.764 289.456 159.764 289.538H159.82Z" fill="#AA6D44"/>
<path d="M164.305 294.53C164.257 295.141 164.334 295.755 164.531 296.335C164.553 296.38 164.587 296.417 164.629 296.444C164.672 296.47 164.721 296.484 164.77 296.484C164.82 296.484 164.869 296.47 164.911 296.444C164.954 296.417 164.988 296.38 165.01 296.335C165.129 295.759 165.129 295.164 165.01 294.587C165.01 294.178 164.333 294.164 164.361 294.587L164.305 294.53Z" fill="#AA6D44"/>
<path d="M164.615 283.121C164.514 283.725 164.558 284.343 164.742 284.926C164.764 284.964 164.796 284.996 164.835 285.018C164.873 285.04 164.916 285.051 164.961 285.051C165.005 285.051 165.048 285.04 165.086 285.018C165.125 284.996 165.157 284.964 165.179 284.926C165.363 284.343 165.407 283.725 165.306 283.121C165.29 283.042 165.247 282.97 165.184 282.918C165.121 282.867 165.042 282.839 164.961 282.839C164.879 282.839 164.8 282.867 164.737 282.918C164.675 282.97 164.631 283.042 164.615 283.121Z" fill="#AA6D44"/>
<path d="M170.566 287.958C170.669 288.317 170.73 288.686 170.75 289.058C170.726 289.365 170.77 289.673 170.877 289.961C170.905 290.011 170.946 290.052 170.996 290.081C171.045 290.11 171.101 290.125 171.159 290.125C171.216 290.125 171.272 290.11 171.322 290.081C171.372 290.052 171.413 290.011 171.441 289.961C171.808 289.369 171.441 288.367 171.201 287.789C170.961 287.211 170.44 287.549 170.566 287.958Z" fill="#AA6D44"/>
<path d="M169.043 276.465C169.043 276.916 169.043 277.551 169.354 277.875C169.375 277.899 169.401 277.918 169.43 277.931C169.459 277.945 169.491 277.951 169.523 277.951C169.555 277.951 169.587 277.945 169.616 277.931C169.645 277.918 169.671 277.899 169.692 277.875C169.932 277.494 169.692 276.916 169.692 276.465C169.692 276.014 169.001 276.042 169.043 276.465Z" fill="#AA6D44"/>
<path d="M176.165 281.203C176.213 281.581 176.185 281.965 176.08 282.331C175.982 282.628 175.756 282.924 175.798 283.248C175.797 283.283 175.804 283.318 175.819 283.35C175.834 283.382 175.856 283.41 175.883 283.432C175.91 283.453 175.942 283.469 175.977 283.476C176.011 283.483 176.047 283.483 176.08 283.474C176.898 283.29 176.997 281.852 176.913 281.203C176.828 280.555 176.109 280.724 176.165 281.203Z" fill="#AA6D44"/>
<path d="M169.664 270.401C169.791 270.908 169.819 271.613 170.256 271.938C170.291 271.959 170.331 271.972 170.372 271.975C170.413 271.978 170.454 271.972 170.492 271.957C170.53 271.942 170.564 271.919 170.592 271.888C170.619 271.858 170.64 271.822 170.651 271.783C170.834 271.317 170.482 270.669 170.355 270.203C170.316 270.128 170.252 270.069 170.175 270.035C170.097 270.002 170.01 269.996 169.929 270.019C169.847 270.043 169.777 270.093 169.728 270.163C169.68 270.232 169.657 270.316 169.664 270.401Z" fill="#AA6D44"/>
<path d="M173.584 270.655C173.522 271.298 173.649 271.945 173.951 272.516C174.092 272.699 174.36 272.516 174.416 272.403C174.49 271.807 174.397 271.202 174.149 270.655C174.139 270.58 174.1 270.512 174.041 270.465C173.981 270.419 173.906 270.398 173.831 270.408C173.756 270.417 173.688 270.456 173.642 270.515C173.596 270.575 173.575 270.65 173.584 270.725V270.655Z" fill="#AA6D44"/>
<path d="M179.888 276.07C179.888 276.549 179.888 277.015 179.79 277.48C179.691 277.946 179.649 278.27 179.959 278.538C180.002 278.569 180.054 278.586 180.107 278.586C180.16 278.586 180.212 278.569 180.255 278.538C180.608 278.284 180.537 277.931 180.551 277.522C180.565 277.114 180.551 276.521 180.551 276.014C180.551 275.506 179.846 275.548 179.818 276.014L179.888 276.07Z" fill="#AA6D44"/>
<path d="M174.67 262.997C174.609 263.467 174.633 263.945 174.741 264.407C174.754 264.466 174.788 264.518 174.835 264.556C174.882 264.593 174.941 264.614 175.002 264.614C175.062 264.614 175.121 264.593 175.168 264.556C175.215 264.518 175.249 264.466 175.262 264.407C175.362 263.942 175.362 263.462 175.262 262.997C175.247 262.921 175.205 262.852 175.145 262.803C175.084 262.754 175.009 262.727 174.931 262.727C174.853 262.727 174.778 262.754 174.717 262.803C174.657 262.852 174.615 262.921 174.6 262.997H174.67Z" fill="#AA6D44"/>
<path d="M157.296 261.079C157.263 261.412 157.301 261.749 157.409 262.066C157.424 262.095 157.448 262.12 157.476 262.137C157.505 262.155 157.538 262.164 157.571 262.164C157.604 262.164 157.637 262.155 157.666 262.137C157.694 262.12 157.718 262.095 157.733 262.066C157.836 261.748 157.87 261.411 157.832 261.079C157.832 261.008 157.804 260.94 157.753 260.889C157.703 260.839 157.635 260.811 157.564 260.811C157.493 260.811 157.425 260.839 157.374 260.889C157.324 260.94 157.296 261.008 157.296 261.079Z" fill="#AA6D44"/>
<path d="M157.902 253.125C157.902 253.548 157.747 254.098 158.057 254.422C158.076 254.443 158.099 254.46 158.124 254.472C158.15 254.483 158.178 254.489 158.206 254.489C158.234 254.489 158.261 254.483 158.287 254.472C158.312 254.46 158.335 254.443 158.354 254.422C158.678 254.098 158.537 253.548 158.509 253.125C158.494 253.056 158.455 252.994 158.4 252.949C158.345 252.905 158.276 252.88 158.206 252.88C158.135 252.88 158.066 252.905 158.011 252.949C157.956 252.994 157.917 253.056 157.902 253.125Z" fill="#AA6D44"/>
<path d="M170.256 259.866C170.299 260.478 170.482 261.071 170.792 261.601C170.816 261.624 170.846 261.64 170.879 261.649C170.911 261.657 170.945 261.657 170.978 261.648C171.01 261.64 171.04 261.623 171.064 261.6C171.089 261.577 171.107 261.548 171.116 261.516C171.162 260.901 171.066 260.283 170.834 259.711C170.75 259.344 170.172 259.499 170.256 259.866Z" fill="#AA6D44"/>
<path d="M178.718 257.61C178.746 257.919 178.746 258.231 178.718 258.54C178.674 258.816 178.674 259.097 178.718 259.372C178.738 259.421 178.773 259.462 178.817 259.491C178.861 259.521 178.912 259.536 178.965 259.536C179.017 259.536 179.069 259.521 179.113 259.491C179.157 259.462 179.191 259.421 179.211 259.372C179.488 258.808 179.557 258.164 179.409 257.553C179.409 257.13 178.676 257.116 178.718 257.553V257.61Z" fill="#AA6D44"/>
<path d="M180.749 265.874C180.622 266.41 180.424 267.284 180.904 267.763C180.931 267.792 180.966 267.813 181.005 267.824C181.043 267.835 181.084 267.836 181.123 267.825C181.162 267.815 181.197 267.795 181.225 267.767C181.254 267.739 181.274 267.703 181.284 267.665C181.341 267.428 181.341 267.182 181.284 266.946C181.235 266.637 181.235 266.323 181.284 266.015C181.284 265.676 180.847 265.521 180.749 265.874Z" fill="#AA6D44"/>
<path d="M186.347 265.013C186.488 265.309 186.588 265.622 186.643 265.944C186.664 266.238 186.706 266.531 186.77 266.819C186.855 267.044 187.208 267.143 187.32 266.889C187.418 266.509 187.439 266.114 187.381 265.726C187.323 265.339 187.187 264.967 186.982 264.633C186.784 264.21 186.136 264.633 186.347 265.013Z" fill="#AA6D44"/>
<path d="M184.881 257.68C184.927 258.091 185.041 258.491 185.219 258.865C185.244 258.899 185.279 258.925 185.319 258.939C185.359 258.953 185.402 258.955 185.443 258.945C185.484 258.934 185.521 258.911 185.549 258.879C185.577 258.848 185.595 258.808 185.6 258.766C185.597 258.349 185.531 257.935 185.403 257.539C185.318 257.201 184.81 257.342 184.881 257.68Z" fill="#AA6D44"/>
<path d="M189.309 252.956C189.301 253.625 189.435 254.289 189.704 254.902C189.723 254.944 189.753 254.98 189.792 255.005C189.831 255.03 189.876 255.043 189.922 255.043C189.969 255.043 190.014 255.03 190.053 255.005C190.091 254.98 190.122 254.944 190.141 254.902C190.212 254.596 190.212 254.277 190.141 253.971L189.972 252.829C189.972 252.406 189.267 252.589 189.323 253.012L189.309 252.956Z" fill="#AA6D44"/>
<path d="M184.81 272.319C184.89 272.823 185.077 273.304 185.36 273.729C185.388 273.758 185.423 273.779 185.461 273.79C185.5 273.8 185.541 273.801 185.579 273.791C185.618 273.781 185.654 273.761 185.682 273.732C185.71 273.704 185.731 273.669 185.741 273.63C185.759 273.094 185.662 272.561 185.459 272.065C185.429 271.986 185.37 271.921 185.295 271.883C185.219 271.846 185.132 271.837 185.051 271.86C184.97 271.883 184.9 271.936 184.855 272.008C184.811 272.079 184.795 272.165 184.81 272.248V272.319Z" fill="#AA6D44"/>
<path d="M190.338 246.201C190.326 246.608 190.364 247.015 190.451 247.413C190.467 247.453 190.494 247.488 190.529 247.512C190.564 247.536 190.606 247.549 190.649 247.549C190.691 247.549 190.733 247.536 190.768 247.512C190.804 247.488 190.831 247.453 190.846 247.413C190.933 247.015 190.971 246.608 190.959 246.201C190.959 246.118 190.926 246.039 190.868 245.981C190.81 245.923 190.731 245.89 190.649 245.89C190.566 245.89 190.487 245.923 190.429 245.981C190.371 246.039 190.338 246.118 190.338 246.201Z" fill="#AA6D44"/>
<path d="M191.41 238.768C191.428 239.077 191.394 239.387 191.311 239.685C191.228 239.908 191.228 240.153 191.311 240.376C191.311 240.475 191.481 240.588 191.608 240.531C192.228 240.306 192.186 239.304 192.115 238.768C192.045 238.232 191.452 238.345 191.481 238.768H191.41Z" fill="#AA6D44"/>
<path d="M190.804 231.548C190.816 232.142 190.95 232.728 191.199 233.268C191.229 233.317 191.272 233.356 191.324 233.38C191.375 233.405 191.433 233.414 191.489 233.407C191.546 233.399 191.599 233.376 191.643 233.338C191.686 233.301 191.718 233.253 191.735 233.198C191.79 232.579 191.718 231.955 191.523 231.364C191.438 230.885 190.733 231.097 190.804 231.548Z" fill="#AA6D44"/>
<path d="M132.306 199.464C133.406 202.68 134.661 205.105 137.947 206.234C142.868 207.757 148.088 208.053 153.15 207.094C159.397 206.135 166.9 203.498 173.147 205.768C178.111 207.573 178.281 212.989 183.019 214.907C183.287 215.006 183.456 214.582 183.216 214.441C180.241 212.806 179.874 210.676 178.309 208.081C177.701 207.025 176.772 206.19 175.657 205.698C172.301 203.963 167.957 203.991 164.375 204.288C154.32 205.246 138.06 211.508 132.743 199.253C132.644 199.041 132.306 199.182 132.376 199.408L132.306 199.464Z" fill="#AA6D44"/>
<path d="M139.414 194.74C145.365 202.214 153.516 201.453 162.189 200.508C168.888 199.775 174.882 199.902 179.423 205.557C180.144 206.659 181.124 207.569 182.276 208.208C183.429 208.847 184.72 209.196 186.037 209.223C186.305 209.223 186.347 208.829 186.037 208.758C182.948 207.982 181.538 206.008 179.38 203.794C178.674 202.943 177.859 202.189 176.955 201.552C174.063 199.906 170.758 199.127 167.436 199.309C157.564 199.309 147.255 203.3 139.794 194.317C139.54 194.007 139.132 194.444 139.371 194.74H139.414Z" fill="#AA6D44"/>
<path d="M148.087 188.126C153.305 192.357 160.962 190.396 167.027 192.653C170.764 194.063 173.091 196.616 176.278 198.717C179.148 200.567 182.387 201.77 185.769 202.243C186.277 202.243 186.502 201.552 185.981 201.453C181.766 200.767 177.804 198.993 174.487 196.305C172.803 194.748 170.903 193.442 168.846 192.427C166.543 191.397 164.116 190.672 161.625 190.269C157.014 189.578 152.515 190.509 148.383 187.689C148.157 187.534 147.861 187.914 148.087 188.098V188.126Z" fill="#AA6D44"/>
<path d="M186.206 216.881C192.806 217.925 193.37 223.932 194.005 229.404C194.005 229.616 194.358 229.7 194.4 229.404C195.711 223.763 192.496 216.712 186.277 216.289C186.206 216.289 186.138 216.317 186.087 216.367C186.037 216.418 186.009 216.486 186.009 216.557C186.009 216.628 186.037 216.696 186.087 216.746C186.138 216.796 186.206 216.825 186.277 216.825L186.206 216.881Z" fill="#AA6D44"/>
<path d="M187.814 212.086C189.936 212.892 191.833 214.198 193.342 215.894C194.964 217.896 195.063 220.125 195.26 222.607C195.273 222.662 195.305 222.711 195.35 222.747C195.395 222.782 195.45 222.801 195.507 222.801C195.564 222.801 195.619 222.782 195.664 222.747C195.709 222.711 195.74 222.662 195.754 222.607C196.318 216.966 193.074 213.51 188.025 211.564C187.729 211.437 187.504 211.959 187.814 212.086Z" fill="#AA6D44"/>
<path d="M190 206.558C191.399 207.289 192.671 208.241 193.765 209.378C194.754 210.533 195.403 211.939 195.641 213.44C195.653 213.485 195.68 213.525 195.717 213.553C195.753 213.582 195.799 213.597 195.846 213.597C195.892 213.597 195.938 213.582 195.975 213.553C196.012 213.525 196.038 213.485 196.05 213.44C196.868 209.971 192.905 207.404 190.409 206.036C190.342 206.013 190.268 206.014 190.202 206.039C190.135 206.063 190.079 206.11 190.042 206.171C190.006 206.232 189.992 206.304 190.002 206.375C190.012 206.445 190.046 206.51 190.099 206.558H190Z" fill="#AA6D44"/>
<path d="M319.009 228.412L298.864 205.163L256.732 241.67L276.877 264.919L319.009 228.412Z" fill="#1AD8B4"/>
<path fill-rule="evenodd" clip-rule="evenodd" d="M266.596 245.77C268.244 244.877 275.221 252.952 274.137 254.475C277.169 255.196 280.56 255.435 282.353 255.067C282.809 253.495 307.658 231.956 309.28 231.736C309.906 230.016 310.156 226.628 309.872 223.519C308.224 224.412 301.247 216.337 302.331 214.814C299.3 214.093 295.908 213.854 294.115 214.222C293.66 215.794 268.811 237.333 267.188 237.554C266.562 239.273 266.316 242.669 266.596 245.77Z" stroke="#0F937A" stroke-width="2"/>
<path d="M283.265 239.193C285.693 241.996 289.934 242.299 292.737 239.871C295.539 237.442 295.843 233.201 293.414 230.399C290.986 227.596 286.745 227.293 283.942 229.721C281.14 232.15 280.836 236.39 283.265 239.193Z" fill="#0E7A65"/>
<path d="M291.58 238.132L290.987 238.647L290.52 238.108C289.132 239.177 287.751 239.209 286.854 238.181L288.058 237.138C288.466 237.55 289.106 237.556 289.692 237.152L288.269 235.51L287.731 235.792C286.512 236.435 285.462 236.32 284.704 235.445C283.81 234.413 283.974 233.106 285.15 231.91L284.65 231.334L285.244 230.819L285.747 231.4C287.017 230.484 288.373 230.518 289.229 231.472L288.059 232.486C287.699 232.097 287.095 232.046 286.59 232.373L287.95 233.943L288.478 233.641C289.76 232.943 290.784 233.036 291.575 233.95C292.502 235.019 292.333 236.33 291.11 237.589L291.58 238.132ZM290.501 235.117C290.147 234.708 289.654 234.701 288.954 235.101L290.289 236.642C290.811 236.13 290.887 235.563 290.501 235.117ZM285.829 234.285C286.15 234.656 286.643 234.671 287.251 234.335L285.993 232.883C285.556 233.306 285.482 233.885 285.829 234.285Z" fill="black"/>
<path d="M291.58 238.132L290.987 238.647L290.52 238.108C289.132 239.177 287.751 239.209 286.854 238.181L288.058 237.138C288.466 237.55 289.106 237.556 289.692 237.152L288.269 235.51L287.731 235.792C286.512 236.435 285.462 236.32 284.704 235.445C283.81 234.413 283.974 233.106 285.15 231.91L284.65 231.334L285.244 230.819L285.747 231.4C287.017 230.484 288.373 230.518 289.229 231.472L288.059 232.486C287.699 232.097 287.095 232.046 286.59 232.373L287.95 233.943L288.478 233.641C289.76 232.943 290.784 233.036 291.575 233.95C292.502 235.019 292.333 236.33 291.11 237.589L291.58 238.132ZM290.501 235.117C290.147 234.708 289.654 234.701 288.954 235.101L290.289 236.642C290.811 236.13 290.887 235.563 290.501 235.117ZM285.829 234.285C286.15 234.656 286.643 234.671 287.251 234.335L285.993 232.883C285.556 233.306 285.482 233.885 285.829 234.285Z" fill="#17CEAF"/>
<path d="M7.28717 237.083L-13.0916 260.127L28.6695 297.057L49.0482 274.013L7.28717 237.083Z" fill="#1AD8B4"/>
<path fill-rule="evenodd" clip-rule="evenodd" d="M31.4281 286.738C30.3253 285.222 37.4054 277.238 39.0587 278.111C39.3724 275.011 39.1606 271.617 38.558 269.889C36.9396 269.646 12.3022 247.865 11.8686 246.286C10.0812 245.894 6.68962 246.094 3.64623 246.787C4.74905 248.303 -2.33109 256.287 -3.98433 255.414C-4.29803 258.514 -4.0862 261.908 -3.4836 263.636C-1.86528 263.879 22.7722 285.659 23.2058 287.239C24.9931 287.631 28.3913 287.426 31.4281 286.738Z" stroke="#0F937A" stroke-width="2"/>
<path d="M22.7036 271.086C25.1602 268.308 24.8997 264.065 22.1217 261.608C19.3436 259.151 15.1 259.412 12.6433 262.19C10.1866 264.968 10.4471 269.212 13.2252 271.668C16.0033 274.125 20.2469 273.864 22.7036 271.086Z" fill="#0E7A65"/>
<path d="M20.5514 262.984L21.1398 263.504L20.6674 264.039C21.9113 265.272 22.1253 266.637 21.2253 267.663L20.0319 266.607C20.3864 266.147 20.308 265.513 19.8297 264.986L18.3905 266.613L18.7406 267.109C19.5396 268.232 19.565 269.288 18.7974 270.156C17.8933 271.178 16.5758 271.188 15.2353 270.181L14.7298 270.753L14.1414 270.233L14.6506 269.657C13.5744 268.519 13.4285 267.171 14.2606 266.196L15.4207 267.222C15.0826 267.629 15.1119 268.235 15.5031 268.693L16.8795 267.136L16.5105 266.654C15.6489 265.475 15.6056 264.448 16.4063 263.542C17.3437 262.483 18.6654 262.476 20.0753 263.522L20.5514 262.984ZM17.7054 264.453C17.3474 264.858 17.4051 265.348 17.8944 265.989L19.245 264.461C18.6688 264.011 18.0966 264.011 17.7054 264.453ZM17.4992 269.194C17.8239 268.827 17.7741 268.336 17.3609 267.778L16.0878 269.217C16.5648 269.594 17.1486 269.59 17.4992 269.194Z" fill="black"/>
<path d="M20.5514 262.984L21.1398 263.504L20.6674 264.039C21.9113 265.272 22.1253 266.637 21.2253 267.663L20.0319 266.607C20.3864 266.147 20.308 265.513 19.8297 264.986L18.3905 266.613L18.7406 267.109C19.5396 268.232 19.565 269.288 18.7974 270.156C17.8933 271.178 16.5758 271.188 15.2353 270.181L14.7298 270.753L14.1414 270.233L14.6506 269.657C13.5744 268.519 13.4285 267.171 14.2606 266.196L15.4207 267.222C15.0826 267.629 15.1119 268.235 15.5031 268.693L16.8795 267.136L16.5105 266.654C15.6489 265.475 15.6056 264.448 16.4063 263.542C17.3437 262.483 18.6654 262.476 20.0753 263.522L20.5514 262.984ZM17.7054 264.453C17.3474 264.858 17.4051 265.348 17.8944 265.989L19.245 264.461C18.6688 264.011 18.0966 264.011 17.7054 264.453ZM17.4992 269.194C17.8239 268.827 17.7741 268.336 17.3609 267.778L16.0878 269.217C16.5648 269.594 17.1486 269.59 17.4992 269.194Z" fill="#17CEAF"/>
<path d="M221.618 151.516L229.631 157.434L227.965 159.355L219.952 153.438L221.618 151.516Z" fill="#1F1141"/>
<path d="M232.492 154.272L230.961 152.948C230.961 152.948 215.833 170.572 227.011 177.198C238.188 183.823 250.612 170.034 250.612 170.034C250.612 170.034 233.12 155.047 232.492 154.272ZM228.871 175.055C220.762 170.257 231.742 157.449 231.742 157.449L232.845 158.424C233.32 158.957 246.02 169.88 246.02 169.88C246.02 169.88 236.997 179.877 228.89 175.059L228.871 175.055Z" fill="#1F1141"/>
<path d="M203.481 136.632C203.481 136.632 194.234 152.638 203.938 161.317C213.643 169.995 225.801 150.092 225.801 150.092L224.027 149.039C223.174 148.655 203.481 136.632 203.481 136.632ZM205.057 140.958C205.057 140.958 219.355 149.674 220.009 149.964L221.269 150.712C221.269 150.712 212.458 165.111 205.383 158.867C198.308 152.624 205.057 140.958 205.057 140.958Z" fill="#1F1141"/>
<path d="M248.717 170.017C248.717 170.017 272.09 169.899 274.718 172.452C277.347 175.004 269.346 187.45 266.292 187.113C263.238 186.777 272.316 178.375 271.446 174.72C270.575 171.064 246.702 172.367 246.702 172.367L248.717 170.017Z" fill="#1F1141"/>
<path d="M203.48 136.749C203.48 136.749 229.384 128.734 233.849 130.294C238.314 131.855 237.464 143.256 233.831 143.993C230.199 144.731 236.768 136.577 233.709 133.461C230.65 130.344 202.581 140.116 202.581 140.116L203.48 136.749Z" fill="#1F1141"/>
<path d="M71.6698 44.2807C70.9365 47.5082 68.8394 50.2129 65.3785 52.3948C61.9177 54.5768 57.0593 56.5054 50.8035 58.1805C44.5439 59.8578 39.3696 60.6174 35.2807 60.4595C31.1918 60.3016 28.0081 58.9594 25.7297 56.4328C23.4561 53.9082 21.8697 51.5642 20.9702 49.401C20.0707 47.2378 19.0206 43.9134 17.8197 39.4278C16.6184 34.9445 15.8658 31.5409 15.5619 29.217C15.2579 26.8931 15.4364 24.1797 16.0972 21.0766C17.4666 15.0655 24.5103 10.3561 37.2281 6.94839C49.7485 3.59358 58.0051 4.2033 61.9979 8.77755C64.3695 11.2813 66.0061 13.6124 66.9075 15.7707C67.809 17.9291 68.8592 21.2535 70.058 25.744C71.2606 30.2323 72.0133 33.6359 72.3158 35.9548C72.6184 38.2736 72.4031 41.0489 71.6698 44.2807Z" fill="#FFDEC4"/>
<path d="M37.5137 39.3124C41.0586 39.3124 43.207 36.4706 43.207 31.9198C43.207 27.369 41.0391 24.5858 37.5137 24.5858C33.9883 24.5858 31.8105 27.3788 31.8105 31.9296C31.8105 36.4901 33.9688 39.3124 37.5137 39.3124ZM37.5137 36.9491C35.834 36.9491 34.8086 35.1327 34.8086 31.9296C34.8086 28.7557 35.8535 26.9491 37.5137 26.9491C39.1836 26.9491 40.209 28.746 40.209 31.9296C40.209 35.1425 39.1934 36.9491 37.5137 36.9491ZM44.7598 29.1464V29.1952H47.4941V29.1464C47.4941 27.8475 48.5 26.8905 49.8672 26.8905C51.1758 26.8905 52.1035 27.7303 52.1035 28.785C52.1035 29.7616 51.6641 30.4745 50.2383 31.9003L44.9258 37.0175V38.9999H55.1699V36.6561H48.8125V36.5975L52.25 33.287C53.8027 31.744 54.9746 30.4257 54.9746 28.6678C54.9746 26.3143 52.9336 24.5956 49.9648 24.5956C46.8887 24.5956 44.7598 26.4803 44.7598 29.1464Z" fill="#DF8A44"/>
<path d="M27.7812 93.9999H29.1719V82.7264H27.7812L21.6875 91.7264H21.5625V82.7264H20.1719V93.9999H21.5625L27.6562 85.0311H27.7812V93.9999ZM36.6484 93.9999H37.9922V85.8749H36.6484V89.2264H32.6406V85.8749H31.2969V93.9999H32.6406V90.3436H36.6484V93.9999ZM43.1953 86.9764C44.0469 86.9764 44.5078 87.3749 44.5078 88.0936C44.5078 88.8749 44.0156 89.2499 42.9922 89.2499H41.25V86.9764H43.1953ZM43.1016 90.3436C44.2891 90.3436 44.8594 90.7655 44.8594 91.6327C44.8594 92.453 44.3281 92.8983 43.3438 92.8983H41.25V90.3436H43.1016ZM39.9062 93.9999H43.4062C45.1328 93.9999 46.1953 93.1014 46.1953 91.6639C46.1953 90.6483 45.5234 89.9061 44.5 89.7655V89.703C45.25 89.5468 45.8359 88.7811 45.8359 87.953C45.8359 86.6639 44.9062 85.8749 43.3828 85.8749H39.9062V93.9999ZM51.0156 86.9139C52.2969 86.9139 53.1484 87.8827 53.1797 89.2421H48.7656C48.8516 87.8905 49.7422 86.9139 51.0156 86.9139ZM53.1484 91.6718C52.9219 92.4374 52.1641 92.9608 51.1328 92.9608C49.6719 92.9608 48.7578 91.9374 48.7578 90.3827V90.3046H54.5859V89.7889C54.5859 87.328 53.2344 85.7343 51.0391 85.7343C48.7969 85.7343 47.3594 87.4452 47.3594 89.9686C47.3594 92.5233 48.7734 94.1405 51.1016 94.1405C52.875 94.1405 54.25 93.0936 54.4844 91.6718H53.1484ZM62.8203 88.3749C62.5781 86.9921 61.3828 85.7343 59.4219 85.7343C57.1719 85.7343 55.7031 87.4061 55.7031 89.9374C55.7031 92.5233 57.1797 94.1405 59.4375 94.1405C61.2656 94.1405 62.5703 93.0546 62.8359 91.5155H61.4922C61.2344 92.4139 60.5234 92.9452 59.4453 92.9452C58.0312 92.9452 57.0859 91.7968 57.0859 89.9374C57.0859 88.1249 58.0156 86.9296 59.4297 86.9296C60.5781 86.9296 61.2422 87.5936 61.4766 88.3749H62.8203ZM70.0391 85.8749H63.4453V86.9921H66.0703V93.9999H67.4141V86.9921H70.0391V85.8749ZM74.5156 94.1405C76.7578 94.1405 78.2734 92.5233 78.2734 89.9374C78.2734 87.3436 76.7578 85.7343 74.5156 85.7343C72.2656 85.7343 70.75 87.3436 70.75 89.9374C70.75 92.5233 72.2656 94.1405 74.5156 94.1405ZM74.5156 92.9452C73.0781 92.9452 72.1328 91.8514 72.1328 89.9374C72.1328 88.0233 73.0781 86.9296 74.5156 86.9296C75.9531 86.9296 76.8906 88.0233 76.8906 89.9374C76.8906 91.8514 75.9531 92.9452 74.5156 92.9452ZM83.7344 85.7343C82.5547 85.7343 81.6094 86.3358 81.1094 87.2499H81.0781V85.8749H79.7891V96.7108H81.1484V92.6796H81.1797C81.6641 93.5702 82.6016 94.1405 83.7656 94.1405C85.8125 94.1405 87.2109 92.4843 87.2109 89.9374C87.2109 87.3905 85.8047 85.7343 83.7344 85.7343ZM83.4688 92.9452C82.0781 92.9452 81.1406 91.7499 81.1406 89.9374C81.1406 88.1327 82.0781 86.9296 83.4688 86.9296C84.9141 86.9296 85.8203 88.1014 85.8203 89.9374C85.8203 91.7811 84.9141 92.9452 83.4688 92.9452ZM95.2891 86.9764C96.1406 86.9764 96.6016 87.3749 96.6016 88.0936C96.6016 88.8749 96.1094 89.2499 95.0859 89.2499H93.3438V86.9764H95.2891ZM95.1953 90.3436C96.3828 90.3436 96.9531 90.7655 96.9531 91.6327C96.9531 92.453 96.4219 92.8983 95.4375 92.8983H93.3438V90.3436H95.1953ZM92 93.9999H95.5C97.2266 93.9999 98.2891 93.1014 98.2891 91.6639C98.2891 90.6483 97.6172 89.9061 96.5938 89.7655V89.703C97.3438 89.5468 97.9297 88.7811 97.9297 87.953C97.9297 86.6639 97 85.8749 95.4766 85.8749H92V93.9999ZM106.797 93.9999H108.141V85.8749H106.797V93.9999ZM102.703 89.5858C103.75 89.5858 104.438 90.2343 104.438 91.2343C104.438 92.2264 103.758 92.8827 102.703 92.8827H101.188V89.5858H102.703ZM99.8438 93.9999H102.727C104.586 93.9999 105.781 92.9296 105.781 91.2343C105.781 89.5389 104.586 88.4686 102.727 88.4686H101.188V85.8749H99.8438V93.9999ZM113.531 94.1405C115.883 94.1405 117.328 92.5702 117.328 90.0155C117.328 87.5936 115.93 86.0468 113.734 86.0468C112.484 86.0468 111.469 86.5468 110.938 87.5077H110.875C111.203 85.078 111.875 84.0858 114.133 83.9999L114.734 83.9764C115.672 83.9374 116.531 83.7343 116.789 83.4999V82.3124C116.328 82.5546 115.453 82.7108 114.672 82.7499L114.07 82.7733C110.914 82.8905 109.727 84.7577 109.727 89.2421C109.727 92.4686 111.039 94.1405 113.531 94.1405ZM113.531 92.9374C112 92.9374 111.117 91.8827 111.117 90.0155C111.117 88.2421 112 87.2343 113.531 87.2343C115.055 87.2343 115.938 88.2421 115.938 90.0155C115.938 91.8827 115.055 92.9374 113.531 92.9374ZM120.188 93.9999L124.25 87.953H124.312V93.9999H125.656V85.8749H124.312L120.25 91.9218H120.188V85.8749H118.844V93.9999H120.188ZM131.516 85.7343C130.336 85.7343 129.391 86.3358 128.891 87.2499H128.859V85.8749H127.57V96.7108H128.93V92.6796H128.961C129.445 93.5702 130.383 94.1405 131.547 94.1405C133.594 94.1405 134.992 92.4843 134.992 89.9374C134.992 87.3905 133.586 85.7343 131.516 85.7343ZM131.25 92.9452C129.859 92.9452 128.922 91.7499 128.922 89.9374C128.922 88.1327 129.859 86.9296 131.25 86.9296C132.695 86.9296 133.602 88.1014 133.602 89.9374C133.602 91.7811 132.695 92.9452 131.25 92.9452ZM139.188 92.9843C138.211 92.9843 137.562 92.4764 137.562 91.703C137.562 90.9374 138.188 90.453 139.281 90.3827L141.453 90.2499V90.9139C141.453 92.0858 140.469 92.9843 139.188 92.9843ZM138.883 94.1405C139.977 94.1405 141.008 93.5311 141.492 92.6014H141.523V93.9999H142.812V88.3827C142.812 86.7655 141.609 85.7343 139.703 85.7343C137.781 85.7343 136.578 86.8124 136.484 88.2186H137.797C137.969 87.4218 138.625 86.9296 139.672 86.9296C140.797 86.9296 141.453 87.5233 141.453 88.5155V89.1952L139.125 89.328C137.25 89.4374 136.18 90.3124 136.18 91.703C136.18 93.1639 137.266 94.1405 138.883 94.1405ZM147.953 86.9139C149.234 86.9139 150.086 87.8827 150.117 89.2421H145.703C145.789 87.8905 146.68 86.9139 147.953 86.9139ZM150.086 91.6718C149.859 92.4374 149.102 92.9608 148.07 92.9608C146.609 92.9608 145.695 91.9374 145.695 90.3827V90.3046H151.523V89.7889C151.523 87.328 150.172 85.7343 147.977 85.7343C145.734 85.7343 144.297 87.4452 144.297 89.9686C144.297 92.5233 145.711 94.1405 148.039 94.1405C149.812 94.1405 151.188 93.0936 151.422 91.6718H150.086ZM158.664 85.8749H152.07V86.9921H154.695V93.9999H156.039V86.9921H158.664V85.8749ZM168.477 93.9999H169.828V85.8749H163.203V93.9999H164.547V86.9921H168.477V93.9999ZM175 86.9139C176.281 86.9139 177.133 87.8827 177.164 89.2421H172.75C172.836 87.8905 173.727 86.9139 175 86.9139ZM177.133 91.6718C176.906 92.4374 176.148 92.9608 175.117 92.9608C173.656 92.9608 172.742 91.9374 172.742 90.3827V90.3046H178.57V89.7889C178.57 87.328 177.219 85.7343 175.023 85.7343C172.781 85.7343 171.344 87.4452 171.344 89.9686C171.344 92.5233 172.758 94.1405 175.086 94.1405C176.859 94.1405 178.234 93.0936 178.469 91.6718H177.133ZM184.031 85.7343C182.852 85.7343 181.906 86.3358 181.406 87.2499H181.375V85.8749H180.086V96.7108H181.445V92.6796H181.477C181.961 93.5702 182.898 94.1405 184.062 94.1405C186.109 94.1405 187.508 92.4843 187.508 89.9374C187.508 87.3905 186.102 85.7343 184.031 85.7343ZM183.766 92.9452C182.375 92.9452 181.438 91.7499 181.438 89.9374C181.438 88.1327 182.375 86.9296 183.766 86.9296C185.211 86.9296 186.117 88.1014 186.117 89.9374C186.117 91.7811 185.211 92.9452 183.766 92.9452ZM195.742 88.3749C195.5 86.9921 194.305 85.7343 192.344 85.7343C190.094 85.7343 188.625 87.4061 188.625 89.9374C188.625 92.5233 190.102 94.1405 192.359 94.1405C194.188 94.1405 195.492 93.0546 195.758 91.5155H194.414C194.156 92.4139 193.445 92.9452 192.367 92.9452C190.953 92.9452 190.008 91.7968 190.008 89.9374C190.008 88.1249 190.938 86.9296 192.352 86.9296C193.5 86.9296 194.164 87.5936 194.398 88.3749H195.742ZM202.445 93.9999H203.797V85.8749H197.172V93.9999H198.516V86.9921H202.445V93.9999ZM208.969 86.9139C210.25 86.9139 211.102 87.8827 211.133 89.2421H206.719C206.805 87.8905 207.695 86.9139 208.969 86.9139ZM211.102 91.6718C210.875 92.4374 210.117 92.9608 209.086 92.9608C207.625 92.9608 206.711 91.9374 206.711 90.3827V90.3046H212.539V89.7889C212.539 87.328 211.188 85.7343 208.992 85.7343C206.75 85.7343 205.312 87.4452 205.312 89.9686C205.312 92.5233 206.727 94.1405 209.055 94.1405C210.828 94.1405 212.203 93.0936 212.438 91.6718H211.102ZM216.805 89.7186L220.602 85.8749H218.922L215.453 89.4686H215.391V85.8749H214.047V93.9999H215.391V90.0936H215.453L218.961 93.9999H220.711L216.805 89.7186ZM227.633 85.8749H221.039V86.9921H223.664V93.9999H225.008V86.9921H227.633V85.8749ZM230.234 93.9999L234.297 87.953H234.359V93.9999H235.703V85.8749H234.359L230.297 91.9218H230.234V85.8749H228.891V93.9999H230.234ZM240.898 86.9764C241.75 86.9764 242.211 87.3749 242.211 88.0936C242.211 88.8749 241.719 89.2499 240.695 89.2499H238.953V86.9764H240.898ZM240.805 90.3436C241.992 90.3436 242.562 90.7655 242.562 91.6327C242.562 92.453 242.031 92.8983 241.047 92.8983H238.953V90.3436H240.805ZM237.609 93.9999H241.109C242.836 93.9999 243.898 93.1014 243.898 91.6639C243.898 90.6483 243.227 89.9061 242.203 89.7655V89.703C242.953 89.5468 243.539 88.7811 243.539 87.953C243.539 86.6639 242.609 85.8749 241.086 85.8749H237.609V93.9999ZM250.805 93.9999H252.148V85.8749H250.805V89.2264H246.797V85.8749H245.453V93.9999H246.797V90.3436H250.805V93.9999ZM261.016 93.9999H262.359V85.8749H261.016V93.9999ZM256.922 89.5858C257.969 89.5858 258.656 90.2343 258.656 91.2343C258.656 92.2264 257.977 92.8827 256.922 92.8827H255.406V89.5858H256.922ZM254.062 93.9999H256.945C258.805 93.9999 260 92.9296 260 91.2343C260 89.5389 258.805 88.4686 256.945 88.4686H255.406V85.8749H254.062V93.9999ZM267.531 86.9139C268.812 86.9139 269.664 87.8827 269.695 89.2421H265.281C265.367 87.8905 266.258 86.9139 267.531 86.9139ZM269.664 91.6718C269.438 92.4374 268.68 92.9608 267.648 92.9608C266.188 92.9608 265.273 91.9374 265.273 90.3827V90.3046H271.102V89.7889C271.102 87.328 269.75 85.7343 267.555 85.7343C265.312 85.7343 263.875 87.4452 263.875 89.9686C263.875 92.5233 265.289 94.1405 267.617 94.1405C269.391 94.1405 270.766 93.0936 271 91.6718H269.664ZM25.8984 104.875H19.3047V105.992H21.9297V113H23.2734V105.992H25.8984V104.875ZM30.375 113.141C32.6172 113.141 34.1328 111.523 34.1328 108.937C34.1328 106.344 32.6172 104.734 30.375 104.734C28.125 104.734 26.6094 106.344 26.6094 108.937C26.6094 111.523 28.125 113.141 30.375 113.141ZM30.375 111.945C28.9375 111.945 27.9922 110.851 27.9922 108.937C27.9922 107.023 28.9375 105.93 30.375 105.93C31.8125 105.93 32.75 107.023 32.75 108.937C32.75 110.851 31.8125 111.945 30.375 111.945ZM38.9297 105.976C39.7812 105.976 40.2422 106.375 40.2422 107.094C40.2422 107.875 39.75 108.25 38.7266 108.25H36.9844V105.976H38.9297ZM38.8359 109.344C40.0234 109.344 40.5938 109.766 40.5938 110.633C40.5938 111.453 40.0625 111.898 39.0781 111.898H36.9844V109.344H38.8359ZM35.6406 113H39.1406C40.8672 113 41.9297 112.101 41.9297 110.664C41.9297 109.648 41.2578 108.906 40.2344 108.766V108.703C40.9844 108.547 41.5703 107.781 41.5703 106.953C41.5703 105.664 40.6406 104.875 39.1172 104.875H35.6406V113ZM46.1719 111.984C45.1953 111.984 44.5469 111.476 44.5469 110.703C44.5469 109.937 45.1719 109.453 46.2656 109.383L48.4375 109.25V109.914C48.4375 111.086 47.4531 111.984 46.1719 111.984ZM45.8672 113.141C46.9609 113.141 47.9922 112.531 48.4766 111.601H48.5078V113H49.7969V107.383C49.7969 105.766 48.5938 104.734 46.6875 104.734C44.7656 104.734 43.5625 105.812 43.4688 107.219H44.7812C44.9531 106.422 45.6094 105.93 46.6562 105.93C47.7812 105.93 48.4375 106.523 48.4375 107.516V108.195L46.1094 108.328C44.2344 108.437 43.1641 109.312 43.1641 110.703C43.1641 112.164 44.25 113.141 45.8672 113.141ZM55.625 104.734C54.4453 104.734 53.5 105.336 53 106.25H52.9688V104.875H51.6797V115.711H53.0391V111.68H53.0703C53.5547 112.57 54.4922 113.141 55.6562 113.141C57.7031 113.141 59.1016 111.484 59.1016 108.937C59.1016 106.391 57.6953 104.734 55.625 104.734ZM55.3594 111.945C53.9688 111.945 53.0312 110.75 53.0312 108.937C53.0312 107.133 53.9688 105.93 55.3594 105.93C56.8047 105.93 57.7109 107.101 57.7109 108.937C57.7109 110.781 56.8047 111.945 55.3594 111.945ZM67.5625 113H68.9062V104.875H67.5625V113ZM63.4688 108.586C64.5156 108.586 65.2031 109.234 65.2031 110.234C65.2031 111.226 64.5234 111.883 63.4688 111.883H61.9531V108.586H63.4688ZM60.6094 113H63.4922C65.3516 113 66.5469 111.93 66.5469 110.234C66.5469 108.539 65.3516 107.469 63.4922 107.469H61.9531V104.875H60.6094V113ZM75.4375 113L79.5 106.953H79.5625V113H80.9062V104.875H79.5625L75.5 110.922H75.4375V104.875H74.0938V113H75.4375ZM89.3828 105.976C90.2344 105.976 90.6953 106.375 90.6953 107.094C90.6953 107.875 90.2031 108.25 89.1797 108.25H87.4375V105.976H89.3828ZM89.2891 109.344C90.4766 109.344 91.0469 109.766 91.0469 110.633C91.0469 111.453 90.5156 111.898 89.5312 111.898H87.4375V109.344H89.2891ZM86.0938 113H89.5938C91.3203 113 92.3828 112.101 92.3828 110.664C92.3828 109.648 91.7109 108.906 90.6875 108.766V108.703C91.4375 108.547 92.0234 107.781 92.0234 106.953C92.0234 105.664 91.0938 104.875 89.5703 104.875H86.0938V113ZM96.6953 108.719L100.492 104.875H98.8125L95.3438 108.469H95.2812V104.875H93.9375V113H95.2812V109.094H95.3438L98.8516 113H100.602L96.6953 108.719ZM103.828 109.414L104.078 105.992H106.844V113H108.188V104.875H102.867L102.555 109.383C102.453 110.875 102.148 111.82 101.344 111.82C101.148 111.82 101 111.781 100.93 111.758V112.984C101.023 113.023 101.18 113.07 101.414 113.07C103.125 113.07 103.664 111.656 103.828 109.414ZM112.797 111.984C111.82 111.984 111.172 111.476 111.172 110.703C111.172 109.937 111.797 109.453 112.891 109.383L115.062 109.25V109.914C115.062 111.086 114.078 111.984 112.797 111.984ZM112.492 113.141C113.586 113.141 114.617 112.531 115.102 111.601H115.133V113H116.422V107.383C116.422 105.766 115.219 104.734 113.312 104.734C111.391 104.734 110.188 105.812 110.094 107.219H111.406C111.578 106.422 112.234 105.93 113.281 105.93C114.406 105.93 115.062 106.523 115.062 107.516V108.195L112.734 108.328C110.859 108.437 109.789 109.312 109.789 110.703C109.789 112.164 110.875 113.141 112.492 113.141ZM123.688 111.883H119.727V111.82C120.109 111.305 120.32 110.422 120.391 109.414L120.641 105.992H123.688V111.883ZM118.758 115.148V113H125.062V115.148H126.328V111.883H125.039V104.875H119.445L119.133 109.383C119.055 110.476 118.766 111.492 118.172 111.883H117.492V115.148H118.758ZM134.5 113H135.844V104.875H134.5V113ZM130.406 108.586C131.453 108.586 132.141 109.234 132.141 110.234C132.141 111.226 131.461 111.883 130.406 111.883H128.891V108.586H130.406ZM127.547 113H130.43C132.289 113 133.484 111.93 133.484 110.234C133.484 108.539 132.289 107.469 130.43 107.469H128.891V104.875H127.547V113ZM141.039 105.976C141.891 105.976 142.352 106.375 142.352 107.094C142.352 107.875 141.859 108.25 140.836 108.25H139.094V105.976H141.039ZM140.945 109.344C142.133 109.344 142.703 109.766 142.703 110.633C142.703 111.453 142.172 111.898 141.188 111.898H139.094V109.344H140.945ZM137.75 113H141.25C142.977 113 144.039 112.101 144.039 110.664C144.039 109.648 143.367 108.906 142.344 108.766V108.703C143.094 108.547 143.68 107.781 143.68 106.953C143.68 105.664 142.75 104.875 141.227 104.875H137.75V113ZM148.281 111.984C147.305 111.984 146.656 111.476 146.656 110.703C146.656 109.937 147.281 109.453 148.375 109.383L150.547 109.25V109.914C150.547 111.086 149.562 111.984 148.281 111.984ZM147.977 113.141C149.07 113.141 150.102 112.531 150.586 111.601H150.617V113H151.906V107.383C151.906 105.766 150.703 104.734 148.797 104.734C146.875 104.734 145.672 105.812 145.578 107.219H146.891C147.062 106.422 147.719 105.93 148.766 105.93C149.891 105.93 150.547 106.523 150.547 107.516V108.195L148.219 108.328C146.344 108.437 145.273 109.312 145.273 110.703C145.273 112.164 146.359 113.141 147.977 113.141ZM157.047 105.914C158.328 105.914 159.18 106.883 159.211 108.242H154.797C154.883 106.891 155.773 105.914 157.047 105.914ZM159.18 110.672C158.953 111.437 158.195 111.961 157.164 111.961C155.703 111.961 154.789 110.937 154.789 109.383V109.305H160.617V108.789C160.617 106.328 159.266 104.734 157.07 104.734C154.828 104.734 153.391 106.445 153.391 108.969C153.391 111.523 154.805 113.141 157.133 113.141C158.906 113.141 160.281 112.094 160.516 110.672H159.18ZM167.758 104.875H161.164V105.992H163.789V113H165.133V105.992H167.758V104.875ZM175.586 105.976C176.438 105.976 176.898 106.375 176.898 107.094C176.898 107.875 176.406 108.25 175.383 108.25H173.641V105.976H175.586ZM175.492 109.344C176.68 109.344 177.25 109.766 177.25 110.633C177.25 111.453 176.719 111.898 175.734 111.898H173.641V109.344H175.492ZM172.297 113H175.797C177.523 113 178.586 112.101 178.586 110.664C178.586 109.648 177.914 108.906 176.891 108.766V108.703C177.641 108.547 178.227 107.781 178.227 106.953C178.227 105.664 177.297 104.875 175.773 104.875H172.297V113ZM188.773 113H190.117V104.875H188.773V108.226H184.766V104.875H183.422V113H184.766V109.344H188.773V113ZM193.375 113L197.438 106.953H197.5V113H198.844V104.875H197.5L193.438 110.922H193.375V104.875H192.031V113H193.375ZM203.633 109.906L205.578 113H207.086L204.383 108.883L207.125 104.875H205.609L203.68 107.922H203.648L201.695 104.875H200.18L202.898 108.937L200.133 113H201.641L203.602 109.906H203.633ZM217.078 111.883H213.117V111.82C213.5 111.305 213.711 110.422 213.781 109.414L214.031 105.992H217.078V111.883ZM212.148 115.148V113H218.453V115.148H219.719V111.883H218.43V104.875H212.836L212.523 109.383C212.445 110.476 212.156 111.492 211.562 111.883H210.883V115.148H212.148ZM224.203 105.914C225.484 105.914 226.336 106.883 226.367 108.242H221.953C222.039 106.891 222.93 105.914 224.203 105.914ZM226.336 110.672C226.109 111.437 225.352 111.961 224.32 111.961C222.859 111.961 221.945 110.937 221.945 109.383V109.305H227.773V108.789C227.773 106.328 226.422 104.734 224.227 104.734C221.984 104.734 220.547 106.445 220.547 108.969C220.547 111.523 221.961 113.141 224.289 113.141C226.062 113.141 227.438 112.094 227.672 110.672H226.336ZM234.633 113H235.977V104.875H234.633V108.226H230.625V104.875H229.281V113H230.625V109.344H234.633V113ZM240.75 108.586C241.797 108.586 242.484 109.234 242.484 110.234C242.484 111.226 241.805 111.883 240.75 111.883H239.234V108.586H240.75ZM237.891 113H240.773C242.633 113 243.828 111.93 243.828 110.234C243.828 108.539 242.633 107.469 240.773 107.469H239.234V104.875H237.891V113ZM250.539 105.992V104.875H245.312V113H246.656V105.992H250.539ZM253.359 113L257.422 106.953H257.484V113H258.828V104.875H257.484L253.422 110.922H253.359V104.875H252.016V113H253.359Z" fill="#222A33"/>
<path d="M27.12 146.128C27.635 146.383 27.7626 146.764 27.5051 147.275C25.4425 151.488 24.5572 155.525 24.849 159.387C25.1384 163.248 26.2175 166.728 28.0863 169.824C29.9551 172.917 32.5302 175.678 35.8162 178.105C40.324 181.362 45.5107 183.61 51.3723 184.856C57.2337 186.101 62.9333 186.055 68.4734 184.713C67.4409 184.392 64.2551 182.99 58.9064 180.499C58.3913 180.31 58.2466 179.94 58.4723 179.398C58.6979 178.854 59.1001 178.713 59.6789 178.968C60.1939 179.16 61.1112 179.573 62.4331 180.213C63.7525 180.849 64.7531 181.313 65.4276 181.6C66.1044 181.887 66.9751 182.237 68.037 182.655C69.1014 183.068 70.0824 183.403 70.9849 183.658C71.3062 183.722 71.5318 183.914 71.6618 184.232C71.7893 184.295 71.8874 184.424 71.9512 184.616C72.0812 185.061 71.9512 185.413 71.5661 185.668L71.3724 185.858C69.1823 187.775 67.5073 189.464 66.3472 190.932C65.1871 192.4 64.3509 194.188 63.8358 196.295C63.7059 196.869 63.3527 197.092 62.7739 196.966C62.1951 196.837 61.967 196.487 62.097 195.911C62.9333 192.528 64.8022 189.464 67.701 186.721C62.1608 187.87 56.4269 187.79 50.5013 186.48C44.576 185.175 39.3276 182.83 34.7538 179.447C31.2761 176.959 28.5367 174.052 26.5404 170.735C24.544 167.415 23.384 163.68 23.0602 159.532C22.739 155.384 23.7028 151.043 25.9591 146.511C26.2166 146.001 26.6041 145.872 27.1192 146.127L27.12 146.128Z" fill="black"/>
</svg>
