<svg width="40" height="40" viewBox="0 0 40 40" fill="none" xmlns="http://www.w3.org/2000/svg">
<rect width="40" height="40" rx="20" fill="#4E555C"/>
<path fill-rule="evenodd" clip-rule="evenodd" d="M16.6837 12H24.2887C26.8715 12 28.9727 14.093 28.9726 16.6655V24.2407C28.9726 26.8132 26.8715 28.9062 24.2887 28.9062H16.6837C14.1011 28.9062 12 26.8133 12 24.2407V16.6655C12 14.093 14.1011 12 16.6837 12ZM24.2888 27.4062C26.0412 27.4062 27.4668 25.9862 27.4668 24.2407H27.4667V16.6655C27.4667 14.9201 26.0411 13.5 24.2887 13.5H16.6837C14.9315 13.5 13.5059 14.9201 13.5059 16.6655V24.2407C13.5059 25.9862 14.9315 27.4063 16.6837 27.4062H24.2888Z" fill="white"/>
<path fill-rule="evenodd" clip-rule="evenodd" d="M16.1129 20.4539C16.1129 18.0518 18.0748 16.0977 20.4863 16.0977C22.8979 16.0977 24.8598 18.0518 24.8598 20.4539C24.8598 22.856 22.8979 24.8101 20.4863 24.8101C18.0748 24.8101 16.1129 22.856 16.1129 20.4539ZM17.6188 20.4529C17.6188 22.0278 18.9052 23.3091 20.4863 23.3091C22.0674 23.3091 23.3539 22.0278 23.3539 20.4529C23.3539 18.8779 22.0675 17.5967 20.4863 17.5967C18.9051 17.5967 17.6188 18.8779 17.6188 20.4529Z" fill="white"/>
<path d="M25.0432 14.8252C24.753 14.8252 24.468 14.9422 24.2631 15.1472C24.0572 15.3512 23.9388 15.6352 23.9388 15.9252C23.9388 16.2143 24.0573 16.4982 24.2631 16.7032C24.4679 16.9072 24.753 17.0252 25.0432 17.0252C25.3343 17.0252 25.6184 16.9072 25.8242 16.7032C26.03 16.4982 26.1475 16.2142 26.1475 15.9252C26.1475 15.6352 26.03 15.3512 25.8242 15.1472C25.6194 14.9422 25.3343 14.8252 25.0432 14.8252Z" fill="white"/>
</svg>
