<svg width="40" height="40" viewBox="0 0 40 40" fill="none" xmlns="http://www.w3.org/2000/svg">
<rect width="40" height="40" rx="20" fill="#4E555C"/>
<path fill-rule="evenodd" clip-rule="evenodd" d="M16.6837 12H24.2887C26.8715 12 28.9727 14.093 28.9726 16.6655V24.2407C28.9726 26.8132 26.8715 28.9062 24.2887 28.9062H16.6837C14.1011 28.9062 12 26.8133 12 24.2407V16.6655C12 14.093 14.1011 12 16.6837 12ZM24.2888 27.4062C26.0412 27.4062 27.4668 25.9862 27.4668 24.2407H27.4667V16.6655C27.4667 14.9201 26.0411 13.5 24.2887 13.5H16.6837C14.9315 13.5 13.5059 14.9201 13.5059 16.6655V24.2407C13.5059 25.9862 14.9315 27.4063 16.6837 27.4062H24.2888Z" fill="white"/>
<path fill-rule="evenodd" clip-rule="evenodd" d="M16.1128 20.454C16.1128 18.0519 18.0747 16.0977 20.4862 16.0977C22.8978 16.0977 24.8596 18.0519 24.8596 20.454C24.8596 22.856 22.8978 24.8101 20.4862 24.8101C18.0747 24.8101 16.1128 22.856 16.1128 20.454ZM17.6187 20.453C17.6187 22.0279 18.9051 23.3091 20.4862 23.3091C22.0673 23.3091 23.3537 22.0279 23.3537 20.453C23.3537 18.878 22.0674 17.5967 20.4862 17.5967C18.905 17.5967 17.6187 18.878 17.6187 20.453Z" fill="white"/>
<path d="M25.0433 14.8252C24.7532 14.8252 24.4681 14.9422 24.2632 15.1472C24.0573 15.3512 23.939 15.6352 23.939 15.9252C23.939 16.2143 24.0574 16.4982 24.2632 16.7032C24.468 16.9072 24.7532 17.0252 25.0433 17.0252C25.3344 17.0252 25.6185 16.9072 25.8243 16.7032C26.0302 16.4982 26.1476 16.2142 26.1476 15.9252C26.1476 15.6352 26.0302 15.3512 25.8243 15.1472C25.6195 14.9422 25.3344 14.8252 25.0433 14.8252Z" fill="white"/>
</svg>
