<svg width="157" height="41" viewBox="0 0 157 41" fill="none" xmlns="http://www.w3.org/2000/svg">
<path d="M3.98096 38.4049H1.86142L1.417 39.8923H0.109375L2.20043 33.7539H3.69607L5.78998 39.8923H4.43678L3.98096 38.4049ZM2.13491 37.4434H3.69607L2.92404 34.9276H2.8927L2.13491 37.4434Z" fill="#BFC2CA"/>
<path d="M12.0262 39.8923V35.7497H11.9949L10.3568 39.8342H9.56482L7.92958 35.7497H7.8954V39.8923H6.77295V33.7539H8.23441L9.94372 38.1115H9.9779L11.6872 33.7539H13.1458V39.8923H12.0262Z" fill="#BFC2CA"/>
<path d="M18.0174 38.4049H15.9007L15.4421 39.8923H14.1487L16.2312 33.7539H17.7126L19.8065 39.8923H18.4675L18.0174 38.4049ZM16.1714 37.4434H17.7468L16.9747 34.9276H16.9434L16.1714 37.4434Z" fill="#BFC2CA"/>
<path d="M20.7495 39.0558L23.8063 34.8609V34.826H20.8179V33.7686H25.3134V34.6023L22.2679 38.8147V38.8437H25.4017V39.907H20.7495V39.0558Z" fill="#BFC2CA"/>
<path d="M32.0251 36.8246C32.0251 38.7798 30.9027 39.9999 29.1221 39.9999C27.3416 39.9999 26.2163 38.7798 26.2163 36.8246C26.2163 34.8695 27.3359 33.6465 29.1221 33.6465C30.9084 33.6465 32.0251 34.8608 32.0251 36.8246ZM27.5011 36.8246C27.5011 38.1116 28.1336 38.9221 29.1221 38.9221C30.1107 38.9221 30.7374 38.1116 30.7374 36.8246C30.7374 35.5377 30.1078 34.7185 29.1221 34.7185C28.1364 34.7185 27.5011 35.5348 27.5011 36.8246Z" fill="#BFC2CA"/>
<path d="M33.2729 39.8923V33.7539H34.327L37.1388 37.7658H37.173V33.7539H38.3781V39.8923H37.3354L34.5179 35.8717H34.4809V39.8923H33.2729Z" fill="#BFC2CA"/>
<path d="M41.9248 39.8923V33.7539H43.184V39.8923H41.9248Z" fill="#BFC2CA"/>
<path d="M44.6685 39.8923V33.7539H45.7197L48.5315 37.7658H48.5657V33.7539H49.7707V39.8923H48.7281L45.9106 35.8717H45.8735V39.8923H44.6685Z" fill="#BFC2CA"/>
<path d="M52.7932 39.8923L50.7705 33.7539H52.1807L53.551 38.5705H53.5795L54.9754 33.7539H56.3486L54.323 39.8923H52.7932Z" fill="#BFC2CA"/>
<path d="M61.3255 39.8923H57.3372V33.7539H61.3255V34.8114H58.5964V36.2929H61.1603V37.2807H58.5964V38.8291H61.3255V39.8923Z" fill="#BFC2CA"/>
<path d="M63.5705 38.1435C63.6304 38.6519 64.1403 38.9831 64.8155 38.9831C65.4907 38.9831 65.955 38.6548 65.955 38.2045C65.955 37.8036 65.6701 37.5829 64.9408 37.4173L64.1546 37.243C63.0464 36.9989 62.4994 36.4266 62.4994 35.5261C62.4994 34.396 63.4594 33.6465 64.8012 33.6465C66.2057 33.6465 67.0803 34.3815 67.106 35.4941H65.9151C65.8753 34.9741 65.428 34.6604 64.7984 34.6604C64.1688 34.6604 63.7586 34.9509 63.7586 35.4157C63.7586 35.7962 64.0434 35.9967 64.7443 36.171L65.4736 36.3279C66.6786 36.5922 67.2057 37.118 67.2057 38.0709C67.2057 39.262 66.2599 40.0144 64.7642 40.0144C63.317 40.0144 62.394 39.3114 62.3569 38.1581L63.5705 38.1435Z" fill="#BFC2CA"/>
<path d="M69.7666 39.8923V34.8114H68.0288V33.7539H72.7721V34.8114H71.0286V39.8923H69.7666Z" fill="#BFC2CA"/>
<path d="M73.8091 39.8923V33.7539H75.0683V39.8923H73.8091Z" fill="#BFC2CA"/>
<path d="M76.5527 39.8923V33.7539H77.604L80.4158 37.7658H80.45V33.7539H81.655V39.8923H80.6152L77.7977 35.8717H77.7663V39.8923H76.5527Z" fill="#BFC2CA"/>
<path d="M85.8056 39.9999C84.008 39.9999 82.9055 38.8001 82.9055 36.8043C82.9055 34.8085 84.008 33.6465 85.7771 33.6465C87.1816 33.6465 88.2414 34.4948 88.4209 35.7352H87.1674C87.0866 35.4297 86.9058 35.1614 86.655 34.9749C86.4043 34.7884 86.0986 34.6949 85.7885 34.7097C84.7943 34.7097 84.1989 35.4796 84.1989 36.7869C84.1989 38.0942 84.8342 38.9308 85.8341 38.9308C86.6574 38.9308 87.2272 38.4166 87.2586 37.6555V37.5567H85.9481V36.6213H88.4836V37.3156C88.475 38.986 87.4836 39.9999 85.8056 39.9999Z" fill="#BFC2CA"/>
<path d="M12.163 10.4986C12.2997 9.20103 13.1971 8.55223 14.8551 8.55223C15.5206 8.52597 16.1863 8.5964 16.8322 8.7614C17.0248 8.81175 17.2049 8.90265 17.3609 9.02823C17.5169 9.15381 17.6454 9.3113 17.7382 9.49057C17.8876 9.77887 17.9905 10.0898 18.043 10.4115C18.0838 10.8129 18.101 11.2165 18.0943 11.62V23.7777C18.1008 24.1803 18.0837 24.5829 18.043 24.9833C17.993 25.3029 17.897 25.6132 17.7581 25.9042C17.4391 26.5085 16.6613 26.8077 15.4221 26.8077C14.1828 26.8077 13.3538 26.6509 12.9322 26.34C12.721 26.1776 12.5463 25.9709 12.42 25.7339C12.2938 25.4969 12.2187 25.235 12.2 24.9659C11.3587 26.1957 9.95513 26.8097 7.98942 26.8077C6.02372 26.8058 4.19951 25.8888 2.51679 24.0566C0.899792 22.3477 -0.00265195 20.0648 5.85402e-06 17.6901C0.00266366 15.3154 0.910215 13.0346 2.53103 11.3295C4.22704 9.51091 6.08544 8.60162 8.10623 8.60162C8.83039 8.58885 9.54955 8.72623 10.2201 9.00542C10.7026 9.19107 11.152 9.45603 11.5505 9.78979C11.7769 10.0051 11.982 10.2425 12.163 10.4986ZM5.95819 17.7206C5.96211 18.1084 6.04258 18.4914 6.1948 18.8468C6.34702 19.2022 6.56787 19.5226 6.84419 19.7891C7.12053 20.0854 7.45404 20.3202 7.82372 20.4787C8.19339 20.6372 8.59124 20.7159 8.99222 20.71C9.38936 20.722 9.78424 20.6449 10.149 20.4843C10.5137 20.3237 10.8395 20.0834 11.1032 19.7803C11.6237 19.2252 11.9171 18.4887 11.9237 17.7206C11.9147 16.944 11.6303 16.1969 11.1232 15.6174C10.862 15.2984 10.5325 15.0448 10.1601 14.8761C9.78771 14.7074 9.38231 14.628 8.97512 14.6442C8.56329 14.6306 8.15368 14.7109 7.77616 14.8793C7.39864 15.0477 7.06273 15.2998 6.79291 15.6174C6.26921 16.1891 5.97183 16.9384 5.95819 17.7206Z" fill="#EFEFE8"/>
<path d="M26.8602 10.984C27.9295 9.33972 29.2134 8.51758 30.7119 8.51758C33.0232 8.51758 34.7487 9.52564 35.8882 11.5418C36.1695 11.1623 36.473 10.8004 36.797 10.4582C37.2991 9.96256 37.8668 9.54111 38.4835 9.20608C39.2067 8.76938 40.0304 8.53583 40.8709 8.5292C41.7388 8.51699 42.5985 8.70263 43.3871 9.07255C44.1757 9.44246 44.8733 9.98732 45.429 10.6673C46.6654 12.0773 47.2836 14.4284 47.2836 17.7209V23.8215C47.2899 24.2221 47.2728 24.6228 47.2323 25.0213C47.1783 25.3455 47.0684 25.6573 46.9076 25.9422C46.6113 26.5678 45.7367 26.8806 44.2838 26.8806C42.8309 26.8806 41.9553 26.5562 41.6571 25.9074C41.5173 25.6168 41.4212 25.3063 41.3722 24.9865C41.333 24.5878 41.3169 24.1872 41.3238 23.7867V17.6947C41.3238 15.6786 40.6192 14.6705 39.21 14.6705C38.4123 14.6705 37.8739 14.9378 37.589 15.4694C37.2683 16.1732 37.1197 16.9457 37.156 17.7209V23.8215C37.1631 24.2279 37.146 24.6344 37.1047 25.0387C37.0484 25.3568 36.9385 25.6625 36.7799 25.9422C36.4608 26.5678 35.5748 26.8806 34.1219 26.8806C32.669 26.8806 31.7935 26.5562 31.4953 25.9074C31.3554 25.6168 31.2594 25.3063 31.2104 24.9865C31.1699 24.5879 31.1528 24.1873 31.1591 23.7867V17.6947C31.1591 15.6786 30.4555 14.6705 29.0481 14.6705C27.6845 14.6705 27.0027 15.6786 27.0027 17.6947V23.8477C27.009 24.2483 26.9919 24.6489 26.9514 25.0475C26.8974 25.3716 26.7874 25.6834 26.6266 25.9684C26.2848 26.5726 25.3988 26.8738 23.9686 26.8719C22.5385 26.8699 21.663 26.5571 21.342 25.9335C21.2041 25.6482 21.1081 25.3438 21.0571 25.03C21.0123 24.6289 20.9914 24.2253 20.9944 23.8215V11.5766C20.9881 11.176 21.0052 10.7754 21.0457 10.3768C21.0987 10.0679 21.2089 9.77212 21.3705 9.5053C21.7124 8.87781 22.51 8.56696 23.792 8.56696C25.074 8.56696 25.8945 8.77613 26.2791 9.19156C26.6923 9.69021 26.9005 10.3324 26.8602 10.984Z" fill="#EFEFE8"/>
<path d="M61.1716 10.499C61.3084 9.20138 62.2067 8.55258 63.8667 8.55258C64.5321 8.52671 65.1977 8.59713 65.8438 8.76175C66.0358 8.81247 66.2153 8.90353 66.3708 9.02909C66.5263 9.15466 66.6544 9.31196 66.7468 9.49092C66.8987 9.77812 67.0018 10.0895 67.0517 10.4118C67.0921 10.8104 67.1093 11.211 67.1029 11.6116V23.7781C67.1093 24.1787 67.0921 24.5793 67.0517 24.9779C67.003 25.2978 66.9069 25.6083 66.7668 25.8988C66.4477 26.503 65.67 26.8023 64.4307 26.8023C63.1915 26.8023 62.3625 26.6454 61.9408 26.3346C61.7296 26.1721 61.555 25.9655 61.4287 25.7284C61.3024 25.4914 61.2274 25.2295 61.2087 24.9605C60.3673 26.1903 58.9638 26.8042 56.9981 26.8023C55.0324 26.8003 53.2091 25.8852 51.5283 24.057C49.8921 22.3502 48.9847 20.0526 49.0042 17.6658C49.0006 16.4905 49.2242 15.326 49.6622 14.2388C50.1002 13.1516 50.744 12.1631 51.5568 11.3298C53.249 9.51126 55.1064 8.60197 57.1291 8.60197C57.8485 8.59116 58.5626 8.72851 59.2287 9.00577C59.7112 9.19142 60.1606 9.45638 60.5591 9.79014C60.7864 10.0046 60.9916 10.2421 61.1716 10.499ZM54.9754 17.721C54.9793 18.1088 55.0598 18.4918 55.212 18.8471C55.3642 19.2025 55.5851 19.523 55.8614 19.7894C56.1377 20.0858 56.4712 20.3206 56.8409 20.479C57.2106 20.6375 57.6084 20.7163 58.0094 20.7103C58.4037 20.7198 58.7953 20.6415 59.1569 20.4809C59.5185 20.3204 59.8415 20.0814 60.1033 19.7807C60.629 19.2281 60.9267 18.4909 60.9352 17.721C60.9272 16.9436 60.6416 16.1958 60.1318 15.6177C59.8706 15.2988 59.5412 15.0452 59.1688 14.8765C58.7964 14.7077 58.391 14.6284 57.9838 14.6445C57.5723 14.6306 57.163 14.7107 56.7859 14.8791C56.4088 15.0475 56.0734 15.2999 55.8044 15.6177C55.2819 16.1897 54.9864 16.9393 54.9754 17.721Z" fill="#EFEFE8"/>
<path d="M78.7236 20.7541H84.5552C85.4649 20.7541 86.1183 20.8703 86.5152 21.1027C86.8993 21.3212 87.186 21.6822 87.3157 22.1108C87.469 22.6781 87.5381 23.2656 87.5208 23.8538C87.5381 24.442 87.469 25.0295 87.3157 25.5969C87.2642 25.7908 87.1739 25.9718 87.0503 26.1283C86.9267 26.2848 86.7727 26.4135 86.5978 26.5062C86.3147 26.6606 86.0087 26.7666 85.6919 26.8199C85.302 26.8612 84.9101 26.8787 84.5182 26.8722H72.2111C71.8224 26.8743 71.4373 26.7952 71.0797 26.6398C70.722 26.4844 70.3993 26.256 70.1315 25.9687C69.8484 25.6912 69.6241 25.3576 69.4722 24.9884C69.3203 24.6192 69.2441 24.2222 69.2484 23.8219C69.2426 23.4223 69.3184 23.0259 69.4709 22.6578C69.6234 22.2897 69.8494 21.958 70.1343 21.6837C70.7231 21.1027 71.6319 20.2515 72.8607 19.1302C74.0895 18.0088 75.2034 17.0056 76.2024 16.1205C77.2014 15.2296 77.7465 14.7377 77.8376 14.6447H73.0316C71.7363 14.6447 70.9178 14.4249 70.5759 13.9853C70.1672 13.392 69.9665 12.6756 70.0061 11.9517C69.9848 11.3271 70.0423 10.7022 70.1771 10.0925C70.2534 9.76697 70.3919 9.45998 70.5845 9.18899C70.7687 8.97517 71.0043 8.81398 71.2682 8.72127C71.8487 8.58364 72.4445 8.52503 73.0402 8.54697H84.1193C84.5053 8.5444 84.888 8.62014 85.245 8.76975C85.602 8.91937 85.9263 9.13989 86.199 9.41849C86.4871 9.69763 86.7148 10.0352 86.8674 10.4094C87.02 10.7836 87.0941 11.1863 87.085 11.5915C87.0832 12.0302 86.9912 12.4637 86.8151 12.864C86.6389 13.2643 86.3825 13.6225 86.0622 13.9155C85.3766 14.5818 82.9304 16.8613 78.7236 20.7541Z" fill="#EFEFE8"/>
<path d="M116.451 5.16232C116.356 5.3375 116.227 5.49102 116.072 5.61342C115.916 5.73583 115.738 5.82453 115.548 5.87406C114.991 6.02905 114.415 6.09953 113.838 6.08323C113.257 6.10084 112.676 6.03035 112.115 5.87406C111.923 5.82334 111.743 5.73228 111.588 5.60672C111.432 5.48115 111.304 5.32385 111.212 5.14489C111.062 4.85659 110.96 4.54564 110.907 4.22398C110.867 3.82544 110.849 3.4248 110.856 3.02418C110.85 2.62357 110.867 2.22293 110.907 1.82439C110.954 1.51507 111.05 1.2157 111.192 0.93834C111.509 0.31278 112.393 0 113.844 0C115.295 0 116.158 0.31278 116.434 0.93834C116.594 1.22352 116.704 1.53524 116.759 1.85925C116.799 2.25779 116.816 2.65843 116.81 3.05905C116.816 3.45966 116.799 3.86031 116.759 4.25884C116.708 4.57576 116.603 4.88138 116.451 5.16232ZM110.844 11.6203C110.838 11.2197 110.855 10.819 110.896 10.4205C110.944 10.1006 111.04 9.79008 111.181 9.4996C111.5 8.89534 112.387 8.59418 113.841 8.59612C114.933 8.59612 115.705 8.78979 116.157 9.17714C116.361 9.36536 116.522 9.59692 116.628 9.85544C116.735 10.114 116.784 10.3931 116.773 10.6733C116.796 10.9057 116.807 11.2397 116.807 11.6813V23.8478C116.813 24.2484 116.796 24.649 116.756 25.0476C116.702 25.3717 116.592 25.6835 116.431 25.9685C116.135 26.5727 115.26 26.8739 113.807 26.872C112.354 26.87 111.479 26.5572 111.181 25.9336C111.042 25.6484 110.946 25.344 110.896 25.0301C110.854 24.6258 110.837 24.2193 110.844 23.8129V11.6203Z" fill="#EFEFE8"/>
<path d="M129.678 8.55286C130.759 8.53379 131.831 8.76277 132.814 9.22287C133.796 9.68297 134.665 10.3624 135.356 11.211C136.875 12.9831 137.635 15.1445 137.635 17.6951V23.8219C137.641 24.2226 137.624 24.6232 137.584 25.0217C137.536 25.3308 137.44 25.63 137.299 25.9078C136.98 26.5314 136.093 26.8442 134.638 26.8461C133.025 26.8461 132.094 26.4171 131.843 25.5592C131.683 24.9833 131.614 24.3851 131.638 23.7871V17.6603C131.672 17.2558 131.62 16.8485 131.484 16.4668C131.348 16.0852 131.133 15.7383 130.852 15.4504C130.571 15.1625 130.232 14.9404 129.859 14.7998C129.485 14.6592 129.086 14.6033 128.689 14.6361C128.285 14.6157 127.881 14.6791 127.502 14.8224C127.122 14.9657 126.775 15.1859 126.482 15.4698C126.202 15.7567 125.984 16.0993 125.84 16.4762C125.696 16.8531 125.631 17.2562 125.647 17.6603V23.8219C125.653 24.2226 125.636 24.6232 125.596 25.0217C125.544 25.3357 125.434 25.6366 125.271 25.9078C124.986 26.5324 124.1 26.8461 122.647 26.8461C121.194 26.8461 120.339 26.5324 120.023 25.9078C119.883 25.6172 119.787 25.3067 119.738 24.9869C119.698 24.5883 119.681 24.1877 119.687 23.7871V11.4725C119.681 11.0844 119.698 10.6964 119.738 10.3104C119.791 10.0015 119.902 9.70572 120.063 9.43891C120.378 8.85789 121.253 8.56738 122.687 8.56738C124.071 8.56738 124.926 8.83465 125.251 9.36628C125.489 9.80154 125.607 10.2945 125.593 10.7927C125.762 10.5291 125.965 10.2898 126.197 10.0809C126.479 9.80791 126.788 9.5637 127.117 9.35175C127.87 8.82477 128.764 8.54596 129.678 8.55286Z" fill="#EFEFE8"/>
<path d="M151.164 24.5767C150.298 25.7387 148.923 26.3197 147.039 26.3197C145.155 26.3197 143.388 25.4327 141.737 23.6587C140.149 21.9948 139.261 19.7634 139.264 17.4412C139.268 15.119 140.161 12.8901 141.754 11.2308C143.412 9.44703 145.23 8.55518 147.207 8.55518C147.934 8.54578 148.654 8.6933 149.321 8.98803C149.799 9.1785 150.243 9.44953 150.634 9.78983C150.846 9.99539 151.037 10.2222 151.204 10.4667C151.218 10.1852 151.286 9.90937 151.406 9.65542C151.526 9.40146 151.695 9.17455 151.902 8.98803C152.298 8.65395 152.942 8.48545 153.828 8.48545C154.482 8.4575 155.137 8.52798 155.771 8.69462C155.955 8.74761 156.127 8.83794 156.276 8.96024C156.425 9.08253 156.549 9.23426 156.639 9.40636C156.79 9.68204 156.894 9.98157 156.947 10.2924C156.988 10.6851 157.005 11.08 156.998 11.4748V25.8549C156.998 28.5179 156.089 30.6677 154.269 32.3042C152.6 33.8817 150.409 34.7593 148.133 34.7619C146.405 34.7625 144.704 34.321 143.187 33.4778C141.62 32.6179 140.837 31.8432 140.837 31.1538C140.839 30.7043 140.932 30.2601 141.108 29.8484C141.285 29.4368 141.543 29.0664 141.865 28.76C142.173 28.3962 142.509 28.059 142.871 27.7519C143.111 27.5661 143.405 27.4688 143.706 27.4759C144.069 27.4955 144.415 27.6411 144.686 27.8885C145.69 28.7142 146.94 29.168 148.23 29.1754C148.638 29.1844 149.042 29.0946 149.41 28.9133C149.777 28.732 150.097 28.4644 150.344 28.1325C150.896 27.4213 151.186 26.5352 151.164 25.6283V24.5767ZM145.093 17.468C145.096 17.8494 145.175 18.2261 145.325 18.5756C145.475 18.9251 145.693 19.2401 145.965 19.5015C146.237 19.7932 146.565 20.0241 146.929 20.1796C147.293 20.3351 147.684 20.4119 148.079 20.405C148.468 20.4146 148.854 20.3371 149.21 20.178C149.567 20.0189 149.884 19.782 150.141 19.4841C150.657 18.9434 150.949 18.2219 150.959 17.468C150.948 16.7105 150.67 15.9824 150.175 15.417C149.918 15.1032 149.594 14.8539 149.228 14.6882C148.861 14.5225 148.462 14.4448 148.062 14.4612C147.658 14.4457 147.256 14.5216 146.885 14.6833C146.513 14.8451 146.182 15.0887 145.914 15.3966C145.393 15.9561 145.099 16.6964 145.093 17.468Z" fill="#EFEFE8"/>
<path d="M101.859 26.9186C101.753 27.1112 101.611 27.2801 101.439 27.4149C101.268 27.5497 101.071 27.6477 100.862 27.7029C99.6138 28.0089 98.3124 28.0089 97.0644 27.7029C96.853 27.6465 96.6554 27.5457 96.4842 27.4072C96.3131 27.2687 96.172 27.0953 96.0701 26.8982C95.9028 26.5807 95.7882 26.2372 95.7311 25.8814C95.6866 25.4424 95.6675 25.001 95.6741 24.5596C95.6676 24.1183 95.6866 23.6769 95.7311 23.2378C95.7833 22.8957 95.8912 22.5648 96.0502 22.2588C96.4015 21.5693 97.3787 21.2246 98.9816 21.2246C100.585 21.2246 101.534 21.5693 101.83 22.2588C102.007 22.5738 102.127 22.918 102.187 23.2756C102.233 23.7146 102.252 24.156 102.244 24.5974C102.252 25.0398 102.233 25.4822 102.187 25.9221C102.134 26.2709 102.023 26.608 101.859 26.9186Z" fill="#FF4F45"/>
<path d="M90.9097 6.00213L90.2389 6.68618C89.1119 7.83544 89.1119 9.69874 90.2389 10.848L96.9188 17.6597C98.0458 18.809 99.873 18.809 101 17.6597L101.671 16.9757C102.798 15.8264 102.798 13.9631 101.671 12.8139L94.9909 6.00213C93.8639 4.85288 92.0367 4.85288 90.9097 6.00213Z" fill="url(#paint0_linear)"/>
<path d="M107.688 6.70099L107.017 6.01694C105.89 4.86769 104.063 4.86769 102.936 6.01694L96.2563 12.8287C95.1293 13.9779 95.1293 15.8412 96.2563 16.9905L96.9271 17.6745C98.0541 18.8238 99.8814 18.8238 101.008 17.6745L107.688 10.8628C108.815 9.71354 108.815 7.85024 107.688 6.70099Z" fill="url(#paint1_linear)"/>
<path d="M101.668 16.9747L100.999 17.6603C100.477 18.1914 99.7766 18.4993 99.0399 18.5209C98.3033 18.5425 97.5863 18.2762 97.0359 17.7765L96.9305 17.6719L96.2582 16.9863C95.9901 16.7132 95.7775 16.389 95.6324 16.0321C95.4873 15.6752 95.4126 15.2926 95.4126 14.9062C95.4126 14.5199 95.4873 14.1373 95.6324 13.7804C95.7775 13.4235 95.9901 13.0992 96.2582 12.8262L98.9703 10.0635L101.668 12.8146C101.936 13.0876 102.149 13.4119 102.294 13.7688C102.439 14.1257 102.514 14.5083 102.514 14.8946C102.514 15.281 102.439 15.6636 102.294 16.0205C102.149 16.3774 101.936 16.7016 101.668 16.9747Z" fill="url(#paint2_linear)"/>
<defs>
<linearGradient id="paint0_linear" x1="95.9546" y1="18.5225" x2="95.9546" y2="5.14175" gradientUnits="userSpaceOnUse">
<stop stop-color="#278DCC"/>
<stop offset="1" stop-color="#93BFE4"/>
</linearGradient>
<linearGradient id="paint1_linear" x1="95.4116" y1="11.8442" x2="108.533" y2="11.8442" gradientUnits="userSpaceOnUse">
<stop stop-color="#F46A4F"/>
<stop offset="0.41" stop-color="#F78154"/>
<stop offset="1" stop-color="#FDA95D"/>
</linearGradient>
<linearGradient id="paint2_linear" x1="95.4121" y1="14.2933" x2="102.514" y2="14.2933" gradientUnits="userSpaceOnUse">
<stop stop-color="#2B5A3F"/>
<stop offset="0.63" stop-color="#2B4337"/>
<stop offset="1" stop-color="#2B3431"/>
</linearGradient>
</defs>
</svg>
