<svg width="112" height="29" viewBox="0 0 112 29" fill="none" xmlns="http://www.w3.org/2000/svg">
<path d="M2.84002 27.3973H1.32799L1.01095 28.4584H0.078125L1.56983 24.0794H2.63679L4.13053 28.4584H3.16519L2.84002 27.3973ZM1.52309 26.7113H2.63679L2.08604 24.9166H2.06368L1.52309 26.7113Z" fill="#BFC2CA"/>
<path d="M8.57923 28.4584V25.5031H8.55687L7.3883 28.4169H6.82332L5.65678 25.5031H5.63239V28.4584H4.83167V24.0794H5.87424L7.09362 27.188H7.118L8.33739 24.0794H9.37792V28.4584H8.57923Z" fill="#BFC2CA"/>
<path d="M12.8531 27.3973H11.3431L11.0159 28.4584H10.0933L11.5789 24.0794H12.6357L14.1294 28.4584H13.1742L12.8531 27.3973ZM11.5362 26.7113H12.6601L12.1093 24.9166H12.0869L11.5362 26.7113Z" fill="#BFC2CA"/>
<path d="M14.8022 27.8615L16.9829 24.869V24.8441H14.851V24.0898H18.058V24.6845L15.8855 27.6895V27.7103H18.121V28.4688H14.8022V27.8615Z" fill="#BFC2CA"/>
<path d="M22.846 26.2699C22.846 27.6647 22.0453 28.5351 20.7751 28.5351C19.5049 28.5351 18.7021 27.6647 18.7021 26.2699C18.7021 24.8752 19.5008 24.0027 20.7751 24.0027C22.0493 24.0027 22.846 24.869 22.846 26.2699ZM19.6187 26.2699C19.6187 27.188 20.0699 27.7662 20.7751 27.7662C21.4803 27.7662 21.9274 27.188 21.9274 26.2699C21.9274 25.3518 21.4783 24.7674 20.7751 24.7674C20.0719 24.7674 19.6187 25.3498 19.6187 26.2699Z" fill="#BFC2CA"/>
<path d="M23.7361 28.4584V24.0794H24.488L26.4939 26.9414H26.5183V24.0794H27.378V28.4584H26.6341L24.6242 25.5902H24.5978V28.4584H23.7361Z" fill="#BFC2CA"/>
<path d="M29.9082 28.4584V24.0794H30.8065V28.4584H29.9082Z" fill="#BFC2CA"/>
<path d="M31.8655 28.4584V24.0794H32.6154L34.6213 26.9414H34.6457V24.0794H35.5053V28.4584H34.7615L32.7516 25.5902H32.7251V28.4584H31.8655Z" fill="#BFC2CA"/>
<path d="M37.6614 28.4584L36.2185 24.0794H37.2245L38.202 27.5154H38.2224L39.2182 24.0794H40.1978L38.7528 28.4584H37.6614Z" fill="#BFC2CA"/>
<path d="M43.7483 28.4584H40.9031V24.0794H43.7483V24.8337H41.8014V25.8907H43.6304V26.5953H41.8014V27.6999H43.7483V28.4584Z" fill="#BFC2CA"/>
<path d="M45.3496 27.2108C45.3923 27.5735 45.7561 27.8097 46.2378 27.8097C46.7194 27.8097 47.0507 27.5755 47.0507 27.2543C47.0507 26.9683 46.8475 26.8108 46.3272 26.6927L45.7663 26.5683C44.9757 26.3943 44.5855 25.986 44.5855 25.3436C44.5855 24.5374 45.2704 24.0027 46.2276 24.0027C47.2295 24.0027 47.8534 24.527 47.8717 25.3208H47.0222C46.9938 24.9498 46.6747 24.726 46.2256 24.726C45.7764 24.726 45.4838 24.9332 45.4838 25.2648C45.4838 25.5363 45.687 25.6793 46.187 25.8036L46.7072 25.9155C47.5669 26.1041 47.9429 26.4792 47.9429 27.159C47.9429 28.0087 47.2681 28.5454 46.2012 28.5454C45.1688 28.5454 44.5103 28.0439 44.4839 27.2212L45.3496 27.2108Z" fill="#BFC2CA"/>
<path d="M49.7699 28.4584V24.8337H48.5302V24.0794H51.9139V24.8337H50.6702V28.4584H49.7699Z" fill="#BFC2CA"/>
<path d="M52.6537 28.4584V24.0794H53.552V28.4584H52.6537Z" fill="#BFC2CA"/>
<path d="M54.6108 28.4584V24.0794H55.3608L57.3666 26.9414H57.391V24.0794H58.2507V28.4584H57.5089L55.499 25.5902H55.4766V28.4584H54.6108Z" fill="#BFC2CA"/>
<path d="M61.2117 28.5351C59.9293 28.5351 59.1428 27.6792 59.1428 26.2554C59.1428 24.8317 59.9293 24.0027 61.1914 24.0027C62.1933 24.0027 62.9493 24.6078 63.0774 25.4928H62.1831C62.1255 25.2748 61.9965 25.0834 61.8176 24.9504C61.6388 24.8173 61.4207 24.7506 61.1995 24.7612C60.4902 24.7612 60.0655 25.3104 60.0655 26.243C60.0655 27.1756 60.5187 27.7724 61.232 27.7724C61.8194 27.7724 62.2258 27.4056 62.2482 26.8626V26.7922H61.3133V26.1249H63.1221V26.6202C63.116 27.8118 62.4087 28.5351 61.2117 28.5351Z" fill="#BFC2CA"/>
<path d="M8.67679 7.4897C8.77434 6.56403 9.41452 6.10119 10.5973 6.10119C11.072 6.08245 11.5469 6.13269 12.0077 6.2504C12.1451 6.28632 12.2735 6.35116 12.3848 6.44075C12.4962 6.53034 12.5878 6.64269 12.654 6.77058C12.7606 6.97624 12.834 7.19807 12.8715 7.42753C12.9006 7.7139 12.9128 8.00179 12.908 8.28966V16.9627C12.9127 17.2499 12.9005 17.5371 12.8715 17.8228C12.8358 18.0507 12.7673 18.2721 12.6682 18.4797C12.4406 18.9108 11.8858 19.1242 11.0017 19.1242C10.1177 19.1242 9.52629 19.0123 9.22551 18.7906C9.07484 18.6747 8.95027 18.5273 8.86017 18.3582C8.77008 18.1891 8.71656 18.0023 8.70321 17.8103C8.103 18.6876 7.10176 19.1256 5.69947 19.1242C4.29718 19.1229 2.99583 18.4687 1.79542 17.1617C0.641891 15.9425 -0.00189184 14.314 4.17612e-06 12.6199C0.00190019 10.9259 0.649326 9.29884 1.80558 8.08241C3.01547 6.78508 4.34121 6.13642 5.78279 6.13642C6.29939 6.12731 6.81242 6.22531 7.29076 6.42448C7.63496 6.55692 7.95556 6.74594 8.23985 6.98403C8.40136 7.13761 8.54771 7.30698 8.67679 7.4897ZM4.25044 12.6417C4.25323 12.9184 4.31063 13.1916 4.41922 13.4451C4.52781 13.6986 4.68537 13.9272 4.88248 14.1173C5.07962 14.3287 5.31754 14.4962 5.58126 14.6092C5.84498 14.7223 6.12879 14.7785 6.41484 14.7742C6.69815 14.7828 6.97985 14.7278 7.24006 14.6133C7.50026 14.4987 7.73264 14.3272 7.92077 14.1111C8.29209 13.7151 8.5014 13.1896 8.50608 12.6417C8.49965 12.0877 8.2968 11.5547 7.935 11.1413C7.74868 10.9138 7.51364 10.7328 7.24798 10.6125C6.98232 10.4921 6.69312 10.4355 6.40264 10.447C6.10885 10.4374 5.81665 10.4947 5.54733 10.6148C5.27802 10.7349 5.03838 10.9148 4.8459 11.1413C4.47231 11.5492 4.26017 12.0837 4.25044 12.6417Z" fill="#222A33"/>
<path d="M19.1615 7.83579C19.9243 6.6628 20.8402 6.07631 21.9092 6.07631C23.558 6.07631 24.7889 6.79544 25.6019 8.23369C25.8025 7.96296 26.019 7.70482 26.2502 7.46068C26.6083 7.10713 27.0133 6.80647 27.4533 6.56747C27.9692 6.25594 28.5568 6.08933 29.1564 6.0846C29.7755 6.07589 30.3888 6.20832 30.9514 6.47221C31.5139 6.7361 32.0116 7.12479 32.408 7.6099C33.2901 8.61571 33.7311 10.293 33.7311 12.6417V16.9938C33.7356 17.2796 33.7234 17.5654 33.6945 17.8497C33.656 18.0809 33.5775 18.3034 33.4628 18.5066C33.2514 18.9529 32.6275 19.176 31.5911 19.176C30.5546 19.176 29.93 18.9446 29.7173 18.4818C29.6175 18.2745 29.549 18.053 29.514 17.8248C29.4861 17.5405 29.4745 17.2547 29.4795 16.9689V12.6231C29.4795 11.1848 28.9768 10.4657 27.9715 10.4657C27.4025 10.4657 27.0184 10.6563 26.8151 11.0356C26.5863 11.5376 26.4803 12.0887 26.5062 12.6417V16.9938C26.5113 17.2837 26.4991 17.5737 26.4697 17.8621C26.4295 18.089 26.3511 18.3071 26.238 18.5066C26.0104 18.9529 25.3783 19.176 24.3418 19.176C23.3054 19.176 22.6808 18.9446 22.4681 18.4818C22.3683 18.2745 22.2998 18.053 22.2648 17.8248C22.2359 17.5405 22.2237 17.2547 22.2282 16.9689V12.6231C22.2282 11.1848 21.7263 10.4657 20.7223 10.4657C19.7495 10.4657 19.2631 11.1848 19.2631 12.6231V17.0124C19.2676 17.2982 19.2554 17.584 19.2265 17.8683C19.188 18.0996 19.1096 18.322 18.9948 18.5253C18.751 18.9564 18.1189 19.1712 17.0987 19.1698C16.0785 19.1684 15.4539 18.9453 15.2249 18.5004C15.1265 18.2969 15.0581 18.0798 15.0217 17.8559C14.9898 17.5697 14.9748 17.2818 14.977 16.9938V8.25856C14.9725 7.97277 14.9847 7.68696 15.0136 7.40265C15.0513 7.18228 15.13 6.97127 15.2453 6.78093C15.4891 6.33329 16.0582 6.11154 16.9727 6.11154C17.8872 6.11154 18.4725 6.26075 18.7469 6.55711C19.0417 6.91284 19.1902 7.37098 19.1615 7.83579Z" fill="#222A33"/>
<path d="M43.6384 7.4897C43.736 6.56402 44.3768 6.10118 45.561 6.10118C46.0357 6.08273 46.5105 6.13296 46.9714 6.25039C47.1084 6.28658 47.2365 6.35154 47.3474 6.44111C47.4583 6.53069 47.5497 6.6429 47.6157 6.77057C47.724 6.97545 47.7975 7.19758 47.8331 7.42752C47.862 7.71183 47.8742 7.99764 47.8697 8.28343V16.9627C47.8742 17.2485 47.862 17.5343 47.8331 17.8186C47.7984 18.0468 47.7299 18.2683 47.6299 18.4756C47.4023 18.9066 46.8474 19.1201 45.9634 19.1201C45.0793 19.1201 44.4879 19.0082 44.1872 18.7864C44.0365 18.6706 43.9119 18.5231 43.8218 18.354C43.7317 18.1849 43.6782 17.9981 43.6649 17.8062C43.0646 18.6835 42.0634 19.1215 40.6611 19.1201C39.2588 19.1187 37.9582 18.4659 36.7591 17.1617C35.5919 15.9441 34.9445 14.305 34.9585 12.6023C34.9559 11.7639 35.1154 10.9331 35.4278 10.1576C35.7403 9.38203 36.1996 8.67687 36.7794 8.08241C37.9866 6.78508 39.3117 6.13641 40.7546 6.13641C41.2678 6.1287 41.7772 6.22668 42.2524 6.42448C42.5966 6.55691 42.9172 6.74593 43.2015 6.98403C43.3636 7.13701 43.51 7.30645 43.6384 7.4897ZM39.2182 12.6417C39.221 12.9183 39.2784 13.1916 39.387 13.4451C39.4956 13.6986 39.6531 13.9272 39.8502 14.1173C40.0474 14.3287 40.2853 14.4962 40.549 14.6092C40.8127 14.7223 41.0965 14.7785 41.3826 14.7742C41.6639 14.781 41.9432 14.7251 42.2012 14.6106C42.4591 14.4961 42.6895 14.3256 42.8763 14.1111C43.2513 13.7168 43.4637 13.1909 43.4698 12.6417C43.4641 12.0871 43.2603 11.5537 42.8966 11.1413C42.7103 10.9138 42.4753 10.7328 42.2096 10.6125C41.944 10.4921 41.6548 10.4355 41.3643 10.447C41.0708 10.4371 40.7788 10.4943 40.5097 10.6144C40.2407 10.7345 40.0015 10.9146 39.8096 11.1413C39.4368 11.5493 39.226 12.0841 39.2182 12.6417Z" fill="#222A33"/>
<path d="M56.1594 14.8053H60.3195C60.9685 14.8053 61.4346 14.8882 61.7178 15.054C61.9918 15.2099 62.1963 15.4675 62.2888 15.7732C62.3982 16.1779 62.4475 16.597 62.4352 17.0166C62.4475 17.4362 62.3982 17.8553 62.2888 18.2601C62.2521 18.3984 62.1876 18.5275 62.0995 18.6392C62.0113 18.7508 61.9014 18.8426 61.7767 18.9087C61.5748 19.0189 61.3564 19.0945 61.1304 19.1325C60.8523 19.162 60.5727 19.1745 60.2931 19.1698H51.5136C51.2363 19.1713 50.9616 19.1149 50.7064 19.0041C50.4513 18.8932 50.2211 18.7303 50.03 18.5253C49.8281 18.3274 49.668 18.0894 49.5597 17.826C49.4513 17.5626 49.397 17.2794 49.4 16.9938C49.3959 16.7088 49.45 16.426 49.5588 16.1634C49.6676 15.9008 49.8287 15.6642 50.032 15.4685C50.4521 15.054 51.1004 14.4468 51.977 13.6469C52.8536 12.8469 53.6482 12.1312 54.3608 11.4998C55.0735 10.8643 55.4623 10.5134 55.5274 10.4471H52.0989C51.1749 10.4471 50.5909 10.2902 50.347 9.97662C50.0555 9.5534 49.9123 9.04233 49.9406 8.52593C49.9254 8.08031 49.9663 7.63455 50.0625 7.19958C50.117 6.96738 50.2157 6.74838 50.3531 6.55506C50.4846 6.40253 50.6527 6.28754 50.8409 6.2214C51.255 6.12322 51.6801 6.08141 52.105 6.09706H60.0086C60.284 6.09523 60.5569 6.14925 60.8116 6.25599C61.0663 6.36272 61.2977 6.52004 61.4922 6.71878C61.6977 6.91791 61.8602 7.15871 61.969 7.42568C62.0779 7.69265 62.1307 7.9799 62.1242 8.26895C62.1229 8.58194 62.0573 8.89118 61.9317 9.17674C61.806 9.4623 61.6231 9.71783 61.3946 9.92688C60.9055 10.4022 59.1605 12.0283 56.1594 14.8053Z" fill="#222A33"/>
<path d="M83.0732 3.68268C83.0055 3.80765 82.9134 3.91717 82.8026 4.00449C82.6918 4.09181 82.5646 4.15508 82.429 4.19042C82.0319 4.30098 81.621 4.35126 81.2096 4.33963C80.7948 4.3522 80.3804 4.30191 79.9801 4.19042C79.8431 4.15424 79.715 4.08928 79.6041 3.9997C79.4931 3.91013 79.4018 3.79791 79.3358 3.67024C79.2292 3.46458 79.1558 3.24275 79.1184 3.01329C79.0895 2.72898 79.0773 2.44317 79.0818 2.15738C79.0773 1.87159 79.0895 1.58579 79.1184 1.30148C79.1515 1.08081 79.2202 0.867249 79.3216 0.66939C79.5478 0.22313 80.1785 0 81.2137 0C82.2488 0 82.8646 0.22313 83.061 0.66939C83.1754 0.872829 83.2538 1.0952 83.2927 1.32634C83.3215 1.61066 83.3337 1.89646 83.3293 2.18225C83.3338 2.46804 83.3216 2.75385 83.2927 3.03816C83.2563 3.26424 83.1821 3.48226 83.0732 3.68268ZM79.0736 8.28966C79.0691 8.00387 79.0813 7.71806 79.1102 7.43375C79.1449 7.20553 79.2135 6.98402 79.3135 6.77679C79.5411 6.34573 80.1738 6.13089 81.2116 6.13227C81.9907 6.13227 82.5414 6.27043 82.8639 6.54676C83.0092 6.68103 83.1239 6.84622 83.1997 7.03064C83.2756 7.21506 83.3108 7.41422 83.3029 7.61405C83.3191 7.77984 83.3272 8.01817 83.3272 8.33318V17.0124C83.3318 17.2982 83.3195 17.584 83.2907 17.8684C83.2521 18.0996 83.1737 18.322 83.059 18.5253C82.8476 18.9564 82.2237 19.1712 81.1872 19.1698C80.1508 19.1684 79.5262 18.9453 79.3135 18.5004C79.2149 18.297 79.1464 18.0798 79.1102 17.8559C79.0808 17.5675 79.0685 17.2775 79.0736 16.9876V8.28966Z" fill="#222A33"/>
<path d="M92.5093 6.1012C93.2806 6.0876 94.0451 6.25095 94.7462 6.57917C95.4472 6.9074 96.067 7.3921 96.5597 7.99746C97.6436 9.26163 98.1855 10.8035 98.1855 12.6231V16.9938C98.19 17.2796 98.1778 17.5654 98.1489 17.8497C98.115 18.0702 98.0464 18.2836 97.9457 18.4818C97.7181 18.9267 97.0854 19.1498 96.0475 19.1512C94.8973 19.1512 94.2327 18.8452 94.0538 18.2331C93.9395 17.8223 93.8902 17.3956 93.9075 16.9689V12.5982C93.9321 12.3097 93.8946 12.0191 93.7978 11.7469C93.701 11.4746 93.5471 11.2271 93.3468 11.0217C93.1465 10.8163 92.9048 10.658 92.6383 10.5576C92.3719 10.4573 92.0872 10.4174 91.8041 10.4408C91.5158 10.4263 91.2275 10.4715 90.9568 10.5737C90.6861 10.676 90.4385 10.8331 90.2291 11.0356C90.0297 11.2402 89.8738 11.4847 89.7714 11.7535C89.6689 12.0224 89.622 12.31 89.6336 12.5982V16.9938C89.6381 17.2796 89.6259 17.5654 89.597 17.8497C89.5605 18.0737 89.4818 18.2883 89.3653 18.4818C89.1621 18.9274 88.5301 19.1512 87.4936 19.1512C86.4571 19.1512 85.8474 18.9274 85.6218 18.4818C85.522 18.2745 85.4535 18.053 85.4186 17.8248C85.3897 17.5405 85.3775 17.2547 85.382 16.9689V8.18398C85.3779 7.90716 85.3902 7.63034 85.4186 7.35501C85.4564 7.13464 85.535 6.92363 85.6503 6.73329C85.8752 6.31881 86.4991 6.11156 87.522 6.11156C88.5097 6.11156 89.1194 6.30223 89.3511 6.68148C89.521 6.99198 89.6053 7.34361 89.595 7.69903C89.7159 7.51104 89.8607 7.34029 90.0258 7.19129C90.2275 6.99653 90.4474 6.82231 90.6823 6.67112C91.2198 6.29518 91.8575 6.09628 92.5093 6.1012Z" fill="#222A33"/>
<path d="M107.837 17.5327C107.219 18.3616 106.238 18.7761 104.894 18.7761C103.55 18.7761 102.289 18.1433 101.112 16.8778C99.9787 15.6908 99.3456 14.0989 99.3479 12.4423C99.3502 10.7857 99.9876 9.19574 101.124 8.01199C102.307 6.73952 103.604 6.10329 105.014 6.10329C105.532 6.09659 106.046 6.20182 106.522 6.41208C106.863 6.54795 107.18 6.7413 107.459 6.98407C107.61 7.13071 107.746 7.29248 107.865 7.46694C107.875 7.26613 107.924 7.06934 108.01 6.88818C108.095 6.70701 108.215 6.54514 108.363 6.41208C108.646 6.17375 109.105 6.05355 109.737 6.05355C110.204 6.03361 110.671 6.08389 111.123 6.20277C111.255 6.24057 111.377 6.30501 111.484 6.39225C111.59 6.47949 111.678 6.58774 111.743 6.71051C111.85 6.90717 111.924 7.12085 111.962 7.3426C111.991 7.62272 112.004 7.90441 111.999 8.18607V18.4445C111.999 20.3442 111.35 21.8778 110.052 23.0453C108.861 24.1707 107.298 24.7967 105.674 24.7985C104.442 24.799 103.229 24.484 102.146 23.8825C101.029 23.2691 100.47 22.7165 100.47 22.2246C100.471 21.904 100.537 21.5871 100.663 21.2934C100.79 20.9997 100.973 20.7355 101.203 20.5169C101.423 20.2574 101.663 20.0169 101.921 19.7978C102.092 19.6652 102.302 19.5958 102.516 19.6009C102.775 19.6149 103.022 19.7187 103.215 19.8952C103.932 20.4843 104.823 20.808 105.744 20.8133C106.035 20.8197 106.323 20.7556 106.585 20.6263C106.847 20.497 107.076 20.3061 107.252 20.0693C107.645 19.5619 107.853 18.9298 107.837 18.2829V17.5327ZM103.506 12.4615C103.508 12.7335 103.565 13.0023 103.671 13.2516C103.778 13.501 103.934 13.7256 104.128 13.9121C104.322 14.1202 104.556 14.2849 104.815 14.3959C105.075 14.5068 105.354 14.5616 105.636 14.5567C105.913 14.5635 106.189 14.5082 106.443 14.3947C106.697 14.2812 106.924 14.1122 107.107 13.8997C107.475 13.514 107.684 12.9993 107.69 12.4615C107.683 11.9211 107.484 11.4017 107.132 10.9983C106.948 10.7745 106.717 10.5967 106.455 10.4785C106.194 10.3602 105.909 10.3048 105.624 10.3165C105.336 10.3055 105.049 10.3596 104.784 10.475C104.519 10.5903 104.283 10.7641 104.091 10.9838C103.72 11.383 103.51 11.9111 103.506 12.4615Z" fill="#222A33"/>
<path d="M72.6638 19.203C72.5885 19.3405 72.4866 19.4609 72.3643 19.5571C72.2421 19.6533 72.102 19.7232 71.9525 19.7626C71.0621 19.9808 70.1337 19.9808 69.2434 19.7626C69.0926 19.7223 68.9517 19.6504 68.8296 19.5516C68.7075 19.4528 68.6068 19.3291 68.5341 19.1885C68.4147 18.962 68.333 18.7169 68.2923 18.4631C68.2605 18.1499 68.2469 17.8351 68.2516 17.5202C68.247 17.2053 68.2606 16.8905 68.2923 16.5773C68.3296 16.3332 68.4065 16.0971 68.5199 15.8788C68.7706 15.387 69.4676 15.1411 70.6111 15.1411C71.7547 15.1411 72.4321 15.387 72.6434 15.8788C72.7692 16.1035 72.8552 16.3491 72.8975 16.6042C72.9302 16.9173 72.9438 17.2323 72.9381 17.5471C72.9439 17.8627 72.9303 18.1783 72.8975 18.4922C72.8601 18.741 72.781 18.9814 72.6638 19.203Z" fill="#FF4F45"/>
<path d="M64.8529 4.2818L64.3743 4.76979C63.5703 5.58964 63.5703 6.91888 64.3743 7.73873L69.1396 12.5981C69.9436 13.4179 71.2471 13.4179 72.0511 12.5981L72.5296 12.1101C73.3336 11.2902 73.3336 9.96098 72.5296 9.14113L67.7643 4.2818C66.9603 3.46195 65.6568 3.46195 64.8529 4.2818Z" fill="url(#paint0_linear)"/>
<path d="M76.8222 4.78018L76.3437 4.29219C75.5397 3.47234 74.2362 3.47234 73.4322 4.29219L68.6669 9.15152C67.863 9.97137 67.863 11.3006 68.6669 12.1205L69.1455 12.6084C69.9495 13.4283 71.253 13.4283 72.0569 12.6084L76.8222 7.74911C77.6262 6.92926 77.6262 5.60003 76.8222 4.78018Z" fill="url(#paint1_linear)"/>
<path d="M72.5278 12.1091L72.0502 12.5982C71.6783 12.9771 71.1784 13.1968 70.6528 13.2122C70.1273 13.2276 69.6159 13.0376 69.2232 12.6811L69.148 12.6065L68.6684 12.1174C68.4772 11.9226 68.3255 11.6913 68.222 11.4367C68.1185 11.1821 68.0652 10.9092 68.0652 10.6335C68.0652 10.3579 68.1185 10.085 68.222 9.8304C68.3255 9.57579 68.4772 9.34448 68.6684 9.1497L70.6032 7.17883L72.5278 9.14141C72.719 9.33619 72.8707 9.5675 72.9742 9.82211C73.0777 10.0767 73.131 10.3496 73.131 10.6253C73.131 10.9009 73.0777 11.1738 72.9742 11.4284C72.8707 11.683 72.719 11.9143 72.5278 12.1091Z" fill="url(#paint2_linear)"/>
<defs>
<linearGradient id="paint0_linear" x1="68.4518" y1="13.2136" x2="68.4518" y2="3.66802" gradientUnits="userSpaceOnUse">
<stop stop-color="#278DCC"/>
<stop offset="1" stop-color="#93BFE4"/>
</linearGradient>
<linearGradient id="paint1_linear" x1="68.0643" y1="8.44921" x2="77.4251" y2="8.44922" gradientUnits="userSpaceOnUse">
<stop stop-color="#F46A4F"/>
<stop offset="0.41" stop-color="#F78154"/>
<stop offset="1" stop-color="#FDA95D"/>
</linearGradient>
<linearGradient id="paint2_linear" x1="68.0648" y1="10.1963" x2="73.1314" y2="10.1963" gradientUnits="userSpaceOnUse">
<stop stop-color="#2B5A3F"/>
<stop offset="0.63" stop-color="#2B4337"/>
<stop offset="1" stop-color="#2B3431"/>
</linearGradient>
</defs>
</svg>
