<svg width="46" height="46" viewBox="0 0 46 46" fill="none" xmlns="http://www.w3.org/2000/svg">
<path d="M42.2059 30.8047C41.6958 33.05 40.2369 34.9315 37.8293 36.4495C35.4217 37.9674 32.0419 39.309 27.69 40.4743C23.3354 41.6412 19.7358 42.1696 16.8913 42.0598C14.0467 41.9499 11.8319 41.0162 10.2469 39.2585C8.66532 37.5022 7.56165 35.8716 6.93591 34.3668C6.31018 32.8619 5.57963 30.5492 4.74426 27.4287C3.90856 24.3098 3.38499 21.9421 3.17355 20.3254C2.96211 18.7088 3.08624 16.8211 3.54593 14.6624C4.49859 10.4807 9.39862 7.20455 18.246 4.83389C26.956 2.50007 32.6998 2.92423 35.4775 6.10638C37.1274 7.84817 38.2659 9.46981 38.893 10.9713C39.5201 12.4728 40.2507 14.7855 41.0846 17.9093C41.9213 21.0318 42.4449 23.3995 42.6554 25.0126C42.8659 26.6258 42.716 28.5565 42.2059 30.8047Z" fill="#242C35"/>
</svg>
