<svg width="87" height="86" viewBox="0 0 87 86" fill="none" xmlns="http://www.w3.org/2000/svg">
<path d="M79.2887 57.87C78.3303 62.0879 75.5896 65.6227 71.0667 68.4743C66.5437 71.3258 60.1944 73.8462 52.0188 76.0355C43.8381 78.2275 37.0759 79.2203 31.7322 79.0139C26.3884 78.8075 22.2277 77.0534 19.25 73.7514C16.2788 70.452 14.2054 67.3888 13.0299 64.5617C11.8544 61.7346 10.482 57.39 8.91264 51.5278C7.34267 45.6686 6.35908 41.2205 5.96187 38.1834C5.56466 35.1464 5.79785 31.6002 6.66143 27.5449C8.45112 19.689 17.6564 13.5344 34.2772 9.08082C50.6399 4.69646 61.4304 5.4933 66.6486 11.4713C69.748 14.7435 71.8868 17.7899 73.0649 20.6106C74.2431 23.4314 75.6155 27.776 77.1822 33.6446C78.7539 39.5103 79.7375 43.9585 80.133 46.9889C80.5284 50.0193 80.247 53.6464 79.2887 57.87Z" fill="#CEE2E9"/>
<path d="M53 61V57C53 54.8783 52.2098 52.8434 50.8033 51.3431C49.3968 49.8429 47.4891 49 45.5 49H30.5C28.5109 49 26.6032 49.8429 25.1967 51.3431C23.7902 52.8434 23 54.8783 23 57V61" stroke="#278DCC" stroke-width="4" stroke-linecap="round" stroke-linejoin="round"/>
<path d="M37.5 42C41.6421 42 45 38.6421 45 34.5C45 30.3579 41.6421 27 37.5 27C33.3579 27 30 30.3579 30 34.5C30 38.6421 33.3579 42 37.5 42Z" stroke="#278DCC" stroke-width="4" stroke-linecap="round" stroke-linejoin="round"/>
<path d="M64 61V57.2521C63.9989 55.5913 63.5073 53.9779 62.6023 52.6653C61.6973 51.3527 60.4302 50.4152 59 50" stroke="#278DCC" stroke-width="4" stroke-linecap="round" stroke-linejoin="round"/>
<path d="M52 27C53.4303 27.4264 54.698 28.3949 55.6033 29.7529C56.5086 31.1108 57 32.781 57 34.5C57 36.219 56.5086 37.8892 55.6033 39.2471C54.698 40.6051 53.4303 41.5736 52 42" stroke="#278DCC" stroke-width="4" stroke-linecap="round" stroke-linejoin="round"/>
</svg>
