<svg width="274" height="272" viewBox="0 0 274 272" fill="none" xmlns="http://www.w3.org/2000/svg">
<path d="M251.682 182.789C248.853 196.126 240.376 207.391 226.251 216.583C212.126 225.775 192.231 234.007 166.564 241.278C140.882 248.557 119.615 251.993 102.765 251.586C85.914 251.178 72.7216 245.839 63.1874 235.567C53.6736 225.304 47.0001 215.744 43.167 206.888C39.3339 198.031 34.8113 184.401 29.5993 165.998C24.3853 147.603 21.0835 133.629 19.6938 124.076C18.304 114.523 18.8779 103.336 21.4153 90.5161C26.6989 65.6767 55.4304 45.8618 107.61 31.0714C158.979 16.5107 193.022 18.532 209.739 37.1352C219.655 47.3068 226.534 56.8108 230.375 65.6469C234.216 74.4831 238.739 88.1132 243.943 106.537C249.163 124.952 252.465 138.926 253.849 148.459C255.232 157.991 254.51 169.435 251.682 182.789Z" fill="#FF4F45"/>
</svg>
