<svg width="320" height="607" viewBox="0 0 320 607" fill="none" xmlns="http://www.w3.org/2000/svg">
<path d="M241.766 321.785C238.937 335.122 230.46 346.386 216.335 355.579C202.21 364.771 182.314 373.002 156.648 380.273C130.965 387.553 109.699 390.989 92.8484 390.581C75.9978 390.174 62.8054 384.834 53.2711 374.563C43.7573 364.3 37.0839 354.74 33.2508 345.883C29.4177 337.027 24.8951 323.397 19.683 304.993C14.4691 286.599 11.1672 272.625 9.77749 263.072C8.38774 253.518 8.9616 242.332 11.4991 229.512C16.7826 204.672 45.5141 184.857 97.6936 170.067C149.062 155.506 183.105 157.528 199.823 176.131C209.739 186.302 216.618 195.806 220.459 204.643C224.3 213.479 228.823 227.109 234.027 245.533C239.247 263.948 242.548 277.922 243.932 287.454C245.316 296.987 244.594 308.431 241.766 321.785Z" fill="#FF4F45"/>
<g filter="url(#filter0_d)">
<path d="M320.227 274.807C316.28 293.419 304.45 309.139 284.738 321.967C265.027 334.795 237.262 346.282 201.444 356.429C165.603 366.588 135.926 371.383 112.41 370.814C88.8949 370.245 70.4846 362.793 57.1793 348.46C43.9026 334.137 34.5897 320.796 29.2405 308.437C23.8913 296.078 17.58 277.057 10.3064 251.374C3.03026 225.704 -1.57753 206.203 -3.51695 192.871C-5.45638 179.539 -4.65555 163.928 -1.11446 146.038C6.25887 111.374 46.3543 83.7216 119.172 63.0813C190.858 42.7616 238.366 45.5823 261.695 71.5434C275.534 85.7382 285.133 99.0011 290.494 111.332C295.854 123.663 302.165 142.684 309.428 168.395C316.712 194.094 321.32 213.595 323.251 226.898C325.182 240.201 324.174 256.171 320.227 274.807Z" fill="white"/>
</g>
<path d="M117.998 171.097C120.006 171.097 121.006 170.058 121.99 167.769L125.443 159.722H122.959L120.615 165.988H120.521L118.06 159.722H115.56L119.302 168.308C118.904 168.925 118.396 169.128 117.709 169.128C117.31 169.128 117.099 169.082 117.021 169.058V170.98C117.084 171.019 117.513 171.097 117.998 171.097ZM133.123 165.48C132.904 163.722 131.513 162.441 129.357 162.441C126.857 162.441 125.271 164.128 125.271 166.8C125.271 169.519 126.857 171.175 129.373 171.175C131.498 171.175 132.927 169.988 133.131 168.136H131.006C130.81 168.925 130.248 169.386 129.396 169.386C128.263 169.386 127.568 168.433 127.568 166.8C127.568 165.199 128.263 164.23 129.388 164.23C130.256 164.23 130.802 164.753 130.99 165.48H133.123ZM140.982 162.621H133.717V164.339H136.217V170.996H138.49V164.339H140.982V162.621ZM145.834 171.175C148.365 171.175 149.982 169.558 149.982 166.8C149.982 164.082 148.342 162.441 145.834 162.441C143.326 162.441 141.685 164.089 141.685 166.8C141.685 169.55 143.302 171.175 145.834 171.175ZM145.834 169.433C144.709 169.433 143.998 168.488 143.998 166.808C143.998 165.144 144.724 164.183 145.834 164.183C146.943 164.183 147.662 165.144 147.662 166.808C147.662 168.488 146.951 169.433 145.834 169.433ZM153.537 170.996L156.865 165.699H156.927V170.996H159.162V162.621H156.927L153.599 167.855H153.537V162.621H151.302V170.996H153.537ZM152.552 158.832C152.552 160.371 153.654 161.402 155.302 161.402C156.943 161.402 158.052 160.371 158.052 158.832H156.654C156.638 159.667 156.115 160.269 155.302 160.269C154.482 160.269 153.959 159.667 153.943 158.832H152.552ZM168.224 170.996V162.621H165.951V165.792C165.67 166.16 165.146 166.457 164.381 166.457C163.459 166.457 162.92 165.886 162.92 164.925V162.621H160.646V165.253C160.646 167.152 161.802 168.347 163.717 168.347C164.677 168.347 165.404 168.011 165.865 167.511H165.951V170.996H168.224ZM172.099 170.996L175.427 165.699H175.49V170.996H177.724V162.621H175.49L172.162 167.855H172.099V162.621H169.865V170.996H172.099ZM182.951 164.066C183.701 164.066 184.123 164.417 184.123 165.027C184.123 165.66 183.67 166.011 182.834 166.011H181.599V164.066H182.951ZM182.951 167.332C183.92 167.332 184.435 167.707 184.435 168.433C184.435 169.16 183.943 169.55 183.052 169.55H181.599V167.332H182.951ZM179.365 170.996H183.638C185.537 170.996 186.724 170.042 186.724 168.574C186.724 167.519 185.951 166.738 184.834 166.605V166.542C185.693 166.41 186.349 165.628 186.349 164.73C186.349 163.41 185.302 162.621 183.56 162.621H179.365V170.996ZM191.334 169.48C190.56 169.48 190.045 169.089 190.045 168.464C190.045 167.871 190.529 167.488 191.381 167.425L193.146 167.316V167.925C193.146 168.832 192.326 169.48 191.334 169.48ZM190.584 171.128C191.631 171.128 192.67 170.605 193.138 169.714H193.185V170.996H195.388V165.238C195.388 163.55 193.99 162.441 191.842 162.441C189.623 162.441 188.24 163.558 188.154 165.183H190.24C190.349 164.566 190.888 164.144 191.74 164.144C192.599 164.144 193.146 164.597 193.146 165.378V165.933L191.037 166.058C188.951 166.183 187.779 167.066 187.779 168.589C187.779 170.097 188.99 171.128 190.584 171.128ZM200.482 166.691C199.685 166.691 199.17 166.207 199.17 165.535C199.17 164.792 199.677 164.316 200.482 164.316H201.849V166.691H200.482ZM201.849 170.996H204.076V162.621H200.256C198.224 162.621 196.904 163.746 196.904 165.527C196.904 166.73 197.607 167.589 198.748 167.949L196.545 170.996H199.076L200.935 168.292H201.849V170.996ZM105.177 190.175C107.732 190.175 109.318 188.558 109.318 185.925C109.318 183.496 107.849 181.957 105.592 181.957C104.224 181.957 103.279 182.535 102.763 183.535H102.701C102.974 181.402 103.717 180.425 105.787 180.363L106.709 180.332C107.857 180.3 108.646 180.089 108.771 179.972V178.207C108.545 178.324 107.623 178.511 106.568 178.55L105.592 178.574C102.537 178.667 100.943 180.488 100.943 185.199C100.943 188.472 102.474 190.175 105.177 190.175ZM105.138 188.378C103.967 188.378 103.279 187.519 103.279 185.98C103.279 184.511 103.974 183.652 105.138 183.652C106.295 183.652 106.982 184.511 106.982 185.98C106.982 187.519 106.295 188.378 105.138 188.378ZM112.888 189.996L116.217 184.699H116.279V189.996H118.513V181.621H116.279L112.951 186.855H112.888V181.621H110.654V189.996H112.888ZM123.545 190.175C125.818 190.175 127.224 189.136 127.224 187.488C127.224 186.558 126.685 185.886 125.67 185.621V185.558C126.451 185.339 126.927 184.66 126.927 183.824C126.927 182.332 125.724 181.441 123.49 181.441C121.443 181.441 120.115 182.464 119.951 184.144H122.099C122.201 183.511 122.709 183.16 123.506 183.16C124.31 183.16 124.709 183.527 124.709 184.074C124.709 184.667 124.295 184.957 123.49 184.957H122.396V186.441H123.552C124.482 186.441 124.951 186.746 124.951 187.402C124.951 188.011 124.451 188.41 123.545 188.41C122.701 188.41 122.162 188.05 121.967 187.339H119.795C119.951 189.113 121.373 190.175 123.545 190.175ZM134.099 189.996H136.373V181.621H134.099V184.839H130.881V181.621H128.607V189.996H130.881V186.566H134.099V189.996ZM141.771 183.128C142.787 183.128 143.482 183.863 143.529 184.933H139.974C140.052 183.886 140.771 183.128 141.771 183.128ZM143.56 187.433C143.349 188.074 142.709 188.488 141.873 188.488C140.709 188.488 139.951 187.667 139.951 186.472V186.332H145.724V185.636C145.724 183.089 144.185 181.441 141.748 181.441C139.271 181.441 137.709 183.175 137.709 185.847C137.709 188.527 139.256 190.175 141.834 190.175C143.904 190.175 145.404 189.074 145.654 187.433H143.56ZM154.584 184.48C154.365 182.722 152.974 181.441 150.818 181.441C148.318 181.441 146.732 183.128 146.732 185.8C146.732 188.519 148.318 190.175 150.834 190.175C152.959 190.175 154.388 188.988 154.592 187.136H152.467C152.271 187.925 151.709 188.386 150.857 188.386C149.724 188.386 149.029 187.433 149.029 185.8C149.029 184.199 149.724 183.23 150.849 183.23C151.717 183.23 152.263 183.753 152.451 184.48H154.584ZM161.138 186.41V184.417H156.006V186.41H161.138ZM165.076 189.996V184.394H165.131L167.295 189.527H168.873L171.045 184.394H171.099V189.996H173.24V181.621H170.318L168.131 187.089H168.076L165.888 181.621H162.935V189.996H165.076ZM178.732 190.175C181.263 190.175 182.881 188.558 182.881 185.8C182.881 183.082 181.24 181.441 178.732 181.441C176.224 181.441 174.584 183.089 174.584 185.8C174.584 188.55 176.201 190.175 178.732 190.175ZM178.732 188.433C177.607 188.433 176.896 187.488 176.896 185.808C176.896 184.144 177.623 183.183 178.732 183.183C179.842 183.183 180.56 184.144 180.56 185.808C180.56 187.488 179.849 188.433 178.732 188.433ZM189.677 188.269H186.373V188.207C186.748 187.644 186.92 186.871 186.982 185.98L187.17 183.332H189.677V188.269ZM185.482 192.167V189.996H191.115V192.167H193.193V188.269H191.951V181.621H185.248L184.974 185.832C184.896 186.964 184.662 187.925 184.052 188.269H183.412V192.167H185.482ZM197.927 183.128C198.943 183.128 199.638 183.863 199.685 184.933H196.131C196.209 183.886 196.927 183.128 197.927 183.128ZM199.717 187.433C199.506 188.074 198.865 188.488 198.029 188.488C196.865 188.488 196.107 187.667 196.107 186.472V186.332H201.881V185.636C201.881 183.089 200.342 181.441 197.904 181.441C195.427 181.441 193.865 183.175 193.865 185.847C193.865 188.527 195.412 190.175 197.99 190.175C200.06 190.175 201.56 189.074 201.81 187.433H199.717ZM205.974 185.98L206.138 183.339H208.263V189.996H210.537V181.621H204.185L203.951 185.832C203.881 187.152 203.638 188.121 202.842 188.121C202.615 188.121 202.443 188.089 202.349 188.066V189.988C202.467 190.035 202.724 190.097 203.076 190.097C205.146 190.097 205.826 188.464 205.974 185.98ZM215.717 185.722C216.537 185.722 217.076 186.238 217.076 187.003C217.076 187.769 216.545 188.292 215.717 188.292H214.459V185.722H215.717ZM212.185 189.996H216.092C218.068 189.996 219.334 188.839 219.334 187.019C219.334 185.199 218.068 184.042 216.092 184.042H214.459V181.621H212.185V189.996Z" fill="#222A33"/>
<path opacity="0.7" d="M69.417 228C71.5156 228 72.7598 226.968 72.7598 225.231C72.7598 223.919 71.8984 222.976 70.5586 222.805V222.75C71.5088 222.579 72.2607 221.622 72.2607 220.597C72.2607 219.12 71.1191 218.136 69.4307 218.136H65.6914V228H69.417ZM66.9219 219.223H69.1504C70.3467 219.223 71.0166 219.763 71.0166 220.74C71.0166 221.807 70.2236 222.388 68.7676 222.388H66.9219V219.223ZM66.9219 226.913V223.447H69.1162C70.6885 223.447 71.4951 224.028 71.4951 225.17C71.4951 226.312 70.7158 226.913 69.2324 226.913H66.9219ZM77.0527 228.123C79.0146 228.123 80.3408 226.708 80.3408 224.445C80.3408 222.176 79.0146 220.768 77.0527 220.768C75.084 220.768 73.7578 222.176 73.7578 224.445C73.7578 226.708 75.084 228.123 77.0527 228.123ZM77.0527 227.077C75.7949 227.077 74.9678 226.12 74.9678 224.445C74.9678 222.771 75.7949 221.813 77.0527 221.813C78.3105 221.813 79.1309 222.771 79.1309 224.445C79.1309 226.12 78.3105 227.077 77.0527 227.077ZM84.0322 228.123C85.7002 228.123 86.8076 227.228 86.8076 225.901C86.8076 225.081 86.3223 224.479 85.3857 224.274V224.22C86.0967 224.056 86.5615 223.413 86.5615 222.688C86.5615 221.547 85.6797 220.768 84.0596 220.768C82.5557 220.768 81.5303 221.513 81.3799 222.688H82.5352C82.6309 222.121 83.2188 221.759 84.0596 221.759C84.9756 221.759 85.3994 222.189 85.3994 222.784C85.3994 223.481 84.9346 223.823 84.0322 223.823H82.9658V224.794H84.0322C85.1055 224.794 85.6387 225.156 85.6387 225.956C85.6387 226.646 85.0645 227.139 84.0322 227.139C83.1504 227.139 82.5625 226.776 82.4258 226.154H81.2227C81.3457 227.357 82.4736 228.123 84.0322 228.123ZM89.3438 228V222.955H89.3916L91.6885 227.795H92.5977L94.8945 222.955H94.9424V228H96.125V220.891H94.7373L92.1943 226.428H92.1396L89.6104 220.891H88.168V228H89.3438ZM100.746 228.123C102.708 228.123 104.034 226.708 104.034 224.445C104.034 222.176 102.708 220.768 100.746 220.768C98.7773 220.768 97.4512 222.176 97.4512 224.445C97.4512 226.708 98.7773 228.123 100.746 228.123ZM100.746 227.077C99.4883 227.077 98.6611 226.12 98.6611 224.445C98.6611 222.771 99.4883 221.813 100.746 221.813C102.004 221.813 102.824 222.771 102.824 224.445C102.824 226.12 102.004 227.077 100.746 227.077ZM111.171 224.254L114.274 220.891H112.825L109.988 224.035H109.934V220.891H108.758V224.035H108.71L105.873 220.891H104.41L107.527 224.274L104.335 228H105.839L108.71 224.582H108.758V228H109.934V224.582H109.988L112.859 228H114.384L111.171 224.254ZM120.071 228H121.247V220.891H120.071V223.823H116.564V220.891H115.389V228H116.564V224.801H120.071V228ZM125.875 228.123C127.837 228.123 129.163 226.708 129.163 224.445C129.163 222.176 127.837 220.768 125.875 220.768C123.906 220.768 122.58 222.176 122.58 224.445C122.58 226.708 123.906 228.123 125.875 228.123ZM125.875 227.077C124.617 227.077 123.79 226.12 123.79 224.445C123.79 222.771 124.617 221.813 125.875 221.813C127.133 221.813 127.953 222.771 127.953 224.445C127.953 226.12 127.133 227.077 125.875 227.077ZM136.368 223.078C136.156 221.868 135.11 220.768 133.395 220.768C131.426 220.768 130.141 222.23 130.141 224.445C130.141 226.708 131.433 228.123 133.408 228.123C135.008 228.123 136.149 227.173 136.382 225.826H135.206C134.98 226.612 134.358 227.077 133.415 227.077C132.178 227.077 131.351 226.072 131.351 224.445C131.351 222.859 132.164 221.813 133.401 221.813C134.406 221.813 134.987 222.395 135.192 223.078H136.368ZM142.685 220.891H136.915V221.868H139.212V228H140.388V221.868H142.685V220.891ZM146.287 224.138C147.203 224.138 147.805 224.705 147.805 225.58C147.805 226.448 147.21 227.022 146.287 227.022H144.961V224.138H146.287ZM143.785 228H146.308C147.935 228 148.98 227.063 148.98 225.58C148.98 224.097 147.935 223.16 146.308 223.16H144.961V220.891H143.785V228ZM157.765 228H158.947V220.891H153.15V228H154.326V221.868H157.765V228ZM164.074 220.768C163.042 220.768 162.215 221.294 161.777 222.094H161.75V220.891H160.622V230.372H161.812V226.845H161.839C162.263 227.624 163.083 228.123 164.102 228.123C165.893 228.123 167.116 226.674 167.116 224.445C167.116 222.217 165.886 220.768 164.074 220.768ZM163.842 227.077C162.625 227.077 161.805 226.031 161.805 224.445C161.805 222.866 162.625 221.813 163.842 221.813C165.106 221.813 165.899 222.839 165.899 224.445C165.899 226.059 165.106 227.077 163.842 227.077ZM171.389 228.123C173.351 228.123 174.677 226.708 174.677 224.445C174.677 222.176 173.351 220.768 171.389 220.768C169.42 220.768 168.094 222.176 168.094 224.445C168.094 226.708 169.42 228.123 171.389 228.123ZM171.389 227.077C170.131 227.077 169.304 226.12 169.304 224.445C169.304 222.771 170.131 221.813 171.389 221.813C172.646 221.813 173.467 222.771 173.467 224.445C173.467 226.12 172.646 227.077 171.389 227.077ZM180.576 227.022H177.11V226.968C177.445 226.517 177.63 225.744 177.691 224.862L177.91 221.868H180.576V227.022ZM176.263 229.88V228H181.779V229.88H182.887V227.022H181.759V220.891H176.864L176.591 224.835C176.522 225.792 176.27 226.681 175.75 227.022H175.155V229.88H176.263ZM186.305 227.111C185.45 227.111 184.883 226.667 184.883 225.99C184.883 225.32 185.43 224.896 186.387 224.835L188.287 224.719V225.3C188.287 226.325 187.426 227.111 186.305 227.111ZM186.038 228.123C186.995 228.123 187.897 227.59 188.321 226.776H188.349V228H189.477V223.085C189.477 221.67 188.424 220.768 186.756 220.768C185.074 220.768 184.021 221.711 183.939 222.941H185.088C185.238 222.244 185.812 221.813 186.729 221.813C187.713 221.813 188.287 222.333 188.287 223.201V223.796L186.25 223.912C184.609 224.008 183.673 224.773 183.673 225.99C183.673 227.269 184.623 228.123 186.038 228.123ZM193.995 221.854C194.74 221.854 195.144 222.203 195.144 222.832C195.144 223.516 194.713 223.844 193.817 223.844H192.293V221.854H193.995ZM193.913 224.801C194.952 224.801 195.451 225.17 195.451 225.929C195.451 226.646 194.986 227.036 194.125 227.036H192.293V224.801H193.913ZM191.117 228H194.18C195.69 228 196.62 227.214 196.62 225.956C196.62 225.067 196.032 224.418 195.137 224.295V224.24C195.793 224.104 196.306 223.434 196.306 222.709C196.306 221.581 195.492 220.891 194.159 220.891H191.117V228ZM200.332 227.111C199.478 227.111 198.91 226.667 198.91 225.99C198.91 225.32 199.457 224.896 200.414 224.835L202.314 224.719V225.3C202.314 226.325 201.453 227.111 200.332 227.111ZM200.065 228.123C201.022 228.123 201.925 227.59 202.349 226.776H202.376V228H203.504V223.085C203.504 221.67 202.451 220.768 200.783 220.768C199.102 220.768 198.049 221.711 197.967 222.941H199.115C199.266 222.244 199.84 221.813 200.756 221.813C201.74 221.813 202.314 222.333 202.314 223.201V223.796L200.277 223.912C198.637 224.008 197.7 224.773 197.7 225.99C197.7 227.269 198.65 228.123 200.065 228.123ZM210.21 220.891H204.44V221.868H206.737V228H207.913V221.868H210.21V220.891ZM213.812 224.138C214.729 224.138 215.33 224.705 215.33 225.58C215.33 226.448 214.735 227.022 213.812 227.022H212.486V224.138H213.812ZM211.311 228H213.833C215.46 228 216.506 227.063 216.506 225.58C216.506 224.097 215.46 223.16 213.833 223.16H212.486V220.891H211.311V228ZM226.562 223.078C226.35 221.868 225.304 220.768 223.588 220.768C221.619 220.768 220.334 222.23 220.334 224.445C220.334 226.708 221.626 228.123 223.602 228.123C225.201 228.123 226.343 227.173 226.575 225.826H225.399C225.174 226.612 224.552 227.077 223.608 227.077C222.371 227.077 221.544 226.072 221.544 224.445C221.544 222.859 222.357 221.813 223.595 221.813C224.6 221.813 225.181 222.395 225.386 223.078H226.562ZM231.271 220.768C230.239 220.768 229.412 221.294 228.975 222.094H228.947V220.891H227.819V230.372H229.009V226.845H229.036C229.46 227.624 230.28 228.123 231.299 228.123C233.09 228.123 234.313 226.674 234.313 224.445C234.313 222.217 233.083 220.768 231.271 220.768ZM231.039 227.077C229.822 227.077 229.002 226.031 229.002 224.445C229.002 222.866 229.822 221.813 231.039 221.813C232.304 221.813 233.097 222.839 233.097 224.445C233.097 226.059 232.304 227.077 231.039 227.077ZM237.984 227.111C237.13 227.111 236.562 226.667 236.562 225.99C236.562 225.32 237.109 224.896 238.066 224.835L239.967 224.719V225.3C239.967 226.325 239.105 227.111 237.984 227.111ZM237.718 228.123C238.675 228.123 239.577 227.59 240.001 226.776H240.028V228H241.156V223.085C241.156 221.67 240.104 220.768 238.436 220.768C236.754 220.768 235.701 221.711 235.619 222.941H236.768C236.918 222.244 237.492 221.813 238.408 221.813C239.393 221.813 239.967 222.333 239.967 223.201V223.796L237.93 223.912C236.289 224.008 235.353 224.773 235.353 225.99C235.353 227.269 236.303 228.123 237.718 228.123ZM245.169 228.123C246.837 228.123 247.944 227.228 247.944 225.901C247.944 225.081 247.459 224.479 246.522 224.274V224.22C247.233 224.056 247.698 223.413 247.698 222.688C247.698 221.547 246.816 220.768 245.196 220.768C243.692 220.768 242.667 221.513 242.517 222.688H243.672C243.768 222.121 244.355 221.759 245.196 221.759C246.112 221.759 246.536 222.189 246.536 222.784C246.536 223.481 246.071 223.823 245.169 223.823H244.103V224.794H245.169C246.242 224.794 246.775 225.156 246.775 225.956C246.775 226.646 246.201 227.139 245.169 227.139C244.287 227.139 243.699 226.776 243.562 226.154H242.359C242.482 227.357 243.61 228.123 245.169 228.123ZM249.831 230.659C251.116 230.659 251.704 230.16 252.312 228.499L255.108 220.891H253.857L251.889 226.811H251.868L249.899 220.891H248.628L251.253 228.007L251.089 228.506C250.815 229.333 250.446 229.654 249.783 229.654C249.633 229.654 249.448 229.647 249.318 229.62V230.618C249.448 230.646 249.688 230.659 249.831 230.659ZM61.7812 245H62.957V237.891H61.7812V240.823H58.2744V237.891H57.0986V245H58.2744V241.801H61.7812V245ZM66.9834 244.111C66.1289 244.111 65.5615 243.667 65.5615 242.99C65.5615 242.32 66.1084 241.896 67.0654 241.835L68.9658 241.719V242.3C68.9658 243.325 68.1045 244.111 66.9834 244.111ZM66.7168 245.123C67.6738 245.123 68.5762 244.59 69 243.776H69.0273V245H70.1553V240.085C70.1553 238.67 69.1025 237.768 67.4346 237.768C65.7529 237.768 64.7002 238.711 64.6182 239.941H65.7666C65.917 239.244 66.4912 238.813 67.4072 238.813C68.3916 238.813 68.9658 239.333 68.9658 240.201V240.796L66.9287 240.912C65.2881 241.008 64.3516 241.773 64.3516 242.99C64.3516 244.269 65.3018 245.123 66.7168 245.123ZM74.5713 237.979V237.986H75.7607V237.979C75.7607 236.879 76.6357 236.045 77.791 236.045C78.8779 236.045 79.7461 236.804 79.7461 237.754C79.7461 238.574 79.4316 239.101 78.1055 240.495L74.6328 244.152V245H81.1406V243.906H76.335V243.879L78.8301 241.302C80.4775 239.6 80.9766 238.779 80.9766 237.679C80.9766 236.168 79.5889 234.972 77.8252 234.972C75.9658 234.972 74.5713 236.257 74.5713 237.979ZM86.0146 245.164C88.3115 245.164 89.6377 243.175 89.6377 240.058C89.6377 236.961 88.3047 234.972 86.0146 234.972C83.7246 234.972 82.3779 236.975 82.3779 240.064C82.3779 243.182 83.7109 245.164 86.0146 245.164ZM86.0146 244.091C84.4697 244.091 83.6152 242.519 83.6152 240.058C83.6152 237.651 84.4902 236.052 86.0146 236.052C87.5391 236.052 88.4004 237.638 88.4004 240.064C88.4004 242.525 87.5527 244.091 86.0146 244.091ZM95.0381 241.664H97.957V240.557H95.0381V237.501H93.9307V240.557H91.0117V241.664H93.9307V244.795H95.0381V241.664ZM107.049 245H108.231V237.891H102.435V245H103.61V238.868H107.049V245ZM111.8 241.862L112.019 238.868H114.438V245H115.614V237.891H110.959L110.686 241.835C110.597 243.141 110.33 243.968 109.626 243.968C109.455 243.968 109.325 243.934 109.264 243.913V244.986C109.346 245.021 109.482 245.062 109.688 245.062C111.185 245.062 111.656 243.824 111.8 241.862ZM120.249 245.123C122.211 245.123 123.537 243.708 123.537 241.445C123.537 239.176 122.211 237.768 120.249 237.768C118.28 237.768 116.954 239.176 116.954 241.445C116.954 243.708 118.28 245.123 120.249 245.123ZM120.249 244.077C118.991 244.077 118.164 243.12 118.164 241.445C118.164 239.771 118.991 238.813 120.249 238.813C121.507 238.813 122.327 239.771 122.327 241.445C122.327 243.12 121.507 244.077 120.249 244.077ZM134.762 246.88V244.022H133.634V237.891H132.458V244.022H129.833V237.891H128.657V244.022H126.032V237.891H124.856V245H133.654V246.88H134.762ZM138.173 244.111C137.318 244.111 136.751 243.667 136.751 242.99C136.751 242.32 137.298 241.896 138.255 241.835L140.155 241.719V242.3C140.155 243.325 139.294 244.111 138.173 244.111ZM137.906 245.123C138.863 245.123 139.766 244.59 140.189 243.776H140.217V245H141.345V240.085C141.345 238.67 140.292 237.768 138.624 237.768C136.942 237.768 135.89 238.711 135.808 239.941H136.956C137.106 239.244 137.681 238.813 138.597 238.813C139.581 238.813 140.155 239.333 140.155 240.201V240.796L138.118 240.912C136.478 241.008 135.541 241.773 135.541 242.99C135.541 244.269 136.491 245.123 137.906 245.123ZM147.702 244.022H144.236V243.968C144.571 243.517 144.756 242.744 144.817 241.862L145.036 238.868H147.702V244.022ZM143.389 246.88V245H148.905V246.88H150.013V244.022H148.885V237.891H143.99L143.717 241.835C143.648 242.792 143.396 243.681 142.876 244.022H142.281V246.88H143.389ZM153.492 241.254L156.814 237.891H155.345L152.31 241.035H152.255V237.891H151.079V245H152.255V241.582H152.31L155.379 245H156.91L153.492 241.254ZM160.048 244.111C159.193 244.111 158.626 243.667 158.626 242.99C158.626 242.32 159.173 241.896 160.13 241.835L162.03 241.719V242.3C162.03 243.325 161.169 244.111 160.048 244.111ZM159.781 245.123C160.738 245.123 161.641 244.59 162.064 243.776H162.092V245H163.22V240.085C163.22 238.67 162.167 237.768 160.499 237.768C158.817 237.768 157.765 238.711 157.683 239.941H158.831C158.981 239.244 159.556 238.813 160.472 238.813C161.456 238.813 162.03 239.333 162.03 240.201V240.796L159.993 240.912C158.353 241.008 157.416 241.773 157.416 242.99C157.416 244.269 158.366 245.123 159.781 245.123ZM167.383 242.293L169.085 245H170.404L168.039 241.397L170.438 237.891H169.112L167.424 240.557H167.396L165.688 237.891H164.361L166.74 241.445L164.32 245H165.64L167.355 242.293H167.383ZM176.844 241.254L180.166 237.891H178.696L175.661 241.035H175.606V237.891H174.431V245H175.606V241.582H175.661L178.73 245H180.262L176.844 241.254ZM184.712 237.768C183.68 237.768 182.853 238.294 182.415 239.094H182.388V237.891H181.26V247.372H182.449V243.845H182.477C182.9 244.624 183.721 245.123 184.739 245.123C186.53 245.123 187.754 243.674 187.754 241.445C187.754 239.217 186.523 237.768 184.712 237.768ZM184.479 244.077C183.263 244.077 182.442 243.031 182.442 241.445C182.442 239.866 183.263 238.813 184.479 238.813C185.744 238.813 186.537 239.839 186.537 241.445C186.537 243.059 185.744 244.077 184.479 244.077ZM192.026 245.123C193.988 245.123 195.314 243.708 195.314 241.445C195.314 239.176 193.988 237.768 192.026 237.768C190.058 237.768 188.731 239.176 188.731 241.445C188.731 243.708 190.058 245.123 192.026 245.123ZM192.026 244.077C190.769 244.077 189.941 243.12 189.941 241.445C189.941 239.771 190.769 238.813 192.026 238.813C193.284 238.813 194.104 239.771 194.104 241.445C194.104 243.12 193.284 244.077 192.026 244.077ZM197.81 245V239.955H197.857L200.154 244.795H201.063L203.36 239.955H203.408V245H204.591V237.891H203.203L200.66 243.428H200.605L198.076 237.891H196.634V245H197.81ZM209.116 238.8C210.237 238.8 210.982 239.647 211.01 240.837H207.147C207.223 239.654 208.002 238.8 209.116 238.8ZM210.982 242.963C210.784 243.633 210.121 244.091 209.219 244.091C207.94 244.091 207.141 243.195 207.141 241.835V241.767H212.24V241.315C212.24 239.162 211.058 237.768 209.137 237.768C207.175 237.768 205.917 239.265 205.917 241.473C205.917 243.708 207.154 245.123 209.191 245.123C210.743 245.123 211.946 244.207 212.151 242.963H210.982ZM222.966 245H224.258L220.621 235.136H219.404L215.768 245H217.06L218.051 242.177H221.975L222.966 245ZM219.992 236.633H220.033L221.612 241.131H218.413L219.992 236.633ZM225.201 245H226.391V240.543C226.391 239.559 227.074 238.82 228.018 238.82C228.899 238.82 229.474 239.381 229.474 240.235V245H230.663V240.481C230.663 239.518 231.326 238.82 232.27 238.82C233.206 238.82 233.746 239.395 233.746 240.365V245H234.936V240.092C234.936 238.684 234.026 237.768 232.618 237.768C231.62 237.768 230.786 238.273 230.39 239.121H230.362C230.055 238.26 229.337 237.768 228.366 237.768C227.409 237.768 226.685 238.273 226.35 239.025H226.322V237.891H225.201V245ZM238.798 244.111C237.943 244.111 237.376 243.667 237.376 242.99C237.376 242.32 237.923 241.896 238.88 241.835L240.78 241.719V242.3C240.78 243.325 239.919 244.111 238.798 244.111ZM238.531 245.123C239.488 245.123 240.391 244.59 240.814 243.776H240.842V245H241.97V240.085C241.97 238.67 240.917 237.768 239.249 237.768C237.567 237.768 236.515 238.711 236.433 239.941H237.581C237.731 239.244 238.306 238.813 239.222 238.813C240.206 238.813 240.78 239.333 240.78 240.201V240.796L238.743 240.912C237.103 241.008 236.166 241.773 236.166 242.99C236.166 244.269 237.116 245.123 238.531 245.123ZM243.262 245H248.566V244.022H244.636V244.002L248.546 238.759V237.891H243.269V238.868H247.199V238.889L243.262 244.152V245ZM252.634 245.123C254.596 245.123 255.922 243.708 255.922 241.445C255.922 239.176 254.596 237.768 252.634 237.768C250.665 237.768 249.339 239.176 249.339 241.445C249.339 243.708 250.665 245.123 252.634 245.123ZM252.634 244.077C251.376 244.077 250.549 243.12 250.549 241.445C250.549 239.771 251.376 238.813 252.634 238.813C253.892 238.813 254.712 239.771 254.712 241.445C254.712 243.12 253.892 244.077 252.634 244.077ZM257.125 245H258.314V240.816C258.314 239.613 259.046 238.82 260.167 238.82C261.261 238.82 261.801 239.449 261.801 240.598V245H262.99V240.386C262.99 238.772 262.088 237.768 260.529 237.768C259.429 237.768 258.67 238.26 258.273 239.025H258.246V237.891H257.125V245Z" fill="#222A33"/>
<path d="M187.754 119.276C187.02 122.504 184.923 125.208 181.462 127.39C178.001 129.572 173.143 131.501 166.887 133.176C160.628 134.853 155.453 135.613 151.364 135.455C147.276 135.297 144.092 133.955 141.813 131.428C139.54 128.904 137.953 126.56 137.054 124.397C136.154 122.233 135.104 118.909 133.903 114.423C132.702 109.94 131.95 106.536 131.646 104.212C131.342 101.889 131.52 99.1752 132.181 96.0721C133.55 90.061 140.594 85.3516 153.312 81.9439C165.832 78.5891 174.089 79.1988 178.082 83.773C180.453 86.2768 182.09 88.6079 182.991 90.7662C183.893 92.9246 184.943 96.249 186.142 100.739C187.344 105.228 188.097 108.631 188.4 110.95C188.702 113.269 188.487 116.044 187.754 119.276Z" fill="#BDF3E9"/>
<path d="M171.584 98.9956L155.776 116.496L149.084 109.902" stroke="#1AD8B4" stroke-width="5" stroke-linecap="round" stroke-linejoin="round"/>
<defs>
<filter id="filter0_d" x="-145" y="0.995605" width="609.732" height="605.769" filterUnits="userSpaceOnUse" color-interpolation-filters="sRGB">
<feFlood flood-opacity="0" result="BackgroundImageFix"/>
<feColorMatrix in="SourceAlpha" type="matrix" values="0 0 0 0 0 0 0 0 0 0 0 0 0 0 0 0 0 0 127 0"/>
<feOffset dy="94"/>
<feGaussianBlur stdDeviation="57"/>
<feColorMatrix type="matrix" values="0 0 0 0 0.475983 0 0 0 0 0.475983 0 0 0 0 0.475983 0 0 0 0.1 0"/>
<feBlend mode="normal" in2="BackgroundImageFix" result="effect1_dropShadow"/>
<feBlend mode="normal" in="SourceGraphic" in2="effect1_dropShadow" result="shape"/>
</filter>
</defs>
</svg>
