<svg width="611" height="606" viewBox="0 0 611 606" fill="none" xmlns="http://www.w3.org/2000/svg">
<path d="M387.682 320.789C384.853 334.126 376.376 345.391 362.251 354.583C348.126 363.775 328.231 372.007 302.564 379.278C276.882 386.557 255.615 389.993 238.765 389.586C221.914 389.178 208.722 383.839 199.187 373.567C189.674 363.304 183 353.744 179.167 344.888C175.334 336.031 170.811 322.401 165.599 303.998C160.385 285.603 157.084 271.629 155.694 262.076C154.304 252.523 154.878 241.336 157.415 228.516C162.699 203.677 191.43 183.862 243.61 169.071C294.979 154.511 329.022 156.532 345.739 175.135C355.655 185.307 362.534 194.811 366.375 203.647C370.216 212.483 374.739 226.113 379.943 244.537C385.163 262.952 388.465 276.926 389.849 286.459C391.232 295.991 390.51 307.435 387.682 320.789Z" fill="#FF4F45"/>
<g filter="url(#filter0_d)">
<path d="M466.144 273.811C462.196 292.423 450.366 308.143 430.655 320.971C410.943 333.799 383.178 345.286 347.36 355.433C311.52 365.592 281.842 370.387 258.327 369.818C234.811 369.249 216.401 361.798 203.096 347.464C189.819 333.141 180.506 319.8 175.157 307.441C169.808 295.082 163.496 276.061 156.223 250.378C148.947 224.708 144.339 205.207 142.399 191.876C140.46 178.544 141.261 162.932 144.802 145.042C152.175 110.378 192.271 82.726 265.088 62.0857C336.774 41.766 384.282 44.5867 407.611 70.5478C421.45 84.7426 431.05 98.0055 436.41 110.337C441.77 122.668 448.082 141.689 455.344 167.4C462.628 193.098 467.236 212.599 469.167 225.902C471.099 239.205 470.091 255.175 466.144 273.811Z" fill="white"/>
</g>
<path d="M253.393 174.127C255.902 174.127 257.152 172.828 258.383 169.967L262.699 159.908H259.594L256.664 167.74H256.547L253.471 159.908H250.346L255.023 170.641C254.525 171.412 253.891 171.666 253.031 171.666C252.533 171.666 252.27 171.607 252.172 171.578V173.98C252.25 174.029 252.787 174.127 253.393 174.127ZM272.299 167.105C272.025 164.908 270.287 163.307 267.592 163.307C264.467 163.307 262.484 165.416 262.484 168.756C262.484 172.154 264.467 174.225 267.611 174.225C270.268 174.225 272.055 172.74 272.309 170.426H269.652C269.408 171.412 268.705 171.988 267.641 171.988C266.225 171.988 265.355 170.797 265.355 168.756C265.355 166.754 266.225 165.543 267.631 165.543C268.715 165.543 269.398 166.197 269.633 167.105H272.299ZM282.123 163.531H273.041V165.68H276.166V174H279.008V165.68H282.123V163.531ZM288.188 174.225C291.352 174.225 293.373 172.203 293.373 168.756C293.373 165.357 291.322 163.307 288.188 163.307C285.053 163.307 283.002 165.367 283.002 168.756C283.002 172.193 285.023 174.225 288.188 174.225ZM288.188 172.047C286.781 172.047 285.893 170.865 285.893 168.766C285.893 166.686 286.801 165.484 288.188 165.484C289.574 165.484 290.473 166.686 290.473 168.766C290.473 170.865 289.584 172.047 288.188 172.047ZM297.816 174L301.977 167.379H302.055V174H304.848V163.531H302.055L297.895 170.074H297.816V163.531H295.023V174H297.816ZM296.586 158.795C296.586 160.719 297.963 162.008 300.023 162.008C302.074 162.008 303.461 160.719 303.461 158.795H301.713C301.693 159.84 301.039 160.592 300.023 160.592C298.998 160.592 298.344 159.84 298.324 158.795H296.586ZM316.176 174V163.531H313.334V167.496C312.982 167.955 312.328 168.326 311.371 168.326C310.219 168.326 309.545 167.613 309.545 166.412V163.531H306.703V166.822C306.703 169.195 308.148 170.689 310.541 170.689C311.742 170.689 312.65 170.27 313.227 169.645H313.334V174H316.176ZM321.02 174L325.18 167.379H325.258V174H328.051V163.531H325.258L321.098 170.074H321.02V163.531H318.227V174H321.02ZM334.584 165.338C335.521 165.338 336.049 165.777 336.049 166.539C336.049 167.33 335.482 167.77 334.438 167.77H332.895V165.338H334.584ZM334.584 169.42C335.795 169.42 336.439 169.889 336.439 170.797C336.439 171.705 335.824 172.193 334.711 172.193H332.895V169.42H334.584ZM330.102 174H335.443C337.816 174 339.301 172.809 339.301 170.973C339.301 169.654 338.334 168.678 336.938 168.512V168.434C338.012 168.268 338.832 167.291 338.832 166.168C338.832 164.518 337.523 163.531 335.346 163.531H330.102V174ZM345.062 172.105C344.096 172.105 343.451 171.617 343.451 170.836C343.451 170.094 344.057 169.615 345.121 169.537L347.328 169.4V170.162C347.328 171.295 346.303 172.105 345.062 172.105ZM344.125 174.166C345.434 174.166 346.732 173.512 347.318 172.398H347.377V174H350.131V166.803C350.131 164.693 348.383 163.307 345.697 163.307C342.924 163.307 341.195 164.703 341.088 166.734H343.695C343.832 165.963 344.506 165.436 345.57 165.436C346.645 165.436 347.328 166.002 347.328 166.979V167.672L344.691 167.828C342.084 167.984 340.619 169.088 340.619 170.992C340.619 172.877 342.133 174.166 344.125 174.166ZM356.498 168.619C355.502 168.619 354.857 168.014 354.857 167.174C354.857 166.246 355.492 165.65 356.498 165.65H358.207V168.619H356.498ZM358.207 174H360.99V163.531H356.215C353.676 163.531 352.025 164.938 352.025 167.164C352.025 168.668 352.904 169.742 354.33 170.191L351.576 174H354.74L357.064 170.621H358.207V174ZM237.367 198.225C240.561 198.225 242.543 196.203 242.543 192.912C242.543 189.875 240.707 187.951 237.885 187.951C236.176 187.951 234.994 188.674 234.35 189.924H234.271C234.613 187.258 235.541 186.037 238.129 185.959L239.281 185.92C240.717 185.881 241.703 185.617 241.859 185.471V183.264C241.576 183.41 240.424 183.645 239.105 183.693L237.885 183.723C234.066 183.84 232.074 186.115 232.074 192.004C232.074 196.096 233.988 198.225 237.367 198.225ZM237.318 195.979C235.854 195.979 234.994 194.904 234.994 192.98C234.994 191.145 235.863 190.07 237.318 190.07C238.764 190.07 239.623 191.145 239.623 192.98C239.623 194.904 238.764 195.979 237.318 195.979ZM247.006 198L251.166 191.379H251.244V198H254.037V187.531H251.244L247.084 194.074H247.006V187.531H244.213V198H247.006ZM260.326 198.225C263.168 198.225 264.926 196.926 264.926 194.865C264.926 193.703 264.252 192.863 262.982 192.531V192.453C263.959 192.18 264.555 191.33 264.555 190.285C264.555 188.42 263.051 187.307 260.258 187.307C257.699 187.307 256.039 188.586 255.834 190.686H258.52C258.646 189.895 259.281 189.455 260.277 189.455C261.283 189.455 261.781 189.914 261.781 190.598C261.781 191.34 261.264 191.701 260.258 191.701H258.891V193.557H260.336C261.498 193.557 262.084 193.938 262.084 194.758C262.084 195.52 261.459 196.018 260.326 196.018C259.271 196.018 258.598 195.568 258.354 194.68H255.639C255.834 196.896 257.611 198.225 260.326 198.225ZM273.52 198H276.361V187.531H273.52V191.555H269.496V187.531H266.654V198H269.496V193.713H273.52V198ZM283.109 189.416C284.379 189.416 285.248 190.334 285.307 191.672H280.863C280.961 190.363 281.859 189.416 283.109 189.416ZM285.346 194.797C285.082 195.598 284.281 196.115 283.236 196.115C281.781 196.115 280.834 195.09 280.834 193.596V193.42H288.051V192.551C288.051 189.367 286.127 187.307 283.08 187.307C279.984 187.307 278.031 189.475 278.031 192.814C278.031 196.164 279.965 198.225 283.188 198.225C285.775 198.225 287.65 196.848 287.963 194.797H285.346ZM299.125 191.105C298.852 188.908 297.113 187.307 294.418 187.307C291.293 187.307 289.311 189.416 289.311 192.756C289.311 196.154 291.293 198.225 294.438 198.225C297.094 198.225 298.881 196.74 299.135 194.426H296.479C296.234 195.412 295.531 195.988 294.467 195.988C293.051 195.988 292.182 194.797 292.182 192.756C292.182 190.754 293.051 189.543 294.457 189.543C295.541 189.543 296.225 190.197 296.459 191.105H299.125ZM307.318 193.518V191.027H300.902V193.518H307.318ZM312.24 198V190.998H312.309L315.014 197.414H316.986L319.701 190.998H319.77V198H322.445V187.531H318.793L316.059 194.367H315.99L313.256 187.531H309.564V198H312.24ZM329.311 198.225C332.475 198.225 334.496 196.203 334.496 192.756C334.496 189.357 332.445 187.307 329.311 187.307C326.176 187.307 324.125 189.367 324.125 192.756C324.125 196.193 326.146 198.225 329.311 198.225ZM329.311 196.047C327.904 196.047 327.016 194.865 327.016 192.766C327.016 190.686 327.924 189.484 329.311 189.484C330.697 189.484 331.596 190.686 331.596 192.766C331.596 194.865 330.707 196.047 329.311 196.047ZM342.992 195.842H338.861V195.764C339.33 195.061 339.545 194.094 339.623 192.98L339.857 189.67H342.992V195.842ZM337.748 200.715V198H344.789V200.715H347.387V195.842H345.834V187.531H337.455L337.113 192.795C337.016 194.211 336.723 195.412 335.961 195.842H335.16V200.715H337.748ZM353.305 189.416C354.574 189.416 355.443 190.334 355.502 191.672H351.059C351.156 190.363 352.055 189.416 353.305 189.416ZM355.541 194.797C355.277 195.598 354.477 196.115 353.432 196.115C351.977 196.115 351.029 195.09 351.029 193.596V193.42H358.246V192.551C358.246 189.367 356.322 187.307 353.275 187.307C350.18 187.307 348.227 189.475 348.227 192.814C348.227 196.164 350.16 198.225 353.383 198.225C355.971 198.225 357.846 196.848 358.158 194.797H355.541ZM363.363 192.98L363.568 189.68H366.225V198H369.066V187.531H361.127L360.834 192.795C360.746 194.445 360.443 195.656 359.447 195.656C359.164 195.656 358.949 195.617 358.832 195.588V197.99C358.979 198.049 359.301 198.127 359.74 198.127C362.328 198.127 363.178 196.086 363.363 192.98ZM375.541 192.658C376.566 192.658 377.24 193.303 377.24 194.26C377.24 195.217 376.576 195.871 375.541 195.871H373.969V192.658H375.541ZM371.127 198H376.01C378.48 198 380.062 196.555 380.062 194.279C380.062 192.004 378.48 190.559 376.01 190.559H373.969V187.531H371.127V198Z" fill="#222A33"/>
<path opacity="0.7" d="M202.477 243C204.875 243 206.297 241.82 206.297 239.836C206.297 238.336 205.312 237.258 203.781 237.062V237C204.867 236.805 205.727 235.711 205.727 234.539C205.727 232.852 204.422 231.727 202.492 231.727H198.219V243H202.477ZM199.625 232.969H202.172C203.539 232.969 204.305 233.586 204.305 234.703C204.305 235.922 203.398 236.586 201.734 236.586H199.625V232.969ZM199.625 241.758V237.797H202.133C203.93 237.797 204.852 238.461 204.852 239.766C204.852 241.07 203.961 241.758 202.266 241.758H199.625ZM211.203 243.141C213.445 243.141 214.961 241.523 214.961 238.938C214.961 236.344 213.445 234.734 211.203 234.734C208.953 234.734 207.438 236.344 207.438 238.938C207.438 241.523 208.953 243.141 211.203 243.141ZM211.203 241.945C209.766 241.945 208.82 240.852 208.82 238.938C208.82 237.023 209.766 235.93 211.203 235.93C212.641 235.93 213.578 237.023 213.578 238.938C213.578 240.852 212.641 241.945 211.203 241.945ZM219.18 243.141C221.086 243.141 222.352 242.117 222.352 240.602C222.352 239.664 221.797 238.977 220.727 238.742V238.68C221.539 238.492 222.07 237.758 222.07 236.93C222.07 235.625 221.062 234.734 219.211 234.734C217.492 234.734 216.32 235.586 216.148 236.93H217.469C217.578 236.281 218.25 235.867 219.211 235.867C220.258 235.867 220.742 236.359 220.742 237.039C220.742 237.836 220.211 238.227 219.18 238.227H217.961V239.336H219.18C220.406 239.336 221.016 239.75 221.016 240.664C221.016 241.453 220.359 242.016 219.18 242.016C218.172 242.016 217.5 241.602 217.344 240.891H215.969C216.109 242.266 217.398 243.141 219.18 243.141ZM225.25 243V237.234H225.305L227.93 242.766H228.969L231.594 237.234H231.648V243H233V234.875H231.414L228.508 241.203H228.445L225.555 234.875H223.906V243H225.25ZM238.281 243.141C240.523 243.141 242.039 241.523 242.039 238.938C242.039 236.344 240.523 234.734 238.281 234.734C236.031 234.734 234.516 236.344 234.516 238.938C234.516 241.523 236.031 243.141 238.281 243.141ZM238.281 241.945C236.844 241.945 235.898 240.852 235.898 238.938C235.898 237.023 236.844 235.93 238.281 235.93C239.719 235.93 240.656 237.023 240.656 238.938C240.656 240.852 239.719 241.945 238.281 241.945ZM250.195 238.719L253.742 234.875H252.086L248.844 238.469H248.781V234.875H247.438V238.469H247.383L244.141 234.875H242.469L246.031 238.742L242.383 243H244.102L247.383 239.094H247.438V243H248.781V239.094H248.844L252.125 243H253.867L250.195 238.719ZM260.367 243H261.711V234.875H260.367V238.227H256.359V234.875H255.016V243H256.359V239.344H260.367V243ZM267 243.141C269.242 243.141 270.758 241.523 270.758 238.938C270.758 236.344 269.242 234.734 267 234.734C264.75 234.734 263.234 236.344 263.234 238.938C263.234 241.523 264.75 243.141 267 243.141ZM267 241.945C265.562 241.945 264.617 240.852 264.617 238.938C264.617 237.023 265.562 235.93 267 235.93C268.438 235.93 269.375 237.023 269.375 238.938C269.375 240.852 268.438 241.945 267 241.945ZM278.992 237.375C278.75 235.992 277.555 234.734 275.594 234.734C273.344 234.734 271.875 236.406 271.875 238.938C271.875 241.523 273.352 243.141 275.609 243.141C277.438 243.141 278.742 242.055 279.008 240.516H277.664C277.406 241.414 276.695 241.945 275.617 241.945C274.203 241.945 273.258 240.797 273.258 238.938C273.258 237.125 274.188 235.93 275.602 235.93C276.75 235.93 277.414 236.594 277.648 237.375H278.992ZM286.211 234.875H279.617V235.992H282.242V243H283.586V235.992H286.211V234.875ZM290.328 238.586C291.375 238.586 292.062 239.234 292.062 240.234C292.062 241.227 291.383 241.883 290.328 241.883H288.812V238.586H290.328ZM287.469 243H290.352C292.211 243 293.406 241.93 293.406 240.234C293.406 238.539 292.211 237.469 290.352 237.469H288.812V234.875H287.469V243ZM303.445 243H304.797V234.875H298.172V243H299.516V235.992H303.445V243ZM310.656 234.734C309.477 234.734 308.531 235.336 308.031 236.25H308V234.875H306.711V245.711H308.07V241.68H308.102C308.586 242.57 309.523 243.141 310.688 243.141C312.734 243.141 314.133 241.484 314.133 238.938C314.133 236.391 312.727 234.734 310.656 234.734ZM310.391 241.945C309 241.945 308.062 240.75 308.062 238.938C308.062 237.133 309 235.93 310.391 235.93C311.836 235.93 312.742 237.102 312.742 238.938C312.742 240.781 311.836 241.945 310.391 241.945ZM319.016 243.141C321.258 243.141 322.773 241.523 322.773 238.938C322.773 236.344 321.258 234.734 319.016 234.734C316.766 234.734 315.25 236.344 315.25 238.938C315.25 241.523 316.766 243.141 319.016 243.141ZM319.016 241.945C317.578 241.945 316.633 240.852 316.633 238.938C316.633 237.023 317.578 235.93 319.016 235.93C320.453 235.93 321.391 237.023 321.391 238.938C321.391 240.852 320.453 241.945 319.016 241.945ZM329.516 241.883H325.555V241.82C325.938 241.305 326.148 240.422 326.219 239.414L326.469 235.992H329.516V241.883ZM324.586 245.148V243H330.891V245.148H332.156V241.883H330.867V234.875H325.273L324.961 239.383C324.883 240.477 324.594 241.492 324 241.883H323.32V245.148H324.586ZM336.062 241.984C335.086 241.984 334.438 241.477 334.438 240.703C334.438 239.938 335.062 239.453 336.156 239.383L338.328 239.25V239.914C338.328 241.086 337.344 241.984 336.062 241.984ZM335.758 243.141C336.852 243.141 337.883 242.531 338.367 241.602H338.398V243H339.688V237.383C339.688 235.766 338.484 234.734 336.578 234.734C334.656 234.734 333.453 235.812 333.359 237.219H334.672C334.844 236.422 335.5 235.93 336.547 235.93C337.672 235.93 338.328 236.523 338.328 237.516V238.195L336 238.328C334.125 238.438 333.055 239.312 333.055 240.703C333.055 242.164 334.141 243.141 335.758 243.141ZM344.852 235.977C345.703 235.977 346.164 236.375 346.164 237.094C346.164 237.875 345.672 238.25 344.648 238.25H342.906V235.977H344.852ZM344.758 239.344C345.945 239.344 346.516 239.766 346.516 240.633C346.516 241.453 345.984 241.898 345 241.898H342.906V239.344H344.758ZM341.562 243H345.062C346.789 243 347.852 242.102 347.852 240.664C347.852 239.648 347.18 238.906 346.156 238.766V238.703C346.906 238.547 347.492 237.781 347.492 236.953C347.492 235.664 346.562 234.875 345.039 234.875H341.562V243ZM352.094 241.984C351.117 241.984 350.469 241.477 350.469 240.703C350.469 239.938 351.094 239.453 352.188 239.383L354.359 239.25V239.914C354.359 241.086 353.375 241.984 352.094 241.984ZM351.789 243.141C352.883 243.141 353.914 242.531 354.398 241.602H354.43V243H355.719V237.383C355.719 235.766 354.516 234.734 352.609 234.734C350.688 234.734 349.484 235.812 349.391 237.219H350.703C350.875 236.422 351.531 235.93 352.578 235.93C353.703 235.93 354.359 236.523 354.359 237.516V238.195L352.031 238.328C350.156 238.438 349.086 239.312 349.086 240.703C349.086 242.164 350.172 243.141 351.789 243.141ZM363.383 234.875H356.789V235.992H359.414V243H360.758V235.992H363.383V234.875ZM367.5 238.586C368.547 238.586 369.234 239.234 369.234 240.234C369.234 241.227 368.555 241.883 367.5 241.883H365.984V238.586H367.5ZM364.641 243H367.523C369.383 243 370.578 241.93 370.578 240.234C370.578 238.539 369.383 237.469 367.523 237.469H365.984V234.875H364.641V243ZM382.07 237.375C381.828 235.992 380.633 234.734 378.672 234.734C376.422 234.734 374.953 236.406 374.953 238.938C374.953 241.523 376.43 243.141 378.688 243.141C380.516 243.141 381.82 242.055 382.086 240.516H380.742C380.484 241.414 379.773 241.945 378.695 241.945C377.281 241.945 376.336 240.797 376.336 238.938C376.336 237.125 377.266 235.93 378.68 235.93C379.828 235.93 380.492 236.594 380.727 237.375H382.07ZM387.453 234.734C386.273 234.734 385.328 235.336 384.828 236.25H384.797V234.875H383.508V245.711H384.867V241.68H384.898C385.383 242.57 386.32 243.141 387.484 243.141C389.531 243.141 390.93 241.484 390.93 238.938C390.93 236.391 389.523 234.734 387.453 234.734ZM387.188 241.945C385.797 241.945 384.859 240.75 384.859 238.938C384.859 237.133 385.797 235.93 387.188 235.93C388.633 235.93 389.539 237.102 389.539 238.938C389.539 240.781 388.633 241.945 387.188 241.945ZM395.125 241.984C394.148 241.984 393.5 241.477 393.5 240.703C393.5 239.938 394.125 239.453 395.219 239.383L397.391 239.25V239.914C397.391 241.086 396.406 241.984 395.125 241.984ZM394.82 243.141C395.914 243.141 396.945 242.531 397.43 241.602H397.461V243H398.75V237.383C398.75 235.766 397.547 234.734 395.641 234.734C393.719 234.734 392.516 235.812 392.422 237.219H393.734C393.906 236.422 394.562 235.93 395.609 235.93C396.734 235.93 397.391 236.523 397.391 237.516V238.195L395.062 238.328C393.188 238.438 392.117 239.312 392.117 240.703C392.117 242.164 393.203 243.141 394.82 243.141ZM403.336 243.141C405.242 243.141 406.508 242.117 406.508 240.602C406.508 239.664 405.953 238.977 404.883 238.742V238.68C405.695 238.492 406.227 237.758 406.227 236.93C406.227 235.625 405.219 234.734 403.367 234.734C401.648 234.734 400.477 235.586 400.305 236.93H401.625C401.734 236.281 402.406 235.867 403.367 235.867C404.414 235.867 404.898 236.359 404.898 237.039C404.898 237.836 404.367 238.227 403.336 238.227H402.117V239.336H403.336C404.562 239.336 405.172 239.75 405.172 240.664C405.172 241.453 404.516 242.016 403.336 242.016C402.328 242.016 401.656 241.602 401.5 240.891H400.125C400.266 242.266 401.555 243.141 403.336 243.141ZM408.664 246.039C410.133 246.039 410.805 245.469 411.5 243.57L414.695 234.875H413.266L411.016 241.641H410.992L408.742 234.875H407.289L410.289 243.008L410.102 243.578C409.789 244.523 409.367 244.891 408.609 244.891C408.438 244.891 408.227 244.883 408.078 244.852V245.992C408.227 246.023 408.5 246.039 408.664 246.039ZM222.898 262H224.242V253.875H222.898V257.227H218.891V253.875H217.547V262H218.891V258.344H222.898V262ZM228.844 260.984C227.867 260.984 227.219 260.477 227.219 259.703C227.219 258.938 227.844 258.453 228.938 258.383L231.109 258.25V258.914C231.109 260.086 230.125 260.984 228.844 260.984ZM228.539 262.141C229.633 262.141 230.664 261.531 231.148 260.602H231.18V262H232.469V256.383C232.469 254.766 231.266 253.734 229.359 253.734C227.438 253.734 226.234 254.812 226.141 256.219H227.453C227.625 255.422 228.281 254.93 229.328 254.93C230.453 254.93 231.109 255.523 231.109 256.516V257.195L228.781 257.328C226.906 257.438 225.836 258.312 225.836 259.703C225.836 261.164 226.922 262.141 228.539 262.141ZM237.516 253.977V253.984H238.875V253.977C238.875 252.719 239.875 251.766 241.195 251.766C242.438 251.766 243.43 252.633 243.43 253.719C243.43 254.656 243.07 255.258 241.555 256.852L237.586 261.031V262H245.023V260.75H239.531V260.719L242.383 257.773C244.266 255.828 244.836 254.891 244.836 253.633C244.836 251.906 243.25 250.539 241.234 250.539C239.109 250.539 237.516 252.008 237.516 253.977ZM250.594 262.188C253.219 262.188 254.734 259.914 254.734 256.352C254.734 252.812 253.211 250.539 250.594 250.539C247.977 250.539 246.438 252.828 246.438 256.359C246.438 259.922 247.961 262.188 250.594 262.188ZM250.594 260.961C248.828 260.961 247.852 259.164 247.852 256.352C247.852 253.602 248.852 251.773 250.594 251.773C252.336 251.773 253.32 253.586 253.32 256.359C253.32 259.172 252.352 260.961 250.594 260.961ZM260.906 258.188H264.242V256.922H260.906V253.43H259.641V256.922H256.305V258.188H259.641V261.766H260.906V258.188ZM274.633 262H275.984V253.875H269.359V262H270.703V254.992H274.633V262ZM280.062 258.414L280.312 254.992H283.078V262H284.422V253.875H279.102L278.789 258.383C278.688 259.875 278.383 260.82 277.578 260.82C277.383 260.82 277.234 260.781 277.164 260.758V261.984C277.258 262.023 277.414 262.07 277.648 262.07C279.359 262.07 279.898 260.656 280.062 258.414ZM289.719 262.141C291.961 262.141 293.477 260.523 293.477 257.938C293.477 255.344 291.961 253.734 289.719 253.734C287.469 253.734 285.953 255.344 285.953 257.938C285.953 260.523 287.469 262.141 289.719 262.141ZM289.719 260.945C288.281 260.945 287.336 259.852 287.336 257.938C287.336 256.023 288.281 254.93 289.719 254.93C291.156 254.93 292.094 256.023 292.094 257.938C292.094 259.852 291.156 260.945 289.719 260.945ZM306.305 264.148V260.883H305.016V253.875H303.672V260.883H300.672V253.875H299.328V260.883H296.328V253.875H294.984V262H305.039V264.148H306.305ZM310.203 260.984C309.227 260.984 308.578 260.477 308.578 259.703C308.578 258.938 309.203 258.453 310.297 258.383L312.469 258.25V258.914C312.469 260.086 311.484 260.984 310.203 260.984ZM309.898 262.141C310.992 262.141 312.023 261.531 312.508 260.602H312.539V262H313.828V256.383C313.828 254.766 312.625 253.734 310.719 253.734C308.797 253.734 307.594 254.812 307.5 256.219H308.812C308.984 255.422 309.641 254.93 310.688 254.93C311.812 254.93 312.469 255.523 312.469 256.516V257.195L310.141 257.328C308.266 257.438 307.195 258.312 307.195 259.703C307.195 261.164 308.281 262.141 309.898 262.141ZM321.094 260.883H317.133V260.82C317.516 260.305 317.727 259.422 317.797 258.414L318.047 254.992H321.094V260.883ZM316.164 264.148V262H322.469V264.148H323.734V260.883H322.445V253.875H316.852L316.539 258.383C316.461 259.477 316.172 260.492 315.578 260.883H314.898V264.148H316.164ZM327.711 257.719L331.508 253.875H329.828L326.359 257.469H326.297V253.875H324.953V262H326.297V258.094H326.359L329.867 262H331.617L327.711 257.719ZM335.203 260.984C334.227 260.984 333.578 260.477 333.578 259.703C333.578 258.938 334.203 258.453 335.297 258.383L337.469 258.25V258.914C337.469 260.086 336.484 260.984 335.203 260.984ZM334.898 262.141C335.992 262.141 337.023 261.531 337.508 260.602H337.539V262H338.828V256.383C338.828 254.766 337.625 253.734 335.719 253.734C333.797 253.734 332.594 254.812 332.5 256.219H333.812C333.984 255.422 334.641 254.93 335.688 254.93C336.812 254.93 337.469 255.523 337.469 256.516V257.195L335.141 257.328C333.266 257.438 332.195 258.312 332.195 259.703C332.195 261.164 333.281 262.141 334.898 262.141ZM343.586 258.906L345.531 262H347.039L344.336 257.883L347.078 253.875H345.562L343.633 256.922H343.602L341.648 253.875H340.133L342.852 257.938L340.086 262H341.594L343.555 258.906H343.586ZM354.398 257.719L358.195 253.875H356.516L353.047 257.469H352.984V253.875H351.641V262H352.984V258.094H353.047L356.555 262H358.305L354.398 257.719ZM363.391 253.734C362.211 253.734 361.266 254.336 360.766 255.25H360.734V253.875H359.445V264.711H360.805V260.68H360.836C361.32 261.57 362.258 262.141 363.422 262.141C365.469 262.141 366.867 260.484 366.867 257.938C366.867 255.391 365.461 253.734 363.391 253.734ZM363.125 260.945C361.734 260.945 360.797 259.75 360.797 257.938C360.797 256.133 361.734 254.93 363.125 254.93C364.57 254.93 365.477 256.102 365.477 257.938C365.477 259.781 364.57 260.945 363.125 260.945ZM371.75 262.141C373.992 262.141 375.508 260.523 375.508 257.938C375.508 255.344 373.992 253.734 371.75 253.734C369.5 253.734 367.984 255.344 367.984 257.938C367.984 260.523 369.5 262.141 371.75 262.141ZM371.75 260.945C370.312 260.945 369.367 259.852 369.367 257.938C369.367 256.023 370.312 254.93 371.75 254.93C373.188 254.93 374.125 256.023 374.125 257.938C374.125 259.852 373.188 260.945 371.75 260.945ZM378.359 262V256.234H378.414L381.039 261.766H382.078L384.703 256.234H384.758V262H386.109V253.875H384.523L381.617 260.203H381.555L378.664 253.875H377.016V262H378.359ZM391.281 254.914C392.562 254.914 393.414 255.883 393.445 257.242H389.031C389.117 255.891 390.008 254.914 391.281 254.914ZM393.414 259.672C393.188 260.438 392.43 260.961 391.398 260.961C389.938 260.961 389.023 259.938 389.023 258.383V258.305H394.852V257.789C394.852 255.328 393.5 253.734 391.305 253.734C389.062 253.734 387.625 255.445 387.625 257.969C387.625 260.523 389.039 262.141 391.367 262.141C393.141 262.141 394.516 261.094 394.75 259.672H393.414ZM286.914 281H288.391L284.234 269.727H282.844L278.688 281H280.164L281.297 277.773H285.781L286.914 281ZM283.516 271.438H283.562L285.367 276.578H281.711L283.516 271.438ZM289.469 281H290.828V275.906C290.828 274.781 291.609 273.938 292.688 273.938C293.695 273.938 294.352 274.578 294.352 275.555V281H295.711V275.836C295.711 274.734 296.469 273.938 297.547 273.938C298.617 273.938 299.234 274.594 299.234 275.703V281H300.594V275.391C300.594 273.781 299.555 272.734 297.945 272.734C296.805 272.734 295.852 273.312 295.398 274.281H295.367C295.016 273.297 294.195 272.734 293.086 272.734C291.992 272.734 291.164 273.312 290.781 274.172H290.75V272.875H289.469V281ZM305.008 279.984C304.031 279.984 303.383 279.477 303.383 278.703C303.383 277.938 304.008 277.453 305.102 277.383L307.273 277.25V277.914C307.273 279.086 306.289 279.984 305.008 279.984ZM304.703 281.141C305.797 281.141 306.828 280.531 307.312 279.602H307.344V281H308.633V275.383C308.633 273.766 307.43 272.734 305.523 272.734C303.602 272.734 302.398 273.812 302.305 275.219H303.617C303.789 274.422 304.445 273.93 305.492 273.93C306.617 273.93 307.273 274.523 307.273 275.516V276.195L304.945 276.328C303.07 276.438 302 277.312 302 278.703C302 280.164 303.086 281.141 304.703 281.141ZM310.109 281H316.172V279.883H311.68V279.859L316.148 273.867V272.875H310.117V273.992H314.609V274.016L310.109 280.031V281ZM320.82 281.141C323.062 281.141 324.578 279.523 324.578 276.938C324.578 274.344 323.062 272.734 320.82 272.734C318.57 272.734 317.055 274.344 317.055 276.938C317.055 279.523 318.57 281.141 320.82 281.141ZM320.82 279.945C319.383 279.945 318.438 278.852 318.438 276.938C318.438 275.023 319.383 273.93 320.82 273.93C322.258 273.93 323.195 275.023 323.195 276.938C323.195 278.852 322.258 279.945 320.82 279.945ZM325.953 281H327.312V276.219C327.312 274.844 328.148 273.938 329.43 273.938C330.68 273.938 331.297 274.656 331.297 275.969V281H332.656V275.727C332.656 273.883 331.625 272.734 329.844 272.734C328.586 272.734 327.719 273.297 327.266 274.172H327.234V272.875H325.953V281Z" fill="#222A33"/>
<path d="M333.67 118.281C332.936 121.508 330.839 124.213 327.379 126.395C323.918 128.577 319.059 130.505 312.804 132.181C306.544 133.858 301.37 134.618 297.281 134.46C293.192 134.302 290.008 132.96 287.73 130.433C285.456 127.908 283.87 125.564 282.97 123.401C282.071 121.238 281.021 117.914 279.82 113.428C278.618 108.945 277.866 105.541 277.562 103.217C277.258 100.893 277.436 98.1798 278.097 95.0767C279.467 89.0657 286.51 84.3563 299.228 80.9485C311.748 77.5937 320.005 78.2034 323.998 82.7777C326.37 85.2815 328.006 87.6125 328.908 89.7709C329.809 91.9292 330.859 95.2536 332.058 99.7441C333.261 104.232 334.013 107.636 334.316 109.955C334.618 112.274 334.403 115.049 333.67 118.281Z" fill="#BDF3E9"/>
<path d="M317.5 98L301.692 115.5L295 108.907" stroke="#1AD8B4" stroke-width="5" stroke-linecap="round" stroke-linejoin="round"/>
<defs>
<filter id="filter0_d" x="0.91626" y="-0.000244141" width="609.732" height="605.769" filterUnits="userSpaceOnUse" color-interpolation-filters="sRGB">
<feFlood flood-opacity="0" result="BackgroundImageFix"/>
<feColorMatrix in="SourceAlpha" type="matrix" values="0 0 0 0 0 0 0 0 0 0 0 0 0 0 0 0 0 0 127 0"/>
<feOffset dy="94"/>
<feGaussianBlur stdDeviation="57"/>
<feColorMatrix type="matrix" values="0 0 0 0 0.475983 0 0 0 0 0.475983 0 0 0 0 0.475983 0 0 0 0.1 0"/>
<feBlend mode="normal" in2="BackgroundImageFix" result="effect1_dropShadow"/>
<feBlend mode="normal" in="SourceGraphic" in2="effect1_dropShadow" result="shape"/>
</filter>
</defs>
</svg>
