<svg width="643" height="647" viewBox="0 0 643 647" fill="none" xmlns="http://www.w3.org/2000/svg">
<path d="M377.066 380.552C359.999 388.946 340.336 389.359 318.077 381.79C295.818 374.221 269.639 359.494 239.538 337.61C209.414 315.715 187.312 295.351 173.234 276.517C159.155 257.683 153.639 238.61 156.686 219.298C159.742 200.015 164.475 184.454 170.885 172.615C177.295 160.776 188.346 144.066 204.04 122.484C219.721 100.908 232.202 85.2407 241.483 75.4809C250.763 65.7211 263.528 56.7072 279.777 48.4391C311.577 32.8218 358.079 47.2548 419.283 91.7382C479.536 135.531 506.666 174.613 500.672 208.986C498.063 228.632 493.569 244.37 487.188 256.2C480.807 268.03 469.755 284.741 454.033 306.331C438.334 327.931 425.853 343.599 416.59 353.334C407.327 363.07 394.152 372.142 377.066 380.552Z" fill="#3EB3EF"/>
<g filter="url(#filter0_d)">
<path d="M495.712 306.598C491.098 326.904 477.904 343.921 456.129 357.649C434.355 371.377 403.788 383.511 364.429 394.05C325.046 404.603 292.491 409.383 266.765 408.389C241.039 407.396 221.009 398.951 206.673 383.055C192.369 367.171 182.388 352.423 176.729 338.813C171.069 325.203 164.462 304.287 156.907 276.065C149.349 247.858 144.614 226.444 142.702 211.823C140.789 197.202 141.912 180.13 146.069 160.607C154.685 122.787 199.001 93.1573 279.018 71.717C357.791 50.6098 409.738 54.4459 434.86 83.2254C449.781 98.9782 460.078 113.644 465.75 127.224C471.421 140.803 478.028 161.719 485.571 189.972C493.138 218.211 497.873 239.625 499.776 254.214C501.68 268.803 500.325 286.265 495.712 306.598Z" fill="white"/>
</g>
<path d="M223 216H258V252L270.5 243.5L285 252V216H319.5V292H223V216Z" fill="#278DCC"/>
<path d="M320 216H355V252L367.5 243.5L382 252V216H416.5V292H320V216Z" fill="#FF4F45"/>
<path d="M273 138H308V174L320.5 165.5L335 174V138H369.5V214H273V138Z" fill="#DF8A44"/>
<path d="M418.059 211.449H372.592C373.442 209.52 373.921 207.396 373.921 205.155V140.684C373.921 138.099 371.825 136 369.238 136H272.505C269.918 136 267.821 138.099 267.821 140.684V211.449H223.686C221.101 211.449 219 213.548 219 216.135V291.589C219 294.176 221.101 296.27 223.686 296.27H309.455C312.347 296.27 315.052 295.467 317.379 294.09C318.209 295.397 319.661 296.27 321.326 296.27H407.092C415.72 296.27 422.742 289.246 422.742 280.609V216.133C422.742 213.546 420.644 211.449 418.059 211.449ZM360.768 220.817H377.569V244.647L370.712 240.431C369.959 239.968 369.109 239.737 368.258 239.737C367.309 239.737 366.363 240.024 365.553 240.596L360.77 243.98V220.817H360.768ZM328.746 145.37V169.2L321.88 164.982C321.127 164.521 320.276 164.29 319.431 164.29C318.481 164.29 317.533 164.58 316.726 165.15L311.951 168.528V145.37H328.746ZM277.191 145.37H302.579V177.575C302.579 179.323 303.556 180.929 305.11 181.732C305.789 182.084 306.528 182.259 307.265 182.259C308.218 182.259 309.163 181.967 309.968 181.399L319.609 174.583L330.978 181.567C332.423 182.451 334.235 182.492 335.716 181.662C337.195 180.834 338.118 179.269 338.118 177.573V145.37H364.554V205.155C364.554 208.624 361.734 211.449 358.273 211.449H277.191V145.37ZM272.505 220.817H279.927V244.649L273.061 240.431C272.308 239.968 271.458 239.737 270.61 239.737C269.66 239.737 268.714 240.024 267.905 240.596L263.124 243.98V220.817H272.505ZM315.733 280.611C315.733 284.08 312.915 286.905 309.455 286.905H228.372V220.817H253.754V253.028C253.754 254.779 254.731 256.382 256.287 257.19C256.965 257.538 257.703 257.71 258.438 257.71C259.39 257.71 260.337 257.42 261.143 256.853L270.79 250.03L282.16 257.018C283.607 257.904 285.418 257.938 286.9 257.115C288.381 256.287 289.297 254.722 289.297 253.026V220.817H315.733V280.611ZM413.373 280.611C413.373 284.08 410.557 286.905 407.092 286.905H326.01V220.817H351.4V253.028C351.4 254.779 352.377 256.382 353.931 257.19C354.61 257.538 355.347 257.71 356.084 257.71C357.034 257.71 357.984 257.42 358.789 256.853L368.435 250.03L379.797 257.018C381.242 257.904 383.054 257.947 384.535 257.115C386.016 256.287 386.935 254.722 386.935 253.026V220.817H413.373V280.611Z" fill="#222A33"/>
<path d="M256.694 270.427H239.533C236.946 270.427 234.847 272.523 234.847 275.111C234.847 277.698 236.946 279.794 239.533 279.794H256.694C259.284 279.794 261.38 277.698 261.38 275.111C261.38 272.523 259.284 270.427 256.694 270.427Z" fill="#222A33"/>
<path d="M354.438 270.427H337.268C334.678 270.427 332.582 272.523 332.582 275.111C332.582 277.698 334.68 279.794 337.268 279.794H354.438C357.027 279.794 359.121 277.698 359.121 275.111C359.121 272.523 357.025 270.427 354.438 270.427Z" fill="#222A33"/>
<path d="M290.093 204.723H307.265C309.85 204.723 311.951 202.624 311.951 200.037C311.951 197.452 309.85 195.351 307.265 195.351H290.093C287.506 195.351 285.409 197.452 285.409 200.037C285.409 202.624 287.508 204.723 290.093 204.723Z" fill="#222A33"/>
<path d="M418.059 301.951H400.178H329.809H311.931H241.559H223.686C221.101 301.951 219 304.047 219 306.635V324.515C219 327.102 221.101 329.196 223.686 329.196H241.559C244.147 329.196 246.245 327.1 246.245 324.515V311.318H307.245V324.515C307.245 327.102 309.346 329.196 311.931 329.196H329.809C332.399 329.196 334.491 327.1 334.491 324.515V311.318H395.49V324.515C395.49 327.102 397.591 329.196 400.176 329.196H418.056C420.644 329.196 422.74 327.1 422.74 324.515V306.635C422.742 304.047 420.644 301.951 418.059 301.951ZM236.876 319.833H228.372V311.321H236.876V319.833ZM325.125 319.833H316.617V311.321H325.125V319.833ZM413.373 319.833H404.86V311.321H413.373V319.833Z" fill="#222A33"/>
<path d="M143.873 292.419C143.56 294.594 144.216 296.77 145.841 298.946C147.467 301.122 150.019 303.474 153.498 306.002C156.978 308.531 160.004 310.234 162.576 311.109C165.148 311.985 167.441 311.911 169.454 310.887C171.464 309.863 173.006 308.788 174.078 307.662C175.151 306.535 176.593 304.724 178.405 302.23C180.217 299.737 181.493 297.807 182.235 296.439C182.976 295.071 183.512 293.347 183.841 291.266C184.423 287.214 181.178 282.619 174.107 277.479C167.145 272.42 161.883 270.832 158.319 272.717C156.253 273.704 154.684 274.759 153.612 275.883C152.539 277.006 151.097 278.816 149.285 281.314C147.471 283.81 146.194 285.74 145.455 287.105C144.715 288.47 144.188 290.242 143.873 292.419Z" fill="#222A33"/>
<defs>
<filter id="filter0_d" x="0" y="8" width="642.476" height="638.027" filterUnits="userSpaceOnUse" color-interpolation-filters="sRGB">
<feFlood flood-opacity="0" result="BackgroundImageFix"/>
<feColorMatrix in="SourceAlpha" type="matrix" values="0 0 0 0 0 0 0 0 0 0 0 0 0 0 0 0 0 0 127 0"/>
<feOffset dy="94"/>
<feGaussianBlur stdDeviation="57"/>
<feColorMatrix type="matrix" values="0 0 0 0 0.475983 0 0 0 0 0.475983 0 0 0 0 0.475983 0 0 0 0.1 0"/>
<feBlend mode="normal" in2="BackgroundImageFix" result="effect1_dropShadow"/>
<feBlend mode="normal" in="SourceGraphic" in2="effect1_dropShadow" result="shape"/>
</filter>
</defs>
</svg>
