<svg width="675" height="670" viewBox="0 0 675 670" fill="none" xmlns="http://www.w3.org/2000/svg">
<path d="M569.129 261.063C572.53 279.632 567.607 298.52 554.359 317.73C541.112 336.94 519.969 357.958 490.93 380.785C461.876 403.632 436.452 419.231 414.659 427.582C392.866 435.934 373.16 436.044 355.542 427.912C337.954 419.779 324.374 411.051 314.802 401.728C305.229 392.406 292.26 377.333 275.894 356.51C259.531 335.701 247.944 319.545 241.133 308.043C234.323 296.541 229.167 281.914 225.665 264.161C219.35 229.57 245.708 189.065 304.739 142.647C362.853 96.9499 407.512 81.611 438.716 96.6302C456.771 104.434 470.585 112.982 480.157 122.274C489.729 131.567 502.698 146.639 519.064 167.492C535.446 188.325 547.033 204.481 553.825 215.959C560.617 227.438 565.719 242.472 569.129 261.063Z" fill="#FF4F45"/>
<g filter="url(#filter0_d)">
<path d="M525.164 320.338C520.195 342.21 505.983 360.539 482.53 375.326C459.077 390.112 426.153 403.182 383.759 414.534C341.339 425.9 306.275 431.048 278.565 429.978C250.855 428.908 229.28 419.812 213.84 402.69C198.433 385.581 187.682 369.697 181.586 355.037C175.491 340.378 168.374 317.849 160.237 287.451C152.096 257.069 146.996 234.004 144.936 218.256C142.876 202.507 144.085 184.119 148.563 163.09C157.844 122.355 205.577 90.4405 291.762 67.3471C376.609 44.6124 432.562 48.7443 459.621 79.7428C475.692 96.7103 486.783 112.507 492.892 127.134C499.001 141.76 506.118 164.289 514.242 194.72C522.392 225.136 527.492 248.202 529.542 263.916C531.593 279.63 530.134 298.437 525.164 320.338Z" fill="white"/>
</g>
<path d="M262 195H286L283 225.5H244.5L262 195Z" fill="#FF4F45"/>
<path d="M280 225.5H244.5C245.667 231 251.1 242.1 263.5 242.5C275.9 242.9 279.667 231.333 280 225.5Z" fill="#FACAC4"/>
<path d="M317.5 225.5H282C283.167 231 288.6 242.1 301 242.5C313.4 242.9 317.167 231.333 317.5 225.5Z" fill="#FF4F45"/>
<path d="M394.5 225.5H359C360.167 231 365.6 242.1 378 242.5C390.4 242.9 394.167 231.333 394.5 225.5Z" fill="#FF4F45"/>
<path d="M358.5 225.5H323C324.167 231 329.6 242.1 342 242.5C354.4 242.9 358.167 231.333 358.5 225.5Z" fill="#FACAC4"/>
<path d="M437.5 225.5H402C403.167 231 408.6 242.1 421 242.5C433.4 242.9 437.167 231.333 437.5 225.5Z" fill="#FACAC4"/>
<path d="M421 195H397L400 225.5H438.5L421 195Z" fill="#FF4F45"/>
<rect x="362" y="195" width="35" height="28" fill="#FACAC4"/>
<rect x="285" y="195" width="35" height="28" fill="#FACAC4"/>
<rect x="324" y="195" width="35" height="28" fill="#FF4F45"/>
<rect x="285" y="268" width="35" height="28" fill="#FFC1B5"/>
<rect x="260" y="166" width="160" height="25" fill="#3EB3EF"/>
<path d="M279.837 183.745H280.181C282.805 183.745 284.931 181.621 284.931 178.995C284.931 176.369 282.807 174.246 280.181 174.246H279.837C277.214 174.246 275.088 176.369 275.088 178.995C275.088 181.621 277.214 183.745 279.837 183.745Z" fill="#222A33"/>
<path d="M324.889 183.745H325.237C327.86 183.745 329.986 181.621 329.986 178.995C329.986 176.369 327.863 174.246 325.237 174.246H324.889C322.265 174.246 320.139 176.369 320.139 178.995C320.139 181.621 322.265 183.745 324.889 183.745Z" fill="#222A33"/>
<path d="M302.361 183.745H302.709C305.333 183.745 307.458 181.621 307.458 178.995C307.458 176.369 305.335 174.246 302.709 174.246H302.361C299.737 174.246 297.611 176.369 297.611 178.995C297.611 181.621 299.737 183.745 302.361 183.745Z" fill="#222A33"/>
<path d="M286.29 260.369C283.666 260.369 281.541 262.493 281.541 265.118V298.045C281.541 300.668 283.664 302.794 286.29 302.794H319.216C321.84 302.794 323.966 300.671 323.966 298.045V265.118C323.966 262.495 321.842 260.369 319.216 260.369H286.29ZM314.467 293.296H291.039V269.866H314.467V293.296Z" fill="#222A33"/>
<path d="M400.815 268.916C400.815 266.293 398.691 264.167 396.065 264.167H339.709C337.085 264.167 334.959 266.291 334.959 268.916C334.959 271.542 337.083 273.666 339.709 273.666H396.068C398.691 273.666 400.815 271.542 400.815 268.916Z" fill="#222A33"/>
<path d="M339.709 281.267C337.085 281.267 334.959 283.39 334.959 286.016C334.959 288.642 337.083 290.766 339.709 290.766H364.086C366.71 290.766 368.836 288.642 368.836 286.016C368.836 283.39 366.712 281.267 364.086 281.267H339.709Z" fill="#222A33"/>
<path d="M377.703 281.267C375.08 281.267 372.954 283.39 372.954 286.016C372.954 288.642 375.078 290.766 377.703 290.766H384.665C387.288 290.766 389.414 288.642 389.414 286.016C389.414 283.39 387.29 281.267 384.665 281.267H377.703Z" fill="#222A33"/>
<path d="M443.358 225.145C443.358 224.349 443.159 223.569 442.779 222.87L427.87 195.568V194.234C427.87 194.22 427.875 194.207 427.875 194.189C427.875 194.175 427.87 194.161 427.87 194.143V164.749C427.87 162.126 425.747 160 423.121 160H258.603C255.98 160 253.854 162.124 253.854 164.749V196.133C253.854 196.296 253.886 196.457 253.902 196.615L239.579 222.872C239.199 223.569 239 224.351 239 225.145C239 234.395 245.136 242.347 253.854 245.73V317.368C253.854 319.992 255.978 322.118 258.603 322.118H402.859C410.635 322.118 416.827 319.791 421.266 315.204C428.126 308.119 427.884 298.274 427.875 298.011V257.658C427.875 255.034 425.751 252.909 423.125 252.909C420.5 252.909 418.376 255.032 418.376 257.658V298.14C418.376 298.201 418.451 304.505 414.387 308.652C411.802 311.28 407.925 312.619 402.857 312.619H263.353V247.463C270.981 247.431 277.77 244.131 282.192 239.018C286.446 244.235 293.593 247.472 302.207 247.472C309.885 247.472 316.722 244.158 321.166 239.018C325.42 244.235 332.571 247.472 341.181 247.472C348.855 247.472 355.691 244.158 360.135 239.018C364.39 244.235 371.536 247.472 380.151 247.472C387.829 247.472 394.665 244.158 399.109 239.018C403.359 244.235 410.51 247.472 419.125 247.472C432.486 247.472 443.358 237.457 443.358 225.145ZM263.459 198.938H279.63L278.264 220.396H252.12C251.986 220.396 251.859 220.428 251.731 220.437L263.459 198.938ZM289.144 198.938H316.946V220.396H287.785L289.144 198.938ZM326.442 198.938H355.913V220.396H326.442V198.938ZM365.412 198.938H393.209L394.575 220.396H365.412V198.938ZM404.092 220.398L402.726 198.94H418.887L430.602 220.398H404.092ZM418.374 169.499V189.441H263.353V169.499H418.374ZM263.233 237.975C257.036 237.975 251.726 234.621 249.553 229.895H276.913C274.74 234.621 269.43 237.975 263.233 237.975ZM302.207 237.975C295.863 237.975 289.476 235.449 287.869 229.895H315.887C313.709 234.621 308.404 237.975 302.207 237.975ZM341.179 237.975C334.83 237.975 328.448 235.449 326.836 229.895H354.855C352.681 234.621 347.376 237.975 341.179 237.975ZM380.146 237.975C373.802 237.975 367.416 235.449 365.808 229.895H393.826C391.648 234.621 386.345 237.975 380.146 237.975ZM404.777 229.895H432.805C430.632 234.621 425.321 237.975 419.12 237.975C412.776 237.975 406.39 235.449 404.777 229.895Z" fill="#222A33"/>
<path d="M141.175 273.561C140.971 274.978 141.398 276.395 142.457 277.813C143.516 279.231 145.179 280.763 147.445 282.409C149.712 284.057 151.684 285.166 153.36 285.737C155.035 286.307 156.529 286.259 157.841 285.592C159.15 284.925 160.154 284.225 160.853 283.491C161.552 282.757 162.491 281.577 163.672 279.952C164.852 278.328 165.684 277.071 166.167 276.179C166.65 275.288 166.999 274.165 167.213 272.809C167.593 270.17 165.479 267.176 160.872 263.827C156.336 260.531 152.908 259.497 150.586 260.725C149.24 261.368 148.218 262.055 147.519 262.787C146.821 263.519 145.881 264.698 144.7 266.326C143.519 267.951 142.687 269.209 142.205 270.099C141.723 270.988 141.38 272.142 141.175 273.561Z" fill="#222A33"/>
<defs>
<filter id="filter0_d" x="0.0212097" y="0.259521" width="674.434" height="669.642" filterUnits="userSpaceOnUse" color-interpolation-filters="sRGB">
<feFlood flood-opacity="0" result="BackgroundImageFix"/>
<feColorMatrix in="SourceAlpha" type="matrix" values="0 0 0 0 0 0 0 0 0 0 0 0 0 0 0 0 0 0 127 0"/>
<feOffset dy="94"/>
<feGaussianBlur stdDeviation="57"/>
<feColorMatrix type="matrix" values="0 0 0 0 0.475983 0 0 0 0 0.475983 0 0 0 0 0.475983 0 0 0 0.1 0"/>
<feBlend mode="normal" in2="BackgroundImageFix" result="effect1_dropShadow"/>
<feBlend mode="normal" in="SourceGraphic" in2="effect1_dropShadow" result="shape"/>
</filter>
</defs>
</svg>
