<svg width="686" height="681" viewBox="0 0 686 681" fill="none" xmlns="http://www.w3.org/2000/svg">
<g filter="url(#filter0_d)">
<path d="M535.282 328.02C530.197 350.399 515.655 369.154 491.658 384.283C467.66 399.413 433.973 412.785 390.595 424.401C347.191 436.031 311.313 441.299 282.961 440.204C254.608 439.109 232.533 429.802 216.734 412.282C200.97 394.777 189.969 378.524 183.732 363.524C177.495 348.525 170.213 325.473 161.887 294.37C153.557 263.283 148.338 239.683 146.231 223.569C144.124 207.455 145.361 188.64 149.943 167.124C159.438 125.443 208.279 92.7883 296.464 69.1591C383.28 45.8969 440.531 50.1247 468.217 81.8424C484.662 99.2035 496.009 115.367 502.26 130.333C508.511 145.299 515.793 168.35 524.105 199.487C532.444 230.609 537.663 254.21 539.761 270.288C541.859 286.367 540.366 305.611 535.282 328.02Z" fill="white"/>
</g>
<path d="M531.305 211.111C527.847 212.812 523.862 212.896 519.352 211.362C514.842 209.828 509.537 206.844 503.438 202.41C497.334 197.973 492.855 193.847 490.002 190.03C487.15 186.214 486.032 182.349 486.649 178.436C487.269 174.529 488.228 171.376 489.527 168.977C490.825 166.578 493.065 163.192 496.245 158.819C499.422 154.447 501.951 151.272 503.832 149.295C505.712 147.317 508.299 145.491 511.591 143.815C518.035 140.651 527.458 143.575 539.859 152.589C552.068 161.462 557.566 169.382 556.351 176.347C555.823 180.328 554.912 183.517 553.619 185.914C552.326 188.311 550.087 191.697 546.901 196.072C543.72 200.448 541.191 203.623 539.314 205.596C537.437 207.569 534.767 209.407 531.305 211.111Z" fill="#222A33"/>
<path d="M264 207.5L284 216L287 262L302 253.5L317.5 275L320 233.5L343 244.5V328L264 288.5V207.5Z" fill="#DF8A44"/>
<path d="M343 170.5L268 208.5L290.5 217.5L331 197L359.5 212L319.5 234L341.5 245L417 206.5L343 170.5Z" fill="#FFDEC4"/>
<path d="M343.5 328L387.5 307.5C378.333 306.667 362 297.9 370 269.5C378 241.1 405.667 243 418.5 247.5V208L343.5 244.5V328Z" fill="#DF8A44"/>
<path d="M287.5 219.5L330 197.5L361 212L317.5 235.5V276L300.5 254.5L287.5 261V219.5Z" fill="#FF8074"/>
<path d="M462.474 322.961L448.011 308.503C446.157 306.644 443.687 305.624 441.057 305.624C440.073 305.624 439.13 305.809 438.214 306.088L432.818 300.691C438.108 293.99 441.005 285.783 441.005 277.121C441.005 266.926 437.031 257.339 429.821 250.129C428.261 248.573 426.573 247.193 424.809 245.95V208C424.814 207.928 424.839 207.864 424.839 207.794C424.843 206.051 423.846 204.461 422.274 203.708L344.903 166.448C343.661 165.851 342.216 165.851 340.97 166.448L263.571 203.622C263.44 203.685 263.366 203.757 263.318 203.832C263.257 203.866 263.182 203.882 263.121 203.92C261.803 204.75 261 206.202 261 207.763V291.03C261 292.771 262 294.361 263.569 295.117L340.938 332.372C341.562 332.67 342.239 332.817 342.908 332.817C343.562 332.817 344.204 332.636 344.806 332.354C344.826 332.354 344.855 332.379 344.873 332.372L387.281 311.954C392.118 314.116 397.381 315.285 402.838 315.285C411.505 315.285 419.716 312.395 426.411 307.105L431.75 312.452C430.667 315.844 431.427 319.702 434.114 322.396L448.579 336.85C450.429 338.709 452.898 339.731 455.529 339.731C458.163 339.731 460.631 338.709 462.474 336.857C464.329 335.007 465.349 332.539 465.349 329.907C465.351 327.279 464.331 324.809 462.474 322.961ZM342.933 175.567L409.815 207.767L386.855 218.824L342.908 239.929L329.556 233.497L363.776 216.97C365.345 216.214 366.34 214.624 366.338 212.883C366.338 211.141 365.339 209.556 363.769 208.801L332.159 193.623C330.915 193.028 329.463 193.028 328.219 193.632L287.608 213.306L275.997 207.713L342.933 175.567ZM292.153 225.611L314.586 236.412V263.782L305.542 251.552C304.662 250.362 303.29 249.713 301.894 249.713C301.139 249.713 300.377 249.903 299.676 250.294L292.151 254.514V225.611H292.153ZM298.04 218.329L330.205 202.746L351.353 212.903L319.112 228.472L298.04 218.329ZM270.067 214.982L283.087 221.248V262.258C283.087 263.868 283.939 265.359 285.326 266.17C286.719 266.985 288.435 267 289.84 266.213L300.628 260.161L315.477 280.24C316.346 281.418 317.712 282.079 319.121 282.079C319.598 282.079 320.075 282.002 320.543 281.848C322.402 281.235 323.655 279.498 323.655 277.54V240.782L338.374 247.867V321.068L270.067 288.183V214.982ZM347.44 321.068V247.867L390.049 227.355L415.743 215.011V241.232C411.656 239.769 407.316 238.959 402.838 238.959C392.645 238.959 383.058 242.928 375.839 250.131C368.068 257.911 364.398 268.235 364.748 278.446L357.242 282.063C354.985 283.146 354.035 285.86 355.123 288.115C355.903 289.739 357.523 290.684 359.214 290.684C359.872 290.684 360.542 290.541 361.175 290.238L366.207 287.812C366.702 289.508 367.342 291.157 368.073 292.78L357.24 297.998C354.983 299.086 354.033 301.793 355.121 304.052C355.901 305.676 357.52 306.621 359.212 306.621C359.87 306.621 360.539 306.477 361.173 306.169L372.761 300.587C373.711 301.806 374.72 302.991 375.835 304.115C376.595 304.875 377.395 305.574 378.205 306.262L347.44 321.068ZM382.258 297.695C370.913 286.351 370.913 267.889 382.258 256.543C387.756 251.054 395.065 248.026 402.838 248.026C410.613 248.026 417.916 251.049 423.407 256.543C428.907 262.041 431.936 269.348 431.936 277.123C431.936 284.892 428.905 292.199 423.407 297.697C417.916 303.19 410.613 306.221 402.838 306.221C395.063 306.217 387.751 303.188 382.258 297.695ZM456.053 330.449C455.714 330.796 455.357 330.809 454.99 330.443L440.53 315.984C440.24 315.695 440.236 315.195 440.532 314.901C440.706 314.725 440.912 314.686 441.054 314.686C441.201 314.686 441.407 314.725 441.593 314.91L456.062 329.375C456.239 329.552 456.28 329.764 456.28 329.904C456.284 330.051 456.243 330.26 456.053 330.449Z" fill="#222A33"/>
<path d="M394.192 286.231C392.543 284.403 389.734 284.223 387.871 285.84C385.971 287.477 385.761 290.338 387.398 292.238C388.226 293.19 389.119 293.676 389.983 293.875C389.189 293.692 388.484 293.321 387.97 292.828C388.859 293.714 390.022 294.155 391.182 294.155C392.342 294.155 393.5 293.714 394.387 292.828C396.157 291.057 396.157 288.183 394.387 286.412C394.321 286.348 394.26 286.29 394.192 286.231ZM390.184 293.911C390.413 293.95 390.637 293.972 390.852 293.977C390.625 293.968 390.404 293.95 390.184 293.911ZM390.987 293.981C391.526 293.972 392.039 293.877 392.48 293.726C391.98 293.898 391.483 293.981 390.987 293.981ZM392.489 293.721C392.693 293.653 392.874 293.57 393.045 293.486C392.86 293.581 392.675 293.653 392.489 293.721Z" fill="#222A33"/>
<path d="M387.97 261.414C383.341 266.044 381 272.451 381.543 278.991C381.742 281.361 383.725 283.15 386.062 283.15C386.184 283.15 386.313 283.146 386.442 283.134C388.938 282.926 390.793 280.733 390.58 278.236C390.261 274.362 391.645 270.569 394.387 267.826C396.157 266.055 396.157 263.183 394.387 261.412C392.618 259.648 389.743 259.648 387.97 261.414Z" fill="#222A33"/>
<defs>
<filter id="filter0_d" x="0.59906" y="0.979004" width="684.792" height="679.889" filterUnits="userSpaceOnUse" color-interpolation-filters="sRGB">
<feFlood flood-opacity="0" result="BackgroundImageFix"/>
<feColorMatrix in="SourceAlpha" type="matrix" values="0 0 0 0 0 0 0 0 0 0 0 0 0 0 0 0 0 0 127 0"/>
<feOffset dy="94"/>
<feGaussianBlur stdDeviation="57"/>
<feColorMatrix type="matrix" values="0 0 0 0 0.475983 0 0 0 0 0.475983 0 0 0 0 0.475983 0 0 0 0.1 0"/>
<feBlend mode="normal" in2="BackgroundImageFix" result="effect1_dropShadow"/>
<feBlend mode="normal" in="SourceGraphic" in2="effect1_dropShadow" result="shape"/>
</filter>
</defs>
</svg>
