<svg width="325" height="258" viewBox="0 0 325 258" fill="none" xmlns="http://www.w3.org/2000/svg">
<mask id="mask0" mask-type="alpha" maskUnits="userSpaceOnUse" x="0" y="0" width="325" height="258">
<rect width="325" height="258" fill="white"/>
</mask>
<g mask="url(#mask0)">
<path d="M41.394 138.564C41.0514 136.652 35.9835 117.896 33.4586 117.842C30.068 117.842 34.5227 128.5 34.9375 130.466C33.2354 128.715 31.2315 127.286 29.022 126.246C27.2185 125.2 20.5455 121.052 19.3912 122.639C18.237 124.226 22.6015 127.364 25.9379 129.853C26.984 130.646 29.2564 132.324 30.1942 133.117C26.4429 130.863 16.7401 125.777 15.9104 128.645C15.0808 131.512 26.2987 136.273 29.545 137.428C25.2165 136.237 13.656 131.151 13.0068 134.632C12.6822 136.436 24.1705 139.754 26.6954 140.8C24.6755 140.8 15.2251 138.997 14.9726 142.045C14.7201 146.301 28.8416 144.912 31.3665 144.714C33.8914 144.515 42.386 142.91 41.2498 137.5" fill="#FFC1B5"/>
<path d="M32.6291 143.325L46.1194 153.335L50.4658 141.449L37.1018 135.227L32.6291 143.325Z" fill="#FFC1B5"/>
<path d="M49.3838 139.899L45.0374 137.121L37.3003 147.978L43.9192 152.649L49.3838 139.899Z" fill="white"/>
<path d="M287.754 79.571C286.996 77.7675 281.026 59.2996 283.191 57.9289C286.058 56.1254 288.078 67.4695 288.818 69.3992C289.294 67.0171 290.192 64.7391 291.469 62.6721C292.479 60.7785 295.779 53.6546 297.601 54.4301C299.422 55.2056 297.456 60.1292 296.014 64.0428C295.563 65.2692 294.571 67.9204 294.21 69.0926C296.14 65.161 301.55 55.6384 303.805 57.5862C306.059 59.534 299.188 69.6517 297.096 72.357C300.09 68.9303 307.033 58.3978 309.468 60.9588C310.748 62.3475 302.867 71.3109 301.298 73.5834C303.101 72.5734 310.009 65.9004 311.848 68.263C314.355 71.7077 301.731 78.1823 299.549 79.3546C297.366 80.5269 289.341 83.8634 287.303 78.5791" fill="#FFC1B5"/>
<path d="M297.691 78.8134L291.793 94.54L281.676 86.8932L289.539 74.4309L297.691 78.8134Z" fill="#FFC1B5"/>
<path d="M280.918 86.5506L283.479 82.0779L295.364 88.1016L291.667 95.3156L280.918 86.5506Z" fill="white"/>
<path d="M207.046 265.441L165.115 266.487L147.494 160.134L173.88 145.579L187.983 143.776L207.01 161.631L207.046 265.441Z" fill="#F7F5F5"/>
<path d="M163.618 20.2537C163.618 20.2537 121.921 66.3694 155.556 111.349C161.815 119.717 173.754 129.853 173.303 149.169C173.303 149.169 180.86 152.397 187.208 149.169C187.208 149.169 188.687 117.427 196.226 107.688C203.764 97.9489 223.801 74.5393 226.056 59.1193C227.39 49.5534 226.974 39.8247 224.829 30.4074L163.618 20.2537Z" fill="#FFC1B5"/>
<path d="M208.778 88.8229C208.778 88.8229 227.408 92.989 226.723 85.9373C226.037 78.8855 206.433 82.3303 206.433 82.3303L208.778 88.8229Z" fill="#FFC1B5"/>
<path d="M187.569 63.3934C187.771 63.965 187.739 64.5936 187.478 65.1413C187.218 65.689 186.751 66.1112 186.18 66.3151C184.972 66.766 184.377 65.9544 183.836 64.7821C183.726 64.5055 183.674 64.2097 183.681 63.9123C183.689 63.615 183.756 63.3222 183.878 63.0513C184.001 62.7804 184.177 62.537 184.396 62.3355C184.615 62.134 184.872 61.9786 185.152 61.8785C186.342 61.4276 187.136 62.2211 187.569 63.3934Z" fill="#333333"/>
<path d="M164.43 58.7224C164.027 59.1797 163.459 59.4591 162.851 59.4997C162.243 59.5402 161.643 59.3386 161.183 58.9388C160.209 58.1092 160.57 57.1353 161.382 56.1433C161.572 55.9185 161.805 55.7337 162.068 55.6C162.33 55.4662 162.617 55.3861 162.911 55.3643C163.204 55.3424 163.5 55.3793 163.779 55.4729C164.058 55.5664 164.316 55.7146 164.538 55.9089C165.53 56.7024 165.223 57.7124 164.43 58.7224Z" fill="#333333"/>
<path d="M190.274 77.4068C189.697 78.6332 187.154 78.6873 184.611 77.4068C182.068 76.1263 180.463 74.2687 181.004 73.0243C181.545 71.7799 185.278 72.2849 187.821 73.4752C190.364 74.6655 190.833 76.1624 190.274 77.4068Z" fill="#E89F91"/>
<path d="M151.246 65.9725C151.372 64.6199 153.753 63.7542 156.656 64.0428C159.56 64.3314 161.598 65.684 161.454 67.0366C161.309 68.3892 157.666 69.1287 154.871 68.8401C152.075 68.5516 151.102 67.3252 151.246 65.9725Z" fill="#E89F91"/>
<path d="M185.928 53.0054C187.117 53.8941 188.385 54.6728 189.715 55.3319C190.995 55.9812 192.384 57.0453 193.827 56.3058C194.238 56.1297 194.569 55.807 194.756 55.4003C194.943 54.9937 194.971 54.5322 194.837 54.1055C194.458 52.5185 192.763 52.1578 191.446 51.5987C190.072 51.0093 188.647 50.5445 187.19 50.21C186.839 50.1347 186.474 50.1819 186.154 50.3435C185.834 50.5051 185.578 50.7715 185.431 51.0983C185.283 51.4251 185.252 51.7926 185.342 52.1396C185.433 52.4866 185.639 52.7921 185.928 53.0054Z" fill="#278DCC"/>
<path d="M167.892 45.0877C166.259 44.8373 164.594 44.9046 162.987 45.2861C162.548 45.3831 162.158 45.6316 161.884 45.9877C161.61 46.3439 161.471 46.7851 161.49 47.2339C161.489 47.694 161.664 48.1371 161.979 48.4724C162.294 48.8076 162.726 49.0098 163.185 49.0374C164.979 48.9526 166.739 48.5111 168.361 47.7389C168.659 47.6252 168.908 47.4114 169.065 47.1341C169.222 46.8568 169.278 46.5334 169.222 46.2195C169.167 45.9056 169.004 45.6209 168.761 45.4143C168.518 45.2078 168.211 45.0923 167.892 45.0877Z" fill="#278DCC"/>
<path d="M226.218 38.3427C221.493 39.2084 170.94 53.889 160.282 24.4376C160.282 24.4376 168.92 1.10022 201.762 11.8131C234.604 22.5259 226.218 38.3427 226.218 38.3427Z" fill="#278DCC"/>
<path d="M215.884 81.5008C215.884 81.5008 208.381 55.909 217.561 33.7258L227.156 31.5977C227.156 31.5977 238.229 55.909 215.884 81.5008Z" fill="#278DCC"/>
<path d="M227.12 33.4914C227.12 33.4914 232.386 34.6096 232.242 32.5536C232.097 30.4976 227.156 31.5977 227.156 31.5977C227.156 31.5977 231.899 27.0528 229.807 26.8184C227.715 26.5839 223.657 31.5255 223.657 31.5255L226.2 33.7258" fill="#278DCC"/>
<path d="M216.298 72.6814C216.298 72.6814 208.615 87.6866 194.945 87.2898C181.274 86.8931 174.637 78.2723 169.443 77.8935L166.594 78.3444L165.133 77.7673L164.015 76.7032C164.015 76.7032 160.642 75.7474 155.538 78.6149C154.345 79.209 153.04 79.5449 151.709 79.6009C150.377 79.6569 149.048 79.4317 147.81 78.94C146.571 78.4482 145.45 77.701 144.519 76.7469C143.589 75.7928 142.869 74.6534 142.409 73.4028C142.409 73.4028 143.112 101.574 137.593 113.08C132.074 124.586 165.439 139.177 189.408 120.294C209.102 104.874 215.938 81.3382 215.938 81.3382L216.298 72.6814Z" fill="#278DCC"/>
<path d="M176.91 54.8628C173.443 58.7806 170.267 62.9457 167.405 67.3251C165.926 69.7598 163.059 74.4128 164.195 77.569C165.44 81.0317 170.038 77.8576 171.571 75.9458C171.824 75.6212 171.571 75.026 171.066 75.2244C169.936 76.0284 168.727 76.7171 167.459 77.2804C163.852 78.11 166.323 72.3388 167.279 70.391C170.215 65.0612 173.696 60.0506 177.667 55.4399C177.729 55.3477 177.754 55.2361 177.738 55.1265C177.722 55.0169 177.667 54.9168 177.582 54.8455C177.498 54.7742 177.389 54.7365 177.279 54.7397C177.168 54.7429 177.062 54.7867 176.982 54.8628H176.91Z" fill="#BC6C6C"/>
<path d="M170.85 94.2153C172.2 93.8493 173.431 93.1352 174.418 92.1446C175.405 91.154 176.116 89.9215 176.477 88.5703C176.577 88.192 176.577 87.7944 176.477 87.4161C176.153 86.2438 174.566 85.6126 173.159 85.6126C171.762 85.6937 170.371 85.8563 168.993 86.0995C167.338 86.2314 165.676 85.9719 164.141 85.342C163.239 84.9813 162.338 84.4944 161.49 84.2058C161.039 84.0396 160.56 83.9651 160.08 83.9868C159.6 84.0085 159.129 84.1259 158.695 84.3321C158.347 84.5607 158.06 84.8707 157.859 85.2353C157.657 85.5998 157.548 86.0079 157.54 86.4241C157.071 92.2856 164.43 96.2894 170.85 94.2153Z" fill="#4C2B49"/>
<path d="M186.433 148.123C186.433 148.123 181.762 155.661 179.958 155.733C178.155 155.805 173.952 148.519 173.952 148.519L177.397 145.58L183.727 145.147L186.433 148.123Z" fill="#EBAE41"/>
<path d="M187.316 140.674C187.316 140.674 178.497 147.076 174.024 141.016L169.876 142.82L166.558 156.04C166.558 156.04 175.575 152.09 179.615 145.399C179.615 145.399 185.026 155.571 193.376 155.372L190.995 143.163L187.316 140.674Z" fill="white"/>
<path d="M169.876 142.856C169.876 142.856 190.238 260.373 170.002 284.071C149.767 307.769 134.654 285.568 134.654 285.568L136.908 176.87C136.908 176.87 99.882 186.014 38.8693 152.072L47.8868 137.013C47.8868 137.013 100.838 167.835 169.876 142.856Z" fill="#222A33"/>
<path d="M169.876 142.856C169.876 142.856 158.117 152.361 158.225 156.292C158.334 160.224 166.702 161.703 166.702 161.703C166.702 161.703 159.235 167.005 162.067 172.65C164.898 178.295 177.523 202.426 177.523 202.426C177.523 202.426 172.419 154.615 169.876 142.856Z" fill="#494848"/>
<path d="M180.318 152.992C180.318 152.992 194.043 247.784 143.076 254.475L127.89 249.281L140.136 234.456C140.136 234.456 178.01 235.773 179.218 153.298C179.254 151.495 179.218 153.389 180.318 152.992Z" fill="#EBAE41"/>
<path d="M190.995 143.199C190.995 143.199 185.35 272.168 194.602 284.937C203.854 297.705 227.877 290.618 227.877 290.618C227.877 290.618 227.769 201.885 224.865 171.027C224.865 171.027 277.293 158.853 294.084 92.2856L280.918 84.6567C280.918 84.6567 245.966 150.052 190.995 143.199Z" fill="#222A33"/>
<path d="M190.995 143.199C190.995 143.199 204.774 152.216 203.349 155.156C201.925 158.096 197.506 160.242 197.506 160.242C197.506 160.242 203.8 163.56 200.355 172.632C196.911 181.704 189.354 200.749 189.354 200.749L190.995 143.199Z" fill="#494848"/>
</g>
</svg>
