<svg width="151" height="149" viewBox="0 0 151 149" fill="none" xmlns="http://www.w3.org/2000/svg">
<path d="M138.255 100.908C136.584 108.262 131.805 114.426 123.919 119.398C116.032 124.37 104.961 128.765 90.705 132.583C76.4404 136.405 64.6492 138.136 55.3313 137.776C46.0134 137.416 38.7583 134.358 33.5662 128.6C28.3853 122.847 24.77 117.505 22.7202 112.576C20.6705 107.646 18.2774 100.071 15.5409 89.8487C12.8034 79.632 11.0883 71.8758 10.3957 66.5801C9.70309 61.2845 10.1097 55.101 11.6155 48.0297C14.7362 34.3316 30.7874 23.5997 59.7691 15.834C88.3007 8.18903 107.116 9.57848 116.215 20.0024C121.619 25.708 125.349 31.0201 127.403 35.9385C129.457 40.857 131.851 48.4327 134.582 58.6657C137.323 68.8939 139.038 76.6501 139.728 81.9343C140.417 87.2184 139.926 93.5428 138.255 100.908Z" fill="#EAEDEF"/>
<path d="M107.415 62.6342L114.787 51.4116C115.078 50.9696 115.164 50.4221 115.018 49.9119C114.871 49.4026 114.51 48.9824 114.029 48.7587L97.868 41.3003C96.9549 40.8828 95.8736 41.2766 95.4516 42.1906C95.0296 43.1037 95.4298 44.1851 96.3419 44.607L110.584 51.1796L104.643 60.2187L97.9526 57.0101C97.0431 56.5736 95.9581 56.9592 95.5225 57.865C95.0869 58.7717 95.4707 59.8585 96.3774 60.2932L101.264 62.6369L74.0158 77.3063L46.8023 62.6551L51.1741 60.5588C52.0808 60.125 52.4628 59.0364 52.028 58.1306C51.5942 57.2248 50.5093 56.841 49.5998 57.2757L43.4446 60.2269L37.5105 51.1969L52.0208 44.6125C52.9366 44.196 53.3413 43.1174 52.9275 42.2015C52.5119 41.2866 51.4369 40.881 50.5165 41.2976L34.0673 48.7605C33.5835 48.9806 33.2188 49.4026 33.0715 49.9119C32.9241 50.4239 33.0069 50.9732 33.2988 51.4188L40.6826 62.6551L33.2615 75.6557C33.0178 76.0813 32.9587 76.5915 33.096 77.0644C33.2315 77.5373 33.5553 77.9348 33.99 78.164L40.9573 81.8618V95.7236C40.9573 96.3984 41.3284 97.015 41.924 97.3334L73.1737 113.916C73.4411 114.056 73.7339 114.127 74.0267 114.127C74.3196 114.127 74.6142 114.056 74.8798 113.914L106.127 97.3315C106.722 97.015 107.093 96.3993 107.093 95.7236V81.8527L114.1 78.1348C114.535 77.9039 114.858 77.5082 114.996 77.0335C115.132 76.5606 115.071 76.0531 114.827 75.623L107.415 62.6342ZM43.5238 65.0233L71.5476 80.1138L65.3942 90.7144L37.3559 75.8294L43.5238 65.0233ZM44.5969 83.7944L65.2351 94.7505C65.5061 94.896 65.7989 94.9633 66.0872 94.9633C66.7148 94.9633 67.3268 94.6368 67.6633 94.0575L72.206 86.2317V109.281L44.5969 94.6277V83.7944ZM103.454 94.6277L75.8465 109.28V86.1371L80.4247 94.0257C80.7621 94.6068 81.3733 94.9333 82.0017 94.9333C82.2891 94.9333 82.5819 94.8642 82.853 94.7205L103.454 83.7862V94.6277ZM82.6956 90.6825L76.5423 80.082L104.568 64.9951L110.736 75.7994L82.6956 90.6825Z" fill="#278DCC"/>
<path d="M80.5975 101.246C80.9013 101.919 81.5643 102.321 82.26 102.321C82.5083 102.321 82.763 102.27 83.0049 102.16L90.9944 98.5736C91.9111 98.1598 92.3204 97.083 91.9093 96.1653C91.4973 95.2486 90.4187 94.8421 89.5029 95.2504L81.5125 98.84C80.5957 99.2502 80.1865 100.329 80.5975 101.246Z" fill="#222A33"/>
<path d="M56.5544 48.4323L59.8202 50.3185C59.802 50.5923 59.7929 50.8569 59.7929 51.117C59.7929 51.4308 59.8048 51.7473 59.8302 52.0774L56.588 54.0009C55.725 54.5138 55.4385 55.6306 55.9514 56.4955L60.4878 64.1522C60.7342 64.5678 61.1362 64.8688 61.6036 64.9871C62.0729 65.1071 62.5686 65.0362 62.9842 64.7906L66.2327 62.8626C66.6356 63.1218 67.0513 63.36 67.4778 63.5747V67.3525C67.4778 68.3584 68.2927 69.1733 69.2976 69.1733H78.7923C79.7972 69.1733 80.6112 68.3584 80.6112 67.3525V63.5747C81.0386 63.36 81.4551 63.1227 81.8571 62.8626L85.1084 64.7906C85.5231 65.0362 86.0178 65.108 86.4889 64.9871C86.9555 64.8688 87.3575 64.5678 87.603 64.1522L92.1366 56.4955C92.6496 55.6306 92.3631 54.5129 91.4982 54.0009L88.2569 52.0774C88.2796 51.7546 88.2924 51.4353 88.2924 51.117C88.2924 50.8597 88.2833 50.5959 88.2669 50.3203L91.5346 48.4323C92.4049 47.9276 92.7032 46.8153 92.2003 45.9459L87.7458 38.2383C87.503 37.82 87.1065 37.5153 86.6399 37.3898C86.1706 37.2643 85.6741 37.3307 85.2585 37.5726L81.9917 39.4606C81.5461 39.1678 81.0859 38.9022 80.6112 38.6648V34.8906C80.6112 33.8848 79.7972 33.0708 78.7923 33.0708H69.2976C68.2927 33.0708 67.4778 33.8857 67.4778 34.8906V38.6648C67.0021 38.9031 66.542 39.1687 66.0982 39.4606L62.8341 37.5726C62.4158 37.3298 61.9201 37.2661 61.4518 37.3898C60.9861 37.5153 60.5887 37.82 60.3468 38.2365L55.8887 45.9441C55.6477 46.3615 55.5822 46.8599 55.7077 47.3273C55.8314 47.7921 56.1369 48.1904 56.5544 48.4323ZM62.5877 41.636L65.2969 43.2021C65.9454 43.5768 66.7575 43.5177 67.3441 43.0502C68.1326 42.419 69.0148 41.9107 69.9633 41.536C70.6609 41.2622 71.1183 40.591 71.1183 39.8435V36.7104H76.9715V39.8426C76.9715 40.5901 77.4308 41.2631 78.1275 41.5369C79.0696 41.9061 79.95 42.4154 80.7476 43.0493C81.3351 43.5167 82.1463 43.5759 82.7938 43.2012L85.5049 41.6351L88.1378 46.1896L85.4231 47.7575C84.781 48.1304 84.4281 48.8534 84.5327 49.5882C84.6155 50.1739 84.6537 50.6596 84.6537 51.117C84.6537 51.6354 84.6082 52.1656 84.5109 52.7358C84.3863 53.478 84.7319 54.221 85.3785 54.6039L88.0787 56.2054L85.4003 60.7272L82.702 59.1256C82.0563 58.7446 81.2423 58.7955 80.6521 59.2575C79.8772 59.8623 79.0296 60.3498 78.1293 60.7035C77.4326 60.9755 76.9734 61.6485 76.9734 62.3969V65.5309H71.1201V62.3969C71.1201 61.6503 70.6627 60.9773 69.967 60.7035C69.0666 60.3498 68.2181 59.8623 67.4441 59.2575C66.853 58.7964 66.0409 58.7455 65.3951 59.1256L62.6941 60.7272L60.0139 56.2036L62.7114 54.6039C63.3534 54.2228 63.699 53.4898 63.5817 52.7522C63.4817 52.1274 63.4762 50.1857 63.5626 49.5982C63.6708 48.8598 63.3171 48.1322 62.6722 47.7575L59.9566 46.1896L62.5877 41.636Z" fill="#FF4F45"/>
<path d="M74.0467 57.4349C77.5281 57.4349 80.3583 54.6029 80.3583 51.1215C80.3583 47.6401 77.5281 44.8081 74.0467 44.8081C70.5653 44.8081 67.7333 47.641 67.7333 51.1215C67.7333 54.602 70.5653 57.4349 74.0467 57.4349ZM74.0467 48.4468C75.52 48.4468 76.7186 49.6455 76.7186 51.1206C76.7186 52.5957 75.5209 53.7944 74.0467 53.7944C72.5716 53.7944 71.3729 52.5957 71.3729 51.1206C71.3729 49.6455 72.5725 48.4468 74.0467 48.4468Z" fill="#FF4F45"/>
</svg>
