<svg width="151" height="149" viewBox="0 0 151 149" fill="none" xmlns="http://www.w3.org/2000/svg">
<path d="M138.255 100.908C136.584 108.262 131.805 114.426 123.919 119.398C116.032 124.37 104.961 128.765 90.705 132.583C76.4404 136.405 64.6492 138.136 55.3313 137.776C46.0134 137.416 38.7583 134.358 33.5662 128.6C28.3853 122.847 24.77 117.505 22.7202 112.576C20.6705 107.646 18.2774 100.071 15.5409 89.8487C12.8034 79.632 11.0883 71.8758 10.3957 66.5801C9.70309 61.2845 10.1097 55.101 11.6155 48.0297C14.7362 34.3316 30.7874 23.5997 59.7691 15.834C88.3007 8.18903 107.116 9.57848 116.215 20.0024C121.619 25.708 125.349 31.0201 127.403 35.9385C129.457 40.857 131.851 48.4327 134.582 58.6657C137.323 68.8939 139.038 76.6501 139.728 81.9343C140.417 87.2184 139.926 93.5428 138.255 100.908Z" fill="#EAEDEF"/>
<path d="M109.944 94.2039C114.118 89.0737 116.318 83.0177 116.318 76.6288C116.318 60.1068 101.261 46.666 82.7557 46.666C80.4829 46.666 78.222 46.867 76.033 47.2653C74.9771 47.4563 74.2787 48.4685 74.4697 49.5226C74.6606 50.5767 75.6674 51.2687 76.7269 51.0869C78.6859 50.7294 80.7148 50.5494 82.7547 50.5494C99.1185 50.5494 112.435 62.2476 112.435 76.6288C112.435 82.3747 110.347 87.8259 106.396 92.3886C106.009 92.8361 105.847 93.4354 105.957 94.0193L107.767 103.639L98.0526 100.345C97.6434 100.206 97.1986 100.21 96.7894 100.35C93.3189 101.56 86.4962 102.704 82.7538 102.704C66.3892 102.704 53.0757 91.0072 53.0757 76.6288C53.0757 75.5565 52.2063 74.6871 51.1341 74.6871C50.0618 74.6871 49.1924 75.5565 49.1924 76.6288C49.1924 93.1489 64.2465 106.586 82.7538 106.586C86.7591 106.586 93.3935 105.51 97.4215 104.232L109.664 108.385C109.869 108.454 110.08 108.488 110.289 108.488C110.75 108.488 111.203 108.323 111.562 108.013C112.083 107.56 112.326 106.863 112.196 106.187L109.944 94.2039Z" fill="#278DCC"/>
<path d="M61.2371 72.9892C61.5209 73.1392 61.831 73.2111 62.1402 73.2111C62.5422 73.2111 62.9432 73.0865 63.2806 72.8409C63.8791 72.4053 64.1783 71.6704 64.0537 70.9411L62.3139 60.8062L69.6804 53.6251C70.2097 53.1086 70.3989 52.3373 70.1715 51.6343C69.9424 50.9322 69.3358 50.4193 68.6037 50.312L58.426 48.8341L53.8715 39.6096C53.5441 38.9466 52.8683 38.5273 52.1299 38.5273C51.3905 38.5273 50.7157 38.9466 50.3883 39.6096L45.8365 48.8351L35.6634 50.3129C34.9313 50.4193 34.3228 50.9322 34.0955 51.6353C33.8663 52.3383 34.0573 53.1095 34.5875 53.626L41.9513 60.8071L40.2133 70.9429C40.0869 71.6704 40.3861 72.408 40.9846 72.8409C41.5839 73.2756 42.3751 73.3338 43.0308 72.9892L52.1308 68.2045L61.2371 72.9892ZM44.7051 67.7207L45.9502 60.456C46.0584 59.8258 45.851 59.1828 45.3918 58.7362L40.1142 53.5906L47.4062 52.532C48.0401 52.4392 48.5857 52.0418 48.8695 51.4697L52.1335 44.8553L55.3975 51.4697C55.6813 52.0418 56.2288 52.4392 56.8599 52.532L64.1537 53.5906L58.8744 58.7362C58.4178 59.1828 58.2077 59.8258 58.316 60.456L59.5619 67.7207L53.0348 64.2921C52.7528 64.1438 52.4427 64.0693 52.1317 64.0693C51.8207 64.0693 51.5114 64.1438 51.2286 64.2921L44.7051 67.7207Z" fill="#FF4F45"/>
<path d="M97.235 64.4971H68.3245C67.2513 64.4971 66.3828 65.3656 66.3828 66.4387C66.3828 67.5119 67.2513 68.3804 68.3245 68.3804H97.235C98.3082 68.3804 99.1767 67.5119 99.1767 66.4387C99.1767 65.3656 98.3082 64.4971 97.235 64.4971Z" fill="#222A33"/>
<path d="M99.1767 76.513C99.1767 75.4398 98.3082 74.5713 97.235 74.5713H68.3245C67.2513 74.5713 66.3828 75.4398 66.3828 76.513C66.3828 77.587 67.2513 78.4546 68.3245 78.4546H97.235C98.3082 78.4546 99.1767 77.587 99.1767 76.513Z" fill="#222A33"/>
<path d="M68.3245 84.6445C67.2513 84.6445 66.3828 85.5131 66.3828 86.5871C66.3828 87.6594 67.2513 88.5288 68.3245 88.5288H80.0237C81.0968 88.5288 81.9653 87.6594 81.9653 86.5871C81.9653 85.5131 81.0968 84.6445 80.0237 84.6445H68.3245Z" fill="#222A33"/>
</svg>
