<svg width="151" height="149" viewBox="0 0 151 149" fill="none" xmlns="http://www.w3.org/2000/svg">
<path d="M139.133 100.908C137.462 108.262 132.683 114.426 124.796 119.398C116.91 124.37 105.838 128.765 91.5825 132.583C77.3179 136.405 65.5266 138.136 56.2087 137.776C46.8908 137.416 39.6358 134.358 34.4436 128.6C29.2627 122.847 25.6474 117.505 23.5977 112.576C21.5479 107.646 19.1548 100.071 16.4184 89.8487C13.6808 79.632 11.9658 71.8758 11.2731 66.5801C10.5805 61.2845 10.9871 55.101 12.493 48.0297C15.6136 34.3316 31.6648 23.5997 60.6466 15.834C89.1781 8.18903 107.993 9.57848 117.092 20.0024C122.497 25.708 126.226 31.0201 128.281 35.9385C130.335 40.857 132.728 48.4327 135.46 58.6657C138.2 68.8939 139.916 76.6501 140.605 81.9343C141.295 87.2184 140.804 93.5428 139.133 100.908Z" fill="#EAEDEF"/>
<path d="M45.586 40.749H45.4477C44.3928 40.749 43.537 41.603 43.537 42.6589C43.537 43.7147 44.3919 44.5687 45.4477 44.5687H45.586C46.6409 44.5687 47.4958 43.7147 47.4958 42.6589C47.4958 41.603 46.6409 40.749 45.586 40.749Z" fill="#222A33"/>
<path d="M63.7032 40.749H63.564C62.51 40.749 61.6542 41.603 61.6542 42.6589C61.6542 43.7147 62.5091 44.5687 63.564 44.5687H63.7032C64.7572 44.5687 65.6139 43.7147 65.6139 42.6589C65.6139 41.603 64.7572 40.749 63.7032 40.749Z" fill="#222A33"/>
<path d="M54.645 40.749H54.5058C53.4518 40.749 52.5951 41.603 52.5951 42.6589C52.5951 43.7147 53.4509 44.5687 54.5058 44.5687H54.645C55.699 44.5687 56.5548 43.7147 56.5548 42.6589C56.5548 41.603 55.699 40.749 54.645 40.749Z" fill="#222A33"/>
<path d="M86.7159 93.8246H38.8197V51.3387H104.468V74.0658C104.468 75.1217 105.322 75.9757 106.378 75.9757C107.434 75.9757 108.288 75.1217 108.288 74.0658V47.5162H108.286V33.98H35V47.5162V51.3387V97.6433H86.7159C87.7709 97.6433 88.6267 96.7894 88.6267 95.7335C88.6267 94.6776 87.7709 93.8246 86.7159 93.8246ZM38.8197 37.7997H104.467V47.5172H38.8197V37.7997Z" fill="#278DCC"/>
<path d="M47.8278 82.0638C47.8278 82.7977 48.2489 83.4671 48.9092 83.7854L66.055 92.0414C66.3169 92.1696 66.6016 92.2314 66.8835 92.2314C67.1609 92.2314 67.4328 92.1532 67.6884 92.0323C67.6966 92.0323 67.7048 92.045 67.712 92.0414L84.8597 83.7854C85.5209 83.4671 85.9402 82.7977 85.9402 82.0638V63.6701C85.9402 63.6529 85.9474 63.6374 85.9474 63.6201C85.9474 62.8862 85.5264 62.2168 84.8661 61.8985L67.7193 53.6407C67.1964 53.3897 66.588 53.3879 66.0641 53.6398L48.9119 61.8767C48.8546 61.904 48.8118 61.9467 48.7582 61.9786C48.7464 61.9858 48.7345 61.9886 48.7227 61.9958C48.7045 62.0067 48.6927 62.0231 48.6754 62.0349C48.5654 62.1086 48.4644 62.1886 48.3735 62.2823C48.3462 62.3105 48.3235 62.3414 48.298 62.3723C48.2189 62.466 48.1434 62.5588 48.0843 62.6652C48.0561 62.7143 48.0379 62.7671 48.0152 62.8189C47.9715 62.9144 47.9251 63.009 47.8978 63.1117C47.8669 63.2263 47.8569 63.3464 47.8469 63.4673C47.8442 63.511 47.8278 63.5528 47.8278 63.5974C47.8278 63.6001 47.8287 63.6028 47.8287 63.6047C47.8287 63.6083 47.8278 63.611 47.8278 63.6137V82.0638ZM79.6268 63.6147L77.113 64.8242L66.8854 69.7353L62.7183 67.729L75.4633 61.6093L79.6268 63.6147ZM51.6484 66.6522L64.9737 73.0702V87.2822L51.6484 80.8642V66.6522ZM68.7934 87.2822V73.0702L78.0543 68.6121L82.1232 66.6586V80.866L68.7934 87.2822ZM66.889 57.4804L71.057 59.4876L58.3129 65.6073L54.1449 63.6001L66.889 57.4804Z" fill="#FF4F45"/>
<path d="M61.4378 74.1059L56.3739 71.6676C55.4236 71.2129 54.2831 71.6103 53.8247 72.5598C53.3673 73.5102 53.7665 74.6515 54.716 75.109L59.7798 77.5481C60.0481 77.6764 60.3291 77.7364 60.6074 77.7364C61.3177 77.7364 61.9998 77.338 62.3299 76.6551C62.7874 75.7047 62.3881 74.5633 61.4378 74.1059Z" fill="#FF4F45"/>
<path d="M117.022 92.6471L95.2456 70.582C94.6999 70.0309 93.876 69.8636 93.1584 70.1582C92.4409 70.4529 91.9734 71.1541 91.9752 71.9289L92.0625 102.935C92.0644 103.693 92.5154 104.379 93.2112 104.681C93.4567 104.787 93.715 104.839 93.9724 104.839C94.4453 104.839 94.9118 104.664 95.2729 104.329L102.472 97.6427L109.436 113.688C109.749 114.409 110.451 114.84 111.189 114.84C111.443 114.84 111.701 114.788 111.949 114.681C112.916 114.26 113.36 113.136 112.941 112.168L106.016 96.2204L115.727 95.8975C116.486 95.873 117.156 95.4 117.438 94.6952C117.719 93.9913 117.555 93.1864 117.022 92.6471ZM103.086 92.498C102.626 92.5144 102.187 92.6953 101.85 93.0082L95.8695 98.5604L95.8095 76.5917L111.24 92.2261L103.086 92.498Z" fill="#222A33"/>
</svg>
