<svg width="40" height="40" viewBox="0 0 40 40" fill="none" xmlns="http://www.w3.org/2000/svg">
<rect width="40" height="40" rx="20" fill="#4E555C"/>
<path d="M12.001 25.2821C13.54 26.2592 15.3657 26.8247 17.3228 26.8247C22.8209 26.8247 27.2779 22.3626 27.2779 16.8591C27.2779 16.7217 27.275 16.5853 27.2697 16.4493C27.4686 16.2927 28.6985 15.3058 29 14.6714C29 14.6714 28.0012 15.0869 27.0237 15.1848C27.0217 15.1848 27.0193 15.1852 27.0174 15.1852C27.0174 15.1852 27.0193 15.1843 27.0227 15.1819C27.1128 15.1216 28.372 14.2635 28.5425 13.241C28.5425 13.241 27.8361 13.6185 26.8469 13.9488C26.6832 14.0032 26.5117 14.0568 26.335 14.1064C25.6974 13.4252 24.7911 13 23.7851 13C21.8554 13 20.2918 14.5648 20.2918 16.4951C20.2918 16.7675 20.3231 17.0326 20.3823 17.2871C20.1126 17.2761 16.0062 17.0456 13.2126 13.659C13.2126 13.659 11.543 15.9407 14.2076 18.2869C14.2076 18.2869 13.3976 18.2546 12.6988 17.8367C12.6988 17.8367 12.4421 20.6009 15.4597 21.3077C15.4597 21.3077 14.8659 21.5328 13.9187 21.3723C13.9187 21.3723 14.4484 23.6058 17.1293 23.8145C17.1293 23.8145 15.0094 25.7317 12 25.2818L12.001 25.2821Z" fill="white"/>
</svg>
