<svg width="852" height="273" viewBox="0 0 852 273" fill="none" xmlns="http://www.w3.org/2000/svg">
<path opacity="0.9" d="M1078.15 877.552C1053.85 941.024 1003.81 989.565 928.01 1023.18C852.211 1056.79 749.173 1080.91 618.896 1095.53C488.607 1110.15 382.775 1109.46 301.4 1093.46C220.026 1077.46 160.354 1040.18 122.385 981.614C84.406 923.056 59.6496 870.345 48.1159 823.48C36.5762 776.679 25.4725 705.677 14.8049 610.475C4.1374 515.388 -0.765331 443.697 0.0966716 395.401C0.979149 347.205 12.6438 292.499 35.0907 231.281C80.4247 113.142 235.461 39.2155 500.201 9.50246C760.783 -19.7274 924.213 18.4766 990.489 124.114C1030.5 182.447 1056.3 235.048 1067.88 281.917C1079.4 328.804 1090.5 399.799 1101.19 494.902C1111.87 590.098 1116.78 661.79 1115.9 709.98C1115.04 758.274 1102.45 814.131 1078.15 877.552Z" fill="#FF4F45"/>
</svg>
