<svg width="741" height="724" viewBox="0 0 741 724" fill="none" xmlns="http://www.w3.org/2000/svg">
<path d="M141.837 50.1417L141.83 50.1492L141.823 50.1565C110.69 82.091 89.1201 111.902 77.0843 139.59C65.0296 167.321 50.827 210.12 34.4773 268.003C18.078 325.859 7.71109 369.738 3.36795 399.656C-0.968997 429.53 1.29094 465.423 10.17 507.347C19.0246 549.092 45.5593 584.382 89.8563 613.21C134.177 642.054 196.636 667.9 277.256 690.738C357.926 713.604 424.69 724.387 477.564 723.107C530.403 721.829 571.714 705.091 601.561 672.938C631.43 640.715 652.359 610.725 664.372 582.969C676.402 555.174 690.605 512.374 706.979 454.555C723.36 396.765 733.727 352.885 738.089 322.902C742.445 292.958 740.649 257.871 732.685 217.63C724.418 178.774 697.805 143.797 652.734 112.714C607.66 81.6281 544.163 54.4643 462.216 31.2362C381.543 8.36921 314.513 -1.46535 261.11 1.70539C207.712 4.87588 167.984 21.0453 141.837 50.1417Z" stroke="black" stroke-opacity="0.1"/>
</svg>
