<svg width="741" height="724" viewBox="0 0 741 724" fill="none" xmlns="http://www.w3.org/2000/svg">
<path d="M599.624 50.1417L599.631 50.1492L599.638 50.1565C630.771 82.091 652.341 111.902 664.377 139.59C676.431 167.321 690.634 210.12 706.984 268.003C723.383 325.859 733.75 369.738 738.093 399.656C742.43 429.53 740.17 465.423 731.291 507.347C722.436 549.092 695.902 584.382 651.605 613.21C607.284 642.054 544.825 667.9 464.205 690.738C383.535 713.604 316.771 724.387 263.897 723.107C211.058 721.829 169.747 705.091 139.9 672.938C110.031 640.715 89.1023 610.725 77.0889 582.969C65.059 555.174 50.8563 512.374 34.4815 454.555C18.1008 396.765 7.73389 352.885 3.37222 322.902C-0.983739 292.958 0.81168 257.871 8.77641 217.63C17.0425 178.774 43.6563 143.797 88.7265 112.714C133.801 81.6281 197.298 54.4643 279.245 31.2362C359.918 8.36921 426.948 -1.46535 480.351 1.70539C533.749 4.87588 573.477 21.0453 599.624 50.1417Z" stroke="black" stroke-opacity="0.1"/>
</svg>
