<svg width="49" height="51" viewBox="0 0 49 51" fill="none" xmlns="http://www.w3.org/2000/svg">
<path d="M4.12002 0.127579C4.63504 0.382744 4.76255 0.764252 4.50506 1.27463C2.44247 5.48845 1.55716 9.52509 1.84898 13.3865C2.13837 17.248 3.21748 20.7281 5.08625 23.8237C6.95509 26.9173 9.53018 29.6779 12.8162 32.1053C17.324 35.3617 22.5107 37.6095 28.3723 38.8564C34.2337 40.1007 39.9333 40.0545 45.4734 38.7131C44.4409 38.3923 41.2551 36.9901 35.9064 34.4992C35.3913 34.3097 35.2466 33.9403 35.4723 33.3984C35.6979 32.8541 36.1001 32.7131 36.6789 32.9683C37.1939 33.1603 38.1112 33.5734 39.4331 34.2125C40.7525 34.8492 41.7531 35.3133 42.4276 35.6001C43.1044 35.8869 43.9751 36.2368 45.037 36.6548C46.1014 37.0679 47.0824 37.4033 47.9849 37.6585C48.3062 37.7216 48.5318 37.9136 48.6618 38.232C48.7893 38.2951 48.8874 38.4239 48.9512 38.6159C49.0812 39.0606 48.9512 39.413 48.5661 39.6682L48.3724 39.8577C46.1823 41.7751 44.5073 43.464 43.3472 44.9318C42.1871 46.3995 41.3509 48.1882 40.8358 50.2951C40.7059 50.8686 40.3527 51.0921 39.7739 50.9658C39.1951 50.837 38.967 50.487 39.097 49.9111C39.9333 46.5284 41.8022 43.4642 44.701 40.7207C39.1608 41.8701 33.4269 41.7899 27.5013 40.4801C21.576 39.1751 16.3276 36.83 11.7538 33.4471C8.2761 30.9586 5.5367 28.0522 3.54036 24.735C1.54401 21.4155 0.384007 17.6803 0.0602298 13.532C-0.261049 9.38378 0.702764 5.0433 2.9591 0.511212C3.21662 0.000885291 3.60408 -0.127884 4.11916 0.127251L4.12002 0.127579Z" fill="black"/>
</svg>
