<svg width="275" height="273" viewBox="0 0 275 273" fill="none" xmlns="http://www.w3.org/2000/svg">
<path d="M224.847 131.1C222.891 140.323 217.029 148.113 207.261 154.47C197.493 160.827 183.734 166.52 165.984 171.548C148.224 176.582 133.517 178.958 121.864 178.676C110.211 178.394 101.088 174.702 94.495 167.599C87.9158 160.501 83.3008 153.89 80.65 147.766C77.9992 141.641 74.8717 132.215 71.2673 119.488C67.6616 106.768 65.3783 97.1041 64.4172 90.4975C63.4561 83.8909 63.853 76.1548 65.6077 67.2893C69.2616 50.1118 89.1307 36.4089 125.215 26.1807C160.739 16.1114 184.281 17.5092 195.842 30.3741C202.7 37.4082 207.457 43.9806 210.113 50.0912C212.769 56.2018 215.897 65.6276 219.496 78.3686C223.105 91.1034 225.389 100.767 226.346 107.359C227.303 113.951 226.803 121.865 224.847 131.1Z" fill="#222A33"/>
<path d="M201.496 238.267C191.723 247.118 178.697 251.145 162.418 250.348C146.139 249.551 125.88 244.732 101.643 235.89C77.3878 227.047 58.7719 217.692 45.7948 207.826C32.8176 197.96 25.5018 186.301 23.8474 172.849C22.2046 159.414 22.3896 148.14 24.4025 139.027C26.4153 129.913 30.5921 116.668 36.9329 99.2892C43.2669 81.9173 48.5953 69.0935 52.9182 60.8179C57.2411 52.5423 64.0284 44.0989 73.2802 35.4878C91.4937 19.0111 125.24 19.7566 174.519 37.7243C223.033 55.4128 248.572 76.2833 251.136 100.336C253.147 113.927 253.154 125.273 251.159 134.375C249.164 143.478 244.987 156.723 238.629 174.113C232.288 191.505 226.959 204.328 222.644 212.584C218.328 220.84 211.279 229.401 201.496 238.267Z" fill="white"/>
<path d="M164.67 87.0086C163.936 90.2361 161.839 92.9408 158.379 95.1228C154.918 97.3047 150.059 99.2333 143.804 100.908C137.544 102.586 132.37 103.345 128.281 103.187C124.192 103.03 121.008 101.687 118.73 99.1607C116.456 96.6361 114.87 94.2921 113.97 92.1289C113.071 89.9657 112.021 86.6413 110.82 82.1557C109.618 77.6724 108.866 74.2688 108.562 71.9449C108.258 69.621 108.436 66.9076 109.097 63.8045C110.467 57.7935 117.51 53.084 130.228 49.6763C142.748 46.3215 151.005 46.9312 154.998 51.5055C157.37 54.0092 159.006 56.3403 159.908 58.4986C160.809 60.657 161.859 63.9814 163.058 68.4719C164.261 72.9602 165.013 76.3638 165.316 78.6827C165.618 81.0015 165.403 83.7768 164.67 87.0086Z" fill="#BDF3E9"/>
<path d="M148.5 66.7275L132.692 84.2275L126 77.6341" stroke="#1AD8B4" stroke-width="5" stroke-linecap="round" stroke-linejoin="round"/>
<path d="M63.4297 151.728C65.8359 151.728 67.3281 150.485 67.3281 148.501C67.3281 147.009 66.2031 145.892 64.6719 145.774V145.712C65.8672 145.532 66.7891 144.501 66.7891 143.267C66.7891 141.54 65.4609 140.454 63.3438 140.454H58.4375V151.728H63.4297ZM60.7969 142.212H62.7344C63.8359 142.212 64.4688 142.728 64.4688 143.634C64.4688 144.587 63.75 145.142 62.4922 145.142H60.7969V142.212ZM60.7969 149.97V146.696H62.7734C64.1641 146.696 64.9219 147.259 64.9219 148.313C64.9219 149.392 64.1875 149.97 62.8281 149.97H60.7969ZM76.6016 151.728H78.875V143.353H76.6016V151.728ZM72.1641 147.454C72.9844 147.454 73.5234 147.97 73.5234 148.735C73.5234 149.501 72.9922 150.024 72.1641 150.024H70.9062V147.454H72.1641ZM68.6328 151.728H72.5391C74.5156 151.728 75.7812 150.571 75.7812 148.751C75.7812 146.931 74.5156 145.774 72.5391 145.774H70.9062V143.353H68.6328V151.728ZM88.0469 146.212C87.8281 144.454 86.4375 143.173 84.2812 143.173C81.7812 143.173 80.1953 144.86 80.1953 147.532C80.1953 150.251 81.7812 151.907 84.2969 151.907C86.4219 151.907 87.8516 150.72 88.0547 148.868H85.9297C85.7344 149.657 85.1719 150.118 84.3203 150.118C83.1875 150.118 82.4922 149.165 82.4922 147.532C82.4922 145.931 83.1875 144.962 84.3125 144.962C85.1797 144.962 85.7266 145.485 85.9141 146.212H88.0469ZM93.1641 151.907C95.6953 151.907 97.3125 150.29 97.3125 147.532C97.3125 144.813 95.6719 143.173 93.1641 143.173C90.6562 143.173 89.0156 144.821 89.0156 147.532C89.0156 150.282 90.6328 151.907 93.1641 151.907ZM93.1641 150.165C92.0391 150.165 91.3281 149.22 91.3281 147.54C91.3281 145.876 92.0547 144.915 93.1641 144.915C94.2734 144.915 94.9922 145.876 94.9922 147.54C94.9922 149.22 94.2812 150.165 93.1641 150.165ZM103.016 147.228L106.359 143.353H103.75L100.969 146.72H100.906V143.353H98.6328V151.728H100.906V148.134H100.969L103.797 151.728H106.555L103.016 147.228ZM109.695 151.728L113.023 146.431H113.086V151.728H115.32V143.353H113.086L109.758 148.587H109.695V143.353H107.461V151.728H109.695ZM119.195 151.728L122.523 146.431H122.586V151.728H124.82V143.353H122.586L119.258 148.587H119.195V143.353H116.961V151.728H119.195ZM118.211 139.563C118.211 141.103 119.312 142.134 120.961 142.134C122.602 142.134 123.711 141.103 123.711 139.563H122.312C122.297 140.399 121.773 141.001 120.961 141.001C120.141 141.001 119.617 140.399 119.602 139.563H118.211ZM135.047 151.728H137.32V143.353H129.633V151.728H131.906V145.071H135.047V151.728ZM142.805 151.907C145.336 151.907 146.953 150.29 146.953 147.532C146.953 144.813 145.312 143.173 142.805 143.173C140.297 143.173 138.656 144.821 138.656 147.532C138.656 150.282 140.273 151.907 142.805 151.907ZM142.805 150.165C141.68 150.165 140.969 149.22 140.969 147.54C140.969 145.876 141.695 144.915 142.805 144.915C143.914 144.915 144.633 145.876 144.633 147.54C144.633 149.22 143.922 150.165 142.805 150.165ZM152.656 147.228L156 143.353H153.391L150.609 146.72H150.547V143.353H148.273V151.728H150.547V148.134H150.609L153.438 151.728H156.195L152.656 147.228ZM160.211 150.212C159.438 150.212 158.922 149.821 158.922 149.196C158.922 148.603 159.406 148.22 160.258 148.157L162.023 148.048V148.657C162.023 149.563 161.203 150.212 160.211 150.212ZM159.461 151.86C160.508 151.86 161.547 151.337 162.016 150.446H162.062V151.728H164.266V145.97C164.266 144.282 162.867 143.173 160.719 143.173C158.5 143.173 157.117 144.29 157.031 145.915H159.117C159.227 145.298 159.766 144.876 160.617 144.876C161.477 144.876 162.023 145.329 162.023 146.11V146.665L159.914 146.79C157.828 146.915 156.656 147.798 156.656 149.321C156.656 150.829 157.867 151.86 159.461 151.86ZM169.273 151.907C171.547 151.907 172.953 150.868 172.953 149.22C172.953 148.29 172.414 147.618 171.398 147.353V147.29C172.18 147.071 172.656 146.392 172.656 145.556C172.656 144.063 171.453 143.173 169.219 143.173C167.172 143.173 165.844 144.196 165.68 145.876H167.828C167.93 145.243 168.438 144.892 169.234 144.892C170.039 144.892 170.438 145.259 170.438 145.806C170.438 146.399 170.023 146.688 169.219 146.688H168.125V148.173H169.281C170.211 148.173 170.68 148.478 170.68 149.134C170.68 149.743 170.18 150.142 169.273 150.142C168.43 150.142 167.891 149.782 167.695 149.071H165.523C165.68 150.845 167.102 151.907 169.273 151.907ZM177.57 150.212C176.797 150.212 176.281 149.821 176.281 149.196C176.281 148.603 176.766 148.22 177.617 148.157L179.383 148.048V148.657C179.383 149.563 178.562 150.212 177.57 150.212ZM176.82 151.86C177.867 151.86 178.906 151.337 179.375 150.446H179.422V151.728H181.625V145.97C181.625 144.282 180.227 143.173 178.078 143.173C175.859 143.173 174.477 144.29 174.391 145.915H176.477C176.586 145.298 177.125 144.876 177.977 144.876C178.836 144.876 179.383 145.329 179.383 146.11V146.665L177.273 146.79C175.188 146.915 174.016 147.798 174.016 149.321C174.016 150.829 175.227 151.86 176.82 151.86ZM189.953 143.353H182.688V145.071H185.188V151.728H187.461V145.071H189.953V143.353ZM194.719 144.86C195.734 144.86 196.43 145.595 196.477 146.665H192.922C193 145.618 193.719 144.86 194.719 144.86ZM196.508 149.165C196.297 149.806 195.656 150.22 194.82 150.22C193.656 150.22 192.898 149.399 192.898 148.204V148.063H198.672V147.368C198.672 144.821 197.133 143.173 194.695 143.173C192.219 143.173 190.656 144.907 190.656 147.579C190.656 150.259 192.203 151.907 194.781 151.907C196.852 151.907 198.352 150.806 198.602 149.165H196.508ZM202.766 147.712L202.93 145.071H205.055V151.728H207.328V143.353H200.977L200.742 147.563C200.672 148.884 200.43 149.853 199.633 149.853C199.406 149.853 199.234 149.821 199.141 149.798V151.72C199.258 151.767 199.516 151.829 199.867 151.829C201.938 151.829 202.617 150.196 202.766 147.712ZM212.508 147.454C213.328 147.454 213.867 147.97 213.867 148.735C213.867 149.501 213.336 150.024 212.508 150.024H211.25V147.454H212.508ZM208.977 151.728H212.883C214.859 151.728 216.125 150.571 216.125 148.751C216.125 146.931 214.859 145.774 212.883 145.774H211.25V143.353H208.977V151.728ZM76.7188 163.853V159.454H74.7656V163.853H76.7188ZM80.3359 163.853V159.454H78.3828V163.853H80.3359ZM85.1641 169.212C84.3906 169.212 83.875 168.821 83.875 168.196C83.875 167.603 84.3594 167.22 85.2109 167.157L86.9766 167.048V167.657C86.9766 168.563 86.1562 169.212 85.1641 169.212ZM84.4141 170.86C85.4609 170.86 86.5 170.337 86.9688 169.446H87.0156V170.728H89.2188V164.97C89.2188 163.282 87.8203 162.173 85.6719 162.173C83.4531 162.173 82.0703 163.29 81.9844 164.915H84.0703C84.1797 164.298 84.7188 163.876 85.5703 163.876C86.4297 163.876 86.9766 164.329 86.9766 165.11V165.665L84.8672 165.79C82.7812 165.915 81.6094 166.798 81.6094 168.321C81.6094 169.829 82.8203 170.86 84.4141 170.86ZM98.3047 165.47C98.2031 163.571 96.7656 162.173 94.5 162.173C91.9922 162.173 90.3906 163.845 90.3906 166.532C90.3906 169.267 91.9922 170.907 94.5156 170.907C96.7188 170.907 98.1953 169.634 98.3125 167.657H96.1875C96.0469 168.571 95.4531 169.118 94.5391 169.118C93.4062 169.118 92.7031 168.181 92.7031 166.532C92.7031 164.915 93.4062 163.962 94.5312 163.962C95.4688 163.962 96.0547 164.587 96.1875 165.47H98.3047ZM107.023 165.47C106.922 163.571 105.484 162.173 103.219 162.173C100.711 162.173 99.1094 163.845 99.1094 166.532C99.1094 169.267 100.711 170.907 103.234 170.907C105.438 170.907 106.914 169.634 107.031 167.657H104.906C104.766 168.571 104.172 169.118 103.258 169.118C102.125 169.118 101.422 168.181 101.422 166.532C101.422 164.915 102.125 163.962 103.25 163.962C104.188 163.962 104.773 164.587 104.906 165.47H107.023ZM111.977 170.907C114.508 170.907 116.125 169.29 116.125 166.532C116.125 163.813 114.484 162.173 111.977 162.173C109.469 162.173 107.828 163.821 107.828 166.532C107.828 169.282 109.445 170.907 111.977 170.907ZM111.977 169.165C110.852 169.165 110.141 168.22 110.141 166.54C110.141 164.876 110.867 163.915 111.977 163.915C113.086 163.915 113.805 164.876 113.805 166.54C113.805 168.22 113.094 169.165 111.977 169.165ZM125.039 162.353H122.758V167.149C122.758 168.259 122.125 168.985 121.109 168.985C120.102 168.985 119.547 168.392 119.547 167.274V162.353H117.266V167.751C117.266 169.704 118.469 170.884 120.281 170.884C121.547 170.884 122.375 170.274 122.789 169.22H122.836V170.728H125.039V162.353ZM126.523 170.728H128.805V165.923C128.805 164.837 129.453 164.087 130.477 164.087C131.5 164.087 132.016 164.712 132.016 165.806V170.728H134.297V165.329C134.297 163.368 133.25 162.196 131.391 162.196C130.102 162.196 129.219 162.806 128.773 163.845H128.727V162.353H126.523V170.728ZM136.352 160.423V162.353H135.172V164.071H136.352V168.47C136.352 170.103 137.117 170.759 139.086 170.759C139.547 170.759 139.938 170.72 140.172 170.665V168.985C140.031 169.009 139.82 169.024 139.617 169.024C138.945 169.024 138.633 168.72 138.633 168.079V164.071H140.18V162.353H138.633V160.423H136.352ZM144.656 170.728H146.938V165.946C146.938 164.845 147.57 164.087 148.648 164.087C149.688 164.087 150.219 164.743 150.219 165.821V170.728H152.5V165.337C152.5 163.399 151.438 162.196 149.578 162.196C148.305 162.196 147.391 162.79 146.945 163.845H146.898V159.454H144.656V170.728ZM157.719 163.86C158.734 163.86 159.43 164.595 159.477 165.665H155.922C156 164.618 156.719 163.86 157.719 163.86ZM159.508 168.165C159.297 168.806 158.656 169.22 157.82 169.22C156.656 169.22 155.898 168.399 155.898 167.204V167.063H161.672V166.368C161.672 163.821 160.133 162.173 157.695 162.173C155.219 162.173 153.656 163.907 153.656 166.579C153.656 169.259 155.203 170.907 157.781 170.907C159.852 170.907 161.352 169.806 161.602 168.165H159.508ZM166.086 169.212C165.312 169.212 164.797 168.821 164.797 168.196C164.797 167.603 165.281 167.22 166.133 167.157L167.898 167.048V167.657C167.898 168.563 167.078 169.212 166.086 169.212ZM165.336 170.86C166.383 170.86 167.422 170.337 167.891 169.446H167.938V170.728H170.141V164.97C170.141 163.282 168.742 162.173 166.594 162.173C164.375 162.173 162.992 163.29 162.906 164.915H164.992C165.102 164.298 165.641 163.876 166.492 163.876C167.352 163.876 167.898 164.329 167.898 165.11V165.665L165.789 165.79C163.703 165.915 162.531 166.798 162.531 168.321C162.531 169.829 163.742 170.86 165.336 170.86ZM171.672 170.728H173.953V159.454H171.672V170.728ZM176.102 160.423V162.353H174.922V164.071H176.102V168.47C176.102 170.103 176.867 170.759 178.836 170.759C179.297 170.759 179.688 170.72 179.922 170.665V168.985C179.781 169.009 179.57 169.024 179.367 169.024C178.695 169.024 178.383 168.72 178.383 168.079V164.071H179.93V162.353H178.383V160.423H176.102ZM181.234 170.728H183.516V165.946C183.516 164.845 184.148 164.087 185.227 164.087C186.266 164.087 186.797 164.743 186.797 165.821V170.728H189.078V165.337C189.078 163.399 188.016 162.196 186.156 162.196C184.883 162.196 183.969 162.79 183.523 163.845H183.477V159.454H181.234V170.728ZM192.438 163.853V159.454H190.484V163.853H192.438ZM196.055 163.853V159.454H194.102V163.853H196.055ZM102.953 189.728H105.227V181.353H102.953V184.571H99.7344V181.353H97.4609V189.728H99.7344V186.298H102.953V189.728ZM110.102 188.212C109.328 188.212 108.812 187.821 108.812 187.196C108.812 186.603 109.297 186.22 110.148 186.157L111.914 186.048V186.657C111.914 187.563 111.094 188.212 110.102 188.212ZM109.352 189.86C110.398 189.86 111.438 189.337 111.906 188.446H111.953V189.728H114.156V183.97C114.156 182.282 112.758 181.173 110.609 181.173C108.391 181.173 107.008 182.29 106.922 183.915H109.008C109.117 183.298 109.656 182.876 110.508 182.876C111.367 182.876 111.914 183.329 111.914 184.11V184.665L109.805 184.79C107.719 184.915 106.547 185.798 106.547 187.321C106.547 188.829 107.758 189.86 109.352 189.86ZM126.523 189.728H129.031L125.109 178.454H122.336L118.422 189.728H120.844L121.703 186.993H125.664L126.523 189.728ZM123.656 180.61H123.711L125.156 185.228H122.211L123.656 180.61ZM132.289 189.728V184.126H132.344L134.508 189.259H136.086L138.258 184.126H138.312V189.728H140.453V181.353H137.531L135.344 186.821H135.289L133.102 181.353H130.148V189.728H132.289ZM145.336 188.212C144.562 188.212 144.047 187.821 144.047 187.196C144.047 186.603 144.531 186.22 145.383 186.157L147.148 186.048V186.657C147.148 187.563 146.328 188.212 145.336 188.212ZM144.586 189.86C145.633 189.86 146.672 189.337 147.141 188.446H147.188V189.728H149.391V183.97C149.391 182.282 147.992 181.173 145.844 181.173C143.625 181.173 142.242 182.29 142.156 183.915H144.242C144.352 183.298 144.891 182.876 145.742 182.876C146.602 182.876 147.148 183.329 147.148 184.11V184.665L145.039 184.79C142.953 184.915 141.781 185.798 141.781 187.321C141.781 188.829 142.992 189.86 144.586 189.86ZM154.398 189.907C156.672 189.907 158.078 188.868 158.078 187.22C158.078 186.29 157.539 185.618 156.523 185.353V185.29C157.305 185.071 157.781 184.392 157.781 183.556C157.781 182.063 156.578 181.173 154.344 181.173C152.297 181.173 150.969 182.196 150.805 183.876H152.953C153.055 183.243 153.562 182.892 154.359 182.892C155.164 182.892 155.562 183.259 155.562 183.806C155.562 184.399 155.148 184.688 154.344 184.688H153.25V186.173H154.406C155.336 186.173 155.805 186.478 155.805 187.134C155.805 187.743 155.305 188.142 154.398 188.142C153.555 188.142 153.016 187.782 152.82 187.071H150.648C150.805 188.845 152.227 189.907 154.398 189.907ZM163.305 189.907C165.836 189.907 167.453 188.29 167.453 185.532C167.453 182.813 165.812 181.173 163.305 181.173C160.797 181.173 159.156 182.821 159.156 185.532C159.156 188.282 160.773 189.907 163.305 189.907ZM163.305 188.165C162.18 188.165 161.469 187.22 161.469 185.54C161.469 183.876 162.195 182.915 163.305 182.915C164.414 182.915 165.133 183.876 165.133 185.54C165.133 187.22 164.422 188.165 163.305 188.165ZM174.266 189.728H176.539V181.353H174.266V184.571H171.047V181.353H168.773V189.728H171.047V186.298H174.266V189.728Z" fill="black"/>
</svg>
