<svg width="398" height="394" viewBox="0 0 398 394" fill="none" xmlns="http://www.w3.org/2000/svg">
<path d="M324.682 188.608C321.853 201.945 313.376 213.21 299.251 222.402C285.126 231.594 265.231 239.826 239.564 247.096C213.882 254.376 192.615 257.812 175.765 257.404C158.914 256.997 145.722 251.657 136.187 241.386C126.674 231.123 120 221.563 116.167 212.707C112.334 203.85 107.811 190.22 102.599 171.816C97.3853 153.422 94.0835 139.448 92.6938 129.895C91.304 120.341 91.8779 109.155 94.4153 96.3349C99.6989 71.4956 128.43 51.6807 180.61 36.8902C231.979 22.3296 266.022 24.3508 282.739 42.954C292.655 53.1257 299.534 62.6296 303.375 71.4658C307.216 80.3019 311.739 93.932 316.943 112.356C322.163 130.771 325.465 144.745 326.849 154.278C328.232 163.81 327.51 175.254 324.682 188.608Z" fill="#222A33"/>
<path d="M290.915 343.575C276.783 356.374 257.947 362.197 234.406 361.045C210.866 359.893 181.572 352.924 146.523 340.139C111.45 327.35 84.5304 313.823 65.765 299.557C46.9995 285.29 36.4206 268.431 34.0282 248.978C31.6527 229.551 31.9203 213.249 34.8309 200.07C37.7415 186.892 43.7813 167.738 52.9504 142.608C62.1096 117.488 69.8147 98.9439 76.0658 86.977C82.3169 75.0102 92.1316 62.8007 105.51 50.3487C131.847 26.5227 180.646 27.6007 251.906 53.5827C322.058 79.1611 358.989 109.341 362.697 144.122C365.604 163.775 365.615 180.182 362.73 193.344C359.845 206.506 353.805 225.66 344.611 250.806C335.441 275.955 327.736 294.499 321.495 306.437C315.255 318.376 305.061 330.755 290.915 343.575Z" fill="white"/>
<path d="M225.67 147.013C224.936 150.24 222.839 152.945 219.379 155.127C215.918 157.309 211.059 159.238 204.804 160.913C198.544 162.59 193.37 163.35 189.281 163.192C185.192 163.034 182.008 161.692 179.73 159.165C177.456 156.64 175.87 154.297 174.97 152.133C174.071 149.97 173.021 146.646 171.82 142.16C170.618 137.677 169.866 134.273 169.562 131.949C169.258 129.625 169.436 126.912 170.097 123.809C171.467 117.798 178.51 113.088 191.228 109.681C203.748 106.326 212.005 106.936 215.998 111.51C218.37 114.014 220.006 116.345 220.908 118.503C221.809 120.661 222.859 123.986 224.058 128.476C225.261 132.965 226.013 136.368 226.316 138.687C226.618 141.006 226.403 143.781 225.67 147.013Z" fill="#BDF3E9"/>
<path d="M209.5 126.732L193.692 144.232L187 137.639" stroke="#1AD8B4" stroke-width="5" stroke-linecap="round" stroke-linejoin="round"/>
<path d="M106.037 215.732C109.045 215.732 110.91 214.18 110.91 211.699C110.91 209.834 109.504 208.438 107.59 208.291V208.213C109.084 207.988 110.236 206.699 110.236 205.156C110.236 202.998 108.576 201.641 105.93 201.641H99.7969V215.732H106.037ZM102.746 203.838H105.168C106.545 203.838 107.336 204.482 107.336 205.615C107.336 206.807 106.438 207.5 104.865 207.5H102.746V203.838ZM102.746 213.535V209.443H105.217C106.955 209.443 107.902 210.146 107.902 211.465C107.902 212.812 106.984 213.535 105.285 213.535H102.746ZM122.502 215.732H125.344V205.264H122.502V215.732ZM116.955 210.391C117.98 210.391 118.654 211.035 118.654 211.992C118.654 212.949 117.99 213.604 116.955 213.604H115.383V210.391H116.955ZM112.541 215.732H117.424C119.895 215.732 121.477 214.287 121.477 212.012C121.477 209.736 119.895 208.291 117.424 208.291H115.383V205.264H112.541V215.732ZM136.809 208.838C136.535 206.641 134.797 205.039 132.102 205.039C128.977 205.039 126.994 207.148 126.994 210.488C126.994 213.887 128.977 215.957 132.121 215.957C134.777 215.957 136.564 214.473 136.818 212.158H134.162C133.918 213.145 133.215 213.721 132.15 213.721C130.734 213.721 129.865 212.529 129.865 210.488C129.865 208.486 130.734 207.275 132.141 207.275C133.225 207.275 133.908 207.93 134.143 208.838H136.809ZM143.205 215.957C146.369 215.957 148.391 213.936 148.391 210.488C148.391 207.09 146.34 205.039 143.205 205.039C140.07 205.039 138.02 207.1 138.02 210.488C138.02 213.926 140.041 215.957 143.205 215.957ZM143.205 213.779C141.799 213.779 140.91 212.598 140.91 210.498C140.91 208.418 141.818 207.217 143.205 207.217C144.592 207.217 145.49 208.418 145.49 210.498C145.49 212.598 144.602 213.779 143.205 213.779ZM155.52 210.107L159.699 205.264H156.438L152.961 209.473H152.883V205.264H150.041V215.732H152.883V211.24H152.961L156.496 215.732H159.943L155.52 210.107ZM163.869 215.732L168.029 209.111H168.107V215.732H170.9V205.264H168.107L163.947 211.807H163.869V205.264H161.076V215.732H163.869ZM175.744 215.732L179.904 209.111H179.982V215.732H182.775V205.264H179.982L175.822 211.807H175.744V205.264H172.951V215.732H175.744ZM174.514 200.527C174.514 202.451 175.891 203.74 177.951 203.74C180.002 203.74 181.389 202.451 181.389 200.527H179.641C179.621 201.572 178.967 202.324 177.951 202.324C176.926 202.324 176.271 201.572 176.252 200.527H174.514ZM195.559 215.732H198.4V205.264H188.791V215.732H191.633V207.412H195.559V215.732ZM205.256 215.957C208.42 215.957 210.441 213.936 210.441 210.488C210.441 207.09 208.391 205.039 205.256 205.039C202.121 205.039 200.07 207.1 200.07 210.488C200.07 213.926 202.092 215.957 205.256 215.957ZM205.256 213.779C203.85 213.779 202.961 212.598 202.961 210.498C202.961 208.418 203.869 207.217 205.256 207.217C206.643 207.217 207.541 208.418 207.541 210.498C207.541 212.598 206.652 213.779 205.256 213.779ZM217.57 210.107L221.75 205.264H218.488L215.012 209.473H214.934V205.264H212.092V215.732H214.934V211.24H215.012L218.547 215.732H221.994L217.57 210.107ZM227.014 213.838C226.047 213.838 225.402 213.35 225.402 212.568C225.402 211.826 226.008 211.348 227.072 211.27L229.279 211.133V211.895C229.279 213.027 228.254 213.838 227.014 213.838ZM226.076 215.898C227.385 215.898 228.684 215.244 229.27 214.131H229.328V215.732H232.082V208.535C232.082 206.426 230.334 205.039 227.648 205.039C224.875 205.039 223.146 206.436 223.039 208.467H225.646C225.783 207.695 226.457 207.168 227.521 207.168C228.596 207.168 229.279 207.734 229.279 208.711V209.404L226.643 209.561C224.035 209.717 222.57 210.82 222.57 212.725C222.57 214.609 224.084 215.898 226.076 215.898ZM238.342 215.957C241.184 215.957 242.941 214.658 242.941 212.598C242.941 211.436 242.268 210.596 240.998 210.264V210.186C241.975 209.912 242.57 209.062 242.57 208.018C242.57 206.152 241.066 205.039 238.273 205.039C235.715 205.039 234.055 206.318 233.85 208.418H236.535C236.662 207.627 237.297 207.188 238.293 207.188C239.299 207.188 239.797 207.646 239.797 208.33C239.797 209.072 239.279 209.434 238.273 209.434H236.906V211.289H238.352C239.514 211.289 240.1 211.67 240.1 212.49C240.1 213.252 239.475 213.75 238.342 213.75C237.287 213.75 236.613 213.301 236.369 212.412H233.654C233.85 214.629 235.627 215.957 238.342 215.957ZM248.713 213.838C247.746 213.838 247.102 213.35 247.102 212.568C247.102 211.826 247.707 211.348 248.771 211.27L250.979 211.133V211.895C250.979 213.027 249.953 213.838 248.713 213.838ZM247.775 215.898C249.084 215.898 250.383 215.244 250.969 214.131H251.027V215.732H253.781V208.535C253.781 206.426 252.033 205.039 249.348 205.039C246.574 205.039 244.846 206.436 244.738 208.467H247.346C247.482 207.695 248.156 207.168 249.221 207.168C250.295 207.168 250.979 207.734 250.979 208.711V209.404L248.342 209.561C245.734 209.717 244.27 210.82 244.27 212.725C244.27 214.609 245.783 215.898 247.775 215.898ZM264.191 205.264H255.109V207.412H258.234V215.732H261.076V207.412H264.191V205.264ZM270.148 207.148C271.418 207.148 272.287 208.066 272.346 209.404H267.902C268 208.096 268.898 207.148 270.148 207.148ZM272.385 212.529C272.121 213.33 271.32 213.848 270.275 213.848C268.82 213.848 267.873 212.822 267.873 211.328V211.152H275.09V210.283C275.09 207.1 273.166 205.039 270.119 205.039C267.023 205.039 265.07 207.207 265.07 210.547C265.07 213.896 267.004 215.957 270.227 215.957C272.814 215.957 274.689 214.58 275.002 212.529H272.385ZM280.207 210.713L280.412 207.412H283.068V215.732H285.91V205.264H277.971L277.678 210.527C277.59 212.178 277.287 213.389 276.291 213.389C276.008 213.389 275.793 213.35 275.676 213.32V215.723C275.822 215.781 276.145 215.859 276.584 215.859C279.172 215.859 280.021 213.818 280.207 210.713ZM292.385 210.391C293.41 210.391 294.084 211.035 294.084 211.992C294.084 212.949 293.42 213.604 292.385 213.604H290.812V210.391H292.385ZM287.971 215.732H292.854C295.324 215.732 296.906 214.287 296.906 212.012C296.906 209.736 295.324 208.291 292.854 208.291H290.812V205.264H287.971V215.732ZM122.648 231.139V225.641H120.207V231.139H122.648ZM127.17 231.139V225.641H124.729V231.139H127.17ZM133.205 237.838C132.238 237.838 131.594 237.35 131.594 236.568C131.594 235.826 132.199 235.348 133.264 235.27L135.471 235.133V235.895C135.471 237.027 134.445 237.838 133.205 237.838ZM132.268 239.898C133.576 239.898 134.875 239.244 135.461 238.131H135.52V239.732H138.273V232.535C138.273 230.426 136.525 229.039 133.84 229.039C131.066 229.039 129.338 230.436 129.23 232.467H131.838C131.975 231.695 132.648 231.168 133.713 231.168C134.787 231.168 135.471 231.734 135.471 232.711V233.404L132.834 233.561C130.227 233.717 128.762 234.82 128.762 236.725C128.762 238.609 130.275 239.898 132.268 239.898ZM149.631 233.16C149.504 230.787 147.707 229.039 144.875 229.039C141.74 229.039 139.738 231.129 139.738 234.488C139.738 237.906 141.74 239.957 144.895 239.957C147.648 239.957 149.494 238.365 149.641 235.895H146.984C146.809 237.037 146.066 237.721 144.924 237.721C143.508 237.721 142.629 236.549 142.629 234.488C142.629 232.467 143.508 231.275 144.914 231.275C146.086 231.275 146.818 232.057 146.984 233.16H149.631ZM160.529 233.16C160.402 230.787 158.605 229.039 155.773 229.039C152.639 229.039 150.637 231.129 150.637 234.488C150.637 237.906 152.639 239.957 155.793 239.957C158.547 239.957 160.393 238.365 160.539 235.895H157.883C157.707 237.037 156.965 237.721 155.822 237.721C154.406 237.721 153.527 236.549 153.527 234.488C153.527 232.467 154.406 231.275 155.812 231.275C156.984 231.275 157.717 232.057 157.883 233.16H160.529ZM166.721 239.957C169.885 239.957 171.906 237.936 171.906 234.488C171.906 231.09 169.855 229.039 166.721 229.039C163.586 229.039 161.535 231.1 161.535 234.488C161.535 237.926 163.557 239.957 166.721 239.957ZM166.721 237.779C165.314 237.779 164.426 236.598 164.426 234.498C164.426 232.418 165.334 231.217 166.721 231.217C168.107 231.217 169.006 232.418 169.006 234.498C169.006 236.598 168.117 237.779 166.721 237.779ZM183.049 229.264H180.197V235.26C180.197 236.646 179.406 237.555 178.137 237.555C176.877 237.555 176.184 236.812 176.184 235.416V229.264H173.332V236.012C173.332 238.453 174.836 239.928 177.102 239.928C178.684 239.928 179.719 239.166 180.236 237.848H180.295V239.732H183.049V229.264ZM184.904 239.732H187.756V233.727C187.756 232.369 188.566 231.432 189.846 231.432C191.125 231.432 191.77 232.213 191.77 233.58V239.732H194.621V232.984C194.621 230.533 193.312 229.068 190.988 229.068C189.377 229.068 188.273 229.83 187.717 231.129H187.658V229.264H184.904V239.732ZM197.189 226.852V229.264H195.715V231.412H197.189V236.91C197.189 238.951 198.146 239.771 200.607 239.771C201.184 239.771 201.672 239.723 201.965 239.654V237.555C201.789 237.584 201.525 237.604 201.271 237.604C200.432 237.604 200.041 237.223 200.041 236.422V231.412H201.975V229.264H200.041V226.852H197.189ZM207.57 239.732H210.422V233.756C210.422 232.379 211.213 231.432 212.561 231.432C213.859 231.432 214.523 232.252 214.523 233.6V239.732H217.375V232.994C217.375 230.572 216.047 229.068 213.723 229.068C212.131 229.068 210.988 229.811 210.432 231.129H210.373V225.641H207.57V239.732ZM223.898 231.148C225.168 231.148 226.037 232.066 226.096 233.404H221.652C221.75 232.096 222.648 231.148 223.898 231.148ZM226.135 236.529C225.871 237.33 225.07 237.848 224.025 237.848C222.57 237.848 221.623 236.822 221.623 235.328V235.152H228.84V234.283C228.84 231.1 226.916 229.039 223.869 229.039C220.773 229.039 218.82 231.207 218.82 234.547C218.82 237.896 220.754 239.957 223.977 239.957C226.564 239.957 228.439 238.58 228.752 236.529H226.135ZM234.357 237.838C233.391 237.838 232.746 237.35 232.746 236.568C232.746 235.826 233.352 235.348 234.416 235.27L236.623 235.133V235.895C236.623 237.027 235.598 237.838 234.357 237.838ZM233.42 239.898C234.729 239.898 236.027 239.244 236.613 238.131H236.672V239.732H239.426V232.535C239.426 230.426 237.678 229.039 234.992 229.039C232.219 229.039 230.49 230.436 230.383 232.467H232.99C233.127 231.695 233.801 231.168 234.865 231.168C235.939 231.168 236.623 231.734 236.623 232.711V233.404L233.986 233.561C231.379 233.717 229.914 234.82 229.914 236.725C229.914 238.609 231.428 239.898 233.42 239.898ZM241.34 239.732H244.191V225.641H241.34V239.732ZM246.877 226.852V229.264H245.402V231.412H246.877V236.91C246.877 238.951 247.834 239.771 250.295 239.771C250.871 239.771 251.359 239.723 251.652 239.654V237.555C251.477 237.584 251.213 237.604 250.959 237.604C250.119 237.604 249.729 237.223 249.729 236.422V231.412H251.662V229.264H249.729V226.852H246.877ZM253.293 239.732H256.145V233.756C256.145 232.379 256.936 231.432 258.283 231.432C259.582 231.432 260.246 232.252 260.246 233.6V239.732H263.098V232.994C263.098 230.572 261.77 229.068 259.445 229.068C257.854 229.068 256.711 229.811 256.154 231.129H256.096V225.641H253.293V239.732ZM267.297 231.139V225.641H264.855V231.139H267.297ZM271.818 231.139V225.641H269.377V231.139H271.818ZM155.441 263.732H158.283V253.264H155.441V257.287H151.418V253.264H148.576V263.732H151.418V259.445H155.441V263.732ZM164.377 261.838C163.41 261.838 162.766 261.35 162.766 260.568C162.766 259.826 163.371 259.348 164.436 259.27L166.643 259.133V259.895C166.643 261.027 165.617 261.838 164.377 261.838ZM163.439 263.898C164.748 263.898 166.047 263.244 166.633 262.131H166.691V263.732H169.445V256.535C169.445 254.426 167.697 253.039 165.012 253.039C162.238 253.039 160.51 254.436 160.402 256.467H163.01C163.146 255.695 163.82 255.168 164.885 255.168C165.959 255.168 166.643 255.734 166.643 256.711V257.404L164.006 257.561C161.398 257.717 159.934 258.82 159.934 260.725C159.934 262.609 161.447 263.898 163.439 263.898ZM184.904 263.732H188.039L183.137 249.641H179.67L174.777 263.732H177.805L178.879 260.314H183.83L184.904 263.732ZM181.32 252.336H181.389L183.195 258.107H179.514L181.32 252.336ZM192.111 263.732V256.73H192.18L194.885 263.146H196.857L199.572 256.73H199.641V263.732H202.316V253.264H198.664L195.93 260.1H195.861L193.127 253.264H189.436V263.732H192.111ZM208.42 261.838C207.453 261.838 206.809 261.35 206.809 260.568C206.809 259.826 207.414 259.348 208.479 259.27L210.686 259.133V259.895C210.686 261.027 209.66 261.838 208.42 261.838ZM207.482 263.898C208.791 263.898 210.09 263.244 210.676 262.131H210.734V263.732H213.488V256.535C213.488 254.426 211.74 253.039 209.055 253.039C206.281 253.039 204.553 254.436 204.445 256.467H207.053C207.189 255.695 207.863 255.168 208.928 255.168C210.002 255.168 210.686 255.734 210.686 256.711V257.404L208.049 257.561C205.441 257.717 203.977 258.82 203.977 260.725C203.977 262.609 205.49 263.898 207.482 263.898ZM219.748 263.957C222.59 263.957 224.348 262.658 224.348 260.598C224.348 259.436 223.674 258.596 222.404 258.264V258.186C223.381 257.912 223.977 257.062 223.977 256.018C223.977 254.152 222.473 253.039 219.68 253.039C217.121 253.039 215.461 254.318 215.256 256.418H217.941C218.068 255.627 218.703 255.188 219.699 255.188C220.705 255.188 221.203 255.646 221.203 256.33C221.203 257.072 220.686 257.434 219.68 257.434H218.312V259.289H219.758C220.92 259.289 221.506 259.67 221.506 260.49C221.506 261.252 220.881 261.75 219.748 261.75C218.693 261.75 218.02 261.301 217.775 260.412H215.061C215.256 262.629 217.033 263.957 219.748 263.957ZM230.881 263.957C234.045 263.957 236.066 261.936 236.066 258.488C236.066 255.09 234.016 253.039 230.881 253.039C227.746 253.039 225.695 255.1 225.695 258.488C225.695 261.926 227.717 263.957 230.881 263.957ZM230.881 261.779C229.475 261.779 228.586 260.598 228.586 258.498C228.586 256.418 229.494 255.217 230.881 255.217C232.268 255.217 233.166 256.418 233.166 258.498C233.166 260.598 232.277 261.779 230.881 261.779ZM244.582 263.732H247.424V253.264H244.582V257.287H240.559V253.264H237.717V263.732H240.559V259.445H244.582V263.732Z" fill="black"/>
</svg>
