<svg width="396" height="376" viewBox="0 0 396 376" fill="none" xmlns="http://www.w3.org/2000/svg">
<path d="M251.682 247.789C248.853 261.126 240.376 272.391 226.251 281.583C212.126 290.775 192.231 299.007 166.564 306.278C140.882 313.557 119.615 316.993 102.765 316.586C85.914 316.178 72.7216 310.839 63.1874 300.567C53.6736 290.304 47.0001 280.744 43.167 271.888C39.3339 263.031 34.8113 249.401 29.5993 230.998C24.3853 212.603 21.0835 198.629 19.6938 189.076C18.304 179.523 18.8779 168.336 21.4153 155.516C26.6989 130.677 55.4304 110.862 107.61 96.0714C158.979 81.5107 193.022 83.532 209.739 102.135C219.655 112.307 226.534 121.811 230.375 130.647C234.216 139.483 238.739 153.113 243.943 171.537C249.163 189.952 252.465 203.926 253.849 213.459C255.232 222.991 254.51 234.435 251.682 247.789Z" fill="#278DCC"/>
<path d="M365.138 255.093C360.924 273.639 348.873 289.182 328.986 301.721C309.098 314.259 281.18 325.341 245.231 334.968C209.26 344.606 179.526 348.971 156.029 348.064C132.532 347.157 114.237 339.443 101.145 324.925C88.0799 310.417 78.9631 296.947 73.7943 284.517C68.6255 272.086 62.5908 252.982 55.6904 227.206C48.7871 201.442 44.4622 181.884 42.7157 168.53C40.9691 155.176 41.9945 139.583 45.7917 121.751C53.6611 87.2087 94.1372 60.1461 167.22 40.5636C239.168 21.2853 286.614 24.7891 309.559 51.0749C323.188 65.4627 332.592 78.8581 337.772 91.261C342.953 103.664 348.987 122.768 355.876 148.572C362.787 174.364 367.112 193.923 368.851 207.248C370.59 220.573 369.352 236.521 365.138 255.093Z" fill="white"/>
<path d="M240.67 138.194C239.936 141.422 237.839 144.126 234.379 146.308C230.918 148.49 226.059 150.419 219.804 152.094C213.544 153.771 208.37 154.531 204.281 154.373C200.192 154.215 197.008 152.873 194.73 150.346C192.456 147.822 190.87 145.478 189.97 143.314C189.071 141.151 188.021 137.827 186.82 133.341C185.618 128.858 184.866 125.454 184.562 123.13C184.258 120.807 184.436 118.093 185.097 114.99C186.467 108.979 193.51 104.27 206.228 100.862C218.748 97.507 227.005 98.1168 230.998 102.691C233.37 105.195 235.006 107.526 235.908 109.684C236.809 111.843 237.859 115.167 239.058 119.657C240.261 124.146 241.013 127.549 241.316 129.868C241.618 132.187 241.403 134.962 240.67 138.194Z" fill="#BDF3E9"/>
<path d="M224.5 117.914L208.692 135.414L202 128.82" stroke="#1AD8B4" stroke-width="5" stroke-linecap="round" stroke-linejoin="round"/>
<path d="M136.084 202.47C136.084 199.863 134.043 198.115 131.104 198.115H128.369V195.253H134.785V192.822H125.42V206.914H131.201C134.092 206.914 136.084 205.136 136.084 202.47ZM128.369 204.56V200.361H130.459C132.109 200.361 133.066 201.103 133.066 202.47C133.066 203.828 132.109 204.56 130.469 204.56H128.369ZM142.754 207.138C145.918 207.138 147.939 205.117 147.939 201.669C147.939 198.271 145.889 196.22 142.754 196.22C139.619 196.22 137.568 198.281 137.568 201.669C137.568 205.107 139.59 207.138 142.754 207.138ZM142.754 204.96C141.348 204.96 140.459 203.779 140.459 201.679C140.459 199.599 141.367 198.398 142.754 198.398C144.141 198.398 145.039 199.599 145.039 201.679C145.039 203.779 144.15 204.96 142.754 204.96ZM153.057 201.894L153.262 198.593H155.918V206.914H158.76V196.445H150.82L150.527 201.708C150.439 203.359 150.137 204.57 149.141 204.57C148.857 204.57 148.643 204.531 148.525 204.501V206.904C148.672 206.962 148.994 207.041 149.434 207.041C152.021 207.041 152.871 205 153.057 201.894ZM165.518 198.33C166.787 198.33 167.656 199.248 167.715 200.585H163.271C163.369 199.277 164.268 198.33 165.518 198.33ZM167.754 203.71C167.49 204.511 166.689 205.029 165.645 205.029C164.189 205.029 163.242 204.003 163.242 202.509V202.333H170.459V201.464C170.459 198.281 168.535 196.22 165.488 196.22C162.393 196.22 160.439 198.388 160.439 201.728C160.439 205.078 162.373 207.138 165.596 207.138C168.184 207.138 170.059 205.761 170.371 203.71H167.754ZM176.807 198.33C178.076 198.33 178.945 199.248 179.004 200.585H174.561C174.658 199.277 175.557 198.33 176.807 198.33ZM179.043 203.71C178.779 204.511 177.979 205.029 176.934 205.029C175.479 205.029 174.531 204.003 174.531 202.509V202.333H181.748V201.464C181.748 198.281 179.824 196.22 176.777 196.22C173.682 196.22 171.729 198.388 171.729 201.728C171.729 205.078 173.662 207.138 176.885 207.138C179.473 207.138 181.348 205.761 181.66 203.71H179.043ZM187.168 197.06V197.109H189.902V197.06C189.902 195.761 190.908 194.804 192.275 194.804C193.584 194.804 194.512 195.644 194.512 196.699C194.512 197.675 194.072 198.388 192.646 199.814L187.334 204.931V206.914H197.578V204.57H191.221V204.511L194.658 201.201C196.211 199.658 197.383 198.339 197.383 196.582C197.383 194.228 195.342 192.509 192.373 192.509C189.297 192.509 187.168 194.394 187.168 197.06ZM204.736 210.791C207.412 210.791 208.721 209.833 209.619 207.148L213.223 196.445H210.215L207.988 204.628H207.939L205.713 196.445H202.578L206.221 206.923C206.24 206.962 206.133 207.382 206.133 207.421C205.938 208.251 205.42 208.583 204.375 208.583C204.268 208.583 203.75 208.583 203.662 208.564V210.761C203.75 210.781 204.639 210.791 204.736 210.791ZM223.584 200.019C223.311 197.822 221.572 196.22 218.877 196.22C215.752 196.22 213.77 198.33 213.77 201.669C213.77 205.068 215.752 207.138 218.896 207.138C221.553 207.138 223.34 205.654 223.594 203.339H220.938C220.693 204.326 219.99 204.902 218.926 204.902C217.51 204.902 216.641 203.71 216.641 201.669C216.641 199.667 217.51 198.457 218.916 198.457C220 198.457 220.684 199.111 220.918 200.019H223.584ZM231.943 206.914H234.785V196.445H225.176V206.914H228.018V198.593H231.943V206.914ZM241.533 198.33C242.803 198.33 243.672 199.248 243.73 200.585H239.287C239.385 199.277 240.283 198.33 241.533 198.33ZM243.77 203.71C243.506 204.511 242.705 205.029 241.66 205.029C240.205 205.029 239.258 204.003 239.258 202.509V202.333H246.475V201.464C246.475 198.281 244.551 196.22 241.504 196.22C238.408 196.22 236.455 198.388 236.455 201.728C236.455 205.078 238.389 207.138 241.611 207.138C244.199 207.138 246.074 205.761 246.387 203.71H243.77ZM248.125 206.914H262.49V196.445H259.648V204.755H256.729V196.445H253.887V204.755H250.967V196.445H248.125V206.914ZM271.396 206.914H274.238V196.445H271.396V200.468H267.373V196.445H264.531V206.914H267.373V202.626H271.396V206.914ZM286.25 206.914H289.092V196.445H286.25V206.914ZM280.703 201.572C281.729 201.572 282.402 202.216 282.402 203.173C282.402 204.13 281.738 204.785 280.703 204.785H279.131V201.572H280.703ZM276.289 206.914H281.172C283.643 206.914 285.225 205.468 285.225 203.193C285.225 200.917 283.643 199.472 281.172 199.472H279.131V196.445H276.289V206.914ZM295.439 203.281L297.432 206.914H300.527L297.285 201.621L300.557 196.445H297.451L295.596 199.98H295.537L293.652 196.445H290.439L293.701 201.699L290.42 206.914H293.418L295.381 203.281H295.439ZM173.574 231.138C176.416 231.138 178.174 229.839 178.174 227.779C178.174 226.617 177.5 225.777 176.23 225.445V225.367C177.207 225.093 177.803 224.244 177.803 223.199C177.803 221.333 176.299 220.22 173.506 220.22C170.947 220.22 169.287 221.5 169.082 223.599H171.768C171.895 222.808 172.529 222.369 173.525 222.369C174.531 222.369 175.029 222.828 175.029 223.511C175.029 224.253 174.512 224.615 173.506 224.615H172.139V226.47H173.584C174.746 226.47 175.332 226.851 175.332 227.671C175.332 228.433 174.707 228.931 173.574 228.931C172.52 228.931 171.846 228.482 171.602 227.593H168.887C169.082 229.81 170.859 231.138 173.574 231.138ZM183.945 229.019C182.979 229.019 182.334 228.531 182.334 227.75C182.334 227.007 182.939 226.529 184.004 226.451L186.211 226.314V227.076C186.211 228.208 185.186 229.019 183.945 229.019ZM183.008 231.08C184.316 231.08 185.615 230.425 186.201 229.312H186.26V230.914H189.014V223.716C189.014 221.607 187.266 220.22 184.58 220.22C181.807 220.22 180.078 221.617 179.971 223.648H182.578C182.715 222.876 183.389 222.349 184.453 222.349C185.527 222.349 186.211 222.916 186.211 223.892V224.585L183.574 224.742C180.967 224.898 179.502 226.001 179.502 227.906C179.502 229.791 181.016 231.08 183.008 231.08ZM197.803 230.914H200.645V220.445H191.035V230.914H193.877V222.593H197.803V230.914ZM204.033 234.791C206.709 234.791 208.018 233.833 208.916 231.148L212.52 220.445H209.512L207.285 228.628H207.236L205.01 220.445H201.875L205.518 230.923C205.537 230.962 205.43 231.382 205.43 231.421C205.234 232.251 204.717 232.583 203.672 232.583C203.564 232.583 203.047 232.583 202.959 232.564V234.761C203.047 234.781 203.936 234.791 204.033 234.791ZM222.881 224.019C222.607 221.822 220.869 220.22 218.174 220.22C215.049 220.22 213.066 222.33 213.066 225.669C213.066 229.068 215.049 231.138 218.193 231.138C220.85 231.138 222.637 229.654 222.891 227.339H220.234C219.99 228.326 219.287 228.902 218.223 228.902C216.807 228.902 215.938 227.71 215.938 225.669C215.938 223.667 216.807 222.457 218.213 222.457C219.297 222.457 219.98 223.111 220.215 224.019H222.881ZM229.951 225.289L234.131 220.445H230.869L227.393 224.654H227.314V220.445H224.473V230.914H227.314V226.421H227.393L230.928 230.914H234.375L229.951 225.289ZM239.961 231.138C243.125 231.138 245.146 229.117 245.146 225.669C245.146 222.271 243.096 220.22 239.961 220.22C236.826 220.22 234.775 222.281 234.775 225.669C234.775 229.107 236.797 231.138 239.961 231.138ZM239.961 228.96C238.555 228.96 237.666 227.779 237.666 225.679C237.666 223.599 238.574 222.398 239.961 222.398C241.348 222.398 242.246 223.599 242.246 225.679C242.246 227.779 241.357 228.96 239.961 228.96ZM251.279 222.251C252.217 222.251 252.744 222.691 252.744 223.453C252.744 224.244 252.178 224.683 251.133 224.683H249.59V222.251H251.279ZM251.279 226.333C252.49 226.333 253.135 226.802 253.135 227.71C253.135 228.619 252.52 229.107 251.406 229.107H249.59V226.333H251.279ZM246.797 230.914H252.139C254.512 230.914 255.996 229.722 255.996 227.886C255.996 226.568 255.029 225.591 253.633 225.425V225.347C254.707 225.181 255.527 224.205 255.527 223.082C255.527 221.431 254.219 220.445 252.041 220.445H246.797V230.914Z" fill="black"/>
</svg>
