<svg width="251" height="239" viewBox="0 0 251 239" fill="none" xmlns="http://www.w3.org/2000/svg">
<path d="M159.792 157.913C157.996 166.38 152.614 173.532 143.646 179.368C134.679 185.204 122.047 190.431 105.751 195.047C89.4455 199.669 75.9435 201.85 65.2451 201.591C54.5467 201.332 46.1708 197.942 40.1176 191.421C34.0772 184.905 29.8403 178.836 27.4067 173.213C24.973 167.59 22.1016 158.936 18.7925 147.252C15.4822 135.573 13.3859 126.701 12.5035 120.636C11.6212 114.57 11.9855 107.468 13.5965 99.3286C16.9511 83.5581 35.1926 70.9777 68.3213 61.5872C100.935 52.3427 122.549 53.626 133.163 65.4371C139.459 71.8951 143.826 77.9291 146.265 83.5392C148.704 89.1493 151.575 97.803 154.879 109.5C158.193 121.192 160.289 130.064 161.168 136.116C162.047 142.169 161.588 149.434 159.792 157.913Z" fill="#278DCC"/>
<path d="M231.826 162.55C229.15 174.325 221.499 184.193 208.872 192.153C196.246 200.114 178.52 207.15 155.697 213.262C132.859 219.381 113.981 222.153 99.0626 221.577C84.1444 221.001 72.529 216.104 64.2163 206.886C55.9216 197.675 50.1334 189.123 46.8518 181.231C43.5701 173.338 39.7387 161.209 35.3576 144.844C30.9748 128.487 28.2289 116.069 27.12 107.591C26.0111 99.1123 26.6621 89.2125 29.073 77.8912C34.0692 55.9603 59.7674 38.7783 106.168 26.3454C151.847 14.1057 181.971 16.3302 196.538 33.019C205.191 42.1538 211.162 50.6585 214.451 58.5331C217.74 66.4076 221.571 78.5365 225.945 94.9197C230.333 111.295 233.079 123.713 234.183 132.173C235.286 140.633 234.501 150.759 231.826 162.55Z" fill="white"/>
<path d="M161.67 83.1888C160.936 86.4163 158.839 89.121 155.379 91.3029C151.918 93.4849 147.059 95.4134 140.804 97.0886C134.544 98.7659 129.37 99.5255 125.281 99.3676C121.192 99.2097 118.008 97.8675 115.73 95.3409C113.456 92.8163 111.87 90.4723 110.97 88.3091C110.071 86.1459 109.021 82.8215 107.82 78.3359C106.618 73.8526 105.866 70.449 105.562 68.1251C105.258 65.8012 105.436 63.0878 106.097 59.9847C107.467 53.9736 114.51 49.2642 127.228 45.8565C139.748 42.5017 148.005 43.1114 151.998 47.6856C154.37 50.1894 156.006 52.5205 156.908 54.6788C157.809 56.8372 158.859 60.1616 160.058 64.6521C161.261 69.1404 162.013 72.544 162.316 74.8628C162.618 77.1817 162.403 79.957 161.67 83.1888Z" fill="#BDF3E9"/>
<path d="M145.5 62.9082L129.692 80.4082L123 73.8148" stroke="#1AD8B4" stroke-width="5" stroke-linecap="round" stroke-linejoin="round"/>
<path d="M72.3672 144.354C72.3672 142.268 70.7344 140.869 68.3828 140.869H66.1953V138.58H71.3281V136.635H63.8359V147.908H68.4609C70.7734 147.908 72.3672 146.486 72.3672 144.354ZM66.1953 146.025V142.666H67.8672C69.1875 142.666 69.9531 143.26 69.9531 144.354C69.9531 145.439 69.1875 146.025 67.875 146.025H66.1953ZM77.7031 148.088C80.2344 148.088 81.8516 146.471 81.8516 143.713C81.8516 140.994 80.2109 139.354 77.7031 139.354C75.1953 139.354 73.5547 141.002 73.5547 143.713C73.5547 146.463 75.1719 148.088 77.7031 148.088ZM77.7031 146.346C76.5781 146.346 75.8672 145.4 75.8672 143.721C75.8672 142.057 76.5938 141.096 77.7031 141.096C78.8125 141.096 79.5312 142.057 79.5312 143.721C79.5312 145.4 78.8203 146.346 77.7031 146.346ZM85.9453 143.893L86.1094 141.252H88.2344V147.908H90.5078V139.533H84.1562L83.9219 143.744C83.8516 145.064 83.6094 146.033 82.8125 146.033C82.5859 146.033 82.4141 146.002 82.3203 145.979V147.9C82.4375 147.947 82.6953 148.01 83.0469 148.01C85.1172 148.01 85.7969 146.377 85.9453 143.893ZM95.9141 141.041C96.9297 141.041 97.625 141.775 97.6719 142.846H94.1172C94.1953 141.799 94.9141 141.041 95.9141 141.041ZM97.7031 145.346C97.4922 145.986 96.8516 146.4 96.0156 146.4C94.8516 146.4 94.0938 145.58 94.0938 144.385V144.244H99.8672V143.549C99.8672 141.002 98.3281 139.354 95.8906 139.354C93.4141 139.354 91.8516 141.088 91.8516 143.76C91.8516 146.439 93.3984 148.088 95.9766 148.088C98.0469 148.088 99.5469 146.986 99.7969 145.346H97.7031ZM104.945 141.041C105.961 141.041 106.656 141.775 106.703 142.846H103.148C103.227 141.799 103.945 141.041 104.945 141.041ZM106.734 145.346C106.523 145.986 105.883 146.4 105.047 146.4C103.883 146.4 103.125 145.58 103.125 144.385V144.244H108.898V143.549C108.898 141.002 107.359 139.354 104.922 139.354C102.445 139.354 100.883 141.088 100.883 143.76C100.883 146.439 102.43 148.088 105.008 148.088C107.078 148.088 108.578 146.986 108.828 145.346H106.734ZM113.234 140.025V140.064H115.422V140.025C115.422 138.986 116.227 138.221 117.32 138.221C118.367 138.221 119.109 138.893 119.109 139.736C119.109 140.518 118.758 141.088 117.617 142.229L113.367 146.322V147.908H121.562V146.033H116.477V145.986L119.227 143.338C120.469 142.104 121.406 141.049 121.406 139.643C121.406 137.76 119.773 136.385 117.398 136.385C114.938 136.385 113.234 137.893 113.234 140.025ZM127.289 151.01C129.43 151.01 130.477 150.244 131.195 148.096L134.078 139.533H131.672L129.891 146.08H129.852L128.07 139.533H125.562L128.477 147.916C128.492 147.947 128.406 148.283 128.406 148.314C128.25 148.979 127.836 149.244 127 149.244C126.914 149.244 126.5 149.244 126.43 149.229V150.986C126.5 151.002 127.211 151.01 127.289 151.01ZM142.367 142.393C142.148 140.635 140.758 139.354 138.602 139.354C136.102 139.354 134.516 141.041 134.516 143.713C134.516 146.432 136.102 148.088 138.617 148.088C140.742 148.088 142.172 146.9 142.375 145.049H140.25C140.055 145.838 139.492 146.299 138.641 146.299C137.508 146.299 136.812 145.346 136.812 143.713C136.812 142.111 137.508 141.143 138.633 141.143C139.5 141.143 140.047 141.666 140.234 142.393H142.367ZM149.055 147.908H151.328V139.533H143.641V147.908H145.914V141.252H149.055V147.908ZM156.727 141.041C157.742 141.041 158.438 141.775 158.484 142.846H154.93C155.008 141.799 155.727 141.041 156.727 141.041ZM158.516 145.346C158.305 145.986 157.664 146.4 156.828 146.4C155.664 146.4 154.906 145.58 154.906 144.385V144.244H160.68V143.549C160.68 141.002 159.141 139.354 156.703 139.354C154.227 139.354 152.664 141.088 152.664 143.76C152.664 146.439 154.211 148.088 156.789 148.088C158.859 148.088 160.359 146.986 160.609 145.346H158.516ZM162 147.908H173.492V139.533H171.219V146.182H168.883V139.533H166.609V146.182H164.273V139.533H162V147.908ZM180.617 147.908H182.891V139.533H180.617V142.752H177.398V139.533H175.125V147.908H177.398V144.479H180.617V147.908ZM192.5 147.908H194.773V139.533H192.5V147.908ZM188.062 143.635C188.883 143.635 189.422 144.15 189.422 144.916C189.422 145.682 188.891 146.205 188.062 146.205H186.805V143.635H188.062ZM184.531 147.908H188.438C190.414 147.908 191.68 146.752 191.68 144.932C191.68 143.111 190.414 141.955 188.438 141.955H186.805V139.533H184.531V147.908ZM199.852 145.002L201.445 147.908H203.922L201.328 143.674L203.945 139.533H201.461L199.977 142.361H199.93L198.422 139.533H195.852L198.461 143.736L195.836 147.908H198.234L199.805 145.002H199.852ZM102.359 167.088C104.633 167.088 106.039 166.049 106.039 164.4C106.039 163.471 105.5 162.799 104.484 162.533V162.471C105.266 162.252 105.742 161.572 105.742 160.736C105.742 159.244 104.539 158.354 102.305 158.354C100.258 158.354 98.9297 159.377 98.7656 161.057H100.914C101.016 160.424 101.523 160.072 102.32 160.072C103.125 160.072 103.523 160.439 103.523 160.986C103.523 161.58 103.109 161.869 102.305 161.869H101.211V163.354H102.367C103.297 163.354 103.766 163.658 103.766 164.314C103.766 164.924 103.266 165.322 102.359 165.322C101.516 165.322 100.977 164.963 100.781 164.252H98.6094C98.7656 166.025 100.188 167.088 102.359 167.088ZM110.656 165.393C109.883 165.393 109.367 165.002 109.367 164.377C109.367 163.783 109.852 163.4 110.703 163.338L112.469 163.229V163.838C112.469 164.744 111.648 165.393 110.656 165.393ZM109.906 167.041C110.953 167.041 111.992 166.518 112.461 165.627H112.508V166.908H114.711V161.15C114.711 159.463 113.312 158.354 111.164 158.354C108.945 158.354 107.562 159.471 107.477 161.096H109.562C109.672 160.479 110.211 160.057 111.062 160.057C111.922 160.057 112.469 160.51 112.469 161.291V161.846L110.359 161.971C108.273 162.096 107.102 162.979 107.102 164.502C107.102 166.01 108.312 167.041 109.906 167.041ZM121.742 166.908H124.016V158.533H116.328V166.908H118.602V160.252H121.742V166.908ZM126.727 170.01C128.867 170.01 129.914 169.244 130.633 167.096L133.516 158.533H131.109L129.328 165.08H129.289L127.508 158.533H125L127.914 166.916C127.93 166.947 127.844 167.283 127.844 167.314C127.688 167.979 127.273 168.244 126.438 168.244C126.352 168.244 125.938 168.244 125.867 168.229V169.986C125.938 170.002 126.648 170.01 126.727 170.01ZM141.805 161.393C141.586 159.635 140.195 158.354 138.039 158.354C135.539 158.354 133.953 160.041 133.953 162.713C133.953 165.432 135.539 167.088 138.055 167.088C140.18 167.088 141.609 165.9 141.812 164.049H139.688C139.492 164.838 138.93 165.299 138.078 165.299C136.945 165.299 136.25 164.346 136.25 162.713C136.25 161.111 136.945 160.143 138.07 160.143C138.938 160.143 139.484 160.666 139.672 161.393H141.805ZM147.461 162.408L150.805 158.533H148.195L145.414 161.9H145.352V158.533H143.078V166.908H145.352V163.314H145.414L148.242 166.908H151L147.461 162.408ZM155.469 167.088C158 167.088 159.617 165.471 159.617 162.713C159.617 159.994 157.977 158.354 155.469 158.354C152.961 158.354 151.32 160.002 151.32 162.713C151.32 165.463 152.938 167.088 155.469 167.088ZM155.469 165.346C154.344 165.346 153.633 164.4 153.633 162.721C153.633 161.057 154.359 160.096 155.469 160.096C156.578 160.096 157.297 161.057 157.297 162.721C157.297 164.4 156.586 165.346 155.469 165.346ZM164.523 159.979C165.273 159.979 165.695 160.33 165.695 160.939C165.695 161.572 165.242 161.924 164.406 161.924H163.172V159.979H164.523ZM164.523 163.244C165.492 163.244 166.008 163.619 166.008 164.346C166.008 165.072 165.516 165.463 164.625 165.463H163.172V163.244H164.523ZM160.938 166.908H165.211C167.109 166.908 168.297 165.955 168.297 164.486C168.297 163.432 167.523 162.65 166.406 162.518V162.455C167.266 162.322 167.922 161.541 167.922 160.643C167.922 159.322 166.875 158.533 165.133 158.533H160.938V166.908Z" fill="black"/>
</svg>
