<svg width="1553" height="1553" viewBox="0 0 1553 1553" fill="none" xmlns="http://www.w3.org/2000/svg">
<path d="M1361.53 811.843C1365.71 834.662 1359.66 857.876 1343.38 881.483C1327.1 905.091 1301.12 930.921 1265.43 958.974C1229.72 987.052 1198.48 1006.22 1171.7 1016.49C1144.91 1026.75 1120.7 1026.88 1099.04 1016.89C1077.43 1006.9 1060.74 996.169 1048.98 984.712C1037.21 973.255 1021.27 954.732 1001.16 929.142C981.052 903.568 966.812 883.714 958.443 869.578C950.073 855.443 943.736 837.467 939.433 815.65C931.673 773.139 964.065 723.361 1036.61 666.316C1108.03 610.157 1162.91 591.306 1201.26 609.764C1223.45 619.354 1240.43 629.859 1252.19 641.279C1263.95 652.699 1279.89 671.223 1300 696.849C1320.14 722.452 1334.38 742.306 1342.72 756.413C1351.07 770.519 1357.34 788.996 1361.53 811.843Z" fill="#FF4F45"/>
<path d="M439.538 1203.31C385.977 1175.58 348.145 1126.62 326.043 1056.43C303.941 986.237 292.916 892.966 292.967 776.615C293.039 660.26 304.172 566.998 326.365 496.828C348.558 426.657 387.378 377.742 442.824 350.081C498.246 322.413 547.195 305.823 589.671 300.312C632.096 294.791 695.818 292.061 780.835 292.12C865.765 292.176 929.477 294.984 971.974 300.543C1014.39 306.115 1061.47 321.844 1113.23 347.729C1212.92 399.456 1262.69 543.532 1262.55 779.956C1262.41 1012.67 1212.46 1153 1112.7 1200.95C1057.29 1230.44 1008.33 1247.96 965.84 1253.51C923.344 1259.01 859.628 1261.74 774.691 1261.7C689.669 1261.65 625.956 1258.84 583.552 1253.28C541.051 1247.71 493.046 1231.06 439.538 1203.31Z" fill="url(#paint0_linear)"/>
<path d="M336.66 817.818C337.423 821.986 336.318 826.225 333.345 830.536C330.372 834.848 325.627 839.565 319.11 844.688C312.589 849.815 306.883 853.316 301.992 855.191C297.101 857.065 292.678 857.09 288.724 855.265C284.777 853.439 281.729 851.481 279.581 849.388C277.432 847.296 274.522 843.913 270.849 839.24C267.176 834.57 264.576 830.944 263.047 828.362C261.519 825.781 260.361 822.498 259.575 818.514C258.158 810.75 264.074 801.66 277.322 791.242C290.365 780.986 300.388 777.543 307.391 780.914C311.443 782.666 314.543 784.584 316.692 786.67C318.84 788.755 321.751 792.138 325.424 796.818C329.1 801.494 331.701 805.119 333.225 807.696C334.75 810.272 335.895 813.646 336.66 817.818Z" fill="#222A33"/>
<g opacity="0.73">
<path opacity="0.73" d="M315.799 316.043L284.583 378.965C284.583 378.965 326.128 416.767 296.023 428.567C296.023 428.567 329.641 463.672 284.975 482.222C246.814 498.075 202.899 456.35 209.665 430.397C217.298 401.126 239.394 407.255 239.394 407.255C239.394 407.255 218.605 390.912 226.695 374.568C236.37 355.071 274.99 374.225 274.99 374.225L310.275 313.33L315.799 316.043Z" fill="white"/>
<path opacity="0.73" d="M478.627 377.804L446.136 440.088C446.136 440.088 386.925 411.308 399.28 460.011C399.28 460.011 351.117 453.474 362.41 500.542C372.069 540.779 431.656 551.648 448.637 530.973C467.808 507.554 449.863 493.384 449.863 493.384C449.863 493.384 465.47 500.738 473.887 484.608C483.955 465.306 455.615 445.155 455.615 445.155L484.135 380.615L478.627 377.804Z" fill="white"/>
<path opacity="0.73" d="M203.161 487.092C200.938 491.684 203.406 497.453 208.668 500.003C213.931 502.553 220.011 500.902 222.217 496.309C224.423 491.717 221.956 485.948 216.693 483.398C211.43 480.849 205.367 482.499 203.161 487.092Z" fill="white"/>
<path opacity="0.73" d="M398.449 571.471C393.186 568.919 390.721 563.136 392.942 558.556C395.163 553.975 401.23 552.331 406.493 554.883C411.756 557.435 414.221 563.217 412 567.798C409.779 572.378 403.712 574.023 398.449 571.471Z" fill="white"/>
<path opacity="0.73" d="M227.545 518.929C227.217 519.9 227.176 520.946 227.427 521.94C227.678 522.934 228.211 523.834 228.961 524.533C229.711 525.232 230.647 525.7 231.657 525.88C232.666 526.06 233.706 525.945 234.652 525.549C235.597 525.152 236.409 524.491 236.988 523.646C237.567 522.8 237.89 521.805 237.918 520.78C237.946 519.755 237.678 518.743 237.145 517.867C236.613 516.991 235.839 516.287 234.916 515.84C233.528 515.278 231.975 515.287 230.594 515.866C229.213 516.444 228.117 517.545 227.545 518.929Z" fill="white"/>
<path opacity="0.73" d="M359.55 566.749C359.221 567.72 359.18 568.766 359.432 569.76C359.683 570.754 360.215 571.654 360.966 572.353C361.716 573.052 362.652 573.52 363.661 573.7C364.671 573.88 365.711 573.765 366.656 573.368C367.602 572.972 368.413 572.311 368.993 571.465C369.572 570.62 369.895 569.624 369.923 568.599C369.951 567.574 369.682 566.563 369.15 565.687C368.617 564.811 367.843 564.107 366.92 563.66C365.533 563.093 363.978 563.1 362.596 563.679C361.214 564.258 360.118 565.362 359.55 566.749V566.749Z" fill="white"/>
<path opacity="0.73" d="M356.118 541.679C355.702 542.428 355.521 543.286 355.598 544.139C355.676 544.993 356.007 545.804 356.55 546.467C357.094 547.13 357.823 547.615 358.645 547.859C359.467 548.103 360.343 548.094 361.16 547.835C361.977 547.575 362.697 547.076 363.227 546.403C363.758 545.729 364.074 544.912 364.134 544.057C364.195 543.202 363.998 542.348 363.568 541.607C363.138 540.865 362.495 540.27 361.723 539.897C361.239 539.645 360.709 539.491 360.164 539.444C359.62 539.397 359.071 539.458 358.551 539.624C358.03 539.789 357.547 540.056 357.129 540.409C356.712 540.761 356.368 541.193 356.118 541.679V541.679Z" fill="white"/>
<path opacity="0.73" d="M190.544 527.705C190.126 528.453 189.942 529.31 190.016 530.164C190.091 531.019 190.42 531.831 190.961 532.496C191.502 533.161 192.231 533.648 193.052 533.894C193.874 534.141 194.75 534.135 195.568 533.877C196.386 533.62 197.108 533.122 197.64 532.45C198.172 531.778 198.49 530.961 198.553 530.106C198.615 529.251 198.42 528.396 197.991 527.653C197.563 526.911 196.921 526.314 196.15 525.94C195.666 525.687 195.137 525.532 194.593 525.484C194.049 525.436 193.501 525.495 192.981 525.659C192.46 525.823 191.977 526.088 191.558 526.439C191.14 526.79 190.795 527.22 190.544 527.705V527.705Z" fill="white"/>
</g>
<path d="M359.615 210.841L232.236 226.155L224.93 250.997L388.036 311.287L426.606 235.977L359.615 210.841Z" fill="#595959"/>
<path d="M471.795 244.835L492.143 250.997L557.009 351.508L544.425 373.293L462.087 342.552L471.795 244.835Z" fill="#595959"/>
<path d="M505.217 206.314C500.697 217.878 493.067 227.967 483.172 235.466C473.276 242.965 461.499 247.582 449.144 248.807L405.393 214.208L432.196 192.275L462.087 181.358L505.217 206.314Z" fill="#0F576F"/>
<path d="M568.711 160.765C569.906 162.102 571.177 163.368 572.519 164.557C573.771 165.536 574.616 166.946 574.889 168.512C575.101 171.928 569.463 177.958 569.12 181.309C568.956 182.943 563.857 177.648 563.35 176.406C562.452 174.297 564.445 170.195 564.053 167.891C563.105 162.203 566.946 158.64 568.711 160.765Z" fill="#F9CBC2"/>
<path d="M399.149 103.106C400.784 101.831 415.313 87.9232 414.054 85.5208C412.322 82.4482 404.87 91.8129 403.235 93.2185C403.947 90.8024 404.224 88.2789 404.052 85.7659C404.052 83.5269 404.559 75.4533 402.533 75.1918C400.506 74.9303 399.836 80.4707 399.264 84.769C399.068 86.1091 398.675 89.0182 398.414 90.2603C398.61 85.7332 398.414 74.3583 395.358 75.0284C392.302 75.6985 393.609 88.3155 394.181 91.8293C393.086 87.3022 391.958 74.2439 388.461 75.3879C386.614 76.009 389.376 88.103 389.687 90.9304C388.592 89.1326 385.535 79.6045 382.692 80.8629C378.688 82.7751 387.023 94.9345 388.461 97.2062C389.899 99.4779 395.554 106.358 400.016 102.55" fill="#FFC1B5"/>
<path d="M390.422 97.5005L388.036 114.775L401.045 112.798L400.032 97.5332L390.422 97.5005Z" fill="#FFC1B5"/>
<path d="M343.043 377.346C343.043 377.346 267.635 392.448 259.561 288.962L263.664 285.824L267.226 288.406C267.226 288.406 283.406 369.812 338.467 352.145L351.541 365.922L343.043 377.346Z" fill="#F9CBC2"/>
<path d="M267.226 288.406C267.226 288.406 265.886 271.458 262.176 271.197C258.466 270.935 260.33 279.041 260.33 279.041C260.33 279.041 239.574 274.694 227.905 286.69C216.235 298.686 242.058 290.318 248.35 289.812C252.328 289.609 256.285 290.502 259.79 292.394C259.79 292.394 259.529 286.919 267.226 288.406Z" fill="#D85050"/>
<path d="M378.884 393.494C378.884 393.494 329.674 452.591 258.417 377.15L259.643 372.117L264.04 371.888C264.04 371.888 327.778 425.102 359.501 376.791L378.312 379.308L378.884 393.494Z" fill="#F9CBC2"/>
<path d="M264.04 371.855C264.04 371.855 252.354 359.516 249.331 361.64C246.307 363.765 252.812 368.897 252.812 368.897C252.812 368.897 233.935 378.539 232.383 395.21C230.83 411.88 245.67 389.163 250.262 384.815C253.235 382.127 256.895 380.317 260.836 379.585C260.836 379.585 257.11 375.549 264.04 371.855Z" fill="#D85050"/>
<path d="M459.848 235.977C459.848 235.977 515.579 249.052 561.88 173.774L571.015 179.364C571.015 179.364 541.598 261.08 473.887 264.578C473.887 264.578 493.368 370.09 459.848 375.075C426.328 380.059 416.359 363.111 416.359 363.111L459.848 235.977Z" fill="#494949"/>
<path d="M394.41 331.226L435.105 357.244C435.105 357.244 411.194 401.583 351.574 415.361C351.574 415.361 320.097 366.641 320.93 346.964L364.24 331.226H394.41Z" fill="#0F576F"/>
<path d="M407.942 175.115C397.679 172.5 387.84 168.414 377.609 165.636C367.378 162.857 356.461 161.419 346.246 164.214C336.032 167.008 326.634 174.739 324.314 185.084C322.369 193.664 325.409 202.718 330.181 210.138C338.974 223.85 353.503 233.297 369.127 237.922C384.751 242.547 401.421 242.645 417.568 240.455C423.793 239.835 429.869 238.178 435.546 235.552C447.885 229.276 454.929 216.234 461.254 203.944C466.271 194.138 468.805 176.324 453.393 176.961C437.638 177.599 423.55 179.086 407.942 175.115Z" fill="#0F576F"/>
<path d="M528.261 140.581C528.261 140.581 541.124 216.757 486.717 221.889C486.717 221.889 466.909 218.865 459.848 235.977C459.848 235.977 452.69 234.702 447.133 226.171L458.868 205.399L450.157 174.902L467.137 131.298L528.261 140.581Z" fill="#FFC1B5"/>
<path d="M455.975 198.061C455.975 198.061 469.05 221.317 486.047 222.282C486.047 222.282 469.328 231.581 453.082 201.411L455.975 198.061Z" fill="#494949"/>
<path d="M533.54 140.614C533.54 140.614 533.54 115.429 510.529 108.271C487.518 101.112 461.924 107.405 449.814 122.391C437.703 137.378 441.756 211.07 462.218 213.914C462.218 213.914 464.98 217.084 466.729 203.029L476.829 152.365L495.575 142.396L527.591 142.281L533.54 140.614Z" fill="#D85050"/>
<path d="M550.178 155.781C551.135 156.255 551.931 157.001 552.466 157.925C553.001 158.85 553.251 159.912 553.185 160.978C552.793 163.56 550.112 165.064 547.694 166.011C541.068 168.885 533.797 169.945 526.627 169.084C516.38 167.45 507.816 160.553 500.478 153.296C499.53 152.365 498.5 151.139 498.844 149.864C503.586 147.05 508.823 145.169 514.272 144.324C521.806 143.425 524.601 144.455 529.602 149.096C535.207 154.277 543.869 152.25 550.178 155.781Z" fill="#0F576F"/>
<path d="M476.878 152.218C476.878 152.218 479.656 144.814 481.781 143.016C492.306 134.322 533.54 140.614 533.54 140.614L531.53 150.632L476.878 152.218Z" fill="#595959"/>
<path d="M490.819 143.997H491.064C492.698 144.471 492.437 147.266 490.639 147.037H490.394C490.175 147.025 489.96 146.968 489.763 146.871C489.566 146.775 489.391 146.639 489.248 146.473C489.104 146.306 488.996 146.113 488.929 145.904C488.862 145.695 488.838 145.474 488.858 145.256C488.897 145.039 488.979 144.832 489.099 144.648C489.22 144.464 489.377 144.306 489.56 144.184C489.743 144.062 489.949 143.978 490.165 143.938C490.382 143.897 490.604 143.901 490.819 143.948V143.997Z" fill="#333333"/>
<path d="M524.633 147.56C524.138 147.515 523.677 147.286 523.341 146.919C523.006 146.551 522.82 146.072 522.82 145.574C522.82 145.076 523.006 144.597 523.341 144.229C523.677 143.862 524.138 143.633 524.633 143.588C525.129 143.633 525.59 143.862 525.925 144.229C526.261 144.597 526.447 145.076 526.447 145.574C526.447 146.072 526.261 146.551 525.925 146.919C525.59 147.286 525.129 147.515 524.633 147.56V147.56Z" fill="#333333"/>
<path d="M481.307 151.679C481.487 151.679 470.537 218.457 462.267 213.783C462.267 213.783 465.536 210.4 476.878 152.153L481.307 151.679Z" fill="#595959"/>
<path d="M489.757 175.621C489.527 175.8 489.336 176.022 489.193 176.275C489.05 176.528 488.958 176.807 488.923 177.096C488.888 177.384 488.911 177.677 488.989 177.957C489.068 178.236 489.201 178.498 489.381 178.726C490.132 179.723 491.129 179.413 492.094 178.726C492.324 178.557 492.519 178.343 492.666 178.098C492.812 177.852 492.908 177.579 492.948 177.296C492.988 177.013 492.97 176.724 492.896 176.448C492.823 176.171 492.694 175.912 492.519 175.686C491.767 174.689 490.672 174.886 489.757 175.621Z" fill="#333333"/>
<path d="M511.117 183.728C511.21 184.308 511.528 184.828 512.003 185.174C512.478 185.52 513.07 185.664 513.651 185.575C514.893 185.395 515.105 184.382 514.942 183.189C514.908 182.903 514.817 182.628 514.674 182.378C514.531 182.129 514.34 181.911 514.111 181.737C513.882 181.563 513.621 181.437 513.342 181.366C513.064 181.296 512.774 181.282 512.49 181.325C511.264 181.505 510.954 182.535 511.117 183.728Z" fill="#333333"/>
<path d="M480.866 186.13C480.702 187.438 482.745 188.778 485.458 189.121C488.171 189.464 490.508 188.631 490.672 187.323C490.835 186.016 487.567 184.512 484.87 184.169C482.173 183.826 481.062 184.757 480.866 186.13Z" fill="#E89F91"/>
<path d="M518.161 197.456C518.733 196.279 517.23 194.335 514.794 193.141C512.359 191.948 509.891 191.916 509.319 193.141C508.747 194.367 511.346 196.802 513.781 198.044C516.216 199.287 517.573 198.633 518.161 197.456Z" fill="#E89F91"/>
<path d="M497.781 167.94C496.346 168.079 494.901 168.079 493.466 167.94C492.077 167.809 490.41 167.94 489.609 166.616C489.356 166.276 489.245 165.85 489.3 165.429C489.355 165.008 489.571 164.625 489.904 164.361C491.015 163.266 492.6 163.838 493.957 164.05C495.385 164.281 496.791 164.636 498.157 165.112C498.454 165.244 498.7 165.468 498.859 165.751C499.018 166.034 499.081 166.361 499.039 166.683C498.996 167.005 498.851 167.305 498.624 167.537C498.398 167.769 498.102 167.922 497.781 167.973V167.94Z" fill="#0F576F"/>
<path d="M517.606 172.124C519.063 172.765 520.384 173.68 521.495 174.821C521.809 175.121 522.004 175.523 522.046 175.955C522.088 176.387 521.974 176.819 521.724 177.174C521.478 177.532 521.11 177.788 520.688 177.893C520.267 177.998 519.822 177.946 519.436 177.746C518.006 176.754 516.793 175.481 515.873 174.003C515.731 173.756 515.672 173.47 515.704 173.187C515.736 172.904 515.857 172.638 516.051 172.429C516.244 172.219 516.499 172.077 516.778 172.022C517.058 171.967 517.348 172.003 517.606 172.124V172.124Z" fill="#0F576F"/>
<path d="M502.897 174.134C503.716 179.133 504.169 184.186 504.253 189.251C504.253 192.014 504.253 197.292 501.605 199.286C498.958 201.28 496.702 196.524 496.408 194.171C496.408 193.762 496.931 193.435 497.193 193.828C497.722 195.082 498.373 196.28 499.138 197.407C501.753 199.989 502.635 193.942 502.831 191.85C503.194 185.977 502.926 180.081 502.03 174.265C502.027 174.157 502.064 174.052 502.133 173.969C502.202 173.887 502.299 173.832 502.406 173.816C502.512 173.8 502.621 173.823 502.711 173.882C502.802 173.941 502.868 174.03 502.897 174.134Z" fill="#BC6C6C"/>
<path d="M485.524 208.798C484.614 207.796 483.985 206.572 483.698 205.25C483.411 203.927 483.477 202.553 483.889 201.264C484.012 200.908 484.213 200.584 484.478 200.316C485.045 199.986 485.696 199.828 486.351 199.86C487.007 199.892 487.639 200.113 488.171 200.496C489.271 201.29 490.33 202.141 491.342 203.045C492.594 203.986 494.04 204.633 495.575 204.941C496.502 205.033 497.424 205.175 498.337 205.366C498.794 205.459 499.228 205.643 499.612 205.907C499.997 206.171 500.325 206.509 500.576 206.902C500.746 207.269 500.826 207.671 500.809 208.075C500.791 208.478 500.678 208.872 500.478 209.223C497.765 214.29 489.724 213.816 485.524 208.798Z" fill="#8C4542"/>
<path d="M462.071 241.844C462.071 241.844 463.705 317.187 431.297 365.301L374.095 323.283L436.739 226.155H447.101L453.834 234.473L462.071 241.844Z" fill="#D85050"/>
<path d="M459.848 235.977C459.848 235.977 465.372 247.973 462.267 250.686C459.162 253.399 453.082 235.977 453.082 235.977C453.082 235.977 440.727 245.783 435.955 243.478C431.182 241.174 447.133 226.155 447.133 226.155C447.133 226.155 453.082 234.212 459.848 235.977Z" fill="white"/>
<path d="M447.133 226.155C447.133 226.155 403.971 217.444 402.483 108.483H386.287C386.287 108.483 380.011 184.12 412.992 247.565C412.992 247.565 379.505 315.52 351.525 332.01C351.525 332.01 366.022 354.989 380.502 351.001C394.982 347.013 432.8 285.644 447.133 226.155Z" fill="#494949"/>
<path d="M652.47 117.684L566.766 78.2971L536.319 133.488L623.592 177.958L652.47 117.684Z" fill="#333333"/>
<path d="M590.431 158.428L581.769 173.627L557.451 161.37L564.119 145.223L569.185 147.217L563.416 158.428L580.74 168.201L587.277 156.5L590.431 158.428Z" fill="#494949"/>
<path d="M572.519 164.884C571.181 163.691 569.91 162.425 568.711 161.092C567.621 159.68 566.664 158.17 565.851 156.582C564.037 159.262 562.778 162.71 563.677 163.348C564.107 163.621 564.606 163.766 565.115 163.766C565.625 163.766 566.124 163.621 566.554 163.348C566.554 163.348 565.704 166.11 567.142 167.025C568.58 167.94 570.754 166.093 570.754 166.093C570.754 166.093 569.348 169.035 570.868 169.983C572.388 170.931 573.581 168.692 573.581 168.692C573.581 168.692 573.091 170.702 574.055 171.503C574.593 170.727 574.868 169.799 574.84 168.855C574.583 167.29 573.756 165.876 572.519 164.884V164.884Z" fill="#E8B5AF"/>
<path d="M567.175 162.71C566.745 162.983 566.246 163.129 565.737 163.129C565.227 163.129 564.728 162.983 564.298 162.71C562.86 161.697 566.325 153.394 569.414 152.724C572.503 152.054 571.653 156.712 571.653 156.712C572.157 156.274 572.793 156.018 573.46 155.985C574.127 155.952 574.786 156.145 575.33 156.532C575.891 156.925 576.274 157.524 576.393 158.198C576.513 158.872 576.36 159.567 575.967 160.128C575.967 160.128 577.716 158.494 578.893 159.523C580.07 160.553 578.517 163.544 578.517 163.544C578.517 163.544 581.377 162.612 581.655 164.148C581.933 165.685 577.046 171.372 575.314 171.013C573.581 170.653 574.268 167.924 574.268 167.924C574.268 167.924 573.075 170.179 571.555 169.215C570.035 168.251 571.44 165.325 571.44 165.325C571.44 165.325 569.185 167.237 567.763 166.322C566.341 165.407 567.175 162.71 567.175 162.71Z" fill="#F9CBC2"/>
<path d="M566.488 162.988C567.126 162.105 567.894 161.354 568.564 160.487C569.11 159.562 569.787 158.719 570.574 157.987C570.787 157.856 570.966 158.085 570.95 158.281C570.633 159.3 570.072 160.226 569.316 160.978C568.636 161.9 567.833 162.725 566.93 163.429C566.868 163.462 566.797 163.473 566.729 163.463C566.66 163.452 566.596 163.42 566.547 163.371C566.497 163.322 566.465 163.258 566.455 163.189C566.444 163.12 566.456 163.05 566.488 162.988V162.988Z" fill="#E8B5AF"/>
<path d="M570.754 165.766C571.391 164.72 572.11 163.723 572.83 162.726C573.369 161.848 574.048 161.064 574.84 160.406C574.877 160.384 574.919 160.374 574.962 160.377C575.004 160.38 575.045 160.396 575.079 160.422C575.112 160.449 575.137 160.485 575.15 160.525C575.162 160.566 575.163 160.61 575.15 160.651C574.654 161.654 574.046 162.597 573.336 163.462C572.695 164.4 571.973 165.28 571.179 166.093C571.13 166.13 571.071 166.15 571.01 166.149C570.949 166.149 570.89 166.129 570.842 166.092C570.793 166.055 570.758 166.003 570.743 165.944C570.727 165.885 570.731 165.822 570.754 165.766V165.766Z" fill="#E8B5AF"/>
<path d="M571.898 169.787C572.986 169.036 573.919 168.081 574.644 166.976C575.421 165.775 576.308 164.648 577.291 163.609C577.319 163.585 577.354 163.571 577.39 163.567C577.426 163.563 577.463 163.571 577.495 163.589C577.527 163.607 577.553 163.634 577.569 163.666C577.585 163.699 577.591 163.736 577.585 163.772C576.985 165.21 576.108 166.515 575.003 167.613C574.235 168.528 573.254 169.917 572.029 170.244C571.751 170.244 571.555 169.901 571.833 169.77L571.898 169.787Z" fill="#E8B5AF"/>
<path d="M623.592 177.958L617.708 143.588L563.367 118.224L536.319 133.488L623.592 177.958Z" fill="#494949"/>
<path d="M596.478 131.298L583.044 125.219L581.671 129.942L593.651 136.283L596.478 131.298Z" fill="#FFC951"/>
<path d="M336.636 278.895L318.659 318.544L306.81 313.51L321.715 271.181L336.636 278.895Z" fill="#595959"/>
<path d="M504.253 342.078L484.821 385.077L473.887 378.066L491.162 336.325L504.253 342.078Z" fill="#595959"/>
<defs>
<linearGradient id="paint0_linear" x1="389.122" y1="388.499" x2="1163.75" y2="1164.06" gradientUnits="userSpaceOnUse">
<stop stop-color="#F46A4F"/>
<stop offset="0.41" stop-color="#F78154"/>
<stop offset="1" stop-color="#FDA95D"/>
</linearGradient>
</defs>
</svg>
