<svg width="370" height="424" viewBox="0 0 370 424" fill="none" xmlns="http://www.w3.org/2000/svg">
<path d="M273.769 215.087C263.743 218.267 253.04 216.9 241.657 210.986C230.275 205.072 217.405 194.942 203.047 180.594C188.695 166.243 178.558 153.373 172.633 141.984C166.709 130.596 165.457 119.776 168.878 109.526C172.293 99.2756 176.279 91.1905 180.836 85.2705C185.393 79.3505 192.91 71.1498 203.387 60.6685C213.86 50.1956 222.06 42.6785 227.986 38.1172C233.912 33.5558 241.657 29.6834 251.221 26.4998C269.892 20.5777 293.809 32.194 322.97 61.3489C351.673 90.0522 362.835 113.514 356.455 131.734C353.263 142.211 349.392 150.413 344.841 156.339C340.29 162.265 332.773 170.456 322.29 180.912C311.804 191.398 303.604 198.914 297.691 203.461C291.777 208.007 283.803 211.883 273.769 215.087Z" fill="#FF4F45"/>
<rect y="54" width="370" height="370" rx="90" fill="url(#paint0_linear)"/>
<circle cx="312" cy="58" r="58" fill="#EFEFE8"/>
<path d="M299.977 50.72V50.842H306.813V50.72C306.813 47.4729 309.327 45.0803 312.745 45.0803C316.017 45.0803 318.336 47.1799 318.336 49.8167C318.336 52.2581 317.238 54.0403 313.673 57.6047L300.392 70.3977V75.3538H326.002V69.4944H310.109V69.3479L318.702 61.0715C322.584 57.2141 325.514 53.9182 325.514 49.5237C325.514 43.6399 320.411 39.343 312.99 39.343C305.299 39.343 299.977 44.0549 299.977 50.72Z" fill="#222A33"/>
<path d="M263.096 52.9095C262.695 55.4384 264.102 57.2992 266.764 57.7218C269.426 58.1443 271.334 56.8157 271.736 54.281C272.138 51.7521 270.735 49.898 268.073 49.4754C265.411 49.0528 263.498 50.3806 263.096 52.9095ZM264.821 53.1832C265.009 51.9969 266.139 51.3813 267.731 51.6339C269.316 51.8856 270.2 52.8209 270.012 54.0072C269.822 55.1994 268.693 55.8092 267.108 55.5575C265.516 55.3048 264.633 54.3696 264.821 53.1832Z" fill="#222A33"/>
<path d="M270.898 41.7937L268.32 40.3177L269.364 38.182L273.863 40.3811L272.494 43.1813L272.451 43.1607C272.239 42.6585 271.711 42.2564 270.898 41.7937ZM273.681 44.7091L275.983 39.9999L277.486 40.7347L278.334 38.9997L275.27 37.5018L274.806 38.451L268.758 35.4939L265.942 41.2525L269.866 43.4778C270.882 44.0594 271.373 44.4567 271.522 45.1694L271.269 45.6862L274.333 47.1841L275.184 45.4439L273.681 44.7091Z" fill="#222A33"/>
<path d="M275.208 26.1268C273.444 27.982 273.547 30.3127 275.5 32.1704C277.453 34.0281 279.778 34.0157 281.547 32.1563C283.311 30.3011 283.208 27.9786 281.255 26.1209C279.302 24.2631 276.973 24.2716 275.208 26.1268ZM276.473 27.3302C277.301 26.4599 278.581 26.5938 279.749 27.7044C280.912 28.8109 281.109 30.0825 280.281 30.9528C279.45 31.8273 278.174 31.6892 277.011 30.5827C275.843 29.4721 275.646 28.2005 276.473 27.3302Z" fill="#222A33"/>
<path d="M291.977 20.2964C291.165 18.9184 289.537 18.6606 287.937 19.6038L286.695 20.3358L286.011 19.1749L289.307 17.2318L288.429 15.7428L283.28 18.7779L287.574 26.0616L290.744 24.1929C292.304 23.2734 292.819 21.7248 291.977 20.2964ZM288.584 23.5411L287.486 21.6785L288.339 21.1756C289.092 20.7323 289.726 20.7934 290.086 21.4042C290.446 22.015 290.19 22.5948 289.448 23.0322L288.584 23.5411Z" fill="#222A33"/>
<path d="M294.254 12.8001L296.591 20.926L298.657 20.3318L297.972 17.9498L299.301 17.5677C301.109 17.048 302.028 15.5583 301.53 13.8239C301.028 12.0782 299.52 11.2863 297.774 11.7882L294.254 12.8001ZM296.776 13.7883L297.683 13.5276C298.55 13.2783 299.199 13.5855 299.442 14.4302C299.686 15.2805 299.299 15.8856 298.421 16.1381L297.526 16.3955L296.776 13.7883Z" fill="#222A33"/>
<path d="M312.32 16.3091L308.678 16.4471L308.613 14.7256L312.038 14.5958L311.978 13.0149L308.553 13.1447L308.489 11.4643L312.131 11.3263L312.066 9.59317L306.275 9.81259L306.595 18.2616L312.386 18.0422L312.32 16.3091Z" fill="#222A33"/>
<path d="M323.709 19.6258L325.607 11.3864L323.517 10.9051L322.772 14.1369L319.489 13.3807L320.234 10.1489L318.138 9.66628L316.24 17.9056L318.336 18.3883L319.1 15.0708L322.383 15.827L321.619 19.1445L323.709 19.6258Z" fill="#222A33"/>
<path d="M332.968 23.6225L334.834 24.6948L339.061 17.3388L337.272 16.3105L331.677 19.0964L331.626 19.0671L334.219 14.5556L332.353 13.4834L328.125 20.8393L329.915 21.8676L335.507 19.0869L335.558 19.1162L332.968 23.6225Z" fill="#222A33"/>
<path d="M343.902 30.266L341.346 27.6674L342.575 26.4596L344.978 28.9036L346.106 27.7943L343.703 25.3503L344.902 24.1712L347.457 26.7698L348.694 25.5537L344.63 21.4219L338.602 27.3503L342.665 31.4821L343.902 30.266Z" fill="#222A33"/>
<path d="M351.51 37.8533L351.983 38.8549C352.34 39.6126 352.222 40.2259 351.665 40.4884C351.093 40.7585 350.476 40.4666 350.141 39.7565C349.776 38.9828 349.899 38.3094 350.469 38.0078L349.594 36.1532C348.127 36.9296 347.734 38.6244 348.592 40.442C349.487 42.3391 351.074 43.2035 352.457 42.5509C353.474 42.0708 353.88 41.0631 353.501 39.972L353.544 39.952C354.116 40.7382 355.087 40.9989 355.962 40.5863C357.212 39.9962 357.499 38.4354 356.674 36.6866C355.819 34.8744 354.313 34.1533 352.803 34.8266L353.638 36.5965C354.247 36.3352 354.862 36.6218 355.197 37.3319C355.53 38.0366 355.398 38.6234 354.858 38.8784C354.317 39.1335 353.755 38.8481 353.435 38.1698L352.962 37.1682L351.51 37.8533Z" fill="#222A33"/>
<path d="M352.691 52.2673L353.08 54.5068L360.882 50.2844L360.435 47.7062L351.666 46.3586L352.039 48.5062L353.951 48.7187L354.421 51.429L352.691 52.2673ZM358.89 49.2341L358.898 49.28L355.865 50.7526L355.537 48.8634L358.89 49.2341Z" fill="#222A33"/>
<path d="M295.956 102.512L299.296 94.7697L297.327 93.9202L295.996 97.0053C295.858 97.0602 295.324 97.237 294.444 96.8573C293.499 96.4499 293.228 95.7219 293.617 94.8205L294.526 92.7118L292.557 91.8623L291.567 94.1588C290.833 95.8596 291.407 97.5076 293.28 98.3155C294.321 98.7645 295.1 98.6552 295.237 98.6187L295.29 98.6418L293.987 101.663L295.956 102.512Z" fill="#222A33"/>
<path d="M307.642 105.133L309.923 105.36L307.928 96.6403L305.303 96.3785L301.626 104.533L303.813 104.751L304.535 102.951L307.295 103.226L307.642 105.133ZM306.37 98.2919L306.417 98.2966L307.028 101.641L305.104 101.449L306.37 98.2919Z" fill="#222A33"/>
<path d="M318.998 105.04C321.073 104.658 322.334 103.127 322.183 101.207L320.126 101.585C320.094 102.479 319.551 103.121 318.68 103.281C317.516 103.495 316.609 102.643 316.309 101.013C316.012 99.3991 316.562 98.279 317.715 98.0669C318.574 97.909 319.338 98.3402 319.676 99.1718L321.727 98.7943C321.212 96.9648 319.42 95.9361 317.392 96.3093C314.914 96.7653 313.655 98.7007 314.155 101.415C314.655 104.135 316.509 105.498 318.998 105.04Z" fill="#222A33"/>
<path d="M333.426 99.9699L335.451 98.9092L329.009 92.7391L326.679 93.9603L328.086 102.768L330.027 101.751L329.642 99.8558L332.092 98.5721L333.426 99.9699ZM328.616 94.9691L328.658 94.9474L331 97.3978L329.293 98.2926L328.616 94.9691Z" fill="#222A33"/>
<path d="M269 65C270.69 75.5706 276.145 84.8846 283.946 91.5235" stroke="#222A33" stroke-width="2"/>
<path d="M354.946 65C353.256 75.5706 347.802 84.8846 340 91.5235" stroke="#222A33" stroke-width="2"/>
<defs>
<linearGradient id="paint0_linear" x1="3.76265e-05" y1="239" x2="369.999" y2="239" gradientUnits="userSpaceOnUse">
<stop stop-color="#F46A4F"/>
<stop offset="0.41" stop-color="#F78154"/>
<stop offset="1" stop-color="#FDA95D"/>
</linearGradient>
</defs>
</svg>
