<svg width="921" height="922" viewBox="0 0 921 922" fill="none" xmlns="http://www.w3.org/2000/svg">
<path d="M344.08 780.179C306.877 774.2 274.854 752.548 248.012 715.225C221.17 677.902 196.386 624.717 173.66 555.672C150.946 486.621 139.311 429.108 138.755 383.133C138.199 337.158 151.664 300.543 179.152 273.286C206.625 246.03 232.423 226.614 256.548 215.036C280.64 203.463 317.914 189.38 368.369 172.787C418.772 156.21 457.124 145.414 483.425 140.401C509.681 135.411 540.695 135.535 576.466 140.771C645.734 151.964 703.444 227.714 749.597 368.021C795.03 506.124 792.841 599.156 743.029 647.118C715.917 675.452 690.297 695.421 666.169 707.025C642.031 718.6 604.76 732.682 554.357 749.271C503.9 765.87 465.548 776.665 439.301 781.657C412.995 786.669 381.255 786.176 344.08 780.179Z" fill="white"/>
<path d="M472.426 578.233L483.446 568.367L485.231 561.785H493.762L502.166 575.167L522.618 607.792L539.355 730.431L460.884 727.004L475.384 598.288L474.879 581.858L472.426 578.233Z" fill="#E6E6E6"/>
<path d="M625.436 663.827C625.562 665.378 628.105 680.726 630.179 680.96C632.885 681.213 630.179 672.376 629.963 670.735C631.185 672.252 632.662 673.546 634.327 674.558C635.752 675.532 640.694 679.355 641.722 678.165C642.75 676.975 639.539 674.161 637.069 671.889C636.293 671.185 634.616 669.671 633.931 668.949C636.744 671.059 644.102 675.857 644.986 673.638C645.87 671.42 637.267 666.749 634.76 665.577C638.133 666.857 646.952 671.817 647.745 669.093C648.142 667.633 639.233 664.152 637.303 663.106C638.908 663.106 646.321 665.396 646.754 663.106C647.277 659.715 635.932 659.733 633.876 659.697C631.82 659.661 624.949 660.22 625.436 664.729" fill="#FFC1B5"/>
<path d="M618.024 660.689L625.833 667.957L635.121 657.948L624.985 649.056L618.024 660.689Z" fill="white"/>
<path d="M628.412 655.279C628.202 655.118 627.939 655.041 627.676 655.063C627.412 655.085 627.166 655.205 626.986 655.399C626.806 655.592 626.704 655.846 626.701 656.111C626.698 656.375 626.793 656.632 626.969 656.83C627.179 656.99 627.442 657.067 627.705 657.045C627.969 657.023 628.215 656.903 628.395 656.709C628.575 656.516 628.677 656.262 628.68 655.997C628.683 655.733 628.587 655.476 628.412 655.279Z" fill="#494949"/>
<path d="M336.784 677.462C335.36 676.362 320.445 666.641 318.623 668.156C316.314 670.248 325.837 674.793 327.424 675.911C325.199 675.765 322.965 676.01 320.823 676.632C318.893 677.065 311.806 678.273 312.004 680.059C312.202 681.844 317.108 681.321 321.022 680.997C322.212 680.888 324.791 680.654 325.927 680.618C321.977 681.375 312.221 683.846 313.393 686.317C314.565 688.788 325.206 685.163 328.127 683.954C324.43 685.758 313.393 689.365 315.088 692.178C315.99 693.639 325.909 688.824 328.236 687.994C326.919 689.311 319.308 693.838 321.022 696.038C323.474 699.104 332.294 689.491 333.899 687.814C335.504 686.137 340.391 679.878 336.207 676.794" fill="#FFC1B5"/>
<path d="M333.52 675.947L351.122 669.887L351.717 683.918L335.54 685.992L333.52 675.947Z" fill="#FFC1B5"/>
<path d="M344.684 686.93L339.039 687.76L336.171 673.278L344.972 671.564L344.684 686.93Z" fill="white"/>
<path d="M496.738 557.095C496.738 557.095 538.381 559.079 629.115 650.986L618.024 663.611C618.024 663.611 589.023 635.35 531.654 606.241C491.688 585.898 496.738 557.095 496.738 557.095Z" fill="#494949"/>
<path fill-rule="evenodd" clip-rule="evenodd" d="M458.247 777.666L459.062 718.149L459.279 715.155L539.355 712.901C539.729 728.508 539.69 742.245 539.39 754.224C529.337 757.54 515.971 761.693 502.541 765.661C497.856 750.344 493.762 740.296 493.762 740.296C491.234 747.458 488.679 758.55 486.372 770.333C475.459 773.408 465.437 776.057 458.247 777.666Z" fill="#333333"/>
<path d="M531.654 606.169C540.515 644.074 543.91 683.052 541.735 721.918C541.735 721.918 500.254 732.397 497.261 684.64C494.267 636.883 496.738 557.095 496.738 557.095L531.654 606.169Z" fill="#494949"/>
<path d="M486.782 572.119L487.269 681.447L495.944 678.508L489.361 572.119L488.604 570.694L486.782 572.119Z" fill="#DF8A44"/>
<path d="M460.325 576.159C460.325 576.159 423.912 657.443 340.86 671.095L344.612 688.661C344.612 688.661 427.573 675.207 458.233 630.336L456.429 721.684C456.429 721.684 493.978 725.724 494.79 700.168C495.601 674.612 475.402 567.267 475.402 567.267L460.325 576.159Z" fill="#494949"/>
<path d="M476.304 560.342L488.694 644.89L466.024 596.701L473.436 589.919L462.976 574.716L476.304 560.342Z" fill="#222A33"/>
<path d="M496.738 557.095L495.944 643.88L510.552 597.35L500.615 584.437L509.019 570.514L496.738 557.095Z" fill="#222A33"/>
<path d="M483.446 568.367L486.782 572.119H489.361L493.762 565.662L488.604 560.342L483.446 568.367Z" fill="#DF8A44"/>
<path d="M496.738 557.095C496.738 557.095 498.343 577.096 495.98 578.738C493.618 580.379 487.233 562.506 487.233 562.506C487.233 562.506 481.823 579.062 479.226 579.603C476.628 580.144 476.304 558.683 476.304 558.683L496.738 557.095Z" fill="white"/>
<path d="M493.762 530.728C493.762 530.728 493.437 552.262 496.738 557.095C494.693 558.728 492.254 559.792 489.666 560.178C487.079 560.564 484.435 560.26 482.003 559.296L487.053 542.812L493.762 530.728Z" fill="#F9CBC2"/>
<path d="M339.291 676.921C339.547 676.887 339.782 676.762 339.953 676.567C340.123 676.373 340.217 676.124 340.217 675.866C340.217 675.607 340.123 675.358 339.953 675.164C339.782 674.97 339.547 674.844 339.291 674.811C339.035 674.844 338.8 674.97 338.63 675.164C338.459 675.358 338.365 675.607 338.365 675.866C338.365 676.124 338.459 676.373 338.63 676.567C338.8 676.762 339.035 676.887 339.291 676.921Z" fill="#494949"/>
<path d="M485.538 448.921C485.538 448.921 506.152 449.191 503.952 495.812C503.952 495.812 503.663 514.983 492.842 517.833L496.269 499.906L491.237 480.086L479.226 460.355L485.538 448.921Z" fill="#DF8A44"/>
<path d="M494.772 500.808C494.772 500.808 507.505 491.664 511.148 498.427C514.791 505.19 495.511 506.561 495.511 506.561L494.772 500.808Z" fill="#F9CBC2"/>
<path d="M426.996 524.921C426.996 524.921 422.631 487.372 428.799 466.054L460.884 454.476L484.438 462.267L496.738 483.296L493.78 492.566L494.718 507.878L489.055 537.599L455.978 544.038L432.28 531.973L426.996 524.921Z" fill="#F9CBC2"/>
<path d="M426.798 522.919C426.798 522.919 426.509 531.395 441.55 522.053C456.591 512.711 461.19 531.071 479.965 524.921C498.74 518.771 491.381 490.78 491.381 490.78H495.078C495.078 490.78 506.783 549.232 467.701 578.251C428.619 607.269 426.798 522.919 426.798 522.919Z" fill="#DF8A44"/>
<path d="M464.743 501.169C464.903 501.436 465.008 501.732 465.053 502.04C465.097 502.349 465.081 502.663 465.004 502.964C464.926 503.266 464.79 503.549 464.603 503.798C464.416 504.047 464.182 504.257 463.914 504.415C462.778 505.118 461.912 504.415 461.226 503.333C461.062 503.073 460.952 502.783 460.901 502.48C460.85 502.178 460.86 501.867 460.931 501.568C461.001 501.27 461.131 500.988 461.312 500.739C461.492 500.491 461.721 500.281 461.984 500.123C463.12 499.437 464.076 500.068 464.743 501.169Z" fill="#333333"/>
<path d="M441.658 502.341C441.505 502.611 441.299 502.849 441.054 503.039C440.808 503.23 440.528 503.371 440.228 503.453C439.928 503.535 439.615 503.557 439.306 503.518C438.998 503.479 438.7 503.379 438.43 503.225C437.276 502.575 437.438 501.421 438.069 500.339C438.214 500.069 438.412 499.832 438.65 499.64C438.889 499.448 439.163 499.306 439.457 499.222C439.751 499.138 440.059 499.114 440.363 499.151C440.667 499.188 440.96 499.285 441.226 499.437C442.38 500.086 442.29 501.223 441.658 502.341Z" fill="#333333"/>
<path d="M475.312 513.342C474.987 514.695 472.426 515.254 469.595 514.551C466.763 513.847 464.761 512.188 465.104 510.817C465.447 509.447 469.27 509.212 472.102 509.916C474.933 510.619 475.655 511.972 475.312 513.342Z" fill="#E89F91"/>
<path d="M430.657 513.541C430.531 512.134 432.785 510.781 435.671 510.529C438.556 510.276 441.081 511.196 441.081 512.603C441.081 514.01 437.637 515.47 434.751 515.723C431.865 515.975 430.783 514.965 430.657 513.541Z" fill="#E89F91"/>
<path d="M464.148 491.862C465.531 492.541 466.974 493.091 468.459 493.504C469.883 493.9 471.506 494.694 472.823 493.666C473.197 493.415 473.463 493.034 473.57 492.597C473.677 492.159 473.616 491.698 473.4 491.303C472.715 489.77 470.911 489.734 469.469 489.5C467.961 489.18 466.428 488.992 464.888 488.941C464.54 488.955 464.206 489.081 463.937 489.301C463.667 489.521 463.476 489.822 463.393 490.16C463.309 490.498 463.338 490.853 463.474 491.173C463.61 491.493 463.847 491.761 464.148 491.935V491.862Z" fill="#DF8A44"/>
<path d="M439.801 489.265C438.099 489.335 436.428 489.734 434.877 490.438C434.45 490.621 434.101 490.95 433.893 491.366C433.685 491.782 433.631 492.258 433.741 492.71C433.852 493.162 434.124 493.557 434.506 493.823C434.888 494.089 435.353 494.206 435.815 494.153C437.62 493.712 439.318 492.915 440.811 491.808C441.054 491.619 441.23 491.356 441.311 491.058C441.392 490.76 441.374 490.445 441.26 490.158C441.146 489.871 440.942 489.629 440.679 489.468C440.416 489.307 440.108 489.236 439.801 489.265Z" fill="#DF8A44"/>
<path d="M452.479 499.131L451.037 518.32C451.037 518.32 449.233 522.468 446.33 521.729C443.426 520.989 448.566 504.036 452.479 499.131Z" fill="#F9CBC2"/>
<path d="M453.562 495.974C450.795 500.625 448.383 505.479 446.348 510.493C445.32 513.27 443.336 518.536 445.103 521.53C446.871 524.524 451.109 520.665 452.317 518.428C452.516 518.031 452.065 517.508 451.668 517.797C450.568 518.609 449.558 520.069 448.331 520.61C444.724 522.179 446.203 515.813 446.816 513.631C448.728 507.645 451.267 501.877 454.391 496.425C454.431 496.32 454.432 496.203 454.394 496.097C454.355 495.991 454.28 495.903 454.181 495.848C454.082 495.793 453.967 495.776 453.857 495.799C453.746 495.822 453.648 495.885 453.58 495.974H453.562Z" fill="#BC6C6C"/>
<path d="M449.071 527.229C449.533 527.754 450.116 528.156 450.771 528.402C451.425 528.647 452.129 528.728 452.822 528.636C453.958 528.528 455.509 528.023 455.888 526.833C455.903 526.78 455.904 526.724 455.89 526.672C455.876 526.619 455.849 526.571 455.81 526.532C455.771 526.493 455.723 526.466 455.67 526.452C455.617 526.438 455.562 526.439 455.509 526.454C454.644 526.962 453.716 527.356 452.75 527.626C451.587 527.718 450.427 527.406 449.468 526.742C449.143 526.526 448.836 526.977 449.071 527.247V527.229Z" fill="#333333"/>
<path d="M491.381 490.78C491.381 490.78 490.443 482.502 485.502 482.142C481.336 481.835 472.318 481.799 471.074 471.501C469.829 461.203 433.2 474.729 422.541 471.844C411.883 468.958 404.813 452.203 421.116 445.999C437.42 439.795 429.232 429.696 450.874 432.473C472.517 435.25 467.521 447.496 484.384 448.705C484.753 448.733 485.12 448.781 485.484 448.849C501.03 451.77 498.758 489.103 496.684 490.708C494.61 492.313 491.381 490.78 491.381 490.78Z" fill="#DF8A44"/>
<path d="M459.531 526.815C459.531 527.644 459.423 528.871 459.964 529.556C460.009 529.597 460.063 529.627 460.121 529.645C460.179 529.663 460.241 529.667 460.301 529.659C460.361 529.65 460.419 529.628 460.47 529.595C460.52 529.562 460.563 529.518 460.595 529.466C460.938 528.672 460.469 527.518 460.289 526.706C460.254 526.627 460.194 526.561 460.118 526.518C460.042 526.476 459.955 526.459 459.869 526.472C459.783 526.484 459.703 526.524 459.642 526.586C459.581 526.648 459.542 526.728 459.531 526.815Z" fill="#AA6D44"/>
<path d="M443.552 525.336C443.474 526.096 443.341 526.849 443.155 527.59C443.155 527.915 443.534 528.005 443.732 527.843C444.023 527.493 444.236 527.085 444.357 526.647C444.479 526.208 444.505 525.749 444.436 525.3C444.436 524.741 443.534 524.723 443.552 525.3V525.336Z" fill="#AA6D44"/>
<path d="M438.466 528.42C438.575 528.852 438.575 529.304 438.466 529.736C438.333 530.077 438.225 530.426 438.142 530.782C438.139 530.847 438.154 530.91 438.185 530.967C438.216 531.024 438.261 531.071 438.316 531.104C438.372 531.137 438.435 531.155 438.499 531.155C438.564 531.156 438.627 531.139 438.683 531.107C439.584 530.548 439.548 529.069 439.278 528.203C439.239 528.11 439.168 528.035 439.077 527.991C438.987 527.947 438.883 527.937 438.786 527.963C438.689 527.99 438.605 528.051 438.549 528.135C438.494 528.219 438.471 528.32 438.484 528.42H438.466Z" fill="#AA6D44"/>
<path d="M432.839 530.963C432.695 531.594 432.551 532.225 432.461 532.874C432.307 533.349 432.307 533.86 432.461 534.335C432.486 534.369 432.518 534.396 432.556 534.415C432.594 534.434 432.635 534.443 432.677 534.443C432.719 534.443 432.76 534.434 432.798 534.415C432.835 534.396 432.868 534.369 432.893 534.335C433.184 533.931 433.335 533.444 433.326 532.946C433.326 532.297 433.489 531.666 433.543 531.017C433.532 530.935 433.496 530.858 433.438 530.799C433.38 530.74 433.305 530.701 433.223 530.689C433.141 530.677 433.058 530.691 432.985 530.731C432.913 530.771 432.855 530.833 432.821 530.908L432.839 530.963Z" fill="#AA6D44"/>
<path d="M438.466 535.796C438.574 536.32 438.574 536.86 438.466 537.383C438.314 537.788 438.223 538.214 438.196 538.646C438.198 538.695 438.214 538.743 438.24 538.785C438.266 538.826 438.303 538.861 438.346 538.884C438.39 538.908 438.439 538.92 438.488 538.919C438.537 538.918 438.586 538.905 438.629 538.88C439.638 538.303 439.53 536.517 439.314 535.562C439.188 535.039 438.412 535.273 438.502 535.796H438.466Z" fill="#AA6D44"/>
<path d="M445.464 533.92C445.229 534.788 445.229 535.703 445.464 536.571C445.486 536.635 445.527 536.69 445.582 536.729C445.637 536.768 445.703 536.789 445.77 536.789C445.838 536.789 445.904 536.768 445.959 536.729C446.013 536.69 446.055 536.635 446.077 536.571C446.232 535.768 446.323 534.954 446.348 534.137C446.348 533.614 445.644 533.397 445.536 533.92H445.464Z" fill="#AA6D44"/>
<path d="M435.905 546.274L436.23 548.204C436.338 548.709 436.338 549.232 436.807 549.539C436.877 549.574 436.958 549.583 437.035 549.563C437.111 549.543 437.178 549.496 437.222 549.431C437.528 548.98 437.222 548.439 437.222 547.952C437.222 547.465 436.915 546.689 436.735 546.058C436.554 545.427 435.887 545.769 435.959 546.274H435.905Z" fill="#AA6D44"/>
<path d="M442.686 543.822C442.861 544.299 442.982 544.796 443.047 545.3C443.034 545.737 443.076 546.173 443.173 546.599C443.191 546.674 443.234 546.741 443.294 546.789C443.355 546.837 443.43 546.864 443.507 546.864C443.584 546.864 443.659 546.837 443.72 546.789C443.78 546.741 443.823 546.674 443.841 546.599C444.034 545.555 443.835 544.476 443.282 543.569C443.243 543.498 443.18 543.443 443.103 543.417C443.027 543.39 442.943 543.392 442.869 543.424C442.794 543.456 442.734 543.514 442.701 543.587C442.667 543.661 442.662 543.744 442.686 543.822Z" fill="#AA6D44"/>
<path d="M437.709 557.745C437.856 558.206 437.977 558.676 438.069 559.152C438.079 559.584 438.184 560.009 438.376 560.396C438.484 560.54 438.737 560.594 438.827 560.396C439.224 559.638 438.701 558.304 438.466 557.546C438.304 557.059 437.546 557.258 437.709 557.745Z" fill="#AA6D44"/>
<path d="M442.921 554.318C443.092 554.835 443.218 555.366 443.3 555.905C443.291 556.356 443.41 556.8 443.642 557.186C443.669 557.22 443.704 557.247 443.743 557.266C443.782 557.284 443.824 557.294 443.868 557.294C443.911 557.294 443.954 557.284 443.993 557.266C444.032 557.247 444.066 557.22 444.093 557.186C444.269 556.752 444.269 556.267 444.093 555.833C444 555.258 443.861 554.691 443.678 554.138C443.498 553.633 442.704 553.849 442.867 554.372L442.921 554.318Z" fill="#AA6D44"/>
<path d="M451.199 540.215C451.1 540.812 451.1 541.421 451.199 542.018C451.215 542.08 451.251 542.135 451.302 542.175C451.352 542.214 451.414 542.235 451.479 542.235C451.543 542.235 451.605 542.214 451.655 542.175C451.706 542.135 451.742 542.08 451.758 542.018C451.857 541.421 451.857 540.812 451.758 540.215C451.74 540.139 451.698 540.072 451.637 540.024C451.577 539.976 451.502 539.95 451.424 539.95C451.347 539.95 451.272 539.976 451.212 540.024C451.151 540.072 451.108 540.139 451.091 540.215H451.199Z" fill="#AA6D44"/>
<path d="M460.036 536.698C460.261 537.186 460.39 537.712 460.415 538.249C460.37 538.686 460.37 539.128 460.415 539.565C460.433 539.629 460.468 539.686 460.515 539.732C460.562 539.777 460.621 539.81 460.684 539.826C460.748 539.843 460.815 539.842 460.878 539.825C460.942 539.808 461 539.774 461.046 539.728C461.84 538.844 461.263 537.167 460.74 536.283C460.676 536.209 460.589 536.16 460.493 536.144C460.397 536.128 460.298 536.147 460.214 536.196C460.131 536.246 460.067 536.323 460.034 536.415C460.002 536.506 460.002 536.607 460.036 536.698Z" fill="#AA6D44"/>
<path d="M450.153 550.909C450.153 551.649 449.9 553.218 450.532 553.741C450.56 553.775 450.596 553.803 450.637 553.821C450.677 553.84 450.721 553.85 450.766 553.85C450.811 553.85 450.855 553.84 450.895 553.821C450.936 553.803 450.972 553.775 451.001 553.741C451.144 553.376 451.144 552.97 451.001 552.605C450.925 552.06 450.877 551.513 450.856 550.964C450.837 550.875 450.788 550.796 450.718 550.739C450.647 550.682 450.559 550.651 450.469 550.651C450.378 550.651 450.29 550.682 450.22 550.739C450.149 550.796 450.1 550.875 450.081 550.964L450.153 550.909Z" fill="#AA6D44"/>
<path d="M457.692 548.24C457.801 549.03 457.958 549.813 458.161 550.585C458.188 550.63 458.226 550.667 458.272 550.692C458.318 550.718 458.37 550.731 458.422 550.731C458.475 550.731 458.526 550.718 458.572 550.692C458.618 550.667 458.656 550.63 458.684 550.585C458.926 549.735 458.855 548.826 458.485 548.024C458.323 547.537 457.547 547.735 457.692 548.24Z" fill="#AA6D44"/>
<path d="M440.324 567.267C440.525 567.682 440.683 568.118 440.793 568.566C440.833 568.945 440.931 569.316 441.081 569.666C441.112 569.714 441.155 569.754 441.205 569.782C441.256 569.809 441.312 569.824 441.37 569.824C441.427 569.824 441.484 569.809 441.534 569.782C441.585 569.754 441.627 569.714 441.658 569.666C441.856 568.676 441.662 567.648 441.117 566.798C440.865 566.275 440.089 566.798 440.324 567.267Z" fill="#AA6D44"/>
<path d="M448.223 563.209C448.088 563.943 448.088 564.694 448.223 565.428C448.245 565.491 448.287 565.546 448.342 565.586C448.397 565.625 448.462 565.646 448.53 565.646C448.597 565.646 448.663 565.625 448.718 565.586C448.773 565.546 448.814 565.491 448.836 565.428C448.972 564.694 448.972 563.943 448.836 563.209C448.836 563.114 448.798 563.022 448.731 562.954C448.663 562.887 448.571 562.849 448.476 562.849C448.38 562.849 448.288 562.887 448.221 562.954C448.153 563.022 448.115 563.114 448.115 563.209H448.223Z" fill="#AA6D44"/>
<path d="M444.941 570.045C445.019 570.552 445.061 571.064 445.067 571.578C445.018 571.967 445.061 572.362 445.193 572.732C445.283 572.948 445.626 572.912 445.752 572.732C446.058 571.794 446.058 570.784 445.752 569.846C445.644 569.359 444.959 569.576 445.031 570.045H444.941Z" fill="#AA6D44"/>
<path d="M449.071 577.259C449.071 577.728 449.233 578.215 449.305 578.684C449.302 578.841 449.337 578.996 449.406 579.137C449.475 579.278 449.576 579.401 449.702 579.495C449.75 579.535 449.811 579.556 449.873 579.556C449.936 579.556 449.996 579.535 450.045 579.495C450.279 579.189 450.189 578.9 450.045 578.539C449.9 578.179 449.882 577.601 449.81 577.133C449.738 576.664 448.927 576.826 448.999 577.349L449.071 577.259Z" fill="#AA6D44"/>
<path d="M454.103 559.44C454.103 560.017 453.85 561.045 454.373 561.424C454.407 561.441 454.444 561.45 454.481 561.45C454.519 561.45 454.556 561.441 454.59 561.424C455.131 561.045 454.878 560.017 454.86 559.44C454.86 559.34 454.82 559.243 454.749 559.172C454.678 559.101 454.582 559.061 454.481 559.061C454.381 559.061 454.285 559.101 454.214 559.172C454.143 559.243 454.103 559.34 454.103 559.44Z" fill="#AA6D44"/>
<path d="M453.76 569.774C453.702 570.51 453.744 571.25 453.886 571.975C453.907 572.03 453.944 572.077 453.992 572.111C454.04 572.145 454.098 572.163 454.157 572.163C454.216 572.163 454.273 572.145 454.321 572.111C454.37 572.077 454.407 572.03 454.427 571.975C454.545 571.247 454.563 570.507 454.481 569.774C454.481 569.669 454.44 569.568 454.365 569.494C454.291 569.419 454.19 569.377 454.085 569.377C453.979 569.377 453.878 569.419 453.804 569.494C453.73 569.568 453.688 569.669 453.688 569.774H453.76Z" fill="#AA6D44"/>
<path d="M459.495 576.159C459.434 576.94 459.532 577.725 459.784 578.467C459.812 578.524 459.856 578.572 459.91 578.605C459.964 578.639 460.027 578.657 460.09 578.657C460.154 578.657 460.216 578.639 460.271 578.605C460.325 578.572 460.368 578.524 460.397 578.467C460.55 577.729 460.55 576.968 460.397 576.231C460.397 575.708 459.531 575.69 459.567 576.231L459.495 576.159Z" fill="#AA6D44"/>
<path d="M459.892 561.568C459.763 562.34 459.819 563.131 460.054 563.877C460.083 563.925 460.124 563.966 460.173 563.994C460.222 564.022 460.277 564.036 460.334 564.036C460.39 564.036 460.446 564.022 460.495 563.994C460.544 563.966 460.585 563.925 460.613 563.877C460.849 563.131 460.904 562.34 460.776 561.568C460.755 561.466 460.7 561.375 460.619 561.309C460.539 561.243 460.438 561.207 460.334 561.207C460.23 561.207 460.129 561.243 460.048 561.309C459.968 561.375 459.913 561.466 459.892 561.568Z" fill="#AA6D44"/>
<path d="M467.503 567.754C467.633 568.213 467.712 568.685 467.737 569.161C467.707 569.553 467.763 569.947 467.9 570.315C467.936 570.379 467.988 570.432 468.052 570.469C468.115 570.506 468.187 570.525 468.26 570.525C468.334 570.525 468.406 570.506 468.469 570.469C468.532 570.432 468.585 570.379 468.621 570.315C469.09 569.558 468.621 568.277 468.314 567.538C468.008 566.798 467.34 567.231 467.503 567.754Z" fill="#AA6D44"/>
<path d="M465.555 553.056C465.555 553.633 465.555 554.444 465.952 554.859C465.979 554.89 466.012 554.914 466.049 554.931C466.087 554.948 466.127 554.957 466.168 554.957C466.209 554.957 466.249 554.948 466.287 554.931C466.324 554.914 466.357 554.89 466.384 554.859C466.691 554.372 466.384 553.633 466.384 553.056C466.384 552.479 465.501 552.515 465.555 553.056Z" fill="#AA6D44"/>
<path d="M474.663 559.115C474.724 559.599 474.688 560.089 474.554 560.558C474.428 560.937 474.14 561.316 474.194 561.73C474.192 561.775 474.201 561.82 474.22 561.86C474.239 561.901 474.267 561.937 474.302 561.965C474.337 561.993 474.378 562.012 474.422 562.022C474.466 562.031 474.511 562.03 474.554 562.019C475.6 561.785 475.727 559.945 475.619 559.115C475.51 558.286 474.591 558.502 474.663 559.115Z" fill="#AA6D44"/>
<path d="M466.348 545.3C466.511 545.95 466.547 546.851 467.106 547.266C467.151 547.293 467.201 547.309 467.254 547.314C467.306 547.318 467.358 547.31 467.407 547.291C467.456 547.272 467.5 547.242 467.535 547.203C467.57 547.164 467.596 547.118 467.611 547.068C467.845 546.473 467.395 545.643 467.232 545.048C467.182 544.952 467.101 544.876 467.002 544.833C466.902 544.79 466.791 544.783 466.687 544.813C466.583 544.843 466.493 544.907 466.431 544.996C466.369 545.085 466.34 545.193 466.348 545.3Z" fill="#AA6D44"/>
<path d="M471.362 545.625C471.282 546.448 471.445 547.275 471.831 548.006C472.012 548.24 472.354 548.006 472.426 547.862C472.521 547.099 472.402 546.325 472.084 545.625C472.072 545.53 472.022 545.443 471.946 545.383C471.87 545.324 471.774 545.298 471.678 545.31C471.582 545.322 471.495 545.371 471.436 545.447C471.377 545.523 471.35 545.62 471.362 545.715V545.625Z" fill="#AA6D44"/>
<path d="M479.424 552.551C479.424 553.164 479.424 553.759 479.298 554.354C479.171 554.949 479.117 555.364 479.514 555.707C479.569 555.746 479.636 555.768 479.703 555.768C479.771 555.768 479.838 555.746 479.893 555.707C480.344 555.382 480.254 554.931 480.272 554.408C480.29 553.885 480.272 553.128 480.272 552.478C480.272 551.829 479.37 551.883 479.334 552.478L479.424 552.551Z" fill="#AA6D44"/>
<path d="M472.751 535.832C472.672 536.434 472.703 537.045 472.841 537.636C472.859 537.711 472.901 537.778 472.962 537.826C473.022 537.874 473.097 537.9 473.175 537.9C473.252 537.9 473.327 537.874 473.388 537.826C473.448 537.778 473.491 537.711 473.508 537.636C473.636 537.041 473.636 536.427 473.508 535.832C473.488 535.735 473.435 535.647 473.358 535.584C473.281 535.521 473.184 535.487 473.085 535.487C472.985 535.487 472.889 535.521 472.811 535.584C472.734 535.647 472.681 535.735 472.661 535.832H472.751Z" fill="#AA6D44"/>
<path d="M450.532 533.379C450.489 533.806 450.539 534.236 450.676 534.642C450.696 534.68 450.726 534.711 450.762 534.733C450.799 534.755 450.841 534.767 450.883 534.767C450.926 534.767 450.968 534.755 451.004 534.733C451.041 534.711 451.071 534.68 451.091 534.642C451.223 534.235 451.266 533.804 451.217 533.379C451.217 533.288 451.181 533.201 451.117 533.137C451.052 533.073 450.965 533.037 450.874 533.037C450.783 533.037 450.696 533.073 450.632 533.137C450.568 533.201 450.532 533.288 450.532 533.379Z" fill="#AA6D44"/>
<path d="M451.307 523.207C451.307 523.748 451.109 524.452 451.506 524.867C451.529 524.894 451.558 524.915 451.591 524.93C451.624 524.945 451.659 524.952 451.695 524.952C451.731 524.952 451.766 524.945 451.799 524.93C451.832 524.915 451.861 524.894 451.884 524.867C452.299 524.452 452.119 523.748 452.083 523.207C452.064 523.119 452.015 523.04 451.944 522.983C451.873 522.926 451.786 522.895 451.695 522.895C451.604 522.895 451.516 522.926 451.446 522.983C451.375 523.04 451.326 523.119 451.307 523.207Z" fill="#AA6D44"/>
<path d="M467.106 531.828C467.16 532.611 467.395 533.37 467.791 534.047C467.822 534.076 467.861 534.097 467.902 534.108C467.944 534.119 467.987 534.118 468.029 534.108C468.07 534.097 468.108 534.076 468.139 534.046C468.17 534.016 468.193 533.979 468.206 533.938C468.265 533.151 468.141 532.361 467.845 531.63C467.737 531.161 466.998 531.359 467.106 531.828Z" fill="#AA6D44"/>
<path d="M477.927 528.943C477.963 529.339 477.963 529.737 477.927 530.133C477.871 530.486 477.871 530.845 477.927 531.197C477.953 531.259 477.997 531.312 478.053 531.349C478.109 531.386 478.175 531.406 478.243 531.406C478.31 531.406 478.376 531.386 478.432 531.349C478.488 531.312 478.532 531.259 478.558 531.197C478.911 530.475 479.001 529.652 478.811 528.871C478.811 528.33 477.873 528.312 477.927 528.871V528.943Z" fill="#AA6D44"/>
<path d="M480.524 539.511C480.362 540.197 480.109 541.315 480.722 541.928C480.758 541.965 480.803 541.992 480.852 542.006C480.901 542.019 480.953 542.02 481.003 542.007C481.052 541.994 481.098 541.969 481.134 541.932C481.17 541.896 481.196 541.851 481.209 541.802C481.281 541.499 481.281 541.184 481.209 540.882C481.146 540.488 481.146 540.086 481.209 539.692C481.209 539.259 480.65 539.06 480.524 539.511Z" fill="#AA6D44"/>
<path d="M487.684 538.411C487.864 538.789 487.991 539.189 488.063 539.601C488.089 539.978 488.143 540.351 488.225 540.72C488.333 541.008 488.784 541.134 488.928 540.81C489.054 540.324 489.08 539.819 489.006 539.323C488.931 538.827 488.758 538.351 488.496 537.924C488.243 537.383 487.413 537.924 487.684 538.411Z" fill="#AA6D44"/>
<path d="M485.808 529.033C485.867 529.558 486.013 530.071 486.241 530.548C486.273 530.592 486.318 530.625 486.369 530.643C486.42 530.661 486.475 530.664 486.528 530.65C486.58 530.637 486.627 530.607 486.663 530.567C486.699 530.526 486.721 530.475 486.728 530.422C486.725 529.889 486.64 529.36 486.476 528.853C486.367 528.42 485.718 528.6 485.808 529.033Z" fill="#AA6D44"/>
<path d="M491.471 522.991C491.461 523.847 491.633 524.696 491.976 525.48C492.001 525.534 492.04 525.579 492.089 525.612C492.139 525.644 492.197 525.661 492.256 525.661C492.315 525.661 492.373 525.644 492.422 525.612C492.472 525.579 492.511 525.534 492.535 525.48C492.626 525.088 492.626 524.681 492.535 524.29L492.319 522.829C492.319 522.288 491.417 522.522 491.489 523.063L491.471 522.991Z" fill="#AA6D44"/>
<path d="M485.718 547.753C485.82 548.398 486.06 549.013 486.422 549.557C486.457 549.594 486.502 549.621 486.551 549.634C486.6 549.648 486.652 549.649 486.702 549.636C486.751 549.623 486.797 549.597 486.833 549.561C486.869 549.525 486.895 549.48 486.908 549.431C486.931 548.745 486.808 548.063 486.548 547.429C486.509 547.328 486.434 547.245 486.338 547.197C486.241 547.148 486.13 547.138 486.026 547.167C485.922 547.197 485.833 547.264 485.776 547.355C485.719 547.447 485.698 547.557 485.718 547.663V547.753Z" fill="#AA6D44"/>
<path d="M492.788 514.352C492.772 514.873 492.821 515.394 492.932 515.903C492.952 515.954 492.986 515.998 493.032 516.029C493.077 516.06 493.13 516.077 493.185 516.077C493.239 516.077 493.293 516.06 493.338 516.029C493.383 515.998 493.418 515.954 493.437 515.903C493.549 515.394 493.597 514.873 493.581 514.352C493.581 514.247 493.54 514.146 493.465 514.072C493.391 513.997 493.29 513.955 493.185 513.955C493.079 513.955 492.979 513.997 492.904 514.072C492.83 514.146 492.788 514.247 492.788 514.352Z" fill="#AA6D44"/>
<path d="M494.159 504.848C494.181 505.243 494.138 505.639 494.032 506.02C493.926 506.305 493.926 506.619 494.032 506.904C494.032 507.03 494.249 507.174 494.411 507.102C495.205 506.814 495.151 505.533 495.06 504.848C494.97 504.162 494.213 504.307 494.249 504.848H494.159Z" fill="#AA6D44"/>
<path d="M493.383 495.614C493.399 496.374 493.57 497.123 493.888 497.814C493.926 497.876 493.982 497.926 494.048 497.957C494.114 497.989 494.188 498 494.26 497.991C494.332 497.981 494.401 497.951 494.456 497.904C494.512 497.856 494.552 497.794 494.573 497.724C494.644 496.932 494.552 496.134 494.303 495.379C494.195 494.766 493.293 495.037 493.383 495.614Z" fill="#AA6D44"/>
<path d="M418.573 454.584C419.98 458.696 421.585 461.798 425.788 463.241C432.081 465.19 438.756 465.567 445.229 464.341C453.219 463.115 462.814 459.742 470.803 462.646C477.151 464.954 477.368 471.88 483.428 474.332C483.77 474.459 483.987 473.918 483.68 473.737C479.875 471.645 479.406 468.922 477.404 465.603C476.627 464.253 475.439 463.185 474.013 462.556C469.721 460.337 464.166 460.373 459.585 460.752C446.726 461.978 425.932 469.986 419.133 454.313C419.006 454.043 418.573 454.223 418.664 454.512L418.573 454.584Z" fill="#AA6D44"/>
<path d="M427.663 448.542C435.274 458.101 445.698 457.127 456.79 455.919C465.357 454.981 473.021 455.143 478.829 462.375C479.752 463.785 481.004 464.949 482.478 465.766C483.952 466.583 485.602 467.029 487.287 467.064C487.63 467.064 487.684 466.559 487.287 466.469C483.338 465.477 481.534 462.952 478.775 460.121C477.872 459.032 476.829 458.068 475.673 457.253C471.974 455.149 467.748 454.153 463.499 454.386C450.874 454.386 437.691 459.49 428.15 448.001C427.825 447.604 427.302 448.164 427.609 448.542H427.663Z" fill="#AA6D44"/>
<path d="M438.755 440.084C445.428 445.494 455.221 442.987 462.976 445.873C467.755 447.677 470.731 450.941 474.807 453.628C478.478 455.994 482.619 457.533 486.945 458.137C487.594 458.137 487.882 457.253 487.215 457.127C481.826 456.25 476.759 453.981 472.516 450.544C470.363 448.553 467.933 446.882 465.302 445.585C462.358 444.267 459.253 443.34 456.068 442.825C450.171 441.941 444.418 443.132 439.133 439.525C438.845 439.326 438.466 439.813 438.755 440.048V440.084Z" fill="#AA6D44"/>
<path d="M487.504 476.857C495.944 478.192 496.665 485.875 497.477 492.872C497.477 493.143 497.928 493.251 497.982 492.872C499.659 485.658 495.547 476.641 487.594 476.1C487.503 476.1 487.416 476.136 487.352 476.2C487.287 476.264 487.251 476.352 487.251 476.443C487.251 476.533 487.287 476.621 487.352 476.685C487.416 476.749 487.503 476.785 487.594 476.785L487.504 476.857Z" fill="#AA6D44"/>
<path d="M489.56 470.725C492.274 471.756 494.699 473.426 496.629 475.595C498.703 478.156 498.83 481.005 499.082 484.179C499.099 484.25 499.14 484.313 499.197 484.358C499.254 484.404 499.325 484.428 499.398 484.428C499.471 484.428 499.541 484.404 499.599 484.358C499.656 484.313 499.696 484.25 499.713 484.179C500.435 476.965 496.287 472.547 489.83 470.058C489.451 469.896 489.163 470.563 489.56 470.725Z" fill="#AA6D44"/>
<path d="M492.355 463.655C494.144 464.59 495.77 465.808 497.17 467.262C498.435 468.739 499.265 470.537 499.569 472.457C499.584 472.514 499.618 472.565 499.666 472.602C499.713 472.638 499.771 472.658 499.831 472.658C499.89 472.658 499.948 472.638 499.996 472.602C500.043 472.565 500.077 472.514 500.092 472.457C501.138 468.02 496.07 464.738 492.878 462.988C492.792 462.959 492.698 462.96 492.613 462.992C492.528 463.023 492.456 463.083 492.409 463.161C492.363 463.239 492.345 463.331 492.358 463.421C492.371 463.511 492.414 463.594 492.481 463.655H492.355Z" fill="#AA6D44"/>
<path d="M506.67 789.281C505.936 792.508 503.839 795.213 500.379 797.395C496.918 799.577 492.059 801.505 485.804 803.181C479.544 804.858 474.37 805.618 470.281 805.46C466.192 805.302 463.008 803.96 460.73 801.433C458.456 798.908 456.87 796.564 455.97 794.401C455.071 792.238 454.021 788.914 452.82 784.428C451.618 779.945 450.866 776.541 450.562 774.217C450.258 771.893 450.436 769.18 451.097 766.077C452.467 760.066 459.51 755.356 472.228 751.949C484.748 748.594 493.005 749.203 496.998 753.778C499.37 756.281 501.006 758.613 501.908 760.771C502.809 762.929 503.859 766.254 505.058 770.744C506.261 775.232 507.013 778.636 507.316 780.955C507.618 783.274 507.403 786.049 506.67 789.281Z" fill="#FFDEC4"/>
<path d="M472.514 784.312C476.059 784.312 478.207 781.471 478.207 776.92C478.207 772.369 476.039 769.586 472.514 769.586C468.988 769.586 466.811 772.379 466.811 776.93C466.811 781.49 468.969 784.312 472.514 784.312ZM472.514 781.949C470.834 781.949 469.809 780.133 469.809 776.93C469.809 773.756 470.854 771.949 472.514 771.949C474.184 771.949 475.209 773.746 475.209 776.93C475.209 780.143 474.193 781.949 472.514 781.949ZM479.76 774.146V774.195H482.494V774.146C482.494 772.848 483.5 771.891 484.867 771.891C486.176 771.891 487.104 772.73 487.104 773.785C487.104 774.762 486.664 775.475 485.238 776.9L479.926 782.018V784H490.17V781.656H483.812V781.598L487.25 778.287C488.803 776.744 489.975 775.426 489.975 773.668C489.975 771.314 487.934 769.596 484.965 769.596C481.889 769.596 479.76 771.48 479.76 774.146Z" fill="#DF8A44"/>
<path d="M417.797 839H419.188V827.727H417.797L411.703 836.727H411.578V827.727H410.188V839H411.578L417.672 830.031H417.797V839ZM426.664 839H428.008V830.875H426.664V834.227H422.656V830.875H421.312V839H422.656V835.344H426.664V839ZM433.211 831.977C434.062 831.977 434.523 832.375 434.523 833.094C434.523 833.875 434.031 834.25 433.008 834.25H431.266V831.977H433.211ZM433.117 835.344C434.305 835.344 434.875 835.766 434.875 836.633C434.875 837.453 434.344 837.898 433.359 837.898H431.266V835.344H433.117ZM429.922 839H433.422C435.148 839 436.211 838.102 436.211 836.664C436.211 835.648 435.539 834.906 434.516 834.766V834.703C435.266 834.547 435.852 833.781 435.852 832.953C435.852 831.664 434.922 830.875 433.398 830.875H429.922V839ZM441.031 831.914C442.312 831.914 443.164 832.883 443.195 834.242H438.781C438.867 832.891 439.758 831.914 441.031 831.914ZM443.164 836.672C442.938 837.438 442.18 837.961 441.148 837.961C439.688 837.961 438.773 836.938 438.773 835.383V835.305H444.602V834.789C444.602 832.328 443.25 830.734 441.055 830.734C438.812 830.734 437.375 832.445 437.375 834.969C437.375 837.523 438.789 839.141 441.117 839.141C442.891 839.141 444.266 838.094 444.5 836.672H443.164ZM452.836 833.375C452.594 831.992 451.398 830.734 449.438 830.734C447.188 830.734 445.719 832.406 445.719 834.938C445.719 837.523 447.195 839.141 449.453 839.141C451.281 839.141 452.586 838.055 452.852 836.516H451.508C451.25 837.414 450.539 837.945 449.461 837.945C448.047 837.945 447.102 836.797 447.102 834.938C447.102 833.125 448.031 831.93 449.445 831.93C450.594 831.93 451.258 832.594 451.492 833.375H452.836ZM460.055 830.875H453.461V831.992H456.086V839H457.43V831.992H460.055V830.875ZM464.531 839.141C466.773 839.141 468.289 837.523 468.289 834.938C468.289 832.344 466.773 830.734 464.531 830.734C462.281 830.734 460.766 832.344 460.766 834.938C460.766 837.523 462.281 839.141 464.531 839.141ZM464.531 837.945C463.094 837.945 462.148 836.852 462.148 834.938C462.148 833.023 463.094 831.93 464.531 831.93C465.969 831.93 466.906 833.023 466.906 834.938C466.906 836.852 465.969 837.945 464.531 837.945ZM473.75 830.734C472.57 830.734 471.625 831.336 471.125 832.25H471.094V830.875H469.805V841.711H471.164V837.68H471.195C471.68 838.57 472.617 839.141 473.781 839.141C475.828 839.141 477.227 837.484 477.227 834.938C477.227 832.391 475.82 830.734 473.75 830.734ZM473.484 837.945C472.094 837.945 471.156 836.75 471.156 834.938C471.156 833.133 472.094 831.93 473.484 831.93C474.93 831.93 475.836 833.102 475.836 834.938C475.836 836.781 474.93 837.945 473.484 837.945ZM485.305 831.977C486.156 831.977 486.617 832.375 486.617 833.094C486.617 833.875 486.125 834.25 485.102 834.25H483.359V831.977H485.305ZM485.211 835.344C486.398 835.344 486.969 835.766 486.969 836.633C486.969 837.453 486.438 837.898 485.453 837.898H483.359V835.344H485.211ZM482.016 839H485.516C487.242 839 488.305 838.102 488.305 836.664C488.305 835.648 487.633 834.906 486.609 834.766V834.703C487.359 834.547 487.945 833.781 487.945 832.953C487.945 831.664 487.016 830.875 485.492 830.875H482.016V839ZM496.812 839H498.156V830.875H496.812V839ZM492.719 834.586C493.766 834.586 494.453 835.234 494.453 836.234C494.453 837.227 493.773 837.883 492.719 837.883H491.203V834.586H492.719ZM489.859 839H492.742C494.602 839 495.797 837.93 495.797 836.234C495.797 834.539 494.602 833.469 492.742 833.469H491.203V830.875H489.859V839ZM503.547 839.141C505.898 839.141 507.344 837.57 507.344 835.016C507.344 832.594 505.945 831.047 503.75 831.047C502.5 831.047 501.484 831.547 500.953 832.508H500.891C501.219 830.078 501.891 829.086 504.148 829L504.75 828.977C505.688 828.938 506.547 828.734 506.805 828.5V827.312C506.344 827.555 505.469 827.711 504.688 827.75L504.086 827.773C500.93 827.891 499.742 829.758 499.742 834.242C499.742 837.469 501.055 839.141 503.547 839.141ZM503.547 837.938C502.016 837.938 501.133 836.883 501.133 835.016C501.133 833.242 502.016 832.234 503.547 832.234C505.07 832.234 505.953 833.242 505.953 835.016C505.953 836.883 505.07 837.938 503.547 837.938ZM510.203 839L514.266 832.953H514.328V839H515.672V830.875H514.328L510.266 836.922H510.203V830.875H508.859V839H510.203ZM521.531 830.734C520.352 830.734 519.406 831.336 518.906 832.25H518.875V830.875H517.586V841.711H518.945V837.68H518.977C519.461 838.57 520.398 839.141 521.562 839.141C523.609 839.141 525.008 837.484 525.008 834.938C525.008 832.391 523.602 830.734 521.531 830.734ZM521.266 837.945C519.875 837.945 518.938 836.75 518.938 834.938C518.938 833.133 519.875 831.93 521.266 831.93C522.711 831.93 523.617 833.102 523.617 834.938C523.617 836.781 522.711 837.945 521.266 837.945ZM529.203 837.984C528.227 837.984 527.578 837.477 527.578 836.703C527.578 835.938 528.203 835.453 529.297 835.383L531.469 835.25V835.914C531.469 837.086 530.484 837.984 529.203 837.984ZM528.898 839.141C529.992 839.141 531.023 838.531 531.508 837.602H531.539V839H532.828V833.383C532.828 831.766 531.625 830.734 529.719 830.734C527.797 830.734 526.594 831.812 526.5 833.219H527.812C527.984 832.422 528.641 831.93 529.688 831.93C530.812 831.93 531.469 832.523 531.469 833.516V834.195L529.141 834.328C527.266 834.438 526.195 835.312 526.195 836.703C526.195 838.164 527.281 839.141 528.898 839.141ZM537.969 831.914C539.25 831.914 540.102 832.883 540.133 834.242H535.719C535.805 832.891 536.695 831.914 537.969 831.914ZM540.102 836.672C539.875 837.438 539.117 837.961 538.086 837.961C536.625 837.961 535.711 836.938 535.711 835.383V835.305H541.539V834.789C541.539 832.328 540.188 830.734 537.992 830.734C535.75 830.734 534.312 832.445 534.312 834.969C534.312 837.523 535.727 839.141 538.055 839.141C539.828 839.141 541.203 838.094 541.438 836.672H540.102ZM548.68 830.875H542.086V831.992H544.711V839H546.055V831.992H548.68V830.875ZM403.453 858H404.805V849.875H398.18V858H399.523V850.992H403.453V858ZM409.977 850.914C411.258 850.914 412.109 851.883 412.141 853.242H407.727C407.812 851.891 408.703 850.914 409.977 850.914ZM412.109 855.672C411.883 856.438 411.125 856.961 410.094 856.961C408.633 856.961 407.719 855.938 407.719 854.383V854.305H413.547V853.789C413.547 851.328 412.195 849.734 410 849.734C407.758 849.734 406.32 851.445 406.32 853.969C406.32 856.523 407.734 858.141 410.062 858.141C411.836 858.141 413.211 857.094 413.445 855.672H412.109ZM419.008 849.734C417.828 849.734 416.883 850.336 416.383 851.25H416.352V849.875H415.062V860.711H416.422V856.68H416.453C416.938 857.57 417.875 858.141 419.039 858.141C421.086 858.141 422.484 856.484 422.484 853.938C422.484 851.391 421.078 849.734 419.008 849.734ZM418.742 856.945C417.352 856.945 416.414 855.75 416.414 853.938C416.414 852.133 417.352 850.93 418.742 850.93C420.188 850.93 421.094 852.102 421.094 853.938C421.094 855.781 420.188 856.945 418.742 856.945ZM430.719 852.375C430.477 850.992 429.281 849.734 427.32 849.734C425.07 849.734 423.602 851.406 423.602 853.938C423.602 856.523 425.078 858.141 427.336 858.141C429.164 858.141 430.469 857.055 430.734 855.516H429.391C429.133 856.414 428.422 856.945 427.344 856.945C425.93 856.945 424.984 855.797 424.984 853.938C424.984 852.125 425.914 850.93 427.328 850.93C428.477 850.93 429.141 851.594 429.375 852.375H430.719ZM437.422 858H438.773V849.875H432.148V858H433.492V850.992H437.422V858ZM443.945 850.914C445.227 850.914 446.078 851.883 446.109 853.242H441.695C441.781 851.891 442.672 850.914 443.945 850.914ZM446.078 855.672C445.852 856.438 445.094 856.961 444.062 856.961C442.602 856.961 441.688 855.938 441.688 854.383V854.305H447.516V853.789C447.516 851.328 446.164 849.734 443.969 849.734C441.727 849.734 440.289 851.445 440.289 853.969C440.289 856.523 441.703 858.141 444.031 858.141C445.805 858.141 447.18 857.094 447.414 855.672H446.078ZM451.781 853.719L455.578 849.875H453.898L450.43 853.469H450.367V849.875H449.023V858H450.367V854.094H450.43L453.938 858H455.688L451.781 853.719ZM462.609 849.875H456.016V850.992H458.641V858H459.984V850.992H462.609V849.875ZM465.211 858L469.273 851.953H469.336V858H470.68V849.875H469.336L465.273 855.922H465.211V849.875H463.867V858H465.211ZM475.875 850.977C476.727 850.977 477.188 851.375 477.188 852.094C477.188 852.875 476.695 853.25 475.672 853.25H473.93V850.977H475.875ZM475.781 854.344C476.969 854.344 477.539 854.766 477.539 855.633C477.539 856.453 477.008 856.898 476.023 856.898H473.93V854.344H475.781ZM472.586 858H476.086C477.812 858 478.875 857.102 478.875 855.664C478.875 854.648 478.203 853.906 477.18 853.766V853.703C477.93 853.547 478.516 852.781 478.516 851.953C478.516 850.664 477.586 849.875 476.062 849.875H472.586V858ZM485.781 858H487.125V849.875H485.781V853.227H481.773V849.875H480.43V858H481.773V854.344H485.781V858ZM495.992 858H497.336V849.875H495.992V858ZM491.898 853.586C492.945 853.586 493.633 854.234 493.633 855.234C493.633 856.227 492.953 856.883 491.898 856.883H490.383V853.586H491.898ZM489.039 858H491.922C493.781 858 494.977 856.93 494.977 855.234C494.977 853.539 493.781 852.469 491.922 852.469H490.383V849.875H489.039V858ZM502.508 850.914C503.789 850.914 504.641 851.883 504.672 853.242H500.258C500.344 851.891 501.234 850.914 502.508 850.914ZM504.641 855.672C504.414 856.438 503.656 856.961 502.625 856.961C501.164 856.961 500.25 855.938 500.25 854.383V854.305H506.078V853.789C506.078 851.328 504.727 849.734 502.531 849.734C500.289 849.734 498.852 851.445 498.852 853.969C498.852 856.523 500.266 858.141 502.594 858.141C504.367 858.141 505.742 857.094 505.977 855.672H504.641ZM516.812 849.875H510.219V850.992H512.844V858H514.188V850.992H516.812V849.875ZM521.289 858.141C523.531 858.141 525.047 856.523 525.047 853.938C525.047 851.344 523.531 849.734 521.289 849.734C519.039 849.734 517.523 851.344 517.523 853.938C517.523 856.523 519.039 858.141 521.289 858.141ZM521.289 856.945C519.852 856.945 518.906 855.852 518.906 853.938C518.906 852.023 519.852 850.93 521.289 850.93C522.727 850.93 523.664 852.023 523.664 853.938C523.664 855.852 522.727 856.945 521.289 856.945ZM529.844 850.977C530.695 850.977 531.156 851.375 531.156 852.094C531.156 852.875 530.664 853.25 529.641 853.25H527.898V850.977H529.844ZM529.75 854.344C530.938 854.344 531.508 854.766 531.508 855.633C531.508 856.453 530.977 856.898 529.992 856.898H527.898V854.344H529.75ZM526.555 858H530.055C531.781 858 532.844 857.102 532.844 855.664C532.844 854.648 532.172 853.906 531.148 853.766V853.703C531.898 853.547 532.484 852.781 532.484 851.953C532.484 850.664 531.555 849.875 530.031 849.875H526.555V858ZM537.086 856.984C536.109 856.984 535.461 856.477 535.461 855.703C535.461 854.938 536.086 854.453 537.18 854.383L539.352 854.25V854.914C539.352 856.086 538.367 856.984 537.086 856.984ZM536.781 858.141C537.875 858.141 538.906 857.531 539.391 856.602H539.422V858H540.711V852.383C540.711 850.766 539.508 849.734 537.602 849.734C535.68 849.734 534.477 850.812 534.383 852.219H535.695C535.867 851.422 536.523 850.93 537.57 850.93C538.695 850.93 539.352 851.523 539.352 852.516V853.195L537.023 853.328C535.148 853.438 534.078 854.312 534.078 855.703C534.078 857.164 535.164 858.141 536.781 858.141ZM546.539 849.734C545.359 849.734 544.414 850.336 543.914 851.25H543.883V849.875H542.594V860.711H543.953V856.68H543.984C544.469 857.57 545.406 858.141 546.57 858.141C548.617 858.141 550.016 856.484 550.016 853.938C550.016 851.391 548.609 849.734 546.539 849.734ZM546.273 856.945C544.883 856.945 543.945 855.75 543.945 853.938C543.945 852.133 544.883 850.93 546.273 850.93C547.719 850.93 548.625 852.102 548.625 853.938C548.625 855.781 547.719 856.945 546.273 856.945ZM558.477 858H559.82V849.875H558.477V858ZM554.383 853.586C555.43 853.586 556.117 854.234 556.117 855.234C556.117 856.227 555.438 856.883 554.383 856.883H552.867V853.586H554.383ZM551.523 858H554.406C556.266 858 557.461 856.93 557.461 855.234C557.461 853.539 556.266 852.469 554.406 852.469H552.867V849.875H551.523V858ZM414.141 877L418.203 870.953H418.266V877H419.609V868.875H418.266L414.203 874.922H414.141V868.875H412.797V877H414.141ZM428.086 869.977C428.938 869.977 429.398 870.375 429.398 871.094C429.398 871.875 428.906 872.25 427.883 872.25H426.141V869.977H428.086ZM427.992 873.344C429.18 873.344 429.75 873.766 429.75 874.633C429.75 875.453 429.219 875.898 428.234 875.898H426.141V873.344H427.992ZM424.797 877H428.297C430.023 877 431.086 876.102 431.086 874.664C431.086 873.648 430.414 872.906 429.391 872.766V872.703C430.141 872.547 430.727 871.781 430.727 870.953C430.727 869.664 429.797 868.875 428.273 868.875H424.797V877ZM435.398 872.719L439.195 868.875H437.516L434.047 872.469H433.984V868.875H432.641V877H433.984V873.094H434.047L437.555 877H439.305L435.398 872.719ZM442.531 873.414L442.781 869.992H445.547V877H446.891V868.875H441.57L441.258 873.383C441.156 874.875 440.852 875.82 440.047 875.82C439.852 875.82 439.703 875.781 439.633 875.758V876.984C439.727 877.023 439.883 877.07 440.117 877.07C441.828 877.07 442.367 875.656 442.531 873.414ZM451.5 875.984C450.523 875.984 449.875 875.477 449.875 874.703C449.875 873.938 450.5 873.453 451.594 873.383L453.766 873.25V873.914C453.766 875.086 452.781 875.984 451.5 875.984ZM451.195 877.141C452.289 877.141 453.32 876.531 453.805 875.602H453.836V877H455.125V871.383C455.125 869.766 453.922 868.734 452.016 868.734C450.094 868.734 448.891 869.812 448.797 871.219H450.109C450.281 870.422 450.938 869.93 451.984 869.93C453.109 869.93 453.766 870.523 453.766 871.516V872.195L451.438 872.328C449.562 872.438 448.492 873.312 448.492 874.703C448.492 876.164 449.578 877.141 451.195 877.141ZM462.391 875.883H458.43V875.82C458.812 875.305 459.023 874.422 459.094 873.414L459.344 869.992H462.391V875.883ZM457.461 879.148V877H463.766V879.148H465.031V875.883H463.742V868.875H458.148L457.836 873.383C457.758 874.477 457.469 875.492 456.875 875.883H456.195V879.148H457.461ZM473.203 877H474.547V868.875H473.203V877ZM469.109 872.586C470.156 872.586 470.844 873.234 470.844 874.234C470.844 875.227 470.164 875.883 469.109 875.883H467.594V872.586H469.109ZM466.25 877H469.133C470.992 877 472.188 875.93 472.188 874.234C472.188 872.539 470.992 871.469 469.133 871.469H467.594V868.875H466.25V877ZM479.742 869.977C480.594 869.977 481.055 870.375 481.055 871.094C481.055 871.875 480.562 872.25 479.539 872.25H477.797V869.977H479.742ZM479.648 873.344C480.836 873.344 481.406 873.766 481.406 874.633C481.406 875.453 480.875 875.898 479.891 875.898H477.797V873.344H479.648ZM476.453 877H479.953C481.68 877 482.742 876.102 482.742 874.664C482.742 873.648 482.07 872.906 481.047 872.766V872.703C481.797 872.547 482.383 871.781 482.383 870.953C482.383 869.664 481.453 868.875 479.93 868.875H476.453V877ZM486.984 875.984C486.008 875.984 485.359 875.477 485.359 874.703C485.359 873.938 485.984 873.453 487.078 873.383L489.25 873.25V873.914C489.25 875.086 488.266 875.984 486.984 875.984ZM486.68 877.141C487.773 877.141 488.805 876.531 489.289 875.602H489.32V877H490.609V871.383C490.609 869.766 489.406 868.734 487.5 868.734C485.578 868.734 484.375 869.812 484.281 871.219H485.594C485.766 870.422 486.422 869.93 487.469 869.93C488.594 869.93 489.25 870.523 489.25 871.516V872.195L486.922 872.328C485.047 872.438 483.977 873.312 483.977 874.703C483.977 876.164 485.062 877.141 486.68 877.141ZM495.75 869.914C497.031 869.914 497.883 870.883 497.914 872.242H493.5C493.586 870.891 494.477 869.914 495.75 869.914ZM497.883 874.672C497.656 875.438 496.898 875.961 495.867 875.961C494.406 875.961 493.492 874.938 493.492 873.383V873.305H499.32V872.789C499.32 870.328 497.969 868.734 495.773 868.734C493.531 868.734 492.094 870.445 492.094 872.969C492.094 875.523 493.508 877.141 495.836 877.141C497.609 877.141 498.984 876.094 499.219 874.672H497.883ZM506.461 868.875H499.867V869.992H502.492V877H503.836V869.992H506.461V868.875ZM514.289 869.977C515.141 869.977 515.602 870.375 515.602 871.094C515.602 871.875 515.109 872.25 514.086 872.25H512.344V869.977H514.289ZM514.195 873.344C515.383 873.344 515.953 873.766 515.953 874.633C515.953 875.453 515.422 875.898 514.438 875.898H512.344V873.344H514.195ZM511 877H514.5C516.227 877 517.289 876.102 517.289 874.664C517.289 873.648 516.617 872.906 515.594 872.766V872.703C516.344 872.547 516.93 871.781 516.93 870.953C516.93 869.664 516 868.875 514.477 868.875H511V877ZM527.477 877H528.82V868.875H527.477V872.227H523.469V868.875H522.125V877H523.469V873.344H527.477V877ZM532.078 877L536.141 870.953H536.203V877H537.547V868.875H536.203L532.141 874.922H532.078V868.875H530.734V877H532.078ZM542.336 873.906L544.281 877H545.789L543.086 872.883L545.828 868.875H544.312L542.383 871.922H542.352L540.398 868.875H538.883L541.602 872.938L538.836 877H540.344L542.305 873.906H542.336ZM460.82 895.883H456.859V895.82C457.242 895.305 457.453 894.422 457.523 893.414L457.773 889.992H460.82V895.883ZM455.891 899.148V897H462.195V899.148H463.461V895.883H462.172V888.875H456.578L456.266 893.383C456.188 894.477 455.898 895.492 455.305 895.883H454.625V899.148H455.891ZM467.945 889.914C469.227 889.914 470.078 890.883 470.109 892.242H465.695C465.781 890.891 466.672 889.914 467.945 889.914ZM470.078 894.672C469.852 895.438 469.094 895.961 468.062 895.961C466.602 895.961 465.688 894.938 465.688 893.383V893.305H471.516V892.789C471.516 890.328 470.164 888.734 467.969 888.734C465.727 888.734 464.289 890.445 464.289 892.969C464.289 895.523 465.703 897.141 468.031 897.141C469.805 897.141 471.18 896.094 471.414 894.672H470.078ZM478.375 897H479.719V888.875H478.375V892.227H474.367V888.875H473.023V897H474.367V893.344H478.375V897ZM484.492 892.586C485.539 892.586 486.227 893.234 486.227 894.234C486.227 895.227 485.547 895.883 484.492 895.883H482.977V892.586H484.492ZM481.633 897H484.516C486.375 897 487.57 895.93 487.57 894.234C487.57 892.539 486.375 891.469 484.516 891.469H482.977V888.875H481.633V897ZM494.281 889.992V888.875H489.055V897H490.398V889.992H494.281ZM497.102 897L501.164 890.953H501.227V897H502.57V888.875H501.227L497.164 894.922H497.102V888.875H495.758V897H497.102Z" fill="#222A33"/>
<path d="M666.612 526.51L646.467 503.26L604.335 539.767L624.48 563.016L666.612 526.51Z" fill="#1AD8B4"/>
<path fill-rule="evenodd" clip-rule="evenodd" d="M614.198 543.867C615.847 542.974 622.824 551.049 621.739 552.572C624.771 553.293 628.163 553.533 629.956 553.164C630.411 551.592 655.26 530.054 656.883 529.833C657.508 528.113 657.758 524.725 657.474 521.617C655.826 522.509 648.849 514.435 649.934 512.911C646.902 512.19 643.51 511.951 641.717 512.32C641.262 513.892 616.413 535.43 614.79 535.651C614.165 537.37 613.918 540.766 614.198 543.867Z" stroke="#0F937A" stroke-width="2"/>
<path d="M630.867 537.29C633.296 540.093 637.536 540.396 640.339 537.968C643.142 535.539 643.445 531.299 641.017 528.496C638.588 525.693 634.347 525.39 631.545 527.818C628.742 530.247 628.439 534.488 630.867 537.29Z" fill="#0E7A65"/>
<path d="M639.183 536.229L638.589 536.744L638.122 536.205C636.735 537.274 635.354 537.306 634.456 536.278L635.66 535.235C636.069 535.647 636.708 535.653 637.294 535.249L635.871 533.607L635.334 533.889C634.115 534.532 633.065 534.417 632.306 533.542C631.412 532.51 631.577 531.203 632.752 530.008L632.253 529.431L632.846 528.916L633.35 529.497C634.62 528.581 635.976 528.615 636.832 529.569L635.661 530.583C635.302 530.194 634.698 530.143 634.192 530.47L635.553 532.04L636.08 531.738C637.362 531.04 638.386 531.133 639.178 532.047C640.104 533.116 639.936 534.427 638.712 535.686L639.183 536.229ZM638.103 533.214C637.749 532.806 637.256 532.798 636.556 533.198L637.891 534.739C638.414 534.227 638.49 533.66 638.103 533.214ZM633.432 532.382C633.753 532.753 634.245 532.768 634.854 532.433L633.595 530.98C633.158 531.403 633.085 531.982 633.432 532.382Z" fill="black"/>
<path d="M639.183 536.229L638.589 536.744L638.122 536.205C636.735 537.274 635.354 537.306 634.456 536.278L635.66 535.235C636.069 535.647 636.708 535.653 637.294 535.249L635.871 533.607L635.334 533.889C634.115 534.532 633.065 534.417 632.306 533.542C631.412 532.51 631.577 531.203 632.752 530.008L632.253 529.431L632.846 528.916L633.35 529.497C634.62 528.581 635.976 528.615 636.832 529.569L635.661 530.583C635.302 530.194 634.698 530.143 634.192 530.47L635.553 532.04L636.08 531.738C637.362 531.04 638.386 531.133 639.178 532.047C640.104 533.116 639.936 534.427 638.712 535.686L639.183 536.229ZM638.103 533.214C637.749 532.806 637.256 532.798 636.556 533.198L637.891 534.739C638.414 534.227 638.49 533.66 638.103 533.214ZM633.432 532.382C633.753 532.753 634.245 532.768 634.854 532.433L633.595 530.98C633.158 531.403 633.085 531.982 633.432 532.382Z" fill="#17CEAF"/>
<path d="M596.544 693.073L576.165 716.117L617.926 753.047L638.305 730.003L596.544 693.073Z" fill="#1AD8B4"/>
<path fill-rule="evenodd" clip-rule="evenodd" d="M620.685 742.728C619.582 741.212 626.662 733.228 628.315 734.101C628.629 731.001 628.417 727.607 627.815 725.879C626.196 725.636 601.559 703.856 601.125 702.276C599.338 701.884 595.946 702.084 592.903 702.777C594.006 704.293 586.926 712.277 585.272 711.404C584.959 714.504 585.17 717.898 585.773 719.626C587.391 719.869 612.029 741.649 612.462 743.229C614.25 743.621 617.648 743.416 620.685 742.728Z" stroke="#0F937A" stroke-width="2"/>
<path d="M611.96 727.076C614.417 724.298 614.156 720.055 611.378 717.598C608.6 715.141 604.356 715.402 601.9 718.18C599.443 720.958 599.704 725.202 602.482 727.658C605.26 730.115 609.503 729.854 611.96 727.076Z" fill="#0E7A65"/>
<path d="M609.808 718.974L610.396 719.495L609.924 720.029C611.168 721.263 611.382 722.627 610.482 723.653L609.288 722.597C609.643 722.138 609.564 721.503 609.086 720.976L607.647 722.603L607.997 723.099C608.796 724.222 608.821 725.278 608.054 726.146C607.15 727.168 605.832 727.178 604.492 726.171L603.986 726.743L603.398 726.223L603.907 725.647C602.831 724.509 602.685 723.161 603.517 722.186L604.677 723.212C604.339 723.619 604.368 724.225 604.76 724.683L606.136 723.126L605.767 722.644C604.905 721.465 604.862 720.438 605.663 719.533C606.6 718.473 607.922 718.466 609.332 719.513L609.808 718.974ZM606.962 720.443C606.604 720.848 606.662 721.338 607.151 721.979L608.501 720.451C607.925 720.001 607.353 720.001 606.962 720.443ZM606.756 725.184C607.08 724.817 607.031 724.326 606.617 723.768L605.344 725.207C605.821 725.585 606.405 725.58 606.756 725.184Z" fill="black"/>
<path d="M609.808 718.974L610.396 719.495L609.924 720.029C611.168 721.263 611.382 722.627 610.482 723.653L609.288 722.597C609.643 722.138 609.564 721.503 609.086 720.976L607.647 722.603L607.997 723.099C608.796 724.222 608.821 725.278 608.054 726.146C607.15 727.168 605.832 727.178 604.492 726.171L603.986 726.743L603.398 726.223L603.907 725.647C602.831 724.509 602.685 723.161 603.517 722.186L604.677 723.212C604.339 723.619 604.368 724.225 604.76 724.683L606.136 723.126L605.767 722.644C604.905 721.465 604.862 720.438 605.663 719.533C606.6 718.473 607.922 718.466 609.332 719.513L609.808 718.974ZM606.962 720.443C606.604 720.848 606.662 721.338 607.151 721.979L608.501 720.451C607.925 720.001 607.353 720.001 606.962 720.443ZM606.756 725.184C607.08 724.817 607.031 724.326 606.617 723.768L605.344 725.207C605.821 725.585 606.405 725.58 606.756 725.184Z" fill="#17CEAF"/>
<path d="M425.81 799.559C425.978 799.01 425.789 798.655 425.241 798.492C420.761 797.097 417.219 794.969 414.612 792.105C412.004 789.243 410.215 786.069 409.248 782.585C408.283 779.102 408.044 775.334 408.536 771.278C409.265 765.765 411.192 760.451 414.311 755.334C417.432 750.219 421.379 746.107 426.159 743.001C425.683 743.972 424.514 747.251 422.652 752.849C422.436 753.354 422.605 753.713 423.154 753.921C423.705 754.131 424.084 753.935 424.295 753.339C424.51 752.833 424.839 751.882 425.282 750.483C425.726 749.086 426.075 748.04 426.33 747.353C426.586 746.664 426.93 745.791 427.355 744.732C427.786 743.674 428.216 742.731 428.65 741.9C428.825 741.623 428.84 741.327 428.698 741.014C428.739 740.878 428.713 740.718 428.617 740.54C428.383 740.14 428.038 739.992 427.588 740.097L427.317 740.108C424.42 740.383 422.041 740.441 420.178 740.276C418.314 740.112 416.44 739.491 414.555 738.419C414.048 738.12 413.643 738.223 413.338 738.73C413.034 739.239 413.132 739.646 413.64 739.947C416.673 741.662 420.184 742.407 424.169 742.184C419.529 745.422 415.65 749.645 412.533 754.852C409.412 760.056 407.513 765.481 406.831 771.129C406.252 775.366 406.484 779.353 407.524 783.083C408.566 786.813 410.485 790.222 413.278 793.306C416.073 796.388 419.89 798.668 424.734 800.14C425.282 800.303 425.642 800.11 425.81 799.56L425.81 799.559Z" fill="black"/>
<path d="M311.73 449.734L319.743 455.651L318.077 457.573L310.064 451.656L311.73 449.734Z" fill="#1F1141"/>
<path d="M322.603 452.489L321.072 451.166C321.072 451.166 305.944 468.79 317.122 475.416C328.3 482.041 340.724 468.252 340.724 468.252C340.724 468.252 323.232 453.264 322.603 452.489ZM318.983 473.273C310.873 468.474 321.854 455.667 321.854 455.667L322.956 456.642C323.431 457.175 336.131 468.098 336.131 468.098C336.131 468.098 327.108 478.095 319.002 473.277L318.983 473.273Z" fill="#1F1141"/>
<path d="M293.593 434.85C293.593 434.85 284.345 450.856 294.05 459.535C303.755 468.213 315.913 448.309 315.913 448.309L314.139 447.257C313.285 446.873 293.593 434.85 293.593 434.85ZM295.169 439.176C295.169 439.176 309.467 447.891 310.121 448.182L311.381 448.929C311.381 448.929 302.57 463.328 295.495 457.085C288.42 450.841 295.169 439.176 295.169 439.176Z" fill="#1F1141"/>
<path d="M338.828 468.235C338.828 468.235 362.201 468.117 364.83 470.669C367.459 473.222 359.457 485.667 356.404 485.331C353.35 484.995 362.428 476.593 361.557 472.938C360.687 469.282 336.814 470.585 336.814 470.585L338.828 468.235Z" fill="#1F1141"/>
<path d="M293.592 434.967C293.592 434.967 319.496 426.951 323.961 428.512C328.426 430.073 327.576 441.474 323.943 442.211C320.311 442.949 326.879 434.795 323.821 431.678C320.762 428.562 292.693 438.334 292.693 438.334L293.592 434.967Z" fill="#1F1141"/>
</svg>
