<svg width="320" height="774" viewBox="0 0 320 774" fill="none" xmlns="http://www.w3.org/2000/svg">
<g opacity="0.5" filter="url(#filter0_d)">
<path d="M37.7556 482.003C15.7246 478.462 -3.23843 465.64 -19.1336 443.538C-35.0287 421.436 -49.7051 389.942 -63.1627 349.055C-76.6136 308.165 -83.5036 274.107 -83.8329 246.882C-84.1622 219.657 -76.1881 197.974 -59.9105 181.833C-43.642 165.693 -28.3648 154.195 -14.0789 147.339C0.188084 140.486 22.2607 132.146 52.139 122.32C81.9861 112.504 104.697 106.111 120.272 103.142C135.821 100.187 154.186 100.26 175.369 103.361C216.387 109.989 250.562 154.847 277.892 237.933C304.797 319.714 303.501 374.805 274.003 403.207C257.948 419.986 242.777 431.811 228.489 438.682C214.195 445.537 192.124 453.876 162.276 463.699C132.397 473.529 109.686 479.921 94.1429 482.878C78.5654 485.845 59.7697 485.554 37.7556 482.003Z" fill="#EFEFE8"/>
</g>
<path fill-rule="evenodd" clip-rule="evenodd" d="M230.529 437.656C227.76 404.924 184.331 367.699 184.331 367.699L180.653 368.128L165.323 353.819L129.253 352.919L122.93 362.41C118.253 403.408 129.111 447.234 136.851 471.851C142.021 470.362 147.698 468.628 153.643 466.731C149.49 429.821 154.584 383.553 154.584 383.553C205.484 407.495 218.359 434.518 221.067 442.043C224.681 440.47 227.876 438.994 230.529 437.656Z" fill="#494848"/>
<path d="M257.357 258.603C257.612 257.18 261.385 243.219 263.264 243.179C265.788 243.179 262.472 251.112 262.163 252.575C263.43 251.272 264.922 250.208 266.566 249.434C267.909 248.656 272.875 245.568 273.735 246.749C274.594 247.931 271.345 250.266 268.862 252.119C268.083 252.71 266.392 253.958 265.694 254.549C268.486 252.871 275.708 249.085 276.325 251.22C276.943 253.354 268.593 256.898 266.177 257.757C269.399 256.871 278.003 253.085 278.487 255.676C278.728 257.019 270.177 259.489 268.298 260.267C269.801 260.267 276.836 258.925 277.023 261.193C277.211 264.362 266.7 263.328 264.821 263.18C262.942 263.033 256.619 261.838 257.465 257.811" fill="#FFC1B5"/>
<path d="M263.881 262.147L253.84 269.597L250.605 260.751L260.552 256.119L263.881 262.147Z" fill="#FFC1B5"/>
<path d="M251.411 259.596L254.646 257.529L260.405 265.61L255.478 269.087L251.411 259.596Z" fill="white"/>
<path d="M73.9865 214.693C74.5503 213.351 78.9936 199.605 77.3827 198.584C75.2483 197.242 73.7448 205.686 73.1945 207.122C72.8396 205.349 72.1713 203.653 71.2211 202.115C70.4694 200.705 68.0128 195.403 66.657 195.98C65.3012 196.557 66.7644 200.222 67.8383 203.135C68.1739 204.048 68.9122 206.021 69.1807 206.894C67.7443 203.967 63.7172 196.88 62.0392 198.329C60.3612 199.779 65.4757 207.31 67.0329 209.324C64.8045 206.773 59.6363 198.933 57.8241 200.84C56.871 201.873 62.7372 208.545 63.9051 210.236C62.5627 209.485 57.4213 204.518 56.0521 206.276C54.1862 208.84 63.5829 213.659 65.2072 214.532C66.8315 215.405 72.8052 217.888 74.3221 213.955" fill="#FFC1B5"/>
<path d="M66.5898 214.129L70.9795 225.835L78.5103 220.143L72.6575 210.867L66.5898 214.129Z" fill="#FFC1B5"/>
<path d="M79.0743 219.888L77.1681 216.559L68.3218 221.043L71.0737 226.412L79.0743 219.888Z" fill="white"/>
<path d="M134.058 353.04L165.269 353.819L178.384 274.658L158.745 263.825L148.247 262.482L134.085 275.772L134.058 353.04Z" fill="#F7F5F5"/>
<path d="M138.019 352.167L162.034 350.825L162.061 356.664L137.925 356.06L138.019 352.167Z" fill="#EBAE41"/>
<path d="M166.383 170.542C166.383 170.542 197.419 204.867 172.384 238.346C167.726 244.575 158.839 252.119 159.175 266.496C159.175 266.496 153.55 268.899 148.825 266.496C148.825 266.496 147.724 242.87 142.113 235.621C136.502 228.372 121.588 210.948 119.91 199.47C118.916 192.35 119.226 185.109 120.823 178.099L166.383 170.542Z" fill="#FFC1B5"/>
<path d="M132.77 221.579C132.77 221.579 118.903 224.68 119.413 219.432C119.923 214.183 134.515 216.747 134.515 216.747L132.77 221.579Z" fill="#FFC1B5"/>
<path d="M148.556 202.652C148.406 203.077 148.43 203.545 148.624 203.953C148.817 204.36 149.165 204.675 149.59 204.826C150.489 205.162 150.932 204.558 151.335 203.685C151.416 203.479 151.455 203.259 151.45 203.038C151.444 202.817 151.395 202.599 151.303 202.397C151.212 202.195 151.081 202.014 150.918 201.864C150.755 201.714 150.564 201.599 150.355 201.524C149.469 201.189 148.878 201.779 148.556 202.652Z" fill="#333333"/>
<path d="M165.779 199.175C166.079 199.515 166.501 199.723 166.954 199.754C167.407 199.784 167.853 199.634 168.195 199.336C168.92 198.719 168.652 197.994 168.048 197.255C167.906 197.088 167.733 196.95 167.537 196.851C167.342 196.751 167.128 196.692 166.91 196.675C166.691 196.659 166.471 196.687 166.263 196.756C166.055 196.826 165.863 196.936 165.699 197.081C164.96 197.671 165.188 198.423 165.779 199.175Z" fill="#333333"/>
<path d="M146.543 213.082C146.972 213.995 148.865 214.035 150.758 213.082C152.651 212.129 153.845 210.746 153.443 209.82C153.04 208.894 150.261 209.27 148.368 210.156C146.476 211.042 146.126 212.156 146.543 213.082Z" fill="#E89F91"/>
<path d="M175.592 204.571C175.498 203.565 173.726 202.92 171.565 203.135C169.404 203.35 167.887 204.357 167.994 205.363C168.102 206.37 170.813 206.921 172.894 206.706C174.975 206.491 175.699 205.578 175.592 204.571Z" fill="#E89F91"/>
<path d="M149.778 194.92C148.893 195.581 147.949 196.161 146.959 196.651C146.006 197.135 144.972 197.927 143.898 197.376C143.592 197.245 143.346 197.005 143.207 196.702C143.068 196.4 143.046 196.056 143.147 195.739C143.429 194.557 144.69 194.289 145.67 193.873C146.693 193.434 147.754 193.088 148.838 192.839C149.099 192.783 149.372 192.818 149.61 192.938C149.848 193.059 150.038 193.257 150.148 193.5C150.258 193.743 150.281 194.017 150.214 194.275C150.146 194.533 149.993 194.761 149.778 194.92Z" fill="#278DCC"/>
<path d="M163.202 189.026C164.417 188.84 165.657 188.89 166.853 189.174C167.18 189.246 167.47 189.431 167.674 189.696C167.878 189.961 167.982 190.29 167.967 190.624C167.968 190.966 167.838 191.296 167.603 191.546C167.368 191.795 167.047 191.946 166.706 191.966C165.37 191.903 164.06 191.575 162.853 191C162.631 190.915 162.446 190.756 162.329 190.55C162.212 190.343 162.171 190.103 162.212 189.869C162.253 189.635 162.375 189.423 162.555 189.27C162.736 189.116 162.965 189.03 163.202 189.026Z" fill="#278DCC"/>
<path d="M119.789 184.006C123.306 184.65 160.933 195.577 168.867 173.656C168.867 173.656 162.437 156.286 137.992 164.259C113.547 172.233 119.789 184.006 119.789 184.006Z" fill="#278DCC"/>
<path d="M127.481 216.129C127.481 216.129 133.065 197.081 126.232 180.569L119.091 178.985C119.091 178.985 110.849 197.081 127.481 216.129Z" fill="#278DCC"/>
<path d="M119.118 180.395C119.118 180.395 115.198 181.227 115.305 179.697C115.413 178.166 119.091 178.985 119.091 178.985C119.091 178.985 115.56 175.603 117.118 175.428C118.675 175.254 121.695 178.932 121.695 178.932L119.802 180.569" fill="#278DCC"/>
<path d="M127.172 209.565C127.172 209.565 132.89 220.734 143.066 220.438C153.241 220.143 158.181 213.726 162.047 213.445L164.168 213.78L165.256 213.351L166.088 212.559C166.088 212.559 168.598 211.847 172.397 213.982C173.285 214.424 174.256 214.674 175.247 214.715C176.239 214.757 177.227 214.589 178.149 214.223C179.071 213.857 179.906 213.301 180.599 212.591C181.291 211.881 181.827 211.033 182.17 210.102C182.17 210.102 181.646 231.07 185.754 239.635C189.862 248.199 165.027 259.059 147.187 245.004C132.528 233.527 127.44 216.009 127.44 216.009L127.172 209.565Z" fill="#278DCC"/>
<path d="M156.49 196.302C159.07 199.218 161.435 202.319 163.564 205.578C164.665 207.39 166.8 210.854 165.954 213.203C165.028 215.78 161.605 213.418 160.463 211.995C160.276 211.753 160.463 211.31 160.839 211.458C161.681 212.056 162.58 212.569 163.524 212.988C166.209 213.606 164.37 209.31 163.658 207.86C161.473 203.893 158.882 200.164 155.926 196.732C155.881 196.663 155.862 196.58 155.874 196.498C155.885 196.417 155.926 196.342 155.99 196.289C156.053 196.236 156.133 196.208 156.215 196.211C156.298 196.213 156.376 196.246 156.436 196.302H156.49Z" fill="#BC6C6C"/>
<path d="M161 225.593C159.995 225.321 159.08 224.789 158.345 224.052C157.61 223.315 157.081 222.397 156.812 221.392C156.738 221.11 156.738 220.814 156.812 220.532C157.054 219.66 158.235 219.19 159.282 219.19C160.322 219.25 161.357 219.371 162.383 219.552C163.614 219.651 164.851 219.457 165.994 218.989C166.665 218.72 167.336 218.358 167.967 218.143C168.303 218.019 168.66 217.964 169.017 217.98C169.374 217.996 169.725 218.083 170.048 218.237C170.307 218.407 170.521 218.638 170.67 218.909C170.82 219.18 170.901 219.484 170.907 219.794C171.256 224.157 165.779 227.137 161 225.593Z" fill="#4C2B49"/>
<path d="M149.402 265.717C149.402 265.717 152.879 271.329 154.221 271.382C155.564 271.436 158.691 266.013 158.691 266.013L156.127 263.825L151.416 263.502L149.402 265.717Z" fill="#EBAE41"/>
<path d="M148.744 260.173C148.744 260.173 155.309 264.939 158.638 260.428L161.725 261.771L164.195 271.61C164.195 271.61 157.483 268.671 154.476 263.69C154.476 263.69 150.449 271.261 144.234 271.114L146.006 262.026L148.744 260.173Z" fill="white"/>
<path d="M161.725 261.798C161.725 261.798 146.57 349.268 161.631 366.907C176.693 384.546 187.942 368.021 187.942 368.021L186.264 287.115C186.264 287.115 213.823 293.921 259.237 268.657L252.525 257.448C252.525 257.448 213.112 280.39 161.725 261.798Z" fill="#222A33"/>
<path d="M161.725 261.798C161.725 261.798 170.478 268.872 170.397 271.798C170.316 274.725 164.088 275.826 164.088 275.826C164.088 275.826 169.645 279.772 167.538 283.974C165.43 288.176 156.033 306.137 156.033 306.137C156.033 306.137 159.832 270.55 161.725 261.798Z" fill="#494848"/>
<path d="M153.953 269.342C153.953 269.342 143.737 339.898 181.673 344.878L192.976 341.012L183.861 329.978C183.861 329.978 155.671 330.958 154.772 269.57C154.745 268.228 154.772 269.637 153.953 269.342Z" fill="#EBAE41"/>
<path d="M146.006 262.053C146.006 262.053 150.207 358.047 143.321 367.551C136.435 377.055 118.554 371.78 118.554 371.78C118.554 371.78 118.634 305.734 120.796 282.766C120.796 282.766 81.7723 273.705 69.2747 224.157L79.0741 218.479C79.0741 218.479 105.09 267.154 146.006 262.053Z" fill="#222A33"/>
<path d="M146.006 262.053C146.006 262.053 135.75 268.765 136.81 270.953C137.871 273.141 141.16 274.738 141.16 274.738C141.16 274.738 136.475 277.208 139.039 283.961C141.603 290.713 147.227 304.888 147.227 304.888L146.006 262.053Z" fill="#494848"/>
<path d="M71.6698 45.2807C70.9365 48.5082 68.8394 51.2129 65.3785 53.3948C61.9177 55.5768 57.0593 57.5054 50.8035 59.1805C44.5439 60.8578 39.3696 61.6174 35.2807 61.4595C31.1918 61.3016 28.0081 59.9594 25.7297 57.4328C23.4561 54.9082 21.8697 52.5642 20.9702 50.401C20.0707 48.2378 19.0206 44.9134 17.8197 40.4278C16.6184 35.9445 15.8658 32.5409 15.5619 30.217C15.2579 27.8931 15.4364 25.1797 16.0972 22.0766C17.4666 16.0655 24.5103 11.3561 37.2281 7.94839C49.7485 4.59358 58.0051 5.2033 61.9979 9.77755C64.3695 12.2813 66.0061 14.6124 66.9075 16.7707C67.809 18.9291 68.8592 22.2535 70.058 26.744C71.2606 31.2323 72.0133 34.6359 72.3158 36.9548C72.6184 39.2736 72.4031 42.0489 71.6698 45.2807Z" fill="#CEE2E9"/>
<path d="M38.7441 40.3125C42.2891 40.3125 44.4375 37.4707 44.4375 32.9199C44.4375 28.3691 42.2695 25.5859 38.7441 25.5859C35.2188 25.5859 33.041 28.3789 33.041 32.9297C33.041 37.4902 35.1992 40.3125 38.7441 40.3125ZM38.7441 37.9492C37.0645 37.9492 36.0391 36.1328 36.0391 32.9297C36.0391 29.7559 37.084 27.9492 38.7441 27.9492C40.4141 27.9492 41.4395 29.7461 41.4395 32.9297C41.4395 36.1426 40.4238 37.9492 38.7441 37.9492ZM49.6816 40H52.6016V25.9082H49.6719L46.0293 28.4375V31.0938L49.623 28.6133H49.6816V40Z" fill="#278DCC"/>
<path d="M30.0078 95V83.7266H21.1719V95H22.5859V85.0078H28.6172V95H30.0078ZM36.0938 86.7344C34.9141 86.7344 33.9688 87.3359 33.4688 88.25H33.4375V86.875H32.1484V97.7109H33.5078V93.6797H33.5391C34.0234 94.5703 34.9609 95.1406 36.125 95.1406C38.1719 95.1406 39.5703 93.4844 39.5703 90.9375C39.5703 88.3906 38.1641 86.7344 36.0938 86.7344ZM35.8281 93.9453C34.4375 93.9453 33.5 92.75 33.5 90.9375C33.5 89.1328 34.4375 87.9297 35.8281 87.9297C37.2734 87.9297 38.1797 89.1016 38.1797 90.9375C38.1797 92.7812 37.2734 93.9453 35.8281 93.9453ZM44.4531 95.1406C46.6953 95.1406 48.2109 93.5234 48.2109 90.9375C48.2109 88.3438 46.6953 86.7344 44.4531 86.7344C42.2031 86.7344 40.6875 88.3438 40.6875 90.9375C40.6875 93.5234 42.2031 95.1406 44.4531 95.1406ZM44.4531 93.9453C43.0156 93.9453 42.0703 92.8516 42.0703 90.9375C42.0703 89.0234 43.0156 87.9297 44.4531 87.9297C45.8906 87.9297 46.8281 89.0234 46.8281 90.9375C46.8281 92.8516 45.8906 93.9453 44.4531 93.9453ZM54.9531 93.8828H50.9922V93.8203C51.375 93.3047 51.5859 92.4219 51.6562 91.4141L51.9062 87.9922H54.9531V93.8828ZM50.0234 97.1484V95H56.3281V97.1484H57.5938V93.8828H56.3047V86.875H50.7109L50.3984 91.3828C50.3203 92.4766 50.0312 93.4922 49.4375 93.8828H48.7578V97.1484H50.0234ZM61.5 93.9844C60.5234 93.9844 59.875 93.4766 59.875 92.7031C59.875 91.9375 60.5 91.4531 61.5938 91.3828L63.7656 91.25V91.9141C63.7656 93.0859 62.7812 93.9844 61.5 93.9844ZM61.1953 95.1406C62.2891 95.1406 63.3203 94.5312 63.8047 93.6016H63.8359V95H65.125V89.3828C65.125 87.7656 63.9219 86.7344 62.0156 86.7344C60.0938 86.7344 58.8906 87.8125 58.7969 89.2188H60.1094C60.2812 88.4219 60.9375 87.9297 61.9844 87.9297C63.1094 87.9297 63.7656 88.5234 63.7656 89.5156V90.1953L61.4375 90.3281C59.5625 90.4375 58.4922 91.3125 58.4922 92.7031C58.4922 94.1641 59.5781 95.1406 61.1953 95.1406ZM70.2891 87.9766C71.1406 87.9766 71.6016 88.375 71.6016 89.0938C71.6016 89.875 71.1094 90.25 70.0859 90.25H68.3438V87.9766H70.2891ZM70.1953 91.3438C71.3828 91.3438 71.9531 91.7656 71.9531 92.6328C71.9531 93.4531 71.4219 93.8984 70.4375 93.8984H68.3438V91.3438H70.1953ZM67 95H70.5C72.2266 95 73.2891 94.1016 73.2891 92.6641C73.2891 91.6484 72.6172 90.9062 71.5938 90.7656V90.7031C72.3438 90.5469 72.9297 89.7812 72.9297 88.9531C72.9297 87.6641 72 86.875 70.4766 86.875H67V95ZM78.1094 87.9141C79.3906 87.9141 80.2422 88.8828 80.2734 90.2422H75.8594C75.9453 88.8906 76.8359 87.9141 78.1094 87.9141ZM80.2422 92.6719C80.0156 93.4375 79.2578 93.9609 78.2266 93.9609C76.7656 93.9609 75.8516 92.9375 75.8516 91.3828V91.3047H81.6797V90.7891C81.6797 88.3281 80.3281 86.7344 78.1328 86.7344C75.8906 86.7344 74.4531 88.4453 74.4531 90.9688C74.4531 93.5234 75.8672 95.1406 78.1953 95.1406C79.9688 95.1406 81.3438 94.0938 81.5781 92.6719H80.2422ZM91.0312 97.1484V93.8828H89.7344V86.875H88.3906V93.8828H84.5312V86.875H83.1875V95H89.7656V97.1484H91.0312ZM99.4844 86.7344C98.3047 86.7344 97.3594 87.3359 96.8594 88.25H96.8281V86.875H95.5391V97.7109H96.8984V93.6797H96.9297C97.4141 94.5703 98.3516 95.1406 99.5156 95.1406C101.562 95.1406 102.961 93.4844 102.961 90.9375C102.961 88.3906 101.555 86.7344 99.4844 86.7344ZM99.2188 93.9453C97.8281 93.9453 96.8906 92.75 96.8906 90.9375C96.8906 89.1328 97.8281 87.9297 99.2188 87.9297C100.664 87.9297 101.57 89.1016 101.57 90.9375C101.57 92.7812 100.664 93.9453 99.2188 93.9453ZM107.156 93.9844C106.18 93.9844 105.531 93.4766 105.531 92.7031C105.531 91.9375 106.156 91.4531 107.25 91.3828L109.422 91.25V91.9141C109.422 93.0859 108.438 93.9844 107.156 93.9844ZM106.852 95.1406C107.945 95.1406 108.977 94.5312 109.461 93.6016H109.492V95H110.781V89.3828C110.781 87.7656 109.578 86.7344 107.672 86.7344C105.75 86.7344 104.547 87.8125 104.453 89.2188H105.766C105.938 88.4219 106.594 87.9297 107.641 87.9297C108.766 87.9297 109.422 88.5234 109.422 89.5156V90.1953L107.094 90.3281C105.219 90.4375 104.148 91.3125 104.148 92.7031C104.148 94.1641 105.234 95.1406 106.852 95.1406ZM115.367 95.1406C117.273 95.1406 118.539 94.1172 118.539 92.6016C118.539 91.6641 117.984 90.9766 116.914 90.7422V90.6797C117.727 90.4922 118.258 89.7578 118.258 88.9297C118.258 87.625 117.25 86.7344 115.398 86.7344C113.68 86.7344 112.508 87.5859 112.336 88.9297H113.656C113.766 88.2812 114.438 87.8672 115.398 87.8672C116.445 87.8672 116.93 88.3594 116.93 89.0391C116.93 89.8359 116.398 90.2266 115.367 90.2266H114.148V91.3359H115.367C116.594 91.3359 117.203 91.75 117.203 92.6641C117.203 93.4531 116.547 94.0156 115.367 94.0156C114.359 94.0156 113.688 93.6016 113.531 92.8906H112.156C112.297 94.2656 113.586 95.1406 115.367 95.1406ZM121.438 95V89.2344H121.492L124.117 94.7656H125.156L127.781 89.2344H127.836V95H129.188V86.875H127.602L124.695 93.2031H124.633L121.742 86.875H120.094V95H121.438ZM134.359 87.9141C135.641 87.9141 136.492 88.8828 136.523 90.2422H132.109C132.195 88.8906 133.086 87.9141 134.359 87.9141ZM136.492 92.6719C136.266 93.4375 135.508 93.9609 134.477 93.9609C133.016 93.9609 132.102 92.9375 132.102 91.3828V91.3047H137.93V90.7891C137.93 88.3281 136.578 86.7344 134.383 86.7344C132.141 86.7344 130.703 88.4453 130.703 90.9688C130.703 93.5234 132.117 95.1406 134.445 95.1406C136.219 95.1406 137.594 94.0938 137.828 92.6719H136.492ZM150.758 97.1484V93.8828H149.469V86.875H148.125V93.8828H145.125V86.875H143.781V93.8828H140.781V86.875H139.438V95H149.492V97.1484H150.758ZM154.656 93.9844C153.68 93.9844 153.031 93.4766 153.031 92.7031C153.031 91.9375 153.656 91.4531 154.75 91.3828L156.922 91.25V91.9141C156.922 93.0859 155.938 93.9844 154.656 93.9844ZM154.352 95.1406C155.445 95.1406 156.477 94.5312 156.961 93.6016H156.992V95H158.281V89.3828C158.281 87.7656 157.078 86.7344 155.172 86.7344C153.25 86.7344 152.047 87.8125 151.953 89.2188H153.266C153.438 88.4219 154.094 87.9297 155.141 87.9297C156.266 87.9297 156.922 88.5234 156.922 89.5156V90.1953L154.594 90.3281C152.719 90.4375 151.648 91.3125 151.648 92.7031C151.648 94.1641 152.734 95.1406 154.352 95.1406ZM163.422 87.9141C164.703 87.9141 165.555 88.8828 165.586 90.2422H161.172C161.258 88.8906 162.148 87.9141 163.422 87.9141ZM165.555 92.6719C165.328 93.4375 164.57 93.9609 163.539 93.9609C162.078 93.9609 161.164 92.9375 161.164 91.3828V91.3047H166.992V90.7891C166.992 88.3281 165.641 86.7344 163.445 86.7344C161.203 86.7344 159.766 88.4453 159.766 90.9688C159.766 93.5234 161.18 95.1406 163.508 95.1406C165.281 95.1406 166.656 94.0938 166.891 92.6719H165.555ZM174.133 86.875H167.539V87.9922H170.164V95H171.508V87.9922H174.133V86.875ZM184.023 95H185.367V86.875H184.023V90.2266H180.016V86.875H178.672V95H180.016V91.3438H184.023V95ZM189.969 93.9844C188.992 93.9844 188.344 93.4766 188.344 92.7031C188.344 91.9375 188.969 91.4531 190.062 91.3828L192.234 91.25V91.9141C192.234 93.0859 191.25 93.9844 189.969 93.9844ZM189.664 95.1406C190.758 95.1406 191.789 94.5312 192.273 93.6016H192.305V95H193.594V89.3828C193.594 87.7656 192.391 86.7344 190.484 86.7344C188.562 86.7344 187.359 87.8125 187.266 89.2188H188.578C188.75 88.4219 189.406 87.9297 190.453 87.9297C191.578 87.9297 192.234 88.5234 192.234 89.5156V90.1953L189.906 90.3281C188.031 90.4375 186.961 91.3125 186.961 92.7031C186.961 94.1641 188.047 95.1406 189.664 95.1406ZM204.023 95H205.375V86.875H198.75V95H200.094V87.9922H204.023V95ZM209.453 91.4141L209.703 87.9922H212.469V95H213.812V86.875H208.492L208.18 91.3828C208.078 92.875 207.773 93.8203 206.969 93.8203C206.773 93.8203 206.625 93.7812 206.555 93.7578V94.9844C206.648 95.0234 206.805 95.0703 207.039 95.0703C208.75 95.0703 209.289 93.6562 209.453 91.4141ZM219.109 95.1406C221.352 95.1406 222.867 93.5234 222.867 90.9375C222.867 88.3438 221.352 86.7344 219.109 86.7344C216.859 86.7344 215.344 88.3438 215.344 90.9375C215.344 93.5234 216.859 95.1406 219.109 95.1406ZM219.109 93.9453C217.672 93.9453 216.727 92.8516 216.727 90.9375C216.727 89.0234 217.672 87.9297 219.109 87.9297C220.547 87.9297 221.484 89.0234 221.484 90.9375C221.484 92.8516 220.547 93.9453 219.109 93.9453ZM235.695 97.1484V93.8828H234.406V86.875H233.062V93.8828H230.062V86.875H228.719V93.8828H225.719V86.875H224.375V95H234.43V97.1484H235.695ZM239.594 93.9844C238.617 93.9844 237.969 93.4766 237.969 92.7031C237.969 91.9375 238.594 91.4531 239.688 91.3828L241.859 91.25V91.9141C241.859 93.0859 240.875 93.9844 239.594 93.9844ZM239.289 95.1406C240.383 95.1406 241.414 94.5312 241.898 93.6016H241.93V95H243.219V89.3828C243.219 87.7656 242.016 86.7344 240.109 86.7344C238.188 86.7344 236.984 87.8125 236.891 89.2188H238.203C238.375 88.4219 239.031 87.9297 240.078 87.9297C241.203 87.9297 241.859 88.5234 241.859 89.5156V90.1953L239.531 90.3281C237.656 90.4375 236.586 91.3125 236.586 92.7031C236.586 94.1641 237.672 95.1406 239.289 95.1406ZM250.484 93.8828H246.523V93.8203C246.906 93.3047 247.117 92.4219 247.188 91.4141L247.438 87.9922H250.484V93.8828ZM245.555 97.1484V95H251.859V97.1484H253.125V93.8828H251.836V86.875H246.242L245.93 91.3828C245.852 92.4766 245.562 93.4922 244.969 93.8828H244.289V97.1484H245.555ZM257.102 90.7188L260.898 86.875H259.219L255.75 90.4688H255.688V86.875H254.344V95H255.688V91.0938H255.75L259.258 95H261.008L257.102 90.7188ZM265.25 87.9141C266.531 87.9141 267.383 88.8828 267.414 90.2422H263C263.086 88.8906 263.977 87.9141 265.25 87.9141ZM267.383 92.6719C267.156 93.4375 266.398 93.9609 265.367 93.9609C263.906 93.9609 262.992 92.9375 262.992 91.3828V91.3047H268.82V90.7891C268.82 88.3281 267.469 86.7344 265.273 86.7344C263.031 86.7344 261.594 88.4453 261.594 90.9688C261.594 93.5234 263.008 95.1406 265.336 95.1406C267.109 95.1406 268.484 94.0938 268.719 92.6719H267.383ZM26.8984 105.875H20.3047V106.992H22.9297V114H24.2734V106.992H26.8984V105.875ZM31.375 114.141C33.6172 114.141 35.1328 112.523 35.1328 109.938C35.1328 107.344 33.6172 105.734 31.375 105.734C29.125 105.734 27.6094 107.344 27.6094 109.938C27.6094 112.523 29.125 114.141 31.375 114.141ZM31.375 112.945C29.9375 112.945 28.9922 111.852 28.9922 109.938C28.9922 108.023 29.9375 106.93 31.375 106.93C32.8125 106.93 33.75 108.023 33.75 109.938C33.75 111.852 32.8125 112.945 31.375 112.945ZM39.9297 106.977C40.7812 106.977 41.2422 107.375 41.2422 108.094C41.2422 108.875 40.75 109.25 39.7266 109.25H37.9844V106.977H39.9297ZM39.8359 110.344C41.0234 110.344 41.5938 110.766 41.5938 111.633C41.5938 112.453 41.0625 112.898 40.0781 112.898H37.9844V110.344H39.8359ZM36.6406 114H40.1406C41.8672 114 42.9297 113.102 42.9297 111.664C42.9297 110.648 42.2578 109.906 41.2344 109.766V109.703C41.9844 109.547 42.5703 108.781 42.5703 107.953C42.5703 106.664 41.6406 105.875 40.1172 105.875H36.6406V114ZM47.1719 112.984C46.1953 112.984 45.5469 112.477 45.5469 111.703C45.5469 110.938 46.1719 110.453 47.2656 110.383L49.4375 110.25V110.914C49.4375 112.086 48.4531 112.984 47.1719 112.984ZM46.8672 114.141C47.9609 114.141 48.9922 113.531 49.4766 112.602H49.5078V114H50.7969V108.383C50.7969 106.766 49.5938 105.734 47.6875 105.734C45.7656 105.734 44.5625 106.812 44.4688 108.219H45.7812C45.9531 107.422 46.6094 106.93 47.6562 106.93C48.7812 106.93 49.4375 107.523 49.4375 108.516V109.195L47.1094 109.328C45.2344 109.438 44.1641 110.312 44.1641 111.703C44.1641 113.164 45.25 114.141 46.8672 114.141ZM56.625 105.734C55.4453 105.734 54.5 106.336 54 107.25H53.9688V105.875H52.6797V116.711H54.0391V112.68H54.0703C54.5547 113.57 55.4922 114.141 56.6562 114.141C58.7031 114.141 60.1016 112.484 60.1016 109.938C60.1016 107.391 58.6953 105.734 56.625 105.734ZM56.3594 112.945C54.9688 112.945 54.0312 111.75 54.0312 109.938C54.0312 108.133 54.9688 106.93 56.3594 106.93C57.8047 106.93 58.7109 108.102 58.7109 109.938C58.7109 111.781 57.8047 112.945 56.3594 112.945ZM70.2812 112.883H66.3203V112.82C66.7031 112.305 66.9141 111.422 66.9844 110.414L67.2344 106.992H70.2812V112.883ZM65.3516 116.148V114H71.6562V116.148H72.9219V112.883H71.6328V105.875H66.0391L65.7266 110.383C65.6484 111.477 65.3594 112.492 64.7656 112.883H64.0859V116.148H65.3516ZM76.3125 110.414L76.5625 106.992H79.3281V114H80.6719V105.875H75.3516L75.0391 110.383C74.9375 111.875 74.6328 112.82 73.8281 112.82C73.6328 112.82 73.4844 112.781 73.4141 112.758V113.984C73.5078 114.023 73.6641 114.07 73.8984 114.07C75.6094 114.07 76.1484 112.656 76.3125 110.414ZM85.5156 109.992C84.4688 109.992 83.7891 109.391 83.7891 108.547C83.7891 107.57 84.4609 106.992 85.5156 106.992H87.0703V109.992H85.5156ZM87.0703 114H88.4141V105.875H85.5078C83.6406 105.875 82.4375 106.898 82.4375 108.57C82.4375 109.688 83.1328 110.531 84.2812 110.859L82.0156 114H83.5703L85.6328 111.109H87.0703V114ZM98.8828 114H100.234V105.875H93.6094V114H94.9531V106.992H98.8828V114ZM106.094 105.734C104.914 105.734 103.969 106.336 103.469 107.25H103.438V105.875H102.148V116.711H103.508V112.68H103.539C104.023 113.57 104.961 114.141 106.125 114.141C108.172 114.141 109.57 112.484 109.57 109.938C109.57 107.391 108.164 105.734 106.094 105.734ZM105.828 112.945C104.438 112.945 103.5 111.75 103.5 109.938C103.5 108.133 104.438 106.93 105.828 106.93C107.273 106.93 108.18 108.102 108.18 109.938C108.18 111.781 107.273 112.945 105.828 112.945ZM112.422 114L116.484 107.953H116.547V114H117.891V105.875H116.547L112.484 111.922H112.422V105.875H111.078V114H112.422ZM123.086 106.977C123.938 106.977 124.398 107.375 124.398 108.094C124.398 108.875 123.906 109.25 122.883 109.25H121.141V106.977H123.086ZM122.992 110.344C124.18 110.344 124.75 110.766 124.75 111.633C124.75 112.453 124.219 112.898 123.234 112.898H121.141V110.344H122.992ZM119.797 114H123.297C125.023 114 126.086 113.102 126.086 111.664C126.086 110.648 125.414 109.906 124.391 109.766V109.703C125.141 109.547 125.727 108.781 125.727 107.953C125.727 106.664 124.797 105.875 123.273 105.875H119.797V114ZM129.656 110.414L129.906 106.992H132.672V114H134.016V105.875H128.695L128.383 110.383C128.281 111.875 127.977 112.82 127.172 112.82C126.977 112.82 126.828 112.781 126.758 112.758V113.984C126.852 114.023 127.008 114.07 127.242 114.07C128.953 114.07 129.492 112.656 129.656 110.414ZM139.203 106.914C140.484 106.914 141.336 107.883 141.367 109.242H136.953C137.039 107.891 137.93 106.914 139.203 106.914ZM141.336 111.672C141.109 112.438 140.352 112.961 139.32 112.961C137.859 112.961 136.945 111.938 136.945 110.383V110.305H142.773V109.789C142.773 107.328 141.422 105.734 139.227 105.734C136.984 105.734 135.547 107.445 135.547 109.969C135.547 112.523 136.961 114.141 139.289 114.141C141.062 114.141 142.438 113.094 142.672 111.672H141.336ZM150.398 114V105.875H149.055V109.141C148.68 109.562 148.016 109.938 147.008 109.938C145.914 109.938 145.344 109.258 145.344 108.195V105.875H144V108.211C144 109.945 145.023 111.125 146.969 111.125C147.852 111.125 148.5 110.867 148.938 110.492H149.055V114H150.398ZM155.578 106.914C156.859 106.914 157.711 107.883 157.742 109.242H153.328C153.414 107.891 154.305 106.914 155.578 106.914ZM157.711 111.672C157.484 112.438 156.727 112.961 155.695 112.961C154.234 112.961 153.32 111.938 153.32 110.383V110.305H159.148V109.789C159.148 107.328 157.797 105.734 155.602 105.734C153.359 105.734 151.922 107.445 151.922 109.969C151.922 112.523 153.336 114.141 155.664 114.141C157.438 114.141 158.812 113.094 159.047 111.672H157.711ZM166.008 114H167.352V105.875H166.008V109.227H162V105.875H160.656V114H162V110.344H166.008V114ZM170.609 114L174.672 107.953H174.734V114H176.078V105.875H174.734L170.672 111.922H170.609V105.875H169.266V114H170.609ZM180.906 109.992C179.859 109.992 179.18 109.391 179.18 108.547C179.18 107.57 179.852 106.992 180.906 106.992H182.461V109.992H180.906ZM182.461 114H183.805V105.875H180.898C179.031 105.875 177.828 106.898 177.828 108.57C177.828 109.688 178.523 110.531 179.672 110.859L177.406 114H178.961L181.023 111.109H182.461V114ZM194.391 112.883H190.43V112.82C190.812 112.305 191.023 111.422 191.094 110.414L191.344 106.992H194.391V112.883ZM189.461 116.148V114H195.766V116.148H197.031V112.883H195.742V105.875H190.148L189.836 110.383C189.758 111.477 189.469 112.492 188.875 112.883H188.195V116.148H189.461ZM201.516 106.914C202.797 106.914 203.648 107.883 203.68 109.242H199.266C199.352 107.891 200.242 106.914 201.516 106.914ZM203.648 111.672C203.422 112.438 202.664 112.961 201.633 112.961C200.172 112.961 199.258 111.938 199.258 110.383V110.305H205.086V109.789C205.086 107.328 203.734 105.734 201.539 105.734C199.297 105.734 197.859 107.445 197.859 109.969C197.859 112.523 199.273 114.141 201.602 114.141C203.375 114.141 204.75 113.094 204.984 111.672H203.648ZM211.945 114H213.289V105.875H211.945V109.227H207.938V105.875H206.594V114H207.938V110.344H211.945V114ZM218.469 106.914C219.75 106.914 220.602 107.883 220.633 109.242H216.219C216.305 107.891 217.195 106.914 218.469 106.914ZM220.602 111.672C220.375 112.438 219.617 112.961 218.586 112.961C217.125 112.961 216.211 111.938 216.211 110.383V110.305H222.039V109.789C222.039 107.328 220.688 105.734 218.492 105.734C216.25 105.734 214.812 107.445 214.812 109.969C214.812 112.523 216.227 114.141 218.555 114.141C220.328 114.141 221.703 113.094 221.938 111.672H220.602ZM228.773 106.992V105.875H223.547V114H224.891V106.992H228.773Z" fill="#222A33"/>
<path d="M24.12 136.128C24.635 136.383 24.7626 136.764 24.5051 137.275C22.4425 141.488 21.5572 145.525 21.849 149.387C22.1384 153.248 23.2175 156.728 25.0863 159.824C26.9551 162.917 29.5302 165.678 32.8162 168.105C37.324 171.362 42.5107 173.61 48.3723 174.856C54.2337 176.101 59.9333 176.055 65.4734 174.713C64.4409 174.392 61.2551 172.99 55.9064 170.499C55.3913 170.31 55.2466 169.94 55.4723 169.398C55.6979 168.854 56.1001 168.713 56.6789 168.968C57.1939 169.16 58.1112 169.573 59.4331 170.213C60.7525 170.849 61.7531 171.313 62.4276 171.6C63.1044 171.887 63.9751 172.237 65.037 172.655C66.1014 173.068 67.0824 173.403 67.9849 173.658C68.3062 173.722 68.5318 173.914 68.6618 174.232C68.7893 174.295 68.8874 174.424 68.9512 174.616C69.0812 175.061 68.9512 175.413 68.5661 175.668L68.3724 175.858C66.1823 177.775 64.5073 179.464 63.3472 180.932C62.1871 182.4 61.3509 184.188 60.8358 186.295C60.7059 186.869 60.3527 187.092 59.7739 186.966C59.1951 186.837 58.967 186.487 59.097 185.911C59.9333 182.528 61.8022 179.464 64.701 176.721C59.1608 177.87 53.4269 177.79 47.5013 176.48C41.576 175.175 36.3276 172.83 31.7538 169.447C28.2761 166.959 25.5367 164.052 23.5404 160.735C21.544 157.415 20.384 153.68 20.0602 149.532C19.739 145.384 20.7028 141.043 22.9591 136.511C23.2166 136.001 23.6041 135.872 24.1192 136.127L24.12 136.128Z" fill="black"/>
<path d="M311.08 140.717L307.16 138.033L283.179 173.061L287.099 175.745L311.08 140.717Z" fill="#582C46"/>
<path d="M281.239 179.322C281.304 179.206 281.411 179.118 281.538 179.077C281.665 179.036 281.803 179.045 281.924 179.1C282.025 179.189 282.088 179.314 282.099 179.448C282.11 179.582 282.067 179.716 281.981 179.819L280.861 181.444C280.795 181.56 280.688 181.647 280.561 181.688C280.434 181.729 280.297 181.721 280.176 181.665C280.074 181.577 280.011 181.452 280 181.317C279.99 181.183 280.032 181.05 280.119 180.946L281.239 179.322Z" fill="#582C46"/>
<path d="M280.838 179.902L281.566 180.407L287.093 175.723L283.197 173.062L280.838 179.902Z" fill="white"/>
<path d="M218 199.721L242.343 194C242.343 194 248.052 218.763 257 227.158L229.738 238C229.738 238 223.436 224.5 218 199.721Z" fill="white"/>
<defs>
<filter id="filter0_d" x="-280" y="0" width="773.337" height="773.885" filterUnits="userSpaceOnUse" color-interpolation-filters="sRGB">
<feFlood flood-opacity="0" result="BackgroundImageFix"/>
<feColorMatrix in="SourceAlpha" type="matrix" values="0 0 0 0 0 0 0 0 0 0 0 0 0 0 0 0 0 0 127 0"/>
<feOffset dy="94"/>
<feGaussianBlur stdDeviation="57"/>
<feColorMatrix type="matrix" values="0 0 0 0 0 0 0 0 0 0 0 0 0 0 0 0 0 0 0.1 0"/>
<feBlend mode="normal" in2="BackgroundImageFix" result="effect1_dropShadow"/>
<feBlend mode="normal" in="SourceGraphic" in2="effect1_dropShadow" result="shape"/>
</filter>
</defs>
</svg>
