<svg width="1204" height="900" viewBox="0 0 1204 900" fill="none" xmlns="http://www.w3.org/2000/svg">
<path d="M830.624 114.142L830.631 114.149L830.638 114.157C861.771 146.091 883.341 175.903 895.377 203.59C907.431 231.322 921.634 274.121 937.984 332.003C954.383 389.859 964.75 433.739 969.093 463.656C973.43 493.531 971.17 529.423 962.291 571.347C953.436 613.092 926.902 648.383 882.605 677.21C838.284 706.054 775.825 731.901 695.205 754.739C614.535 777.605 547.771 788.387 494.897 787.107C442.058 785.829 400.747 769.091 370.9 736.938C341.031 704.715 320.102 674.726 308.089 646.969C296.059 619.174 281.856 576.374 265.481 518.555C249.101 460.765 238.734 416.885 234.372 386.902C230.016 356.959 231.812 321.871 239.776 281.63C248.043 242.774 274.656 207.797 319.727 176.714C364.801 145.628 428.298 118.465 510.245 95.2365C590.918 72.3695 657.948 62.5349 711.351 65.7056C764.749 68.8761 804.477 85.0456 830.624 114.142Z" stroke="black" stroke-opacity="0.1"/>
<path d="M372.837 114.142L372.83 114.149L372.823 114.157C341.689 146.091 320.12 175.903 308.084 203.59C296.029 231.322 281.827 274.121 265.477 332.003C249.078 389.859 238.711 433.739 234.368 463.656C230.031 493.531 232.291 529.423 241.17 571.347C250.024 613.092 276.559 648.383 320.856 677.21C365.177 706.054 427.636 731.901 508.256 754.739C588.926 777.605 655.69 788.387 708.564 787.107C761.403 785.829 802.714 769.091 832.561 736.938C862.43 704.715 883.359 674.726 895.372 646.969C907.402 619.174 921.605 576.374 937.979 518.555C954.36 460.765 964.727 416.885 969.089 386.902C973.445 356.959 971.649 321.871 963.684 281.63C955.418 242.774 928.805 207.797 883.734 176.714C838.66 145.628 775.163 118.465 693.216 95.2365C612.543 72.3695 545.513 62.5349 492.11 65.7056C438.712 68.8761 398.983 85.0456 372.837 114.142Z" stroke="black" stroke-opacity="0.1"/>
<path d="M251.682 546.789C248.853 560.126 240.376 571.391 226.251 580.583C212.126 589.775 192.231 598.007 166.564 605.278C140.882 612.557 119.615 615.993 102.765 615.586C85.914 615.178 72.7216 609.839 63.1874 599.567C53.6736 589.304 47.0001 579.744 43.167 570.888C39.3339 562.031 34.8113 548.401 29.5993 529.998C24.3853 511.603 21.0835 497.629 19.6938 488.076C18.304 478.523 18.8779 467.336 21.4153 454.516C26.6989 429.677 55.4304 409.862 107.61 395.071C158.979 380.511 193.022 382.532 209.739 401.135C219.655 411.307 226.534 420.811 230.375 429.647C234.216 438.483 238.739 452.113 243.943 470.537C249.163 488.952 252.465 502.926 253.849 512.459C255.232 521.991 254.51 533.435 251.682 546.789Z" fill="#278DCC"/>
<path d="M365.138 554.093C360.924 572.639 348.873 588.182 328.986 600.721C309.098 613.259 281.18 624.341 245.231 633.968C209.26 643.606 179.526 647.971 156.029 647.064C132.532 646.157 114.237 638.443 101.145 623.925C88.0799 609.417 78.9631 595.947 73.7943 583.517C68.6255 571.086 62.5908 551.982 55.6904 526.206C48.7871 500.442 44.4622 480.884 42.7157 467.53C40.9691 454.176 41.9945 438.583 45.7917 420.751C53.6611 386.209 94.1372 359.146 167.22 339.564C239.168 320.285 286.614 323.789 309.559 350.075C323.188 364.463 332.592 377.858 337.772 390.261C342.953 402.664 348.987 421.768 355.876 447.572C362.787 473.364 367.112 492.923 368.851 506.248C370.59 519.573 369.352 535.521 365.138 554.093Z" fill="white"/>
<path d="M240.67 437.194C239.936 440.422 237.839 443.126 234.379 445.308C230.918 447.49 226.059 449.419 219.804 451.094C213.544 452.771 208.37 453.531 204.281 453.373C200.192 453.215 197.008 451.873 194.73 449.346C192.456 446.822 190.87 444.478 189.97 442.314C189.071 440.151 188.021 436.827 186.82 432.341C185.618 427.858 184.866 424.454 184.562 422.13C184.258 419.807 184.436 417.093 185.097 413.99C186.467 407.979 193.51 403.27 206.228 399.862C218.748 396.507 227.005 397.117 230.998 401.691C233.37 404.195 235.006 406.526 235.908 408.684C236.809 410.843 237.859 414.167 239.058 418.657C240.261 423.146 241.013 426.549 241.316 428.868C241.618 431.187 241.403 433.962 240.67 437.194Z" fill="#BDF3E9"/>
<path d="M224.5 416.914L208.692 434.414L202 427.82" stroke="#1AD8B4" stroke-width="5" stroke-linecap="round" stroke-linejoin="round"/>
<path d="M136.084 501.47C136.084 498.863 134.043 497.115 131.104 497.115H128.369V494.253H134.785V491.822H125.42V505.914H131.201C134.092 505.914 136.084 504.136 136.084 501.47ZM128.369 503.56V499.361H130.459C132.109 499.361 133.066 500.103 133.066 501.47C133.066 502.828 132.109 503.56 130.469 503.56H128.369ZM142.754 506.138C145.918 506.138 147.939 504.117 147.939 500.669C147.939 497.271 145.889 495.22 142.754 495.22C139.619 495.22 137.568 497.281 137.568 500.669C137.568 504.107 139.59 506.138 142.754 506.138ZM142.754 503.96C141.348 503.96 140.459 502.779 140.459 500.679C140.459 498.599 141.367 497.398 142.754 497.398C144.141 497.398 145.039 498.599 145.039 500.679C145.039 502.779 144.15 503.96 142.754 503.96ZM153.057 500.894L153.262 497.593H155.918V505.914H158.76V495.445H150.82L150.527 500.708C150.439 502.359 150.137 503.57 149.141 503.57C148.857 503.57 148.643 503.531 148.525 503.501V505.904C148.672 505.962 148.994 506.041 149.434 506.041C152.021 506.041 152.871 504 153.057 500.894ZM165.518 497.33C166.787 497.33 167.656 498.248 167.715 499.585H163.271C163.369 498.277 164.268 497.33 165.518 497.33ZM167.754 502.71C167.49 503.511 166.689 504.029 165.645 504.029C164.189 504.029 163.242 503.003 163.242 501.509V501.333H170.459V500.464C170.459 497.281 168.535 495.22 165.488 495.22C162.393 495.22 160.439 497.388 160.439 500.728C160.439 504.078 162.373 506.138 165.596 506.138C168.184 506.138 170.059 504.761 170.371 502.71H167.754ZM176.807 497.33C178.076 497.33 178.945 498.248 179.004 499.585H174.561C174.658 498.277 175.557 497.33 176.807 497.33ZM179.043 502.71C178.779 503.511 177.979 504.029 176.934 504.029C175.479 504.029 174.531 503.003 174.531 501.509V501.333H181.748V500.464C181.748 497.281 179.824 495.22 176.777 495.22C173.682 495.22 171.729 497.388 171.729 500.728C171.729 504.078 173.662 506.138 176.885 506.138C179.473 506.138 181.348 504.761 181.66 502.71H179.043ZM187.168 496.06V496.109H189.902V496.06C189.902 494.761 190.908 493.804 192.275 493.804C193.584 493.804 194.512 494.644 194.512 495.699C194.512 496.675 194.072 497.388 192.646 498.814L187.334 503.931V505.914H197.578V503.57H191.221V503.511L194.658 500.201C196.211 498.658 197.383 497.339 197.383 495.582C197.383 493.228 195.342 491.509 192.373 491.509C189.297 491.509 187.168 493.394 187.168 496.06ZM204.736 509.791C207.412 509.791 208.721 508.833 209.619 506.148L213.223 495.445H210.215L207.988 503.628H207.939L205.713 495.445H202.578L206.221 505.923C206.24 505.962 206.133 506.382 206.133 506.421C205.938 507.251 205.42 507.583 204.375 507.583C204.268 507.583 203.75 507.583 203.662 507.564V509.761C203.75 509.781 204.639 509.791 204.736 509.791ZM223.584 499.019C223.311 496.822 221.572 495.22 218.877 495.22C215.752 495.22 213.77 497.33 213.77 500.669C213.77 504.068 215.752 506.138 218.896 506.138C221.553 506.138 223.34 504.654 223.594 502.339H220.938C220.693 503.326 219.99 503.902 218.926 503.902C217.51 503.902 216.641 502.71 216.641 500.669C216.641 498.667 217.51 497.457 218.916 497.457C220 497.457 220.684 498.111 220.918 499.019H223.584ZM231.943 505.914H234.785V495.445H225.176V505.914H228.018V497.593H231.943V505.914ZM241.533 497.33C242.803 497.33 243.672 498.248 243.73 499.585H239.287C239.385 498.277 240.283 497.33 241.533 497.33ZM243.77 502.71C243.506 503.511 242.705 504.029 241.66 504.029C240.205 504.029 239.258 503.003 239.258 501.509V501.333H246.475V500.464C246.475 497.281 244.551 495.22 241.504 495.22C238.408 495.22 236.455 497.388 236.455 500.728C236.455 504.078 238.389 506.138 241.611 506.138C244.199 506.138 246.074 504.761 246.387 502.71H243.77ZM248.125 505.914H262.49V495.445H259.648V503.755H256.729V495.445H253.887V503.755H250.967V495.445H248.125V505.914ZM271.396 505.914H274.238V495.445H271.396V499.468H267.373V495.445H264.531V505.914H267.373V501.626H271.396V505.914ZM286.25 505.914H289.092V495.445H286.25V505.914ZM280.703 500.572C281.729 500.572 282.402 501.216 282.402 502.173C282.402 503.13 281.738 503.785 280.703 503.785H279.131V500.572H280.703ZM276.289 505.914H281.172C283.643 505.914 285.225 504.468 285.225 502.193C285.225 499.917 283.643 498.472 281.172 498.472H279.131V495.445H276.289V505.914ZM295.439 502.281L297.432 505.914H300.527L297.285 500.621L300.557 495.445H297.451L295.596 498.98H295.537L293.652 495.445H290.439L293.701 500.699L290.42 505.914H293.418L295.381 502.281H295.439ZM173.574 530.138C176.416 530.138 178.174 528.839 178.174 526.779C178.174 525.617 177.5 524.777 176.23 524.445V524.367C177.207 524.093 177.803 523.244 177.803 522.199C177.803 520.333 176.299 519.22 173.506 519.22C170.947 519.22 169.287 520.5 169.082 522.599H171.768C171.895 521.808 172.529 521.369 173.525 521.369C174.531 521.369 175.029 521.828 175.029 522.511C175.029 523.253 174.512 523.615 173.506 523.615H172.139V525.47H173.584C174.746 525.47 175.332 525.851 175.332 526.671C175.332 527.433 174.707 527.931 173.574 527.931C172.52 527.931 171.846 527.482 171.602 526.593H168.887C169.082 528.81 170.859 530.138 173.574 530.138ZM183.945 528.019C182.979 528.019 182.334 527.531 182.334 526.75C182.334 526.007 182.939 525.529 184.004 525.451L186.211 525.314V526.076C186.211 527.208 185.186 528.019 183.945 528.019ZM183.008 530.08C184.316 530.08 185.615 529.425 186.201 528.312H186.26V529.914H189.014V522.716C189.014 520.607 187.266 519.22 184.58 519.22C181.807 519.22 180.078 520.617 179.971 522.648H182.578C182.715 521.876 183.389 521.349 184.453 521.349C185.527 521.349 186.211 521.916 186.211 522.892V523.585L183.574 523.742C180.967 523.898 179.502 525.001 179.502 526.906C179.502 528.791 181.016 530.08 183.008 530.08ZM197.803 529.914H200.645V519.445H191.035V529.914H193.877V521.593H197.803V529.914ZM204.033 533.791C206.709 533.791 208.018 532.833 208.916 530.148L212.52 519.445H209.512L207.285 527.628H207.236L205.01 519.445H201.875L205.518 529.923C205.537 529.962 205.43 530.382 205.43 530.421C205.234 531.251 204.717 531.583 203.672 531.583C203.564 531.583 203.047 531.583 202.959 531.564V533.761C203.047 533.781 203.936 533.791 204.033 533.791ZM222.881 523.019C222.607 520.822 220.869 519.22 218.174 519.22C215.049 519.22 213.066 521.33 213.066 524.669C213.066 528.068 215.049 530.138 218.193 530.138C220.85 530.138 222.637 528.654 222.891 526.339H220.234C219.99 527.326 219.287 527.902 218.223 527.902C216.807 527.902 215.938 526.71 215.938 524.669C215.938 522.667 216.807 521.457 218.213 521.457C219.297 521.457 219.98 522.111 220.215 523.019H222.881ZM229.951 524.289L234.131 519.445H230.869L227.393 523.654H227.314V519.445H224.473V529.914H227.314V525.421H227.393L230.928 529.914H234.375L229.951 524.289ZM239.961 530.138C243.125 530.138 245.146 528.117 245.146 524.669C245.146 521.271 243.096 519.22 239.961 519.22C236.826 519.22 234.775 521.281 234.775 524.669C234.775 528.107 236.797 530.138 239.961 530.138ZM239.961 527.96C238.555 527.96 237.666 526.779 237.666 524.679C237.666 522.599 238.574 521.398 239.961 521.398C241.348 521.398 242.246 522.599 242.246 524.679C242.246 526.779 241.357 527.96 239.961 527.96ZM251.279 521.251C252.217 521.251 252.744 521.691 252.744 522.453C252.744 523.244 252.178 523.683 251.133 523.683H249.59V521.251H251.279ZM251.279 525.333C252.49 525.333 253.135 525.802 253.135 526.71C253.135 527.619 252.52 528.107 251.406 528.107H249.59V525.333H251.279ZM246.797 529.914H252.139C254.512 529.914 255.996 528.722 255.996 526.886C255.996 525.568 255.029 524.591 253.633 524.425V524.347C254.707 524.181 255.527 523.205 255.527 522.082C255.527 520.431 254.219 519.445 252.041 519.445H246.797V529.914Z" fill="black"/>
<path d="M738.682 694.608C735.853 707.945 727.376 719.21 713.251 728.402C699.126 737.594 679.231 745.826 653.564 753.096C627.882 760.376 606.615 763.812 589.765 763.404C572.914 762.997 559.722 757.657 550.187 747.386C540.674 737.123 534 727.563 530.167 718.707C526.334 709.85 521.811 696.22 516.599 677.816C511.385 659.422 508.084 645.448 506.694 635.895C505.304 626.341 505.878 615.155 508.415 602.335C513.699 577.496 542.43 557.681 594.61 542.89C645.979 528.33 680.022 530.351 696.739 548.954C706.655 559.126 713.534 568.63 717.375 577.466C721.216 586.302 725.739 599.932 730.943 618.356C736.163 636.771 739.465 650.745 740.849 660.278C742.232 669.81 741.51 681.254 738.682 694.608Z" fill="#222A33"/>
<path d="M704.915 849.575C690.783 862.374 671.947 868.197 648.406 867.045C624.866 865.893 595.572 858.924 560.523 846.139C525.45 833.35 498.53 819.823 479.765 805.557C461 791.29 450.421 774.431 448.028 754.978C445.653 735.551 445.92 719.249 448.831 706.07C451.741 692.892 457.781 673.738 466.95 648.608C476.11 623.488 483.815 604.944 490.066 592.977C496.317 581.01 506.132 568.801 519.51 556.349C545.847 532.523 594.646 533.601 665.906 559.583C736.058 585.161 772.989 615.341 776.697 650.122C779.604 669.775 779.615 686.182 776.73 699.344C773.845 712.506 767.805 731.66 758.611 756.806C749.441 781.955 741.736 800.499 735.495 812.437C729.255 824.376 719.061 836.755 704.915 849.575Z" fill="white"/>
<path d="M639.67 653.013C638.936 656.24 636.839 658.945 633.379 661.127C629.918 663.309 625.059 665.238 618.804 666.913C612.544 668.59 607.37 669.35 603.281 669.192C599.192 669.034 596.008 667.692 593.73 665.165C591.456 662.64 589.87 660.297 588.97 658.133C588.071 655.97 587.021 652.646 585.82 648.16C584.618 643.677 583.866 640.273 583.562 637.949C583.258 635.625 583.436 632.912 584.097 629.809C585.467 623.798 592.51 619.088 605.228 615.681C617.748 612.326 626.005 612.936 629.998 617.51C632.37 620.014 634.006 622.345 634.908 624.503C635.809 626.661 636.859 629.986 638.058 634.476C639.261 638.965 640.013 642.368 640.316 644.687C640.618 647.006 640.403 649.781 639.67 653.013Z" fill="#BDF3E9"/>
<path d="M623.5 632.732L607.692 650.232L601 643.639" stroke="#1AD8B4" stroke-width="5" stroke-linecap="round" stroke-linejoin="round"/>
<path d="M520.037 721.732C523.045 721.732 524.91 720.18 524.91 717.699C524.91 715.834 523.504 714.438 521.59 714.291V714.213C523.084 713.988 524.236 712.699 524.236 711.156C524.236 708.998 522.576 707.641 519.93 707.641H513.797V721.732H520.037ZM516.746 709.838H519.168C520.545 709.838 521.336 710.482 521.336 711.615C521.336 712.807 520.438 713.5 518.865 713.5H516.746V709.838ZM516.746 719.535V715.443H519.217C520.955 715.443 521.902 716.146 521.902 717.465C521.902 718.812 520.984 719.535 519.285 719.535H516.746ZM536.502 721.732H539.344V711.264H536.502V721.732ZM530.955 716.391C531.98 716.391 532.654 717.035 532.654 717.992C532.654 718.949 531.99 719.604 530.955 719.604H529.383V716.391H530.955ZM526.541 721.732H531.424C533.895 721.732 535.477 720.287 535.477 718.012C535.477 715.736 533.895 714.291 531.424 714.291H529.383V711.264H526.541V721.732ZM550.809 714.838C550.535 712.641 548.797 711.039 546.102 711.039C542.977 711.039 540.994 713.148 540.994 716.488C540.994 719.887 542.977 721.957 546.121 721.957C548.777 721.957 550.564 720.473 550.818 718.158H548.162C547.918 719.145 547.215 719.721 546.15 719.721C544.734 719.721 543.865 718.529 543.865 716.488C543.865 714.486 544.734 713.275 546.141 713.275C547.225 713.275 547.908 713.93 548.143 714.838H550.809ZM557.205 721.957C560.369 721.957 562.391 719.936 562.391 716.488C562.391 713.09 560.34 711.039 557.205 711.039C554.07 711.039 552.02 713.1 552.02 716.488C552.02 719.926 554.041 721.957 557.205 721.957ZM557.205 719.779C555.799 719.779 554.91 718.598 554.91 716.498C554.91 714.418 555.818 713.217 557.205 713.217C558.592 713.217 559.49 714.418 559.49 716.498C559.49 718.598 558.602 719.779 557.205 719.779ZM569.52 716.107L573.699 711.264H570.438L566.961 715.473H566.883V711.264H564.041V721.732H566.883V717.24H566.961L570.496 721.732H573.943L569.52 716.107ZM577.869 721.732L582.029 715.111H582.107V721.732H584.9V711.264H582.107L577.947 717.807H577.869V711.264H575.076V721.732H577.869ZM589.744 721.732L593.904 715.111H593.982V721.732H596.775V711.264H593.982L589.822 717.807H589.744V711.264H586.951V721.732H589.744ZM588.514 706.527C588.514 708.451 589.891 709.74 591.951 709.74C594.002 709.74 595.389 708.451 595.389 706.527H593.641C593.621 707.572 592.967 708.324 591.951 708.324C590.926 708.324 590.271 707.572 590.252 706.527H588.514ZM609.559 721.732H612.4V711.264H602.791V721.732H605.633V713.412H609.559V721.732ZM619.256 721.957C622.42 721.957 624.441 719.936 624.441 716.488C624.441 713.09 622.391 711.039 619.256 711.039C616.121 711.039 614.07 713.1 614.07 716.488C614.07 719.926 616.092 721.957 619.256 721.957ZM619.256 719.779C617.85 719.779 616.961 718.598 616.961 716.498C616.961 714.418 617.869 713.217 619.256 713.217C620.643 713.217 621.541 714.418 621.541 716.498C621.541 718.598 620.652 719.779 619.256 719.779ZM631.57 716.107L635.75 711.264H632.488L629.012 715.473H628.934V711.264H626.092V721.732H628.934V717.24H629.012L632.547 721.732H635.994L631.57 716.107ZM641.014 719.838C640.047 719.838 639.402 719.35 639.402 718.568C639.402 717.826 640.008 717.348 641.072 717.27L643.279 717.133V717.895C643.279 719.027 642.254 719.838 641.014 719.838ZM640.076 721.898C641.385 721.898 642.684 721.244 643.27 720.131H643.328V721.732H646.082V714.535C646.082 712.426 644.334 711.039 641.648 711.039C638.875 711.039 637.146 712.436 637.039 714.467H639.646C639.783 713.695 640.457 713.168 641.521 713.168C642.596 713.168 643.279 713.734 643.279 714.711V715.404L640.643 715.561C638.035 715.717 636.57 716.82 636.57 718.725C636.57 720.609 638.084 721.898 640.076 721.898ZM652.342 721.957C655.184 721.957 656.941 720.658 656.941 718.598C656.941 717.436 656.268 716.596 654.998 716.264V716.186C655.975 715.912 656.57 715.062 656.57 714.018C656.57 712.152 655.066 711.039 652.273 711.039C649.715 711.039 648.055 712.318 647.85 714.418H650.535C650.662 713.627 651.297 713.188 652.293 713.188C653.299 713.188 653.797 713.646 653.797 714.33C653.797 715.072 653.279 715.434 652.273 715.434H650.906V717.289H652.352C653.514 717.289 654.1 717.67 654.1 718.49C654.1 719.252 653.475 719.75 652.342 719.75C651.287 719.75 650.613 719.301 650.369 718.412H647.654C647.85 720.629 649.627 721.957 652.342 721.957ZM662.713 719.838C661.746 719.838 661.102 719.35 661.102 718.568C661.102 717.826 661.707 717.348 662.771 717.27L664.979 717.133V717.895C664.979 719.027 663.953 719.838 662.713 719.838ZM661.775 721.898C663.084 721.898 664.383 721.244 664.969 720.131H665.027V721.732H667.781V714.535C667.781 712.426 666.033 711.039 663.348 711.039C660.574 711.039 658.846 712.436 658.738 714.467H661.346C661.482 713.695 662.156 713.168 663.221 713.168C664.295 713.168 664.979 713.734 664.979 714.711V715.404L662.342 715.561C659.734 715.717 658.27 716.82 658.27 718.725C658.27 720.609 659.783 721.898 661.775 721.898ZM678.191 711.264H669.109V713.412H672.234V721.732H675.076V713.412H678.191V711.264ZM684.148 713.148C685.418 713.148 686.287 714.066 686.346 715.404H681.902C682 714.096 682.898 713.148 684.148 713.148ZM686.385 718.529C686.121 719.33 685.32 719.848 684.275 719.848C682.82 719.848 681.873 718.822 681.873 717.328V717.152H689.09V716.283C689.09 713.1 687.166 711.039 684.119 711.039C681.023 711.039 679.07 713.207 679.07 716.547C679.07 719.896 681.004 721.957 684.227 721.957C686.814 721.957 688.689 720.58 689.002 718.529H686.385ZM694.207 716.713L694.412 713.412H697.068V721.732H699.91V711.264H691.971L691.678 716.527C691.59 718.178 691.287 719.389 690.291 719.389C690.008 719.389 689.793 719.35 689.676 719.32V721.723C689.822 721.781 690.145 721.859 690.584 721.859C693.172 721.859 694.021 719.818 694.207 716.713ZM706.385 716.391C707.41 716.391 708.084 717.035 708.084 717.992C708.084 718.949 707.42 719.604 706.385 719.604H704.812V716.391H706.385ZM701.971 721.732H706.854C709.324 721.732 710.906 720.287 710.906 718.012C710.906 715.736 709.324 714.291 706.854 714.291H704.812V711.264H701.971V721.732ZM536.648 737.139V731.641H534.207V737.139H536.648ZM541.17 737.139V731.641H538.729V737.139H541.17ZM547.205 743.838C546.238 743.838 545.594 743.35 545.594 742.568C545.594 741.826 546.199 741.348 547.264 741.27L549.471 741.133V741.895C549.471 743.027 548.445 743.838 547.205 743.838ZM546.268 745.898C547.576 745.898 548.875 745.244 549.461 744.131H549.52V745.732H552.273V738.535C552.273 736.426 550.525 735.039 547.84 735.039C545.066 735.039 543.338 736.436 543.23 738.467H545.838C545.975 737.695 546.648 737.168 547.713 737.168C548.787 737.168 549.471 737.734 549.471 738.711V739.404L546.834 739.561C544.227 739.717 542.762 740.82 542.762 742.725C542.762 744.609 544.275 745.898 546.268 745.898ZM563.631 739.16C563.504 736.787 561.707 735.039 558.875 735.039C555.74 735.039 553.738 737.129 553.738 740.488C553.738 743.906 555.74 745.957 558.895 745.957C561.648 745.957 563.494 744.365 563.641 741.895H560.984C560.809 743.037 560.066 743.721 558.924 743.721C557.508 743.721 556.629 742.549 556.629 740.488C556.629 738.467 557.508 737.275 558.914 737.275C560.086 737.275 560.818 738.057 560.984 739.16H563.631ZM574.529 739.16C574.402 736.787 572.605 735.039 569.773 735.039C566.639 735.039 564.637 737.129 564.637 740.488C564.637 743.906 566.639 745.957 569.793 745.957C572.547 745.957 574.393 744.365 574.539 741.895H571.883C571.707 743.037 570.965 743.721 569.822 743.721C568.406 743.721 567.527 742.549 567.527 740.488C567.527 738.467 568.406 737.275 569.812 737.275C570.984 737.275 571.717 738.057 571.883 739.16H574.529ZM580.721 745.957C583.885 745.957 585.906 743.936 585.906 740.488C585.906 737.09 583.855 735.039 580.721 735.039C577.586 735.039 575.535 737.1 575.535 740.488C575.535 743.926 577.557 745.957 580.721 745.957ZM580.721 743.779C579.314 743.779 578.426 742.598 578.426 740.498C578.426 738.418 579.334 737.217 580.721 737.217C582.107 737.217 583.006 738.418 583.006 740.498C583.006 742.598 582.117 743.779 580.721 743.779ZM597.049 735.264H594.197V741.26C594.197 742.646 593.406 743.555 592.137 743.555C590.877 743.555 590.184 742.812 590.184 741.416V735.264H587.332V742.012C587.332 744.453 588.836 745.928 591.102 745.928C592.684 745.928 593.719 745.166 594.236 743.848H594.295V745.732H597.049V735.264ZM598.904 745.732H601.756V739.727C601.756 738.369 602.566 737.432 603.846 737.432C605.125 737.432 605.77 738.213 605.77 739.58V745.732H608.621V738.984C608.621 736.533 607.312 735.068 604.988 735.068C603.377 735.068 602.273 735.83 601.717 737.129H601.658V735.264H598.904V745.732ZM611.189 732.852V735.264H609.715V737.412H611.189V742.91C611.189 744.951 612.146 745.771 614.607 745.771C615.184 745.771 615.672 745.723 615.965 745.654V743.555C615.789 743.584 615.525 743.604 615.271 743.604C614.432 743.604 614.041 743.223 614.041 742.422V737.412H615.975V735.264H614.041V732.852H611.189ZM621.57 745.732H624.422V739.756C624.422 738.379 625.213 737.432 626.561 737.432C627.859 737.432 628.523 738.252 628.523 739.6V745.732H631.375V738.994C631.375 736.572 630.047 735.068 627.723 735.068C626.131 735.068 624.988 735.811 624.432 737.129H624.373V731.641H621.57V745.732ZM637.898 737.148C639.168 737.148 640.037 738.066 640.096 739.404H635.652C635.75 738.096 636.648 737.148 637.898 737.148ZM640.135 742.529C639.871 743.33 639.07 743.848 638.025 743.848C636.57 743.848 635.623 742.822 635.623 741.328V741.152H642.84V740.283C642.84 737.1 640.916 735.039 637.869 735.039C634.773 735.039 632.82 737.207 632.82 740.547C632.82 743.896 634.754 745.957 637.977 745.957C640.564 745.957 642.439 744.58 642.752 742.529H640.135ZM648.357 743.838C647.391 743.838 646.746 743.35 646.746 742.568C646.746 741.826 647.352 741.348 648.416 741.27L650.623 741.133V741.895C650.623 743.027 649.598 743.838 648.357 743.838ZM647.42 745.898C648.729 745.898 650.027 745.244 650.613 744.131H650.672V745.732H653.426V738.535C653.426 736.426 651.678 735.039 648.992 735.039C646.219 735.039 644.49 736.436 644.383 738.467H646.99C647.127 737.695 647.801 737.168 648.865 737.168C649.939 737.168 650.623 737.734 650.623 738.711V739.404L647.986 739.561C645.379 739.717 643.914 740.82 643.914 742.725C643.914 744.609 645.428 745.898 647.42 745.898ZM655.34 745.732H658.191V731.641H655.34V745.732ZM660.877 732.852V735.264H659.402V737.412H660.877V742.91C660.877 744.951 661.834 745.771 664.295 745.771C664.871 745.771 665.359 745.723 665.652 745.654V743.555C665.477 743.584 665.213 743.604 664.959 743.604C664.119 743.604 663.729 743.223 663.729 742.422V737.412H665.662V735.264H663.729V732.852H660.877ZM667.293 745.732H670.145V739.756C670.145 738.379 670.936 737.432 672.283 737.432C673.582 737.432 674.246 738.252 674.246 739.6V745.732H677.098V738.994C677.098 736.572 675.77 735.068 673.445 735.068C671.854 735.068 670.711 735.811 670.154 737.129H670.096V731.641H667.293V745.732ZM681.297 737.139V731.641H678.855V737.139H681.297ZM685.818 737.139V731.641H683.377V737.139H685.818ZM569.441 769.732H572.283V759.264H569.441V763.287H565.418V759.264H562.576V769.732H565.418V765.445H569.441V769.732ZM578.377 767.838C577.41 767.838 576.766 767.35 576.766 766.568C576.766 765.826 577.371 765.348 578.436 765.27L580.643 765.133V765.895C580.643 767.027 579.617 767.838 578.377 767.838ZM577.439 769.898C578.748 769.898 580.047 769.244 580.633 768.131H580.691V769.732H583.445V762.535C583.445 760.426 581.697 759.039 579.012 759.039C576.238 759.039 574.51 760.436 574.402 762.467H577.01C577.146 761.695 577.82 761.168 578.885 761.168C579.959 761.168 580.643 761.734 580.643 762.711V763.404L578.006 763.561C575.398 763.717 573.934 764.82 573.934 766.725C573.934 768.609 575.447 769.898 577.439 769.898ZM598.904 769.732H602.039L597.137 755.641H593.67L588.777 769.732H591.805L592.879 766.314H597.83L598.904 769.732ZM595.32 758.336H595.389L597.195 764.107H593.514L595.32 758.336ZM606.111 769.732V762.73H606.18L608.885 769.146H610.857L613.572 762.73H613.641V769.732H616.316V759.264H612.664L609.93 766.1H609.861L607.127 759.264H603.436V769.732H606.111ZM622.42 767.838C621.453 767.838 620.809 767.35 620.809 766.568C620.809 765.826 621.414 765.348 622.479 765.27L624.686 765.133V765.895C624.686 767.027 623.66 767.838 622.42 767.838ZM621.482 769.898C622.791 769.898 624.09 769.244 624.676 768.131H624.734V769.732H627.488V762.535C627.488 760.426 625.74 759.039 623.055 759.039C620.281 759.039 618.553 760.436 618.445 762.467H621.053C621.189 761.695 621.863 761.168 622.928 761.168C624.002 761.168 624.686 761.734 624.686 762.711V763.404L622.049 763.561C619.441 763.717 617.977 764.82 617.977 766.725C617.977 768.609 619.49 769.898 621.482 769.898ZM633.748 769.957C636.59 769.957 638.348 768.658 638.348 766.598C638.348 765.436 637.674 764.596 636.404 764.264V764.186C637.381 763.912 637.977 763.062 637.977 762.018C637.977 760.152 636.473 759.039 633.68 759.039C631.121 759.039 629.461 760.318 629.256 762.418H631.941C632.068 761.627 632.703 761.188 633.699 761.188C634.705 761.188 635.203 761.646 635.203 762.33C635.203 763.072 634.686 763.434 633.68 763.434H632.312V765.289H633.758C634.92 765.289 635.506 765.67 635.506 766.49C635.506 767.252 634.881 767.75 633.748 767.75C632.693 767.75 632.02 767.301 631.775 766.412H629.061C629.256 768.629 631.033 769.957 633.748 769.957ZM644.881 769.957C648.045 769.957 650.066 767.936 650.066 764.488C650.066 761.09 648.016 759.039 644.881 759.039C641.746 759.039 639.695 761.1 639.695 764.488C639.695 767.926 641.717 769.957 644.881 769.957ZM644.881 767.779C643.475 767.779 642.586 766.598 642.586 764.498C642.586 762.418 643.494 761.217 644.881 761.217C646.268 761.217 647.166 762.418 647.166 764.498C647.166 766.598 646.277 767.779 644.881 767.779ZM658.582 769.732H661.424V759.264H658.582V763.287H654.559V759.264H651.717V769.732H654.559V765.445H658.582V769.732Z" fill="black"/>
<path d="M1094.68 598.789C1091.85 612.126 1083.38 623.391 1069.25 632.583C1055.13 641.775 1035.23 650.007 1009.56 657.278C983.882 664.557 962.615 667.993 945.765 667.586C928.914 667.178 915.722 661.839 906.187 651.567C896.674 641.304 890 631.744 886.167 622.888C882.334 614.031 877.811 600.401 872.599 581.998C867.385 563.603 864.084 549.629 862.694 540.076C861.304 530.523 861.878 519.336 864.415 506.516C869.699 481.677 898.43 461.862 950.61 447.071C1001.98 432.511 1036.02 434.532 1052.74 453.135C1062.66 463.307 1069.53 472.811 1073.38 481.647C1077.22 490.483 1081.74 504.113 1086.94 522.537C1092.16 540.952 1095.46 554.926 1096.85 564.459C1098.23 573.991 1097.51 585.435 1094.68 598.789Z" fill="#FF4F45"/>
<path d="M1173.14 551.811C1169.2 570.423 1157.37 586.143 1137.65 598.971C1117.94 611.799 1090.18 623.286 1054.36 633.433C1018.52 643.592 988.842 648.387 965.327 647.818C941.811 647.249 923.401 639.798 910.096 625.464C896.819 611.141 887.506 597.8 882.157 585.441C876.808 573.082 870.496 554.061 863.223 528.378C855.947 502.708 851.339 483.207 849.399 469.876C847.46 456.544 848.261 440.932 851.802 423.042C859.175 388.378 899.271 360.726 972.088 340.086C1043.77 319.766 1091.28 322.587 1114.61 348.548C1128.45 362.743 1138.05 376.006 1143.41 388.337C1148.77 400.668 1155.08 419.689 1162.34 445.4C1169.63 471.098 1174.24 490.599 1176.17 503.902C1178.1 517.205 1177.09 533.175 1173.14 551.811Z" fill="white"/>
<path d="M1040.67 437.194C1039.94 440.422 1037.84 443.126 1034.38 445.308C1030.92 447.49 1026.06 449.419 1019.8 451.094C1013.54 452.771 1008.37 453.531 1004.28 453.373C1000.19 453.215 997.008 451.873 994.73 449.346C992.456 446.822 990.87 444.478 989.97 442.314C989.071 440.151 988.021 436.827 986.82 432.341C985.618 427.858 984.866 424.454 984.562 422.13C984.258 419.807 984.436 417.093 985.097 413.99C986.467 407.979 993.51 403.27 1006.23 399.862C1018.75 396.507 1027.01 397.117 1031 401.691C1033.37 404.195 1035.01 406.526 1035.91 408.684C1036.81 410.843 1037.86 414.167 1039.06 418.657C1040.26 423.146 1041.01 426.549 1041.32 428.868C1041.62 431.187 1041.4 433.962 1040.67 437.194Z" fill="#BDF3E9"/>
<path d="M1024.5 416.914L1008.69 434.414L1002 427.82" stroke="#1AD8B4" stroke-width="5" stroke-linecap="round" stroke-linejoin="round"/>
<path d="M962.785 506.226C966.867 506.226 969.396 503.414 969.396 498.863C969.396 494.322 966.848 491.509 962.785 491.509C959.484 491.509 956.926 493.58 956.555 496.578H959.455C959.826 495.025 961.145 494.019 962.785 494.019C964.68 494.019 966.096 495.386 966.311 497.623H960.783V499.908H966.34C966.174 502.271 964.738 503.716 962.775 503.716C961.105 503.716 959.855 502.808 959.445 501.304H956.545C957.004 504.312 959.416 506.226 962.785 506.226ZM976.74 500.289L980.92 495.445H977.658L974.182 499.654H974.104V495.445H971.262V505.914H974.104V501.421H974.182L977.717 505.914H981.164L976.74 500.289ZM991.369 499.019C991.096 496.822 989.357 495.22 986.662 495.22C983.537 495.22 981.555 497.33 981.555 500.669C981.555 504.068 983.537 506.138 986.682 506.138C989.338 506.138 991.125 504.654 991.379 502.339H988.723C988.479 503.326 987.775 503.902 986.711 503.902C985.295 503.902 984.426 502.71 984.426 500.669C984.426 498.667 985.295 497.457 986.701 497.457C987.785 497.457 988.469 498.111 988.703 499.019H991.369ZM999.729 505.914H1002.57V495.445H992.961V505.914H995.803V497.593H999.729V505.914ZM1009.32 497.33C1010.59 497.33 1011.46 498.248 1011.52 499.585H1007.07C1007.17 498.277 1008.07 497.33 1009.32 497.33ZM1011.55 502.71C1011.29 503.511 1010.49 504.029 1009.45 504.029C1007.99 504.029 1007.04 503.003 1007.04 501.509V501.333H1014.26V500.464C1014.26 497.281 1012.34 495.22 1009.29 495.22C1006.19 495.22 1004.24 497.388 1004.24 500.728C1004.24 504.078 1006.17 506.138 1009.4 506.138C1011.98 506.138 1013.86 504.761 1014.17 502.71H1011.55ZM1022.02 495.279C1020.51 495.279 1019.35 496.041 1018.78 497.271H1018.72V495.445H1015.91V509.332H1018.76V504.156H1018.82C1019.38 505.337 1020.55 506.08 1022.07 506.08C1024.69 506.08 1026.31 504.048 1026.31 500.679C1026.31 497.3 1024.68 495.279 1022.02 495.279ZM1021.07 503.785C1019.67 503.785 1018.75 502.574 1018.75 500.679C1018.75 498.804 1019.67 497.564 1021.07 497.564C1022.49 497.564 1023.39 498.785 1023.39 500.679C1023.39 502.583 1022.49 503.785 1021.07 503.785ZM1036.19 495.445H1027.11V497.593H1030.24V505.914H1033.08V497.593H1036.19V495.445ZM1040.44 505.914L1044.6 499.292H1044.68V505.914H1047.47V495.445H1044.68L1040.52 501.988H1040.44V495.445H1037.65V505.914H1040.44ZM1053.76 506.138C1056.6 506.138 1058.36 504.839 1058.36 502.779C1058.36 501.617 1057.69 500.777 1056.42 500.445V500.367C1057.39 500.093 1057.99 499.244 1057.99 498.199C1057.99 496.333 1056.49 495.22 1053.69 495.22C1051.13 495.22 1049.47 496.5 1049.27 498.599H1051.96C1052.08 497.808 1052.72 497.369 1053.71 497.369C1054.72 497.369 1055.22 497.828 1055.22 498.511C1055.22 499.253 1054.7 499.615 1053.69 499.615H1052.33V501.47H1053.77C1054.93 501.47 1055.52 501.851 1055.52 502.671C1055.52 503.433 1054.89 503.931 1053.76 503.931C1052.71 503.931 1052.03 503.482 1051.79 502.593H1049.07C1049.27 504.81 1051.05 506.138 1053.76 506.138ZM1064.13 504.019C1063.17 504.019 1062.52 503.531 1062.52 502.75C1062.52 502.007 1063.13 501.529 1064.19 501.451L1066.4 501.314V502.076C1066.4 503.208 1065.37 504.019 1064.13 504.019ZM1063.2 506.08C1064.5 506.08 1065.8 505.425 1066.39 504.312H1066.45V505.914H1069.2V498.716C1069.2 496.607 1067.45 495.22 1064.77 495.22C1061.99 495.22 1060.27 496.617 1060.16 498.648H1062.77C1062.9 497.876 1063.58 497.349 1064.64 497.349C1065.71 497.349 1066.4 497.916 1066.4 498.892V499.585L1063.76 499.742C1061.15 499.898 1059.69 501.001 1059.69 502.906C1059.69 504.791 1061.2 506.08 1063.2 506.08ZM985.402 521.251C986.34 521.251 986.867 521.691 986.867 522.453C986.867 523.244 986.301 523.683 985.256 523.683H983.713V521.251H985.402ZM985.402 525.333C986.613 525.333 987.258 525.802 987.258 526.71C987.258 527.619 986.643 528.107 985.529 528.107H983.713V525.333H985.402ZM980.92 529.914H986.262C988.635 529.914 990.119 528.722 990.119 526.886C990.119 525.568 989.152 524.591 987.756 524.425V524.347C988.83 524.181 989.65 523.205 989.65 522.082C989.65 520.431 988.342 519.445 986.164 519.445H980.92V529.914ZM1002.67 529.914H1005.51V519.445H1002.67V523.468H998.645V519.445H995.803V529.914H998.645V525.626H1002.67V529.914ZM1010.35 529.914L1014.51 523.292H1014.59V529.914H1017.38V519.445H1014.59L1010.43 525.988H1010.35V519.445H1007.56V529.914H1010.35ZM1019.44 529.914H1033.8V519.445H1030.96V527.755H1028.04V519.445H1025.2V527.755H1022.28V519.445H1019.44V529.914ZM1040.54 521.33C1041.81 521.33 1042.68 522.248 1042.74 523.585H1038.29C1038.39 522.277 1039.29 521.33 1040.54 521.33ZM1042.78 526.71C1042.51 527.511 1041.71 528.029 1040.67 528.029C1039.21 528.029 1038.26 527.003 1038.26 525.509V525.333H1045.48V524.464C1045.48 521.281 1043.56 519.22 1040.51 519.22C1037.41 519.22 1035.46 521.388 1035.46 524.728C1035.46 528.078 1037.39 530.138 1040.62 530.138C1043.21 530.138 1045.08 528.761 1045.39 526.71H1042.78Z" fill="black"/>
</svg>
