<svg width="742" height="563" viewBox="0 0 742 563" fill="none" xmlns="http://www.w3.org/2000/svg">
<rect y="42" width="742" height="521" rx="140" fill="url(#paint0_linear)"/>
<circle cx="371" cy="58" r="58" fill="#EFEFE8"/>
<path d="M358.977 50.7197V50.8418H365.813V50.7197C365.813 47.4727 368.327 45.0801 371.745 45.0801C375.017 45.0801 377.336 47.1797 377.336 49.8164C377.336 52.2578 376.238 54.04 372.673 57.6045L359.392 70.3975V75.3535H385.002V69.4941H369.109V69.3477L377.702 61.0713C381.584 57.2139 384.514 53.918 384.514 49.5234C384.514 43.6396 379.411 39.3428 371.99 39.3428C364.299 39.3428 358.977 44.0547 358.977 50.7197Z" fill="#222A33"/>
<path d="M322.096 52.9095C321.695 55.4384 323.102 57.2992 325.764 57.7218C328.426 58.1443 330.334 56.8157 330.736 54.281C331.138 51.7521 329.735 49.898 327.073 49.4754C324.411 49.0528 322.498 50.3806 322.096 52.9095ZM323.821 53.1832C324.009 51.9969 325.139 51.3813 326.731 51.6339C328.316 51.8856 329.2 52.8209 329.012 54.0072C328.822 55.1994 327.693 55.8092 326.108 55.5575C324.516 55.3048 323.633 54.3696 323.821 53.1832Z" fill="#222A33"/>
<path d="M329.898 41.7935L327.32 40.3175L328.364 38.1817L332.863 40.3809L331.494 43.1811L331.451 43.1604C331.239 42.6583 330.711 42.2561 329.898 41.7935ZM332.681 44.7088L334.983 39.9997L336.486 40.7344L337.334 38.9995L334.27 37.5016L333.806 38.4508L327.758 35.4937L324.942 41.2523L328.866 43.4776C329.882 44.0592 330.373 44.4564 330.522 45.1692L330.269 45.686L333.333 47.1838L334.184 45.4436L332.681 44.7088Z" fill="#222A33"/>
<path d="M334.208 26.1268C332.444 27.982 332.547 30.3127 334.5 32.1704C336.453 34.0281 338.778 34.0157 340.547 32.1563C342.311 30.3011 342.208 27.9786 340.255 26.1209C338.302 24.2631 335.973 24.2716 334.208 26.1268ZM335.473 27.3302C336.301 26.4599 337.581 26.5938 338.749 27.7044C339.912 28.8109 340.109 30.0825 339.281 30.9528C338.45 31.8273 337.174 31.6892 336.011 30.5827C334.843 29.4721 334.646 28.2005 335.473 27.3302Z" fill="#222A33"/>
<path d="M350.977 20.2961C350.165 18.9181 348.537 18.6603 346.937 19.6036L345.695 20.3356L345.011 19.1747L348.307 17.2316L347.429 15.7426L342.28 18.7777L346.574 26.0613L349.744 24.1926C351.304 23.2732 351.819 21.7246 350.977 20.2961ZM347.584 23.5408L346.486 21.6783L347.339 21.1754C348.092 20.732 348.726 20.7932 349.086 21.404C349.446 22.0147 349.19 22.5946 348.448 23.032L347.584 23.5408Z" fill="#222A33"/>
<path d="M353.254 12.8001L355.591 20.926L357.657 20.3318L356.972 17.9498L358.301 17.5677C360.109 17.048 361.028 15.5583 360.53 13.8239C360.028 12.0782 358.52 11.2863 356.774 11.7882L353.254 12.8001ZM355.776 13.7883L356.683 13.5276C357.55 13.2783 358.199 13.5855 358.442 14.4302C358.686 15.2805 358.299 15.8856 357.421 16.1381L356.526 16.3955L355.776 13.7883Z" fill="#222A33"/>
<path d="M371.32 16.3091L367.678 16.4471L367.613 14.7256L371.038 14.5958L370.978 13.0149L367.553 13.1447L367.489 11.4643L371.131 11.3263L371.066 9.59317L365.275 9.81259L365.595 18.2616L371.386 18.0422L371.32 16.3091Z" fill="#222A33"/>
<path d="M382.709 19.6258L384.607 11.3864L382.517 10.9051L381.772 14.1369L378.489 13.3807L379.234 10.1489L377.138 9.66628L375.24 17.9056L377.336 18.3883L378.1 15.0708L381.383 15.827L380.619 19.1445L382.709 19.6258Z" fill="#222A33"/>
<path d="M391.968 23.6222L393.834 24.6945L398.061 17.3386L396.272 16.3103L390.677 19.0961L390.626 19.0668L393.219 14.5554L391.353 13.4831L387.125 20.839L388.915 21.8674L394.507 19.0866L394.558 19.1159L391.968 23.6222Z" fill="#222A33"/>
<path d="M402.902 30.2658L400.346 27.6672L401.575 26.4593L403.978 28.9033L405.106 27.7941L402.703 25.3501L403.902 24.171L406.457 26.7696L407.694 25.5535L403.63 21.4217L397.602 27.35L401.665 31.4818L402.902 30.2658Z" fill="#222A33"/>
<path d="M410.51 37.8531L410.983 38.8546C411.34 39.6124 411.222 40.2256 410.665 40.4882C410.093 40.7582 409.476 40.4663 409.141 39.7562C408.776 38.9826 408.899 38.3091 409.469 38.0076L408.594 36.1529C407.127 36.9294 406.734 38.6242 407.592 40.4417C408.487 42.3388 410.074 43.2032 411.457 42.5506C412.474 42.0706 412.88 41.0628 412.501 39.9717L412.544 39.9517C413.116 40.738 414.087 40.9986 414.962 40.5861C416.212 39.996 416.499 38.4351 415.674 36.6864C414.819 34.8741 413.313 34.1531 411.803 34.8264L412.638 36.5963C413.247 36.3349 413.862 36.6215 414.197 37.3316C414.53 38.0364 414.398 38.6231 413.858 38.8782C413.317 39.1332 412.755 38.8478 412.435 38.1695L411.962 37.168L410.51 37.8531Z" fill="#222A33"/>
<path d="M411.691 52.2673L412.08 54.5068L419.882 50.2844L419.435 47.7062L410.666 46.3586L411.039 48.5062L412.951 48.7187L413.421 51.429L411.691 52.2673ZM417.89 49.2341L417.898 49.28L414.865 50.7526L414.537 48.8634L417.89 49.2341Z" fill="#222A33"/>
<path d="M354.956 102.512L358.296 94.7698L356.327 93.9203L354.996 97.0054C354.858 97.0604 354.324 97.2371 353.444 96.8575C352.499 96.4501 352.228 95.722 352.617 94.8206L353.526 92.712L351.557 91.8624L350.567 94.1589C349.833 95.8598 350.407 97.5077 352.28 98.3156C353.321 98.7647 354.1 98.6553 354.237 98.6188L354.29 98.6419L352.987 101.663L354.956 102.512Z" fill="#222A33"/>
<path d="M366.642 105.133L368.923 105.36L366.928 96.6401L364.303 96.3783L360.626 104.533L362.813 104.751L363.535 102.951L366.295 103.226L366.642 105.133ZM365.37 98.2917L365.417 98.2964L366.028 101.641L364.104 101.449L365.37 98.2917Z" fill="#222A33"/>
<path d="M377.998 105.04C380.073 104.658 381.334 103.127 381.183 101.207L379.126 101.585C379.094 102.479 378.551 103.121 377.68 103.281C376.516 103.495 375.609 102.643 375.309 101.012C375.012 99.399 375.562 98.2789 376.715 98.0668C377.574 97.9088 378.338 98.3401 378.676 99.1716L380.727 98.7942C380.212 96.9646 378.42 95.936 376.392 96.3092C373.914 96.7652 372.655 98.7006 373.155 101.415C373.655 104.135 375.509 105.498 377.998 105.04Z" fill="#222A33"/>
<path d="M392.426 99.97L394.451 98.9093L388.009 92.7393L385.679 93.9604L387.086 102.769L389.027 101.751L388.642 99.856L391.092 98.5723L392.426 99.97ZM387.616 94.9692L387.658 94.9475L390 97.3979L388.293 98.2927L387.616 94.9692Z" fill="#222A33"/>
<path d="M328 65C329.69 75.5706 335.145 84.8846 342.946 91.5235" stroke="#222A33" stroke-width="2"/>
<path d="M413.946 65C412.256 75.5706 406.802 84.8846 399 91.5235" stroke="#222A33" stroke-width="2"/>
<defs>
<linearGradient id="paint0_linear" x1="7.54564e-05" y1="302.5" x2="741.999" y2="302.5" gradientUnits="userSpaceOnUse">
<stop stop-color="#F46A4F"/>
<stop offset="0.41" stop-color="#F78154"/>
<stop offset="1" stop-color="#FDA95D"/>
</linearGradient>
</defs>
</svg>
